<svg width="225" height="81" viewBox="0 0 225 81" fill="none" xmlns="http://www.w3.org/2000/svg">
<path d="M60.0085 14.9354C54.7033 9.6303 47.508 6.6499 40.0054 6.6499C32.5028 6.6499 25.3075 9.6303 20.0023 14.9354C14.6972 20.2406 11.7168 27.4359 11.7168 34.9385C11.7168 42.4411 14.6972 49.6364 20.0023 54.9416L37.5717 72.5443C37.8816 72.8567 38.2503 73.1047 38.6566 73.274C39.0629 73.4433 39.4986 73.5304 39.9387 73.5304C40.3788 73.5304 40.8146 73.4433 41.2208 73.274C41.6271 73.1047 41.9958 72.8567 42.3057 72.5443L60.0085 54.7749C65.2914 49.4918 68.2594 42.3265 68.2594 34.8552C68.2594 27.3838 65.2914 20.2185 60.0085 14.9354ZM55.2411 50.0075L40.0054 65.3098L24.7697 50.0075C21.7598 46.9947 19.7105 43.1572 18.8811 38.9801C18.0517 34.8029 18.4794 30.4736 20.11 26.5395C21.7407 22.6053 24.5011 19.2429 28.0423 16.8773C31.5836 14.5117 35.7467 13.2491 40.0054 13.2491C44.2641 13.2491 48.4272 14.5117 51.9685 16.8773C55.5097 19.2429 58.2701 22.6053 59.9008 26.5395C61.5314 30.4736 61.959 34.8029 61.1296 38.9801C60.3002 43.1572 58.251 46.9947 55.2411 50.0075ZM30.0039 24.7036C27.3125 27.4033 25.8012 31.0598 25.8012 34.8718C25.8012 38.6838 27.3125 42.3404 30.0039 45.04C32.0034 47.043 34.5499 48.4108 37.3238 48.972C40.0978 49.5332 42.9757 49.2626 45.5965 48.1944C48.2173 47.1261 50.4643 45.3077 52.0555 42.9672C53.6467 40.6268 54.5114 37.8685 54.541 35.0385C54.556 33.1489 54.192 31.2755 53.4705 29.529C52.749 27.7825 51.6846 26.1984 50.3403 24.8703C49.019 23.5187 47.4435 22.4417 45.7043 21.7014C43.9652 20.961 42.0969 20.5719 40.2068 20.5564C38.3167 20.5409 36.4422 20.8993 34.6912 21.6111C32.9401 22.3228 31.3471 23.3738 30.0039 24.7036ZM45.6396 40.306C44.3762 41.5887 42.7065 42.3927 40.916 42.5805C39.1254 42.7684 37.3252 42.3284 35.8231 41.3359C34.321 40.3434 33.2103 38.8599 32.681 37.1391C32.1516 35.4183 32.2364 33.5671 32.9208 31.9019C33.6053 30.2367 34.8469 28.861 36.4335 28.0099C38.02 27.1588 39.8529 26.8853 41.6188 27.236C43.3846 27.5868 44.9739 28.5401 46.1147 29.9328C47.2555 31.3256 47.8772 33.0714 47.8733 34.8718C47.8248 36.9297 46.9614 38.8842 45.4729 40.306H45.6396Z" fill="#464646"/>
<path d="M92.7933 19.3985C93.878 19.6297 94.7492 20.172 95.4071 21.0254C96.065 21.8611 96.3939 22.8213 96.3939 23.9059C96.3939 25.4706 95.8427 26.7152 94.7403 27.6398C93.6557 28.5466 92.1355 29 90.1796 29H81.4583V10.2771H89.8862C91.7887 10.2771 93.2734 10.7128 94.3402 11.584C95.4249 12.4552 95.9672 13.6376 95.9672 15.1312C95.9672 16.2336 95.6738 17.1493 95.087 17.8783C94.518 18.6073 93.7535 19.114 92.7933 19.3985ZM86.019 17.8516H89.0061C89.7529 17.8516 90.3219 17.6916 90.713 17.3716C91.122 17.0337 91.3265 16.5448 91.3265 15.9047C91.3265 15.2646 91.122 14.7756 90.713 14.4378C90.3219 14.0999 89.7529 13.931 89.0061 13.931H86.019V17.8516ZM89.3795 25.3194C90.144 25.3194 90.7308 25.1505 91.1398 24.8127C91.5665 24.4571 91.7799 23.9503 91.7799 23.2925C91.7799 22.6346 91.5576 22.1189 91.1131 21.7456C90.6864 21.3722 90.0907 21.1855 89.3261 21.1855H86.019V25.3194H89.3795ZM98.1323 21.5322C98.1323 20.0031 98.4168 18.6606 98.9857 17.5049C99.5725 16.3492 100.364 15.4602 101.359 14.8378C102.355 14.2155 103.466 13.9044 104.693 13.9044C105.742 13.9044 106.658 14.1177 107.44 14.5445C108.24 14.9712 108.854 15.5313 109.281 16.2247V14.1177H113.841V29H109.281V26.893C108.836 27.5865 108.214 28.1465 107.414 28.5733C106.631 29 105.716 29.2134 104.667 29.2134C103.458 29.2134 102.355 28.9022 101.359 28.2799C100.364 27.6398 99.5725 26.7419 98.9857 25.5861C98.4168 24.4126 98.1323 23.0613 98.1323 21.5322ZM109.281 21.5589C109.281 20.4209 108.961 19.523 108.321 18.8651C107.698 18.2072 106.934 17.8783 106.027 17.8783C105.12 17.8783 104.347 18.2072 103.706 18.8651C103.084 19.5052 102.773 20.3942 102.773 21.5322C102.773 22.6701 103.084 23.5769 103.706 24.2526C104.347 24.9105 105.12 25.2394 106.027 25.2394C106.934 25.2394 107.698 24.9105 108.321 24.2526C108.961 23.5947 109.281 22.6968 109.281 21.5589ZM126.209 13.9577C127.951 13.9577 129.338 14.5267 130.37 15.6646C131.419 16.7848 131.943 18.3317 131.943 20.3053V29H127.409V20.9188C127.409 19.9231 127.151 19.1496 126.636 18.5984C126.12 18.0472 125.427 17.7716 124.555 17.7716C123.684 17.7716 122.991 18.0472 122.475 18.5984C121.959 19.1496 121.702 19.9231 121.702 20.9188V29H117.141V14.1177H121.702V16.0914C122.164 15.4335 122.786 14.9178 123.568 14.5445C124.351 14.1533 125.231 13.9577 126.209 13.9577ZM134.206 21.5322C134.206 20.0031 134.49 18.6606 135.059 17.5049C135.646 16.3492 136.437 15.4602 137.433 14.8378C138.428 14.2155 139.54 13.9044 140.767 13.9044C141.744 13.9044 142.633 14.1088 143.434 14.5178C144.251 14.9267 144.892 15.4779 145.354 16.1714V9.26365H149.915V29H145.354V26.8663C144.927 27.5776 144.314 28.1465 143.514 28.5733C142.731 29 141.816 29.2134 140.767 29.2134C139.54 29.2134 138.428 28.9022 137.433 28.2799C136.437 27.6398 135.646 26.7419 135.059 25.5861C134.49 24.4126 134.206 23.0613 134.206 21.5322ZM145.354 21.5589C145.354 20.4209 145.034 19.523 144.394 18.8651C143.771 18.2072 143.007 17.8783 142.1 17.8783C141.193 17.8783 140.42 18.2072 139.78 18.8651C139.157 19.5052 138.846 20.3942 138.846 21.5322C138.846 22.6701 139.157 23.5769 139.78 24.2526C140.42 24.9105 141.193 25.2394 142.1 25.2394C143.007 25.2394 143.771 24.9105 144.394 24.2526C145.034 23.5947 145.354 22.6968 145.354 21.5589ZM167.91 14.1177V29H163.349V26.973C162.887 27.6309 162.255 28.1643 161.455 28.5733C160.673 28.9644 159.802 29.16 158.842 29.16C157.704 29.16 156.699 28.9111 155.828 28.4132C154.957 27.8976 154.281 27.1597 153.801 26.1996C153.321 25.2394 153.081 24.1104 153.081 22.8124V14.1177H157.615V22.199C157.615 23.1947 157.873 23.9681 158.388 24.5193C158.904 25.0705 159.597 25.3461 160.468 25.3461C161.358 25.3461 162.06 25.0705 162.575 24.5193C163.091 23.9681 163.349 23.1947 163.349 22.199V14.1177H167.91ZM180.254 13.9577C181.996 13.9577 183.383 14.5267 184.414 15.6646C185.463 16.7848 185.988 18.3317 185.988 20.3053V29H181.454V20.9188C181.454 19.9231 181.196 19.1496 180.68 18.5984C180.165 18.0472 179.471 17.7716 178.6 17.7716C177.729 17.7716 177.035 18.0472 176.52 18.5984C176.004 19.1496 175.746 19.9231 175.746 20.9188V29H171.186V14.1177H175.746V16.0914C176.209 15.4335 176.831 14.9178 177.613 14.5445C178.396 14.1533 179.276 13.9577 180.254 13.9577ZM194.811 13.9044C195.86 13.9044 196.776 14.1177 197.558 14.5445C198.358 14.9712 198.972 15.5313 199.399 16.2247V14.1177H203.959V28.9733C203.959 30.3424 203.684 31.5782 203.133 32.6806C202.599 33.8007 201.772 34.6898 200.652 35.3476C199.55 36.0055 198.172 36.3345 196.518 36.3345C194.313 36.3345 192.526 35.8099 191.157 34.7609C189.788 33.7296 189.006 32.325 188.81 30.5469H193.318C193.46 31.1159 193.798 31.5604 194.331 31.8804C194.865 32.2183 195.522 32.3872 196.305 32.3872C197.247 32.3872 197.994 32.1116 198.545 31.5604C199.114 31.027 199.399 30.1646 199.399 28.9733V26.8663C198.954 27.5598 198.341 28.1288 197.558 28.5733C196.776 29 195.86 29.2134 194.811 29.2134C193.584 29.2134 192.473 28.9022 191.477 28.2799C190.482 27.6398 189.69 26.7419 189.104 25.5861C188.535 24.4126 188.25 23.0613 188.25 21.5322C188.25 20.0031 188.535 18.6606 189.104 17.5049C189.69 16.3492 190.482 15.4602 191.477 14.8378C192.473 14.2155 193.584 13.9044 194.811 13.9044ZM199.399 21.5589C199.399 20.4209 199.079 19.523 198.438 18.8651C197.816 18.2072 197.052 17.8783 196.145 17.8783C195.238 17.8783 194.465 18.2072 193.824 18.8651C193.202 19.5052 192.891 20.3942 192.891 21.5322C192.891 22.6701 193.202 23.5769 193.824 24.2526C194.465 24.9105 195.238 25.2394 196.145 25.2394C197.052 25.2394 197.816 24.9105 198.438 24.2526C199.079 23.5947 199.399 22.6968 199.399 21.5589ZM91.1664 59.4252C91.8421 59.5319 92.4555 59.8075 93.0067 60.252C93.5757 60.6965 94.0202 61.2477 94.3402 61.9056C94.6781 62.5635 94.847 63.2658 94.847 64.0126C94.847 64.9549 94.607 65.8084 94.1269 66.573C93.6468 67.3197 92.9445 67.9154 92.0199 68.3599C91.1131 68.7866 90.0374 69 88.7927 69H81.8583V50.4105H88.526C89.7884 50.4105 90.8642 50.6239 91.7532 51.0506C92.6422 51.4595 93.309 52.0196 93.7535 52.7308C94.198 53.4421 94.4203 54.2422 94.4203 55.1312C94.4203 56.2336 94.118 57.1493 93.5135 57.8783C92.9267 58.5895 92.1444 59.1052 91.1664 59.4252ZM84.2854 58.4384H88.366C89.5039 58.4384 90.3841 58.1717 91.0064 57.6383C91.6287 57.1048 91.9399 56.367 91.9399 55.4246C91.9399 54.4822 91.6287 53.7443 91.0064 53.2109C90.3841 52.6775 89.4862 52.4108 88.3127 52.4108H84.2854V58.4384ZM88.5794 66.9997C89.7884 66.9997 90.7308 66.7152 91.4065 66.1462C92.0821 65.5773 92.42 64.786 92.42 63.7725C92.42 62.7413 92.0643 61.9323 91.3531 61.3455C90.6419 60.741 89.6906 60.4387 88.4994 60.4387H84.2854V66.9997H88.5794ZM97.3082 61.6389C97.3082 60.1453 97.6105 58.8384 98.215 57.7183C98.8195 56.5803 99.6463 55.7002 100.695 55.0779C101.762 54.4556 102.945 54.1444 104.243 54.1444C105.523 54.1444 106.634 54.42 107.576 54.9712C108.519 55.5224 109.221 56.2158 109.683 57.0515V54.3844H112.137V69H109.683V66.2796C109.203 67.133 108.483 67.8443 107.523 68.4132C106.581 68.9644 105.478 69.24 104.216 69.24C102.918 69.24 101.744 68.92 100.695 68.2799C99.6463 67.6398 98.8195 66.7419 98.215 65.5861C97.6105 64.4304 97.3082 63.1147 97.3082 61.6389ZM109.683 61.6655C109.683 60.5632 109.461 59.603 109.017 58.7851C108.572 57.9672 107.968 57.3449 107.203 56.9182C106.456 56.4736 105.629 56.2514 104.723 56.2514C103.816 56.2514 102.989 56.4647 102.242 56.8915C101.496 57.3182 100.9 57.9405 100.455 58.7584C100.011 59.5763 99.7886 60.5365 99.7886 61.6389C99.7886 62.759 100.011 63.737 100.455 64.5727C100.9 65.3906 101.496 66.0218 102.242 66.4663C102.989 66.893 103.816 67.1064 104.723 67.1064C105.629 67.1064 106.456 66.893 107.203 66.4663C107.968 66.0218 108.572 65.3906 109.017 64.5727C109.461 63.737 109.683 62.7679 109.683 61.6655ZM121.413 69.24C120.293 69.24 119.288 69.0533 118.399 68.68C117.51 68.2888 116.808 67.7554 116.292 67.0797C115.776 66.3863 115.492 65.595 115.438 64.706H117.946C118.017 65.435 118.354 66.0307 118.959 66.4929C119.581 66.9552 120.39 67.1864 121.386 67.1864C122.311 67.1864 123.04 66.9819 123.573 66.573C124.106 66.164 124.373 65.6484 124.373 65.0261C124.373 64.386 124.089 63.9148 123.52 63.6125C122.951 63.2925 122.071 62.9813 120.879 62.679C119.795 62.3945 118.906 62.1101 118.212 61.8256C117.537 61.5233 116.95 61.0877 116.452 60.5187C115.972 59.9319 115.732 59.1674 115.732 58.225C115.732 57.4782 115.954 56.7937 116.399 56.1714C116.843 55.5491 117.474 55.0601 118.292 54.7045C119.11 54.3311 120.044 54.1444 121.093 54.1444C122.711 54.1444 124.018 54.5533 125.013 55.3712C126.009 56.1892 126.542 57.3093 126.614 58.7318H124.186C124.133 57.9672 123.822 57.3538 123.253 56.8915C122.702 56.4292 121.955 56.198 121.013 56.198C120.141 56.198 119.448 56.3847 118.932 56.7581C118.417 57.1315 118.159 57.6205 118.159 58.225C118.159 58.7051 118.31 59.1052 118.612 59.4252C118.932 59.7275 119.324 59.9764 119.786 60.172C120.266 60.3498 120.924 60.5543 121.759 60.7854C122.808 61.0699 123.662 61.3544 124.32 61.6389C124.978 61.9056 125.538 62.3145 126 62.8657C126.48 63.4169 126.729 64.137 126.747 65.0261C126.747 65.8262 126.525 66.5463 126.08 67.1864C125.636 67.8265 125.004 68.3332 124.186 68.7066C123.386 69.0622 122.462 69.24 121.413 69.24ZM143.508 61.1321C143.508 61.5944 143.482 62.0834 143.428 62.599H131.747C131.835 64.0392 132.324 65.1683 133.213 65.9862C134.12 66.7863 135.214 67.1864 136.494 67.1864C137.543 67.1864 138.414 66.9464 139.108 66.4663C139.819 65.9684 140.317 65.3105 140.601 64.4926H143.215C142.824 65.8973 142.041 67.0441 140.868 67.9332C139.694 68.8044 138.236 69.24 136.494 69.24C135.107 69.24 133.862 68.9289 132.76 68.3066C131.675 67.6842 130.822 66.8041 130.2 65.6662C129.577 64.5104 129.266 63.1769 129.266 61.6655C129.266 60.1542 129.568 58.8296 130.173 57.6916C130.778 56.5537 131.622 55.6824 132.707 55.0779C133.809 54.4556 135.072 54.1444 136.494 54.1444C137.881 54.1444 139.108 54.4467 140.175 55.0512C141.241 55.6557 142.059 56.4914 142.628 57.5582C143.215 58.6073 143.508 59.7986 143.508 61.1321ZM141.001 60.6254C141.001 59.7008 140.797 58.9096 140.388 58.2517C139.979 57.576 139.419 57.0693 138.708 56.7315C138.014 56.3758 137.241 56.198 136.387 56.198C135.16 56.198 134.111 56.5892 133.24 57.3716C132.387 58.1539 131.898 59.2385 131.773 60.6254H141.001ZM145.805 61.6655C145.805 60.1542 146.107 58.8384 146.712 57.7183C147.317 56.5803 148.152 55.7002 149.219 55.0779C150.304 54.4556 151.539 54.1444 152.926 54.1444C154.722 54.1444 156.198 54.58 157.354 55.4513C158.527 56.3225 159.301 57.5316 159.674 59.0785H157.06C156.811 58.1895 156.322 57.4871 155.593 56.9715C154.882 56.4559 153.993 56.198 152.926 56.198C151.539 56.198 150.419 56.6781 149.566 57.6383C148.712 58.5806 148.286 59.9231 148.286 61.6655C148.286 63.4258 148.712 64.786 149.566 65.7462C150.419 66.7063 151.539 67.1864 152.926 67.1864C153.993 67.1864 154.882 66.9375 155.593 66.4396C156.305 65.9418 156.794 65.2305 157.06 64.3059H159.674C159.283 65.7995 158.5 66.9997 157.327 67.9065C156.153 68.7955 154.687 69.24 152.926 69.24C151.539 69.24 150.304 68.9289 149.219 68.3066C148.152 67.6842 147.317 66.8041 146.712 65.6662C146.107 64.5282 145.805 63.1947 145.805 61.6655ZM162.006 61.6389C162.006 60.1453 162.308 58.8384 162.912 57.7183C163.517 56.5803 164.344 55.7002 165.393 55.0779C166.46 54.4556 167.642 54.1444 168.94 54.1444C170.22 54.1444 171.331 54.42 172.274 54.9712C173.216 55.5224 173.919 56.2158 174.381 57.0515V54.3844H176.835V69H174.381V66.2796C173.901 67.133 173.181 67.8443 172.22 68.4132C171.278 68.9644 170.176 69.24 168.913 69.24C167.615 69.24 166.442 68.92 165.393 68.2799C164.344 67.6398 163.517 66.7419 162.912 65.5861C162.308 64.4304 162.006 63.1147 162.006 61.6389ZM174.381 61.6655C174.381 60.5632 174.159 59.603 173.714 58.7851C173.27 57.9672 172.665 57.3449 171.9 56.9182C171.154 56.4736 170.327 56.2514 169.42 56.2514C168.513 56.2514 167.686 56.4647 166.94 56.8915C166.193 57.3182 165.597 57.9405 165.153 58.7584C164.708 59.5763 164.486 60.5365 164.486 61.6389C164.486 62.759 164.708 63.737 165.153 64.5727C165.597 65.3906 166.193 66.0218 166.94 66.4663C167.686 66.893 168.513 67.1064 169.42 67.1064C170.327 67.1064 171.154 66.893 171.9 66.4663C172.665 66.0218 173.27 65.3906 173.714 64.5727C174.159 63.737 174.381 62.7679 174.381 61.6655ZM198.512 54.1177C199.65 54.1177 200.663 54.3578 201.552 54.8378C202.441 55.3001 203.144 56.0025 203.659 56.9448C204.175 57.8872 204.433 59.034 204.433 60.3853V69H202.033V60.7321C202.033 59.2741 201.668 58.1628 200.939 57.3982C200.228 56.6159 199.259 56.2247 198.032 56.2247C196.77 56.2247 195.765 56.6337 195.018 57.4516C194.271 58.2517 193.898 59.4163 193.898 60.9454V69H191.498V60.7321C191.498 59.2741 191.133 58.1628 190.404 57.3982C189.693 56.6159 188.724 56.2247 187.497 56.2247C186.235 56.2247 185.23 56.6337 184.483 57.4516C183.736 58.2517 183.363 59.4163 183.363 60.9454V69H180.936V54.3844H183.363V56.4914C183.843 55.7269 184.483 55.1401 185.283 54.7312C186.101 54.3222 186.999 54.1177 187.977 54.1177C189.204 54.1177 190.289 54.3933 191.231 54.9445C192.173 55.4957 192.876 56.3047 193.338 57.3716C193.747 56.3403 194.422 55.5402 195.365 54.9712C196.307 54.4022 197.356 54.1177 198.512 54.1177ZM210.841 57.0782C211.321 56.2425 212.032 55.5491 212.975 54.9979C213.935 54.4289 215.046 54.1444 216.309 54.1444C217.607 54.1444 218.78 54.4556 219.829 55.0779C220.896 55.7002 221.732 56.5803 222.336 57.7183C222.941 58.8384 223.243 60.1453 223.243 61.6389C223.243 63.1147 222.941 64.4304 222.336 65.5861C221.732 66.7419 220.896 67.6398 219.829 68.2799C218.78 68.92 217.607 69.24 216.309 69.24C215.064 69.24 213.962 68.9644 213.002 68.4132C212.059 67.8443 211.339 67.1419 210.841 66.3063V75.9344H208.414V54.3844H210.841V57.0782ZM220.763 61.6389C220.763 60.5365 220.54 59.5763 220.096 58.7584C219.651 57.9405 219.047 57.3182 218.282 56.8915C217.536 56.4647 216.709 56.2514 215.802 56.2514C214.913 56.2514 214.086 56.4736 213.322 56.9182C212.575 57.3449 211.97 57.9761 211.508 58.8118C211.063 59.6297 210.841 60.5809 210.841 61.6655C210.841 62.7679 211.063 63.737 211.508 64.5727C211.97 65.3906 212.575 66.0218 213.322 66.4663C214.086 66.893 214.913 67.1064 215.802 67.1064C216.709 67.1064 217.536 66.893 218.282 66.4663C219.047 66.0218 219.651 65.3906 220.096 64.5727C220.54 63.737 220.763 62.759 220.763 61.6389Z" fill="#464646"/>
</svg>
