<svg width="251" height="81" viewBox="0 0 251 81" fill="none" xmlns="http://www.w3.org/2000/svg">
<path d="M60.0085 14.9354C54.7033 9.6303 47.508 6.6499 40.0054 6.6499C32.5028 6.6499 25.3075 9.6303 20.0023 14.9354C14.6972 20.2406 11.7168 27.4359 11.7168 34.9385C11.7168 42.4411 14.6972 49.6364 20.0023 54.9416L37.5717 72.5443C37.8816 72.8567 38.2503 73.1047 38.6566 73.274C39.0629 73.4433 39.4986 73.5304 39.9387 73.5304C40.3788 73.5304 40.8146 73.4433 41.2208 73.274C41.6271 73.1047 41.9958 72.8567 42.3057 72.5443L60.0085 54.7749C65.2914 49.4918 68.2594 42.3265 68.2594 34.8552C68.2594 27.3838 65.2914 20.2185 60.0085 14.9354ZM55.2411 50.0075L40.0054 65.3098L24.7697 50.0075C21.7598 46.9947 19.7105 43.1572 18.8811 38.9801C18.0517 34.8029 18.4794 30.4736 20.11 26.5395C21.7407 22.6053 24.5011 19.2429 28.0423 16.8773C31.5836 14.5117 35.7467 13.2491 40.0054 13.2491C44.2641 13.2491 48.4272 14.5117 51.9685 16.8773C55.5097 19.2429 58.2701 22.6053 59.9008 26.5395C61.5314 30.4736 61.959 34.8029 61.1296 38.9801C60.3002 43.1572 58.251 46.9947 55.2411 50.0075ZM30.0039 24.7036C27.3125 27.4033 25.8012 31.0598 25.8012 34.8718C25.8012 38.6838 27.3125 42.3404 30.0039 45.04C32.0034 47.043 34.5499 48.4108 37.3238 48.972C40.0978 49.5332 42.9757 49.2626 45.5965 48.1944C48.2173 47.1261 50.4643 45.3077 52.0555 42.9672C53.6467 40.6268 54.5114 37.8685 54.541 35.0385C54.556 33.1489 54.192 31.2755 53.4705 29.529C52.749 27.7825 51.6846 26.1984 50.3403 24.8703C49.019 23.5187 47.4435 22.4417 45.7043 21.7014C43.9652 20.961 42.0969 20.5719 40.2068 20.5564C38.3167 20.5409 36.4422 20.8993 34.6912 21.6111C32.9401 22.3228 31.3471 23.3738 30.0039 24.7036ZM45.6396 40.306C44.3762 41.5887 42.7065 42.3927 40.916 42.5805C39.1254 42.7684 37.3252 42.3284 35.8231 41.3359C34.321 40.3434 33.2103 38.8599 32.681 37.1391C32.1516 35.4183 32.2364 33.5671 32.9208 31.9019C33.6053 30.2367 34.8469 28.861 36.4335 28.0099C38.02 27.1588 39.8529 26.8853 41.6188 27.236C43.3846 27.5868 44.9739 28.5401 46.1147 29.9328C47.2555 31.3256 47.8772 33.0714 47.8733 34.8718C47.8248 36.9297 46.9614 38.8842 45.4729 40.306H45.6396Z" fill="#464646"/>
<path d="M92.9887 19.3985C94.0733 19.6297 94.9445 20.172 95.6024 21.0254C96.2603 21.8611 96.5892 22.8213 96.5892 23.9059C96.5892 25.4706 96.038 26.7152 94.9356 27.6398C93.851 28.5466 92.3308 29 90.3749 29H81.6536V10.2771H90.0815C91.9841 10.2771 93.4687 10.7128 94.5356 11.584C95.6202 12.4552 96.1625 13.6376 96.1625 15.1312C96.1625 16.2336 95.8691 17.1493 95.2823 17.8783C94.7134 18.6073 93.9488 19.114 92.9887 19.3985ZM86.2143 17.8516H89.2014C89.9482 17.8516 90.5172 17.6916 90.9083 17.3716C91.3173 17.0337 91.5218 16.5448 91.5218 15.9047C91.5218 15.2646 91.3173 14.7756 90.9083 14.4378C90.5172 14.0999 89.9482 13.931 89.2014 13.931H86.2143V17.8516ZM89.5748 25.3194C90.3394 25.3194 90.9261 25.1505 91.3351 24.8127C91.7618 24.4571 91.9752 23.9503 91.9752 23.2925C91.9752 22.6346 91.7529 22.1189 91.3084 21.7456C90.8817 21.3722 90.286 21.1855 89.5215 21.1855H86.2143V25.3194H89.5748ZM113.263 21.3188C113.263 21.7456 113.237 22.1901 113.183 22.6524H102.862C102.933 23.5769 103.226 24.2882 103.742 24.786C104.275 25.2661 104.924 25.5061 105.689 25.5061C106.827 25.5061 107.618 25.0261 108.062 24.0659H112.916C112.668 25.0438 112.214 25.924 111.556 26.7063C110.916 27.4887 110.107 28.1021 109.129 28.5466C108.151 28.9911 107.058 29.2134 105.849 29.2134C104.391 29.2134 103.093 28.9022 101.955 28.2799C100.817 27.6576 99.9278 26.7685 99.2877 25.6128C98.6476 24.4571 98.3276 23.1058 98.3276 21.5589C98.3276 20.012 98.6388 18.6606 99.2611 17.5049C99.9012 16.3492 100.79 15.4602 101.928 14.8378C103.066 14.2155 104.373 13.9044 105.849 13.9044C107.289 13.9044 108.569 14.2066 109.689 14.8112C110.81 15.4157 111.681 16.2781 112.303 17.3982C112.943 18.5184 113.263 19.8253 113.263 21.3188ZM108.596 20.1186C108.596 19.3363 108.329 18.714 107.796 18.2517C107.262 17.7894 106.596 17.5582 105.795 17.5582C105.031 17.5582 104.382 17.7805 103.848 18.225C103.333 18.6695 103.013 19.3007 102.888 20.1186H108.596ZM124.764 29L120.23 22.759V29H115.669V9.26365H120.23V20.172L124.737 14.1177H130.365L124.177 21.5855L130.418 29H124.764ZM131.249 21.5322C131.249 20.0031 131.534 18.6606 132.103 17.5049C132.69 16.3492 133.481 15.4602 134.476 14.8378C135.472 14.2155 136.583 13.9044 137.81 13.9044C138.859 13.9044 139.775 14.1177 140.557 14.5445C141.358 14.9712 141.971 15.5313 142.398 16.2247V14.1177H146.958V29H142.398V26.893C141.953 27.5865 141.331 28.1465 140.531 28.5733C139.748 29 138.833 29.2134 137.784 29.2134C136.575 29.2134 135.472 28.9022 134.476 28.2799C133.481 27.6398 132.69 26.7419 132.103 25.5861C131.534 24.4126 131.249 23.0613 131.249 21.5322ZM142.398 21.5589C142.398 20.4209 142.078 19.523 141.438 18.8651C140.815 18.2072 140.051 17.8783 139.144 17.8783C138.237 17.8783 137.464 18.2072 136.823 18.8651C136.201 19.5052 135.89 20.3942 135.89 21.5322C135.89 22.6701 136.201 23.5769 136.823 24.2526C137.464 24.9105 138.237 25.2394 139.144 25.2394C140.051 25.2394 140.815 24.9105 141.438 24.2526C142.078 23.5947 142.398 22.6968 142.398 21.5589ZM156.312 29.2134C155.014 29.2134 153.858 28.9911 152.845 28.5466C151.831 28.1021 151.031 27.4975 150.445 26.733C149.858 25.9506 149.529 25.0794 149.458 24.1193H153.965C154.018 24.6349 154.258 25.0527 154.685 25.3728C155.112 25.6928 155.636 25.8529 156.259 25.8529C156.828 25.8529 157.263 25.7462 157.566 25.5328C157.886 25.3017 158.046 25.0083 158.046 24.6527C158.046 24.2259 157.823 23.9148 157.379 23.7192C156.934 23.5058 156.214 23.2747 155.219 23.0258C154.152 22.7768 153.263 22.519 152.552 22.2523C151.84 21.9678 151.227 21.5322 150.711 20.9454C150.196 20.3409 149.938 19.5319 149.938 18.5184C149.938 17.6649 150.169 16.8915 150.631 16.198C151.111 15.4868 151.805 14.9267 152.712 14.5178C153.636 14.1088 154.73 13.9044 155.992 13.9044C157.859 13.9044 159.326 14.3667 160.393 15.2912C161.477 16.2158 162.1 17.4427 162.26 18.9718H158.046C157.975 18.4562 157.743 18.0472 157.352 17.7449C156.979 17.4427 156.481 17.2915 155.859 17.2915C155.325 17.2915 154.916 17.3982 154.632 17.6116C154.347 17.8072 154.205 18.0828 154.205 18.4384C154.205 18.8651 154.427 19.1852 154.872 19.3985C155.334 19.6119 156.045 19.8253 157.006 20.0386C158.108 20.3231 159.006 20.6076 159.699 20.8921C160.393 21.1588 160.997 21.6033 161.513 22.2256C162.046 22.8302 162.322 23.6481 162.34 24.6793C162.34 25.5506 162.091 26.3329 161.593 27.0264C161.113 27.702 160.41 28.2354 159.486 28.6266C158.579 29.0178 157.521 29.2134 156.312 29.2134ZM167.424 12.5708C166.623 12.5708 165.966 12.3397 165.45 11.8774C164.952 11.3973 164.703 10.8106 164.703 10.1171C164.703 9.40589 164.952 8.81913 165.45 8.35684C165.966 7.87677 166.623 7.63673 167.424 7.63673C168.206 7.63673 168.846 7.87677 169.344 8.35684C169.86 8.81913 170.117 9.40589 170.117 10.1171C170.117 10.8106 169.86 11.3973 169.344 11.8774C168.846 12.3397 168.206 12.5708 167.424 12.5708ZM169.691 14.1177V29H165.13V14.1177H169.691ZM96.3758 50.4105V69H93.9488V60.572H84.4807V69H82.0536V50.4105H84.4807V58.5717H93.9488V50.4105H96.3758ZM113.855 61.1321C113.855 61.5944 113.829 62.0834 113.775 62.599H102.094C102.182 64.0392 102.671 65.1683 103.56 65.9862C104.467 66.7863 105.561 67.1864 106.841 67.1864C107.89 67.1864 108.761 66.9464 109.455 66.4663C110.166 65.9684 110.664 65.3105 110.948 64.4926H113.562C113.171 65.8973 112.388 67.0441 111.215 67.9332C110.041 68.8044 108.583 69.24 106.841 69.24C105.454 69.24 104.209 68.9289 103.107 68.3066C102.022 67.6842 101.169 66.8041 100.547 65.6662C99.9244 64.5104 99.6132 63.1769 99.6132 61.6655C99.6132 60.1542 99.9155 58.8296 100.52 57.6916C101.125 56.5537 101.969 55.6824 103.054 55.0779C104.156 54.4556 105.419 54.1444 106.841 54.1444C108.228 54.1444 109.455 54.4467 110.522 55.0512C111.588 55.6557 112.406 56.4914 112.975 57.5582C113.562 58.6073 113.855 59.7986 113.855 61.1321ZM111.348 60.6254C111.348 59.7008 111.144 58.9096 110.735 58.2517C110.326 57.576 109.766 57.0693 109.055 56.7315C108.361 56.3758 107.588 56.198 106.734 56.198C105.507 56.198 104.458 56.5892 103.587 57.3716C102.734 58.1539 102.245 59.2385 102.12 60.6254H111.348ZM116.152 61.6389C116.152 60.1453 116.454 58.8384 117.059 57.7183C117.664 56.5803 118.49 55.7002 119.539 55.0779C120.606 54.4556 121.789 54.1444 123.087 54.1444C124.367 54.1444 125.478 54.42 126.42 54.9712C127.363 55.5224 128.065 56.2158 128.527 57.0515V54.3844H130.981V69H128.527V66.2796C128.047 67.133 127.327 67.8443 126.367 68.4132C125.425 68.9644 124.322 69.24 123.06 69.24C121.762 69.24 120.588 68.92 119.539 68.2799C118.49 67.6398 117.664 66.7419 117.059 65.5861C116.454 64.4304 116.152 63.1147 116.152 61.6389ZM128.527 61.6655C128.527 60.5632 128.305 59.603 127.861 58.7851C127.416 57.9672 126.812 57.3449 126.047 56.9182C125.3 56.4736 124.473 56.2514 123.567 56.2514C122.66 56.2514 121.833 56.4647 121.086 56.8915C120.34 57.3182 119.744 57.9405 119.299 58.7584C118.855 59.5763 118.633 60.5365 118.633 61.6389C118.633 62.759 118.855 63.737 119.299 64.5727C119.744 65.3906 120.34 66.0218 121.086 66.4663C121.833 66.893 122.66 67.1064 123.567 67.1064C124.473 67.1064 125.3 66.893 126.047 66.4663C126.812 66.0218 127.416 65.3906 127.861 64.5727C128.305 63.737 128.527 62.7679 128.527 61.6655ZM134.176 61.6389C134.176 60.1453 134.478 58.8384 135.083 57.7183C135.687 56.5803 136.514 55.7002 137.563 55.0779C138.63 54.4556 139.821 54.1444 141.137 54.1444C142.275 54.1444 143.333 54.4111 144.311 54.9445C145.289 55.4602 146.035 56.1447 146.551 56.9982V49.2636H149.005V69H146.551V66.2529C146.071 67.1242 145.36 67.8443 144.417 68.4132C143.475 68.9644 142.373 69.24 141.11 69.24C139.812 69.24 138.63 68.92 137.563 68.2799C136.514 67.6398 135.687 66.7419 135.083 65.5861C134.478 64.4304 134.176 63.1147 134.176 61.6389ZM146.551 61.6655C146.551 60.5632 146.329 59.603 145.884 58.7851C145.44 57.9672 144.835 57.3449 144.071 56.9182C143.324 56.4736 142.497 56.2514 141.59 56.2514C140.683 56.2514 139.857 56.4647 139.11 56.8915C138.363 57.3182 137.767 57.9405 137.323 58.7584C136.878 59.5763 136.656 60.5365 136.656 61.6389C136.656 62.759 136.878 63.737 137.323 64.5727C137.767 65.3906 138.363 66.0218 139.11 66.4663C139.857 66.893 140.683 67.1064 141.59 67.1064C142.497 67.1064 143.324 66.893 144.071 66.4663C144.835 66.0218 145.44 65.3906 145.884 64.5727C146.329 63.737 146.551 62.7679 146.551 61.6655ZM152.199 61.6389C152.199 60.1453 152.502 58.8384 153.106 57.7183C153.711 56.5803 154.538 55.7002 155.587 55.0779C156.653 54.4556 157.845 54.1444 159.16 54.1444C160.423 54.1444 161.525 54.4289 162.468 54.9979C163.428 55.5491 164.13 56.2336 164.575 57.0515V54.3844H167.028V75.9344H164.575V66.3063C164.112 67.1242 163.401 67.8176 162.441 68.3866C161.481 68.9555 160.361 69.24 159.08 69.24C157.8 69.24 156.636 68.92 155.587 68.2799C154.538 67.6398 153.711 66.7419 153.106 65.5861C152.502 64.4304 152.199 63.1147 152.199 61.6389ZM164.575 61.6655C164.575 60.5632 164.352 59.603 163.908 58.7851C163.463 57.9672 162.859 57.3449 162.094 56.9182C161.347 56.4736 160.521 56.2514 159.614 56.2514C158.707 56.2514 157.88 56.4647 157.133 56.8915C156.387 57.3182 155.791 57.9405 155.347 58.7584C154.902 59.5763 154.68 60.5365 154.68 61.6389C154.68 62.759 154.902 63.737 155.347 64.5727C155.791 65.3906 156.387 66.0218 157.133 66.4663C157.88 66.893 158.707 67.1064 159.614 67.1064C160.521 67.1064 161.347 66.893 162.094 66.4663C162.859 66.0218 163.463 65.3906 163.908 64.5727C164.352 63.737 164.575 62.7679 164.575 61.6655ZM184.092 54.3844V69H181.665V66.8397C181.202 67.5865 180.553 68.1732 179.718 68.5999C178.9 69.0089 177.993 69.2134 176.997 69.2134C175.859 69.2134 174.837 68.9822 173.93 68.5199C173.023 68.0399 172.303 67.3286 171.77 66.3863C171.254 65.4439 170.996 64.2971 170.996 62.9457V54.3844H173.397V62.6257C173.397 64.0659 173.761 65.1772 174.49 65.9595C175.219 66.7241 176.215 67.1064 177.477 67.1064C178.775 67.1064 179.798 66.7063 180.545 65.9062C181.291 65.1061 181.665 63.9414 181.665 62.4123V54.3844H184.092ZM187.283 61.6389C187.283 60.1453 187.585 58.8384 188.19 57.7183C188.794 56.5803 189.621 55.7002 190.67 55.0779C191.737 54.4556 192.919 54.1444 194.217 54.1444C195.497 54.1444 196.609 54.42 197.551 54.9712C198.493 55.5224 199.196 56.2158 199.658 57.0515V54.3844H202.112V69H199.658V66.2796C199.178 67.133 198.458 67.8443 197.498 68.4132C196.555 68.9644 195.453 69.24 194.191 69.24C192.893 69.24 191.719 68.92 190.67 68.2799C189.621 67.6398 188.794 66.7419 188.19 65.5861C187.585 64.4304 187.283 63.1147 187.283 61.6389ZM199.658 61.6655C199.658 60.5632 199.436 59.603 198.991 58.7851C198.547 57.9672 197.942 57.3449 197.178 56.9182C196.431 56.4736 195.604 56.2514 194.697 56.2514C193.791 56.2514 192.964 56.4647 192.217 56.8915C191.47 57.3182 190.875 57.9405 190.43 58.7584C189.986 59.5763 189.763 60.5365 189.763 61.6389C189.763 62.759 189.986 63.737 190.43 64.5727C190.875 65.3906 191.47 66.0218 192.217 66.4663C192.964 66.893 193.791 67.1064 194.697 67.1064C195.604 67.1064 196.431 66.893 197.178 66.4663C197.942 66.0218 198.547 65.3906 198.991 64.5727C199.436 63.737 199.658 62.7679 199.658 61.6655ZM208.64 56.7581C209.067 55.9224 209.672 55.2735 210.454 54.8112C211.254 54.3489 212.223 54.1177 213.361 54.1177V56.6248H212.721C210.001 56.6248 208.64 58.1006 208.64 61.0521V69H206.213V54.3844H208.64V56.7581ZM219.123 56.3847V64.9994C219.123 65.7106 219.274 66.2174 219.577 66.5196C219.879 66.8041 220.403 66.9464 221.15 66.9464H222.937V69H220.75C219.399 69 218.385 68.6888 217.71 68.0665C217.034 67.4442 216.696 66.4218 216.696 64.9994V56.3847H214.802V54.3844H216.696V50.7039H219.123V54.3844H222.937V56.3847H219.123ZM239.213 61.1321C239.213 61.5944 239.186 62.0834 239.133 62.599H227.451C227.54 64.0392 228.029 65.1683 228.918 65.9862C229.825 66.7863 230.919 67.1864 232.199 67.1864C233.248 67.1864 234.119 66.9464 234.812 66.4663C235.524 65.9684 236.022 65.3105 236.306 64.4926H238.92C238.529 65.8973 237.746 67.0441 236.573 67.9332C235.399 68.8044 233.941 69.24 232.199 69.24C230.812 69.24 229.567 68.9289 228.465 68.3066C227.38 67.6842 226.527 66.8041 225.904 65.6662C225.282 64.5104 224.971 63.1769 224.971 61.6655C224.971 60.1542 225.273 58.8296 225.878 57.6916C226.482 56.5537 227.327 55.6824 228.411 55.0779C229.514 54.4556 230.776 54.1444 232.199 54.1444C233.586 54.1444 234.812 54.4467 235.879 55.0512C236.946 55.6557 237.764 56.4914 238.333 57.5582C238.92 58.6073 239.213 59.7986 239.213 61.1321ZM236.706 60.6254C236.706 59.7008 236.502 58.9096 236.093 58.2517C235.684 57.576 235.124 57.0693 234.412 56.7315C233.719 56.3758 232.945 56.198 232.092 56.198C230.865 56.198 229.816 56.5892 228.945 57.3716C228.091 58.1539 227.602 59.2385 227.478 60.6254H236.706ZM244.844 56.7581C245.27 55.9224 245.875 55.2735 246.657 54.8112C247.457 54.3489 248.427 54.1177 249.564 54.1177V56.6248H248.924C246.204 56.6248 244.844 58.1006 244.844 61.0521V69H242.417V54.3844H244.844V56.7581Z" fill="#464646"/>
</svg>
