<svg width="35" height="35" viewBox="0 0 35 35" fill="none" xmlns="http://www.w3.org/2000/svg">
<g opacity="0.5">
<path d="M12.0312 11.6668C12.0312 11.0628 12.5209 10.5731 13.125 10.5731H23.3333C23.9374 10.5731 24.4271 11.0628 24.4271 11.6668C24.4271 12.2709 23.9374 12.7606 23.3333 12.7606H13.125C12.5209 12.7606 12.0312 12.2709 12.0312 11.6668Z" fill="#464646"/>
<path d="M13.125 14.9481C12.5209 14.9481 12.0312 15.4378 12.0312 16.0418C12.0312 16.6459 12.5209 17.1356 13.125 17.1356H20.4167C21.0207 17.1356 21.5104 16.6459 21.5104 16.0418C21.5104 15.4378 21.0207 14.9481 20.4167 14.9481H13.125Z" fill="#464646"/>
<path fill-rule="evenodd" clip-rule="evenodd" d="M12.3958 4.73975C8.57011 4.73975 5.46875 7.84111 5.46875 11.6668V26.2502C5.46875 29.2705 7.91719 31.7189 10.9375 31.7189H26.9792C28.3886 31.7189 29.5312 30.5763 29.5312 29.1668V7.29183C29.5312 5.88235 28.3886 4.73975 26.9792 4.73975H12.3958ZM27.3438 20.7814V7.29183C27.3438 7.09048 27.1805 6.92725 26.9792 6.92725H12.3958C9.77823 6.92725 7.65625 9.04923 7.65625 11.6668V21.8748C8.57025 21.1882 9.70637 20.7814 10.9375 20.7814H27.3438ZM27.3438 22.9689H10.9375C9.12532 22.9689 7.65625 24.438 7.65625 26.2502C7.65625 28.0623 9.12532 29.5314 10.9375 29.5314H26.9792C27.1805 29.5314 27.3438 29.3682 27.3438 29.1668V22.9689Z" fill="#464646"/>
</g>
</svg>
