<svg width="1284" height="1288" viewBox="0 0 1284 1288" fill="none" xmlns="http://www.w3.org/2000/svg">
<circle cx="644.5" cy="647.5" r="339.5" stroke="white" stroke-width="30"/>
<path d="M1007 282C959.365 222.725 965.783 189.511 998.5 130.501C965.585 106.663 946.236 94.7659 909 78.5007C841 211.501 672.5 152.501 694 20.0007C653.469 14.9322 631.115 14.3538 590.5 20.0007C607.5 151.501 429 202.501 375.5 76.5007C338.844 93.2514 317 107.5 284.5 131.5C373 236 222.5 368.5 130 284.5C102.5 317 88.299 340.525 76.5 376C194.5 430 153 604 18.9999 593C13.8991 632.835 14.127 655.168 18.9998 695C144.5 680 202 862.499 76.4999 911C91.3191 948.044 102.113 961.528 128 1000C180.642 957.546 235 971.5 280 1011.5" stroke="white" stroke-width="30"/>
<path d="M279.5 1011C318 1045.5 324.5 1105.5 285.5 1158C318.415 1181.84 337.764 1193.74 375 1210C443 1077 611.5 1136 590 1268.5C630.531 1273.57 652.885 1274.15 693.5 1268.5C676.5 1137 855 1086 908.5 1212C945.156 1195.25 967 1181 999.5 1157C911 1052.5 1061.5 920.001 1154 1004C1181.5 971.501 1195.7 947.976 1207.5 912.501C1089.5 858.501 1131 684.501 1265 695.501C1270.1 655.666 1269.87 633.333 1265 593.501C1139.5 608.501 1082 426.002 1207.5 377.501C1192.68 340.457 1181.89 326.973 1156 288.501C1109.5 326.5 1041.5 318 1003.5 278" stroke="white" stroke-width="30"/>
</svg>
