<svg width="147" height="190" viewBox="0 0 167 217" fill="none" xmlns="http://www.w3.org/2000/svg">
<path d="M82.5838 118.831C80.9692 118.831 79.3547 118.454 78.0092 117.7C67.9449 112.211 50.2919 106.398 39.205 104.945L37.6443 104.73C30.5939 103.869 24.7812 97.2488 24.7812 90.0908V25.0762C24.7812 20.8244 26.4497 16.9495 29.5174 14.1509C32.5852 11.3523 36.5677 10.0067 40.7656 10.3835C52.5522 11.3522 70.4205 17.2725 80.5386 23.5694L81.8302 24.323C82.207 24.4844 83.0144 24.5382 83.3374 24.323L84.1983 23.7846C87.8043 21.5241 92.3251 19.3174 97.2765 17.3261C98.5144 16.8417 99.9138 17.0033 101.044 17.7568C102.174 18.5102 102.82 19.7481 102.82 21.0936V35.5173L107.287 32.5572C108.633 31.6423 110.409 31.6423 111.754 32.5572L116.221 35.5173V14.9583C116.221 13.0208 117.62 11.3521 119.504 10.9754C121.065 10.7063 122.626 10.4911 124.025 10.3835C124.133 10.3835 124.563 10.3835 124.671 10.3835C128.6 10.0605 132.636 11.4061 135.65 14.2048C138.718 17.0034 140.386 20.8783 140.386 25.1301V90.0908C140.386 97.3026 134.574 103.869 127.47 104.73L125.694 104.945C114.607 106.398 96.8461 112.265 86.9971 117.7C85.813 118.454 84.1984 118.831 82.5838 118.831ZM39.4201 18.3487C37.6979 18.3487 36.1373 18.9408 34.8994 20.071C33.5539 21.3088 32.8004 23.0849 32.8004 25.0762V90.0908C32.8004 93.2661 35.5453 96.3338 38.613 96.7644L40.2275 96.9799C52.337 98.5945 70.905 104.676 81.6689 110.596C82.1533 110.811 82.8528 110.865 83.1219 110.758C93.9397 104.784 112.562 98.6483 124.725 97.0337L126.555 96.8183C129.622 96.4415 132.367 93.32 132.367 90.1446V25.1839C132.367 23.1926 131.614 21.4704 130.268 20.1787C128.923 18.9409 127.039 18.3488 125.102 18.4564C124.94 18.4564 124.456 18.4564 124.348 18.4564V43.0522C124.348 44.5592 123.541 45.9045 122.195 46.6042C120.85 47.3038 119.289 47.2501 118.051 46.389L109.548 40.738L101.044 46.389C99.8061 47.1963 98.2452 47.3038 96.8997 46.6042C95.6081 45.9045 94.7471 44.5592 94.7471 43.0522V27.283C92.4329 28.4132 90.3337 29.5434 88.5039 30.6198L87.6429 31.1579C84.6828 32.9877 80.4849 32.9878 77.6325 31.2117L76.3408 30.4046C67.2453 24.6997 50.6685 19.2098 40.1198 18.3487C39.8507 18.3487 39.6354 18.3487 39.4201 18.3487Z" />
<path d="M82.5834 114.315C80.3768 114.315 78.5469 112.485 78.5469 110.278V29.5482C78.5469 27.3416 80.3768 25.5117 82.5834 25.5117C84.79 25.5117 86.6199 27.3416 86.6199 29.5482V110.278C86.6199 112.539 84.79 114.315 82.5834 114.315Z" />
<path d="M120.258 47.0952C119.451 47.0952 118.697 46.8799 117.997 46.3955L109.494 40.7445L100.99 46.3955C99.7523 47.2028 98.1918 47.3104 96.8463 46.6107C95.5546 45.911 94.6934 44.5657 94.6934 43.0587V21.1001C94.6934 19.4317 95.7158 17.9785 97.2227 17.3326C104.65 14.3725 112.777 12.0583 119.612 10.9819C120.796 10.7666 121.98 11.1436 122.895 11.8971C123.81 12.6506 124.294 13.7808 124.294 14.9649V43.0587C124.294 44.5657 123.487 45.911 122.141 46.6107C121.549 46.9336 120.904 47.0952 120.258 47.0952ZM109.494 31.8641C110.247 31.8641 111.055 32.0794 111.754 32.5638L116.221 35.5238V19.8623C111.916 20.8311 107.233 22.2304 102.766 23.8988V35.5238L107.233 32.5638C107.933 32.0794 108.74 31.8641 109.494 31.8641Z" />
<path d="M9.39859 162.6C9.39859 160.952 9.76659 159.48 10.5026 158.184C11.2546 156.872 12.2706 155.856 13.5506 155.136C14.8466 154.4 16.2946 154.032 17.8946 154.032C19.7666 154.032 21.4066 154.512 22.8146 155.472C24.2226 156.432 25.2066 157.76 25.7666 159.456H21.9026C21.5186 158.656 20.9746 158.056 20.2706 157.656C19.5826 157.256 18.7826 157.056 17.8706 157.056C16.8946 157.056 16.0226 157.288 15.2546 157.752C14.5026 158.2 13.9106 158.84 13.4786 159.672C13.0626 160.504 12.8546 161.48 12.8546 162.6C12.8546 163.704 13.0626 164.68 13.4786 165.528C13.9106 166.36 14.5026 167.008 15.2546 167.472C16.0226 167.92 16.8946 168.144 17.8706 168.144C18.7826 168.144 19.5826 167.944 20.2706 167.544C20.9746 167.128 21.5186 166.52 21.9026 165.72H25.7666C25.2066 167.432 24.2226 168.768 22.8146 169.728C21.4226 170.672 19.7826 171.144 17.8946 171.144C16.2946 171.144 14.8466 170.784 13.5506 170.064C12.2706 169.328 11.2546 168.312 10.5026 167.016C9.76659 165.72 9.39859 164.248 9.39859 162.6ZM34.5405 171.216C33.2605 171.216 32.1085 170.936 31.0845 170.376C30.0605 169.8 29.2525 168.992 28.6605 167.952C28.0845 166.912 27.7965 165.712 27.7965 164.352C27.7965 162.992 28.0925 161.792 28.6845 160.752C29.2925 159.712 30.1165 158.912 31.1565 158.352C32.1965 157.776 33.3565 157.488 34.6365 157.488C35.9165 157.488 37.0765 157.776 38.1165 158.352C39.1565 158.912 39.9725 159.712 40.5645 160.752C41.1725 161.792 41.4765 162.992 41.4765 164.352C41.4765 165.712 41.1645 166.912 40.5405 167.952C39.9325 168.992 39.1005 169.8 38.0445 170.376C37.0045 170.936 35.8365 171.216 34.5405 171.216ZM34.5405 168.288C35.1485 168.288 35.7165 168.144 36.2445 167.856C36.7885 167.552 37.2205 167.104 37.5405 166.512C37.8605 165.92 38.0205 165.2 38.0205 164.352C38.0205 163.088 37.6845 162.12 37.0125 161.448C36.3565 160.76 35.5485 160.416 34.5885 160.416C33.6285 160.416 32.8205 160.76 32.1645 161.448C31.5245 162.12 31.2045 163.088 31.2045 164.352C31.2045 165.616 31.5165 166.592 32.1405 167.28C32.7805 167.952 33.5805 168.288 34.5405 168.288ZM60.4532 157.512C62.0852 157.512 63.3972 158.016 64.3892 159.024C65.3972 160.016 65.9012 161.408 65.9012 163.2V171H62.5412V163.656C62.5412 162.616 62.2772 161.824 61.7492 161.28C61.2212 160.72 60.5012 160.44 59.5892 160.44C58.6772 160.44 57.9492 160.72 57.4052 161.28C56.8772 161.824 56.6132 162.616 56.6132 163.656V171H53.2532V163.656C53.2532 162.616 52.9892 161.824 52.4612 161.28C51.9332 160.72 51.2132 160.44 50.3012 160.44C49.3732 160.44 48.6372 160.72 48.0932 161.28C47.5652 161.824 47.3012 162.616 47.3012 163.656V171H43.9412V157.704H47.3012V159.312C47.7332 158.752 48.2852 158.312 48.9572 157.992C49.6452 157.672 50.3972 157.512 51.2132 157.512C52.2532 157.512 53.1812 157.736 53.9972 158.184C54.8132 158.616 55.4452 159.24 55.8932 160.056C56.3252 159.288 56.9492 158.672 57.7652 158.208C58.5972 157.744 59.4932 157.512 60.4532 157.512ZM72.4496 159.624C72.8816 159.016 73.4736 158.512 74.2256 158.112C74.9936 157.696 75.8656 157.488 76.8416 157.488C77.9776 157.488 79.0016 157.768 79.9136 158.328C80.8416 158.888 81.5696 159.688 82.0976 160.728C82.6416 161.752 82.9136 162.944 82.9136 164.304C82.9136 165.664 82.6416 166.872 82.0976 167.928C81.5696 168.968 80.8416 169.776 79.9136 170.352C79.0016 170.928 77.9776 171.216 76.8416 171.216C75.8656 171.216 75.0016 171.016 74.2496 170.616C73.5136 170.216 72.9136 169.712 72.4496 169.104V177.336H69.0896V157.704H72.4496V159.624ZM79.4816 164.304C79.4816 163.504 79.3136 162.816 78.9776 162.24C78.6576 161.648 78.2256 161.2 77.6816 160.896C77.1536 160.592 76.5776 160.44 75.9536 160.44C75.3456 160.44 74.7696 160.6 74.2256 160.92C73.6976 161.224 73.2656 161.672 72.9296 162.264C72.6096 162.856 72.4496 163.552 72.4496 164.352C72.4496 165.152 72.6096 165.848 72.9296 166.44C73.2656 167.032 73.6976 167.488 74.2256 167.808C74.7696 168.112 75.3456 168.264 75.9536 168.264C76.5776 168.264 77.1536 168.104 77.6816 167.784C78.2256 167.464 78.6576 167.008 78.9776 166.416C79.3136 165.824 79.4816 165.12 79.4816 164.304ZM88.7152 153.24V171H85.3552V153.24H88.7152ZM93.7389 156.12C93.1469 156.12 92.6509 155.936 92.2509 155.568C91.8669 155.184 91.6749 154.712 91.6749 154.152C91.6749 153.592 91.8669 153.128 92.2509 152.76C92.6509 152.376 93.1469 152.184 93.7389 152.184C94.3309 152.184 94.8189 152.376 95.2029 152.76C95.6029 153.128 95.8029 153.592 95.8029 154.152C95.8029 154.712 95.6029 155.184 95.2029 155.568C94.8189 155.936 94.3309 156.12 93.7389 156.12ZM95.3949 157.704V171H92.0349V157.704H95.3949ZM97.8506 164.304C97.8506 162.96 98.1146 161.768 98.6426 160.728C99.1866 159.688 99.9146 158.888 100.827 158.328C101.755 157.768 102.787 157.488 103.923 157.488C104.915 157.488 105.779 157.688 106.515 158.088C107.267 158.488 107.867 158.992 108.315 159.6V157.704H111.699V171H108.315V169.056C107.883 169.68 107.283 170.2 106.515 170.616C105.763 171.016 104.891 171.216 103.899 171.216C102.779 171.216 101.755 170.928 100.827 170.352C99.9146 169.776 99.1866 168.968 98.6426 167.928C98.1146 166.872 97.8506 165.664 97.8506 164.304ZM108.315 164.352C108.315 163.536 108.155 162.84 107.835 162.264C107.515 161.672 107.083 161.224 106.539 160.92C105.995 160.6 105.411 160.44 104.787 160.44C104.163 160.44 103.587 160.592 103.059 160.896C102.531 161.2 102.099 161.648 101.763 162.24C101.443 162.816 101.283 163.504 101.283 164.304C101.283 165.104 101.443 165.808 101.763 166.416C102.099 167.008 102.531 167.464 103.059 167.784C103.603 168.104 104.179 168.264 104.787 168.264C105.411 168.264 105.995 168.112 106.539 167.808C107.083 167.488 107.515 167.04 107.835 166.464C108.155 165.872 108.315 165.168 108.315 164.352ZM122.348 157.512C123.932 157.512 125.212 158.016 126.188 159.024C127.164 160.016 127.652 161.408 127.652 163.2V171H124.292V163.656C124.292 162.6 124.028 161.792 123.5 161.232C122.972 160.656 122.252 160.368 121.34 160.368C120.412 160.368 119.676 160.656 119.132 161.232C118.604 161.792 118.34 162.6 118.34 163.656V171H114.98V157.704H118.34V159.36C118.788 158.784 119.356 158.336 120.044 158.016C120.748 157.68 121.516 157.512 122.348 157.512ZM129.983 164.352C129.983 162.976 130.263 161.776 130.823 160.752C131.383 159.712 132.159 158.912 133.151 158.352C134.143 157.776 135.279 157.488 136.559 157.488C138.207 157.488 139.567 157.904 140.639 158.736C141.727 159.552 142.455 160.704 142.823 162.192H139.199C139.007 161.616 138.679 161.168 138.215 160.848C137.767 160.512 137.207 160.344 136.535 160.344C135.575 160.344 134.815 160.696 134.255 161.4C133.695 162.088 133.415 163.072 133.415 164.352C133.415 165.616 133.695 166.6 134.255 167.304C134.815 167.992 135.575 168.336 136.535 168.336C137.895 168.336 138.783 167.728 139.199 166.512H142.823C142.455 167.952 141.727 169.096 140.639 169.944C139.551 170.792 138.191 171.216 136.559 171.216C135.279 171.216 134.143 170.936 133.151 170.376C132.159 169.8 131.383 169 130.823 167.976C130.263 166.936 129.983 165.728 129.983 164.352ZM157.645 164.064C157.645 164.544 157.613 164.976 157.549 165.36H147.829C147.909 166.32 148.245 167.072 148.837 167.616C149.429 168.16 150.157 168.432 151.021 168.432C152.269 168.432 153.157 167.896 153.685 166.824H157.309C156.925 168.104 156.189 169.16 155.101 169.992C154.013 170.808 152.677 171.216 151.093 171.216C149.813 171.216 148.661 170.936 147.637 170.376C146.629 169.8 145.837 168.992 145.261 167.952C144.701 166.912 144.421 165.712 144.421 164.352C144.421 162.976 144.701 161.768 145.261 160.728C145.821 159.688 146.605 158.888 147.613 158.328C148.621 157.768 149.781 157.488 151.093 157.488C152.357 157.488 153.485 157.76 154.477 158.304C155.485 158.848 156.261 159.624 156.805 160.632C157.365 161.624 157.645 162.768 157.645 164.064ZM154.165 163.104C154.149 162.24 153.837 161.552 153.229 161.04C152.621 160.512 151.877 160.248 150.997 160.248C150.165 160.248 149.461 160.504 148.885 161.016C148.325 161.512 147.981 162.208 147.853 163.104H154.165ZM20.3223 190.248V207H16.9623V196.104L12.4743 207H9.93034L5.41834 196.104V207H2.05834V190.248H5.87434L11.2023 202.704L16.5303 190.248H20.3223ZM22.7803 200.304C22.7803 198.96 23.0443 197.768 23.5723 196.728C24.1163 195.688 24.8443 194.888 25.7563 194.328C26.6843 193.768 27.7163 193.488 28.8523 193.488C29.8443 193.488 30.7083 193.688 31.4443 194.088C32.1963 194.488 32.7963 194.992 33.2443 195.6V193.704H36.6283V207H33.2443V205.056C32.8123 205.68 32.2123 206.2 31.4443 206.616C30.6923 207.016 29.8203 207.216 28.8283 207.216C27.7083 207.216 26.6843 206.928 25.7563 206.352C24.8443 205.776 24.1163 204.968 23.5723 203.928C23.0443 202.872 22.7803 201.664 22.7803 200.304ZM33.2443 200.352C33.2443 199.536 33.0843 198.84 32.7643 198.264C32.4443 197.672 32.0123 197.224 31.4683 196.92C30.9243 196.6 30.3403 196.44 29.7163 196.44C29.0923 196.44 28.5163 196.592 27.9883 196.896C27.4603 197.2 27.0283 197.648 26.6923 198.24C26.3723 198.816 26.2123 199.504 26.2123 200.304C26.2123 201.104 26.3723 201.808 26.6923 202.416C27.0283 203.008 27.4603 203.464 27.9883 203.784C28.5323 204.104 29.1083 204.264 29.7163 204.264C30.3403 204.264 30.9243 204.112 31.4683 203.808C32.0123 203.488 32.4443 203.04 32.7643 202.464C33.0843 201.872 33.2443 201.168 33.2443 200.352ZM47.2779 193.512C48.8619 193.512 50.1419 194.016 51.1179 195.024C52.0939 196.016 52.5819 197.408 52.5819 199.2V207H49.2219V199.656C49.2219 198.6 48.9579 197.792 48.4299 197.232C47.9019 196.656 47.1819 196.368 46.2699 196.368C45.3419 196.368 44.6059 196.656 44.0619 197.232C43.5339 197.792 43.2699 198.6 43.2699 199.656V207H39.9099V193.704H43.2699V195.36C43.7179 194.784 44.2859 194.336 44.9739 194.016C45.6779 193.68 46.4459 193.512 47.2779 193.512ZM54.9131 200.304C54.9131 198.96 55.1771 197.768 55.7051 196.728C56.2491 195.688 56.9771 194.888 57.8891 194.328C58.8171 193.768 59.8491 193.488 60.9851 193.488C61.9771 193.488 62.8411 193.688 63.5771 194.088C64.3291 194.488 64.9291 194.992 65.3771 195.6V193.704H68.7611V207H65.3771V205.056C64.9451 205.68 64.3451 206.2 63.5771 206.616C62.8251 207.016 61.9531 207.216 60.9611 207.216C59.8411 207.216 58.8171 206.928 57.8891 206.352C56.9771 205.776 56.2491 204.968 55.7051 203.928C55.1771 202.872 54.9131 201.664 54.9131 200.304ZM65.3771 200.352C65.3771 199.536 65.2171 198.84 64.8971 198.264C64.5771 197.672 64.1451 197.224 63.6011 196.92C63.0571 196.6 62.4731 196.44 61.8491 196.44C61.2251 196.44 60.6491 196.592 60.1211 196.896C59.5931 197.2 59.1611 197.648 58.8251 198.24C58.5051 198.816 58.3451 199.504 58.3451 200.304C58.3451 201.104 58.5051 201.808 58.8251 202.416C59.1611 203.008 59.5931 203.464 60.1211 203.784C60.6651 204.104 61.2411 204.264 61.8491 204.264C62.4731 204.264 63.0571 204.112 63.6011 203.808C64.1451 203.488 64.5771 203.04 64.8971 202.464C65.2171 201.872 65.3771 201.168 65.3771 200.352ZM77.2507 193.488C78.2427 193.488 79.1147 193.688 79.8667 194.088C80.6187 194.472 81.2107 194.976 81.6427 195.6V193.704H85.0267V207.096C85.0267 208.328 84.7787 209.424 84.2827 210.384C83.7867 211.36 83.0427 212.128 82.0507 212.688C81.0587 213.264 79.8587 213.552 78.4507 213.552C76.5627 213.552 75.0107 213.112 73.7947 212.232C72.5947 211.352 71.9147 210.152 71.7547 208.632H75.0907C75.2667 209.24 75.6427 209.72 76.2187 210.072C76.8107 210.44 77.5227 210.624 78.3547 210.624C79.3307 210.624 80.1227 210.328 80.7307 209.736C81.3387 209.16 81.6427 208.28 81.6427 207.096V205.032C81.2107 205.656 80.6107 206.176 79.8427 206.592C79.0907 207.008 78.2267 207.216 77.2507 207.216C76.1307 207.216 75.1067 206.928 74.1787 206.352C73.2507 205.776 72.5147 204.968 71.9707 203.928C71.4427 202.872 71.1787 201.664 71.1787 200.304C71.1787 198.96 71.4427 197.768 71.9707 196.728C72.5147 195.688 73.2427 194.888 74.1547 194.328C75.0827 193.768 76.1147 193.488 77.2507 193.488ZM81.6427 200.352C81.6427 199.536 81.4827 198.84 81.1627 198.264C80.8427 197.672 80.4107 197.224 79.8667 196.92C79.3227 196.6 78.7387 196.44 78.1147 196.44C77.4907 196.44 76.9147 196.592 76.3867 196.896C75.8587 197.2 75.4267 197.648 75.0907 198.24C74.7707 198.816 74.6107 199.504 74.6107 200.304C74.6107 201.104 74.7707 201.808 75.0907 202.416C75.4267 203.008 75.8587 203.464 76.3867 203.784C76.9307 204.104 77.5067 204.264 78.1147 204.264C78.7387 204.264 79.3227 204.112 79.8667 203.808C80.4107 203.488 80.8427 203.04 81.1627 202.464C81.4827 201.872 81.6427 201.168 81.6427 200.352ZM100.668 200.064C100.668 200.544 100.636 200.976 100.572 201.36H90.8523C90.9323 202.32 91.2683 203.072 91.8603 203.616C92.4523 204.16 93.1803 204.432 94.0443 204.432C95.2923 204.432 96.1803 203.896 96.7083 202.824H100.332C99.9483 204.104 99.2123 205.16 98.1243 205.992C97.0363 206.808 95.7003 207.216 94.1163 207.216C92.8363 207.216 91.6843 206.936 90.6603 206.376C89.6523 205.8 88.8603 204.992 88.2843 203.952C87.7243 202.912 87.4443 201.712 87.4443 200.352C87.4443 198.976 87.7243 197.768 88.2843 196.728C88.8443 195.688 89.6283 194.888 90.6363 194.328C91.6443 193.768 92.8043 193.488 94.1163 193.488C95.3803 193.488 96.5083 193.76 97.5003 194.304C98.5083 194.848 99.2843 195.624 99.8283 196.632C100.388 197.624 100.668 198.768 100.668 200.064ZM97.1883 199.104C97.1723 198.24 96.8603 197.552 96.2523 197.04C95.6443 196.512 94.9003 196.248 94.0203 196.248C93.1883 196.248 92.4843 196.504 91.9083 197.016C91.3483 197.512 91.0043 198.208 90.8763 199.104H97.1883ZM119.633 193.512C121.265 193.512 122.577 194.016 123.569 195.024C124.577 196.016 125.081 197.408 125.081 199.2V207H121.721V199.656C121.721 198.616 121.457 197.824 120.929 197.28C120.401 196.72 119.681 196.44 118.769 196.44C117.857 196.44 117.129 196.72 116.585 197.28C116.057 197.824 115.793 198.616 115.793 199.656V207H112.433V199.656C112.433 198.616 112.169 197.824 111.641 197.28C111.113 196.72 110.393 196.44 109.481 196.44C108.553 196.44 107.817 196.72 107.273 197.28C106.745 197.824 106.481 198.616 106.481 199.656V207H103.121V193.704H106.481V195.312C106.913 194.752 107.465 194.312 108.137 193.992C108.825 193.672 109.577 193.512 110.393 193.512C111.433 193.512 112.361 193.736 113.177 194.184C113.993 194.616 114.625 195.24 115.073 196.056C115.505 195.288 116.129 194.672 116.945 194.208C117.777 193.744 118.673 193.512 119.633 193.512ZM140.629 200.064C140.629 200.544 140.597 200.976 140.533 201.36H130.813C130.893 202.32 131.229 203.072 131.821 203.616C132.413 204.16 133.141 204.432 134.005 204.432C135.253 204.432 136.141 203.896 136.669 202.824H140.293C139.909 204.104 139.173 205.16 138.085 205.992C136.997 206.808 135.661 207.216 134.077 207.216C132.797 207.216 131.645 206.936 130.621 206.376C129.613 205.8 128.821 204.992 128.245 203.952C127.685 202.912 127.405 201.712 127.405 200.352C127.405 198.976 127.685 197.768 128.245 196.728C128.805 195.688 129.589 194.888 130.597 194.328C131.605 193.768 132.765 193.488 134.077 193.488C135.341 193.488 136.469 193.76 137.461 194.304C138.469 194.848 139.245 195.624 139.789 196.632C140.349 197.624 140.629 198.768 140.629 200.064ZM137.149 199.104C137.133 198.24 136.821 197.552 136.213 197.04C135.605 196.512 134.861 196.248 133.981 196.248C133.149 196.248 132.445 196.504 131.869 197.016C131.309 197.512 130.965 198.208 130.837 199.104H137.149ZM150.45 193.512C152.034 193.512 153.314 194.016 154.29 195.024C155.266 196.016 155.754 197.408 155.754 199.2V207H152.394V199.656C152.394 198.6 152.13 197.792 151.602 197.232C151.074 196.656 150.354 196.368 149.442 196.368C148.514 196.368 147.778 196.656 147.234 197.232C146.706 197.792 146.442 198.6 146.442 199.656V207H143.082V193.704H146.442V195.36C146.89 194.784 147.458 194.336 148.146 194.016C148.85 193.68 149.618 193.512 150.45 193.512ZM162.861 196.464V202.896C162.861 203.344 162.965 203.672 163.173 203.88C163.397 204.072 163.765 204.168 164.277 204.168H165.837V207H163.725C160.893 207 159.477 205.624 159.477 202.872V196.464H157.893V193.704H159.477V190.416H162.861V193.704H165.837V196.464H162.861Z" />
</svg>
