<svg width="123" height="158" viewBox="0 0 123 158" fill="none" xmlns="http://www.w3.org/2000/svg">
<path d="M47.04 37.3V30.66H62.08V88.5H54.72V37.3H47.04Z" fill="white" fill-opacity="0.5"/>
<path d="M47.04 37.3H45.04V39.3H47.04V37.3ZM47.04 30.66V28.66H45.04V30.66H47.04ZM62.08 30.66H64.08V28.66H62.08V30.66ZM62.08 88.5V90.5H64.08V88.5H62.08ZM54.72 88.5H52.72V90.5H54.72V88.5ZM54.72 37.3H56.72V35.3H54.72V37.3ZM49.04 37.3V30.66H45.04V37.3H49.04ZM47.04 32.66H62.08V28.66H47.04V32.66ZM60.08 30.66V88.5H64.08V30.66H60.08ZM62.08 86.5H54.72V90.5H62.08V86.5ZM56.72 88.5V37.3H52.72V88.5H56.72ZM54.72 35.3H47.04V39.3H54.72V35.3Z" fill="white" fill-opacity="0.5"/>
<circle cx="61.5" cy="61.5" r="56" stroke="white" stroke-opacity="0.5" stroke-width="11"/>
</svg>
