<svg width="173" height="172" viewBox="0 0 213 212" fill="none" xmlns="http://www.w3.org/2000/svg">
<path d="M95.9378 141.667H60.7295C58.8619 141.667 57.0709 140.92 55.7503 139.592C54.4297 138.264 53.6878 136.462 53.6878 134.583V35.4166C53.6878 33.538 54.4297 31.7363 55.7503 30.408C57.0709 29.0796 58.8619 28.3333 60.7295 28.3333H95.9378V49.5833C95.9378 55.2191 98.1635 60.6242 102.125 64.6093C106.087 68.5945 111.46 70.8333 117.063 70.8333H138.188C138.188 72.7119 138.93 74.5136 140.25 75.842C141.571 77.1703 143.362 77.9166 145.229 77.9166C147.097 77.9166 148.888 77.1703 150.209 75.842C151.529 74.5136 152.271 72.7119 152.271 70.8333V63.75C152.271 63.75 152.271 63.75 152.271 63.325C152.198 62.6742 152.056 62.0332 151.849 61.4125V60.775C151.51 60.0466 151.058 59.3772 150.511 58.7916V58.7916L108.261 16.2916C107.679 15.7407 107.013 15.2864 106.289 14.9458C106.079 14.9158 105.866 14.9158 105.655 14.9458L103.402 14.1666H60.7295C55.1268 14.1666 49.7536 16.4055 45.7919 20.3906C41.8302 24.3758 39.6045 29.7808 39.6045 35.4166V134.583C39.6045 140.219 41.8302 145.624 45.7919 149.609C49.7536 153.594 55.1268 155.833 60.7295 155.833H95.9378C97.8054 155.833 99.5965 155.087 100.917 153.759C102.238 152.43 102.979 150.629 102.979 148.75C102.979 146.871 102.238 145.07 100.917 143.741C99.5965 142.413 97.8054 141.667 95.9378 141.667ZM110.021 38.3208L128.259 56.6666H117.063C115.195 56.6666 113.404 55.9203 112.084 54.592C110.763 53.2636 110.021 51.4619 110.021 49.5833V38.3208ZM74.8128 56.6666C72.9453 56.6666 71.1542 57.4129 69.8336 58.7413C68.513 60.0697 67.7712 61.8713 67.7712 63.75C67.7712 65.6286 68.513 67.4302 69.8336 68.7586C71.1542 70.087 72.9453 70.8333 74.8128 70.8333H81.8545C83.7221 70.8333 85.5131 70.087 86.8337 68.7586C88.1543 67.4302 88.8962 65.6286 88.8962 63.75C88.8962 61.8713 88.1543 60.0697 86.8337 58.7413C85.5131 57.4129 83.7221 56.6666 81.8545 56.6666H74.8128ZM170.791 98.175C169.973 97.5093 169.017 97.0365 167.993 96.7913C166.969 96.5462 165.904 96.5349 164.876 96.7583C162.206 97.3242 159.447 97.3204 156.779 96.7469C154.11 96.1735 151.591 95.0432 149.384 93.4291C148.178 92.5427 146.723 92.0649 145.229 92.0649C143.736 92.0649 142.281 92.5427 141.075 93.4291C138.866 95.0392 136.347 96.1671 133.679 96.7404C131.011 97.3137 128.254 97.3198 125.583 96.7583C124.543 96.5333 123.466 96.5483 122.433 96.802C121.4 97.0557 120.437 97.5417 119.617 98.2233C118.797 98.9049 118.141 99.7645 117.699 100.738C117.256 101.711 117.039 102.772 117.063 103.842V120.417C117.052 125.487 118.217 130.49 120.467 135.027C122.716 139.565 125.987 143.512 130.019 146.554L141.004 154.417C142.223 155.336 143.706 155.833 145.229 155.833C146.753 155.833 148.236 155.336 149.454 154.417L160.439 146.2C164.425 143.194 167.667 139.304 169.914 134.832C172.161 130.36 173.353 125.427 173.396 120.417V103.629C173.389 102.583 173.152 101.551 172.702 100.608C172.251 99.665 171.598 98.8341 170.791 98.175V98.175ZM159.313 120.417C159.346 123.262 158.728 126.077 157.507 128.644C156.286 131.211 154.495 133.461 152.271 135.221L145.229 140.321L138.188 135.221C135.964 133.461 134.173 131.211 132.952 128.644C131.731 126.077 131.113 123.262 131.146 120.417V111.35C136.071 111.127 140.884 109.796 145.229 107.454C149.575 109.796 154.388 111.127 159.313 111.35V120.417ZM95.9378 113.687H74.8128C72.9453 113.687 71.1542 114.434 69.8336 115.762C68.513 117.091 67.7712 118.892 67.7712 120.771C67.7712 122.649 68.513 124.451 69.8336 125.779C71.1542 127.108 72.9453 127.854 74.8128 127.854H95.9378C97.8054 127.854 99.5965 127.108 100.917 125.779C102.238 124.451 102.979 122.649 102.979 120.771C102.979 118.892 102.238 117.091 100.917 115.762C99.5965 114.434 97.8054 113.687 95.9378 113.687ZM102.979 85.3541H74.8128C72.9453 85.3541 71.1542 86.1004 69.8336 87.4288C68.513 88.7572 67.7712 90.5588 67.7712 92.4375C67.7712 94.3161 68.513 96.1177 69.8336 97.4461C71.1542 98.7745 72.9453 99.5208 74.8128 99.5208H102.979C104.847 99.5208 106.638 98.7745 107.959 97.4461C109.279 96.1177 110.021 94.3161 110.021 92.4375C110.021 90.5588 109.279 88.7572 107.959 87.4288C106.638 86.1004 104.847 85.3541 102.979 85.3541Z" fill="#464646"/>
<path d="M42.113 190.288C41.729 189.584 41.201 189.048 40.529 188.68C39.857 188.312 39.073 188.128 38.177 188.128C37.185 188.128 36.305 188.352 35.537 188.8C34.769 189.248 34.169 189.888 33.737 190.72C33.305 191.552 33.089 192.512 33.089 193.6C33.089 194.72 33.305 195.696 33.737 196.528C34.185 197.36 34.801 198 35.585 198.448C36.369 198.896 37.281 199.12 38.321 199.12C39.601 199.12 40.649 198.784 41.465 198.112C42.281 197.424 42.817 196.472 43.073 195.256H37.313V192.688H46.385V195.616C46.161 196.784 45.681 197.864 44.945 198.856C44.209 199.848 43.257 200.648 42.089 201.256C40.937 201.848 39.641 202.144 38.201 202.144C36.585 202.144 35.121 201.784 33.809 201.064C32.513 200.328 31.489 199.312 30.737 198.016C30.001 196.72 29.633 195.248 29.633 193.6C29.633 191.952 30.001 190.48 30.737 189.184C31.489 187.872 32.513 186.856 33.809 186.136C35.121 185.4 36.577 185.032 38.177 185.032C40.065 185.032 41.705 185.496 43.097 186.424C44.489 187.336 45.449 188.624 45.977 190.288H42.113ZM52.2308 184.24V202H48.8708V184.24H52.2308ZM61.4545 202.216C60.1745 202.216 59.0225 201.936 57.9985 201.376C56.9745 200.8 56.1665 199.992 55.5745 198.952C54.9985 197.912 54.7105 196.712 54.7105 195.352C54.7105 193.992 55.0065 192.792 55.5985 191.752C56.2065 190.712 57.0305 189.912 58.0705 189.352C59.1105 188.776 60.2705 188.488 61.5505 188.488C62.8305 188.488 63.9905 188.776 65.0305 189.352C66.0705 189.912 66.8865 190.712 67.4785 191.752C68.0865 192.792 68.3905 193.992 68.3905 195.352C68.3905 196.712 68.0785 197.912 67.4545 198.952C66.8465 199.992 66.0145 200.8 64.9585 201.376C63.9185 201.936 62.7505 202.216 61.4545 202.216ZM61.4545 199.288C62.0625 199.288 62.6305 199.144 63.1585 198.856C63.7025 198.552 64.1345 198.104 64.4545 197.512C64.7745 196.92 64.9345 196.2 64.9345 195.352C64.9345 194.088 64.5985 193.12 63.9265 192.448C63.2705 191.76 62.4625 191.416 61.5025 191.416C60.5425 191.416 59.7345 191.76 59.0785 192.448C58.4385 193.12 58.1185 194.088 58.1185 195.352C58.1185 196.616 58.4305 197.592 59.0545 198.28C59.6945 198.952 60.4945 199.288 61.4545 199.288ZM74.2152 190.648C74.6472 190.008 75.2392 189.488 75.9912 189.088C76.7592 188.688 77.6312 188.488 78.6072 188.488C79.7432 188.488 80.7672 188.768 81.6792 189.328C82.6072 189.888 83.3352 190.688 83.8632 191.728C84.4072 192.752 84.6792 193.944 84.6792 195.304C84.6792 196.664 84.4072 197.872 83.8632 198.928C83.3352 199.968 82.6072 200.776 81.6792 201.352C80.7672 201.928 79.7432 202.216 78.6072 202.216C77.6152 202.216 76.7432 202.024 75.9912 201.64C75.2552 201.24 74.6632 200.728 74.2152 200.104V202H70.8552V184.24H74.2152V190.648ZM81.2472 195.304C81.2472 194.504 81.0792 193.816 80.7432 193.24C80.4232 192.648 79.9912 192.2 79.4472 191.896C78.9192 191.592 78.3432 191.44 77.7192 191.44C77.1112 191.44 76.5352 191.6 75.9912 191.92C75.4632 192.224 75.0312 192.672 74.6952 193.264C74.3752 193.856 74.2152 194.552 74.2152 195.352C74.2152 196.152 74.3752 196.848 74.6952 197.44C75.0312 198.032 75.4632 198.488 75.9912 198.808C76.5352 199.112 77.1112 199.264 77.7192 199.264C78.3432 199.264 78.9192 199.104 79.4472 198.784C79.9912 198.464 80.4232 198.008 80.7432 197.416C81.0792 196.824 81.2472 196.12 81.2472 195.304ZM86.2568 195.304C86.2568 193.96 86.5208 192.768 87.0488 191.728C87.5928 190.688 88.3208 189.888 89.2328 189.328C90.1608 188.768 91.1928 188.488 92.3288 188.488C93.3208 188.488 94.1848 188.688 94.9208 189.088C95.6728 189.488 96.2728 189.992 96.7208 190.6V188.704H100.105V202H96.7208V200.056C96.2888 200.68 95.6888 201.2 94.9208 201.616C94.1688 202.016 93.2968 202.216 92.3048 202.216C91.1848 202.216 90.1608 201.928 89.2328 201.352C88.3208 200.776 87.5928 199.968 87.0488 198.928C86.5208 197.872 86.2568 196.664 86.2568 195.304ZM96.7208 195.352C96.7208 194.536 96.5608 193.84 96.2408 193.264C95.9208 192.672 95.4888 192.224 94.9448 191.92C94.4008 191.6 93.8168 191.44 93.1928 191.44C92.5688 191.44 91.9928 191.592 91.4648 191.896C90.9368 192.2 90.5048 192.648 90.1688 193.24C89.8488 193.816 89.6888 194.504 89.6888 195.304C89.6888 196.104 89.8488 196.808 90.1688 197.416C90.5048 198.008 90.9368 198.464 91.4648 198.784C92.0088 199.104 92.5848 199.264 93.1928 199.264C93.8168 199.264 94.4008 199.112 94.9448 198.808C95.4888 198.488 95.9208 198.04 96.2408 197.464C96.5608 196.872 96.7208 196.168 96.7208 195.352ZM106.746 184.24V202H103.386V184.24H106.746ZM127.185 185.248V187.96H122.721V202H119.361V187.96H114.897V185.248H127.185ZM141.996 195.064C141.996 195.544 141.964 195.976 141.9 196.36H132.18C132.26 197.32 132.596 198.072 133.188 198.616C133.78 199.16 134.508 199.432 135.372 199.432C136.62 199.432 137.508 198.896 138.036 197.824H141.66C141.276 199.104 140.54 200.16 139.452 200.992C138.364 201.808 137.028 202.216 135.444 202.216C134.164 202.216 133.012 201.936 131.988 201.376C130.98 200.8 130.188 199.992 129.612 198.952C129.052 197.912 128.772 196.712 128.772 195.352C128.772 193.976 129.052 192.768 129.612 191.728C130.172 190.688 130.956 189.888 131.964 189.328C132.972 188.768 134.132 188.488 135.444 188.488C136.708 188.488 137.836 188.76 138.828 189.304C139.836 189.848 140.612 190.624 141.156 191.632C141.716 192.624 141.996 193.768 141.996 195.064ZM138.516 194.104C138.5 193.24 138.188 192.552 137.58 192.04C136.972 191.512 136.228 191.248 135.348 191.248C134.516 191.248 133.812 191.504 133.236 192.016C132.676 192.512 132.332 193.208 132.204 194.104H138.516ZM143.585 195.304C143.585 193.96 143.849 192.768 144.377 191.728C144.921 190.688 145.649 189.888 146.561 189.328C147.489 188.768 148.521 188.488 149.657 188.488C150.649 188.488 151.513 188.688 152.249 189.088C153.001 189.488 153.601 189.992 154.049 190.6V188.704H157.433V202H154.049V200.056C153.617 200.68 153.017 201.2 152.249 201.616C151.497 202.016 150.625 202.216 149.633 202.216C148.513 202.216 147.489 201.928 146.561 201.352C145.649 200.776 144.921 199.968 144.377 198.928C143.849 197.872 143.585 196.664 143.585 195.304ZM154.049 195.352C154.049 194.536 153.889 193.84 153.569 193.264C153.249 192.672 152.817 192.224 152.273 191.92C151.729 191.6 151.145 191.44 150.521 191.44C149.897 191.44 149.321 191.592 148.793 191.896C148.265 192.2 147.833 192.648 147.497 193.24C147.177 193.816 147.017 194.504 147.017 195.304C147.017 196.104 147.177 196.808 147.497 197.416C147.833 198.008 148.265 198.464 148.793 198.784C149.337 199.104 149.913 199.264 150.521 199.264C151.145 199.264 151.729 199.112 152.273 198.808C152.817 198.488 153.249 198.04 153.569 197.464C153.889 196.872 154.049 196.168 154.049 195.352ZM177.227 188.512C178.859 188.512 180.171 189.016 181.163 190.024C182.171 191.016 182.675 192.408 182.675 194.2V202H179.315V194.656C179.315 193.616 179.051 192.824 178.523 192.28C177.995 191.72 177.275 191.44 176.363 191.44C175.451 191.44 174.723 191.72 174.179 192.28C173.651 192.824 173.387 193.616 173.387 194.656V202H170.027V194.656C170.027 193.616 169.763 192.824 169.235 192.28C168.707 191.72 167.987 191.44 167.075 191.44C166.147 191.44 165.411 191.72 164.867 192.28C164.339 192.824 164.075 193.616 164.075 194.656V202H160.715V188.704H164.075V190.312C164.507 189.752 165.059 189.312 165.731 188.992C166.419 188.672 167.171 188.512 167.987 188.512C169.027 188.512 169.955 188.736 170.771 189.184C171.587 189.616 172.219 190.24 172.667 191.056C173.099 190.288 173.723 189.672 174.539 189.208C175.371 188.744 176.267 188.512 177.227 188.512Z" fill="#464646"/>
</svg>
