<svg width="148" height="222" viewBox="0 0 168 242" fill="none" xmlns="http://www.w3.org/2000/svg">
<path d="M46.9068 120.602C44.2906 120.602 42.1211 118.433 42.1211 115.817V102.608C42.1211 99.9918 44.2906 97.8223 46.9068 97.8223C49.523 97.8223 51.6926 99.9918 51.6926 102.608V115.817C51.6926 118.497 49.523 120.602 46.9068 120.602Z" />
<path d="M79.5709 120.599C76.9547 120.599 74.7852 118.43 74.7852 115.814V89.3326C74.7852 86.7164 76.9547 84.5469 79.5709 84.5469C82.1871 84.5469 84.3566 86.7164 84.3566 89.3326V115.814C84.3566 118.494 82.1871 120.599 79.5709 120.599Z" />
<path d="M112.237 120.599C109.621 120.599 107.451 118.43 107.451 115.813V76.1236C107.451 73.5074 109.621 71.3379 112.237 71.3379C114.853 71.3379 117.023 73.5074 117.023 76.1236V115.813C117.023 118.493 114.917 120.599 112.237 120.599Z" />
<path d="M46.8982 84.0983C44.7287 84.0983 42.8144 82.6306 42.2401 80.4611C41.602 77.9087 43.1335 75.2925 45.7497 74.6544C69.2317 68.7839 89.9061 55.9581 105.667 37.6447L108.602 34.1989C110.325 32.2208 113.324 31.9656 115.366 33.6885C117.344 35.4113 117.6 38.4104 115.877 40.4523L112.941 43.898C95.9042 63.8067 73.4432 77.6535 48.0468 83.9707C47.664 84.0983 47.2811 84.0983 46.8982 84.0983Z" />
<path d="M112.24 60.745C109.624 60.745 107.454 58.5755 107.454 55.9593V42.1125H93.5436C90.9273 42.1125 88.7578 39.943 88.7578 37.3268C88.7578 34.7106 90.9273 32.541 93.5436 32.541H112.24C114.856 32.541 117.026 34.7106 117.026 37.3268V56.0231C117.026 58.6393 114.92 60.745 112.24 60.745Z" />
<path d="M98.7132 145.166H60.4273C25.7785 145.166 10.9746 130.362 10.9746 95.7132V57.4273C10.9746 22.7785 25.7785 7.97461 60.4273 7.97461H98.7132C133.362 7.97461 148.166 22.7785 148.166 57.4273V95.7132C148.166 130.362 133.362 145.166 98.7132 145.166ZM60.4273 17.5461C31.0109 17.5461 20.5461 28.0109 20.5461 57.4273V95.7132C20.5461 125.13 31.0109 135.594 60.4273 135.594H98.7132C128.13 135.594 138.594 125.13 138.594 95.7132V57.4273C138.594 28.0109 128.13 17.5461 98.7132 17.5461H60.4273Z" />
<path d="M50.3642 184.432C50.3642 185.328 50.1482 186.168 49.7162 186.952C49.3002 187.736 48.6362 188.368 47.7242 188.848C46.8282 189.328 45.6922 189.568 44.3162 189.568H41.5082V196H38.1482V179.248H44.3162C45.6122 179.248 46.7162 179.472 47.6282 179.92C48.5402 180.368 49.2202 180.984 49.6682 181.768C50.1322 182.552 50.3642 183.44 50.3642 184.432ZM44.1722 186.856C45.1002 186.856 45.7882 186.648 46.2362 186.232C46.6842 185.8 46.9082 185.2 46.9082 184.432C46.9082 182.8 45.9962 181.984 44.1722 181.984H41.5082V186.856H44.1722ZM56.1098 184.768C56.5418 184.064 57.1018 183.512 57.7898 183.112C58.4938 182.712 59.2938 182.512 60.1898 182.512V186.04H59.3018C58.2458 186.04 57.4458 186.288 56.9018 186.784C56.3738 187.28 56.1098 188.144 56.1098 189.376V196H52.7498V182.704H56.1098V184.768ZM68.3569 196.216C67.0769 196.216 65.9249 195.936 64.9009 195.376C63.8769 194.8 63.0689 193.992 62.4769 192.952C61.9009 191.912 61.6129 190.712 61.6129 189.352C61.6129 187.992 61.9089 186.792 62.5009 185.752C63.1089 184.712 63.9329 183.912 64.9729 183.352C66.0129 182.776 67.1729 182.488 68.4529 182.488C69.7329 182.488 70.8929 182.776 71.9329 183.352C72.9729 183.912 73.7889 184.712 74.3809 185.752C74.9889 186.792 75.2929 187.992 75.2929 189.352C75.2929 190.712 74.9809 191.912 74.3569 192.952C73.7489 193.992 72.9169 194.8 71.8609 195.376C70.8209 195.936 69.6529 196.216 68.3569 196.216ZM68.3569 193.288C68.9649 193.288 69.5329 193.144 70.0609 192.856C70.6049 192.552 71.0369 192.104 71.3569 191.512C71.6769 190.92 71.8369 190.2 71.8369 189.352C71.8369 188.088 71.5009 187.12 70.8289 186.448C70.1729 185.76 69.3649 185.416 68.4049 185.416C67.4449 185.416 66.6369 185.76 65.9809 186.448C65.3409 187.12 65.0209 188.088 65.0209 189.352C65.0209 190.616 65.3329 191.592 65.9569 192.28C66.5969 192.952 67.3969 193.288 68.3569 193.288ZM76.8936 189.352C76.8936 187.976 77.1736 186.776 77.7336 185.752C78.2936 184.712 79.0696 183.912 80.0616 183.352C81.0536 182.776 82.1896 182.488 83.4696 182.488C85.1176 182.488 86.4776 182.904 87.5496 183.736C88.6376 184.552 89.3656 185.704 89.7336 187.192H86.1096C85.9176 186.616 85.5896 186.168 85.1256 185.848C84.6776 185.512 84.1176 185.344 83.4456 185.344C82.4856 185.344 81.7256 185.696 81.1656 186.4C80.6056 187.088 80.3256 188.072 80.3256 189.352C80.3256 190.616 80.6056 191.6 81.1656 192.304C81.7256 192.992 82.4856 193.336 83.4456 193.336C84.8056 193.336 85.6936 192.728 86.1096 191.512H89.7336C89.3656 192.952 88.6376 194.096 87.5496 194.944C86.4616 195.792 85.1016 196.216 83.4696 196.216C82.1896 196.216 81.0536 195.936 80.0616 195.376C79.0696 194.8 78.2936 194 77.7336 192.976C77.1736 191.936 76.8936 190.728 76.8936 189.352ZM104.555 189.064C104.555 189.544 104.523 189.976 104.459 190.36H94.7391C94.8191 191.32 95.1551 192.072 95.7471 192.616C96.3391 193.16 97.0671 193.432 97.9311 193.432C99.1791 193.432 100.067 192.896 100.595 191.824H104.219C103.835 193.104 103.099 194.16 102.011 194.992C100.923 195.808 99.5871 196.216 98.0031 196.216C96.7231 196.216 95.5711 195.936 94.5471 195.376C93.5391 194.8 92.7471 193.992 92.1711 192.952C91.6111 191.912 91.3311 190.712 91.3311 189.352C91.3311 187.976 91.6111 186.768 92.1711 185.728C92.7311 184.688 93.5151 183.888 94.5231 183.328C95.5311 182.768 96.6911 182.488 98.0031 182.488C99.2671 182.488 100.395 182.76 101.387 183.304C102.395 183.848 103.171 184.624 103.715 185.632C104.275 186.624 104.555 187.768 104.555 189.064ZM101.075 188.104C101.059 187.24 100.747 186.552 100.139 186.04C99.5311 185.512 98.7871 185.248 97.9071 185.248C97.0751 185.248 96.3711 185.504 95.7951 186.016C95.2351 186.512 94.8911 187.208 94.7631 188.104H101.075ZM112.096 196.216C111.008 196.216 110.032 196.024 109.168 195.64C108.304 195.24 107.616 194.704 107.104 194.032C106.608 193.36 106.336 192.616 106.288 191.8H109.672C109.736 192.312 109.984 192.736 110.416 193.072C110.864 193.408 111.416 193.576 112.072 193.576C112.712 193.576 113.208 193.448 113.56 193.192C113.928 192.936 114.112 192.608 114.112 192.208C114.112 191.776 113.888 191.456 113.44 191.248C113.008 191.024 112.312 190.784 111.352 190.528C110.36 190.288 109.544 190.04 108.904 189.784C108.28 189.528 107.736 189.136 107.272 188.608C106.824 188.08 106.6 187.368 106.6 186.472C106.6 185.736 106.808 185.064 107.224 184.456C107.656 183.848 108.264 183.368 109.048 183.016C109.848 182.664 110.784 182.488 111.856 182.488C113.44 182.488 114.704 182.888 115.648 183.688C116.592 184.472 117.112 185.536 117.208 186.88H113.992C113.944 186.352 113.72 185.936 113.32 185.632C112.936 185.312 112.416 185.152 111.76 185.152C111.152 185.152 110.68 185.264 110.344 185.488C110.024 185.712 109.864 186.024 109.864 186.424C109.864 186.872 110.088 187.216 110.536 187.456C110.984 187.68 111.68 187.912 112.624 188.152C113.584 188.392 114.376 188.64 115 188.896C115.624 189.152 116.16 189.552 116.608 190.096C117.072 190.624 117.312 191.328 117.328 192.208C117.328 192.976 117.112 193.664 116.68 194.272C116.264 194.88 115.656 195.36 114.856 195.712C114.072 196.048 113.152 196.216 112.096 196.216ZM125.174 196.216C124.086 196.216 123.11 196.024 122.246 195.64C121.382 195.24 120.694 194.704 120.182 194.032C119.686 193.36 119.414 192.616 119.366 191.8H122.75C122.814 192.312 123.062 192.736 123.494 193.072C123.942 193.408 124.494 193.576 125.15 193.576C125.79 193.576 126.286 193.448 126.638 193.192C127.006 192.936 127.19 192.608 127.19 192.208C127.19 191.776 126.966 191.456 126.518 191.248C126.086 191.024 125.39 190.784 124.43 190.528C123.438 190.288 122.622 190.04 121.982 189.784C121.358 189.528 120.814 189.136 120.35 188.608C119.902 188.08 119.678 187.368 119.678 186.472C119.678 185.736 119.886 185.064 120.302 184.456C120.734 183.848 121.342 183.368 122.126 183.016C122.926 182.664 123.862 182.488 124.934 182.488C126.518 182.488 127.782 182.888 128.726 183.688C129.67 184.472 130.19 185.536 130.286 186.88H127.07C127.022 186.352 126.798 185.936 126.398 185.632C126.014 185.312 125.494 185.152 124.838 185.152C124.23 185.152 123.758 185.264 123.422 185.488C123.102 185.712 122.942 186.024 122.942 186.424C122.942 186.872 123.166 187.216 123.614 187.456C124.062 187.68 124.758 187.912 125.702 188.152C126.662 188.392 127.454 188.64 128.078 188.896C128.702 189.152 129.238 189.552 129.686 190.096C130.15 190.624 130.39 191.328 130.406 192.208C130.406 192.976 130.19 193.664 129.758 194.272C129.342 194.88 128.734 195.36 127.934 195.712C127.15 196.048 126.23 196.216 125.174 196.216ZM5.30897 215.248V232H1.94897V215.248H5.30897ZM25.1407 218.512C26.7727 218.512 28.0847 219.016 29.0767 220.024C30.0847 221.016 30.5887 222.408 30.5887 224.2V232H27.2287V224.656C27.2287 223.616 26.9647 222.824 26.4367 222.28C25.9087 221.72 25.1887 221.44 24.2767 221.44C23.3647 221.44 22.6367 221.72 22.0927 222.28C21.5647 222.824 21.3007 223.616 21.3007 224.656V232H17.9407V224.656C17.9407 223.616 17.6767 222.824 17.1487 222.28C16.6207 221.72 15.9007 221.44 14.9887 221.44C14.0607 221.44 13.3247 221.72 12.7807 222.28C12.2527 222.824 11.9887 223.616 11.9887 224.656V232H8.62866V218.704H11.9887V220.312C12.4207 219.752 12.9727 219.312 13.6447 218.992C14.3327 218.672 15.0847 218.512 15.9007 218.512C16.9407 218.512 17.8687 218.736 18.6847 219.184C19.5007 219.616 20.1327 220.24 20.5807 221.056C21.0127 220.288 21.6367 219.672 22.4527 219.208C23.2847 218.744 24.1807 218.512 25.1407 218.512ZM37.1371 220.624C37.5691 220.016 38.1611 219.512 38.9131 219.112C39.6811 218.696 40.5531 218.488 41.5291 218.488C42.6651 218.488 43.6891 218.768 44.6011 219.328C45.5291 219.888 46.2571 220.688 46.7851 221.728C47.3291 222.752 47.6011 223.944 47.6011 225.304C47.6011 226.664 47.3291 227.872 46.7851 228.928C46.2571 229.968 45.5291 230.776 44.6011 231.352C43.6891 231.928 42.6651 232.216 41.5291 232.216C40.5531 232.216 39.6891 232.016 38.9371 231.616C38.2011 231.216 37.6011 230.712 37.1371 230.104V238.336H33.7771V218.704H37.1371V220.624ZM44.1691 225.304C44.1691 224.504 44.0011 223.816 43.6651 223.24C43.3451 222.648 42.9131 222.2 42.3691 221.896C41.8411 221.592 41.2651 221.44 40.6411 221.44C40.0331 221.44 39.4571 221.6 38.9131 221.92C38.3851 222.224 37.9531 222.672 37.6171 223.264C37.2971 223.856 37.1371 224.552 37.1371 225.352C37.1371 226.152 37.2971 226.848 37.6171 227.44C37.9531 228.032 38.3851 228.488 38.9131 228.808C39.4571 229.112 40.0331 229.264 40.6411 229.264C41.2651 229.264 41.8411 229.104 42.3691 228.784C42.9131 228.464 43.3451 228.008 43.6651 227.416C44.0011 226.824 44.1691 226.12 44.1691 225.304ZM53.4027 220.768C53.8347 220.064 54.3947 219.512 55.0827 219.112C55.7867 218.712 56.5867 218.512 57.4827 218.512V222.04H56.5947C55.5387 222.04 54.7387 222.288 54.1947 222.784C53.6667 223.28 53.4027 224.144 53.4027 225.376V232H50.0427V218.704H53.4027V220.768ZM65.6498 232.216C64.3698 232.216 63.2178 231.936 62.1938 231.376C61.1698 230.8 60.3618 229.992 59.7698 228.952C59.1938 227.912 58.9058 226.712 58.9058 225.352C58.9058 223.992 59.2018 222.792 59.7938 221.752C60.4018 220.712 61.2258 219.912 62.2658 219.352C63.3058 218.776 64.4658 218.488 65.7458 218.488C67.0258 218.488 68.1858 218.776 69.2258 219.352C70.2658 219.912 71.0818 220.712 71.6738 221.752C72.2818 222.792 72.5858 223.992 72.5858 225.352C72.5858 226.712 72.2738 227.912 71.6498 228.952C71.0418 229.992 70.2098 230.8 69.1538 231.376C68.1138 231.936 66.9458 232.216 65.6498 232.216ZM65.6498 229.288C66.2578 229.288 66.8258 229.144 67.3538 228.856C67.8978 228.552 68.3298 228.104 68.6498 227.512C68.9698 226.92 69.1298 226.2 69.1298 225.352C69.1298 224.088 68.7938 223.12 68.1218 222.448C67.4658 221.76 66.6578 221.416 65.6978 221.416C64.7378 221.416 63.9298 221.76 63.2738 222.448C62.6338 223.12 62.3138 224.088 62.3138 225.352C62.3138 226.616 62.6258 227.592 63.2498 228.28C63.8898 228.952 64.6898 229.288 65.6498 229.288ZM80.5945 228.904L83.9545 218.704H87.5305L82.6105 232H78.5305L73.6345 218.704H77.2345L80.5945 228.904ZM101.778 225.064C101.778 225.544 101.746 225.976 101.682 226.36H91.9617C92.0417 227.32 92.3777 228.072 92.9697 228.616C93.5617 229.16 94.2897 229.432 95.1537 229.432C96.4017 229.432 97.2897 228.896 97.8177 227.824H101.442C101.058 229.104 100.322 230.16 99.2337 230.992C98.1457 231.808 96.8097 232.216 95.2257 232.216C93.9457 232.216 92.7937 231.936 91.7697 231.376C90.7617 230.8 89.9697 229.992 89.3937 228.952C88.8337 227.912 88.5537 226.712 88.5537 225.352C88.5537 223.976 88.8337 222.768 89.3937 221.728C89.9537 220.688 90.7377 219.888 91.7457 219.328C92.7537 218.768 93.9137 218.488 95.2257 218.488C96.4897 218.488 97.6177 218.76 98.6097 219.304C99.6177 219.848 100.394 220.624 100.938 221.632C101.498 222.624 101.778 223.768 101.778 225.064ZM98.2977 224.104C98.2817 223.24 97.9697 222.552 97.3617 222.04C96.7537 221.512 96.0097 221.248 95.1297 221.248C94.2977 221.248 93.5937 221.504 93.0177 222.016C92.4577 222.512 92.1137 223.208 91.9857 224.104H98.2977ZM120.742 218.512C122.374 218.512 123.686 219.016 124.678 220.024C125.686 221.016 126.19 222.408 126.19 224.2V232H122.83V224.656C122.83 223.616 122.566 222.824 122.038 222.28C121.51 221.72 120.79 221.44 119.878 221.44C118.966 221.44 118.238 221.72 117.694 222.28C117.166 222.824 116.902 223.616 116.902 224.656V232H113.542V224.656C113.542 223.616 113.278 222.824 112.75 222.28C112.222 221.72 111.502 221.44 110.59 221.44C109.662 221.44 108.926 221.72 108.382 222.28C107.854 222.824 107.59 223.616 107.59 224.656V232H104.23V218.704H107.59V220.312C108.022 219.752 108.574 219.312 109.246 218.992C109.934 218.672 110.686 218.512 111.502 218.512C112.542 218.512 113.47 218.736 114.286 219.184C115.102 219.616 115.734 220.24 116.182 221.056C116.614 220.288 117.238 219.672 118.054 219.208C118.886 218.744 119.782 218.512 120.742 218.512ZM141.739 225.064C141.739 225.544 141.707 225.976 141.643 226.36H131.923C132.003 227.32 132.339 228.072 132.931 228.616C133.523 229.16 134.251 229.432 135.115 229.432C136.363 229.432 137.251 228.896 137.779 227.824H141.403C141.019 229.104 140.283 230.16 139.195 230.992C138.107 231.808 136.771 232.216 135.187 232.216C133.907 232.216 132.755 231.936 131.731 231.376C130.723 230.8 129.931 229.992 129.355 228.952C128.795 227.912 128.515 226.712 128.515 225.352C128.515 223.976 128.795 222.768 129.355 221.728C129.915 220.688 130.699 219.888 131.707 219.328C132.715 218.768 133.875 218.488 135.187 218.488C136.451 218.488 137.579 218.76 138.571 219.304C139.579 219.848 140.355 220.624 140.899 221.632C141.459 222.624 141.739 223.768 141.739 225.064ZM138.259 224.104C138.243 223.24 137.931 222.552 137.323 222.04C136.715 221.512 135.971 221.248 135.091 221.248C134.259 221.248 133.555 221.504 132.979 222.016C132.419 222.512 132.075 223.208 131.947 224.104H138.259ZM151.559 218.512C153.143 218.512 154.423 219.016 155.399 220.024C156.375 221.016 156.863 222.408 156.863 224.2V232H153.503V224.656C153.503 223.6 153.239 222.792 152.711 222.232C152.183 221.656 151.463 221.368 150.551 221.368C149.623 221.368 148.887 221.656 148.343 222.232C147.815 222.792 147.551 223.6 147.551 224.656V232H144.191V218.704H147.551V220.36C147.999 219.784 148.567 219.336 149.255 219.016C149.959 218.68 150.727 218.512 151.559 218.512ZM163.97 221.464V227.896C163.97 228.344 164.074 228.672 164.282 228.88C164.506 229.072 164.874 229.168 165.386 229.168H166.946V232H164.834C162.002 232 160.586 230.624 160.586 227.872V221.464H159.002V218.704H160.586V215.416H163.97V218.704H166.946V221.464H163.97Z" />
</svg>
