<svg width="127" height="189" viewBox="0 0 147 209" fill="none" xmlns="http://www.w3.org/2000/svg">
<path d="M61.0326 146.248V148.96H56.5686V163H53.2086V148.96H48.7446V146.248H61.0326ZM75.8441 156.064C75.8441 156.544 75.8121 156.976 75.7481 157.36H66.0281C66.1081 158.32 66.4441 159.072 67.0361 159.616C67.6281 160.16 68.3561 160.432 69.2201 160.432C70.4681 160.432 71.3561 159.896 71.8841 158.824H75.5081C75.1241 160.104 74.3881 161.16 73.3001 161.992C72.2121 162.808 70.8761 163.216 69.2921 163.216C68.0121 163.216 66.8601 162.936 65.8361 162.376C64.8281 161.8 64.0361 160.992 63.4601 159.952C62.9001 158.912 62.6201 157.712 62.6201 156.352C62.6201 154.976 62.9001 153.768 63.4601 152.728C64.0201 151.688 64.8041 150.888 65.8121 150.328C66.8201 149.768 67.9801 149.488 69.2921 149.488C70.5561 149.488 71.6841 149.76 72.6761 150.304C73.6841 150.848 74.4601 151.624 75.0041 152.632C75.5641 153.624 75.8441 154.768 75.8441 156.064ZM72.3641 155.104C72.3481 154.24 72.0361 153.552 71.4281 153.04C70.8201 152.512 70.0761 152.248 69.1961 152.248C68.3641 152.248 67.6601 152.504 67.0841 153.016C66.5241 153.512 66.1801 154.208 66.0521 155.104H72.3641ZM83.3846 163.216C82.2966 163.216 81.3206 163.024 80.4566 162.64C79.5926 162.24 78.9046 161.704 78.3926 161.032C77.8966 160.36 77.6246 159.616 77.5766 158.8H80.9606C81.0246 159.312 81.2726 159.736 81.7046 160.072C82.1526 160.408 82.7046 160.576 83.3606 160.576C84.0006 160.576 84.4966 160.448 84.8486 160.192C85.2166 159.936 85.4006 159.608 85.4006 159.208C85.4006 158.776 85.1766 158.456 84.7286 158.248C84.2966 158.024 83.6006 157.784 82.6406 157.528C81.6486 157.288 80.8326 157.04 80.1926 156.784C79.5686 156.528 79.0246 156.136 78.5606 155.608C78.1126 155.08 77.8886 154.368 77.8886 153.472C77.8886 152.736 78.0966 152.064 78.5126 151.456C78.9446 150.848 79.5526 150.368 80.3366 150.016C81.1366 149.664 82.0726 149.488 83.1446 149.488C84.7286 149.488 85.9926 149.888 86.9366 150.688C87.8806 151.472 88.4006 152.536 88.4966 153.88H85.2806C85.2326 153.352 85.0086 152.936 84.6086 152.632C84.2246 152.312 83.7046 152.152 83.0486 152.152C82.4406 152.152 81.9686 152.264 81.6326 152.488C81.3126 152.712 81.1526 153.024 81.1526 153.424C81.1526 153.872 81.3766 154.216 81.8246 154.456C82.2726 154.68 82.9686 154.912 83.9126 155.152C84.8726 155.392 85.6646 155.64 86.2886 155.896C86.9126 156.152 87.4486 156.552 87.8966 157.096C88.3606 157.624 88.6006 158.328 88.6166 159.208C88.6166 159.976 88.4006 160.664 87.9686 161.272C87.5526 161.88 86.9446 162.36 86.1446 162.712C85.3606 163.048 84.4406 163.216 83.3846 163.216ZM95.2868 152.464V158.896C95.2868 159.344 95.3908 159.672 95.5988 159.88C95.8228 160.072 96.1908 160.168 96.7028 160.168H98.2628V163H96.1508C93.3188 163 91.9028 161.624 91.9028 158.872V152.464H90.3188V149.704H91.9028V146.416H95.2868V149.704H98.2628V152.464H95.2868ZM12.3147 195.808H5.64272L4.53872 199H1.01072L7.03472 182.224H10.9467L16.9707 199H13.4187L12.3147 195.808ZM11.4027 193.12L8.97872 186.112L6.55472 193.12H11.4027ZM31.7744 185.704V199H28.3904V197.32C27.9584 197.896 27.3904 198.352 26.6864 198.688C25.9984 199.008 25.2464 199.168 24.4304 199.168C23.3904 199.168 22.4704 198.952 21.6704 198.52C20.8704 198.072 20.2384 197.424 19.7744 196.576C19.3264 195.712 19.1024 194.688 19.1024 193.504V185.704H22.4624V193.024C22.4624 194.08 22.7264 194.896 23.2544 195.472C23.7824 196.032 24.5024 196.312 25.4144 196.312C26.3424 196.312 27.0704 196.032 27.5984 195.472C28.1264 194.896 28.3904 194.08 28.3904 193.024V185.704H31.7744ZM39.0016 188.464V194.896C39.0016 195.344 39.1056 195.672 39.3136 195.88C39.5376 196.072 39.9056 196.168 40.4176 196.168H41.9776V199H39.8656C37.0336 199 35.6176 197.624 35.6176 194.872V188.464H34.0336V185.704H35.6176V182.416H39.0016V185.704H41.9776V188.464H39.0016ZM50.2983 199.216C49.0183 199.216 47.8663 198.936 46.8423 198.376C45.8183 197.8 45.0103 196.992 44.4183 195.952C43.8423 194.912 43.5543 193.712 43.5543 192.352C43.5543 190.992 43.8503 189.792 44.4423 188.752C45.0503 187.712 45.8743 186.912 46.9143 186.352C47.9543 185.776 49.1143 185.488 50.3943 185.488C51.6743 185.488 52.8343 185.776 53.8743 186.352C54.9143 186.912 55.7303 187.712 56.3223 188.752C56.9303 189.792 57.2343 190.992 57.2343 192.352C57.2343 193.712 56.9223 194.912 56.2983 195.952C55.6903 196.992 54.8583 197.8 53.8023 198.376C52.7623 198.936 51.5943 199.216 50.2983 199.216ZM50.2983 196.288C50.9063 196.288 51.4743 196.144 52.0023 195.856C52.5463 195.552 52.9783 195.104 53.2983 194.512C53.6183 193.92 53.7783 193.2 53.7783 192.352C53.7783 191.088 53.4423 190.12 52.7703 189.448C52.1143 188.76 51.3063 188.416 50.3463 188.416C49.3863 188.416 48.5783 188.76 47.9223 189.448C47.2823 190.12 46.9623 191.088 46.9623 192.352C46.9623 193.616 47.2743 194.592 47.8983 195.28C48.5383 195.952 49.3383 196.288 50.2983 196.288ZM76.211 185.512C77.843 185.512 79.155 186.016 80.147 187.024C81.155 188.016 81.659 189.408 81.659 191.2V199H78.299V191.656C78.299 190.616 78.035 189.824 77.507 189.28C76.979 188.72 76.259 188.44 75.347 188.44C74.435 188.44 73.707 188.72 73.163 189.28C72.635 189.824 72.371 190.616 72.371 191.656V199H69.011V191.656C69.011 190.616 68.747 189.824 68.219 189.28C67.691 188.72 66.971 188.44 66.059 188.44C65.131 188.44 64.395 188.72 63.851 189.28C63.323 189.824 63.059 190.616 63.059 191.656V199H59.699V185.704H63.059V187.312C63.491 186.752 64.043 186.312 64.715 185.992C65.403 185.672 66.155 185.512 66.971 185.512C68.011 185.512 68.939 185.736 69.755 186.184C70.571 186.616 71.203 187.24 71.651 188.056C72.083 187.288 72.707 186.672 73.523 186.208C74.355 185.744 75.251 185.512 76.211 185.512ZM83.9834 192.304C83.9834 190.96 84.2474 189.768 84.7754 188.728C85.3194 187.688 86.0474 186.888 86.9594 186.328C87.8874 185.768 88.9194 185.488 90.0554 185.488C91.0474 185.488 91.9114 185.688 92.6474 186.088C93.3994 186.488 93.9994 186.992 94.4474 187.6V185.704H97.8314V199H94.4474V197.056C94.0154 197.68 93.4154 198.2 92.6474 198.616C91.8954 199.016 91.0234 199.216 90.0314 199.216C88.9114 199.216 87.8874 198.928 86.9594 198.352C86.0474 197.776 85.3194 196.968 84.7754 195.928C84.2474 194.872 83.9834 193.664 83.9834 192.304ZM94.4474 192.352C94.4474 191.536 94.2874 190.84 93.9674 190.264C93.6474 189.672 93.2154 189.224 92.6714 188.92C92.1274 188.6 91.5434 188.44 90.9194 188.44C90.2954 188.44 89.7194 188.592 89.1914 188.896C88.6634 189.2 88.2314 189.648 87.8954 190.24C87.5754 190.816 87.4154 191.504 87.4154 192.304C87.4154 193.104 87.5754 193.808 87.8954 194.416C88.2314 195.008 88.6634 195.464 89.1914 195.784C89.7354 196.104 90.3114 196.264 90.9194 196.264C91.5434 196.264 92.1274 196.112 92.6714 195.808C93.2154 195.488 93.6474 195.04 93.9674 194.464C94.2874 193.872 94.4474 193.168 94.4474 192.352ZM105.025 188.464V194.896C105.025 195.344 105.129 195.672 105.337 195.88C105.561 196.072 105.929 196.168 106.441 196.168H108.001V199H105.889C103.057 199 101.641 197.624 101.641 194.872V188.464H100.057V185.704H101.641V182.416H105.025V185.704H108.001V188.464H105.025ZM112.122 184.12C111.53 184.12 111.034 183.936 110.634 183.568C110.25 183.184 110.058 182.712 110.058 182.152C110.058 181.592 110.25 181.128 110.634 180.76C111.034 180.376 111.53 180.184 112.122 180.184C112.714 180.184 113.202 180.376 113.586 180.76C113.986 181.128 114.186 181.592 114.186 182.152C114.186 182.712 113.986 183.184 113.586 183.568C113.202 183.936 112.714 184.12 112.122 184.12ZM113.778 185.704V199H110.418V185.704H113.778ZM123.001 199.216C121.721 199.216 120.569 198.936 119.545 198.376C118.521 197.8 117.713 196.992 117.121 195.952C116.545 194.912 116.257 193.712 116.257 192.352C116.257 190.992 116.553 189.792 117.145 188.752C117.753 187.712 118.577 186.912 119.617 186.352C120.657 185.776 121.817 185.488 123.097 185.488C124.377 185.488 125.537 185.776 126.577 186.352C127.617 186.912 128.433 187.712 129.025 188.752C129.633 189.792 129.937 190.992 129.937 192.352C129.937 193.712 129.625 194.912 129.001 195.952C128.393 196.992 127.561 197.8 126.505 198.376C125.465 198.936 124.297 199.216 123.001 199.216ZM123.001 196.288C123.609 196.288 124.177 196.144 124.705 195.856C125.249 195.552 125.681 195.104 126.001 194.512C126.321 193.92 126.481 193.2 126.481 192.352C126.481 191.088 126.145 190.12 125.473 189.448C124.817 188.76 124.009 188.416 123.049 188.416C122.089 188.416 121.281 188.76 120.625 189.448C119.985 190.12 119.665 191.088 119.665 192.352C119.665 193.616 119.977 194.592 120.601 195.28C121.241 195.952 122.041 196.288 123.001 196.288ZM139.77 185.512C141.354 185.512 142.634 186.016 143.61 187.024C144.586 188.016 145.074 189.408 145.074 191.2V199H141.714V191.656C141.714 190.6 141.45 189.792 140.922 189.232C140.394 188.656 139.674 188.368 138.762 188.368C137.834 188.368 137.098 188.656 136.554 189.232C136.026 189.792 135.762 190.6 135.762 191.656V199H132.402V185.704H135.762V187.36C136.21 186.784 136.778 186.336 137.466 186.016C138.17 185.68 138.938 185.512 139.77 185.512Z"/>
<path d="M66.5106 91.7463C65.4822 91.7463 64.4538 91.3674 63.6419 90.5555L55.523 82.4365C53.9533 80.8669 53.9533 78.2688 55.523 76.6991C57.0926 75.1295 59.6907 75.1295 61.2604 76.6991L66.5106 81.9494L85.2926 63.1675C86.8622 61.5978 89.4603 61.5978 91.03 63.1675C92.5996 64.7372 92.5996 67.3352 91.03 68.9049L69.3794 90.5555C68.6216 91.3674 67.5391 91.7463 66.5106 91.7463Z" />
<path d="M83.7776 36.5372H62.127C56.9308 36.5372 47.2422 36.5372 47.2422 21.6524C47.2422 6.76758 56.9308 6.76758 62.127 6.76758H83.7776C88.9738 6.76758 98.6624 6.76758 98.6624 21.6524C98.6624 26.8485 98.6624 36.5372 83.7776 36.5372ZM62.127 14.8866C56.7685 14.8866 55.3612 14.8866 55.3612 21.6524C55.3612 28.4182 56.7685 28.4182 62.127 28.4182H83.7776C90.5434 28.4182 90.5434 27.0109 90.5434 21.6524C90.5434 14.8866 89.1361 14.8866 83.7776 14.8866H62.127Z" />
<path d="M89.1891 123.141H56.7132C26.294 123.141 20.1777 109.176 20.1777 86.6052V54.1292C20.1777 29.4475 29.1086 18.8929 51.084 17.7562C53.3032 17.6479 55.2517 19.3259 55.36 21.5992C55.4682 23.8725 53.7362 25.7128 51.517 25.8211C36.1451 26.6871 28.2967 31.2878 28.2967 54.1292V86.6052C28.2967 106.632 32.248 115.022 56.7132 115.022H89.1891C113.654 115.022 117.606 106.632 117.606 86.6052V54.1292C117.606 31.2878 109.757 26.6871 94.3852 25.8211C92.1661 25.7128 90.434 23.7643 90.5423 21.5451C90.6505 19.3259 92.5449 17.5938 94.8183 17.7021C116.794 18.8929 125.725 29.4475 125.725 54.0751V86.551C125.725 109.176 119.608 123.141 89.1891 123.141Z"/>
</svg>
