<svg width="134" height="188" viewBox="0 0 154 208" fill="none" xmlns="http://www.w3.org/2000/svg">
<path d="M68.978 108.162C67.7656 108.162 66.5532 107.715 65.5961 106.758L56.0246 97.1862C54.1741 95.3357 54.1741 92.2729 56.0246 90.4224C57.8751 88.5719 60.9379 88.5719 62.7884 90.4224L68.978 96.6119L91.12 74.4699C92.9705 72.6194 96.0334 72.6194 97.8839 74.4699C99.7344 76.3204 99.7344 79.3833 97.8839 81.2337L72.3599 106.758C71.4666 107.715 70.1904 108.162 68.978 108.162Z"/>
<path d="M89.3354 43.0701H63.8114C57.6856 43.0701 46.2637 43.0701 46.2637 25.5223C46.2637 7.97461 57.6856 7.97461 63.8114 7.97461H89.3354C95.4611 7.97461 106.883 7.97461 106.883 25.5223C106.883 31.6481 106.883 43.0701 89.3354 43.0701ZM63.8114 17.5461C57.4942 17.5461 55.8352 17.5461 55.8352 25.5223C55.8352 33.4986 57.4942 33.4986 63.8114 33.4986H89.3354C97.3116 33.4986 97.3116 31.8395 97.3116 25.5223C97.3116 17.5461 95.6525 17.5461 89.3354 17.5461H63.8114Z"/>
<path d="M95.715 145.171H57.4291C21.5679 145.171 14.3574 128.708 14.3574 102.099V63.813C14.3574 34.7157 24.8861 22.2728 50.7929 20.9328C53.4091 20.8051 55.7062 22.7833 55.8339 25.4633C55.9615 28.1433 53.9196 30.3128 51.3034 30.4404C33.1813 31.4614 23.9289 36.8852 23.9289 63.813V102.099C23.9289 125.709 28.587 135.599 57.4291 135.599H95.715C124.557 135.599 129.215 125.709 129.215 102.099V63.813C129.215 36.8852 119.963 31.4614 101.841 30.4404C99.2246 30.3128 97.1827 28.0157 97.3103 25.3995C97.4379 22.7833 99.6713 20.7413 102.351 20.869C128.258 22.2728 138.787 34.7157 138.787 63.7492V102.035C138.787 128.708 131.576 145.171 95.715 145.171Z"/>
<path d="M1.97281 189.6C1.97281 187.952 2.34081 186.48 3.07681 185.184C3.82881 183.872 4.84481 182.856 6.12481 182.136C7.42081 181.4 8.86881 181.032 10.4688 181.032C12.3408 181.032 13.9808 181.512 15.3888 182.472C16.7968 183.432 17.7808 184.76 18.3408 186.456H14.4768C14.0928 185.656 13.5488 185.056 12.8448 184.656C12.1568 184.256 11.3568 184.056 10.4448 184.056C9.46881 184.056 8.59681 184.288 7.82881 184.752C7.07681 185.2 6.48481 185.84 6.05281 186.672C5.63681 187.504 5.42881 188.48 5.42881 189.6C5.42881 190.704 5.63681 191.68 6.05281 192.528C6.48481 193.36 7.07681 194.008 7.82881 194.472C8.59681 194.92 9.46881 195.144 10.4448 195.144C11.3568 195.144 12.1568 194.944 12.8448 194.544C13.5488 194.128 14.0928 193.52 14.4768 192.72H18.3408C17.7808 194.432 16.7968 195.768 15.3888 196.728C13.9968 197.672 12.3568 198.144 10.4688 198.144C8.86881 198.144 7.42081 197.784 6.12481 197.064C4.84481 196.328 3.82881 195.312 3.07681 194.016C2.34081 192.72 1.97281 191.248 1.97281 189.6ZM33.5707 191.064C33.5707 191.544 33.5387 191.976 33.4747 192.36H23.7547C23.8347 193.32 24.1707 194.072 24.7627 194.616C25.3547 195.16 26.0827 195.432 26.9467 195.432C28.1947 195.432 29.0827 194.896 29.6107 193.824H33.2347C32.8507 195.104 32.1147 196.16 31.0267 196.992C29.9387 197.808 28.6027 198.216 27.0187 198.216C25.7387 198.216 24.5867 197.936 23.5627 197.376C22.5547 196.8 21.7627 195.992 21.1867 194.952C20.6267 193.912 20.3467 192.712 20.3467 191.352C20.3467 189.976 20.6267 188.768 21.1867 187.728C21.7467 186.688 22.5307 185.888 23.5387 185.328C24.5467 184.768 25.7067 184.488 27.0187 184.488C28.2827 184.488 29.4107 184.76 30.4027 185.304C31.4107 185.848 32.1867 186.624 32.7307 187.632C33.2907 188.624 33.5707 189.768 33.5707 191.064ZM30.0907 190.104C30.0747 189.24 29.7627 188.552 29.1547 188.04C28.5467 187.512 27.8027 187.248 26.9227 187.248C26.0907 187.248 25.3867 187.504 24.8107 188.016C24.2507 188.512 23.9067 189.208 23.7787 190.104H30.0907ZM39.3832 186.768C39.8152 186.064 40.3752 185.512 41.0632 185.112C41.7672 184.712 42.5672 184.512 43.4632 184.512V188.04H42.5752C41.5192 188.04 40.7192 188.288 40.1752 188.784C39.6472 189.28 39.3832 190.144 39.3832 191.376V198H36.0232V184.704H39.3832V186.768ZM49.6383 187.464V193.896C49.6383 194.344 49.7423 194.672 49.9503 194.88C50.1743 195.072 50.5423 195.168 51.0543 195.168H52.6143V198H50.5023C47.6703 198 46.2543 196.624 46.2543 193.872V187.464H44.6703V184.704H46.2543V181.416H49.6383V184.704H52.6143V187.464H49.6383ZM56.735 183.12C56.143 183.12 55.647 182.936 55.247 182.568C54.863 182.184 54.671 181.712 54.671 181.152C54.671 180.592 54.863 180.128 55.247 179.76C55.647 179.376 56.143 179.184 56.735 179.184C57.327 179.184 57.815 179.376 58.199 179.76C58.599 180.128 58.799 180.592 58.799 181.152C58.799 181.712 58.599 182.184 58.199 182.568C57.815 182.936 57.327 183.12 56.735 183.12ZM58.391 184.704V198H55.031V184.704H58.391ZM67.8067 187.464H65.4787V198H62.0707V187.464H60.5587V184.704H62.0707V184.032C62.0707 182.4 62.5347 181.2 63.4627 180.432C64.3907 179.664 65.7907 179.304 67.6627 179.352V182.184C66.8467 182.168 66.2787 182.304 65.9587 182.592C65.6387 182.88 65.4787 183.4 65.4787 184.152V184.704H67.8067V187.464ZM71.6881 183.12C71.0961 183.12 70.6001 182.936 70.2001 182.568C69.8161 182.184 69.6241 181.712 69.6241 181.152C69.6241 180.592 69.8161 180.128 70.2001 179.76C70.6001 179.376 71.0961 179.184 71.6881 179.184C72.2801 179.184 72.7681 179.376 73.1521 179.76C73.5521 180.128 73.7521 180.592 73.7521 181.152C73.7521 181.712 73.5521 182.184 73.1521 182.568C72.7681 182.936 72.2801 183.12 71.6881 183.12ZM73.3441 184.704V198H69.9841V184.704H73.3441ZM75.7998 191.352C75.7998 189.976 76.0798 188.776 76.6398 187.752C77.1998 186.712 77.9758 185.912 78.9678 185.352C79.9598 184.776 81.0958 184.488 82.3758 184.488C84.0238 184.488 85.3838 184.904 86.4558 185.736C87.5438 186.552 88.2718 187.704 88.6398 189.192H85.0158C84.8238 188.616 84.4958 188.168 84.0318 187.848C83.5838 187.512 83.0238 187.344 82.3518 187.344C81.3918 187.344 80.6318 187.696 80.0718 188.4C79.5118 189.088 79.2318 190.072 79.2318 191.352C79.2318 192.616 79.5118 193.6 80.0718 194.304C80.6318 194.992 81.3918 195.336 82.3518 195.336C83.7118 195.336 84.5998 194.728 85.0158 193.512H88.6398C88.2718 194.952 87.5438 196.096 86.4558 196.944C85.3678 197.792 84.0078 198.216 82.3758 198.216C81.0958 198.216 79.9598 197.936 78.9678 197.376C77.9758 196.8 77.1998 196 76.6398 194.976C76.0798 193.936 75.7998 192.728 75.7998 191.352ZM90.2373 191.304C90.2373 189.96 90.5013 188.768 91.0293 187.728C91.5733 186.688 92.3013 185.888 93.2133 185.328C94.1413 184.768 95.1733 184.488 96.3093 184.488C97.3013 184.488 98.1653 184.688 98.9013 185.088C99.6533 185.488 100.253 185.992 100.701 186.6V184.704H104.085V198H100.701V196.056C100.269 196.68 99.6693 197.2 98.9013 197.616C98.1493 198.016 97.2773 198.216 96.2853 198.216C95.1653 198.216 94.1413 197.928 93.2133 197.352C92.3013 196.776 91.5733 195.968 91.0293 194.928C90.5013 193.872 90.2373 192.664 90.2373 191.304ZM100.701 191.352C100.701 190.536 100.541 189.84 100.221 189.264C99.9013 188.672 99.4693 188.224 98.9253 187.92C98.3813 187.6 97.7973 187.44 97.1733 187.44C96.5493 187.44 95.9733 187.592 95.4453 187.896C94.9173 188.2 94.4853 188.648 94.1493 189.24C93.8293 189.816 93.6693 190.504 93.6693 191.304C93.6693 192.104 93.8293 192.808 94.1493 193.416C94.4853 194.008 94.9173 194.464 95.4453 194.784C95.9893 195.104 96.5653 195.264 97.1733 195.264C97.7973 195.264 98.3813 195.112 98.9253 194.808C99.4693 194.488 99.9013 194.04 100.221 193.464C100.541 192.872 100.701 192.168 100.701 191.352ZM111.279 187.464V193.896C111.279 194.344 111.383 194.672 111.591 194.88C111.815 195.072 112.183 195.168 112.695 195.168H114.255V198H112.143C109.311 198 107.895 196.624 107.895 193.872V187.464H106.311V184.704H107.895V181.416H111.279V184.704H114.255V187.464H111.279ZM118.376 183.12C117.784 183.12 117.288 182.936 116.888 182.568C116.504 182.184 116.312 181.712 116.312 181.152C116.312 180.592 116.504 180.128 116.888 179.76C117.288 179.376 117.784 179.184 118.376 179.184C118.968 179.184 119.456 179.376 119.84 179.76C120.24 180.128 120.44 180.592 120.44 181.152C120.44 181.712 120.24 182.184 119.84 182.568C119.456 182.936 118.968 183.12 118.376 183.12ZM120.032 184.704V198H116.672V184.704H120.032ZM129.255 198.216C127.975 198.216 126.823 197.936 125.799 197.376C124.775 196.8 123.967 195.992 123.375 194.952C122.799 193.912 122.511 192.712 122.511 191.352C122.511 189.992 122.807 188.792 123.399 187.752C124.007 186.712 124.831 185.912 125.871 185.352C126.911 184.776 128.071 184.488 129.351 184.488C130.631 184.488 131.791 184.776 132.831 185.352C133.871 185.912 134.687 186.712 135.279 187.752C135.887 188.792 136.191 189.992 136.191 191.352C136.191 192.712 135.879 193.912 135.255 194.952C134.647 195.992 133.815 196.8 132.759 197.376C131.719 197.936 130.551 198.216 129.255 198.216ZM129.255 195.288C129.863 195.288 130.431 195.144 130.959 194.856C131.503 194.552 131.935 194.104 132.255 193.512C132.575 192.92 132.735 192.2 132.735 191.352C132.735 190.088 132.399 189.12 131.727 188.448C131.071 187.76 130.263 187.416 129.303 187.416C128.343 187.416 127.535 187.76 126.879 188.448C126.239 189.12 125.919 190.088 125.919 191.352C125.919 192.616 126.231 193.592 126.855 194.28C127.495 194.952 128.295 195.288 129.255 195.288ZM146.024 184.512C147.608 184.512 148.888 185.016 149.864 186.024C150.84 187.016 151.328 188.408 151.328 190.2V198H147.968V190.656C147.968 189.6 147.704 188.792 147.176 188.232C146.648 187.656 145.928 187.368 145.016 187.368C144.088 187.368 143.352 187.656 142.808 188.232C142.28 188.792 142.016 189.6 142.016 190.656V198H138.656V184.704H142.016V186.36C142.464 185.784 143.032 185.336 143.72 185.016C144.424 184.68 145.192 184.512 146.024 184.512Z"/>
</svg>
