<svg width="219" height="180" viewBox="0 0 239 200" fill="none" xmlns="http://www.w3.org/2000/svg">
<path d="M173.035 15.0056L147.916 0.746249C147.066 0.257373 146.101 0 145.119 0C144.137 0 143.172 0.257373 142.322 0.746249L119.944 13.446L97.5664 0.746249C96.716 0.257373 95.7513 0 94.7692 0C93.7872 0 92.8225 0.257373 91.972 0.746249L66.8531 15.0056C65.989 15.4892 65.2694 16.1928 64.7681 17.0443C64.2668 17.8958 64.0017 18.8646 64 19.8516V48.3703C64.0017 49.3573 64.2668 50.3261 64.7681 51.1776C65.2694 52.0291 65.989 52.7327 66.8531 53.2163L89.2308 65.8603V91.1484C89.2325 92.1354 89.4976 93.1042 89.9989 93.9557C90.5002 94.8072 91.2198 95.5108 92.0839 95.9944L117.259 110.254C118.109 110.743 119.074 111 120.056 111C121.038 111 122.003 110.743 122.853 110.254L147.916 95.9944C148.78 95.5108 149.5 94.8072 150.001 93.9557C150.502 93.1042 150.768 92.1354 150.769 91.1484V65.8603L173.147 53.2163C174.011 52.7327 174.731 52.0291 175.232 51.1776C175.733 50.3261 175.998 49.3573 176 48.3703V19.8516C175.987 18.8534 175.705 17.877 175.184 17.0245C174.662 16.172 173.92 15.4747 173.035 15.0056ZM75.1888 45.1397V22.8594L94.7692 11.7193L114.35 22.8594V45.1397L94.7692 56.2798L75.1888 45.1397ZM139.524 87.9178L119.944 99.0579L100.364 87.9178V65.6375L119.944 54.4974L139.524 65.6375V87.9178ZM164.699 45.1397L145.119 56.2798L125.538 45.1397V22.8594L145.119 11.7193L164.699 22.8594V45.1397Z" />
<path d="M60.9632 150.808H54.2912L53.1872 154H49.6592L55.6832 137.224H59.5952L65.6192 154H62.0672L60.9632 150.808ZM60.0512 148.12L57.6272 141.112L55.2032 148.12H60.0512ZM71.2308 142.624C71.6628 142.016 72.2548 141.512 73.0068 141.112C73.7748 140.696 74.6468 140.488 75.6228 140.488C76.7588 140.488 77.7828 140.768 78.6948 141.328C79.6228 141.888 80.3508 142.688 80.8788 143.728C81.4228 144.752 81.6948 145.944 81.6948 147.304C81.6948 148.664 81.4228 149.872 80.8788 150.928C80.3508 151.968 79.6228 152.776 78.6948 153.352C77.7828 153.928 76.7588 154.216 75.6228 154.216C74.6468 154.216 73.7828 154.016 73.0308 153.616C72.2948 153.216 71.6948 152.712 71.2308 152.104V160.336H67.8708V140.704H71.2308V142.624ZM78.2628 147.304C78.2628 146.504 78.0948 145.816 77.7588 145.24C77.4388 144.648 77.0068 144.2 76.4628 143.896C75.9348 143.592 75.3588 143.44 74.7348 143.44C74.1268 143.44 73.5508 143.6 73.0068 143.92C72.4788 144.224 72.0468 144.672 71.7108 145.264C71.3908 145.856 71.2308 146.552 71.2308 147.352C71.2308 148.152 71.3908 148.848 71.7108 149.44C72.0468 150.032 72.4788 150.488 73.0068 150.808C73.5508 151.112 74.1268 151.264 74.7348 151.264C75.3588 151.264 75.9348 151.104 76.4628 150.784C77.0068 150.464 77.4388 150.008 77.7588 149.416C78.0948 148.824 78.2628 148.12 78.2628 147.304ZM87.4965 142.624C87.9285 142.016 88.5205 141.512 89.2725 141.112C90.0405 140.696 90.9125 140.488 91.8885 140.488C93.0245 140.488 94.0485 140.768 94.9605 141.328C95.8885 141.888 96.6165 142.688 97.1445 143.728C97.6885 144.752 97.9605 145.944 97.9605 147.304C97.9605 148.664 97.6885 149.872 97.1445 150.928C96.6165 151.968 95.8885 152.776 94.9605 153.352C94.0485 153.928 93.0245 154.216 91.8885 154.216C90.9125 154.216 90.0485 154.016 89.2965 153.616C88.5605 153.216 87.9605 152.712 87.4965 152.104V160.336H84.1365V140.704H87.4965V142.624ZM94.5285 147.304C94.5285 146.504 94.3605 145.816 94.0245 145.24C93.7045 144.648 93.2725 144.2 92.7285 143.896C92.2005 143.592 91.6245 143.44 91.0005 143.44C90.3925 143.44 89.8165 143.6 89.2725 143.92C88.7445 144.224 88.3125 144.672 87.9765 145.264C87.6565 145.856 87.4965 146.552 87.4965 147.352C87.4965 148.152 87.6565 148.848 87.9765 149.44C88.3125 150.032 88.7445 150.488 89.2725 150.808C89.8165 151.112 90.3925 151.264 91.0005 151.264C91.6245 151.264 92.2005 151.104 92.7285 150.784C93.2725 150.464 93.7045 150.008 94.0245 149.416C94.3605 148.824 94.5285 148.12 94.5285 147.304ZM103.762 136.24V154H100.402V136.24H103.762ZM108.786 139.12C108.194 139.12 107.698 138.936 107.298 138.568C106.914 138.184 106.722 137.712 106.722 137.152C106.722 136.592 106.914 136.128 107.298 135.76C107.698 135.376 108.194 135.184 108.786 135.184C109.378 135.184 109.866 135.376 110.25 135.76C110.65 136.128 110.85 136.592 110.85 137.152C110.85 137.712 110.65 138.184 110.25 138.568C109.866 138.936 109.378 139.12 108.786 139.12ZM110.442 140.704V154H107.082V140.704H110.442ZM112.897 147.352C112.897 145.976 113.177 144.776 113.737 143.752C114.297 142.712 115.073 141.912 116.065 141.352C117.057 140.776 118.193 140.488 119.473 140.488C121.121 140.488 122.481 140.904 123.553 141.736C124.641 142.552 125.369 143.704 125.737 145.192H122.113C121.921 144.616 121.593 144.168 121.129 143.848C120.681 143.512 120.121 143.344 119.449 143.344C118.489 143.344 117.729 143.696 117.169 144.4C116.609 145.088 116.329 146.072 116.329 147.352C116.329 148.616 116.609 149.6 117.169 150.304C117.729 150.992 118.489 151.336 119.449 151.336C120.809 151.336 121.697 150.728 122.113 149.512H125.737C125.369 150.952 124.641 152.096 123.553 152.944C122.465 153.792 121.105 154.216 119.473 154.216C118.193 154.216 117.057 153.936 116.065 153.376C115.073 152.8 114.297 152 113.737 150.976C113.177 149.936 112.897 148.728 112.897 147.352ZM127.335 147.304C127.335 145.96 127.599 144.768 128.127 143.728C128.671 142.688 129.399 141.888 130.311 141.328C131.239 140.768 132.271 140.488 133.407 140.488C134.399 140.488 135.263 140.688 135.999 141.088C136.751 141.488 137.351 141.992 137.799 142.6V140.704H141.183V154H137.799V152.056C137.367 152.68 136.767 153.2 135.999 153.616C135.247 154.016 134.375 154.216 133.383 154.216C132.263 154.216 131.239 153.928 130.311 153.352C129.399 152.776 128.671 151.968 128.127 150.928C127.599 149.872 127.335 148.664 127.335 147.304ZM137.799 147.352C137.799 146.536 137.639 145.84 137.319 145.264C136.999 144.672 136.567 144.224 136.023 143.92C135.479 143.6 134.895 143.44 134.271 143.44C133.647 143.44 133.071 143.592 132.543 143.896C132.015 144.2 131.583 144.648 131.247 145.24C130.927 145.816 130.767 146.504 130.767 147.304C130.767 148.104 130.927 148.808 131.247 149.416C131.583 150.008 132.015 150.464 132.543 150.784C133.087 151.104 133.663 151.264 134.271 151.264C134.895 151.264 135.479 151.112 136.023 150.808C136.567 150.488 136.999 150.04 137.319 149.464C137.639 148.872 137.799 148.168 137.799 147.352ZM148.377 143.464V149.896C148.377 150.344 148.481 150.672 148.689 150.88C148.913 151.072 149.281 151.168 149.793 151.168H151.353V154H149.241C146.409 154 144.993 152.624 144.993 149.872V143.464H143.409V140.704H144.993V137.416H148.377V140.704H151.353V143.464H148.377ZM155.473 139.12C154.881 139.12 154.385 138.936 153.985 138.568C153.601 138.184 153.409 137.712 153.409 137.152C153.409 136.592 153.601 136.128 153.985 135.76C154.385 135.376 154.881 135.184 155.473 135.184C156.065 135.184 156.553 135.376 156.937 135.76C157.337 136.128 157.537 136.592 157.537 137.152C157.537 137.712 157.337 138.184 156.937 138.568C156.553 138.936 156.065 139.12 155.473 139.12ZM157.129 140.704V154H153.769V140.704H157.129ZM166.353 154.216C165.073 154.216 163.921 153.936 162.897 153.376C161.873 152.8 161.065 151.992 160.473 150.952C159.897 149.912 159.609 148.712 159.609 147.352C159.609 145.992 159.905 144.792 160.497 143.752C161.105 142.712 161.929 141.912 162.969 141.352C164.009 140.776 165.169 140.488 166.449 140.488C167.729 140.488 168.889 140.776 169.929 141.352C170.969 141.912 171.785 142.712 172.377 143.752C172.985 144.792 173.289 145.992 173.289 147.352C173.289 148.712 172.977 149.912 172.353 150.952C171.745 151.992 170.913 152.8 169.857 153.376C168.817 153.936 167.649 154.216 166.353 154.216ZM166.353 151.288C166.961 151.288 167.529 151.144 168.057 150.856C168.601 150.552 169.033 150.104 169.353 149.512C169.673 148.92 169.833 148.2 169.833 147.352C169.833 146.088 169.497 145.12 168.825 144.448C168.169 143.76 167.361 143.416 166.401 143.416C165.441 143.416 164.633 143.76 163.977 144.448C163.337 145.12 163.017 146.088 163.017 147.352C163.017 148.616 163.329 149.592 163.953 150.28C164.593 150.952 165.393 151.288 166.353 151.288ZM183.122 140.512C184.706 140.512 185.986 141.016 186.962 142.024C187.938 143.016 188.426 144.408 188.426 146.2V154H185.066V146.656C185.066 145.6 184.802 144.792 184.274 144.232C183.746 143.656 183.026 143.368 182.114 143.368C181.186 143.368 180.45 143.656 179.906 144.232C179.378 144.792 179.114 145.6 179.114 146.656V154H175.754V140.704H179.114V142.36C179.562 141.784 180.13 141.336 180.818 141.016C181.522 140.68 182.29 140.512 183.122 140.512ZM56.3223 173.248V190H52.9623V179.104L48.4743 190H45.9303L41.4183 179.104V190H38.0583V173.248H41.8743L47.2023 185.704L52.5303 173.248H56.3223ZM58.7803 183.304C58.7803 181.96 59.0443 180.768 59.5723 179.728C60.1163 178.688 60.8443 177.888 61.7563 177.328C62.6843 176.768 63.7163 176.488 64.8523 176.488C65.8443 176.488 66.7083 176.688 67.4443 177.088C68.1963 177.488 68.7963 177.992 69.2443 178.6V176.704H72.6283V190H69.2443V188.056C68.8123 188.68 68.2123 189.2 67.4443 189.616C66.6923 190.016 65.8203 190.216 64.8283 190.216C63.7083 190.216 62.6843 189.928 61.7563 189.352C60.8443 188.776 60.1163 187.968 59.5723 186.928C59.0443 185.872 58.7803 184.664 58.7803 183.304ZM69.2443 183.352C69.2443 182.536 69.0843 181.84 68.7643 181.264C68.4443 180.672 68.0123 180.224 67.4683 179.92C66.9243 179.6 66.3403 179.44 65.7163 179.44C65.0923 179.44 64.5163 179.592 63.9883 179.896C63.4603 180.2 63.0283 180.648 62.6923 181.24C62.3723 181.816 62.2123 182.504 62.2123 183.304C62.2123 184.104 62.3723 184.808 62.6923 185.416C63.0283 186.008 63.4603 186.464 63.9883 186.784C64.5323 187.104 65.1083 187.264 65.7163 187.264C66.3403 187.264 66.9243 187.112 67.4683 186.808C68.0123 186.488 68.4443 186.04 68.7643 185.464C69.0843 184.872 69.2443 184.168 69.2443 183.352ZM83.2779 176.512C84.8619 176.512 86.1419 177.016 87.1179 178.024C88.0939 179.016 88.5819 180.408 88.5819 182.2V190H85.2219V182.656C85.2219 181.6 84.9579 180.792 84.4299 180.232C83.9019 179.656 83.1819 179.368 82.2699 179.368C81.3419 179.368 80.6059 179.656 80.0619 180.232C79.5339 180.792 79.2699 181.6 79.2699 182.656V190H75.9099V176.704H79.2699V178.36C79.7179 177.784 80.2859 177.336 80.9739 177.016C81.6779 176.68 82.4459 176.512 83.2779 176.512ZM90.9131 183.304C90.9131 181.96 91.1771 180.768 91.7051 179.728C92.2491 178.688 92.9771 177.888 93.8891 177.328C94.8171 176.768 95.8491 176.488 96.9851 176.488C97.9771 176.488 98.8411 176.688 99.5771 177.088C100.329 177.488 100.929 177.992 101.377 178.6V176.704H104.761V190H101.377V188.056C100.945 188.68 100.345 189.2 99.5771 189.616C98.8251 190.016 97.9531 190.216 96.9611 190.216C95.8411 190.216 94.8171 189.928 93.8891 189.352C92.9771 188.776 92.2491 187.968 91.7051 186.928C91.1771 185.872 90.9131 184.664 90.9131 183.304ZM101.377 183.352C101.377 182.536 101.217 181.84 100.897 181.264C100.577 180.672 100.145 180.224 99.6011 179.92C99.0571 179.6 98.4731 179.44 97.8491 179.44C97.2251 179.44 96.6491 179.592 96.1211 179.896C95.5931 180.2 95.1611 180.648 94.8251 181.24C94.5051 181.816 94.3451 182.504 94.3451 183.304C94.3451 184.104 94.5051 184.808 94.8251 185.416C95.1611 186.008 95.5931 186.464 96.1211 186.784C96.6651 187.104 97.2411 187.264 97.8491 187.264C98.4731 187.264 99.0571 187.112 99.6011 186.808C100.145 186.488 100.577 186.04 100.897 185.464C101.217 184.872 101.377 184.168 101.377 183.352ZM113.251 176.488C114.243 176.488 115.115 176.688 115.867 177.088C116.619 177.472 117.211 177.976 117.643 178.6V176.704H121.027V190.096C121.027 191.328 120.779 192.424 120.283 193.384C119.787 194.36 119.043 195.128 118.051 195.688C117.059 196.264 115.859 196.552 114.451 196.552C112.563 196.552 111.011 196.112 109.795 195.232C108.595 194.352 107.915 193.152 107.755 191.632H111.091C111.267 192.24 111.643 192.72 112.219 193.072C112.811 193.44 113.523 193.624 114.355 193.624C115.331 193.624 116.123 193.328 116.731 192.736C117.339 192.16 117.643 191.28 117.643 190.096V188.032C117.211 188.656 116.611 189.176 115.843 189.592C115.091 190.008 114.227 190.216 113.251 190.216C112.131 190.216 111.107 189.928 110.179 189.352C109.251 188.776 108.515 187.968 107.971 186.928C107.443 185.872 107.179 184.664 107.179 183.304C107.179 181.96 107.443 180.768 107.971 179.728C108.515 178.688 109.243 177.888 110.155 177.328C111.083 176.768 112.115 176.488 113.251 176.488ZM117.643 183.352C117.643 182.536 117.483 181.84 117.163 181.264C116.843 180.672 116.411 180.224 115.867 179.92C115.323 179.6 114.739 179.44 114.115 179.44C113.491 179.44 112.915 179.592 112.387 179.896C111.859 180.2 111.427 180.648 111.091 181.24C110.771 181.816 110.611 182.504 110.611 183.304C110.611 184.104 110.771 184.808 111.091 185.416C111.427 186.008 111.859 186.464 112.387 186.784C112.931 187.104 113.507 187.264 114.115 187.264C114.739 187.264 115.323 187.112 115.867 186.808C116.411 186.488 116.843 186.04 117.163 185.464C117.483 184.872 117.643 184.168 117.643 183.352ZM136.668 183.064C136.668 183.544 136.636 183.976 136.572 184.36H126.852C126.932 185.32 127.268 186.072 127.86 186.616C128.452 187.16 129.18 187.432 130.044 187.432C131.292 187.432 132.18 186.896 132.708 185.824H136.332C135.948 187.104 135.212 188.16 134.124 188.992C133.036 189.808 131.7 190.216 130.116 190.216C128.836 190.216 127.684 189.936 126.66 189.376C125.652 188.8 124.86 187.992 124.284 186.952C123.724 185.912 123.444 184.712 123.444 183.352C123.444 181.976 123.724 180.768 124.284 179.728C124.844 178.688 125.628 177.888 126.636 177.328C127.644 176.768 128.804 176.488 130.116 176.488C131.38 176.488 132.508 176.76 133.5 177.304C134.508 177.848 135.284 178.624 135.828 179.632C136.388 180.624 136.668 181.768 136.668 183.064ZM133.188 182.104C133.172 181.24 132.86 180.552 132.252 180.04C131.644 179.512 130.9 179.248 130.02 179.248C129.188 179.248 128.484 179.504 127.908 180.016C127.348 180.512 127.004 181.208 126.876 182.104H133.188ZM155.633 176.512C157.265 176.512 158.577 177.016 159.569 178.024C160.577 179.016 161.081 180.408 161.081 182.2V190H157.721V182.656C157.721 181.616 157.457 180.824 156.929 180.28C156.401 179.72 155.681 179.44 154.769 179.44C153.857 179.44 153.129 179.72 152.585 180.28C152.057 180.824 151.793 181.616 151.793 182.656V190H148.433V182.656C148.433 181.616 148.169 180.824 147.641 180.28C147.113 179.72 146.393 179.44 145.481 179.44C144.553 179.44 143.817 179.72 143.273 180.28C142.745 180.824 142.481 181.616 142.481 182.656V190H139.121V176.704H142.481V178.312C142.913 177.752 143.465 177.312 144.137 176.992C144.825 176.672 145.577 176.512 146.393 176.512C147.433 176.512 148.361 176.736 149.177 177.184C149.993 177.616 150.625 178.24 151.073 179.056C151.505 178.288 152.129 177.672 152.945 177.208C153.777 176.744 154.673 176.512 155.633 176.512ZM176.629 183.064C176.629 183.544 176.597 183.976 176.533 184.36H166.813C166.893 185.32 167.229 186.072 167.821 186.616C168.413 187.16 169.141 187.432 170.005 187.432C171.253 187.432 172.141 186.896 172.669 185.824H176.293C175.909 187.104 175.173 188.16 174.085 188.992C172.997 189.808 171.661 190.216 170.077 190.216C168.797 190.216 167.645 189.936 166.621 189.376C165.613 188.8 164.821 187.992 164.245 186.952C163.685 185.912 163.405 184.712 163.405 183.352C163.405 181.976 163.685 180.768 164.245 179.728C164.805 178.688 165.589 177.888 166.597 177.328C167.605 176.768 168.765 176.488 170.077 176.488C171.341 176.488 172.469 176.76 173.461 177.304C174.469 177.848 175.245 178.624 175.789 179.632C176.349 180.624 176.629 181.768 176.629 183.064ZM173.149 182.104C173.133 181.24 172.821 180.552 172.213 180.04C171.605 179.512 170.861 179.248 169.981 179.248C169.149 179.248 168.445 179.504 167.869 180.016C167.309 180.512 166.965 181.208 166.837 182.104H173.149ZM186.45 176.512C188.034 176.512 189.314 177.016 190.29 178.024C191.266 179.016 191.754 180.408 191.754 182.2V190H188.394V182.656C188.394 181.6 188.13 180.792 187.602 180.232C187.074 179.656 186.354 179.368 185.442 179.368C184.514 179.368 183.778 179.656 183.234 180.232C182.706 180.792 182.442 181.6 182.442 182.656V190H179.082V176.704H182.442V178.36C182.89 177.784 183.458 177.336 184.146 177.016C184.85 176.68 185.618 176.512 186.45 176.512ZM198.861 179.464V185.896C198.861 186.344 198.965 186.672 199.173 186.88C199.397 187.072 199.765 187.168 200.277 187.168H201.837V190H199.725C196.893 190 195.477 188.624 195.477 185.872V179.464H193.893V176.704H195.477V173.416H198.861V176.704H201.837V179.464H198.861Z" />
</svg>
