<svg width="167" height="244" viewBox="0 0 167 244" fill="none" xmlns="http://www.w3.org/2000/svg">
<path d="M104.3 155.458H63.3001C26.1951 155.458 10.3418 139.605 10.3418 102.5V61.4998C10.3418 24.3948 26.1951 8.5415 63.3001 8.5415H104.3C141.405 8.5415 157.258 24.3948 157.258 61.4998V102.5C157.258 139.605 141.473 155.458 104.3 155.458ZM63.3001 18.7915C31.7985 18.7915 20.5918 29.9982 20.5918 61.4998V102.5C20.5918 134.002 31.7985 145.208 63.3001 145.208H104.3C135.802 145.208 147.008 134.002 147.008 102.5V61.4998C147.008 29.9982 135.802 18.7915 104.3 18.7915H63.3001Z" fill="white" fill-opacity="0.5"/>
<path d="M80.2429 123.409C78.6029 123.409 74.6396 122.794 72.3163 116.849L64.5263 97.1694C63.4329 94.3677 59.5379 91.771 56.5996 91.771L15.5996 91.9077C12.7979 91.9077 10.4746 89.6527 10.4746 86.7827C10.4746 83.981 12.7296 81.6577 15.5996 81.6577L56.5996 81.521H56.6679C63.8429 81.521 71.4963 86.7144 74.1613 93.411L80.3796 109.128L94.4563 73.4577C96.5746 68.1277 100.333 67.376 101.905 67.2394C103.476 67.171 107.303 67.5127 109.968 72.5694L117.075 86.031C118.305 88.3544 121.995 90.6094 124.66 90.6094H152.403C155.205 90.6094 157.528 92.9327 157.528 95.7344C157.528 98.536 155.205 100.859 152.403 100.859H124.66C118.168 100.859 111.061 96.5544 108.055 90.8144L102.725 80.701L88.3746 116.849C85.8463 122.726 81.8146 123.409 80.2429 123.409Z" fill="white" fill-opacity="0.5"/>
<path d="M69.2218 198L65.5258 191.472H63.9418V198H60.5818V181.248H66.8698C68.1658 181.248 69.2698 181.48 70.1818 181.944C71.0938 182.392 71.7738 183.008 72.2218 183.792C72.6858 184.56 72.9178 185.424 72.9178 186.384C72.9178 187.488 72.5978 188.488 71.9578 189.384C71.3178 190.264 70.3658 190.872 69.1018 191.208L73.1098 198H69.2218ZM63.9418 188.952H66.7498C67.6618 188.952 68.3418 188.736 68.7898 188.304C69.2378 187.856 69.4618 187.24 69.4618 186.456C69.4618 185.688 69.2378 185.096 68.7898 184.68C68.3418 184.248 67.6618 184.032 66.7498 184.032H63.9418V188.952ZM77.6608 183.12C77.0688 183.12 76.5728 182.936 76.1728 182.568C75.7888 182.184 75.5968 181.712 75.5968 181.152C75.5968 180.592 75.7888 180.128 76.1728 179.76C76.5728 179.376 77.0688 179.184 77.6608 179.184C78.2528 179.184 78.7408 179.376 79.1248 179.76C79.5248 180.128 79.7248 180.592 79.7248 181.152C79.7248 181.712 79.5248 182.184 79.1248 182.568C78.7408 182.936 78.2528 183.12 77.6608 183.12ZM79.3168 184.704V198H75.9568V184.704H79.3168ZM87.7245 198.216C86.6365 198.216 85.6605 198.024 84.7965 197.64C83.9325 197.24 83.2445 196.704 82.7325 196.032C82.2365 195.36 81.9645 194.616 81.9165 193.8H85.3005C85.3645 194.312 85.6125 194.736 86.0445 195.072C86.4925 195.408 87.0445 195.576 87.7005 195.576C88.3405 195.576 88.8365 195.448 89.1885 195.192C89.5565 194.936 89.7405 194.608 89.7405 194.208C89.7405 193.776 89.5165 193.456 89.0685 193.248C88.6365 193.024 87.9405 192.784 86.9805 192.528C85.9885 192.288 85.1725 192.04 84.5325 191.784C83.9085 191.528 83.3645 191.136 82.9005 190.608C82.4525 190.08 82.2285 189.368 82.2285 188.472C82.2285 187.736 82.4365 187.064 82.8525 186.456C83.2845 185.848 83.8925 185.368 84.6765 185.016C85.4765 184.664 86.4125 184.488 87.4845 184.488C89.0685 184.488 90.3325 184.888 91.2765 185.688C92.2205 186.472 92.7405 187.536 92.8365 188.88H89.6205C89.5725 188.352 89.3485 187.936 88.9485 187.632C88.5645 187.312 88.0445 187.152 87.3885 187.152C86.7805 187.152 86.3085 187.264 85.9725 187.488C85.6525 187.712 85.4925 188.024 85.4925 188.424C85.4925 188.872 85.7165 189.216 86.1645 189.456C86.6125 189.68 87.3085 189.912 88.2525 190.152C89.2125 190.392 90.0045 190.64 90.6285 190.896C91.2525 191.152 91.7885 191.552 92.2365 192.096C92.7005 192.624 92.9405 193.328 92.9565 194.208C92.9565 194.976 92.7405 195.664 92.3085 196.272C91.8925 196.88 91.2845 197.36 90.4845 197.712C89.7005 198.048 88.7805 198.216 87.7245 198.216ZM103.587 198L99.0746 192.336V198H95.7146V180.24H99.0746V190.344L103.539 184.704H107.907L102.051 191.376L107.955 198H103.587ZM20.3223 217.248V234H16.9623V223.104L12.4743 234H9.93034L5.41834 223.104V234H2.05834V217.248H5.87434L11.2023 229.704L16.5303 217.248H20.3223ZM22.7803 227.304C22.7803 225.96 23.0443 224.768 23.5723 223.728C24.1163 222.688 24.8443 221.888 25.7563 221.328C26.6843 220.768 27.7163 220.488 28.8523 220.488C29.8443 220.488 30.7083 220.688 31.4443 221.088C32.1963 221.488 32.7963 221.992 33.2443 222.6V220.704H36.6283V234H33.2443V232.056C32.8123 232.68 32.2123 233.2 31.4443 233.616C30.6923 234.016 29.8203 234.216 28.8283 234.216C27.7083 234.216 26.6843 233.928 25.7563 233.352C24.8443 232.776 24.1163 231.968 23.5723 230.928C23.0443 229.872 22.7803 228.664 22.7803 227.304ZM33.2443 227.352C33.2443 226.536 33.0843 225.84 32.7643 225.264C32.4443 224.672 32.0123 224.224 31.4683 223.92C30.9243 223.6 30.3403 223.44 29.7163 223.44C29.0923 223.44 28.5163 223.592 27.9883 223.896C27.4603 224.2 27.0283 224.648 26.6923 225.24C26.3723 225.816 26.2123 226.504 26.2123 227.304C26.2123 228.104 26.3723 228.808 26.6923 229.416C27.0283 230.008 27.4603 230.464 27.9883 230.784C28.5323 231.104 29.1083 231.264 29.7163 231.264C30.3403 231.264 30.9243 231.112 31.4683 230.808C32.0123 230.488 32.4443 230.04 32.7643 229.464C33.0843 228.872 33.2443 228.168 33.2443 227.352ZM47.2779 220.512C48.8619 220.512 50.1419 221.016 51.1179 222.024C52.0939 223.016 52.5819 224.408 52.5819 226.2V234H49.2219V226.656C49.2219 225.6 48.9579 224.792 48.4299 224.232C47.9019 223.656 47.1819 223.368 46.2699 223.368C45.3419 223.368 44.6059 223.656 44.0619 224.232C43.5339 224.792 43.2699 225.6 43.2699 226.656V234H39.9099V220.704H43.2699V222.36C43.7179 221.784 44.2859 221.336 44.9739 221.016C45.6779 220.68 46.4459 220.512 47.2779 220.512ZM54.9131 227.304C54.9131 225.96 55.1771 224.768 55.7051 223.728C56.2491 222.688 56.9771 221.888 57.8891 221.328C58.8171 220.768 59.8491 220.488 60.9851 220.488C61.9771 220.488 62.8411 220.688 63.5771 221.088C64.3291 221.488 64.9291 221.992 65.3771 222.6V220.704H68.7611V234H65.3771V232.056C64.9451 232.68 64.3451 233.2 63.5771 233.616C62.8251 234.016 61.9531 234.216 60.9611 234.216C59.8411 234.216 58.8171 233.928 57.8891 233.352C56.9771 232.776 56.2491 231.968 55.7051 230.928C55.1771 229.872 54.9131 228.664 54.9131 227.304ZM65.3771 227.352C65.3771 226.536 65.2171 225.84 64.8971 225.264C64.5771 224.672 64.1451 224.224 63.6011 223.92C63.0571 223.6 62.4731 223.44 61.8491 223.44C61.2251 223.44 60.6491 223.592 60.1211 223.896C59.5931 224.2 59.1611 224.648 58.8251 225.24C58.5051 225.816 58.3451 226.504 58.3451 227.304C58.3451 228.104 58.5051 228.808 58.8251 229.416C59.1611 230.008 59.5931 230.464 60.1211 230.784C60.6651 231.104 61.2411 231.264 61.8491 231.264C62.4731 231.264 63.0571 231.112 63.6011 230.808C64.1451 230.488 64.5771 230.04 64.8971 229.464C65.2171 228.872 65.3771 228.168 65.3771 227.352ZM77.2507 220.488C78.2427 220.488 79.1147 220.688 79.8667 221.088C80.6187 221.472 81.2107 221.976 81.6427 222.6V220.704H85.0267V234.096C85.0267 235.328 84.7787 236.424 84.2827 237.384C83.7867 238.36 83.0427 239.128 82.0507 239.688C81.0587 240.264 79.8587 240.552 78.4507 240.552C76.5627 240.552 75.0107 240.112 73.7947 239.232C72.5947 238.352 71.9147 237.152 71.7547 235.632H75.0907C75.2667 236.24 75.6427 236.72 76.2187 237.072C76.8107 237.44 77.5227 237.624 78.3547 237.624C79.3307 237.624 80.1227 237.328 80.7307 236.736C81.3387 236.16 81.6427 235.28 81.6427 234.096V232.032C81.2107 232.656 80.6107 233.176 79.8427 233.592C79.0907 234.008 78.2267 234.216 77.2507 234.216C76.1307 234.216 75.1067 233.928 74.1787 233.352C73.2507 232.776 72.5147 231.968 71.9707 230.928C71.4427 229.872 71.1787 228.664 71.1787 227.304C71.1787 225.96 71.4427 224.768 71.9707 223.728C72.5147 222.688 73.2427 221.888 74.1547 221.328C75.0827 220.768 76.1147 220.488 77.2507 220.488ZM81.6427 227.352C81.6427 226.536 81.4827 225.84 81.1627 225.264C80.8427 224.672 80.4107 224.224 79.8667 223.92C79.3227 223.6 78.7387 223.44 78.1147 223.44C77.4907 223.44 76.9147 223.592 76.3867 223.896C75.8587 224.2 75.4267 224.648 75.0907 225.24C74.7707 225.816 74.6107 226.504 74.6107 227.304C74.6107 228.104 74.7707 228.808 75.0907 229.416C75.4267 230.008 75.8587 230.464 76.3867 230.784C76.9307 231.104 77.5067 231.264 78.1147 231.264C78.7387 231.264 79.3227 231.112 79.8667 230.808C80.4107 230.488 80.8427 230.04 81.1627 229.464C81.4827 228.872 81.6427 228.168 81.6427 227.352ZM100.668 227.064C100.668 227.544 100.636 227.976 100.572 228.36H90.8523C90.9323 229.32 91.2683 230.072 91.8603 230.616C92.4523 231.16 93.1803 231.432 94.0443 231.432C95.2923 231.432 96.1803 230.896 96.7083 229.824H100.332C99.9483 231.104 99.2123 232.16 98.1243 232.992C97.0363 233.808 95.7003 234.216 94.1163 234.216C92.8363 234.216 91.6843 233.936 90.6603 233.376C89.6523 232.8 88.8603 231.992 88.2843 230.952C87.7243 229.912 87.4443 228.712 87.4443 227.352C87.4443 225.976 87.7243 224.768 88.2843 223.728C88.8443 222.688 89.6283 221.888 90.6363 221.328C91.6443 220.768 92.8043 220.488 94.1163 220.488C95.3803 220.488 96.5083 220.76 97.5003 221.304C98.5083 221.848 99.2843 222.624 99.8283 223.632C100.388 224.624 100.668 225.768 100.668 227.064ZM97.1883 226.104C97.1723 225.24 96.8603 224.552 96.2523 224.04C95.6443 223.512 94.9003 223.248 94.0203 223.248C93.1883 223.248 92.4843 223.504 91.9083 224.016C91.3483 224.512 91.0043 225.208 90.8763 226.104H97.1883ZM119.633 220.512C121.265 220.512 122.577 221.016 123.569 222.024C124.577 223.016 125.081 224.408 125.081 226.2V234H121.721V226.656C121.721 225.616 121.457 224.824 120.929 224.28C120.401 223.72 119.681 223.44 118.769 223.44C117.857 223.44 117.129 223.72 116.585 224.28C116.057 224.824 115.793 225.616 115.793 226.656V234H112.433V226.656C112.433 225.616 112.169 224.824 111.641 224.28C111.113 223.72 110.393 223.44 109.481 223.44C108.553 223.44 107.817 223.72 107.273 224.28C106.745 224.824 106.481 225.616 106.481 226.656V234H103.121V220.704H106.481V222.312C106.913 221.752 107.465 221.312 108.137 220.992C108.825 220.672 109.577 220.512 110.393 220.512C111.433 220.512 112.361 220.736 113.177 221.184C113.993 221.616 114.625 222.24 115.073 223.056C115.505 222.288 116.129 221.672 116.945 221.208C117.777 220.744 118.673 220.512 119.633 220.512ZM140.629 227.064C140.629 227.544 140.597 227.976 140.533 228.36H130.813C130.893 229.32 131.229 230.072 131.821 230.616C132.413 231.16 133.141 231.432 134.005 231.432C135.253 231.432 136.141 230.896 136.669 229.824H140.293C139.909 231.104 139.173 232.16 138.085 232.992C136.997 233.808 135.661 234.216 134.077 234.216C132.797 234.216 131.645 233.936 130.621 233.376C129.613 232.8 128.821 231.992 128.245 230.952C127.685 229.912 127.405 228.712 127.405 227.352C127.405 225.976 127.685 224.768 128.245 223.728C128.805 222.688 129.589 221.888 130.597 221.328C131.605 220.768 132.765 220.488 134.077 220.488C135.341 220.488 136.469 220.76 137.461 221.304C138.469 221.848 139.245 222.624 139.789 223.632C140.349 224.624 140.629 225.768 140.629 227.064ZM137.149 226.104C137.133 225.24 136.821 224.552 136.213 224.04C135.605 223.512 134.861 223.248 133.981 223.248C133.149 223.248 132.445 223.504 131.869 224.016C131.309 224.512 130.965 225.208 130.837 226.104H137.149ZM150.45 220.512C152.034 220.512 153.314 221.016 154.29 222.024C155.266 223.016 155.754 224.408 155.754 226.2V234H152.394V226.656C152.394 225.6 152.13 224.792 151.602 224.232C151.074 223.656 150.354 223.368 149.442 223.368C148.514 223.368 147.778 223.656 147.234 224.232C146.706 224.792 146.442 225.6 146.442 226.656V234H143.082V220.704H146.442V222.36C146.89 221.784 147.458 221.336 148.146 221.016C148.85 220.68 149.618 220.512 150.45 220.512ZM162.861 223.464V229.896C162.861 230.344 162.965 230.672 163.173 230.88C163.397 231.072 163.765 231.168 164.277 231.168H165.837V234H163.725C160.893 234 159.477 232.624 159.477 229.872V223.464H157.893V220.704H159.477V217.416H162.861V220.704H165.837V223.464H162.861Z" fill="white" fill-opacity="0.5"/>
</svg>
