<svg width="150" height="238" viewBox="0 0 150 238" fill="none" xmlns="http://www.w3.org/2000/svg">
<path d="M129.869 27.2417C125.128 27.2449 120.534 28.8809 116.87 31.8715C113.206 34.8621 110.697 39.0226 109.77 43.6449C108.843 48.2673 109.556 53.0661 111.787 57.2249C114.018 61.3836 117.63 64.6454 122.007 66.4553C120.967 68.9355 119.21 71.0533 116.959 72.5412C114.708 74.029 112.064 74.8202 109.361 74.8146H82.0164C77.1973 74.8347 72.4732 76.1497 68.3443 78.6204V39.6107C72.9054 38.0075 76.7496 34.8529 79.1974 30.7045C81.6453 26.5561 82.5391 21.6809 81.7211 16.9406C80.903 12.2004 78.4256 7.90024 74.7268 4.80025C71.0281 1.70025 66.346 0 61.5082 0C56.6704 0 51.9884 1.70025 48.2896 4.80025C44.5908 7.90024 42.1135 12.2004 41.2954 16.9406C40.4773 21.6809 41.3712 26.5561 43.819 30.7045C46.2669 34.8529 50.111 38.0075 54.6722 39.6107V96.4262C50.1671 98.0369 46.3709 101.164 43.9413 105.265C41.5117 109.366 40.6019 114.183 41.3695 118.881C42.1372 123.579 44.5339 127.862 48.1444 130.987C51.7549 134.113 56.3515 135.884 61.1377 135.995C65.924 136.105 70.5981 134.547 74.3502 131.59C78.1023 128.634 80.6958 124.466 81.6813 119.809C82.6668 115.151 81.9822 110.297 79.7461 106.089C77.51 101.88 73.8633 98.5822 69.438 96.766C70.4742 94.2965 72.2206 92.186 74.4581 90.699C76.6957 89.212 79.3249 88.4146 82.0164 88.4068H109.361C115.614 88.4056 121.679 86.2732 126.543 82.3652C131.407 78.4572 134.776 73.0097 136.09 66.9311C140.66 65.3872 144.536 62.2901 147.036 58.1848C149.536 54.0795 150.499 49.2292 149.755 44.4876C149.012 39.7459 146.61 35.4169 142.973 32.2623C139.335 29.1078 134.695 27.33 129.869 27.2417ZM61.5082 13.6495C62.8603 13.6495 64.1819 14.0481 65.3061 14.7949C66.4303 15.5416 67.3065 16.603 67.8239 17.8449C68.3413 19.0867 68.4767 20.4532 68.2129 21.7715C67.9492 23.0898 67.2981 24.3008 66.342 25.2512C65.386 26.2017 64.1679 26.8489 62.8419 27.1112C61.5158 27.3734 60.1413 27.2388 58.8922 26.7244C57.643 26.21 56.5754 25.339 55.8242 24.2213C55.0731 23.1037 54.6722 21.7898 54.6722 20.4456C54.6722 18.6432 55.3924 16.9146 56.6744 15.64C57.9564 14.3655 59.6952 13.6495 61.5082 13.6495ZM61.5082 122.387C60.1562 122.387 58.8345 121.989 57.7103 121.242C56.5861 120.495 55.7099 119.434 55.1925 118.192C54.6751 116.95 54.5397 115.584 54.8035 114.265C55.0673 112.947 55.7184 111.736 56.6744 110.786C57.6304 109.835 58.8485 109.188 60.1746 108.926C61.5006 108.664 62.8751 108.798 64.1243 109.312C65.3734 109.827 66.441 110.698 67.1922 111.816C67.9433 112.933 68.3443 114.247 68.3443 115.591C68.3443 117.394 67.6241 119.122 66.342 120.397C65.06 121.671 63.3213 122.387 61.5082 122.387ZM129.869 54.4262C128.517 54.4262 127.195 54.0276 126.071 53.2809C124.947 52.5341 124.071 51.4727 123.553 50.2309C123.036 48.989 122.9 47.6226 123.164 46.3042C123.428 44.9859 124.079 43.775 125.035 42.8245C125.991 41.8741 127.209 41.2268 128.535 40.9646C129.861 40.7023 131.236 40.8369 132.485 41.3513C133.734 41.8657 134.802 42.7368 135.553 43.8544C136.304 44.972 136.705 46.286 136.705 47.6301C136.705 49.4325 135.985 51.1612 134.703 52.4357C133.421 53.7102 131.682 54.4262 129.869 54.4262Z" fill="white" fill-opacity="0.5"/>
<path d="M16.5951 175.248V177.96H12.1311V192H8.77106V177.96H4.30706V175.248H16.5951ZM31.4066 185.064C31.4066 185.544 31.3746 185.976 31.3106 186.36H21.5906C21.6706 187.32 22.0066 188.072 22.5986 188.616C23.1906 189.16 23.9186 189.432 24.7826 189.432C26.0306 189.432 26.9186 188.896 27.4466 187.824H31.0706C30.6866 189.104 29.9506 190.16 28.8626 190.992C27.7746 191.808 26.4386 192.216 24.8546 192.216C23.5746 192.216 22.4226 191.936 21.3986 191.376C20.3906 190.8 19.5986 189.992 19.0226 188.952C18.4626 187.912 18.1826 186.712 18.1826 185.352C18.1826 183.976 18.4626 182.768 19.0226 181.728C19.5826 180.688 20.3666 179.888 21.3746 179.328C22.3826 178.768 23.5426 178.488 24.8546 178.488C26.1186 178.488 27.2466 178.76 28.2386 179.304C29.2466 179.848 30.0226 180.624 30.5666 181.632C31.1266 182.624 31.4066 183.768 31.4066 185.064ZM27.9266 184.104C27.9106 183.24 27.5986 182.552 26.9906 182.04C26.3826 181.512 25.6386 181.248 24.7586 181.248C23.9266 181.248 23.2226 181.504 22.6466 182.016C22.0866 182.512 21.7426 183.208 21.6146 184.104H27.9266ZM32.9951 185.352C32.9951 183.976 33.2751 182.776 33.8351 181.752C34.3951 180.712 35.1711 179.912 36.1631 179.352C37.1551 178.776 38.2911 178.488 39.5711 178.488C41.2191 178.488 42.5791 178.904 43.6511 179.736C44.7391 180.552 45.4671 181.704 45.8351 183.192H42.2111C42.0191 182.616 41.6911 182.168 41.2271 181.848C40.7791 181.512 40.2191 181.344 39.5471 181.344C38.5871 181.344 37.8271 181.696 37.2671 182.4C36.7071 183.088 36.4271 184.072 36.4271 185.352C36.4271 186.616 36.7071 187.6 37.2671 188.304C37.8271 188.992 38.5871 189.336 39.5471 189.336C40.9071 189.336 41.7951 188.728 42.2111 187.512H45.8351C45.4671 188.952 44.7391 190.096 43.6511 190.944C42.5631 191.792 41.2031 192.216 39.5711 192.216C38.2911 192.216 37.1551 191.936 36.1631 191.376C35.1711 190.8 34.3951 190 33.8351 188.976C33.2751 187.936 32.9951 186.728 32.9951 185.352ZM55.7846 178.512C56.7926 178.512 57.6886 178.736 58.4726 179.184C59.2566 179.616 59.8646 180.264 60.2966 181.128C60.7446 181.976 60.9686 183 60.9686 184.2V192H57.6086V184.656C57.6086 183.6 57.3446 182.792 56.8166 182.232C56.2886 181.656 55.5686 181.368 54.6566 181.368C53.7286 181.368 52.9926 181.656 52.4486 182.232C51.9206 182.792 51.6566 183.6 51.6566 184.656V192H48.2966V174.24H51.6566V180.36C52.0886 179.784 52.6646 179.336 53.3846 179.016C54.1046 178.68 54.9046 178.512 55.7846 178.512ZM71.5318 178.512C73.1158 178.512 74.3958 179.016 75.3718 180.024C76.3478 181.016 76.8358 182.408 76.8358 184.2V192H73.4758V184.656C73.4758 183.6 73.2118 182.792 72.6838 182.232C72.1558 181.656 71.4358 181.368 70.5238 181.368C69.5958 181.368 68.8598 181.656 68.3158 182.232C67.7878 182.792 67.5238 183.6 67.5238 184.656V192H64.1638V178.704H67.5238V180.36C67.9718 179.784 68.5398 179.336 69.2278 179.016C69.9318 178.68 70.6998 178.512 71.5318 178.512ZM85.935 192.216C84.655 192.216 83.503 191.936 82.479 191.376C81.455 190.8 80.647 189.992 80.055 188.952C79.479 187.912 79.191 186.712 79.191 185.352C79.191 183.992 79.487 182.792 80.079 181.752C80.687 180.712 81.511 179.912 82.551 179.352C83.591 178.776 84.751 178.488 86.031 178.488C87.311 178.488 88.471 178.776 89.511 179.352C90.551 179.912 91.367 180.712 91.959 181.752C92.567 182.792 92.871 183.992 92.871 185.352C92.871 186.712 92.559 187.912 91.935 188.952C91.327 189.992 90.495 190.8 89.439 191.376C88.399 191.936 87.231 192.216 85.935 192.216ZM85.935 189.288C86.543 189.288 87.111 189.144 87.639 188.856C88.183 188.552 88.615 188.104 88.935 187.512C89.255 186.92 89.415 186.2 89.415 185.352C89.415 184.088 89.079 183.12 88.407 182.448C87.751 181.76 86.943 181.416 85.983 181.416C85.023 181.416 84.215 181.76 83.559 182.448C82.919 183.12 82.599 184.088 82.599 185.352C82.599 186.616 82.911 187.592 83.535 188.28C84.175 188.952 84.975 189.288 85.935 189.288ZM98.6957 174.24V192H95.3357V174.24H98.6957ZM107.919 192.216C106.639 192.216 105.487 191.936 104.463 191.376C103.439 190.8 102.631 189.992 102.039 188.952C101.463 187.912 101.175 186.712 101.175 185.352C101.175 183.992 101.471 182.792 102.063 181.752C102.671 180.712 103.495 179.912 104.535 179.352C105.575 178.776 106.735 178.488 108.015 178.488C109.295 178.488 110.455 178.776 111.495 179.352C112.535 179.912 113.351 180.712 113.943 181.752C114.551 182.792 114.855 183.992 114.855 185.352C114.855 186.712 114.543 187.912 113.919 188.952C113.311 189.992 112.479 190.8 111.423 191.376C110.383 191.936 109.215 192.216 107.919 192.216ZM107.919 189.288C108.527 189.288 109.095 189.144 109.623 188.856C110.167 188.552 110.599 188.104 110.919 187.512C111.239 186.92 111.399 186.2 111.399 185.352C111.399 184.088 111.063 183.12 110.391 182.448C109.735 181.76 108.927 181.416 107.967 181.416C107.007 181.416 106.199 181.76 105.543 182.448C104.903 183.12 104.583 184.088 104.583 185.352C104.583 186.616 104.895 187.592 105.519 188.28C106.159 188.952 106.959 189.288 107.919 189.288ZM122.528 178.488C123.52 178.488 124.392 178.688 125.144 179.088C125.896 179.472 126.488 179.976 126.92 180.6V178.704H130.304V192.096C130.304 193.328 130.056 194.424 129.56 195.384C129.064 196.36 128.32 197.128 127.328 197.688C126.336 198.264 125.136 198.552 123.728 198.552C121.84 198.552 120.288 198.112 119.072 197.232C117.872 196.352 117.192 195.152 117.032 193.632H120.368C120.544 194.24 120.92 194.72 121.496 195.072C122.088 195.44 122.8 195.624 123.632 195.624C124.608 195.624 125.4 195.328 126.008 194.736C126.616 194.16 126.92 193.28 126.92 192.096V190.032C126.488 190.656 125.888 191.176 125.12 191.592C124.368 192.008 123.504 192.216 122.528 192.216C121.408 192.216 120.384 191.928 119.456 191.352C118.528 190.776 117.792 189.968 117.248 188.928C116.72 187.872 116.456 186.664 116.456 185.304C116.456 183.96 116.72 182.768 117.248 181.728C117.792 180.688 118.52 179.888 119.432 179.328C120.36 178.768 121.392 178.488 122.528 178.488ZM126.92 185.352C126.92 184.536 126.76 183.84 126.44 183.264C126.12 182.672 125.688 182.224 125.144 181.92C124.6 181.6 124.016 181.44 123.392 181.44C122.768 181.44 122.192 181.592 121.664 181.896C121.136 182.2 120.704 182.648 120.368 183.24C120.048 183.816 119.888 184.504 119.888 185.304C119.888 186.104 120.048 186.808 120.368 187.416C120.704 188.008 121.136 188.464 121.664 188.784C122.208 189.104 122.784 189.264 123.392 189.264C124.016 189.264 124.6 189.112 125.144 188.808C125.688 188.488 126.12 188.04 126.44 187.464C126.76 186.872 126.92 186.168 126.92 185.352ZM146.306 178.704L138.074 198.288H134.498L137.378 191.664L132.05 178.704H135.818L139.25 187.992L142.73 178.704H146.306ZM12.2093 224.808H5.53725L4.43325 228H0.90525L6.92925 211.224H10.8413L16.8653 228H13.3133L12.2093 224.808ZM11.2973 222.12L8.87325 215.112L6.44925 222.12H11.2973ZM24.2049 228.216C23.1169 228.216 22.1409 228.024 21.2769 227.64C20.4129 227.24 19.7249 226.704 19.2129 226.032C18.7169 225.36 18.4449 224.616 18.3969 223.8H21.7809C21.8449 224.312 22.0929 224.736 22.5249 225.072C22.9729 225.408 23.5249 225.576 24.1809 225.576C24.8209 225.576 25.3169 225.448 25.6689 225.192C26.0369 224.936 26.2209 224.608 26.2209 224.208C26.2209 223.776 25.9969 223.456 25.5489 223.248C25.1169 223.024 24.4209 222.784 23.4609 222.528C22.4689 222.288 21.6529 222.04 21.0129 221.784C20.3889 221.528 19.8449 221.136 19.3809 220.608C18.9329 220.08 18.7089 219.368 18.7089 218.472C18.7089 217.736 18.9169 217.064 19.3329 216.456C19.7649 215.848 20.3729 215.368 21.1569 215.016C21.9569 214.664 22.8929 214.488 23.9649 214.488C25.5489 214.488 26.8129 214.888 27.7569 215.688C28.7009 216.472 29.2209 217.536 29.3169 218.88H26.1009C26.0529 218.352 25.8289 217.936 25.4289 217.632C25.0449 217.312 24.5249 217.152 23.8689 217.152C23.2609 217.152 22.7889 217.264 22.4529 217.488C22.1329 217.712 21.9729 218.024 21.9729 218.424C21.9729 218.872 22.1969 219.216 22.6449 219.456C23.0929 219.68 23.7889 219.912 24.7329 220.152C25.6929 220.392 26.4849 220.64 27.1089 220.896C27.7329 221.152 28.2689 221.552 28.7169 222.096C29.1809 222.624 29.4209 223.328 29.4369 224.208C29.4369 224.976 29.2209 225.664 28.7889 226.272C28.3729 226.88 27.7649 227.36 26.9649 227.712C26.1809 228.048 25.2609 228.216 24.2049 228.216ZM37.2831 228.216C36.1951 228.216 35.2191 228.024 34.3551 227.64C33.4911 227.24 32.8031 226.704 32.2911 226.032C31.7951 225.36 31.5231 224.616 31.4751 223.8H34.8591C34.9231 224.312 35.1711 224.736 35.6031 225.072C36.0511 225.408 36.6031 225.576 37.2591 225.576C37.8991 225.576 38.3951 225.448 38.7471 225.192C39.1151 224.936 39.2991 224.608 39.2991 224.208C39.2991 223.776 39.0751 223.456 38.6271 223.248C38.1951 223.024 37.4991 222.784 36.5391 222.528C35.5471 222.288 34.7311 222.04 34.0911 221.784C33.4671 221.528 32.9231 221.136 32.4591 220.608C32.0111 220.08 31.7871 219.368 31.7871 218.472C31.7871 217.736 31.9951 217.064 32.4111 216.456C32.8431 215.848 33.4511 215.368 34.2351 215.016C35.0351 214.664 35.9711 214.488 37.0431 214.488C38.6271 214.488 39.8911 214.888 40.8351 215.688C41.7791 216.472 42.2991 217.536 42.3951 218.88H39.1791C39.1311 218.352 38.9071 217.936 38.5071 217.632C38.1231 217.312 37.6031 217.152 36.9471 217.152C36.3391 217.152 35.8671 217.264 35.5311 217.488C35.2111 217.712 35.0511 218.024 35.0511 218.424C35.0511 218.872 35.2751 219.216 35.7231 219.456C36.1711 219.68 36.8671 219.912 37.8111 220.152C38.7711 220.392 39.5631 220.64 40.1871 220.896C40.8111 221.152 41.3471 221.552 41.7951 222.096C42.2591 222.624 42.4991 223.328 42.5151 224.208C42.5151 224.976 42.2991 225.664 41.8671 226.272C41.4511 226.88 40.8431 227.36 40.0431 227.712C39.2591 228.048 38.3391 228.216 37.2831 228.216ZM57.6332 221.064C57.6332 221.544 57.6012 221.976 57.5372 222.36H47.8172C47.8972 223.32 48.2332 224.072 48.8252 224.616C49.4172 225.16 50.1452 225.432 51.0092 225.432C52.2572 225.432 53.1452 224.896 53.6732 223.824H57.2972C56.9132 225.104 56.1772 226.16 55.0892 226.992C54.0012 227.808 52.6652 228.216 51.0812 228.216C49.8012 228.216 48.6492 227.936 47.6252 227.376C46.6172 226.8 45.8252 225.992 45.2492 224.952C44.6892 223.912 44.4092 222.712 44.4092 221.352C44.4092 219.976 44.6892 218.768 45.2492 217.728C45.8092 216.688 46.5932 215.888 47.6012 215.328C48.6092 214.768 49.7692 214.488 51.0812 214.488C52.3452 214.488 53.4732 214.76 54.4652 215.304C55.4732 215.848 56.2492 216.624 56.7932 217.632C57.3532 218.624 57.6332 219.768 57.6332 221.064ZM54.1532 220.104C54.1372 219.24 53.8252 218.552 53.2172 218.04C52.6092 217.512 51.8652 217.248 50.9852 217.248C50.1532 217.248 49.4492 217.504 48.8732 218.016C48.3132 218.512 47.9692 219.208 47.8412 220.104H54.1532ZM65.1737 228.216C64.0857 228.216 63.1097 228.024 62.2457 227.64C61.3817 227.24 60.6937 226.704 60.1817 226.032C59.6857 225.36 59.4137 224.616 59.3657 223.8H62.7497C62.8137 224.312 63.0617 224.736 63.4937 225.072C63.9417 225.408 64.4937 225.576 65.1497 225.576C65.7897 225.576 66.2857 225.448 66.6377 225.192C67.0057 224.936 67.1897 224.608 67.1897 224.208C67.1897 223.776 66.9657 223.456 66.5177 223.248C66.0857 223.024 65.3897 222.784 64.4297 222.528C63.4377 222.288 62.6217 222.04 61.9817 221.784C61.3577 221.528 60.8137 221.136 60.3497 220.608C59.9017 220.08 59.6777 219.368 59.6777 218.472C59.6777 217.736 59.8857 217.064 60.3017 216.456C60.7337 215.848 61.3417 215.368 62.1257 215.016C62.9257 214.664 63.8617 214.488 64.9337 214.488C66.5177 214.488 67.7817 214.888 68.7257 215.688C69.6697 216.472 70.1897 217.536 70.2857 218.88H67.0697C67.0217 218.352 66.7977 217.936 66.3977 217.632C66.0137 217.312 65.4937 217.152 64.8377 217.152C64.2297 217.152 63.7577 217.264 63.4217 217.488C63.1017 217.712 62.9417 218.024 62.9417 218.424C62.9417 218.872 63.1657 219.216 63.6137 219.456C64.0617 219.68 64.7577 219.912 65.7017 220.152C66.6617 220.392 67.4537 220.64 68.0777 220.896C68.7017 221.152 69.2377 221.552 69.6857 222.096C70.1497 222.624 70.3897 223.328 70.4057 224.208C70.4057 224.976 70.1897 225.664 69.7577 226.272C69.3417 226.88 68.7337 227.36 67.9337 227.712C67.1497 228.048 66.2297 228.216 65.1737 228.216ZM78.2518 228.216C77.1638 228.216 76.1878 228.024 75.3238 227.64C74.4598 227.24 73.7718 226.704 73.2598 226.032C72.7638 225.36 72.4918 224.616 72.4438 223.8H75.8278C75.8918 224.312 76.1398 224.736 76.5718 225.072C77.0198 225.408 77.5718 225.576 78.2278 225.576C78.8678 225.576 79.3638 225.448 79.7158 225.192C80.0838 224.936 80.2678 224.608 80.2678 224.208C80.2678 223.776 80.0438 223.456 79.5958 223.248C79.1638 223.024 78.4678 222.784 77.5078 222.528C76.5158 222.288 75.6998 222.04 75.0598 221.784C74.4358 221.528 73.8918 221.136 73.4278 220.608C72.9798 220.08 72.7558 219.368 72.7558 218.472C72.7558 217.736 72.9638 217.064 73.3798 216.456C73.8118 215.848 74.4198 215.368 75.2038 215.016C76.0038 214.664 76.9398 214.488 78.0118 214.488C79.5958 214.488 80.8598 214.888 81.8038 215.688C82.7478 216.472 83.2678 217.536 83.3638 218.88H80.1478C80.0998 218.352 79.8758 217.936 79.4758 217.632C79.0918 217.312 78.5718 217.152 77.9158 217.152C77.3078 217.152 76.8358 217.264 76.4998 217.488C76.1798 217.712 76.0198 218.024 76.0198 218.424C76.0198 218.872 76.2438 219.216 76.6918 219.456C77.1398 219.68 77.8358 219.912 78.7798 220.152C79.7398 220.392 80.5318 220.64 81.1558 220.896C81.7798 221.152 82.3158 221.552 82.7638 222.096C83.2278 222.624 83.4678 223.328 83.4838 224.208C83.4838 224.976 83.2678 225.664 82.8358 226.272C82.4198 226.88 81.8118 227.36 81.0118 227.712C80.2278 228.048 79.3078 228.216 78.2518 228.216ZM102.754 214.512C104.386 214.512 105.698 215.016 106.69 216.024C107.698 217.016 108.202 218.408 108.202 220.2V228H104.842V220.656C104.842 219.616 104.578 218.824 104.05 218.28C103.522 217.72 102.802 217.44 101.89 217.44C100.978 217.44 100.25 217.72 99.7059 218.28C99.1779 218.824 98.9139 219.616 98.9139 220.656V228H95.5539V220.656C95.5539 219.616 95.2899 218.824 94.7619 218.28C94.2339 217.72 93.5139 217.44 92.6019 217.44C91.6739 217.44 90.9379 217.72 90.3939 218.28C89.8659 218.824 89.6019 219.616 89.6019 220.656V228H86.2419V214.704H89.6019V216.312C90.0339 215.752 90.5859 215.312 91.2579 214.992C91.9459 214.672 92.6979 214.512 93.5139 214.512C94.5539 214.512 95.4819 214.736 96.2979 215.184C97.1139 215.616 97.7459 216.24 98.1939 217.056C98.6259 216.288 99.2499 215.672 100.066 215.208C100.898 214.744 101.794 214.512 102.754 214.512ZM123.75 221.064C123.75 221.544 123.718 221.976 123.654 222.36H113.934C114.014 223.32 114.35 224.072 114.942 224.616C115.534 225.16 116.262 225.432 117.126 225.432C118.374 225.432 119.262 224.896 119.79 223.824H123.414C123.03 225.104 122.294 226.16 121.206 226.992C120.118 227.808 118.782 228.216 117.198 228.216C115.918 228.216 114.766 227.936 113.742 227.376C112.734 226.8 111.942 225.992 111.366 224.952C110.806 223.912 110.526 222.712 110.526 221.352C110.526 219.976 110.806 218.768 111.366 217.728C111.926 216.688 112.71 215.888 113.718 215.328C114.726 214.768 115.886 214.488 117.198 214.488C118.462 214.488 119.59 214.76 120.582 215.304C121.59 215.848 122.366 216.624 122.91 217.632C123.47 218.624 123.75 219.768 123.75 221.064ZM120.27 220.104C120.254 219.24 119.942 218.552 119.334 218.04C118.726 217.512 117.982 217.248 117.102 217.248C116.27 217.248 115.566 217.504 114.99 218.016C114.43 218.512 114.086 219.208 113.958 220.104H120.27ZM133.571 214.512C135.155 214.512 136.435 215.016 137.411 216.024C138.387 217.016 138.875 218.408 138.875 220.2V228H135.515V220.656C135.515 219.6 135.251 218.792 134.723 218.232C134.195 217.656 133.475 217.368 132.563 217.368C131.635 217.368 130.899 217.656 130.355 218.232C129.827 218.792 129.563 219.6 129.563 220.656V228H126.203V214.704H129.563V216.36C130.011 215.784 130.579 215.336 131.267 215.016C131.971 214.68 132.739 214.512 133.571 214.512ZM145.982 217.464V223.896C145.982 224.344 146.086 224.672 146.294 224.88C146.518 225.072 146.886 225.168 147.398 225.168H148.958V228H146.846C144.014 228 142.598 226.624 142.598 223.872V217.464H141.014V214.704H142.598V211.416H145.982V214.704H148.958V217.464H145.982Z" fill="white" fill-opacity="0.5"/>
</svg>
