<svg width="140" height="175" viewBox="0 0 220 255" fill="none" xmlns="http://www.w3.org/2000/svg">
<path d="M110.5 14.1666C92.4476 14.2184 75.1047 21.2423 62.053 33.7875V21.25C62.053 19.3713 61.3111 17.5697 59.9906 16.2413C58.67 14.9129 56.8789 14.1666 55.0113 14.1666C53.1438 14.1666 51.3527 14.9129 50.0321 16.2413C48.7116 17.5697 47.9697 19.3713 47.9697 21.25V53.125C47.9697 55.0036 48.7116 56.8052 50.0321 58.1336C51.3527 59.462 53.1438 60.2083 55.0113 60.2083H86.6988C88.5664 60.2083 90.3575 59.462 91.678 58.1336C92.9986 56.8052 93.7405 55.0036 93.7405 53.125C93.7405 51.2463 92.9986 49.4447 91.678 48.1163C90.3575 46.7879 88.5664 46.0416 86.6988 46.0416H69.7988C78.8529 36.5242 90.9204 30.4771 103.927 28.9401C116.933 27.4031 130.065 30.4723 141.065 37.6199C152.065 44.7674 160.246 55.5468 164.202 68.1047C168.157 80.6626 167.639 94.2143 162.738 106.43C157.836 118.645 148.857 128.761 137.344 135.039C125.83 141.316 112.503 143.362 99.6524 140.826C86.8018 138.29 75.2312 131.329 66.93 121.141C58.6288 110.952 54.1155 98.1729 54.1663 85C54.1663 83.1213 53.4245 81.3197 52.1039 79.9913C50.7833 78.6629 48.9922 77.9166 47.1247 77.9166C45.2571 77.9166 43.466 78.6629 42.1455 79.9913C40.8249 81.3197 40.083 83.1213 40.083 85C40.083 99.0095 44.2129 112.704 51.9504 124.353C59.6878 136.001 70.6854 145.08 83.5524 150.441C96.4193 155.803 110.578 157.205 124.237 154.472C137.897 151.739 150.444 144.993 160.292 135.087C170.14 125.18 176.846 112.559 179.563 98.8189C182.28 85.0785 180.886 70.8363 175.556 57.8932C170.227 44.9501 161.201 33.8875 149.621 26.1042C138.041 18.3209 124.427 14.1666 110.5 14.1666ZM110.5 56.6666C108.632 56.6666 106.841 57.4129 105.52 58.7413C104.2 60.0697 103.458 61.8713 103.458 63.75V85C103.458 86.8786 104.2 88.6802 105.52 90.0086C106.841 91.337 108.632 92.0833 110.5 92.0833H124.583C126.451 92.0833 128.242 91.337 129.562 90.0086C130.883 88.6802 131.625 86.8786 131.625 85C131.625 83.1213 130.883 81.3197 129.562 79.9913C128.242 78.6629 126.451 77.9166 124.583 77.9166H117.541V63.75C117.541 61.8713 116.799 60.0697 115.479 58.7413C114.158 57.4129 112.367 56.6666 110.5 56.6666Z" fill="#464646"/>
<path d="M19.0377 209.168C17.8697 209.168 16.8137 208.968 15.8697 208.568C14.9417 208.168 14.2057 207.592 13.6617 206.84C13.1177 206.088 12.8377 205.2 12.8217 204.176H16.4217C16.4697 204.864 16.7097 205.408 17.1417 205.808C17.5897 206.208 18.1977 206.408 18.9657 206.408C19.7497 206.408 20.3657 206.224 20.8137 205.856C21.2617 205.472 21.4857 204.976 21.4857 204.368C21.4857 203.872 21.3337 203.464 21.0297 203.144C20.7257 202.824 20.3417 202.576 19.8777 202.4C19.4297 202.208 18.8057 202 18.0057 201.776C16.9177 201.456 16.0297 201.144 15.3417 200.84C14.6697 200.52 14.0857 200.048 13.5897 199.424C13.1097 198.784 12.8697 197.936 12.8697 196.88C12.8697 195.888 13.1177 195.024 13.6137 194.288C14.1097 193.552 14.8057 192.992 15.7017 192.608C16.5977 192.208 17.6217 192.008 18.7737 192.008C20.5017 192.008 21.9017 192.432 22.9737 193.28C24.0617 194.112 24.6617 195.28 24.7737 196.784H21.0777C21.0457 196.208 20.7977 195.736 20.3337 195.368C19.8857 194.984 19.2857 194.792 18.5337 194.792C17.8777 194.792 17.3497 194.96 16.9497 195.296C16.5657 195.632 16.3737 196.12 16.3737 196.76C16.3737 197.208 16.5177 197.584 16.8057 197.888C17.1097 198.176 17.4777 198.416 17.9097 198.608C18.3577 198.784 18.9817 198.992 19.7817 199.232C20.8697 199.552 21.7577 199.872 22.4457 200.192C23.1337 200.512 23.7257 200.992 24.2217 201.632C24.7177 202.272 24.9657 203.112 24.9657 204.152C24.9657 205.048 24.7337 205.88 24.2697 206.648C23.8057 207.416 23.1257 208.032 22.2297 208.496C21.3337 208.944 20.2697 209.168 19.0377 209.168ZM31.7907 198.464V204.896C31.7907 205.344 31.8947 205.672 32.1027 205.88C32.3267 206.072 32.6947 206.168 33.2067 206.168H34.7667V209H32.6547C29.8227 209 28.4067 207.624 28.4067 204.872V198.464H26.8227V195.704H28.4067V192.416H31.7907V195.704H34.7667V198.464H31.7907ZM40.5433 197.768C40.9753 197.064 41.5353 196.512 42.2233 196.112C42.9273 195.712 43.7273 195.512 44.6233 195.512V199.04H43.7353C42.6793 199.04 41.8793 199.288 41.3353 199.784C40.8073 200.28 40.5433 201.144 40.5433 202.376V209H37.1833V195.704H40.5433V197.768ZM52.7905 209.216C51.5105 209.216 50.3585 208.936 49.3345 208.376C48.3105 207.8 47.5025 206.992 46.9105 205.952C46.3345 204.912 46.0465 203.712 46.0465 202.352C46.0465 200.992 46.3425 199.792 46.9345 198.752C47.5425 197.712 48.3665 196.912 49.4065 196.352C50.4465 195.776 51.6065 195.488 52.8865 195.488C54.1665 195.488 55.3265 195.776 56.3665 196.352C57.4065 196.912 58.2225 197.712 58.8145 198.752C59.4225 199.792 59.7265 200.992 59.7265 202.352C59.7265 203.712 59.4145 204.912 58.7905 205.952C58.1825 206.992 57.3505 207.8 56.2945 208.376C55.2545 208.936 54.0865 209.216 52.7905 209.216ZM52.7905 206.288C53.3985 206.288 53.9665 206.144 54.4945 205.856C55.0385 205.552 55.4705 205.104 55.7905 204.512C56.1105 203.92 56.2705 203.2 56.2705 202.352C56.2705 201.088 55.9345 200.12 55.2625 199.448C54.6065 198.76 53.7985 198.416 52.8385 198.416C51.8785 198.416 51.0705 198.76 50.4145 199.448C49.7745 200.12 49.4545 201.088 49.4545 202.352C49.4545 203.616 49.7665 204.592 50.3905 205.28C51.0305 205.952 51.8305 206.288 52.7905 206.288ZM69.5592 195.512C71.1432 195.512 72.4232 196.016 73.3992 197.024C74.3752 198.016 74.8632 199.408 74.8632 201.2V209H71.5032V201.656C71.5032 200.6 71.2392 199.792 70.7112 199.232C70.1832 198.656 69.4632 198.368 68.5512 198.368C67.6232 198.368 66.8872 198.656 66.3432 199.232C65.8152 199.792 65.5512 200.6 65.5512 201.656V209H62.1912V195.704H65.5512V197.36C65.9992 196.784 66.5672 196.336 67.2552 196.016C67.9592 195.68 68.7272 195.512 69.5592 195.512ZM83.2663 195.488C84.2583 195.488 85.1303 195.688 85.8823 196.088C86.6343 196.472 87.2263 196.976 87.6583 197.6V195.704H91.0423V209.096C91.0423 210.328 90.7943 211.424 90.2983 212.384C89.8023 213.36 89.0583 214.128 88.0663 214.688C87.0743 215.264 85.8743 215.552 84.4663 215.552C82.5783 215.552 81.0263 215.112 79.8103 214.232C78.6103 213.352 77.9303 212.152 77.7703 210.632H81.1063C81.2823 211.24 81.6583 211.72 82.2343 212.072C82.8263 212.44 83.5383 212.624 84.3703 212.624C85.3463 212.624 86.1383 212.328 86.7463 211.736C87.3543 211.16 87.6583 210.28 87.6583 209.096V207.032C87.2263 207.656 86.6263 208.176 85.8583 208.592C85.1063 209.008 84.2423 209.216 83.2663 209.216C82.1463 209.216 81.1223 208.928 80.1943 208.352C79.2663 207.776 78.5303 206.968 77.9863 205.928C77.4583 204.872 77.1943 203.664 77.1943 202.304C77.1943 200.96 77.4583 199.768 77.9863 198.728C78.5303 197.688 79.2583 196.888 80.1703 196.328C81.0983 195.768 82.1303 195.488 83.2663 195.488ZM87.6583 202.352C87.6583 201.536 87.4983 200.84 87.1783 200.264C86.8583 199.672 86.4263 199.224 85.8823 198.92C85.3383 198.6 84.7543 198.44 84.1303 198.44C83.5063 198.44 82.9303 198.592 82.4023 198.896C81.8743 199.2 81.4423 199.648 81.1063 200.24C80.7863 200.816 80.6263 201.504 80.6263 202.304C80.6263 203.104 80.7863 203.808 81.1063 204.416C81.4423 205.008 81.8743 205.464 82.4023 205.784C82.9463 206.104 83.5223 206.264 84.1303 206.264C84.7543 206.264 85.3383 206.112 85.8823 205.808C86.4263 205.488 86.8583 205.04 87.1783 204.464C87.4983 203.872 87.6583 203.168 87.6583 202.352ZM105.827 209.168C104.659 209.168 103.603 208.968 102.659 208.568C101.731 208.168 100.995 207.592 100.451 206.84C99.9067 206.088 99.6267 205.2 99.6107 204.176H103.211C103.259 204.864 103.499 205.408 103.931 205.808C104.379 206.208 104.987 206.408 105.755 206.408C106.539 206.408 107.155 206.224 107.603 205.856C108.051 205.472 108.275 204.976 108.275 204.368C108.275 203.872 108.123 203.464 107.819 203.144C107.515 202.824 107.131 202.576 106.667 202.4C106.219 202.208 105.595 202 104.795 201.776C103.707 201.456 102.819 201.144 102.131 200.84C101.459 200.52 100.875 200.048 100.379 199.424C99.8987 198.784 99.6587 197.936 99.6587 196.88C99.6587 195.888 99.9067 195.024 100.403 194.288C100.899 193.552 101.595 192.992 102.491 192.608C103.387 192.208 104.411 192.008 105.563 192.008C107.291 192.008 108.691 192.432 109.763 193.28C110.851 194.112 111.451 195.28 111.563 196.784H107.867C107.835 196.208 107.587 195.736 107.123 195.368C106.675 194.984 106.075 194.792 105.323 194.792C104.667 194.792 104.139 194.96 103.739 195.296C103.355 195.632 103.163 196.12 103.163 196.76C103.163 197.208 103.307 197.584 103.595 197.888C103.899 198.176 104.267 198.416 104.699 198.608C105.147 198.784 105.771 198.992 106.571 199.232C107.659 199.552 108.547 199.872 109.235 200.192C109.923 200.512 110.515 200.992 111.011 201.632C111.507 202.272 111.755 203.112 111.755 204.152C111.755 205.048 111.523 205.88 111.059 206.648C110.595 207.416 109.915 208.032 109.019 208.496C108.123 208.944 107.059 209.168 105.827 209.168ZM118.028 206.336H123.548V209H114.668V192.248H118.028V206.336ZM135.955 205.808H129.283L128.179 209H124.651L130.675 192.224H134.587L140.611 209H137.059L135.955 205.808ZM135.043 203.12L132.619 196.112L130.195 203.12H135.043ZM147.951 209.216C146.863 209.216 145.887 209.024 145.023 208.64C144.159 208.24 143.471 207.704 142.959 207.032C142.463 206.36 142.191 205.616 142.143 204.8H145.527C145.591 205.312 145.839 205.736 146.271 206.072C146.719 206.408 147.271 206.576 147.927 206.576C148.567 206.576 149.063 206.448 149.415 206.192C149.783 205.936 149.967 205.608 149.967 205.208C149.967 204.776 149.743 204.456 149.295 204.248C148.863 204.024 148.167 203.784 147.207 203.528C146.215 203.288 145.399 203.04 144.759 202.784C144.135 202.528 143.591 202.136 143.127 201.608C142.679 201.08 142.455 200.368 142.455 199.472C142.455 198.736 142.663 198.064 143.079 197.456C143.511 196.848 144.119 196.368 144.903 196.016C145.703 195.664 146.639 195.488 147.711 195.488C149.295 195.488 150.559 195.888 151.503 196.688C152.447 197.472 152.967 198.536 153.063 199.88H149.847C149.799 199.352 149.575 198.936 149.175 198.632C148.791 198.312 148.271 198.152 147.615 198.152C147.007 198.152 146.535 198.264 146.199 198.488C145.879 198.712 145.719 199.024 145.719 199.424C145.719 199.872 145.943 200.216 146.391 200.456C146.839 200.68 147.535 200.912 148.479 201.152C149.439 201.392 150.231 201.64 150.855 201.896C151.479 202.152 152.015 202.552 152.463 203.096C152.927 203.624 153.167 204.328 153.183 205.208C153.183 205.976 152.967 206.664 152.535 207.272C152.119 207.88 151.511 208.36 150.711 208.712C149.927 209.048 149.007 209.216 147.951 209.216ZM160.796 202.304C160.796 200.96 161.06 199.768 161.588 198.728C162.132 197.688 162.86 196.888 163.772 196.328C164.7 195.768 165.732 195.488 166.868 195.488C167.86 195.488 168.724 195.688 169.46 196.088C170.212 196.488 170.812 196.992 171.26 197.6V195.704H174.644V209H171.26V207.056C170.828 207.68 170.228 208.2 169.46 208.616C168.708 209.016 167.836 209.216 166.844 209.216C165.724 209.216 164.7 208.928 163.772 208.352C162.86 207.776 162.132 206.968 161.588 205.928C161.06 204.872 160.796 203.664 160.796 202.304ZM171.26 202.352C171.26 201.536 171.1 200.84 170.78 200.264C170.46 199.672 170.028 199.224 169.484 198.92C168.94 198.6 168.356 198.44 167.732 198.44C167.108 198.44 166.532 198.592 166.004 198.896C165.476 199.2 165.044 199.648 164.708 200.24C164.388 200.816 164.228 201.504 164.228 202.304C164.228 203.104 164.388 203.808 164.708 204.416C165.044 205.008 165.476 205.464 166.004 205.784C166.548 206.104 167.124 206.264 167.732 206.264C168.356 206.264 168.94 206.112 169.484 205.808C170.028 205.488 170.46 205.04 170.78 204.464C171.1 203.872 171.26 203.168 171.26 202.352ZM185.294 195.512C186.878 195.512 188.158 196.016 189.134 197.024C190.11 198.016 190.598 199.408 190.598 201.2V209H187.238V201.656C187.238 200.6 186.974 199.792 186.446 199.232C185.918 198.656 185.198 198.368 184.286 198.368C183.358 198.368 182.622 198.656 182.078 199.232C181.55 199.792 181.286 200.6 181.286 201.656V209H177.926V195.704H181.286V197.36C181.734 196.784 182.302 196.336 182.99 196.016C183.694 195.68 184.462 195.512 185.294 195.512ZM192.929 202.304C192.929 200.96 193.193 199.768 193.721 198.728C194.265 197.688 195.001 196.888 195.929 196.328C196.857 195.768 197.889 195.488 199.025 195.488C199.889 195.488 200.713 195.68 201.497 196.064C202.281 196.432 202.905 196.928 203.369 197.552V191.24H206.777V209H203.369V207.032C202.953 207.688 202.369 208.216 201.617 208.616C200.865 209.016 199.993 209.216 199.001 209.216C197.881 209.216 196.857 208.928 195.929 208.352C195.001 207.776 194.265 206.968 193.721 205.928C193.193 204.872 192.929 203.664 192.929 202.304ZM203.393 202.352C203.393 201.536 203.233 200.84 202.913 200.264C202.593 199.672 202.161 199.224 201.617 198.92C201.073 198.6 200.489 198.44 199.865 198.44C199.241 198.44 198.665 198.592 198.137 198.896C197.609 199.2 197.177 199.648 196.841 200.24C196.521 200.816 196.361 201.504 196.361 202.304C196.361 203.104 196.521 203.808 196.841 204.416C197.177 205.008 197.609 205.464 198.137 205.784C198.681 206.104 199.257 206.264 199.865 206.264C200.489 206.264 201.073 206.112 201.617 205.808C202.161 205.488 202.593 205.04 202.913 204.464C203.233 203.872 203.393 203.168 203.393 202.352ZM33.5663 241.208C35.1023 239.928 36.3263 238.864 37.2383 238.016C38.1503 237.152 38.9103 236.256 39.5183 235.328C40.1263 234.4 40.4303 233.488 40.4303 232.592C40.4303 231.776 40.2383 231.136 39.8543 230.672C39.4703 230.208 38.8783 229.976 38.0783 229.976C37.2783 229.976 36.6623 230.248 36.2303 230.792C35.7983 231.32 35.5743 232.048 35.5583 232.976H32.2943C32.3583 231.056 32.9263 229.6 33.9983 228.608C35.0863 227.616 36.4623 227.12 38.1263 227.12C39.9503 227.12 41.3503 227.608 42.3263 228.584C43.3023 229.544 43.7903 230.816 43.7903 232.4C43.7903 233.648 43.4543 234.84 42.7823 235.976C42.1103 237.112 41.3423 238.104 40.4783 238.952C39.6143 239.784 38.4863 240.792 37.0943 241.976H44.1743V244.76H32.3183V242.264L33.5663 241.208ZM46.1475 241.592V238.952L53.9955 227.72H57.9075V238.664H60.0195V241.592H57.9075V245H54.5475V241.592H46.1475ZM54.7635 231.32L49.8435 238.664H54.7635V231.32ZM71.5427 222.272L65.0627 249.344H61.7747L68.2547 222.272H71.5427ZM84.9666 230.048L78.5826 245H75.1746L81.6066 230.432H73.3986V227.552H84.9666V230.048ZM98.8658 245.168C97.6978 245.168 96.6418 244.968 95.6978 244.568C94.7698 244.168 94.0338 243.592 93.4898 242.84C92.9458 242.088 92.6658 241.2 92.6498 240.176H96.2498C96.2978 240.864 96.5378 241.408 96.9698 241.808C97.4178 242.208 98.0258 242.408 98.7938 242.408C99.5778 242.408 100.194 242.224 100.642 241.856C101.09 241.472 101.314 240.976 101.314 240.368C101.314 239.872 101.162 239.464 100.858 239.144C100.554 238.824 100.17 238.576 99.7058 238.4C99.2578 238.208 98.6338 238 97.8338 237.776C96.7458 237.456 95.8578 237.144 95.1698 236.84C94.4978 236.52 93.9138 236.048 93.4178 235.424C92.9378 234.784 92.6978 233.936 92.6978 232.88C92.6978 231.888 92.9458 231.024 93.4418 230.288C93.9378 229.552 94.6338 228.992 95.5298 228.608C96.4258 228.208 97.4498 228.008 98.6018 228.008C100.33 228.008 101.73 228.432 102.802 229.28C103.89 230.112 104.49 231.28 104.602 232.784H100.906C100.874 232.208 100.626 231.736 100.162 231.368C99.7138 230.984 99.1138 230.792 98.3618 230.792C97.7058 230.792 97.1778 230.96 96.7778 231.296C96.3938 231.632 96.2018 232.12 96.2018 232.76C96.2018 233.208 96.3458 233.584 96.6338 233.888C96.9378 234.176 97.3058 234.416 97.7378 234.608C98.1858 234.784 98.8098 234.992 99.6098 235.232C100.698 235.552 101.586 235.872 102.274 236.192C102.962 236.512 103.554 236.992 104.05 237.632C104.546 238.272 104.794 239.112 104.794 240.152C104.794 241.048 104.562 241.88 104.098 242.648C103.634 243.416 102.954 244.032 102.058 244.496C101.162 244.944 100.098 245.168 98.8658 245.168ZM120.259 231.704V245H116.875V243.32C116.443 243.896 115.875 244.352 115.171 244.688C114.483 245.008 113.731 245.168 112.915 245.168C111.875 245.168 110.955 244.952 110.155 244.52C109.355 244.072 108.723 243.424 108.259 242.576C107.811 241.712 107.587 240.688 107.587 239.504V231.704H110.947V239.024C110.947 240.08 111.211 240.896 111.739 241.472C112.267 242.032 112.987 242.312 113.899 242.312C114.827 242.312 115.555 242.032 116.083 241.472C116.611 240.896 116.875 240.08 116.875 239.024V231.704H120.259ZM126.934 233.624C127.366 233.016 127.958 232.512 128.71 232.112C129.478 231.696 130.35 231.488 131.326 231.488C132.462 231.488 133.486 231.768 134.398 232.328C135.326 232.888 136.054 233.688 136.582 234.728C137.126 235.752 137.398 236.944 137.398 238.304C137.398 239.664 137.126 240.872 136.582 241.928C136.054 242.968 135.326 243.776 134.398 244.352C133.486 244.928 132.462 245.216 131.326 245.216C130.35 245.216 129.486 245.016 128.734 244.616C127.998 244.216 127.398 243.712 126.934 243.104V251.336H123.574V231.704H126.934V233.624ZM133.966 238.304C133.966 237.504 133.798 236.816 133.462 236.24C133.142 235.648 132.71 235.2 132.166 234.896C131.638 234.592 131.062 234.44 130.438 234.44C129.83 234.44 129.254 234.6 128.71 234.92C128.182 235.224 127.75 235.672 127.414 236.264C127.094 236.856 126.934 237.552 126.934 238.352C126.934 239.152 127.094 239.848 127.414 240.44C127.75 241.032 128.182 241.488 128.71 241.808C129.254 242.112 129.83 242.264 130.438 242.264C131.062 242.264 131.638 242.104 132.166 241.784C132.71 241.464 133.142 241.008 133.462 240.416C133.798 239.824 133.966 239.12 133.966 238.304ZM143.2 233.624C143.632 233.016 144.224 232.512 144.976 232.112C145.744 231.696 146.616 231.488 147.592 231.488C148.728 231.488 149.752 231.768 150.664 232.328C151.592 232.888 152.32 233.688 152.848 234.728C153.392 235.752 153.664 236.944 153.664 238.304C153.664 239.664 153.392 240.872 152.848 241.928C152.32 242.968 151.592 243.776 150.664 244.352C149.752 244.928 148.728 245.216 147.592 245.216C146.616 245.216 145.752 245.016 145 244.616C144.264 244.216 143.664 243.712 143.2 243.104V251.336H139.84V231.704H143.2V233.624ZM150.232 238.304C150.232 237.504 150.064 236.816 149.728 236.24C149.408 235.648 148.976 235.2 148.432 234.896C147.904 234.592 147.328 234.44 146.704 234.44C146.096 234.44 145.52 234.6 144.976 234.92C144.448 235.224 144.016 235.672 143.68 236.264C143.36 236.856 143.2 237.552 143.2 238.352C143.2 239.152 143.36 239.848 143.68 240.44C144.016 241.032 144.448 241.488 144.976 241.808C145.52 242.112 146.096 242.264 146.704 242.264C147.328 242.264 147.904 242.104 148.432 241.784C148.976 241.464 149.408 241.008 149.728 240.416C150.064 239.824 150.232 239.12 150.232 238.304ZM162.009 245.216C160.729 245.216 159.577 244.936 158.553 244.376C157.529 243.8 156.721 242.992 156.129 241.952C155.553 240.912 155.265 239.712 155.265 238.352C155.265 236.992 155.561 235.792 156.153 234.752C156.761 233.712 157.585 232.912 158.625 232.352C159.665 231.776 160.825 231.488 162.105 231.488C163.385 231.488 164.545 231.776 165.585 232.352C166.625 232.912 167.441 233.712 168.033 234.752C168.641 235.792 168.945 236.992 168.945 238.352C168.945 239.712 168.633 240.912 168.009 241.952C167.401 242.992 166.569 243.8 165.513 244.376C164.473 244.936 163.305 245.216 162.009 245.216ZM162.009 242.288C162.617 242.288 163.185 242.144 163.713 241.856C164.257 241.552 164.689 241.104 165.009 240.512C165.329 239.92 165.489 239.2 165.489 238.352C165.489 237.088 165.153 236.12 164.481 235.448C163.825 234.76 163.017 234.416 162.057 234.416C161.097 234.416 160.289 234.76 159.633 235.448C158.993 236.12 158.673 237.088 158.673 238.352C158.673 239.616 158.985 240.592 159.609 241.28C160.249 241.952 161.049 242.288 162.009 242.288ZM174.77 233.768C175.202 233.064 175.762 232.512 176.45 232.112C177.154 231.712 177.954 231.512 178.85 231.512V235.04H177.962C176.906 235.04 176.106 235.288 175.562 235.784C175.034 236.28 174.77 237.144 174.77 238.376V245H171.41V231.704H174.77V233.768ZM185.025 234.464V240.896C185.025 241.344 185.129 241.672 185.337 241.88C185.561 242.072 185.929 242.168 186.441 242.168H188.001V245H185.889C183.057 245 181.641 243.624 181.641 240.872V234.464H180.057V231.704H181.641V228.416H185.025V231.704H188.001V234.464H185.025Z" fill="#464646"/>
</svg>
