<svg width="134" height="186" viewBox="0 0 154 206" fill="none" xmlns="http://www.w3.org/2000/svg">
<path d="M115.496 113.261H37.648C22.8441 113.261 14.3574 104.774 14.3574 89.9704V12.7604C14.3574 10.1441 16.527 7.97461 19.1432 7.97461H134.001C136.617 7.97461 138.787 10.1441 138.787 12.7604V89.9704C138.787 104.774 130.3 113.261 115.496 113.261ZM23.9289 17.5461V89.9704C23.9289 99.478 28.1403 103.689 37.648 103.689H115.432C124.94 103.689 129.151 99.478 129.151 89.9704V17.5461H23.9289Z"/>
<path d="M140.38 17.5461H12.7604C10.1441 17.5461 7.97461 15.3766 7.97461 12.7604C7.97461 10.1441 10.1441 7.97461 12.7604 7.97461H140.38C142.996 7.97461 145.166 10.1441 145.166 12.7604C145.166 15.3766 142.996 17.5461 140.38 17.5461Z" fill="white" fill-opacity="0.5"/>
<path d="M51.0499 145.168C49.2632 145.168 47.6041 144.211 46.7746 142.552C45.5622 140.191 46.5195 137.319 48.9443 136.107L71.7881 124.685V108.477C71.7881 105.861 73.9577 103.691 76.5739 103.691C79.1901 103.691 81.3596 105.861 81.3596 108.477V127.62C81.3596 129.407 80.3386 131.066 78.6795 131.895L53.1555 144.657C52.5174 144.976 51.7518 145.168 51.0499 145.168Z" />
<path d="M102.097 145.169C101.395 145.169 100.629 144.977 99.9913 144.658L74.4674 131.896C72.1064 130.684 71.1491 127.813 72.2976 125.452C73.51 123.091 76.3815 122.133 78.7425 123.282L104.266 136.044C106.627 137.256 107.585 140.128 106.436 142.489C105.543 144.212 103.82 145.169 102.097 145.169Z" />
<path d="M47.8614 74.9823C46.5213 74.9823 45.1176 74.4081 44.1605 73.2595C42.4376 71.2176 42.7565 68.2186 44.7984 66.4957L64.8987 49.7137C66.7492 48.1822 69.11 47.5441 71.3433 47.927C73.6405 48.3099 75.6187 49.7135 76.8311 51.7554L83.5311 62.9222L102.227 47.3527C104.269 45.6937 107.268 45.9488 108.991 47.9907C110.714 50.0326 110.395 53.0316 108.353 54.7545L88.2529 71.5366C86.4024 73.068 84.0416 73.7061 81.8083 73.3232C79.5111 72.9404 77.5329 71.5367 76.3205 69.4948L69.6206 58.328L50.9243 73.8975C50.031 74.5994 48.9461 74.9823 47.8614 74.9823Z" />
<path d="M18.2853 187.6C18.2853 185.952 18.6533 184.48 19.3893 183.184C20.1413 181.872 21.1573 180.856 22.4373 180.136C23.7333 179.4 25.1813 179.032 26.7813 179.032C28.6533 179.032 30.2933 179.512 31.7013 180.472C33.1093 181.432 34.0933 182.76 34.6533 184.456H30.7893C30.4053 183.656 29.8613 183.056 29.1573 182.656C28.4693 182.256 27.6693 182.056 26.7573 182.056C25.7813 182.056 24.9093 182.288 24.1413 182.752C23.3893 183.2 22.7973 183.84 22.3653 184.672C21.9493 185.504 21.7413 186.48 21.7413 187.6C21.7413 188.704 21.9493 189.68 22.3653 190.528C22.7973 191.36 23.3893 192.008 24.1413 192.472C24.9093 192.92 25.7813 193.144 26.7573 193.144C27.6693 193.144 28.4693 192.944 29.1573 192.544C29.8613 192.128 30.4053 191.52 30.7893 190.72H34.6533C34.0933 192.432 33.1093 193.768 31.7013 194.728C30.3093 195.672 28.6693 196.144 26.7813 196.144C25.1813 196.144 23.7333 195.784 22.4373 195.064C21.1573 194.328 20.1413 193.312 19.3893 192.016C18.6533 190.72 18.2853 189.248 18.2853 187.6ZM43.4272 196.216C42.1472 196.216 40.9952 195.936 39.9712 195.376C38.9472 194.8 38.1392 193.992 37.5472 192.952C36.9712 191.912 36.6832 190.712 36.6832 189.352C36.6832 187.992 36.9792 186.792 37.5712 185.752C38.1792 184.712 39.0032 183.912 40.0432 183.352C41.0832 182.776 42.2432 182.488 43.5232 182.488C44.8032 182.488 45.9632 182.776 47.0032 183.352C48.0432 183.912 48.8592 184.712 49.4512 185.752C50.0592 186.792 50.3632 187.992 50.3632 189.352C50.3632 190.712 50.0512 191.912 49.4272 192.952C48.8192 193.992 47.9872 194.8 46.9312 195.376C45.8912 195.936 44.7232 196.216 43.4272 196.216ZM43.4272 193.288C44.0352 193.288 44.6032 193.144 45.1312 192.856C45.6752 192.552 46.1072 192.104 46.4272 191.512C46.7472 190.92 46.9072 190.2 46.9072 189.352C46.9072 188.088 46.5712 187.12 45.8992 186.448C45.2432 185.76 44.4352 185.416 43.4752 185.416C42.5152 185.416 41.7072 185.76 41.0512 186.448C40.4112 187.12 40.0912 188.088 40.0912 189.352C40.0912 190.616 40.4032 191.592 41.0272 192.28C41.6672 192.952 42.4672 193.288 43.4272 193.288ZM51.9639 189.304C51.9639 187.96 52.2279 186.768 52.7559 185.728C53.2999 184.688 54.0279 183.888 54.9399 183.328C55.8679 182.768 56.8999 182.488 58.0359 182.488C59.0279 182.488 59.8919 182.688 60.6279 183.088C61.3799 183.488 61.9799 183.992 62.4279 184.6V182.704H65.8119V196H62.4279V194.056C61.9959 194.68 61.3959 195.2 60.6279 195.616C59.8759 196.016 59.0039 196.216 58.0119 196.216C56.8919 196.216 55.8679 195.928 54.9399 195.352C54.0279 194.776 53.2999 193.968 52.7559 192.928C52.2279 191.872 51.9639 190.664 51.9639 189.304ZM62.4279 189.352C62.4279 188.536 62.2679 187.84 61.9479 187.264C61.6279 186.672 61.1959 186.224 60.6519 185.92C60.1079 185.6 59.5239 185.44 58.8999 185.44C58.2759 185.44 57.6999 185.592 57.1719 185.896C56.6439 186.2 56.2119 186.648 55.8759 187.24C55.5559 187.816 55.3959 188.504 55.3959 189.304C55.3959 190.104 55.5559 190.808 55.8759 191.416C56.2119 192.008 56.6439 192.464 57.1719 192.784C57.7159 193.104 58.2919 193.264 58.8999 193.264C59.5239 193.264 60.1079 193.112 60.6519 192.808C61.1959 192.488 61.6279 192.04 61.9479 191.464C62.2679 190.872 62.4279 190.168 62.4279 189.352ZM68.2295 189.352C68.2295 187.976 68.5095 186.776 69.0695 185.752C69.6295 184.712 70.4055 183.912 71.3975 183.352C72.3895 182.776 73.5255 182.488 74.8055 182.488C76.4535 182.488 77.8135 182.904 78.8855 183.736C79.9735 184.552 80.7015 185.704 81.0695 187.192H77.4455C77.2535 186.616 76.9255 186.168 76.4615 185.848C76.0135 185.512 75.4535 185.344 74.7815 185.344C73.8215 185.344 73.0615 185.696 72.5015 186.4C71.9415 187.088 71.6615 188.072 71.6615 189.352C71.6615 190.616 71.9415 191.6 72.5015 192.304C73.0615 192.992 73.8215 193.336 74.7815 193.336C76.1415 193.336 77.0295 192.728 77.4455 191.512H81.0695C80.7015 192.952 79.9735 194.096 78.8855 194.944C77.7975 195.792 76.4375 196.216 74.8055 196.216C73.5255 196.216 72.3895 195.936 71.3975 195.376C70.4055 194.8 69.6295 194 69.0695 192.976C68.5095 191.936 68.2295 190.728 68.2295 189.352ZM91.019 182.512C92.027 182.512 92.923 182.736 93.707 183.184C94.491 183.616 95.099 184.264 95.531 185.128C95.979 185.976 96.203 187 96.203 188.2V196H92.843V188.656C92.843 187.6 92.579 186.792 92.051 186.232C91.523 185.656 90.803 185.368 89.891 185.368C88.963 185.368 88.227 185.656 87.683 186.232C87.155 186.792 86.891 187.6 86.891 188.656V196H83.531V178.24H86.891V184.36C87.323 183.784 87.899 183.336 88.619 183.016C89.339 182.68 90.139 182.512 91.019 182.512ZM101.102 181.12C100.51 181.12 100.014 180.936 99.6142 180.568C99.2302 180.184 99.0382 179.712 99.0382 179.152C99.0382 178.592 99.2302 178.128 99.6142 177.76C100.014 177.376 100.51 177.184 101.102 177.184C101.694 177.184 102.182 177.376 102.566 177.76C102.966 178.128 103.166 178.592 103.166 179.152C103.166 179.712 102.966 180.184 102.566 180.568C102.182 180.936 101.694 181.12 101.102 181.12ZM102.758 182.704V196H99.3982V182.704H102.758ZM113.446 182.512C115.03 182.512 116.31 183.016 117.286 184.024C118.262 185.016 118.75 186.408 118.75 188.2V196H115.39V188.656C115.39 187.6 115.126 186.792 114.598 186.232C114.07 185.656 113.35 185.368 112.438 185.368C111.51 185.368 110.774 185.656 110.23 186.232C109.702 186.792 109.438 187.6 109.438 188.656V196H106.078V182.704H109.438V184.36C109.886 183.784 110.454 183.336 111.142 183.016C111.846 182.68 112.614 182.512 113.446 182.512ZM127.153 182.488C128.145 182.488 129.017 182.688 129.769 183.088C130.521 183.472 131.113 183.976 131.545 184.6V182.704H134.929V196.096C134.929 197.328 134.681 198.424 134.185 199.384C133.689 200.36 132.945 201.128 131.953 201.688C130.961 202.264 129.761 202.552 128.353 202.552C126.465 202.552 124.913 202.112 123.697 201.232C122.497 200.352 121.817 199.152 121.657 197.632H124.993C125.169 198.24 125.545 198.72 126.121 199.072C126.713 199.44 127.425 199.624 128.257 199.624C129.233 199.624 130.025 199.328 130.633 198.736C131.241 198.16 131.545 197.28 131.545 196.096V194.032C131.113 194.656 130.513 195.176 129.745 195.592C128.993 196.008 128.129 196.216 127.153 196.216C126.033 196.216 125.009 195.928 124.081 195.352C123.153 194.776 122.417 193.968 121.873 192.928C121.345 191.872 121.081 190.664 121.081 189.304C121.081 187.96 121.345 186.768 121.873 185.728C122.417 184.688 123.145 183.888 124.057 183.328C124.985 182.768 126.017 182.488 127.153 182.488ZM131.545 189.352C131.545 188.536 131.385 187.84 131.065 187.264C130.745 186.672 130.313 186.224 129.769 185.92C129.225 185.6 128.641 185.44 128.017 185.44C127.393 185.44 126.817 185.592 126.289 185.896C125.761 186.2 125.329 186.648 124.993 187.24C124.673 187.816 124.513 188.504 124.513 189.304C124.513 190.104 124.673 190.808 124.993 191.416C125.329 192.008 125.761 192.464 126.289 192.784C126.833 193.104 127.409 193.264 128.017 193.264C128.641 193.264 129.225 193.112 129.769 192.808C130.313 192.488 130.745 192.04 131.065 191.464C131.385 190.872 131.545 190.168 131.545 189.352Z" />
</svg>
