<svg width="173" height="215" viewBox="0 0 213 255" fill="none" xmlns="http://www.w3.org/2000/svg">
<path d="M108.613 86.5583C112.37 83.2867 115.384 79.2404 117.449 74.6939C119.515 70.1473 120.584 65.2071 120.584 60.2083C120.584 50.8152 116.874 41.8068 110.271 35.1649C103.669 28.523 94.7132 24.7916 85.3753 24.7916C76.0375 24.7916 67.0821 28.523 60.4793 35.1649C53.8764 41.8068 50.167 50.8152 50.167 60.2083C50.1669 65.2071 51.2359 70.1473 53.3014 74.6939C55.3669 79.2404 58.3806 83.2867 62.1378 86.5583C52.2805 91.0483 43.9173 98.2991 38.0481 107.444C32.179 116.589 29.0524 127.24 29.042 138.125C29.042 140.004 29.7839 141.805 31.1044 143.134C32.425 144.462 34.2161 145.208 36.0837 145.208C37.9512 145.208 39.7423 144.462 41.0629 143.134C42.3834 141.805 43.1253 140.004 43.1253 138.125C43.1253 126.853 47.5767 116.043 55.5001 108.073C63.4235 100.103 74.1699 95.625 85.3753 95.625C96.5807 95.625 107.327 100.103 115.251 108.073C123.174 116.043 127.625 126.853 127.625 138.125C127.625 140.004 128.367 141.805 129.688 143.134C131.008 144.462 132.799 145.208 134.667 145.208C136.535 145.208 138.326 144.462 139.646 143.134C140.967 141.805 141.709 140.004 141.709 138.125C141.698 127.24 138.572 116.589 132.703 107.444C126.833 98.2991 118.47 91.0483 108.613 86.5583V86.5583ZM85.3753 81.4583C81.1972 81.4583 77.1129 80.212 73.6389 77.877C70.1649 75.542 67.4573 72.2232 65.8584 68.3403C64.2595 64.4574 63.8411 60.1847 64.6562 56.0626C65.4714 51.9405 67.4833 48.1541 70.4377 45.1823C73.3921 42.2104 77.1562 40.1865 81.254 39.3666C85.3519 38.5467 89.5994 38.9675 93.4595 40.5759C97.3196 42.1842 100.619 44.9079 102.94 48.4024C105.261 51.897 106.5 56.0054 106.5 60.2083C106.5 65.8441 104.275 71.2492 100.313 75.2343C96.3513 79.2195 90.978 81.4583 85.3753 81.4583ZM153.961 83.725C158.468 78.6202 161.411 72.3141 162.438 65.5657C163.465 58.8173 162.53 51.9142 159.748 45.6875C156.965 39.4607 152.453 34.1756 146.754 30.4684C141.055 26.7611 134.412 24.7898 127.625 24.7916C125.758 24.7916 123.967 25.5379 122.646 26.8663C121.326 28.1947 120.584 29.9963 120.584 31.875C120.584 33.7536 121.326 35.5552 122.646 36.8836C123.967 38.212 125.758 38.9583 127.625 38.9583C133.228 38.9583 138.601 41.1971 142.563 45.1823C146.525 49.1674 148.75 54.5724 148.75 60.2083C148.74 63.9287 147.76 67.5814 145.906 70.8009C144.052 74.0204 141.391 76.6939 138.188 78.5541C137.144 79.1599 136.272 80.0251 135.655 81.0669C135.039 82.1087 134.699 83.2922 134.667 84.5041C134.638 85.7066 134.913 86.8968 135.467 87.9626C136.022 89.0284 136.837 89.9346 137.836 90.5958L140.582 92.4375L141.497 92.9333C149.985 96.983 157.146 103.388 162.136 111.395C167.127 119.401 169.738 128.675 169.664 138.125C169.664 140.004 170.406 141.805 171.727 143.134C173.047 144.462 174.838 145.208 176.706 145.208C178.573 145.208 180.364 144.462 181.685 143.134C183.006 141.805 183.747 140.004 183.747 138.125C183.805 127.255 181.099 116.551 175.885 107.03C170.672 97.5082 163.125 89.4859 153.961 83.725V83.725Z" fill="#464646"/>
<path d="M73.1916 200.6C73.1916 198.952 73.5596 197.48 74.2956 196.184C75.0476 194.872 76.0636 193.856 77.3436 193.136C78.6396 192.4 80.0876 192.032 81.6876 192.032C83.5596 192.032 85.1996 192.512 86.6076 193.472C88.0156 194.432 88.9996 195.76 89.5596 197.456H85.6956C85.3116 196.656 84.7676 196.056 84.0636 195.656C83.3756 195.256 82.5756 195.056 81.6636 195.056C80.6876 195.056 79.8156 195.288 79.0476 195.752C78.2956 196.2 77.7036 196.84 77.2716 197.672C76.8556 198.504 76.6476 199.48 76.6476 200.6C76.6476 201.704 76.8556 202.68 77.2716 203.528C77.7036 204.36 78.2956 205.008 79.0476 205.472C79.8156 205.92 80.6876 206.144 81.6636 206.144C82.5756 206.144 83.3756 205.944 84.0636 205.544C84.7676 205.128 85.3116 204.52 85.6956 203.72H89.5596C88.9996 205.432 88.0156 206.768 86.6076 207.728C85.2156 208.672 83.5756 209.144 81.6876 209.144C80.0876 209.144 78.6396 208.784 77.3436 208.064C76.0636 207.328 75.0476 206.312 74.2956 205.016C73.5596 203.72 73.1916 202.248 73.1916 200.6ZM95.7894 191.24V209H92.4294V191.24H95.7894ZM105.013 209.216C103.733 209.216 102.581 208.936 101.557 208.376C100.533 207.8 99.7251 206.992 99.1331 205.952C98.5571 204.912 98.2691 203.712 98.2691 202.352C98.2691 200.992 98.5651 199.792 99.1571 198.752C99.7651 197.712 100.589 196.912 101.629 196.352C102.669 195.776 103.829 195.488 105.109 195.488C106.389 195.488 107.549 195.776 108.589 196.352C109.629 196.912 110.445 197.712 111.037 198.752C111.645 199.792 111.949 200.992 111.949 202.352C111.949 203.712 111.637 204.912 111.013 205.952C110.405 206.992 109.573 207.8 108.517 208.376C107.477 208.936 106.309 209.216 105.013 209.216ZM105.013 206.288C105.621 206.288 106.189 206.144 106.717 205.856C107.261 205.552 107.693 205.104 108.013 204.512C108.333 203.92 108.493 203.2 108.493 202.352C108.493 201.088 108.157 200.12 107.485 199.448C106.829 198.76 106.021 198.416 105.061 198.416C104.101 198.416 103.293 198.76 102.637 199.448C101.997 200.12 101.677 201.088 101.677 202.352C101.677 203.616 101.989 204.592 102.613 205.28C103.253 205.952 104.053 206.288 105.013 206.288ZM119.502 209.216C118.414 209.216 117.438 209.024 116.574 208.64C115.71 208.24 115.022 207.704 114.51 207.032C114.014 206.36 113.742 205.616 113.694 204.8H117.078C117.142 205.312 117.39 205.736 117.822 206.072C118.27 206.408 118.822 206.576 119.478 206.576C120.118 206.576 120.614 206.448 120.966 206.192C121.334 205.936 121.518 205.608 121.518 205.208C121.518 204.776 121.294 204.456 120.846 204.248C120.414 204.024 119.718 203.784 118.758 203.528C117.766 203.288 116.95 203.04 116.31 202.784C115.686 202.528 115.142 202.136 114.678 201.608C114.23 201.08 114.006 200.368 114.006 199.472C114.006 198.736 114.214 198.064 114.63 197.456C115.062 196.848 115.67 196.368 116.454 196.016C117.254 195.664 118.19 195.488 119.262 195.488C120.846 195.488 122.11 195.888 123.054 196.688C123.998 197.472 124.518 198.536 124.614 199.88H121.398C121.35 199.352 121.126 198.936 120.726 198.632C120.342 198.312 119.822 198.152 119.166 198.152C118.558 198.152 118.086 198.264 117.75 198.488C117.43 198.712 117.27 199.024 117.27 199.424C117.27 199.872 117.494 200.216 117.942 200.456C118.39 200.68 119.086 200.912 120.03 201.152C120.99 201.392 121.782 201.64 122.406 201.896C123.03 202.152 123.566 202.552 124.014 203.096C124.478 203.624 124.718 204.328 124.734 205.208C124.734 205.976 124.518 206.664 124.086 207.272C123.67 207.88 123.062 208.36 122.262 208.712C121.478 209.048 120.558 209.216 119.502 209.216ZM139.852 202.064C139.852 202.544 139.82 202.976 139.756 203.36H130.036C130.116 204.32 130.452 205.072 131.044 205.616C131.636 206.16 132.364 206.432 133.228 206.432C134.476 206.432 135.364 205.896 135.892 204.824H139.516C139.132 206.104 138.396 207.16 137.308 207.992C136.22 208.808 134.884 209.216 133.3 209.216C132.02 209.216 130.868 208.936 129.844 208.376C128.836 207.8 128.044 206.992 127.468 205.952C126.908 204.912 126.628 203.712 126.628 202.352C126.628 200.976 126.908 199.768 127.468 198.728C128.028 197.688 128.812 196.888 129.82 196.328C130.828 195.768 131.988 195.488 133.3 195.488C134.564 195.488 135.692 195.76 136.684 196.304C137.692 196.848 138.468 197.624 139.012 198.632C139.572 199.624 139.852 200.768 139.852 202.064ZM136.372 201.104C136.356 200.24 136.044 199.552 135.436 199.04C134.828 198.512 134.084 198.248 133.204 198.248C132.372 198.248 131.668 198.504 131.092 199.016C130.532 199.512 130.188 200.208 130.06 201.104H136.372ZM29.8673 236.6C29.8673 234.952 30.2353 233.48 30.9713 232.184C31.7233 230.872 32.7393 229.856 34.0193 229.136C35.3153 228.4 36.7633 228.032 38.3633 228.032C40.2353 228.032 41.8753 228.512 43.2833 229.472C44.6913 230.432 45.6753 231.76 46.2353 233.456H42.3713C41.9873 232.656 41.4433 232.056 40.7393 231.656C40.0513 231.256 39.2513 231.056 38.3393 231.056C37.3633 231.056 36.4913 231.288 35.7233 231.752C34.9713 232.2 34.3793 232.84 33.9473 233.672C33.5313 234.504 33.3233 235.48 33.3233 236.6C33.3233 237.704 33.5313 238.68 33.9473 239.528C34.3793 240.36 34.9713 241.008 35.7233 241.472C36.4913 241.92 37.3633 242.144 38.3393 242.144C39.2513 242.144 40.0513 241.944 40.7393 241.544C41.4433 241.128 41.9873 240.52 42.3713 239.72H46.2353C45.6753 241.432 44.6913 242.768 43.2833 243.728C41.8913 244.672 40.2513 245.144 38.3633 245.144C36.7633 245.144 35.3153 244.784 34.0193 244.064C32.7393 243.328 31.7233 242.312 30.9713 241.016C30.2353 239.72 29.8673 238.248 29.8673 236.6ZM55.0092 245.216C53.7292 245.216 52.5772 244.936 51.5532 244.376C50.5292 243.8 49.7212 242.992 49.1292 241.952C48.5532 240.912 48.2652 239.712 48.2652 238.352C48.2652 236.992 48.5612 235.792 49.1532 234.752C49.7612 233.712 50.5852 232.912 51.6252 232.352C52.6652 231.776 53.8252 231.488 55.1052 231.488C56.3852 231.488 57.5452 231.776 58.5852 232.352C59.6252 232.912 60.4412 233.712 61.0332 234.752C61.6412 235.792 61.9452 236.992 61.9452 238.352C61.9452 239.712 61.6332 240.912 61.0092 241.952C60.4012 242.992 59.5692 243.8 58.5132 244.376C57.4732 244.936 56.3052 245.216 55.0092 245.216ZM55.0092 242.288C55.6172 242.288 56.1852 242.144 56.7132 241.856C57.2572 241.552 57.6892 241.104 58.0092 240.512C58.3292 239.92 58.4892 239.2 58.4892 238.352C58.4892 237.088 58.1532 236.12 57.4812 235.448C56.8252 234.76 56.0172 234.416 55.0572 234.416C54.0972 234.416 53.2892 234.76 52.6332 235.448C51.9932 236.12 51.6732 237.088 51.6732 238.352C51.6732 239.616 51.9852 240.592 52.6092 241.28C53.2492 241.952 54.0492 242.288 55.0092 242.288ZM71.7779 231.512C73.3619 231.512 74.6419 232.016 75.6179 233.024C76.5939 234.016 77.0819 235.408 77.0819 237.2V245H73.7219V237.656C73.7219 236.6 73.4579 235.792 72.9299 235.232C72.4019 234.656 71.6819 234.368 70.7699 234.368C69.8419 234.368 69.1059 234.656 68.5619 235.232C68.0339 235.792 67.7699 236.6 67.7699 237.656V245H64.4099V231.704H67.7699V233.36C68.2179 232.784 68.7859 232.336 69.4739 232.016C70.1779 231.68 70.9459 231.512 71.7779 231.512ZM87.6451 231.512C89.2291 231.512 90.5091 232.016 91.4851 233.024C92.4611 234.016 92.9491 235.408 92.9491 237.2V245H89.5891V237.656C89.5891 236.6 89.3251 235.792 88.7971 235.232C88.2691 234.656 87.5491 234.368 86.6371 234.368C85.7091 234.368 84.9731 234.656 84.4291 235.232C83.9011 235.792 83.6371 236.6 83.6371 237.656V245H80.2771V231.704H83.6371V233.36C84.0851 232.784 84.6531 232.336 85.3411 232.016C86.0451 231.68 86.8131 231.512 87.6451 231.512ZM108.504 238.064C108.504 238.544 108.472 238.976 108.408 239.36H98.6883C98.7683 240.32 99.1043 241.072 99.6963 241.616C100.288 242.16 101.016 242.432 101.88 242.432C103.128 242.432 104.016 241.896 104.544 240.824H108.168C107.784 242.104 107.048 243.16 105.96 243.992C104.872 244.808 103.536 245.216 101.952 245.216C100.672 245.216 99.5203 244.936 98.4963 244.376C97.4883 243.8 96.6963 242.992 96.1203 241.952C95.5603 240.912 95.2803 239.712 95.2803 238.352C95.2803 236.976 95.5603 235.768 96.1203 234.728C96.6803 233.688 97.4643 232.888 98.4723 232.328C99.4803 231.768 100.64 231.488 101.952 231.488C103.216 231.488 104.344 231.76 105.336 232.304C106.344 232.848 107.12 233.624 107.664 234.632C108.224 235.624 108.504 236.768 108.504 238.064ZM105.024 237.104C105.008 236.24 104.696 235.552 104.088 235.04C103.48 234.512 102.736 234.248 101.856 234.248C101.024 234.248 100.32 234.504 99.7443 235.016C99.1843 235.512 98.8403 236.208 98.7123 237.104H105.024ZM110.093 238.352C110.093 236.976 110.373 235.776 110.933 234.752C111.493 233.712 112.269 232.912 113.261 232.352C114.253 231.776 115.389 231.488 116.669 231.488C118.317 231.488 119.677 231.904 120.749 232.736C121.837 233.552 122.565 234.704 122.933 236.192H119.309C119.117 235.616 118.789 235.168 118.325 234.848C117.877 234.512 117.317 234.344 116.645 234.344C115.685 234.344 114.925 234.696 114.365 235.4C113.805 236.088 113.525 237.072 113.525 238.352C113.525 239.616 113.805 240.6 114.365 241.304C114.925 241.992 115.685 242.336 116.645 242.336C118.005 242.336 118.893 241.728 119.309 240.512H122.933C122.565 241.952 121.837 243.096 120.749 243.944C119.661 244.792 118.301 245.216 116.669 245.216C115.389 245.216 114.253 244.936 113.261 244.376C112.269 243.8 111.493 243 110.933 241.976C110.373 240.936 110.093 239.728 110.093 238.352ZM129.306 234.464V240.896C129.306 241.344 129.41 241.672 129.618 241.88C129.842 242.072 130.21 242.168 130.722 242.168H132.282V245H130.17C127.338 245 125.922 243.624 125.922 240.872V234.464H124.338V231.704H125.922V228.416H129.306V231.704H132.282V234.464H129.306ZM136.403 230.12C135.811 230.12 135.315 229.936 134.915 229.568C134.531 229.184 134.339 228.712 134.339 228.152C134.339 227.592 134.531 227.128 134.915 226.76C135.315 226.376 135.811 226.184 136.403 226.184C136.995 226.184 137.483 226.376 137.867 226.76C138.267 227.128 138.467 227.592 138.467 228.152C138.467 228.712 138.267 229.184 137.867 229.568C137.483 229.936 136.995 230.12 136.403 230.12ZM138.059 231.704V245H134.699V231.704H138.059ZM147.283 245.216C146.003 245.216 144.851 244.936 143.827 244.376C142.803 243.8 141.995 242.992 141.403 241.952C140.827 240.912 140.539 239.712 140.539 238.352C140.539 236.992 140.835 235.792 141.427 234.752C142.035 233.712 142.859 232.912 143.899 232.352C144.939 231.776 146.099 231.488 147.379 231.488C148.659 231.488 149.819 231.776 150.859 232.352C151.899 232.912 152.715 233.712 153.307 234.752C153.915 235.792 154.219 236.992 154.219 238.352C154.219 239.712 153.907 240.912 153.283 241.952C152.675 242.992 151.843 243.8 150.787 244.376C149.747 244.936 148.579 245.216 147.283 245.216ZM147.283 242.288C147.891 242.288 148.459 242.144 148.987 241.856C149.531 241.552 149.963 241.104 150.283 240.512C150.603 239.92 150.763 239.2 150.763 238.352C150.763 237.088 150.427 236.12 149.755 235.448C149.099 234.76 148.291 234.416 147.331 234.416C146.371 234.416 145.563 234.76 144.907 235.448C144.267 236.12 143.947 237.088 143.947 238.352C143.947 239.616 144.259 240.592 144.883 241.28C145.523 241.952 146.323 242.288 147.283 242.288ZM164.051 231.512C165.635 231.512 166.915 232.016 167.891 233.024C168.867 234.016 169.355 235.408 169.355 237.2V245H165.995V237.656C165.995 236.6 165.731 235.792 165.203 235.232C164.675 234.656 163.955 234.368 163.043 234.368C162.115 234.368 161.379 234.656 160.835 235.232C160.307 235.792 160.043 236.6 160.043 237.656V245H156.683V231.704H160.043V233.36C160.491 232.784 161.059 232.336 161.747 232.016C162.451 231.68 163.219 231.512 164.051 231.512ZM177.639 245.216C176.551 245.216 175.575 245.024 174.711 244.64C173.847 244.24 173.159 243.704 172.647 243.032C172.151 242.36 171.879 241.616 171.831 240.8H175.215C175.279 241.312 175.527 241.736 175.959 242.072C176.407 242.408 176.959 242.576 177.615 242.576C178.255 242.576 178.751 242.448 179.103 242.192C179.471 241.936 179.655 241.608 179.655 241.208C179.655 240.776 179.431 240.456 178.983 240.248C178.551 240.024 177.855 239.784 176.895 239.528C175.903 239.288 175.087 239.04 174.447 238.784C173.823 238.528 173.279 238.136 172.815 237.608C172.367 237.08 172.143 236.368 172.143 235.472C172.143 234.736 172.351 234.064 172.767 233.456C173.199 232.848 173.807 232.368 174.591 232.016C175.391 231.664 176.327 231.488 177.399 231.488C178.983 231.488 180.247 231.888 181.191 232.688C182.135 233.472 182.655 234.536 182.751 235.88H179.535C179.487 235.352 179.263 234.936 178.863 234.632C178.479 234.312 177.959 234.152 177.303 234.152C176.695 234.152 176.223 234.264 175.887 234.488C175.567 234.712 175.407 235.024 175.407 235.424C175.407 235.872 175.631 236.216 176.079 236.456C176.527 236.68 177.223 236.912 178.167 237.152C179.127 237.392 179.919 237.64 180.543 237.896C181.167 238.152 181.703 238.552 182.151 239.096C182.615 239.624 182.855 240.328 182.871 241.208C182.871 241.976 182.655 242.664 182.223 243.272C181.807 243.88 181.199 244.36 180.399 244.712C179.615 245.048 178.695 245.216 177.639 245.216Z" fill="#464646"/>
</svg>
