<svg width="221" height="215" viewBox="0 0 261 255" fill="none" xmlns="http://www.w3.org/2000/svg">
<path d="M188.199 109.862H156.301C154.433 109.862 152.642 110.609 151.321 111.937C150.001 113.266 149.259 115.067 149.259 116.946C149.259 118.824 150.001 120.626 151.321 121.954C152.642 123.283 154.433 124.029 156.301 124.029H173.201C165.433 132.194 155.416 137.837 144.436 140.231C133.457 142.626 122.016 141.664 111.584 137.468C101.153 133.272 92.2063 126.034 85.895 116.685C79.5838 107.335 76.1957 96.3012 76.1663 85C76.1663 83.1213 75.4245 81.3197 74.1039 79.9913C72.7833 78.6629 70.9922 77.9166 69.1247 77.9166C67.2571 77.9166 65.466 78.6629 64.1455 79.9913C62.8249 81.3197 62.083 83.1213 62.083 85C62.1202 98.8323 66.1828 112.351 73.7694 123.888C81.356 135.424 92.1345 144.474 104.775 149.92C117.415 155.366 131.364 156.97 144.9 154.534C158.436 152.099 170.967 145.729 180.946 136.212V148.75C180.946 150.629 181.688 152.43 183.009 153.759C184.329 155.087 186.12 155.833 187.988 155.833C189.856 155.833 191.647 155.087 192.967 153.759C194.288 152.43 195.03 150.629 195.03 148.75V116.875C195.012 115.045 194.291 113.293 193.018 111.985C191.745 110.678 190.018 109.917 188.199 109.862ZM132.5 14.1666C114.448 14.2184 97.1047 21.2423 84.053 33.7875V21.25C84.053 19.3713 83.3111 17.5697 81.9906 16.2413C80.67 14.9129 78.8789 14.1666 77.0113 14.1666C75.1438 14.1666 73.3527 14.9129 72.0321 16.2413C70.7116 17.5697 69.9697 19.3713 69.9697 21.25V53.125C69.9697 55.0036 70.7116 56.8052 72.0321 58.1336C73.3527 59.462 75.1438 60.2083 77.0113 60.2083H108.699C110.566 60.2083 112.357 59.462 113.678 58.1336C114.999 56.8052 115.741 55.0036 115.741 53.125C115.741 51.2463 114.999 49.4447 113.678 48.1163C112.357 46.7879 110.566 46.0416 108.699 46.0416H91.7988C99.562 37.8807 109.573 32.2397 120.546 29.8428C131.519 27.4459 142.954 28.4023 153.382 32.5894C163.811 36.7765 172.758 44.0031 179.075 53.3417C185.392 62.6803 188.79 73.7048 188.833 85C188.833 86.8786 189.575 88.6802 190.895 90.0086C192.216 91.337 194.007 92.0833 195.875 92.0833C197.742 92.0833 199.533 91.337 200.854 90.0086C202.174 88.6802 202.916 86.8786 202.916 85C202.916 75.698 201.095 66.4871 197.556 57.8932C194.017 49.2993 188.831 41.4907 182.292 34.9132C175.753 28.3357 167.99 23.1182 159.447 19.5585C150.904 15.9988 141.747 14.1666 132.5 14.1666V14.1666Z" fill="#464646"/>
<path d="M60.5588 200.6C60.5588 198.952 60.9268 197.48 61.6628 196.184C62.4148 194.872 63.4308 193.856 64.7108 193.136C66.0068 192.4 67.4548 192.032 69.0548 192.032C70.9268 192.032 72.5668 192.512 73.9748 193.472C75.3828 194.432 76.3668 195.76 76.9268 197.456H73.0628C72.6788 196.656 72.1348 196.056 71.4308 195.656C70.7428 195.256 69.9428 195.056 69.0308 195.056C68.0548 195.056 67.1828 195.288 66.4148 195.752C65.6628 196.2 65.0708 196.84 64.6388 197.672C64.2228 198.504 64.0148 199.48 64.0148 200.6C64.0148 201.704 64.2228 202.68 64.6388 203.528C65.0708 204.36 65.6628 205.008 66.4148 205.472C67.1828 205.92 68.0548 206.144 69.0308 206.144C69.9428 206.144 70.7428 205.944 71.4308 205.544C72.1348 205.128 72.6788 204.52 73.0628 203.72H76.9268C76.3668 205.432 75.3828 206.768 73.9748 207.728C72.5828 208.672 70.9428 209.144 69.0548 209.144C67.4548 209.144 66.0068 208.784 64.7108 208.064C63.4308 207.328 62.4148 206.312 61.6628 205.016C60.9268 203.72 60.5588 202.248 60.5588 200.6ZM85.7006 209.216C84.4206 209.216 83.2686 208.936 82.2446 208.376C81.2206 207.8 80.4126 206.992 79.8206 205.952C79.2446 204.912 78.9566 203.712 78.9566 202.352C78.9566 200.992 79.2526 199.792 79.8446 198.752C80.4526 197.712 81.2766 196.912 82.3166 196.352C83.3566 195.776 84.5166 195.488 85.7966 195.488C87.0766 195.488 88.2366 195.776 89.2766 196.352C90.3166 196.912 91.1326 197.712 91.7246 198.752C92.3326 199.792 92.6366 200.992 92.6366 202.352C92.6366 203.712 92.3246 204.912 91.7006 205.952C91.0926 206.992 90.2606 207.8 89.2046 208.376C88.1646 208.936 86.9966 209.216 85.7006 209.216ZM85.7006 206.288C86.3086 206.288 86.8766 206.144 87.4046 205.856C87.9486 205.552 88.3806 205.104 88.7006 204.512C89.0206 203.92 89.1806 203.2 89.1806 202.352C89.1806 201.088 88.8446 200.12 88.1726 199.448C87.5166 198.76 86.7086 198.416 85.7486 198.416C84.7886 198.416 83.9806 198.76 83.3246 199.448C82.6846 200.12 82.3646 201.088 82.3646 202.352C82.3646 203.616 82.6766 204.592 83.3006 205.28C83.9406 205.952 84.7406 206.288 85.7006 206.288ZM102.469 195.512C104.053 195.512 105.333 196.016 106.309 197.024C107.285 198.016 107.773 199.408 107.773 201.2V209H104.413V201.656C104.413 200.6 104.149 199.792 103.621 199.232C103.093 198.656 102.373 198.368 101.461 198.368C100.533 198.368 99.7973 198.656 99.2533 199.232C98.7253 199.792 98.4613 200.6 98.4613 201.656V209H95.1013V195.704H98.4613V197.36C98.9093 196.784 99.4773 196.336 100.165 196.016C100.869 195.68 101.637 195.512 102.469 195.512ZM114.881 198.464V204.896C114.881 205.344 114.985 205.672 115.193 205.88C115.417 206.072 115.785 206.168 116.297 206.168H117.857V209H115.745C112.913 209 111.497 207.624 111.497 204.872V198.464H109.913V195.704H111.497V192.416H114.881V195.704H117.857V198.464H114.881ZM121.977 194.12C121.385 194.12 120.889 193.936 120.489 193.568C120.105 193.184 119.913 192.712 119.913 192.152C119.913 191.592 120.105 191.128 120.489 190.76C120.889 190.376 121.385 190.184 121.977 190.184C122.569 190.184 123.057 190.376 123.441 190.76C123.841 191.128 124.041 191.592 124.041 192.152C124.041 192.712 123.841 193.184 123.441 193.568C123.057 193.936 122.569 194.12 121.977 194.12ZM123.633 195.704V209H120.273V195.704H123.633ZM134.321 195.512C135.905 195.512 137.185 196.016 138.161 197.024C139.137 198.016 139.625 199.408 139.625 201.2V209H136.265V201.656C136.265 200.6 136.001 199.792 135.473 199.232C134.945 198.656 134.225 198.368 133.313 198.368C132.385 198.368 131.649 198.656 131.105 199.232C130.577 199.792 130.313 200.6 130.313 201.656V209H126.953V195.704H130.313V197.36C130.761 196.784 131.329 196.336 132.017 196.016C132.721 195.68 133.489 195.512 134.321 195.512ZM155.372 195.704V209H151.988V207.32C151.556 207.896 150.988 208.352 150.284 208.688C149.596 209.008 148.844 209.168 148.028 209.168C146.988 209.168 146.068 208.952 145.268 208.52C144.468 208.072 143.836 207.424 143.372 206.576C142.924 205.712 142.7 204.688 142.7 203.504V195.704H146.06V203.024C146.06 204.08 146.324 204.896 146.852 205.472C147.38 206.032 148.1 206.312 149.012 206.312C149.94 206.312 150.668 206.032 151.196 205.472C151.724 204.896 151.988 204.08 151.988 203.024V195.704H155.372ZM164.591 209.216C163.311 209.216 162.159 208.936 161.135 208.376C160.111 207.8 159.303 206.992 158.711 205.952C158.135 204.912 157.847 203.712 157.847 202.352C157.847 200.992 158.143 199.792 158.735 198.752C159.343 197.712 160.167 196.912 161.207 196.352C162.247 195.776 163.407 195.488 164.687 195.488C165.967 195.488 167.127 195.776 168.167 196.352C169.207 196.912 170.023 197.712 170.615 198.752C171.223 199.792 171.527 200.992 171.527 202.352C171.527 203.712 171.215 204.912 170.591 205.952C169.983 206.992 169.151 207.8 168.095 208.376C167.055 208.936 165.887 209.216 164.591 209.216ZM164.591 206.288C165.199 206.288 165.767 206.144 166.295 205.856C166.839 205.552 167.271 205.104 167.591 204.512C167.911 203.92 168.071 203.2 168.071 202.352C168.071 201.088 167.735 200.12 167.063 199.448C166.407 198.76 165.599 198.416 164.639 198.416C163.679 198.416 162.871 198.76 162.215 199.448C161.575 200.12 161.255 201.088 161.255 202.352C161.255 203.616 161.567 204.592 162.191 205.28C162.831 205.952 163.631 206.288 164.591 206.288ZM186.544 195.704V209H183.16V207.32C182.728 207.896 182.16 208.352 181.456 208.688C180.768 209.008 180.016 209.168 179.2 209.168C178.16 209.168 177.24 208.952 176.44 208.52C175.64 208.072 175.008 207.424 174.544 206.576C174.096 205.712 173.872 204.688 173.872 203.504V195.704H177.232V203.024C177.232 204.08 177.496 204.896 178.024 205.472C178.552 206.032 179.272 206.312 180.184 206.312C181.112 206.312 181.84 206.032 182.368 205.472C182.896 204.896 183.16 204.08 183.16 203.024V195.704H186.544ZM194.947 209.216C193.859 209.216 192.883 209.024 192.019 208.64C191.155 208.24 190.467 207.704 189.955 207.032C189.459 206.36 189.187 205.616 189.139 204.8H192.523C192.587 205.312 192.835 205.736 193.267 206.072C193.715 206.408 194.267 206.576 194.923 206.576C195.563 206.576 196.059 206.448 196.411 206.192C196.779 205.936 196.963 205.608 196.963 205.208C196.963 204.776 196.739 204.456 196.291 204.248C195.859 204.024 195.163 203.784 194.203 203.528C193.211 203.288 192.395 203.04 191.755 202.784C191.131 202.528 190.587 202.136 190.123 201.608C189.675 201.08 189.451 200.368 189.451 199.472C189.451 198.736 189.659 198.064 190.075 197.456C190.507 196.848 191.115 196.368 191.899 196.016C192.699 195.664 193.635 195.488 194.707 195.488C196.291 195.488 197.555 195.888 198.499 196.688C199.443 197.472 199.963 198.536 200.059 199.88H196.843C196.795 199.352 196.571 198.936 196.171 198.632C195.787 198.312 195.267 198.152 194.611 198.152C194.003 198.152 193.531 198.264 193.195 198.488C192.875 198.712 192.715 199.024 192.715 199.424C192.715 199.872 192.939 200.216 193.387 200.456C193.835 200.68 194.531 200.912 195.475 201.152C196.435 201.392 197.227 201.64 197.851 201.896C198.475 202.152 199.011 202.552 199.459 203.096C199.923 203.624 200.163 204.328 200.179 205.208C200.179 205.976 199.963 206.664 199.531 207.272C199.115 207.88 198.507 208.36 197.707 208.712C196.923 209.048 196.003 209.216 194.947 209.216ZM45.2699 228.248V245H41.9099V228.248H45.2699ZM65.1016 231.512C66.7336 231.512 68.0456 232.016 69.0376 233.024C70.0456 234.016 70.5496 235.408 70.5496 237.2V245H67.1896V237.656C67.1896 236.616 66.9256 235.824 66.3976 235.28C65.8696 234.72 65.1496 234.44 64.2376 234.44C63.3256 234.44 62.5976 234.72 62.0536 235.28C61.5256 235.824 61.2616 236.616 61.2616 237.656V245H57.9016V237.656C57.9016 236.616 57.6376 235.824 57.1096 235.28C56.5816 234.72 55.8616 234.44 54.9496 234.44C54.0216 234.44 53.2856 234.72 52.7416 235.28C52.2136 235.824 51.9496 236.616 51.9496 237.656V245H48.5896V231.704H51.9496V233.312C52.3816 232.752 52.9336 232.312 53.6056 231.992C54.2936 231.672 55.0456 231.512 55.8616 231.512C56.9016 231.512 57.8296 231.736 58.6456 232.184C59.4616 232.616 60.0936 233.24 60.5416 234.056C60.9736 233.288 61.5976 232.672 62.4136 232.208C63.2456 231.744 64.1416 231.512 65.1016 231.512ZM77.098 233.624C77.53 233.016 78.122 232.512 78.874 232.112C79.642 231.696 80.514 231.488 81.49 231.488C82.626 231.488 83.65 231.768 84.562 232.328C85.49 232.888 86.218 233.688 86.746 234.728C87.29 235.752 87.562 236.944 87.562 238.304C87.562 239.664 87.29 240.872 86.746 241.928C86.218 242.968 85.49 243.776 84.562 244.352C83.65 244.928 82.626 245.216 81.49 245.216C80.514 245.216 79.65 245.016 78.898 244.616C78.162 244.216 77.562 243.712 77.098 243.104V251.336H73.738V231.704H77.098V233.624ZM84.13 238.304C84.13 237.504 83.962 236.816 83.626 236.24C83.306 235.648 82.874 235.2 82.33 234.896C81.802 234.592 81.226 234.44 80.602 234.44C79.994 234.44 79.418 234.6 78.874 234.92C78.346 235.224 77.914 235.672 77.578 236.264C77.258 236.856 77.098 237.552 77.098 238.352C77.098 239.152 77.258 239.848 77.578 240.44C77.914 241.032 78.346 241.488 78.874 241.808C79.418 242.112 79.994 242.264 80.602 242.264C81.226 242.264 81.802 242.104 82.33 241.784C82.874 241.464 83.306 241.008 83.626 240.416C83.962 239.824 84.13 239.12 84.13 238.304ZM93.3637 233.768C93.7957 233.064 94.3557 232.512 95.0437 232.112C95.7477 231.712 96.5477 231.512 97.4437 231.512V235.04H96.5557C95.4997 235.04 94.6997 235.288 94.1557 235.784C93.6277 236.28 93.3637 237.144 93.3637 238.376V245H90.0037V231.704H93.3637V233.768ZM105.611 245.216C104.331 245.216 103.179 244.936 102.155 244.376C101.131 243.8 100.323 242.992 99.7308 241.952C99.1548 240.912 98.8668 239.712 98.8668 238.352C98.8668 236.992 99.1628 235.792 99.7548 234.752C100.363 233.712 101.187 232.912 102.227 232.352C103.267 231.776 104.427 231.488 105.707 231.488C106.987 231.488 108.147 231.776 109.187 232.352C110.227 232.912 111.043 233.712 111.635 234.752C112.243 235.792 112.547 236.992 112.547 238.352C112.547 239.712 112.235 240.912 111.611 241.952C111.003 242.992 110.171 243.8 109.115 244.376C108.075 244.936 106.907 245.216 105.611 245.216ZM105.611 242.288C106.219 242.288 106.787 242.144 107.315 241.856C107.859 241.552 108.291 241.104 108.611 240.512C108.931 239.92 109.091 239.2 109.091 238.352C109.091 237.088 108.755 236.12 108.083 235.448C107.427 234.76 106.619 234.416 105.659 234.416C104.699 234.416 103.891 234.76 103.235 235.448C102.595 236.12 102.275 237.088 102.275 238.352C102.275 239.616 102.587 240.592 103.211 241.28C103.851 241.952 104.651 242.288 105.611 242.288ZM120.555 241.904L123.915 231.704H127.491L122.571 245H118.491L113.595 231.704H117.195L120.555 241.904ZM141.739 238.064C141.739 238.544 141.707 238.976 141.643 239.36H131.923C132.003 240.32 132.339 241.072 132.931 241.616C133.523 242.16 134.251 242.432 135.115 242.432C136.363 242.432 137.251 241.896 137.779 240.824H141.403C141.019 242.104 140.283 243.16 139.195 243.992C138.107 244.808 136.771 245.216 135.187 245.216C133.907 245.216 132.755 244.936 131.731 244.376C130.723 243.8 129.931 242.992 129.355 241.952C128.795 240.912 128.515 239.712 128.515 238.352C128.515 236.976 128.795 235.768 129.355 234.728C129.915 233.688 130.699 232.888 131.707 232.328C132.715 231.768 133.875 231.488 135.187 231.488C136.451 231.488 137.579 231.76 138.571 232.304C139.579 232.848 140.355 233.624 140.899 234.632C141.459 235.624 141.739 236.768 141.739 238.064ZM138.259 237.104C138.243 236.24 137.931 235.552 137.323 235.04C136.715 234.512 135.971 234.248 135.091 234.248C134.259 234.248 133.555 234.504 132.979 235.016C132.419 235.512 132.075 236.208 131.947 237.104H138.259ZM160.703 231.512C162.335 231.512 163.647 232.016 164.639 233.024C165.647 234.016 166.151 235.408 166.151 237.2V245H162.791V237.656C162.791 236.616 162.527 235.824 161.999 235.28C161.471 234.72 160.751 234.44 159.839 234.44C158.927 234.44 158.199 234.72 157.655 235.28C157.127 235.824 156.863 236.616 156.863 237.656V245H153.503V237.656C153.503 236.616 153.239 235.824 152.711 235.28C152.183 234.72 151.463 234.44 150.551 234.44C149.623 234.44 148.887 234.72 148.343 235.28C147.815 235.824 147.551 236.616 147.551 237.656V245H144.191V231.704H147.551V233.312C147.983 232.752 148.535 232.312 149.207 231.992C149.895 231.672 150.647 231.512 151.463 231.512C152.503 231.512 153.431 231.736 154.247 232.184C155.063 232.616 155.695 233.24 156.143 234.056C156.575 233.288 157.199 232.672 158.015 232.208C158.847 231.744 159.743 231.512 160.703 231.512ZM181.7 238.064C181.7 238.544 181.668 238.976 181.604 239.36H171.884C171.964 240.32 172.3 241.072 172.892 241.616C173.484 242.16 174.212 242.432 175.076 242.432C176.324 242.432 177.212 241.896 177.74 240.824H181.364C180.98 242.104 180.244 243.16 179.156 243.992C178.068 244.808 176.732 245.216 175.148 245.216C173.868 245.216 172.716 244.936 171.692 244.376C170.684 243.8 169.892 242.992 169.316 241.952C168.756 240.912 168.476 239.712 168.476 238.352C168.476 236.976 168.756 235.768 169.316 234.728C169.876 233.688 170.66 232.888 171.668 232.328C172.676 231.768 173.836 231.488 175.148 231.488C176.412 231.488 177.54 231.76 178.532 232.304C179.54 232.848 180.316 233.624 180.86 234.632C181.42 235.624 181.7 236.768 181.7 238.064ZM178.22 237.104C178.204 236.24 177.892 235.552 177.284 235.04C176.676 234.512 175.932 234.248 175.052 234.248C174.22 234.248 173.516 234.504 172.94 235.016C172.38 235.512 172.036 236.208 171.908 237.104H178.22ZM191.52 231.512C193.104 231.512 194.384 232.016 195.36 233.024C196.336 234.016 196.824 235.408 196.824 237.2V245H193.464V237.656C193.464 236.6 193.2 235.792 192.672 235.232C192.144 234.656 191.424 234.368 190.512 234.368C189.584 234.368 188.848 234.656 188.304 235.232C187.776 235.792 187.512 236.6 187.512 237.656V245H184.152V231.704H187.512V233.36C187.96 232.784 188.528 232.336 189.216 232.016C189.92 231.68 190.688 231.512 191.52 231.512ZM203.931 234.464V240.896C203.931 241.344 204.035 241.672 204.243 241.88C204.467 242.072 204.835 242.168 205.347 242.168H206.907V245H204.795C201.963 245 200.547 243.624 200.547 240.872V234.464H198.963V231.704H200.547V228.416H203.931V231.704H206.907V234.464H203.931ZM214.412 245.216C213.324 245.216 212.348 245.024 211.484 244.64C210.62 244.24 209.932 243.704 209.42 243.032C208.924 242.36 208.652 241.616 208.604 240.8H211.988C212.052 241.312 212.3 241.736 212.732 242.072C213.18 242.408 213.732 242.576 214.388 242.576C215.028 242.576 215.524 242.448 215.876 242.192C216.244 241.936 216.428 241.608 216.428 241.208C216.428 240.776 216.204 240.456 215.756 240.248C215.324 240.024 214.628 239.784 213.668 239.528C212.676 239.288 211.86 239.04 211.22 238.784C210.596 238.528 210.052 238.136 209.588 237.608C209.14 237.08 208.916 236.368 208.916 235.472C208.916 234.736 209.124 234.064 209.54 233.456C209.972 232.848 210.58 232.368 211.364 232.016C212.164 231.664 213.1 231.488 214.172 231.488C215.756 231.488 217.02 231.888 217.964 232.688C218.908 233.472 219.428 234.536 219.524 235.88H216.308C216.26 235.352 216.036 234.936 215.636 234.632C215.252 234.312 214.732 234.152 214.076 234.152C213.468 234.152 212.996 234.264 212.66 234.488C212.34 234.712 212.18 235.024 212.18 235.424C212.18 235.872 212.404 236.216 212.852 236.456C213.3 236.68 213.996 236.912 214.94 237.152C215.9 237.392 216.692 237.64 217.316 237.896C217.94 238.152 218.476 238.552 218.924 239.096C219.388 239.624 219.628 240.328 219.644 241.208C219.644 241.976 219.428 242.664 218.996 243.272C218.58 243.88 217.972 244.36 217.172 244.712C216.388 245.048 215.468 245.216 214.412 245.216Z" fill="#464646"/>
</svg>
