<svg width="213" height="248" viewBox="0 0 213 248" fill="none" xmlns="http://www.w3.org/2000/svg">
<path d="M60.7288 123.958H50.1663V46.0416H105.091L99.458 51.6375C98.132 52.9619 97.3834 54.7619 97.3768 56.6416C97.3702 58.5212 98.1062 60.3266 99.4228 61.6604C100.739 62.9942 102.529 63.7473 104.397 63.7539C106.266 63.7605 108.061 63.0202 109.387 61.6958L126.991 43.9875C127.651 43.329 128.175 42.5455 128.532 41.6824C128.89 40.8192 129.074 39.8934 129.074 38.9583C129.074 38.0232 128.89 37.0974 128.532 36.2342C128.175 35.371 127.651 34.5876 126.991 33.9291L109.387 16.2208C108.067 14.9015 106.283 14.161 104.422 14.161C102.562 14.161 100.777 14.9015 99.458 16.2208C98.798 16.8793 98.2741 17.6627 97.9167 18.5259C97.5592 19.389 97.3751 20.3149 97.3751 21.25C97.3751 22.185 97.5592 23.1109 97.9167 23.974C98.2741 24.8372 98.798 25.6206 99.458 26.2791L105.021 31.875H43.1247C41.2571 31.875 39.466 32.6212 38.1455 33.9496C36.8249 35.278 36.083 37.0797 36.083 38.9583V131.042C36.083 132.92 36.8249 134.722 38.1455 136.05C39.466 137.379 41.2571 138.125 43.1247 138.125H60.7288C62.5964 138.125 64.3875 137.379 65.7081 136.05C67.0286 134.722 67.7705 132.92 67.7705 131.042C67.7705 129.163 67.0286 127.361 65.7081 126.033C64.3875 124.705 62.5964 123.958 60.7288 123.958ZM169.875 31.875H152.271C150.403 31.875 148.612 32.6212 147.291 33.9496C145.971 35.278 145.229 37.0797 145.229 38.9583C145.229 40.8369 145.971 42.6386 147.291 43.967C148.612 45.2953 150.403 46.0416 152.271 46.0416H162.833V123.958H103.894L109.457 118.362C110.117 117.704 110.641 116.921 110.999 116.057C111.356 115.194 111.54 114.268 111.54 113.333C111.54 112.398 111.356 111.472 110.999 110.609C110.641 109.746 110.117 108.963 109.457 108.304C108.138 106.985 106.353 106.244 104.493 106.244C102.632 106.244 100.848 106.985 99.5284 108.304L81.9243 126.012C81.2643 126.671 80.7404 127.454 80.3829 128.318C80.0254 129.181 79.8413 130.107 79.8413 131.042C79.8413 131.977 80.0254 132.903 80.3829 133.766C80.7404 134.629 81.2643 135.412 81.9243 136.071L99.5284 153.779C100.854 155.104 102.649 155.844 104.518 155.837C106.386 155.831 108.176 155.078 109.492 153.744C110.809 152.41 111.545 150.605 111.538 148.725C111.532 146.845 110.783 145.045 109.457 143.721L103.894 138.125H169.875C171.742 138.125 173.533 137.379 174.854 136.05C176.174 134.722 176.916 132.92 176.916 131.042V38.9583C176.916 37.0797 176.174 35.278 174.854 33.9496C173.533 32.6212 171.742 31.875 169.875 31.875Z" fill="#464646"/>
<path d="M40.3129 187.96V192.16H45.9529V194.824H40.3129V199.264H46.6729V202H36.9529V185.224H46.6729V187.96H40.3129ZM57.0943 188.512C58.6783 188.512 59.9583 189.016 60.9343 190.024C61.9103 191.016 62.3983 192.408 62.3983 194.2V202H59.0383V194.656C59.0383 193.6 58.7743 192.792 58.2463 192.232C57.7183 191.656 56.9983 191.368 56.0863 191.368C55.1583 191.368 54.4223 191.656 53.8783 192.232C53.3503 192.792 53.0863 193.6 53.0863 194.656V202H49.7263V188.704H53.0863V190.36C53.5343 189.784 54.1023 189.336 54.7903 189.016C55.4943 188.68 56.2623 188.512 57.0943 188.512ZM64.7295 195.304C64.7295 193.96 64.9935 192.768 65.5215 191.728C66.0655 190.688 66.8015 189.888 67.7295 189.328C68.6575 188.768 69.6895 188.488 70.8255 188.488C71.6895 188.488 72.5135 188.68 73.2975 189.064C74.0815 189.432 74.7055 189.928 75.1695 190.552V184.24H78.5775V202H75.1695V200.032C74.7535 200.688 74.1695 201.216 73.4175 201.616C72.6655 202.016 71.7935 202.216 70.8015 202.216C69.6815 202.216 68.6575 201.928 67.7295 201.352C66.8015 200.776 66.0655 199.968 65.5215 198.928C64.9935 197.872 64.7295 196.664 64.7295 195.304ZM75.1935 195.352C75.1935 194.536 75.0335 193.84 74.7135 193.264C74.3935 192.672 73.9615 192.224 73.4175 191.92C72.8735 191.6 72.2895 191.44 71.6655 191.44C71.0415 191.44 70.4655 191.592 69.9375 191.896C69.4095 192.2 68.9775 192.648 68.6415 193.24C68.3215 193.816 68.1615 194.504 68.1615 195.304C68.1615 196.104 68.3215 196.808 68.6415 197.416C68.9775 198.008 69.4095 198.464 69.9375 198.784C70.4815 199.104 71.0575 199.264 71.6655 199.264C72.2895 199.264 72.8735 199.112 73.4175 198.808C73.9615 198.488 74.3935 198.04 74.7135 197.464C75.0335 196.872 75.1935 196.168 75.1935 195.352ZM92.0831 192.016V194.848H81.9071V192.016H92.0831ZM99.7633 191.464V197.896C99.7633 198.344 99.8673 198.672 100.075 198.88C100.299 199.072 100.667 199.168 101.179 199.168H102.739V202H100.627C97.7953 202 96.3793 200.624 96.3793 197.872V191.464H94.7953V188.704H96.3793V185.416H99.7633V188.704H102.739V191.464H99.7633ZM111.06 202.216C109.78 202.216 108.628 201.936 107.604 201.376C106.58 200.8 105.772 199.992 105.18 198.952C104.604 197.912 104.316 196.712 104.316 195.352C104.316 193.992 104.612 192.792 105.204 191.752C105.812 190.712 106.636 189.912 107.676 189.352C108.716 188.776 109.876 188.488 111.156 188.488C112.436 188.488 113.596 188.776 114.636 189.352C115.676 189.912 116.492 190.712 117.084 191.752C117.692 192.792 117.996 193.992 117.996 195.352C117.996 196.712 117.684 197.912 117.06 198.952C116.452 199.992 115.62 200.8 114.564 201.376C113.524 201.936 112.356 202.216 111.06 202.216ZM111.06 199.288C111.668 199.288 112.236 199.144 112.764 198.856C113.308 198.552 113.74 198.104 114.06 197.512C114.38 196.92 114.54 196.2 114.54 195.352C114.54 194.088 114.204 193.12 113.532 192.448C112.876 191.76 112.068 191.416 111.108 191.416C110.148 191.416 109.34 191.76 108.684 192.448C108.044 193.12 107.724 194.088 107.724 195.352C107.724 196.616 108.036 197.592 108.66 198.28C109.3 198.952 110.1 199.288 111.06 199.288ZM130.685 192.016V194.848H120.509V192.016H130.685ZM137.813 187.96V192.16H143.453V194.824H137.813V199.264H144.173V202H134.453V185.224H144.173V187.96H137.813ZM154.594 188.512C156.178 188.512 157.458 189.016 158.434 190.024C159.41 191.016 159.898 192.408 159.898 194.2V202H156.538V194.656C156.538 193.6 156.274 192.792 155.746 192.232C155.218 191.656 154.498 191.368 153.586 191.368C152.658 191.368 151.922 191.656 151.378 192.232C150.85 192.792 150.586 193.6 150.586 194.656V202H147.226V188.704H150.586V190.36C151.034 189.784 151.602 189.336 152.29 189.016C152.994 188.68 153.762 188.512 154.594 188.512ZM162.229 195.304C162.229 193.96 162.493 192.768 163.021 191.728C163.566 190.688 164.302 189.888 165.23 189.328C166.158 188.768 167.19 188.488 168.326 188.488C169.19 188.488 170.014 188.68 170.798 189.064C171.582 189.432 172.206 189.928 172.67 190.552V184.24H176.078V202H172.67V200.032C172.254 200.688 171.67 201.216 170.918 201.616C170.166 202.016 169.294 202.216 168.302 202.216C167.182 202.216 166.158 201.928 165.23 201.352C164.302 200.776 163.566 199.968 163.021 198.928C162.493 197.872 162.229 196.664 162.229 195.304ZM172.694 195.352C172.694 194.536 172.534 193.84 172.214 193.264C171.894 192.672 171.462 192.224 170.918 191.92C170.374 191.6 169.79 191.44 169.166 191.44C168.542 191.44 167.966 191.592 167.438 191.896C166.91 192.2 166.478 192.648 166.142 193.24C165.822 193.816 165.662 194.504 165.662 195.304C165.662 196.104 165.822 196.808 166.142 197.416C166.478 198.008 166.91 198.464 167.438 198.784C167.982 199.104 168.558 199.264 169.166 199.264C169.79 199.264 170.374 199.112 170.918 198.808C171.462 198.488 171.894 198.04 172.214 197.464C172.534 196.872 172.694 196.168 172.694 195.352ZM64.1236 238.168C62.9556 238.168 61.8996 237.968 60.9556 237.568C60.0276 237.168 59.2916 236.592 58.7476 235.84C58.2036 235.088 57.9236 234.2 57.9076 233.176H61.5076C61.5556 233.864 61.7956 234.408 62.2276 234.808C62.6756 235.208 63.2836 235.408 64.0516 235.408C64.8356 235.408 65.4516 235.224 65.8996 234.856C66.3476 234.472 66.5716 233.976 66.5716 233.368C66.5716 232.872 66.4196 232.464 66.1156 232.144C65.8116 231.824 65.4276 231.576 64.9636 231.4C64.5156 231.208 63.8916 231 63.0916 230.776C62.0036 230.456 61.1156 230.144 60.4276 229.84C59.7556 229.52 59.1716 229.048 58.6756 228.424C58.1956 227.784 57.9556 226.936 57.9556 225.88C57.9556 224.888 58.2036 224.024 58.6996 223.288C59.1956 222.552 59.8916 221.992 60.7876 221.608C61.6836 221.208 62.7076 221.008 63.8596 221.008C65.5876 221.008 66.9876 221.432 68.0596 222.28C69.1476 223.112 69.7476 224.28 69.8596 225.784H66.1636C66.1316 225.208 65.8836 224.736 65.4196 224.368C64.9716 223.984 64.3716 223.792 63.6196 223.792C62.9636 223.792 62.4356 223.96 62.0356 224.296C61.6516 224.632 61.4596 225.12 61.4596 225.76C61.4596 226.208 61.6036 226.584 61.8916 226.888C62.1956 227.176 62.5636 227.416 62.9956 227.608C63.4436 227.784 64.0676 227.992 64.8676 228.232C65.9556 228.552 66.8436 228.872 67.5316 229.192C68.2196 229.512 68.8116 229.992 69.3076 230.632C69.8036 231.272 70.0516 232.112 70.0516 233.152C70.0516 234.048 69.8196 234.88 69.3556 235.648C68.8916 236.416 68.2116 237.032 67.3156 237.496C66.4196 237.944 65.3556 238.168 64.1236 238.168ZM78.8686 238.216C77.5886 238.216 76.4366 237.936 75.4126 237.376C74.3886 236.8 73.5806 235.992 72.9886 234.952C72.4126 233.912 72.1246 232.712 72.1246 231.352C72.1246 229.992 72.4206 228.792 73.0126 227.752C73.6206 226.712 74.4446 225.912 75.4846 225.352C76.5246 224.776 77.6846 224.488 78.9646 224.488C80.2446 224.488 81.4046 224.776 82.4446 225.352C83.4846 225.912 84.3006 226.712 84.8926 227.752C85.5006 228.792 85.8046 229.992 85.8046 231.352C85.8046 232.712 85.4926 233.912 84.8686 234.952C84.2606 235.992 83.4286 236.8 82.3726 237.376C81.3326 237.936 80.1646 238.216 78.8686 238.216ZM78.8686 235.288C79.4766 235.288 80.0446 235.144 80.5726 234.856C81.1166 234.552 81.5486 234.104 81.8686 233.512C82.1886 232.92 82.3486 232.2 82.3486 231.352C82.3486 230.088 82.0126 229.12 81.3406 228.448C80.6846 227.76 79.8766 227.416 78.9166 227.416C77.9566 227.416 77.1486 227.76 76.4926 228.448C75.8526 229.12 75.5326 230.088 75.5326 231.352C75.5326 232.616 75.8446 233.592 76.4686 234.28C77.1086 234.952 77.9086 235.288 78.8686 235.288ZM91.6293 220.24V238H88.2693V220.24H91.6293ZM107.501 224.704V238H104.117V236.32C103.685 236.896 103.117 237.352 102.413 237.688C101.725 238.008 100.973 238.168 100.157 238.168C99.117 238.168 98.197 237.952 97.397 237.52C96.597 237.072 95.965 236.424 95.501 235.576C95.053 234.712 94.829 233.688 94.829 232.504V224.704H98.189V232.024C98.189 233.08 98.453 233.896 98.981 234.472C99.509 235.032 100.229 235.312 101.141 235.312C102.069 235.312 102.797 235.032 103.325 234.472C103.853 233.896 104.117 233.08 104.117 232.024V224.704H107.501ZM114.728 227.464V233.896C114.728 234.344 114.832 234.672 115.04 234.88C115.264 235.072 115.632 235.168 116.144 235.168H117.704V238H115.592C112.76 238 111.344 236.624 111.344 233.872V227.464H109.76V224.704H111.344V221.416H114.728V224.704H117.704V227.464H114.728ZM121.825 223.12C121.233 223.12 120.737 222.936 120.337 222.568C119.953 222.184 119.761 221.712 119.761 221.152C119.761 220.592 119.953 220.128 120.337 219.76C120.737 219.376 121.233 219.184 121.825 219.184C122.417 219.184 122.905 219.376 123.289 219.76C123.689 220.128 123.889 220.592 123.889 221.152C123.889 221.712 123.689 222.184 123.289 222.568C122.905 222.936 122.417 223.12 121.825 223.12ZM123.481 224.704V238H120.121V224.704H123.481ZM132.705 238.216C131.425 238.216 130.273 237.936 129.249 237.376C128.225 236.8 127.417 235.992 126.825 234.952C126.249 233.912 125.961 232.712 125.961 231.352C125.961 229.992 126.257 228.792 126.849 227.752C127.457 226.712 128.281 225.912 129.321 225.352C130.361 224.776 131.521 224.488 132.801 224.488C134.081 224.488 135.241 224.776 136.281 225.352C137.321 225.912 138.137 226.712 138.729 227.752C139.337 228.792 139.641 229.992 139.641 231.352C139.641 232.712 139.329 233.912 138.705 234.952C138.097 235.992 137.265 236.8 136.209 237.376C135.169 237.936 134.001 238.216 132.705 238.216ZM132.705 235.288C133.313 235.288 133.881 235.144 134.409 234.856C134.953 234.552 135.385 234.104 135.705 233.512C136.025 232.92 136.185 232.2 136.185 231.352C136.185 230.088 135.849 229.12 135.177 228.448C134.521 227.76 133.713 227.416 132.753 227.416C131.793 227.416 130.985 227.76 130.329 228.448C129.689 229.12 129.369 230.088 129.369 231.352C129.369 232.616 129.681 233.592 130.305 234.28C130.945 234.952 131.745 235.288 132.705 235.288ZM149.473 224.512C151.057 224.512 152.337 225.016 153.313 226.024C154.289 227.016 154.777 228.408 154.777 230.2V238H151.417V230.656C151.417 229.6 151.153 228.792 150.625 228.232C150.097 227.656 149.377 227.368 148.465 227.368C147.537 227.368 146.801 227.656 146.257 228.232C145.729 228.792 145.465 229.6 145.465 230.656V238H142.105V224.704H145.465V226.36C145.913 225.784 146.481 225.336 147.169 225.016C147.873 224.68 148.641 224.512 149.473 224.512Z" fill="#464646"/>
</svg>
