<svg width="130" height="190" viewBox="0 0 150 217" fill="none" xmlns="http://www.w3.org/2000/svg">
<path d="M124.517 63.2385H106.111C103.904 63.2385 102.074 61.4086 102.074 59.202V21.5818C102.074 17.5992 103.635 13.8856 106.434 11.087C109.232 8.28832 112.946 6.72754 116.929 6.72754H116.982C123.71 6.78136 130.06 9.41854 134.904 14.2085C139.748 19.1061 142.385 25.5645 142.385 32.292V45.3164C142.439 56.0266 135.227 63.2385 124.517 63.2385ZM110.147 55.1655H124.517C130.76 55.1655 134.366 51.5595 134.366 45.3164V32.292C134.366 27.6635 132.536 23.2503 129.253 19.9134C125.97 16.6842 121.611 14.8543 116.982 14.8005C116.982 14.8005 116.982 14.8005 116.929 14.8005C115.153 14.8005 113.43 15.5002 112.139 16.7919C110.847 18.0835 110.147 19.752 110.147 21.5818V55.1655Z" />
<path d="M68.4378 125.562C65.9083 125.562 63.5403 124.593 61.7642 122.763L52.8299 113.775C52.3455 113.291 51.5923 113.237 51.0541 113.668L41.8508 120.557C38.9983 122.709 35.2308 123.086 32.0016 121.472C28.7724 119.857 26.7812 116.628 26.7812 113.022V32.292C26.7812 16.0384 36.0921 6.72754 52.3457 6.72754H116.93C119.136 6.72754 120.966 8.55742 120.966 10.764C120.966 12.9707 119.136 14.8005 116.93 14.8005C113.216 14.8005 110.202 17.8144 110.202 21.528V113.022C110.202 116.628 108.211 119.857 104.981 121.472C101.806 123.086 97.9851 122.709 95.1326 120.557L85.9293 113.668C85.3911 113.237 84.6376 113.345 84.207 113.775L75.1653 122.817C73.3354 124.593 70.9674 125.562 68.4378 125.562ZM51.8073 105.326C54.283 105.326 56.7049 106.241 58.5348 108.124L67.4691 117.112C67.792 117.435 68.2225 117.489 68.4378 117.489C68.6531 117.489 69.0836 117.435 69.4065 117.112L78.4482 108.07C81.7851 104.734 87.0596 104.411 90.7732 107.263L99.9223 114.098C100.514 114.529 101.053 114.367 101.322 114.206C101.591 114.044 102.075 113.722 102.075 113.022V21.528C102.075 19.1061 102.667 16.7919 103.69 14.8005H52.2918C40.3438 14.8005 34.8004 20.344 34.8004 32.292V113.022C34.8004 113.775 35.2848 114.098 35.5539 114.26C35.8768 114.421 36.4151 114.529 36.9533 114.098L46.1563 107.209C47.8247 105.971 49.816 105.326 51.8073 105.326Z" />
<path d="M13.9306 159.432C13.9306 160.328 13.7146 161.168 13.2826 161.952C12.8666 162.736 12.2026 163.368 11.2906 163.848C10.3946 164.328 9.25859 164.568 7.88259 164.568H5.07459V171H1.71459V154.248H7.88259C9.17859 154.248 10.2826 154.472 11.1946 154.92C12.1066 155.368 12.7866 155.984 13.2346 156.768C13.6986 157.552 13.9306 158.44 13.9306 159.432ZM7.73859 161.856C8.66659 161.856 9.35459 161.648 9.80259 161.232C10.2506 160.8 10.4746 160.2 10.4746 159.432C10.4746 157.8 9.56259 156.984 7.73859 156.984H5.07459V161.856H7.73859ZM15.4522 164.304C15.4522 162.96 15.7162 161.768 16.2442 160.728C16.7882 159.688 17.5162 158.888 18.4282 158.328C19.3562 157.768 20.3882 157.488 21.5242 157.488C22.5162 157.488 23.3802 157.688 24.1162 158.088C24.8682 158.488 25.4682 158.992 25.9162 159.6V157.704H29.3002V171H25.9162V169.056C25.4842 169.68 24.8842 170.2 24.1162 170.616C23.3642 171.016 22.4922 171.216 21.5002 171.216C20.3802 171.216 19.3562 170.928 18.4282 170.352C17.5162 169.776 16.7882 168.968 16.2442 167.928C15.7162 166.872 15.4522 165.664 15.4522 164.304ZM25.9162 164.352C25.9162 163.536 25.7562 162.84 25.4362 162.264C25.1162 161.672 24.6842 161.224 24.1402 160.92C23.5962 160.6 23.0122 160.44 22.3882 160.44C21.7642 160.44 21.1882 160.592 20.6602 160.896C20.1322 161.2 19.7002 161.648 19.3642 162.24C19.0442 162.816 18.8842 163.504 18.8842 164.304C18.8842 165.104 19.0442 165.808 19.3642 166.416C19.7002 167.008 20.1322 167.464 20.6602 167.784C21.2042 168.104 21.7802 168.264 22.3882 168.264C23.0122 168.264 23.5962 168.112 24.1402 167.808C24.6842 167.488 25.1162 167.04 25.4362 166.464C25.7562 165.872 25.9162 165.168 25.9162 164.352ZM45.3018 157.704L37.0698 177.288H33.4938L36.3738 170.664L31.0458 157.704H34.8138L38.2458 166.992L41.7258 157.704H45.3018ZM50.473 159.768C50.905 159.064 51.465 158.512 52.153 158.112C52.857 157.712 53.657 157.512 54.553 157.512V161.04H53.665C52.609 161.04 51.809 161.288 51.265 161.784C50.737 162.28 50.473 163.144 50.473 164.376V171H47.113V157.704H50.473V159.768ZM62.7202 171.216C61.4402 171.216 60.2882 170.936 59.2642 170.376C58.2402 169.8 57.4322 168.992 56.8402 167.952C56.2642 166.912 55.9762 165.712 55.9762 164.352C55.9762 162.992 56.2722 161.792 56.8642 160.752C57.4722 159.712 58.2962 158.912 59.3362 158.352C60.3762 157.776 61.5362 157.488 62.8162 157.488C64.0962 157.488 65.2562 157.776 66.2962 158.352C67.3362 158.912 68.1522 159.712 68.7442 160.752C69.3522 161.792 69.6562 162.992 69.6562 164.352C69.6562 165.712 69.3442 166.912 68.7202 167.952C68.1122 168.992 67.2802 169.8 66.2242 170.376C65.1842 170.936 64.0162 171.216 62.7202 171.216ZM62.7202 168.288C63.3282 168.288 63.8962 168.144 64.4242 167.856C64.9682 167.552 65.4002 167.104 65.7202 166.512C66.0402 165.92 66.2002 165.2 66.2002 164.352C66.2002 163.088 65.8642 162.12 65.1922 161.448C64.5362 160.76 63.7282 160.416 62.7682 160.416C61.8082 160.416 61.0002 160.76 60.3442 161.448C59.7042 162.12 59.3842 163.088 59.3842 164.352C59.3842 165.616 59.6962 166.592 60.3202 167.28C60.9602 167.952 61.7602 168.288 62.7202 168.288ZM75.4808 153.24V171H72.1208V153.24H75.4808ZM82.1605 153.24V171H78.8005V153.24H82.1605ZM90.335 164.304C90.335 162.96 90.599 161.768 91.127 160.728C91.671 159.688 92.399 158.888 93.311 158.328C94.239 157.768 95.271 157.488 96.407 157.488C97.399 157.488 98.263 157.688 98.999 158.088C99.751 158.488 100.351 158.992 100.799 159.6V157.704H104.183V171H100.799V169.056C100.367 169.68 99.767 170.2 98.999 170.616C98.247 171.016 97.375 171.216 96.383 171.216C95.263 171.216 94.239 170.928 93.311 170.352C92.399 169.776 91.671 168.968 91.127 167.928C90.599 166.872 90.335 165.664 90.335 164.304ZM100.799 164.352C100.799 163.536 100.639 162.84 100.319 162.264C99.999 161.672 99.567 161.224 99.023 160.92C98.479 160.6 97.895 160.44 97.271 160.44C96.647 160.44 96.071 160.592 95.543 160.896C95.015 161.2 94.583 161.648 94.247 162.24C93.927 162.816 93.767 163.504 93.767 164.304C93.767 165.104 93.927 165.808 94.247 166.416C94.583 167.008 95.015 167.464 95.543 167.784C96.087 168.104 96.663 168.264 97.271 168.264C97.895 168.264 98.479 168.112 99.023 167.808C99.567 167.488 99.999 167.04 100.319 166.464C100.639 165.872 100.799 165.168 100.799 164.352ZM114.833 157.512C116.417 157.512 117.697 158.016 118.673 159.024C119.649 160.016 120.137 161.408 120.137 163.2V171H116.777V163.656C116.777 162.6 116.513 161.792 115.985 161.232C115.457 160.656 114.737 160.368 113.825 160.368C112.897 160.368 112.161 160.656 111.617 161.232C111.089 161.792 110.825 162.6 110.825 163.656V171H107.465V157.704H110.825V159.36C111.273 158.784 111.841 158.336 112.529 158.016C113.233 157.68 114.001 157.512 114.833 157.512ZM122.468 164.304C122.468 162.96 122.732 161.768 123.26 160.728C123.804 159.688 124.54 158.888 125.468 158.328C126.396 157.768 127.428 157.488 128.564 157.488C129.428 157.488 130.252 157.68 131.036 158.064C131.82 158.432 132.444 158.928 132.908 159.552V153.24H136.316V171H132.908V169.032C132.492 169.688 131.908 170.216 131.156 170.616C130.404 171.016 129.532 171.216 128.54 171.216C127.42 171.216 126.396 170.928 125.468 170.352C124.54 169.776 123.804 168.968 123.26 167.928C122.732 166.872 122.468 165.664 122.468 164.304ZM132.932 164.352C132.932 163.536 132.772 162.84 132.452 162.264C132.132 161.672 131.7 161.224 131.156 160.92C130.612 160.6 130.028 160.44 129.404 160.44C128.78 160.44 128.204 160.592 127.676 160.896C127.148 161.2 126.716 161.648 126.38 162.24C126.06 162.816 125.9 163.504 125.9 164.304C125.9 165.104 126.06 165.808 126.38 166.416C126.716 167.008 127.148 167.464 127.676 167.784C128.22 168.104 128.796 168.264 129.404 168.264C130.028 168.264 130.612 168.112 131.156 167.808C131.7 167.488 132.132 167.04 132.452 166.464C132.772 165.872 132.932 165.168 132.932 164.352ZM31.035 198.408C31.979 198.584 32.755 199.056 33.363 199.824C33.971 200.592 34.275 201.472 34.275 202.464C34.275 203.36 34.051 204.152 33.603 204.84C33.171 205.512 32.539 206.04 31.707 206.424C30.875 206.808 29.891 207 28.755 207H21.531V190.248H28.443C29.579 190.248 30.555 190.432 31.371 190.8C32.203 191.168 32.827 191.68 33.243 192.336C33.675 192.992 33.891 193.736 33.891 194.568C33.891 195.544 33.627 196.36 33.099 197.016C32.587 197.672 31.899 198.136 31.035 198.408ZM24.891 197.16H27.963C28.763 197.16 29.379 196.984 29.811 196.632C30.243 196.264 30.459 195.744 30.459 195.072C30.459 194.4 30.243 193.88 29.811 193.512C29.379 193.144 28.763 192.96 27.963 192.96H24.891V197.16ZM28.275 204.264C29.091 204.264 29.723 204.072 30.171 203.688C30.635 203.304 30.867 202.76 30.867 202.056C30.867 201.336 30.627 200.776 30.147 200.376C29.667 199.96 29.019 199.752 28.203 199.752H24.891V204.264H28.275ZM49.3129 200.064C49.3129 200.544 49.2809 200.976 49.2169 201.36H39.4969C39.5769 202.32 39.9129 203.072 40.5049 203.616C41.0969 204.16 41.8249 204.432 42.6889 204.432C43.9369 204.432 44.8249 203.896 45.3529 202.824H48.9769C48.5929 204.104 47.8569 205.16 46.7689 205.992C45.6809 206.808 44.3449 207.216 42.7609 207.216C41.4809 207.216 40.3289 206.936 39.3049 206.376C38.2969 205.8 37.5049 204.992 36.9289 203.952C36.3689 202.912 36.0889 201.712 36.0889 200.352C36.0889 198.976 36.3689 197.768 36.9289 196.728C37.4889 195.688 38.2729 194.888 39.2809 194.328C40.2889 193.768 41.4489 193.488 42.7609 193.488C44.0249 193.488 45.1529 193.76 46.1449 194.304C47.1529 194.848 47.9289 195.624 48.4729 196.632C49.0329 197.624 49.3129 198.768 49.3129 200.064ZM45.8329 199.104C45.8169 198.24 45.5049 197.552 44.8969 197.04C44.2889 196.512 43.5449 196.248 42.6649 196.248C41.8329 196.248 41.1289 196.504 40.5529 197.016C39.9929 197.512 39.6489 198.208 39.5209 199.104H45.8329ZM59.1334 193.512C60.7174 193.512 61.9974 194.016 62.9734 195.024C63.9494 196.016 64.4374 197.408 64.4374 199.2V207H61.0774V199.656C61.0774 198.6 60.8134 197.792 60.2854 197.232C59.7574 196.656 59.0374 196.368 58.1254 196.368C57.1974 196.368 56.4614 196.656 55.9174 197.232C55.3894 197.792 55.1254 198.6 55.1254 199.656V207H51.7654V193.704H55.1254V195.36C55.5734 194.784 56.1414 194.336 56.8294 194.016C57.5334 193.68 58.3014 193.512 59.1334 193.512ZM79.9926 200.064C79.9926 200.544 79.9606 200.976 79.8966 201.36H70.1766C70.2566 202.32 70.5926 203.072 71.1846 203.616C71.7766 204.16 72.5046 204.432 73.3686 204.432C74.6166 204.432 75.5046 203.896 76.0326 202.824H79.6566C79.2726 204.104 78.5366 205.16 77.4486 205.992C76.3606 206.808 75.0246 207.216 73.4406 207.216C72.1606 207.216 71.0086 206.936 69.9846 206.376C68.9766 205.8 68.1846 204.992 67.6086 203.952C67.0486 202.912 66.7686 201.712 66.7686 200.352C66.7686 198.976 67.0486 197.768 67.6086 196.728C68.1686 195.688 68.9526 194.888 69.9606 194.328C70.9686 193.768 72.1286 193.488 73.4406 193.488C74.7046 193.488 75.8326 193.76 76.8246 194.304C77.8326 194.848 78.6086 195.624 79.1526 196.632C79.7126 197.624 79.9926 198.768 79.9926 200.064ZM76.5126 199.104C76.4966 198.24 76.1846 197.552 75.5766 197.04C74.9686 196.512 74.2246 196.248 73.3446 196.248C72.5126 196.248 71.8086 196.504 71.2326 197.016C70.6726 197.512 70.3286 198.208 70.2006 199.104H76.5126ZM88.5411 196.464H86.2131V207H82.8051V196.464H81.2931V193.704H82.8051V193.032C82.8051 191.4 83.2691 190.2 84.1971 189.432C85.1251 188.664 86.5251 188.304 88.3971 188.352V191.184C87.5811 191.168 87.0131 191.304 86.6931 191.592C86.3731 191.88 86.2131 192.4 86.2131 193.152V193.704H88.5411V196.464ZM92.4225 192.12C91.8305 192.12 91.3345 191.936 90.9345 191.568C90.5505 191.184 90.3585 190.712 90.3585 190.152C90.3585 189.592 90.5505 189.128 90.9345 188.76C91.3345 188.376 91.8305 188.184 92.4225 188.184C93.0145 188.184 93.5025 188.376 93.8865 188.76C94.2865 189.128 94.4865 189.592 94.4865 190.152C94.4865 190.712 94.2865 191.184 93.8865 191.568C93.5025 191.936 93.0145 192.12 92.4225 192.12ZM94.0785 193.704V207H90.7185V193.704H94.0785ZM101.31 196.464V202.896C101.31 203.344 101.414 203.672 101.622 203.88C101.846 204.072 102.214 204.168 102.726 204.168H104.286V207H102.174C99.3422 207 97.9262 205.624 97.9262 202.872V196.464H96.3422V193.704H97.9262V190.416H101.31V193.704H104.286V196.464H101.31ZM111.791 207.216C110.703 207.216 109.727 207.024 108.863 206.64C107.999 206.24 107.311 205.704 106.799 205.032C106.303 204.36 106.031 203.616 105.983 202.8H109.367C109.431 203.312 109.679 203.736 110.111 204.072C110.559 204.408 111.111 204.576 111.767 204.576C112.407 204.576 112.903 204.448 113.255 204.192C113.623 203.936 113.807 203.608 113.807 203.208C113.807 202.776 113.583 202.456 113.135 202.248C112.703 202.024 112.007 201.784 111.047 201.528C110.055 201.288 109.239 201.04 108.599 200.784C107.975 200.528 107.431 200.136 106.967 199.608C106.519 199.08 106.295 198.368 106.295 197.472C106.295 196.736 106.503 196.064 106.919 195.456C107.351 194.848 107.959 194.368 108.743 194.016C109.543 193.664 110.479 193.488 111.551 193.488C113.135 193.488 114.399 193.888 115.343 194.688C116.287 195.472 116.807 196.536 116.903 197.88H113.687C113.639 197.352 113.415 196.936 113.015 196.632C112.631 196.312 112.111 196.152 111.455 196.152C110.847 196.152 110.375 196.264 110.039 196.488C109.719 196.712 109.559 197.024 109.559 197.424C109.559 197.872 109.783 198.216 110.231 198.456C110.679 198.68 111.375 198.912 112.319 199.152C113.279 199.392 114.071 199.64 114.695 199.896C115.319 200.152 115.855 200.552 116.303 201.096C116.767 201.624 117.007 202.328 117.023 203.208C117.023 203.976 116.807 204.664 116.375 205.272C115.959 205.88 115.351 206.36 114.551 206.712C113.767 207.048 112.847 207.216 111.791 207.216Z" />
</svg>
