<svg width="146" height="203" viewBox="0 0 146 203" fill="none" xmlns="http://www.w3.org/2000/svg">
<path d="M5.13709 140.248V157H1.77709V140.248H5.13709ZM15.8248 143.512C17.4088 143.512 18.6888 144.016 19.6648 145.024C20.6408 146.016 21.1288 147.408 21.1288 149.2V157H17.7688V149.656C17.7688 148.6 17.5048 147.792 16.9768 147.232C16.4488 146.656 15.7288 146.368 14.8168 146.368C13.8888 146.368 13.1528 146.656 12.6088 147.232C12.0808 147.792 11.8168 148.6 11.8168 149.656V157H8.45678V143.704H11.8168V145.36C12.2648 144.784 12.8328 144.336 13.5208 144.016C14.2248 143.68 14.9928 143.512 15.8248 143.512ZM28.236 146.464V152.896C28.236 153.344 28.34 153.672 28.548 153.88C28.772 154.072 29.14 154.168 29.652 154.168H31.212V157H29.1C26.268 157 24.852 155.624 24.852 152.872V146.464H23.268V143.704H24.852V140.416H28.236V143.704H31.212V146.464H28.236ZM45.9887 150.064C45.9887 150.544 45.9567 150.976 45.8927 151.36H36.1727C36.2527 152.32 36.5887 153.072 37.1807 153.616C37.7727 154.16 38.5007 154.432 39.3647 154.432C40.6127 154.432 41.5007 153.896 42.0287 152.824H45.6527C45.2687 154.104 44.5327 155.16 43.4447 155.992C42.3567 156.808 41.0207 157.216 39.4367 157.216C38.1567 157.216 37.0047 156.936 35.9807 156.376C34.9727 155.8 34.1807 154.992 33.6047 153.952C33.0447 152.912 32.7647 151.712 32.7647 150.352C32.7647 148.976 33.0447 147.768 33.6047 146.728C34.1647 145.688 34.9487 144.888 35.9567 144.328C36.9647 143.768 38.1247 143.488 39.4367 143.488C40.7007 143.488 41.8287 143.76 42.8207 144.304C43.8287 144.848 44.6047 145.624 45.1487 146.632C45.7087 147.624 45.9887 148.768 45.9887 150.064ZM42.5087 149.104C42.4927 148.24 42.1807 147.552 41.5727 147.04C40.9647 146.512 40.2207 146.248 39.3407 146.248C38.5087 146.248 37.8047 146.504 37.2287 147.016C36.6687 147.512 36.3247 148.208 36.1967 149.104H42.5087ZM51.8012 145.768C52.2332 145.064 52.7932 144.512 53.4812 144.112C54.1852 143.712 54.9852 143.512 55.8812 143.512V147.04H54.9932C53.9372 147.04 53.1372 147.288 52.5932 147.784C52.0652 148.28 51.8012 149.144 51.8012 150.376V157H48.4412V143.704H51.8012V145.768ZM63.3523 143.488C64.3443 143.488 65.2163 143.688 65.9683 144.088C66.7203 144.472 67.3123 144.976 67.7443 145.6V143.704H71.1283V157.096C71.1283 158.328 70.8803 159.424 70.3843 160.384C69.8883 161.36 69.1443 162.128 68.1523 162.688C67.1603 163.264 65.9603 163.552 64.5523 163.552C62.6643 163.552 61.1123 163.112 59.8963 162.232C58.6963 161.352 58.0163 160.152 57.8563 158.632H61.1923C61.3683 159.24 61.7443 159.72 62.3203 160.072C62.9123 160.44 63.6243 160.624 64.4563 160.624C65.4323 160.624 66.2243 160.328 66.8323 159.736C67.4403 159.16 67.7443 158.28 67.7443 157.096V155.032C67.3123 155.656 66.7123 156.176 65.9443 156.592C65.1923 157.008 64.3283 157.216 63.3523 157.216C62.2323 157.216 61.2083 156.928 60.2803 156.352C59.3523 155.776 58.6163 154.968 58.0723 153.928C57.5443 152.872 57.2803 151.664 57.2803 150.304C57.2803 148.96 57.5443 147.768 58.0723 146.728C58.6163 145.688 59.3443 144.888 60.2563 144.328C61.1843 143.768 62.2163 143.488 63.3523 143.488ZM67.7443 150.352C67.7443 149.536 67.5843 148.84 67.2643 148.264C66.9443 147.672 66.5123 147.224 65.9683 146.92C65.4243 146.6 64.8403 146.44 64.2163 146.44C63.5923 146.44 63.0163 146.592 62.4883 146.896C61.9603 147.2 61.5283 147.648 61.1923 148.24C60.8723 148.816 60.7123 149.504 60.7123 150.304C60.7123 151.104 60.8723 151.808 61.1923 152.416C61.5283 153.008 61.9603 153.464 62.4883 153.784C63.0323 154.104 63.6083 154.264 64.2163 154.264C64.8403 154.264 65.4243 154.112 65.9683 153.808C66.5123 153.488 66.9443 153.04 67.2643 152.464C67.5843 151.872 67.7443 151.168 67.7443 150.352ZM77.7699 145.768C78.2019 145.064 78.7619 144.512 79.4499 144.112C80.1539 143.712 80.9539 143.512 81.8499 143.512V147.04H80.9619C79.9059 147.04 79.1059 147.288 78.5619 147.784C78.0339 148.28 77.7699 149.144 77.7699 150.376V157H74.4099V143.704H77.7699V145.768ZM83.249 150.304C83.249 148.96 83.513 147.768 84.041 146.728C84.585 145.688 85.313 144.888 86.225 144.328C87.153 143.768 88.185 143.488 89.321 143.488C90.313 143.488 91.177 143.688 91.913 144.088C92.665 144.488 93.265 144.992 93.713 145.6V143.704H97.097V157H93.713V155.056C93.281 155.68 92.681 156.2 91.913 156.616C91.161 157.016 90.289 157.216 89.297 157.216C88.177 157.216 87.153 156.928 86.225 156.352C85.313 155.776 84.585 154.968 84.041 153.928C83.513 152.872 83.249 151.664 83.249 150.304ZM93.713 150.352C93.713 149.536 93.553 148.84 93.233 148.264C92.913 147.672 92.481 147.224 91.937 146.92C91.393 146.6 90.809 146.44 90.185 146.44C89.561 146.44 88.985 146.592 88.457 146.896C87.929 147.2 87.497 147.648 87.161 148.24C86.841 148.816 86.681 149.504 86.681 150.304C86.681 151.104 86.841 151.808 87.161 152.416C87.497 153.008 87.929 153.464 88.457 153.784C89.001 154.104 89.577 154.264 90.185 154.264C90.809 154.264 91.393 154.112 91.937 153.808C92.481 153.488 92.913 153.04 93.233 152.464C93.553 151.872 93.713 151.168 93.713 150.352ZM104.291 146.464V152.896C104.291 153.344 104.395 153.672 104.603 153.88C104.827 154.072 105.195 154.168 105.707 154.168H107.267V157H105.155C102.323 157 100.907 155.624 100.907 152.872V146.464H99.3227V143.704H100.907V140.416H104.291V143.704H107.267V146.464H104.291ZM111.387 142.12C110.795 142.12 110.299 141.936 109.899 141.568C109.515 141.184 109.323 140.712 109.323 140.152C109.323 139.592 109.515 139.128 109.899 138.76C110.299 138.376 110.795 138.184 111.387 138.184C111.979 138.184 112.467 138.376 112.851 138.76C113.251 139.128 113.451 139.592 113.451 140.152C113.451 140.712 113.251 141.184 112.851 141.568C112.467 141.936 111.979 142.12 111.387 142.12ZM113.043 143.704V157H109.683V143.704H113.043ZM122.267 157.216C120.987 157.216 119.835 156.936 118.811 156.376C117.787 155.8 116.979 154.992 116.387 153.952C115.811 152.912 115.523 151.712 115.523 150.352C115.523 148.992 115.819 147.792 116.411 146.752C117.019 145.712 117.843 144.912 118.883 144.352C119.923 143.776 121.083 143.488 122.363 143.488C123.643 143.488 124.803 143.776 125.843 144.352C126.883 144.912 127.699 145.712 128.291 146.752C128.899 147.792 129.203 148.992 129.203 150.352C129.203 151.712 128.891 152.912 128.267 153.952C127.659 154.992 126.827 155.8 125.771 156.376C124.731 156.936 123.563 157.216 122.267 157.216ZM122.267 154.288C122.875 154.288 123.443 154.144 123.971 153.856C124.515 153.552 124.947 153.104 125.267 152.512C125.587 151.92 125.747 151.2 125.747 150.352C125.747 149.088 125.411 148.12 124.739 147.448C124.083 146.76 123.275 146.416 122.315 146.416C121.355 146.416 120.547 146.76 119.891 147.448C119.251 148.12 118.931 149.088 118.931 150.352C118.931 151.616 119.243 152.592 119.867 153.28C120.507 153.952 121.307 154.288 122.267 154.288ZM139.036 143.512C140.62 143.512 141.9 144.016 142.876 145.024C143.852 146.016 144.34 147.408 144.34 149.2V157H140.98V149.656C140.98 148.6 140.716 147.792 140.188 147.232C139.66 146.656 138.94 146.368 138.028 146.368C137.1 146.368 136.364 146.656 135.82 147.232C135.292 147.792 135.028 148.6 135.028 149.656V157H131.668V143.704H135.028V145.36C135.476 144.784 136.044 144.336 136.732 144.016C137.436 143.68 138.204 143.512 139.036 143.512ZM41.1263 176.248V178.96H36.6623V193H33.3023V178.96H28.8383V176.248H41.1263ZM55.9379 186.064C55.9379 186.544 55.9059 186.976 55.8419 187.36H46.1219C46.2019 188.32 46.5379 189.072 47.1299 189.616C47.7219 190.16 48.4499 190.432 49.3139 190.432C50.5619 190.432 51.4499 189.896 51.9779 188.824H55.6019C55.2179 190.104 54.4819 191.16 53.3939 191.992C52.3059 192.808 50.9699 193.216 49.3859 193.216C48.1059 193.216 46.9539 192.936 45.9299 192.376C44.9219 191.8 44.1299 190.992 43.5539 189.952C42.9939 188.912 42.7139 187.712 42.7139 186.352C42.7139 184.976 42.9939 183.768 43.5539 182.728C44.1139 181.688 44.8979 180.888 45.9059 180.328C46.9139 179.768 48.0739 179.488 49.3859 179.488C50.6499 179.488 51.7779 179.76 52.7699 180.304C53.7779 180.848 54.5539 181.624 55.0979 182.632C55.6579 183.624 55.9379 184.768 55.9379 186.064ZM52.4579 185.104C52.4419 184.24 52.1299 183.552 51.5219 183.04C50.9139 182.512 50.1699 182.248 49.2899 182.248C48.4579 182.248 47.7539 182.504 47.1779 183.016C46.6179 183.512 46.2739 184.208 46.1459 185.104H52.4579ZM63.4784 193.216C62.3904 193.216 61.4144 193.024 60.5504 192.64C59.6864 192.24 58.9984 191.704 58.4864 191.032C57.9904 190.36 57.7184 189.616 57.6704 188.8H61.0544C61.1184 189.312 61.3664 189.736 61.7984 190.072C62.2464 190.408 62.7984 190.576 63.4544 190.576C64.0944 190.576 64.5904 190.448 64.9424 190.192C65.3104 189.936 65.4944 189.608 65.4944 189.208C65.4944 188.776 65.2704 188.456 64.8224 188.248C64.3904 188.024 63.6944 187.784 62.7344 187.528C61.7424 187.288 60.9264 187.04 60.2864 186.784C59.6624 186.528 59.1184 186.136 58.6544 185.608C58.2064 185.08 57.9824 184.368 57.9824 183.472C57.9824 182.736 58.1904 182.064 58.6064 181.456C59.0384 180.848 59.6464 180.368 60.4304 180.016C61.2304 179.664 62.1664 179.488 63.2384 179.488C64.8224 179.488 66.0864 179.888 67.0304 180.688C67.9744 181.472 68.4944 182.536 68.5904 183.88H65.3744C65.3264 183.352 65.1024 182.936 64.7024 182.632C64.3184 182.312 63.7984 182.152 63.1424 182.152C62.5344 182.152 62.0624 182.264 61.7264 182.488C61.4064 182.712 61.2464 183.024 61.2464 183.424C61.2464 183.872 61.4704 184.216 61.9184 184.456C62.3664 184.68 63.0624 184.912 64.0064 185.152C64.9664 185.392 65.7584 185.64 66.3824 185.896C67.0064 186.152 67.5424 186.552 67.9904 187.096C68.4544 187.624 68.6944 188.328 68.7104 189.208C68.7104 189.976 68.4944 190.664 68.0624 191.272C67.6464 191.88 67.0384 192.36 66.2384 192.712C65.4544 193.048 64.5344 193.216 63.4784 193.216ZM75.3805 182.464V188.896C75.3805 189.344 75.4845 189.672 75.6925 189.88C75.9165 190.072 76.2845 190.168 76.7965 190.168H78.3565V193H76.2445C73.4125 193 71.9965 191.624 71.9965 188.872V182.464H70.4125V179.704H71.9965V176.416H75.3805V179.704H78.3565V182.464H75.3805ZM82.4772 178.12C81.8852 178.12 81.3892 177.936 80.9892 177.568C80.6052 177.184 80.4132 176.712 80.4132 176.152C80.4132 175.592 80.6052 175.128 80.9892 174.76C81.3892 174.376 81.8852 174.184 82.4772 174.184C83.0692 174.184 83.5572 174.376 83.9412 174.76C84.3412 175.128 84.5412 175.592 84.5412 176.152C84.5412 176.712 84.3412 177.184 83.9412 177.568C83.5572 177.936 83.0692 178.12 82.4772 178.12ZM84.1332 179.704V193H80.7732V179.704H84.1332ZM94.8209 179.512C96.4049 179.512 97.6849 180.016 98.6609 181.024C99.6369 182.016 100.125 183.408 100.125 185.2V193H96.7649V185.656C96.7649 184.6 96.5009 183.792 95.9729 183.232C95.4449 182.656 94.7249 182.368 93.8129 182.368C92.8849 182.368 92.1489 182.656 91.6049 183.232C91.0769 183.792 90.8129 184.6 90.8129 185.656V193H87.4529V179.704H90.8129V181.36C91.2609 180.784 91.8289 180.336 92.5169 180.016C93.2209 179.68 93.9889 179.512 94.8209 179.512ZM108.528 179.488C109.52 179.488 110.392 179.688 111.144 180.088C111.896 180.472 112.488 180.976 112.92 181.6V179.704H116.304V193.096C116.304 194.328 116.056 195.424 115.56 196.384C115.064 197.36 114.32 198.128 113.328 198.688C112.336 199.264 111.136 199.552 109.728 199.552C107.84 199.552 106.288 199.112 105.072 198.232C103.872 197.352 103.192 196.152 103.032 194.632H106.368C106.544 195.24 106.92 195.72 107.496 196.072C108.088 196.44 108.8 196.624 109.632 196.624C110.608 196.624 111.4 196.328 112.008 195.736C112.616 195.16 112.92 194.28 112.92 193.096V191.032C112.488 191.656 111.888 192.176 111.12 192.592C110.368 193.008 109.504 193.216 108.528 193.216C107.408 193.216 106.384 192.928 105.456 192.352C104.528 191.776 103.792 190.968 103.248 189.928C102.72 188.872 102.456 187.664 102.456 186.304C102.456 184.96 102.72 183.768 103.248 182.728C103.792 181.688 104.52 180.888 105.432 180.328C106.36 179.768 107.392 179.488 108.528 179.488ZM112.92 186.352C112.92 185.536 112.76 184.84 112.44 184.264C112.12 183.672 111.688 183.224 111.144 182.92C110.6 182.6 110.016 182.44 109.392 182.44C108.768 182.44 108.192 182.592 107.664 182.896C107.136 183.2 106.704 183.648 106.368 184.24C106.048 184.816 105.888 185.504 105.888 186.304C105.888 187.104 106.048 187.808 106.368 188.416C106.704 189.008 107.136 189.464 107.664 189.784C108.208 190.104 108.784 190.264 109.392 190.264C110.016 190.264 110.6 190.112 111.144 189.808C111.688 189.488 112.12 189.04 112.44 188.464C112.76 187.872 112.92 187.168 112.92 186.352Z" />
<path d="M88.752 119.439H57.252C28.7445 119.439 16.5645 107.259 16.5645 78.752V47.252C16.5645 18.7445 28.7445 6.56445 57.252 6.56445H88.752C117.259 6.56445 129.439 18.7445 129.439 47.252V78.752C129.439 107.259 117.259 119.439 88.752 119.439ZM57.252 14.4395C33.0495 14.4395 24.4395 23.0495 24.4395 47.252V78.752C24.4395 102.954 33.0495 111.564 57.252 111.564H88.752C112.954 111.564 121.564 102.954 121.564 78.752V47.252C121.564 23.0495 112.954 14.4395 88.752 14.4395H57.252Z" />
<path d="M83.5 93.1875H62.5C51.6325 93.1875 42.8125 84.3675 42.8125 73.5V52.5C42.8125 41.6325 51.6325 32.8125 62.5 32.8125H83.5C94.3675 32.8125 103.188 41.6325 103.188 52.5V73.5C103.188 84.3675 94.3675 93.1875 83.5 93.1875ZM62.5 40.6875C55.99 40.6875 50.6875 45.99 50.6875 52.5V73.5C50.6875 80.01 55.99 85.3125 62.5 85.3125H83.5C90.01 85.3125 95.3125 80.01 95.3125 73.5V52.5C95.3125 45.99 90.01 40.6875 83.5 40.6875H62.5Z" />
<path d="M73 93.1875C70.8475 93.1875 69.0625 91.4025 69.0625 89.25V36.75C69.0625 34.5975 70.8475 32.8125 73 32.8125C75.1525 32.8125 76.9375 34.5975 76.9375 36.75V89.25C76.9375 91.4025 75.1525 93.1875 73 93.1875Z" />
<path d="M99.25 66.9375H46.75C44.5975 66.9375 42.8125 65.1525 42.8125 63C42.8125 60.8475 44.5975 59.0625 46.75 59.0625H99.25C101.402 59.0625 103.188 60.8475 103.188 63C103.188 65.1525 101.402 66.9375 99.25 66.9375Z" />
</svg>
