<svg width="199" height="244" viewBox="0 0 199 244" fill="none" xmlns="http://www.w3.org/2000/svg">
<path d="M72.666 39.2915C69.8643 39.2915 67.541 36.9682 67.541 34.1665V13.6665C67.541 10.8648 69.8643 8.5415 72.666 8.5415C75.4677 8.5415 77.791 10.8648 77.791 13.6665V34.1665C77.791 36.9682 75.4677 39.2915 72.666 39.2915Z" />
<path d="M127.334 39.2915C124.532 39.2915 122.209 36.9682 122.209 34.1665V13.6665C122.209 10.8648 124.532 8.5415 127.334 8.5415C130.136 8.5415 132.459 10.8648 132.459 13.6665V34.1665C132.459 36.9682 130.136 39.2915 127.334 39.2915Z"/>
<path d="M120.501 80.2915H65.834C63.0323 80.2915 60.709 77.9682 60.709 75.1665C60.709 72.3648 63.0323 70.0415 65.834 70.0415H120.501C123.302 70.0415 125.626 72.3648 125.626 75.1665C125.626 77.9682 123.302 80.2915 120.501 80.2915Z"/>
<path d="M100.001 107.625H65.834C63.0323 107.625 60.709 105.302 60.709 102.5C60.709 99.6983 63.0323 97.375 65.834 97.375H100.001C102.802 97.375 105.126 99.6983 105.126 102.5C105.126 105.302 102.802 107.625 100.001 107.625Z"/>
<path d="M120.5 155.458H79.5C41.0967 155.458 33.375 137.35 33.375 108.103V65.9415C33.375 33.5515 44.3083 20.3632 72.3933 18.7915H127.333C155.692 20.3632 166.625 33.5515 166.625 65.9415V109.333C166.625 112.135 164.302 114.458 161.5 114.458C158.698 114.458 156.375 112.135 156.375 109.333V65.9415C156.375 36.1482 146.467 30.1348 127.06 29.0415H72.6667C53.5333 30.1348 43.625 36.1482 43.625 65.9415V108.103C43.625 134.275 48.6133 145.208 79.5 145.208H120.5C123.302 145.208 125.625 147.532 125.625 150.333C125.625 153.135 123.302 155.458 120.5 155.458Z"/>
<path d="M120.5 155.458C119.817 155.458 119.202 155.322 118.518 155.049C116.605 154.229 115.375 152.383 115.375 150.333V129.833C115.375 113.297 124.463 104.208 141 104.208H161.5C163.55 104.208 165.463 105.438 166.215 107.352C167.035 109.265 166.557 111.452 165.122 112.955L124.122 153.955C123.165 154.912 121.867 155.458 120.5 155.458ZM141 114.458C130.203 114.458 125.625 119.037 125.625 129.833V137.965L149.132 114.458H141Z"/>
<path d="M5.44569 181.248V198H2.08569V181.248H5.44569ZM25.2774 184.512C26.9094 184.512 28.2214 185.016 29.2134 186.024C30.2214 187.016 30.7254 188.408 30.7254 190.2V198H27.3654V190.656C27.3654 189.616 27.1014 188.824 26.5734 188.28C26.0454 187.72 25.3254 187.44 24.4134 187.44C23.5014 187.44 22.7734 187.72 22.2294 188.28C21.7014 188.824 21.4374 189.616 21.4374 190.656V198H18.0774V190.656C18.0774 189.616 17.8134 188.824 17.2854 188.28C16.7574 187.72 16.0374 187.44 15.1254 187.44C14.1974 187.44 13.4614 187.72 12.9174 188.28C12.3894 188.824 12.1254 189.616 12.1254 190.656V198H8.76538V184.704H12.1254V186.312C12.5574 185.752 13.1094 185.312 13.7814 184.992C14.4694 184.672 15.2214 184.512 16.0374 184.512C17.0774 184.512 18.0054 184.736 18.8214 185.184C19.6374 185.616 20.2694 186.24 20.7174 187.056C21.1494 186.288 21.7734 185.672 22.5894 185.208C23.4214 184.744 24.3174 184.512 25.2774 184.512ZM37.2738 186.624C37.7058 186.016 38.2978 185.512 39.0498 185.112C39.8178 184.696 40.6898 184.488 41.6658 184.488C42.8018 184.488 43.8258 184.768 44.7378 185.328C45.6658 185.888 46.3938 186.688 46.9218 187.728C47.4658 188.752 47.7378 189.944 47.7378 191.304C47.7378 192.664 47.4658 193.872 46.9218 194.928C46.3938 195.968 45.6658 196.776 44.7378 197.352C43.8258 197.928 42.8018 198.216 41.6658 198.216C40.6898 198.216 39.8258 198.016 39.0738 197.616C38.3378 197.216 37.7378 196.712 37.2738 196.104V204.336H33.9138V184.704H37.2738V186.624ZM44.3058 191.304C44.3058 190.504 44.1378 189.816 43.8018 189.24C43.4818 188.648 43.0498 188.2 42.5058 187.896C41.9778 187.592 41.4018 187.44 40.7778 187.44C40.1698 187.44 39.5938 187.6 39.0498 187.92C38.5218 188.224 38.0898 188.672 37.7538 189.264C37.4338 189.856 37.2738 190.552 37.2738 191.352C37.2738 192.152 37.4338 192.848 37.7538 193.44C38.0898 194.032 38.5218 194.488 39.0498 194.808C39.5938 195.112 40.1698 195.264 40.7778 195.264C41.4018 195.264 41.9778 195.104 42.5058 194.784C43.0498 194.464 43.4818 194.008 43.8018 193.416C44.1378 192.824 44.3058 192.12 44.3058 191.304ZM53.5394 180.24V198H50.1794V180.24H53.5394ZM69.2191 191.064C69.2191 191.544 69.1871 191.976 69.1231 192.36H59.4031C59.4831 193.32 59.8191 194.072 60.4111 194.616C61.0031 195.16 61.7311 195.432 62.5951 195.432C63.8431 195.432 64.7311 194.896 65.2591 193.824H68.8831C68.4991 195.104 67.7631 196.16 66.6751 196.992C65.5871 197.808 64.2511 198.216 62.6671 198.216C61.3871 198.216 60.2351 197.936 59.2111 197.376C58.2031 196.8 57.4111 195.992 56.8351 194.952C56.2751 193.912 55.9951 192.712 55.9951 191.352C55.9951 189.976 56.2751 188.768 56.8351 187.728C57.3951 186.688 58.1791 185.888 59.1871 185.328C60.1951 184.768 61.3551 184.488 62.6671 184.488C63.9311 184.488 65.0591 184.76 66.0511 185.304C67.0591 185.848 67.8351 186.624 68.3791 187.632C68.9391 188.624 69.2191 189.768 69.2191 191.064ZM65.7391 190.104C65.7231 189.24 65.4111 188.552 64.8031 188.04C64.1951 187.512 63.4511 187.248 62.5711 187.248C61.7391 187.248 61.0351 187.504 60.4591 188.016C59.8991 188.512 59.5551 189.208 59.4271 190.104H65.7391ZM88.1836 184.512C89.8156 184.512 91.1276 185.016 92.1196 186.024C93.1276 187.016 93.6316 188.408 93.6316 190.2V198H90.2716V190.656C90.2716 189.616 90.0076 188.824 89.4796 188.28C88.9516 187.72 88.2316 187.44 87.3196 187.44C86.4076 187.44 85.6796 187.72 85.1356 188.28C84.6076 188.824 84.3436 189.616 84.3436 190.656V198H80.9836V190.656C80.9836 189.616 80.7196 188.824 80.1916 188.28C79.6636 187.72 78.9436 187.44 78.0316 187.44C77.1036 187.44 76.3676 187.72 75.8236 188.28C75.2956 188.824 75.0316 189.616 75.0316 190.656V198H71.6716V184.704H75.0316V186.312C75.4636 185.752 76.0156 185.312 76.6876 184.992C77.3756 184.672 78.1276 184.512 78.9436 184.512C79.9836 184.512 80.9116 184.736 81.7276 185.184C82.5436 185.616 83.1756 186.24 83.6236 187.056C84.0556 186.288 84.6796 185.672 85.4956 185.208C86.3276 184.744 87.2236 184.512 88.1836 184.512ZM109.18 191.064C109.18 191.544 109.148 191.976 109.084 192.36H99.3641C99.4441 193.32 99.7801 194.072 100.372 194.616C100.964 195.16 101.692 195.432 102.556 195.432C103.804 195.432 104.692 194.896 105.22 193.824H108.844C108.46 195.104 107.724 196.16 106.636 196.992C105.548 197.808 104.212 198.216 102.628 198.216C101.348 198.216 100.196 197.936 99.1721 197.376C98.1641 196.8 97.3721 195.992 96.7961 194.952C96.2361 193.912 95.9561 192.712 95.9561 191.352C95.9561 189.976 96.2361 188.768 96.7961 187.728C97.3561 186.688 98.1401 185.888 99.1481 185.328C100.156 184.768 101.316 184.488 102.628 184.488C103.892 184.488 105.02 184.76 106.012 185.304C107.02 185.848 107.796 186.624 108.34 187.632C108.9 188.624 109.18 189.768 109.18 191.064ZM105.7 190.104C105.684 189.24 105.372 188.552 104.764 188.04C104.156 187.512 103.412 187.248 102.532 187.248C101.7 187.248 100.996 187.504 100.42 188.016C99.8601 188.512 99.5161 189.208 99.3881 190.104H105.7ZM119.001 184.512C120.585 184.512 121.865 185.016 122.841 186.024C123.817 187.016 124.305 188.408 124.305 190.2V198H120.945V190.656C120.945 189.6 120.681 188.792 120.153 188.232C119.625 187.656 118.905 187.368 117.993 187.368C117.065 187.368 116.329 187.656 115.785 188.232C115.257 188.792 114.993 189.6 114.993 190.656V198H111.633V184.704H114.993V186.36C115.441 185.784 116.009 185.336 116.697 185.016C117.401 184.68 118.169 184.512 119.001 184.512ZM131.412 187.464V193.896C131.412 194.344 131.516 194.672 131.724 194.88C131.948 195.072 132.316 195.168 132.828 195.168H134.388V198H132.276C129.444 198 128.028 196.624 128.028 193.872V187.464H126.444V184.704H128.028V181.416H131.412V184.704H134.388V187.464H131.412ZM135.94 191.304C135.94 189.96 136.204 188.768 136.732 187.728C137.276 186.688 138.004 185.888 138.916 185.328C139.844 184.768 140.876 184.488 142.012 184.488C143.004 184.488 143.868 184.688 144.604 185.088C145.356 185.488 145.956 185.992 146.404 186.6V184.704H149.788V198H146.404V196.056C145.972 196.68 145.372 197.2 144.604 197.616C143.852 198.016 142.98 198.216 141.988 198.216C140.868 198.216 139.844 197.928 138.916 197.352C138.004 196.776 137.276 195.968 136.732 194.928C136.204 193.872 135.94 192.664 135.94 191.304ZM146.404 191.352C146.404 190.536 146.244 189.84 145.924 189.264C145.604 188.672 145.172 188.224 144.628 187.92C144.084 187.6 143.5 187.44 142.876 187.44C142.252 187.44 141.676 187.592 141.148 187.896C140.62 188.2 140.188 188.648 139.852 189.24C139.532 189.816 139.372 190.504 139.372 191.304C139.372 192.104 139.532 192.808 139.852 193.416C140.188 194.008 140.62 194.464 141.148 194.784C141.692 195.104 142.268 195.264 142.876 195.264C143.5 195.264 144.084 195.112 144.628 194.808C145.172 194.488 145.604 194.04 145.924 193.464C146.244 192.872 146.404 192.168 146.404 191.352ZM156.982 187.464V193.896C156.982 194.344 157.086 194.672 157.294 194.88C157.518 195.072 157.886 195.168 158.398 195.168H159.958V198H157.846C155.014 198 153.598 196.624 153.598 193.872V187.464H152.014V184.704H153.598V181.416H156.982V184.704H159.958V187.464H156.982ZM164.079 183.12C163.487 183.12 162.991 182.936 162.591 182.568C162.207 182.184 162.015 181.712 162.015 181.152C162.015 180.592 162.207 180.128 162.591 179.76C162.991 179.376 163.487 179.184 164.079 179.184C164.671 179.184 165.159 179.376 165.543 179.76C165.943 180.128 166.143 180.592 166.143 181.152C166.143 181.712 165.943 182.184 165.543 182.568C165.159 182.936 164.671 183.12 164.079 183.12ZM165.735 184.704V198H162.375V184.704H165.735ZM174.958 198.216C173.678 198.216 172.526 197.936 171.502 197.376C170.478 196.8 169.67 195.992 169.078 194.952C168.502 193.912 168.214 192.712 168.214 191.352C168.214 189.992 168.51 188.792 169.102 187.752C169.71 186.712 170.534 185.912 171.574 185.352C172.614 184.776 173.774 184.488 175.054 184.488C176.334 184.488 177.494 184.776 178.534 185.352C179.574 185.912 180.39 186.712 180.982 187.752C181.59 188.792 181.894 189.992 181.894 191.352C181.894 192.712 181.582 193.912 180.958 194.952C180.35 195.992 179.518 196.8 178.462 197.376C177.422 197.936 176.254 198.216 174.958 198.216ZM174.958 195.288C175.566 195.288 176.134 195.144 176.662 194.856C177.206 194.552 177.638 194.104 177.958 193.512C178.278 192.92 178.438 192.2 178.438 191.352C178.438 190.088 178.102 189.12 177.43 188.448C176.774 187.76 175.966 187.416 175.006 187.416C174.046 187.416 173.238 187.76 172.582 188.448C171.942 189.12 171.622 190.088 171.622 191.352C171.622 192.616 171.934 193.592 172.558 194.28C173.198 194.952 173.998 195.288 174.958 195.288ZM191.727 184.512C193.311 184.512 194.591 185.016 195.567 186.024C196.543 187.016 197.031 188.408 197.031 190.2V198H193.671V190.656C193.671 189.6 193.407 188.792 192.879 188.232C192.351 187.656 191.631 187.368 190.719 187.368C189.791 187.368 189.055 187.656 188.511 188.232C187.983 188.792 187.719 189.6 187.719 190.656V198H184.359V184.704H187.719V186.36C188.167 185.784 188.735 185.336 189.423 185.016C190.127 184.68 190.895 184.512 191.727 184.512ZM86.665 222.432C86.665 223.328 86.449 224.168 86.017 224.952C85.601 225.736 84.937 226.368 84.025 226.848C83.129 227.328 81.993 227.568 80.617 227.568H77.809V234H74.449V217.248H80.617C81.913 217.248 83.017 217.472 83.929 217.92C84.841 218.368 85.521 218.984 85.969 219.768C86.433 220.552 86.665 221.44 86.665 222.432ZM80.473 224.856C81.401 224.856 82.089 224.648 82.537 224.232C82.985 223.8 83.209 223.2 83.209 222.432C83.209 220.8 82.297 219.984 80.473 219.984H77.809V224.856H80.473ZM92.4105 216.24V234H89.0505V216.24H92.4105ZM94.8662 227.304C94.8662 225.96 95.1302 224.768 95.6582 223.728C96.2022 222.688 96.9302 221.888 97.8422 221.328C98.7702 220.768 99.8022 220.488 100.938 220.488C101.93 220.488 102.794 220.688 103.53 221.088C104.282 221.488 104.882 221.992 105.33 222.6V220.704H108.714V234H105.33V232.056C104.898 232.68 104.298 233.2 103.53 233.616C102.778 234.016 101.906 234.216 100.914 234.216C99.7942 234.216 98.7702 233.928 97.8422 233.352C96.9302 232.776 96.2022 231.968 95.6582 230.928C95.1302 229.872 94.8662 228.664 94.8662 227.304ZM105.33 227.352C105.33 226.536 105.17 225.84 104.85 225.264C104.53 224.672 104.098 224.224 103.554 223.92C103.01 223.6 102.426 223.44 101.802 223.44C101.178 223.44 100.602 223.592 100.074 223.896C99.5462 224.2 99.1142 224.648 98.7782 225.24C98.4582 225.816 98.2982 226.504 98.2982 227.304C98.2982 228.104 98.4582 228.808 98.7782 229.416C99.1142 230.008 99.5462 230.464 100.074 230.784C100.618 231.104 101.194 231.264 101.802 231.264C102.426 231.264 103.01 231.112 103.554 230.808C104.098 230.488 104.53 230.04 104.85 229.464C105.17 228.872 105.33 228.168 105.33 227.352ZM119.364 220.512C120.948 220.512 122.228 221.016 123.204 222.024C124.18 223.016 124.668 224.408 124.668 226.2V234H121.308V226.656C121.308 225.6 121.044 224.792 120.516 224.232C119.988 223.656 119.268 223.368 118.356 223.368C117.428 223.368 116.692 223.656 116.148 224.232C115.62 224.792 115.356 225.6 115.356 226.656V234H111.996V220.704H115.356V222.36C115.804 221.784 116.372 221.336 117.06 221.016C117.764 220.68 118.532 220.512 119.364 220.512Z"/>
</svg>
