<svg width="110" height="190" viewBox="0 0 130 217" fill="none" xmlns="http://www.w3.org/2000/svg">
<path d="M102.257 90.1485C100.05 90.1485 98.2204 88.3186 98.2204 86.112V34.9831C98.2204 31.2695 95.2065 28.2556 91.4929 28.2556H61.892C59.6853 28.2556 57.8555 26.4257 57.8555 24.2191C57.8555 22.0125 59.6853 20.1826 61.892 20.1826H91.4929C99.6736 20.1826 106.293 26.8025 106.293 34.9831V86.112C106.293 88.3186 104.464 90.1485 102.257 90.1485Z" />
<path d="M75.3465 41.71C74.4316 41.71 73.5166 41.3872 72.7631 40.7952L56.6171 27.3402C55.7022 26.5867 55.1641 25.4564 55.1641 24.2186C55.1641 22.9807 55.7022 21.9042 56.6171 21.0969L72.7631 7.64193C74.4854 6.18879 77.0149 6.45809 78.468 8.18033C79.9212 9.90257 79.6522 12.4321 77.93 13.8852L65.4976 24.2186L77.93 34.5519C79.6522 36.005 79.8673 38.5346 78.468 40.2568C77.6607 41.2256 76.4768 41.71 75.3465 41.71Z" />
<path d="M102.257 122.44C91.116 122.44 82.0742 113.398 82.0742 102.258C82.0742 91.1169 91.116 82.0752 102.257 82.0752C113.397 82.0752 122.439 91.1169 122.439 102.258C122.439 113.398 113.397 122.44 102.257 122.44ZM102.257 90.1482C95.583 90.1482 90.1472 95.584 90.1472 102.258C90.1472 108.931 95.583 114.367 102.257 114.367C108.93 114.367 114.366 108.931 114.366 102.258C114.366 95.584 108.93 90.1482 102.257 90.1482Z" />
<path d="M67.2745 108.984H37.6735C29.4929 108.984 22.873 102.365 22.873 94.184V43.055C22.873 40.8484 24.7029 39.0186 26.9095 39.0186C29.1162 39.0186 30.946 40.8484 30.946 43.055V94.184C30.946 97.8976 33.96 100.911 37.6735 100.911H67.2745C69.4811 100.911 71.311 102.741 71.311 104.948C71.311 107.155 69.4811 108.984 67.2745 108.984Z" />
<path d="M53.826 122.439C52.6958 122.439 51.5119 121.954 50.7046 120.985C49.2514 119.263 49.5204 116.734 51.2426 115.281L63.675 104.947L51.2426 94.6139C49.5204 93.1607 49.3052 90.6312 50.7046 88.909C52.1577 87.1867 54.6872 86.9713 56.4095 88.3706L72.5554 101.826C73.4704 102.579 74.0085 103.709 74.0085 104.947C74.0085 106.185 73.4704 107.262 72.5554 108.069L56.4095 121.524C55.656 122.116 54.741 122.439 53.826 122.439Z" />
<path d="M26.909 47.0915C15.7683 47.0915 6.72656 38.0498 6.72656 26.909C6.72656 15.7683 15.7683 6.72656 26.909 6.72656C38.0498 6.72656 47.0915 15.7683 47.0915 26.909C47.0915 38.0498 38.0498 47.0915 26.909 47.0915ZM26.909 14.7996C20.2354 14.7996 14.7996 20.2354 14.7996 26.909C14.7996 33.5827 20.2354 39.0185 26.909 39.0185C33.5827 39.0185 39.0185 33.5827 39.0185 26.909C39.0185 20.2354 33.5827 14.7996 26.909 14.7996Z" />
<path d="M9.35194 156.96V161.16H14.9919V163.824H9.35194V168.264H15.7119V171H5.99194V154.224H15.7119V156.96H9.35194ZM35.2774 157.512C36.9094 157.512 38.2214 158.016 39.2134 159.024C40.2214 160.016 40.7254 161.408 40.7254 163.2V171H37.3654V163.656C37.3654 162.616 37.1014 161.824 36.5734 161.28C36.0454 160.72 35.3254 160.44 34.4134 160.44C33.5014 160.44 32.7734 160.72 32.2294 161.28C31.7014 161.824 31.4374 162.616 31.4374 163.656V171H28.0774V163.656C28.0774 162.616 27.8134 161.824 27.2854 161.28C26.7574 160.72 26.0374 160.44 25.1254 160.44C24.1974 160.44 23.4614 160.72 22.9174 161.28C22.3894 161.824 22.1254 162.616 22.1254 163.656V171H18.7654V157.704H22.1254V159.312C22.5574 158.752 23.1094 158.312 23.7814 157.992C24.4694 157.672 25.2214 157.512 26.0374 157.512C27.0774 157.512 28.0054 157.736 28.8214 158.184C29.6374 158.616 30.2694 159.24 30.7174 160.056C31.1494 159.288 31.7734 158.672 32.5894 158.208C33.4214 157.744 34.3174 157.512 35.2774 157.512ZM47.2738 159.624C47.7058 159.016 48.2978 158.512 49.0498 158.112C49.8178 157.696 50.6898 157.488 51.6658 157.488C52.8018 157.488 53.8258 157.768 54.7378 158.328C55.6658 158.888 56.3938 159.688 56.9218 160.728C57.4658 161.752 57.7378 162.944 57.7378 164.304C57.7378 165.664 57.4658 166.872 56.9218 167.928C56.3938 168.968 55.6658 169.776 54.7378 170.352C53.8258 170.928 52.8018 171.216 51.6658 171.216C50.6898 171.216 49.8258 171.016 49.0738 170.616C48.3378 170.216 47.7378 169.712 47.2738 169.104V177.336H43.9138V157.704H47.2738V159.624ZM54.3058 164.304C54.3058 163.504 54.1378 162.816 53.8018 162.24C53.4818 161.648 53.0498 161.2 52.5058 160.896C51.9778 160.592 51.4018 160.44 50.7778 160.44C50.1698 160.44 49.5938 160.6 49.0498 160.92C48.5218 161.224 48.0898 161.672 47.7538 162.264C47.4338 162.856 47.2738 163.552 47.2738 164.352C47.2738 165.152 47.4338 165.848 47.7538 166.44C48.0898 167.032 48.5218 167.488 49.0498 167.808C49.5938 168.112 50.1698 168.264 50.7778 168.264C51.4018 168.264 51.9778 168.104 52.5058 167.784C53.0498 167.464 53.4818 167.008 53.8018 166.416C54.1378 165.824 54.3058 165.12 54.3058 164.304ZM63.5394 153.24V171H60.1794V153.24H63.5394ZM72.7631 171.216C71.4831 171.216 70.3311 170.936 69.3071 170.376C68.2831 169.8 67.4751 168.992 66.8831 167.952C66.3071 166.912 66.0191 165.712 66.0191 164.352C66.0191 162.992 66.3151 161.792 66.9071 160.752C67.5151 159.712 68.3391 158.912 69.3791 158.352C70.4191 157.776 71.5791 157.488 72.8591 157.488C74.1391 157.488 75.2991 157.776 76.3391 158.352C77.3791 158.912 78.1951 159.712 78.7871 160.752C79.3951 161.792 79.6991 162.992 79.6991 164.352C79.6991 165.712 79.3871 166.912 78.7631 167.952C78.1551 168.992 77.3231 169.8 76.2671 170.376C75.2271 170.936 74.0591 171.216 72.7631 171.216ZM72.7631 168.288C73.3711 168.288 73.9391 168.144 74.4671 167.856C75.0111 167.552 75.4431 167.104 75.7631 166.512C76.0831 165.92 76.2431 165.2 76.2431 164.352C76.2431 163.088 75.9071 162.12 75.2351 161.448C74.5791 160.76 73.7711 160.416 72.8111 160.416C71.8511 160.416 71.0431 160.76 70.3871 161.448C69.7471 162.12 69.4271 163.088 69.4271 164.352C69.4271 165.616 69.7391 166.592 70.3631 167.28C71.0031 167.952 71.8031 168.288 72.7631 168.288ZM94.8838 157.704L86.6518 177.288H83.0758L85.9558 170.664L80.6278 157.704H84.3958L87.8278 166.992L91.3078 157.704H94.8838ZM109.055 164.064C109.055 164.544 109.023 164.976 108.959 165.36H99.2391C99.3191 166.32 99.6551 167.072 100.247 167.616C100.839 168.16 101.567 168.432 102.431 168.432C103.679 168.432 104.567 167.896 105.095 166.824H108.719C108.335 168.104 107.599 169.16 106.511 169.992C105.423 170.808 104.087 171.216 102.503 171.216C101.223 171.216 100.071 170.936 99.0471 170.376C98.0391 169.8 97.2471 168.992 96.6711 167.952C96.1111 166.912 95.8311 165.712 95.8311 164.352C95.8311 162.976 96.1111 161.768 96.6711 160.728C97.2311 159.688 98.0151 158.888 99.0231 158.328C100.031 157.768 101.191 157.488 102.503 157.488C103.767 157.488 104.895 157.76 105.887 158.304C106.895 158.848 107.671 159.624 108.215 160.632C108.775 161.624 109.055 162.768 109.055 164.064ZM105.575 163.104C105.559 162.24 105.247 161.552 104.639 161.04C104.031 160.512 103.287 160.248 102.407 160.248C101.575 160.248 100.871 160.504 100.295 161.016C99.7351 161.512 99.3911 162.208 99.2631 163.104H105.575ZM123.868 164.064C123.868 164.544 123.836 164.976 123.772 165.36H114.052C114.132 166.32 114.468 167.072 115.06 167.616C115.652 168.16 116.38 168.432 117.244 168.432C118.492 168.432 119.38 167.896 119.908 166.824H123.532C123.148 168.104 122.412 169.16 121.324 169.992C120.236 170.808 118.9 171.216 117.316 171.216C116.036 171.216 114.884 170.936 113.86 170.376C112.852 169.8 112.06 168.992 111.484 167.952C110.924 166.912 110.644 165.712 110.644 164.352C110.644 162.976 110.924 161.768 111.484 160.728C112.044 159.688 112.828 158.888 113.836 158.328C114.844 157.768 116.004 157.488 117.316 157.488C118.58 157.488 119.708 157.76 120.7 158.304C121.708 158.848 122.484 159.624 123.028 160.632C123.588 161.624 123.868 162.768 123.868 164.064ZM120.388 163.104C120.372 162.24 120.06 161.552 119.452 161.04C118.844 160.512 118.1 160.248 117.22 160.248C116.388 160.248 115.684 160.504 115.108 161.016C114.548 161.512 114.204 162.208 114.076 163.104H120.388ZM18.1124 207L14.4164 200.472H12.8324V207H9.47241V190.248H15.7604C17.0564 190.248 18.1604 190.48 19.0724 190.944C19.9844 191.392 20.6644 192.008 21.1124 192.792C21.5764 193.56 21.8084 194.424 21.8084 195.384C21.8084 196.488 21.4884 197.488 20.8484 198.384C20.2084 199.264 19.2564 199.872 17.9924 200.208L22.0004 207H18.1124ZM12.8324 197.952H15.6404C16.5524 197.952 17.2324 197.736 17.6804 197.304C18.1284 196.856 18.3524 196.24 18.3524 195.456C18.3524 194.688 18.1284 194.096 17.6804 193.68C17.2324 193.248 16.5524 193.032 15.6404 193.032H12.8324V197.952ZM37.2074 200.064C37.2074 200.544 37.1754 200.976 37.1114 201.36H27.3914C27.4714 202.32 27.8074 203.072 28.3994 203.616C28.9914 204.16 29.7194 204.432 30.5834 204.432C31.8314 204.432 32.7194 203.896 33.2474 202.824H36.8714C36.4874 204.104 35.7514 205.16 34.6634 205.992C33.5754 206.808 32.2394 207.216 30.6554 207.216C29.3754 207.216 28.2234 206.936 27.1994 206.376C26.1914 205.8 25.3994 204.992 24.8234 203.952C24.2634 202.912 23.9834 201.712 23.9834 200.352C23.9834 198.976 24.2634 197.768 24.8234 196.728C25.3834 195.688 26.1674 194.888 27.1754 194.328C28.1834 193.768 29.3434 193.488 30.6554 193.488C31.9194 193.488 33.0474 193.76 34.0394 194.304C35.0474 194.848 35.8234 195.624 36.3674 196.632C36.9274 197.624 37.2074 198.768 37.2074 200.064ZM33.7274 199.104C33.7114 198.24 33.3994 197.552 32.7914 197.04C32.1834 196.512 31.4394 196.248 30.5594 196.248C29.7274 196.248 29.0234 196.504 28.4474 197.016C27.8874 197.512 27.5434 198.208 27.4154 199.104H33.7274ZM43.0199 189.24V207H39.6599V189.24H43.0199ZM45.4756 200.304C45.4756 198.96 45.7396 197.768 46.2676 196.728C46.8116 195.688 47.5396 194.888 48.4516 194.328C49.3796 193.768 50.4116 193.488 51.5476 193.488C52.5396 193.488 53.4036 193.688 54.1396 194.088C54.8916 194.488 55.4916 194.992 55.9396 195.6V193.704H59.3236V207H55.9396V205.056C55.5076 205.68 54.9076 206.2 54.1396 206.616C53.3876 207.016 52.5156 207.216 51.5236 207.216C50.4036 207.216 49.3796 206.928 48.4516 206.352C47.5396 205.776 46.8116 204.968 46.2676 203.928C45.7396 202.872 45.4756 201.664 45.4756 200.304ZM55.9396 200.352C55.9396 199.536 55.7796 198.84 55.4596 198.264C55.1396 197.672 54.7076 197.224 54.1636 196.92C53.6196 196.6 53.0356 196.44 52.4116 196.44C51.7876 196.44 51.2116 196.592 50.6836 196.896C50.1556 197.2 49.7236 197.648 49.3876 198.24C49.0676 198.816 48.9076 199.504 48.9076 200.304C48.9076 201.104 49.0676 201.808 49.3876 202.416C49.7236 203.008 50.1556 203.464 50.6836 203.784C51.2276 204.104 51.8036 204.264 52.4116 204.264C53.0356 204.264 53.6196 204.112 54.1636 203.808C54.7076 203.488 55.1396 203.04 55.4596 202.464C55.7796 201.872 55.9396 201.168 55.9396 200.352ZM66.5172 196.464V202.896C66.5172 203.344 66.6212 203.672 66.8292 203.88C67.0532 204.072 67.4212 204.168 67.9332 204.168H69.4932V207H67.3812C64.5492 207 63.1332 205.624 63.1332 202.872V196.464H61.5492V193.704H63.1332V190.416H66.5172V193.704H69.4932V196.464H66.5172ZM73.6139 192.12C73.0219 192.12 72.5259 191.936 72.1259 191.568C71.7419 191.184 71.5499 190.712 71.5499 190.152C71.5499 189.592 71.7419 189.128 72.1259 188.76C72.5259 188.376 73.0219 188.184 73.6139 188.184C74.2059 188.184 74.6939 188.376 75.0779 188.76C75.4779 189.128 75.6779 189.592 75.6779 190.152C75.6779 190.712 75.4779 191.184 75.0779 191.568C74.6939 191.936 74.2059 192.12 73.6139 192.12ZM75.2699 193.704V207H71.9099V193.704H75.2699ZM84.4936 207.216C83.2136 207.216 82.0616 206.936 81.0376 206.376C80.0136 205.8 79.2056 204.992 78.6136 203.952C78.0376 202.912 77.7496 201.712 77.7496 200.352C77.7496 198.992 78.0456 197.792 78.6376 196.752C79.2456 195.712 80.0696 194.912 81.1096 194.352C82.1496 193.776 83.3096 193.488 84.5896 193.488C85.8696 193.488 87.0296 193.776 88.0696 194.352C89.1096 194.912 89.9256 195.712 90.5176 196.752C91.1256 197.792 91.4296 198.992 91.4296 200.352C91.4296 201.712 91.1176 202.912 90.4936 203.952C89.8856 204.992 89.0536 205.8 87.9976 206.376C86.9576 206.936 85.7896 207.216 84.4936 207.216ZM84.4936 204.288C85.1016 204.288 85.6696 204.144 86.1976 203.856C86.7416 203.552 87.1736 203.104 87.4936 202.512C87.8136 201.92 87.9736 201.2 87.9736 200.352C87.9736 199.088 87.6376 198.12 86.9656 197.448C86.3096 196.76 85.5016 196.416 84.5416 196.416C83.5816 196.416 82.7736 196.76 82.1176 197.448C81.4776 198.12 81.1576 199.088 81.1576 200.352C81.1576 201.616 81.4696 202.592 82.0936 203.28C82.7336 203.952 83.5336 204.288 84.4936 204.288ZM101.262 193.512C102.846 193.512 104.126 194.016 105.102 195.024C106.078 196.016 106.566 197.408 106.566 199.2V207H103.206V199.656C103.206 198.6 102.942 197.792 102.414 197.232C101.886 196.656 101.166 196.368 100.254 196.368C99.3263 196.368 98.5903 196.656 98.0463 197.232C97.5183 197.792 97.2543 198.6 97.2543 199.656V207H93.8943V193.704H97.2543V195.36C97.7023 194.784 98.2703 194.336 98.9583 194.016C99.6623 193.68 100.43 193.512 101.262 193.512ZM114.849 207.216C113.761 207.216 112.785 207.024 111.921 206.64C111.057 206.24 110.369 205.704 109.857 205.032C109.361 204.36 109.089 203.616 109.041 202.8H112.425C112.489 203.312 112.737 203.736 113.169 204.072C113.617 204.408 114.169 204.576 114.825 204.576C115.465 204.576 115.961 204.448 116.313 204.192C116.681 203.936 116.865 203.608 116.865 203.208C116.865 202.776 116.641 202.456 116.193 202.248C115.761 202.024 115.065 201.784 114.105 201.528C113.113 201.288 112.297 201.04 111.657 200.784C111.033 200.528 110.489 200.136 110.025 199.608C109.577 199.08 109.353 198.368 109.353 197.472C109.353 196.736 109.561 196.064 109.977 195.456C110.409 194.848 111.017 194.368 111.801 194.016C112.601 193.664 113.537 193.488 114.609 193.488C116.193 193.488 117.457 193.888 118.401 194.688C119.345 195.472 119.865 196.536 119.961 197.88H116.745C116.697 197.352 116.473 196.936 116.073 196.632C115.689 196.312 115.169 196.152 114.513 196.152C113.905 196.152 113.433 196.264 113.097 196.488C112.777 196.712 112.617 197.024 112.617 197.424C112.617 197.872 112.841 198.216 113.289 198.456C113.737 198.68 114.433 198.912 115.377 199.152C116.337 199.392 117.129 199.64 117.753 199.896C118.377 200.152 118.913 200.552 119.361 201.096C119.825 201.624 120.065 202.328 120.081 203.208C120.081 203.976 119.865 204.664 119.433 205.272C119.017 205.88 118.409 206.36 117.609 206.712C116.825 207.048 115.905 207.216 114.849 207.216Z" />
</svg>
