<svg width="219" height="212" viewBox="0 0 239 232" fill="none" xmlns="http://www.w3.org/2000/svg">
<path d="M92.5 68.75C91.7777 68.7498 91.0624 68.892 90.395 69.1683C89.7277 69.4446 89.1213 69.8498 88.6105 70.3605C88.0997 70.8713 87.6946 71.4777 87.4183 72.145C87.142 72.8124 86.9998 73.5277 87 74.25V84.0526C79.9108 76.0353 75.9984 65.7021 76 55C75.999 53.3825 76.0959 51.7665 76.29 50.1607C76.3791 49.4426 76.3255 48.714 76.1325 48.0167C75.9395 47.3193 75.6107 46.6669 75.165 46.0969C74.7194 45.5268 74.1657 45.0503 73.5355 44.6946C72.9054 44.3389 72.2113 44.1111 71.4929 44.0242C70.7746 43.9373 70.0461 43.993 69.3494 44.1881C68.6526 44.3832 68.0012 44.7139 67.4324 45.1612C66.8637 45.6085 66.3888 46.1637 66.035 46.7949C65.6812 47.426 65.4554 48.1208 65.3706 48.8394C65.1215 50.8835 64.9977 52.9409 65 55C65.0075 68.1239 69.7243 80.8094 78.2928 90.75H70.5C69.0413 90.75 67.6424 91.3295 66.6109 92.3609C65.5795 93.3924 65 94.7913 65 96.25C65 97.7087 65.5795 99.1076 66.6109 100.139C67.6424 101.171 69.0413 101.75 70.5 101.75H92.5C93.3602 101.739 94.2054 101.523 94.9651 101.119C95.7248 100.716 96.3772 100.137 96.8677 99.43C96.9319 99.3455 97.0137 99.2826 97.0735 99.1935C97.1101 99.1388 97.1111 99.074 97.1453 99.0183C97.4074 98.5755 97.6038 98.097 97.7283 97.5977C97.8097 97.3172 97.8676 97.0304 97.9012 96.7403C97.917 96.5704 98.0002 96.4241 98.0002 96.2502V74.2502C98.0004 73.5278 97.8583 72.8125 97.5819 72.1451C97.3056 71.4777 96.9005 70.8713 96.3897 70.3605C95.8789 69.8497 95.2725 69.4446 94.6051 69.1683C93.9377 68.8919 93.2224 68.7498 92.5 68.75ZM100.75 22.0001H90.9464C98.9643 14.9112 109.298 10.9988 120 11.0001C121.617 10.9962 123.232 11.0931 124.837 11.2901C125.554 11.3772 126.281 11.3222 126.978 11.1282C127.674 10.9341 128.325 10.6049 128.893 10.1593C129.462 9.71364 129.938 9.16033 130.293 8.53093C130.648 7.90154 130.875 7.20839 130.962 6.49106C131.049 5.77372 130.994 5.04626 130.8 4.35019C130.606 3.65413 130.277 3.0031 129.832 2.43427C129.386 1.86544 128.833 1.38996 128.203 1.03497C127.574 0.67998 126.881 0.452434 126.163 0.365325C124.118 0.1186 122.06 -0.00337585 120 7.10477e-05C106.876 0.00720518 94.1908 4.72364 84.25 13.2919V5.50007C84.25 4.04138 83.6706 2.64243 82.6391 1.61098C81.6077 0.579533 80.2087 7.10477e-05 78.75 7.10477e-05C77.2913 7.10477e-05 75.8924 0.579533 74.8609 1.61098C73.8295 2.64243 73.25 4.04138 73.25 5.50007V27.5001C73.2846 27.8636 73.3571 28.2225 73.4662 28.571L73.4676 28.5777C73.6011 29.2545 73.8648 29.8989 74.244 30.4752L74.3068 30.5681C74.6702 31.0967 75.1257 31.5556 75.6515 31.923C75.7117 31.967 75.7415 32.0344 75.8039 32.0764C75.8825 32.1284 75.9715 32.1449 76.0517 32.1925C76.3636 32.3802 76.6942 32.535 77.038 32.6545C77.5026 32.8162 77.9871 32.914 78.4781 32.9452C78.5734 32.9503 78.6537 33.0002 78.75 33.0002H100.75C102.209 33.0002 103.608 32.4208 104.639 31.3893C105.671 30.3579 106.25 28.9589 106.25 27.5002C106.25 26.0415 105.671 24.6426 104.639 23.6111C103.608 22.5797 102.209 22.0002 100.75 22.0002V22.0001ZM166.532 81.4225C166.399 80.7455 166.135 80.1008 165.756 79.5245L165.694 79.4322C165.33 78.9033 164.874 78.4441 164.348 78.0766C164.288 78.033 164.258 77.9652 164.196 77.9236C164.137 77.8843 164.066 77.883 164.006 77.846C163.308 77.4582 162.544 77.2055 161.752 77.1012C161.578 77.0847 161.428 76.9997 161.25 76.9997H139.25C137.791 76.9997 136.392 77.5792 135.361 78.6107C134.329 79.6421 133.75 81.041 133.75 82.4997C133.75 83.9584 134.329 85.3574 135.361 86.3888C136.392 87.4203 137.791 87.9997 139.25 87.9997H149.053C141.036 95.0887 130.702 99.001 120 98.9997C118.383 99.0018 116.768 98.9032 115.163 98.7043C113.715 98.5284 112.255 98.9352 111.107 99.8352C109.958 100.735 109.213 102.055 109.038 103.503C108.862 104.952 109.268 106.411 110.168 107.56C111.068 108.709 112.388 109.453 113.837 109.629C115.882 109.876 117.94 110 120 110C133.124 109.993 145.809 105.276 155.75 96.708V104.5C155.75 105.959 156.329 107.358 157.361 108.389C158.392 109.421 159.791 110 161.25 110C162.709 110 164.108 109.421 165.139 108.389C166.171 107.358 166.75 105.959 166.75 104.5V82.5C166.715 82.1365 166.643 81.7776 166.534 81.4292L166.532 81.4225ZM169.5 19.2501C170.959 19.2501 172.358 18.6706 173.389 17.6391C174.421 16.6077 175 15.2087 175 13.7501C175 12.2914 174.421 10.8924 173.389 9.86098C172.358 8.82953 170.959 8.25006 169.5 8.25006H147.5C147.142 8.28458 146.788 8.35591 146.445 8.46291L146.408 8.47029C145.74 8.60391 145.104 8.86442 144.534 9.2377L144.427 9.31052C143.901 9.67339 143.444 10.1275 143.078 10.6513C143.034 10.7107 142.968 10.7399 142.927 10.8013C142.887 10.8604 142.886 10.9303 142.849 10.9903C142.456 11.6921 142.202 12.4625 142.099 13.26C142.083 13.4299 142 13.5762 142 13.7501V35.75C142 37.2087 142.579 38.6077 143.611 39.6391C144.642 40.6706 146.041 41.25 147.5 41.25C148.959 41.25 150.358 40.6706 151.389 39.6391C152.421 38.6077 153 37.2087 153 35.75V25.9442C160.089 33.963 164.001 44.2969 164 54.9998C164.001 56.6173 163.904 58.2333 163.71 59.8391C163.536 61.2869 163.943 62.7446 164.842 63.8925C165.741 65.0404 167.059 65.7848 168.506 65.9622C168.729 65.988 168.953 66.0005 169.178 65.9997C170.521 65.998 171.816 65.5049 172.821 64.6134C173.825 63.7219 174.468 62.4936 174.629 61.1604C174.879 59.1164 175.002 57.0591 175 55C174.992 41.876 170.275 29.1905 161.706 19.2501H169.5Z" />
<path d="M46.0655 153L42.3695 146.472H40.7855V153H37.4255V136.248H43.7135C45.0095 136.248 46.1135 136.48 47.0255 136.944C47.9375 137.392 48.6175 138.008 49.0655 138.792C49.5295 139.56 49.7615 140.424 49.7615 141.384C49.7615 142.488 49.4415 143.488 48.8015 144.384C48.1615 145.264 47.2095 145.872 45.9455 146.208L49.9535 153H46.0655ZM40.7855 143.952H43.5935C44.5055 143.952 45.1855 143.736 45.6335 143.304C46.0815 142.856 46.3055 142.24 46.3055 141.456C46.3055 140.688 46.0815 140.096 45.6335 139.68C45.1855 139.248 44.5055 139.032 43.5935 139.032H40.7855V143.952ZM65.1605 146.064C65.1605 146.544 65.1285 146.976 65.0645 147.36H55.3445C55.4245 148.32 55.7605 149.072 56.3525 149.616C56.9445 150.16 57.6725 150.432 58.5365 150.432C59.7845 150.432 60.6725 149.896 61.2005 148.824H64.8245C64.4405 150.104 63.7045 151.16 62.6165 151.992C61.5285 152.808 60.1925 153.216 58.6085 153.216C57.3285 153.216 56.1765 152.936 55.1525 152.376C54.1445 151.8 53.3525 150.992 52.7765 149.952C52.2165 148.912 51.9365 147.712 51.9365 146.352C51.9365 144.976 52.2165 143.768 52.7765 142.728C53.3365 141.688 54.1205 140.888 55.1285 140.328C56.1365 139.768 57.2965 139.488 58.6085 139.488C59.8725 139.488 61.0005 139.76 61.9925 140.304C63.0005 140.848 63.7765 141.624 64.3205 142.632C64.8805 143.624 65.1605 144.768 65.1605 146.064ZM61.6805 145.104C61.6645 144.24 61.3525 143.552 60.7445 143.04C60.1365 142.512 59.3925 142.248 58.5125 142.248C57.6805 142.248 56.9765 142.504 56.4005 143.016C55.8405 143.512 55.4965 144.208 55.3685 145.104H61.6805ZM66.749 146.352C66.749 144.976 67.029 143.776 67.589 142.752C68.149 141.712 68.925 140.912 69.917 140.352C70.909 139.776 72.045 139.488 73.325 139.488C74.973 139.488 76.333 139.904 77.405 140.736C78.493 141.552 79.221 142.704 79.589 144.192H75.965C75.773 143.616 75.445 143.168 74.981 142.848C74.533 142.512 73.973 142.344 73.301 142.344C72.341 142.344 71.581 142.696 71.021 143.4C70.461 144.088 70.181 145.072 70.181 146.352C70.181 147.616 70.461 148.6 71.021 149.304C71.581 149.992 72.341 150.336 73.301 150.336C74.661 150.336 75.549 149.728 75.965 148.512H79.589C79.221 149.952 78.493 151.096 77.405 151.944C76.317 152.792 74.957 153.216 73.325 153.216C72.045 153.216 70.909 152.936 69.917 152.376C68.925 151.8 68.149 151 67.589 149.976C67.029 148.936 66.749 147.728 66.749 146.352ZM87.9545 153.216C86.6745 153.216 85.5225 152.936 84.4985 152.376C83.4745 151.8 82.6665 150.992 82.0745 149.952C81.4985 148.912 81.2105 147.712 81.2105 146.352C81.2105 144.992 81.5065 143.792 82.0985 142.752C82.7065 141.712 83.5305 140.912 84.5705 140.352C85.6105 139.776 86.7705 139.488 88.0505 139.488C89.3305 139.488 90.4905 139.776 91.5305 140.352C92.5705 140.912 93.3865 141.712 93.9785 142.752C94.5865 143.792 94.8905 144.992 94.8905 146.352C94.8905 147.712 94.5785 148.912 93.9545 149.952C93.3465 150.992 92.5145 151.8 91.4585 152.376C90.4185 152.936 89.2505 153.216 87.9545 153.216ZM87.9545 150.288C88.5625 150.288 89.1305 150.144 89.6585 149.856C90.2025 149.552 90.6345 149.104 90.9545 148.512C91.2745 147.92 91.4345 147.2 91.4345 146.352C91.4345 145.088 91.0985 144.12 90.4265 143.448C89.7705 142.76 88.9625 142.416 88.0025 142.416C87.0425 142.416 86.2345 142.76 85.5785 143.448C84.9385 144.12 84.6185 145.088 84.6185 146.352C84.6185 147.616 84.9305 148.592 85.5545 149.28C86.1945 149.952 86.9945 150.288 87.9545 150.288ZM102.899 149.904L106.259 139.704H109.835L104.915 153H100.835L95.9392 139.704H99.5392L102.899 149.904ZM124.082 146.064C124.082 146.544 124.05 146.976 123.986 147.36H114.266C114.346 148.32 114.682 149.072 115.274 149.616C115.866 150.16 116.594 150.432 117.458 150.432C118.706 150.432 119.594 149.896 120.122 148.824H123.746C123.362 150.104 122.626 151.16 121.538 151.992C120.45 152.808 119.114 153.216 117.53 153.216C116.25 153.216 115.098 152.936 114.074 152.376C113.066 151.8 112.274 150.992 111.698 149.952C111.138 148.912 110.858 147.712 110.858 146.352C110.858 144.976 111.138 143.768 111.698 142.728C112.258 141.688 113.042 140.888 114.05 140.328C115.058 139.768 116.218 139.488 117.53 139.488C118.794 139.488 119.922 139.76 120.914 140.304C121.922 140.848 122.698 141.624 123.242 142.632C123.802 143.624 124.082 144.768 124.082 146.064ZM120.602 145.104C120.586 144.24 120.274 143.552 119.666 143.04C119.058 142.512 118.314 142.248 117.434 142.248C116.602 142.248 115.898 142.504 115.322 143.016C114.762 143.512 114.418 144.208 114.29 145.104H120.602ZM129.895 141.768C130.327 141.064 130.887 140.512 131.575 140.112C132.279 139.712 133.079 139.512 133.975 139.512V143.04H133.087C132.031 143.04 131.231 143.288 130.687 143.784C130.159 144.28 129.895 145.144 129.895 146.376V153H126.535V139.704H129.895V141.768ZM148.958 139.704L140.726 159.288H137.15L140.03 152.664L134.702 139.704H138.47L141.902 148.992L145.382 139.704H148.958ZM155.624 146.304C155.624 144.96 155.888 143.768 156.416 142.728C156.96 141.688 157.688 140.888 158.6 140.328C159.528 139.768 160.56 139.488 161.696 139.488C162.688 139.488 163.552 139.688 164.288 140.088C165.04 140.488 165.64 140.992 166.088 141.6V139.704H169.472V153H166.088V151.056C165.656 151.68 165.056 152.2 164.288 152.616C163.536 153.016 162.664 153.216 161.672 153.216C160.552 153.216 159.528 152.928 158.6 152.352C157.688 151.776 156.96 150.968 156.416 149.928C155.888 148.872 155.624 147.664 155.624 146.304ZM166.088 146.352C166.088 145.536 165.928 144.84 165.608 144.264C165.288 143.672 164.856 143.224 164.312 142.92C163.768 142.6 163.184 142.44 162.56 142.44C161.936 142.44 161.36 142.592 160.832 142.896C160.304 143.2 159.872 143.648 159.536 144.24C159.216 144.816 159.056 145.504 159.056 146.304C159.056 147.104 159.216 147.808 159.536 148.416C159.872 149.008 160.304 149.464 160.832 149.784C161.376 150.104 161.952 150.264 162.56 150.264C163.184 150.264 163.768 150.112 164.312 149.808C164.856 149.488 165.288 149.04 165.608 148.464C165.928 147.872 166.088 147.168 166.088 146.352ZM180.122 139.512C181.706 139.512 182.986 140.016 183.962 141.024C184.938 142.016 185.426 143.408 185.426 145.2V153H182.066V145.656C182.066 144.6 181.802 143.792 181.274 143.232C180.746 142.656 180.026 142.368 179.114 142.368C178.186 142.368 177.45 142.656 176.906 143.232C176.378 143.792 176.114 144.6 176.114 145.656V153H172.754V139.704H176.114V141.36C176.562 140.784 177.13 140.336 177.818 140.016C178.522 139.68 179.29 139.512 180.122 139.512ZM187.757 146.304C187.757 144.96 188.021 143.768 188.549 142.728C189.093 141.688 189.829 140.888 190.757 140.328C191.685 139.768 192.717 139.488 193.853 139.488C194.717 139.488 195.541 139.68 196.325 140.064C197.109 140.432 197.733 140.928 198.197 141.552V135.24H201.605V153H198.197V151.032C197.781 151.688 197.197 152.216 196.445 152.616C195.693 153.016 194.821 153.216 193.829 153.216C192.709 153.216 191.685 152.928 190.757 152.352C189.829 151.776 189.093 150.968 188.549 149.928C188.021 148.872 187.757 147.664 187.757 146.304ZM198.221 146.352C198.221 145.536 198.061 144.84 197.741 144.264C197.421 143.672 196.989 143.224 196.445 142.92C195.901 142.6 195.317 142.44 194.693 142.44C194.069 142.44 193.493 142.592 192.965 142.896C192.437 143.2 192.005 143.648 191.669 144.24C191.349 144.816 191.189 145.504 191.189 146.304C191.189 147.104 191.349 147.808 191.669 148.416C192.005 149.008 192.437 149.464 192.965 149.784C193.509 150.104 194.085 150.264 194.693 150.264C195.317 150.264 195.901 150.112 196.445 149.808C196.989 149.488 197.421 149.04 197.741 148.464C198.061 147.872 198.221 147.168 198.221 146.352ZM76.7186 180.408C77.6626 180.584 78.4386 181.056 79.0466 181.824C79.6546 182.592 79.9586 183.472 79.9586 184.464C79.9586 185.36 79.7346 186.152 79.2866 186.84C78.8546 187.512 78.2226 188.04 77.3906 188.424C76.5586 188.808 75.5746 189 74.4386 189H67.2146V172.248H74.1266C75.2626 172.248 76.2386 172.432 77.0546 172.8C77.8866 173.168 78.5106 173.68 78.9266 174.336C79.3586 174.992 79.5746 175.736 79.5746 176.568C79.5746 177.544 79.3106 178.36 78.7826 179.016C78.2706 179.672 77.5826 180.136 76.7186 180.408ZM70.5746 179.16H73.6466C74.4466 179.16 75.0626 178.984 75.4946 178.632C75.9266 178.264 76.1426 177.744 76.1426 177.072C76.1426 176.4 75.9266 175.88 75.4946 175.512C75.0626 175.144 74.4466 174.96 73.6466 174.96H70.5746V179.16ZM73.9586 186.264C74.7746 186.264 75.4066 186.072 75.8546 185.688C76.3186 185.304 76.5506 184.76 76.5506 184.056C76.5506 183.336 76.3106 182.776 75.8306 182.376C75.3506 181.96 74.7026 181.752 73.8866 181.752H70.5746V186.264H73.9586ZM95.1885 175.704V189H91.8045V187.32C91.3725 187.896 90.8045 188.352 90.1005 188.688C89.4125 189.008 88.6605 189.168 87.8445 189.168C86.8045 189.168 85.8845 188.952 85.0845 188.52C84.2845 188.072 83.6525 187.424 83.1885 186.576C82.7405 185.712 82.5165 184.688 82.5165 183.504V175.704H85.8765V183.024C85.8765 184.08 86.1405 184.896 86.6685 185.472C87.1965 186.032 87.9165 186.312 88.8285 186.312C89.7565 186.312 90.4845 186.032 91.0125 185.472C91.5405 184.896 91.8045 184.08 91.8045 183.024V175.704H95.1885ZM103.592 189.216C102.504 189.216 101.528 189.024 100.664 188.64C99.7997 188.24 99.1117 187.704 98.5997 187.032C98.1037 186.36 97.8317 185.616 97.7837 184.8H101.168C101.232 185.312 101.48 185.736 101.912 186.072C102.36 186.408 102.912 186.576 103.568 186.576C104.208 186.576 104.704 186.448 105.056 186.192C105.424 185.936 105.608 185.608 105.608 185.208C105.608 184.776 105.384 184.456 104.936 184.248C104.504 184.024 103.808 183.784 102.848 183.528C101.856 183.288 101.04 183.04 100.4 182.784C99.7757 182.528 99.2317 182.136 98.7677 181.608C98.3197 181.08 98.0957 180.368 98.0957 179.472C98.0957 178.736 98.3037 178.064 98.7197 177.456C99.1517 176.848 99.7597 176.368 100.544 176.016C101.344 175.664 102.28 175.488 103.352 175.488C104.936 175.488 106.2 175.888 107.144 176.688C108.088 177.472 108.608 178.536 108.704 179.88H105.488C105.44 179.352 105.216 178.936 104.816 178.632C104.432 178.312 103.912 178.152 103.256 178.152C102.648 178.152 102.176 178.264 101.84 178.488C101.52 178.712 101.36 179.024 101.36 179.424C101.36 179.872 101.584 180.216 102.032 180.456C102.48 180.68 103.176 180.912 104.12 181.152C105.08 181.392 105.872 181.64 106.496 181.896C107.12 182.152 107.656 182.552 108.104 183.096C108.568 183.624 108.808 184.328 108.824 185.208C108.824 185.976 108.608 186.664 108.176 187.272C107.76 187.88 107.152 188.36 106.352 188.712C105.568 189.048 104.648 189.216 103.592 189.216ZM113.286 174.12C112.694 174.12 112.198 173.936 111.798 173.568C111.414 173.184 111.222 172.712 111.222 172.152C111.222 171.592 111.414 171.128 111.798 170.76C112.198 170.376 112.694 170.184 113.286 170.184C113.878 170.184 114.366 170.376 114.75 170.76C115.15 171.128 115.35 171.592 115.35 172.152C115.35 172.712 115.15 173.184 114.75 173.568C114.366 173.936 113.878 174.12 113.286 174.12ZM114.942 175.704V189H111.582V175.704H114.942ZM125.629 175.512C127.213 175.512 128.493 176.016 129.469 177.024C130.445 178.016 130.933 179.408 130.933 181.2V189H127.573V181.656C127.573 180.6 127.309 179.792 126.781 179.232C126.253 178.656 125.533 178.368 124.621 178.368C123.693 178.368 122.957 178.656 122.413 179.232C121.885 179.792 121.621 180.6 121.621 181.656V189H118.261V175.704H121.621V177.36C122.069 176.784 122.637 176.336 123.325 176.016C124.029 175.68 124.797 175.512 125.629 175.512ZM146.489 182.064C146.489 182.544 146.457 182.976 146.393 183.36H136.673C136.753 184.32 137.089 185.072 137.681 185.616C138.273 186.16 139.001 186.432 139.865 186.432C141.113 186.432 142.001 185.896 142.529 184.824H146.153C145.769 186.104 145.033 187.16 143.945 187.992C142.857 188.808 141.521 189.216 139.937 189.216C138.657 189.216 137.505 188.936 136.481 188.376C135.473 187.8 134.681 186.992 134.105 185.952C133.545 184.912 133.265 183.712 133.265 182.352C133.265 180.976 133.545 179.768 134.105 178.728C134.665 177.688 135.449 176.888 136.457 176.328C137.465 175.768 138.625 175.488 139.937 175.488C141.201 175.488 142.329 175.76 143.321 176.304C144.329 176.848 145.105 177.624 145.649 178.632C146.209 179.624 146.489 180.768 146.489 182.064ZM143.009 181.104C142.993 180.24 142.681 179.552 142.073 179.04C141.465 178.512 140.721 178.248 139.841 178.248C139.009 178.248 138.305 178.504 137.729 179.016C137.169 179.512 136.825 180.208 136.697 181.104H143.009ZM154.029 189.216C152.941 189.216 151.965 189.024 151.101 188.64C150.237 188.24 149.549 187.704 149.037 187.032C148.541 186.36 148.269 185.616 148.221 184.8H151.605C151.669 185.312 151.917 185.736 152.349 186.072C152.797 186.408 153.349 186.576 154.005 186.576C154.645 186.576 155.141 186.448 155.493 186.192C155.861 185.936 156.045 185.608 156.045 185.208C156.045 184.776 155.821 184.456 155.373 184.248C154.941 184.024 154.245 183.784 153.285 183.528C152.293 183.288 151.477 183.04 150.837 182.784C150.213 182.528 149.669 182.136 149.205 181.608C148.757 181.08 148.533 180.368 148.533 179.472C148.533 178.736 148.741 178.064 149.157 177.456C149.589 176.848 150.197 176.368 150.981 176.016C151.781 175.664 152.717 175.488 153.789 175.488C155.373 175.488 156.637 175.888 157.581 176.688C158.525 177.472 159.045 178.536 159.141 179.88H155.925C155.877 179.352 155.653 178.936 155.253 178.632C154.869 178.312 154.349 178.152 153.693 178.152C153.085 178.152 152.613 178.264 152.277 178.488C151.957 178.712 151.797 179.024 151.797 179.424C151.797 179.872 152.021 180.216 152.469 180.456C152.917 180.68 153.613 180.912 154.557 181.152C155.517 181.392 156.309 181.64 156.933 181.896C157.557 182.152 158.093 182.552 158.541 183.096C159.005 183.624 159.245 184.328 159.261 185.208C159.261 185.976 159.045 186.664 158.613 187.272C158.197 187.88 157.589 188.36 156.789 188.712C156.005 189.048 155.085 189.216 154.029 189.216ZM167.107 189.216C166.019 189.216 165.043 189.024 164.179 188.64C163.315 188.24 162.627 187.704 162.115 187.032C161.619 186.36 161.347 185.616 161.299 184.8H164.683C164.747 185.312 164.995 185.736 165.427 186.072C165.875 186.408 166.427 186.576 167.083 186.576C167.723 186.576 168.219 186.448 168.571 186.192C168.939 185.936 169.123 185.608 169.123 185.208C169.123 184.776 168.899 184.456 168.451 184.248C168.019 184.024 167.323 183.784 166.363 183.528C165.371 183.288 164.555 183.04 163.915 182.784C163.291 182.528 162.747 182.136 162.283 181.608C161.835 181.08 161.611 180.368 161.611 179.472C161.611 178.736 161.819 178.064 162.235 177.456C162.667 176.848 163.275 176.368 164.059 176.016C164.859 175.664 165.795 175.488 166.867 175.488C168.451 175.488 169.715 175.888 170.659 176.688C171.603 177.472 172.123 178.536 172.219 179.88H169.003C168.955 179.352 168.731 178.936 168.331 178.632C167.947 178.312 167.427 178.152 166.771 178.152C166.163 178.152 165.691 178.264 165.355 178.488C165.035 178.712 164.875 179.024 164.875 179.424C164.875 179.872 165.099 180.216 165.547 180.456C165.995 180.68 166.691 180.912 167.635 181.152C168.595 181.392 169.387 181.64 170.011 181.896C170.635 182.152 171.171 182.552 171.619 183.096C172.083 183.624 172.323 184.328 172.339 185.208C172.339 185.976 172.123 186.664 171.691 187.272C171.275 187.88 170.667 188.36 169.867 188.712C169.083 189.048 168.163 189.216 167.107 189.216ZM56.4259 216.6C56.4259 214.952 56.7939 213.48 57.5299 212.184C58.2819 210.872 59.2979 209.856 60.5779 209.136C61.8739 208.4 63.3219 208.032 64.9219 208.032C66.7939 208.032 68.4339 208.512 69.8419 209.472C71.2499 210.432 72.2339 211.76 72.7939 213.456H68.9299C68.5459 212.656 68.0019 212.056 67.2979 211.656C66.6099 211.256 65.8099 211.056 64.8979 211.056C63.9219 211.056 63.0499 211.288 62.2819 211.752C61.5299 212.2 60.9379 212.84 60.5059 213.672C60.0899 214.504 59.8819 215.48 59.8819 216.6C59.8819 217.704 60.0899 218.68 60.5059 219.528C60.9379 220.36 61.5299 221.008 62.2819 221.472C63.0499 221.92 63.9219 222.144 64.8979 222.144C65.8099 222.144 66.6099 221.944 67.2979 221.544C68.0019 221.128 68.5459 220.52 68.9299 219.72H72.7939C72.2339 221.432 71.2499 222.768 69.8419 223.728C68.4499 224.672 66.8099 225.144 64.9219 225.144C63.3219 225.144 61.8739 224.784 60.5779 224.064C59.2979 223.328 58.2819 222.312 57.5299 221.016C56.7939 219.72 56.4259 218.248 56.4259 216.6ZM81.5678 225.216C80.2878 225.216 79.1358 224.936 78.1118 224.376C77.0878 223.8 76.2798 222.992 75.6878 221.952C75.1118 220.912 74.8238 219.712 74.8238 218.352C74.8238 216.992 75.1198 215.792 75.7118 214.752C76.3198 213.712 77.1438 212.912 78.1838 212.352C79.2238 211.776 80.3838 211.488 81.6638 211.488C82.9438 211.488 84.1038 211.776 85.1438 212.352C86.1838 212.912 86.9998 213.712 87.5918 214.752C88.1998 215.792 88.5038 216.992 88.5038 218.352C88.5038 219.712 88.1918 220.912 87.5678 221.952C86.9598 222.992 86.1278 223.8 85.0718 224.376C84.0318 224.936 82.8638 225.216 81.5678 225.216ZM81.5678 222.288C82.1758 222.288 82.7438 222.144 83.2718 221.856C83.8158 221.552 84.2478 221.104 84.5678 220.512C84.8878 219.92 85.0478 219.2 85.0478 218.352C85.0478 217.088 84.7118 216.12 84.0398 215.448C83.3838 214.76 82.5758 214.416 81.6158 214.416C80.6558 214.416 79.8478 214.76 79.1918 215.448C78.5518 216.12 78.2318 217.088 78.2318 218.352C78.2318 219.616 78.5438 220.592 79.1678 221.28C79.8078 221.952 80.6078 222.288 81.5678 222.288ZM98.3365 211.512C99.9205 211.512 101.201 212.016 102.177 213.024C103.153 214.016 103.641 215.408 103.641 217.2V225H100.281V217.656C100.281 216.6 100.017 215.792 99.4885 215.232C98.9605 214.656 98.2405 214.368 97.3285 214.368C96.4005 214.368 95.6645 214.656 95.1205 215.232C94.5925 215.792 94.3285 216.6 94.3285 217.656V225H90.9685V211.704H94.3285V213.36C94.7765 212.784 95.3445 212.336 96.0325 212.016C96.7365 211.68 97.5045 211.512 98.3365 211.512ZM110.748 214.464V220.896C110.748 221.344 110.852 221.672 111.06 221.88C111.284 222.072 111.652 222.168 112.164 222.168H113.724V225H111.612C108.78 225 107.364 223.624 107.364 220.872V214.464H105.78V211.704H107.364V208.416H110.748V211.704H113.724V214.464H110.748ZM117.844 210.12C117.252 210.12 116.756 209.936 116.356 209.568C115.972 209.184 115.78 208.712 115.78 208.152C115.78 207.592 115.972 207.128 116.356 206.76C116.756 206.376 117.252 206.184 117.844 206.184C118.436 206.184 118.924 206.376 119.308 206.76C119.708 207.128 119.908 207.592 119.908 208.152C119.908 208.712 119.708 209.184 119.308 209.568C118.924 209.936 118.436 210.12 117.844 210.12ZM119.5 211.704V225H116.14V211.704H119.5ZM130.188 211.512C131.772 211.512 133.052 212.016 134.028 213.024C135.004 214.016 135.492 215.408 135.492 217.2V225H132.132V217.656C132.132 216.6 131.868 215.792 131.34 215.232C130.812 214.656 130.092 214.368 129.18 214.368C128.252 214.368 127.516 214.656 126.972 215.232C126.444 215.792 126.18 216.6 126.18 217.656V225H122.82V211.704H126.18V213.36C126.628 212.784 127.196 212.336 127.884 212.016C128.588 211.68 129.356 211.512 130.188 211.512ZM151.239 211.704V225H147.855V223.32C147.423 223.896 146.855 224.352 146.151 224.688C145.463 225.008 144.711 225.168 143.895 225.168C142.855 225.168 141.935 224.952 141.135 224.52C140.335 224.072 139.703 223.424 139.239 222.576C138.791 221.712 138.567 220.688 138.567 219.504V211.704H141.927V219.024C141.927 220.08 142.191 220.896 142.719 221.472C143.247 222.032 143.967 222.312 144.879 222.312C145.807 222.312 146.535 222.032 147.063 221.472C147.591 220.896 147.855 220.08 147.855 219.024V211.704H151.239ZM156.258 210.12C155.666 210.12 155.17 209.936 154.77 209.568C154.386 209.184 154.194 208.712 154.194 208.152C154.194 207.592 154.386 207.128 154.77 206.76C155.17 206.376 155.666 206.184 156.258 206.184C156.85 206.184 157.338 206.376 157.722 206.76C158.122 207.128 158.322 207.592 158.322 208.152C158.322 208.712 158.122 209.184 157.722 209.568C157.338 209.936 156.85 210.12 156.258 210.12ZM157.914 211.704V225H154.554V211.704H157.914ZM165.146 214.464V220.896C165.146 221.344 165.25 221.672 165.458 221.88C165.682 222.072 166.05 222.168 166.562 222.168H168.122V225H166.01C163.178 225 161.762 223.624 161.762 220.872V214.464H160.178V211.704H161.762V208.416H165.146V211.704H168.122V214.464H165.146ZM183.259 211.704L175.027 231.288H171.451L174.331 224.664L169.003 211.704H172.771L176.203 220.992L179.683 211.704H183.259Z" />
</svg>
