<svg width="172" height="236" viewBox="0 0 172 236" fill="none" xmlns="http://www.w3.org/2000/svg">
<path d="M130.216 155.458H102.883C86.3461 155.458 77.2578 146.37 77.2578 129.833V34.1665C77.2578 17.6298 86.3461 8.5415 102.883 8.5415H130.216C146.753 8.5415 155.841 17.6298 155.841 34.1665V129.833C155.841 146.37 146.684 155.458 130.216 155.458ZM102.883 18.7915C92.0861 18.7915 87.5078 23.3698 87.5078 34.1665V129.833C87.5078 140.63 92.0861 145.208 102.883 145.208H130.216C141.013 145.208 145.591 140.63 145.591 129.833V34.1665C145.591 23.3698 141.013 18.7915 130.216 18.7915H102.883Z"/>
<path d="M116.549 46.125H82.3828C79.5811 46.125 77.2578 43.8017 77.2578 41C77.2578 38.1983 79.5811 35.875 82.3828 35.875H116.549C119.351 35.875 121.674 38.1983 121.674 41C121.674 43.8017 119.351 46.125 116.549 46.125Z"/>
<path d="M109.716 128.125H82.3828C79.5811 128.125 77.2578 125.802 77.2578 123C77.2578 120.198 79.5811 117.875 82.3828 117.875H109.716C112.518 117.875 114.841 120.198 114.841 123C114.841 125.802 112.518 128.125 109.716 128.125Z"/>
<path d="M116.551 100.793C116.483 100.793 116.483 100.793 116.551 100.793L82.3159 100.451C79.5143 100.451 77.1909 98.1278 77.2593 95.2578C77.2593 92.4562 79.5826 90.2012 82.3843 90.2012C82.3843 90.2012 82.3843 90.2012 82.4526 90.2012L116.619 90.5428C119.421 90.5428 121.744 92.8662 121.676 95.7362C121.608 98.5378 119.353 100.793 116.551 100.793Z"/>
<path d="M102.883 73.4585H82.3828C79.5811 73.4585 77.2578 71.1352 77.2578 68.3335C77.2578 65.5318 79.5811 63.2085 82.3828 63.2085H102.883C105.684 63.2085 108.008 65.5318 108.008 68.3335C108.008 71.1352 105.684 73.4585 102.883 73.4585Z" fill="white" fill-opacity="0.5"/>
<path d="M41.5099 155.253C35.2915 155.253 29.4149 151.426 25.3832 144.73L19.7799 135.436C17.7299 132.02 16.1582 126.416 16.1582 122.453V33.8248C16.1582 19.8848 27.5015 8.5415 41.4415 8.5415C55.3815 8.5415 66.7249 19.8848 66.7249 33.8248V122.385C66.7249 126.348 65.1532 131.951 63.1032 135.368L57.4999 144.661C53.6049 151.426 47.7282 155.253 41.5099 155.253ZM41.5099 18.7915C33.2415 18.7915 26.4765 25.5565 26.4765 33.8248V122.385C26.4765 124.503 27.5015 128.262 28.5949 130.107L34.1982 139.4C36.3165 142.953 38.9815 144.935 41.5099 144.935C44.0382 144.935 46.7032 142.885 48.8215 139.4L54.4249 130.107C55.5182 128.262 56.5432 124.503 56.5432 122.385V33.8248C56.5432 25.5565 49.7782 18.7915 41.5099 18.7915Z"/>
<path d="M61.6682 52.9585H21.2832C18.4815 52.9585 16.1582 50.6352 16.1582 47.8335C16.1582 45.0318 18.4815 42.7085 21.2832 42.7085H61.6682C64.4699 42.7085 66.7932 45.0318 66.7932 47.8335C66.7932 50.6352 64.4699 52.9585 61.6682 52.9585Z"/>
<path d="M20.4072 178.432C20.4072 179.328 20.1912 180.168 19.7592 180.952C19.3432 181.736 18.6792 182.368 17.7672 182.848C16.8712 183.328 15.7352 183.568 14.3592 183.568H11.5512V190H8.19116V173.248H14.3592C15.6552 173.248 16.7592 173.472 17.6712 173.92C18.5832 174.368 19.2632 174.984 19.7112 175.768C20.1752 176.552 20.4072 177.44 20.4072 178.432ZM14.2152 180.856C15.1432 180.856 15.8312 180.648 16.2792 180.232C16.7272 179.8 16.9512 179.2 16.9512 178.432C16.9512 176.8 16.0392 175.984 14.2152 175.984H11.5512V180.856H14.2152ZM35.1527 183.064C35.1527 183.544 35.1207 183.976 35.0567 184.36H25.3367C25.4167 185.32 25.7527 186.072 26.3447 186.616C26.9367 187.16 27.6647 187.432 28.5287 187.432C29.7767 187.432 30.6647 186.896 31.1927 185.824H34.8167C34.4327 187.104 33.6967 188.16 32.6087 188.992C31.5207 189.808 30.1847 190.216 28.6007 190.216C27.3207 190.216 26.1687 189.936 25.1447 189.376C24.1367 188.8 23.3447 187.992 22.7687 186.952C22.2087 185.912 21.9287 184.712 21.9287 183.352C21.9287 181.976 22.2087 180.768 22.7687 179.728C23.3287 178.688 24.1127 177.888 25.1207 177.328C26.1287 176.768 27.2887 176.488 28.6007 176.488C29.8647 176.488 30.9927 176.76 31.9847 177.304C32.9927 177.848 33.7687 178.624 34.3127 179.632C34.8727 180.624 35.1527 181.768 35.1527 183.064ZM31.6727 182.104C31.6567 181.24 31.3447 180.552 30.7367 180.04C30.1287 179.512 29.3847 179.248 28.5047 179.248C27.6727 179.248 26.9687 179.504 26.3927 180.016C25.8327 180.512 25.4887 181.208 25.3607 182.104H31.6727ZM40.9652 178.768C41.3972 178.064 41.9572 177.512 42.6452 177.112C43.3492 176.712 44.1492 176.512 45.0452 176.512V180.04H44.1572C43.1012 180.04 42.3012 180.288 41.7572 180.784C41.2292 181.28 40.9652 182.144 40.9652 183.376V190H37.6052V176.704H40.9652V178.768ZM53.4043 179.464H51.0763V190H47.6683V179.464H46.1563V176.704H47.6683V176.032C47.6683 174.4 48.1323 173.2 49.0603 172.432C49.9883 171.664 51.3883 171.304 53.2603 171.352V174.184C52.4443 174.168 51.8763 174.304 51.5563 174.592C51.2363 174.88 51.0763 175.4 51.0763 176.152V176.704H53.4043V179.464ZM61.4858 190.216C60.2058 190.216 59.0538 189.936 58.0298 189.376C57.0058 188.8 56.1978 187.992 55.6058 186.952C55.0298 185.912 54.7418 184.712 54.7418 183.352C54.7418 181.992 55.0378 180.792 55.6298 179.752C56.2378 178.712 57.0618 177.912 58.1018 177.352C59.1418 176.776 60.3018 176.488 61.5818 176.488C62.8618 176.488 64.0218 176.776 65.0618 177.352C66.1018 177.912 66.9178 178.712 67.5098 179.752C68.1178 180.792 68.4218 181.992 68.4218 183.352C68.4218 184.712 68.1098 185.912 67.4858 186.952C66.8778 187.992 66.0458 188.8 64.9898 189.376C63.9498 189.936 62.7818 190.216 61.4858 190.216ZM61.4858 187.288C62.0938 187.288 62.6618 187.144 63.1898 186.856C63.7338 186.552 64.1658 186.104 64.4858 185.512C64.8058 184.92 64.9658 184.2 64.9658 183.352C64.9658 182.088 64.6298 181.12 63.9578 180.448C63.3018 179.76 62.4938 179.416 61.5338 179.416C60.5738 179.416 59.7658 179.76 59.1098 180.448C58.4698 181.12 58.1498 182.088 58.1498 183.352C58.1498 184.616 58.4618 185.592 59.0858 186.28C59.7258 186.952 60.5258 187.288 61.4858 187.288ZM74.2465 178.768C74.6785 178.064 75.2385 177.512 75.9265 177.112C76.6305 176.712 77.4305 176.512 78.3265 176.512V180.04H77.4385C76.3825 180.04 75.5825 180.288 75.0385 180.784C74.5105 181.28 74.2465 182.144 74.2465 183.376V190H70.8865V176.704H74.2465V178.768ZM97.1016 176.512C98.7336 176.512 100.046 177.016 101.038 178.024C102.046 179.016 102.55 180.408 102.55 182.2V190H99.1896V182.656C99.1896 181.616 98.9256 180.824 98.3976 180.28C97.8696 179.72 97.1496 179.44 96.2376 179.44C95.3256 179.44 94.5976 179.72 94.0536 180.28C93.5256 180.824 93.2616 181.616 93.2616 182.656V190H89.9016V182.656C89.9016 181.616 89.6376 180.824 89.1096 180.28C88.5816 179.72 87.8616 179.44 86.9496 179.44C86.0216 179.44 85.2856 179.72 84.7416 180.28C84.2136 180.824 83.9496 181.616 83.9496 182.656V190H80.5896V176.704H83.9496V178.312C84.3816 177.752 84.9336 177.312 85.6056 176.992C86.2936 176.672 87.0456 176.512 87.8616 176.512C88.9016 176.512 89.8296 176.736 90.6456 177.184C91.4616 177.616 92.0936 178.24 92.5416 179.056C92.9736 178.288 93.5976 177.672 94.4136 177.208C95.2456 176.744 96.1416 176.512 97.1016 176.512ZM104.874 183.304C104.874 181.96 105.138 180.768 105.666 179.728C106.21 178.688 106.938 177.888 107.85 177.328C108.778 176.768 109.81 176.488 110.946 176.488C111.938 176.488 112.802 176.688 113.538 177.088C114.29 177.488 114.89 177.992 115.338 178.6V176.704H118.722V190H115.338V188.056C114.906 188.68 114.306 189.2 113.538 189.616C112.786 190.016 111.914 190.216 110.922 190.216C109.802 190.216 108.778 189.928 107.85 189.352C106.938 188.776 106.21 187.968 105.666 186.928C105.138 185.872 104.874 184.664 104.874 183.304ZM115.338 183.352C115.338 182.536 115.178 181.84 114.858 181.264C114.538 180.672 114.106 180.224 113.562 179.92C113.018 179.6 112.434 179.44 111.81 179.44C111.186 179.44 110.61 179.592 110.082 179.896C109.554 180.2 109.122 180.648 108.786 181.24C108.466 181.816 108.306 182.504 108.306 183.304C108.306 184.104 108.466 184.808 108.786 185.416C109.122 186.008 109.554 186.464 110.082 186.784C110.626 187.104 111.202 187.264 111.81 187.264C112.434 187.264 113.018 187.112 113.562 186.808C114.106 186.488 114.538 186.04 114.858 185.464C115.178 184.872 115.338 184.168 115.338 183.352ZM129.372 176.512C130.956 176.512 132.236 177.016 133.212 178.024C134.188 179.016 134.676 180.408 134.676 182.2V190H131.316V182.656C131.316 181.6 131.052 180.792 130.524 180.232C129.996 179.656 129.276 179.368 128.364 179.368C127.436 179.368 126.7 179.656 126.156 180.232C125.628 180.792 125.364 181.6 125.364 182.656V190H122.004V176.704H125.364V178.36C125.812 177.784 126.38 177.336 127.068 177.016C127.772 176.68 128.54 176.512 129.372 176.512ZM137.007 183.352C137.007 181.976 137.287 180.776 137.847 179.752C138.407 178.712 139.183 177.912 140.175 177.352C141.167 176.776 142.303 176.488 143.583 176.488C145.231 176.488 146.591 176.904 147.663 177.736C148.751 178.552 149.479 179.704 149.847 181.192H146.223C146.031 180.616 145.703 180.168 145.239 179.848C144.791 179.512 144.231 179.344 143.559 179.344C142.599 179.344 141.839 179.696 141.279 180.4C140.719 181.088 140.439 182.072 140.439 183.352C140.439 184.616 140.719 185.6 141.279 186.304C141.839 186.992 142.599 187.336 143.559 187.336C144.919 187.336 145.807 186.728 146.223 185.512H149.847C149.479 186.952 148.751 188.096 147.663 188.944C146.575 189.792 145.215 190.216 143.583 190.216C142.303 190.216 141.167 189.936 140.175 189.376C139.183 188.8 138.407 188 137.847 186.976C137.287 185.936 137.007 184.728 137.007 183.352ZM164.668 183.064C164.668 183.544 164.636 183.976 164.572 184.36H154.852C154.932 185.32 155.268 186.072 155.86 186.616C156.452 187.16 157.18 187.432 158.044 187.432C159.292 187.432 160.18 186.896 160.708 185.824H164.332C163.948 187.104 163.212 188.16 162.124 188.992C161.036 189.808 159.7 190.216 158.116 190.216C156.836 190.216 155.684 189.936 154.66 189.376C153.652 188.8 152.86 187.992 152.284 186.952C151.724 185.912 151.444 184.712 151.444 183.352C151.444 181.976 151.724 180.768 152.284 179.728C152.844 178.688 153.628 177.888 154.636 177.328C155.644 176.768 156.804 176.488 158.116 176.488C159.38 176.488 160.508 176.76 161.5 177.304C162.508 177.848 163.284 178.624 163.828 179.632C164.388 180.624 164.668 181.768 164.668 183.064ZM161.188 182.104C161.172 181.24 160.86 180.552 160.252 180.04C159.644 179.512 158.9 179.248 158.02 179.248C157.188 179.248 156.484 179.504 155.908 180.016C155.348 180.512 155.004 181.208 154.876 182.104H161.188ZM20.2911 209.248V226H16.9311V215.104L12.4431 226H9.89909L5.38709 215.104V226H2.02709V209.248H5.84309L11.1711 221.704L16.4991 209.248H20.2911ZM35.973 219.064C35.973 219.544 35.941 219.976 35.877 220.36H26.157C26.237 221.32 26.573 222.072 27.165 222.616C27.757 223.16 28.485 223.432 29.349 223.432C30.597 223.432 31.485 222.896 32.013 221.824H35.637C35.253 223.104 34.517 224.16 33.429 224.992C32.341 225.808 31.005 226.216 29.421 226.216C28.141 226.216 26.989 225.936 25.965 225.376C24.957 224.8 24.165 223.992 23.589 222.952C23.029 221.912 22.749 220.712 22.749 219.352C22.749 217.976 23.029 216.768 23.589 215.728C24.149 214.688 24.933 213.888 25.941 213.328C26.949 212.768 28.109 212.488 29.421 212.488C30.685 212.488 31.813 212.76 32.805 213.304C33.813 213.848 34.589 214.624 35.133 215.632C35.693 216.624 35.973 217.768 35.973 219.064ZM32.493 218.104C32.477 217.24 32.165 216.552 31.557 216.04C30.949 215.512 30.205 215.248 29.325 215.248C28.493 215.248 27.789 215.504 27.213 216.016C26.653 216.512 26.309 217.208 26.181 218.104H32.493ZM37.5615 219.304C37.5615 217.96 37.8255 216.768 38.3535 215.728C38.8975 214.688 39.6255 213.888 40.5375 213.328C41.4655 212.768 42.4975 212.488 43.6335 212.488C44.6255 212.488 45.4895 212.688 46.2255 213.088C46.9775 213.488 47.5775 213.992 48.0255 214.6V212.704H51.4095V226H48.0255V224.056C47.5935 224.68 46.9935 225.2 46.2255 225.616C45.4735 226.016 44.6015 226.216 43.6095 226.216C42.4895 226.216 41.4655 225.928 40.5375 225.352C39.6255 224.776 38.8975 223.968 38.3535 222.928C37.8255 221.872 37.5615 220.664 37.5615 219.304ZM48.0255 219.352C48.0255 218.536 47.8655 217.84 47.5455 217.264C47.2255 216.672 46.7935 216.224 46.2495 215.92C45.7055 215.6 45.1215 215.44 44.4975 215.44C43.8735 215.44 43.2975 215.592 42.7695 215.896C42.2415 216.2 41.8095 216.648 41.4735 217.24C41.1535 217.816 40.9935 218.504 40.9935 219.304C40.9935 220.104 41.1535 220.808 41.4735 221.416C41.8095 222.008 42.2415 222.464 42.7695 222.784C43.3135 223.104 43.8895 223.264 44.4975 223.264C45.1215 223.264 45.7055 223.112 46.2495 222.808C46.7935 222.488 47.2255 222.04 47.5455 221.464C47.8655 220.872 48.0255 220.168 48.0255 219.352ZM59.7792 226.216C58.6912 226.216 57.7152 226.024 56.8512 225.64C55.9872 225.24 55.2992 224.704 54.7872 224.032C54.2912 223.36 54.0192 222.616 53.9712 221.8H57.3552C57.4192 222.312 57.6672 222.736 58.0992 223.072C58.5472 223.408 59.0992 223.576 59.7552 223.576C60.3952 223.576 60.8912 223.448 61.2432 223.192C61.6112 222.936 61.7952 222.608 61.7952 222.208C61.7952 221.776 61.5712 221.456 61.1232 221.248C60.6912 221.024 59.9952 220.784 59.0352 220.528C58.0432 220.288 57.2272 220.04 56.5872 219.784C55.9632 219.528 55.4192 219.136 54.9552 218.608C54.5072 218.08 54.2832 217.368 54.2832 216.472C54.2832 215.736 54.4912 215.064 54.9072 214.456C55.3392 213.848 55.9472 213.368 56.7312 213.016C57.5312 212.664 58.4672 212.488 59.5392 212.488C61.1232 212.488 62.3872 212.888 63.3312 213.688C64.2752 214.472 64.7952 215.536 64.8912 216.88H61.6752C61.6272 216.352 61.4032 215.936 61.0032 215.632C60.6192 215.312 60.0992 215.152 59.4432 215.152C58.8352 215.152 58.3632 215.264 58.0272 215.488C57.7072 215.712 57.5472 216.024 57.5472 216.424C57.5472 216.872 57.7712 217.216 58.2192 217.456C58.6672 217.68 59.3632 217.912 60.3072 218.152C61.2672 218.392 62.0592 218.64 62.6832 218.896C63.3072 219.152 63.8432 219.552 64.2912 220.096C64.7552 220.624 64.9952 221.328 65.0112 222.208C65.0112 222.976 64.7952 223.664 64.3632 224.272C63.9472 224.88 63.3392 225.36 62.5392 225.712C61.7552 226.048 60.8352 226.216 59.7792 226.216ZM80.3213 212.704V226H76.9373V224.32C76.5053 224.896 75.9373 225.352 75.2333 225.688C74.5453 226.008 73.7933 226.168 72.9773 226.168C71.9373 226.168 71.0173 225.952 70.2173 225.52C69.4173 225.072 68.7853 224.424 68.3213 223.576C67.8733 222.712 67.6493 221.688 67.6493 220.504V212.704H71.0093V220.024C71.0093 221.08 71.2733 221.896 71.8013 222.472C72.3293 223.032 73.0493 223.312 73.9613 223.312C74.8893 223.312 75.6173 223.032 76.1453 222.472C76.6733 221.896 76.9373 221.08 76.9373 220.024V212.704H80.3213ZM86.9965 214.768C87.4285 214.064 87.9885 213.512 88.6765 213.112C89.3805 212.712 90.1805 212.512 91.0765 212.512V216.04H90.1885C89.1325 216.04 88.3325 216.288 87.7885 216.784C87.2605 217.28 86.9965 218.144 86.9965 219.376V226H83.6365V212.704H86.9965V214.768ZM105.7 219.064C105.7 219.544 105.668 219.976 105.604 220.36H95.8836C95.9636 221.32 96.2996 222.072 96.8916 222.616C97.4836 223.16 98.2116 223.432 99.0756 223.432C100.324 223.432 101.212 222.896 101.74 221.824H105.364C104.98 223.104 104.244 224.16 103.156 224.992C102.068 225.808 100.732 226.216 99.1476 226.216C97.8676 226.216 96.7156 225.936 95.6916 225.376C94.6836 224.8 93.8916 223.992 93.3156 222.952C92.7556 221.912 92.4756 220.712 92.4756 219.352C92.4756 217.976 92.7556 216.768 93.3156 215.728C93.8756 214.688 94.6596 213.888 95.6676 213.328C96.6756 212.768 97.8356 212.488 99.1476 212.488C100.412 212.488 101.54 212.76 102.532 213.304C103.54 213.848 104.316 214.624 104.86 215.632C105.42 216.624 105.7 217.768 105.7 219.064ZM102.22 218.104C102.204 217.24 101.892 216.552 101.284 216.04C100.676 215.512 99.9316 215.248 99.0516 215.248C98.2196 215.248 97.5156 215.504 96.9396 216.016C96.3796 216.512 96.0356 217.208 95.9076 218.104H102.22ZM124.664 212.512C126.296 212.512 127.608 213.016 128.6 214.024C129.608 215.016 130.112 216.408 130.112 218.2V226H126.752V218.656C126.752 217.616 126.488 216.824 125.96 216.28C125.432 215.72 124.712 215.44 123.8 215.44C122.888 215.44 122.16 215.72 121.616 216.28C121.088 216.824 120.824 217.616 120.824 218.656V226H117.464V218.656C117.464 217.616 117.2 216.824 116.672 216.28C116.144 215.72 115.424 215.44 114.512 215.44C113.584 215.44 112.848 215.72 112.304 216.28C111.776 216.824 111.512 217.616 111.512 218.656V226H108.152V212.704H111.512V214.312C111.944 213.752 112.496 213.312 113.168 212.992C113.856 212.672 114.608 212.512 115.424 212.512C116.464 212.512 117.392 212.736 118.208 213.184C119.024 213.616 119.656 214.24 120.104 215.056C120.536 214.288 121.16 213.672 121.976 213.208C122.808 212.744 123.704 212.512 124.664 212.512ZM145.661 219.064C145.661 219.544 145.629 219.976 145.565 220.36H135.845C135.925 221.32 136.261 222.072 136.853 222.616C137.445 223.16 138.173 223.432 139.037 223.432C140.285 223.432 141.173 222.896 141.701 221.824H145.325C144.941 223.104 144.205 224.16 143.117 224.992C142.029 225.808 140.693 226.216 139.109 226.216C137.829 226.216 136.677 225.936 135.653 225.376C134.645 224.8 133.853 223.992 133.277 222.952C132.717 221.912 132.437 220.712 132.437 219.352C132.437 217.976 132.717 216.768 133.277 215.728C133.837 214.688 134.621 213.888 135.629 213.328C136.637 212.768 137.797 212.488 139.109 212.488C140.373 212.488 141.501 212.76 142.493 213.304C143.501 213.848 144.277 214.624 144.821 215.632C145.381 216.624 145.661 217.768 145.661 219.064ZM142.181 218.104C142.165 217.24 141.853 216.552 141.245 216.04C140.637 215.512 139.893 215.248 139.013 215.248C138.181 215.248 137.477 215.504 136.901 216.016C136.341 216.512 135.997 217.208 135.869 218.104H142.181ZM155.481 212.512C157.065 212.512 158.345 213.016 159.321 214.024C160.297 215.016 160.785 216.408 160.785 218.2V226H157.425V218.656C157.425 217.6 157.161 216.792 156.633 216.232C156.105 215.656 155.385 215.368 154.473 215.368C153.545 215.368 152.809 215.656 152.265 216.232C151.737 216.792 151.473 217.6 151.473 218.656V226H148.113V212.704H151.473V214.36C151.921 213.784 152.489 213.336 153.177 213.016C153.881 212.68 154.649 212.512 155.481 212.512ZM167.892 215.464V221.896C167.892 222.344 167.996 222.672 168.204 222.88C168.428 223.072 168.796 223.168 169.308 223.168H170.868V226H168.756C165.924 226 164.508 224.624 164.508 221.872V215.464H162.924V212.704H164.508V209.416H167.892V212.704H170.868V215.464H167.892Z"/>
</svg>
