<svg width="167" height="246" viewBox="0 0 167 246" fill="none" xmlns="http://www.w3.org/2000/svg">
<path d="M80.0373 131.541H61.3823C43.0006 131.541 34.459 122.999 34.459 104.617V85.9624C34.459 67.6491 43.0006 59.1074 61.3823 59.1074H80.0373C98.3507 59.1074 106.961 67.6491 106.961 86.0308V104.686C106.892 122.999 98.3507 131.541 80.0373 131.541ZM61.3823 69.3574C48.604 69.3574 44.709 73.2524 44.709 86.0308V104.686C44.709 117.464 48.604 121.359 61.3823 121.359H80.0373C92.8156 121.359 96.7106 117.464 96.7106 104.686V86.0308C96.7106 73.2524 92.8156 69.3574 80.0373 69.3574H61.3823Z"/>
<path d="M106.621 104.892H101.77C98.968 104.892 96.6447 102.568 96.6447 99.7668V85.9635C96.6447 73.1852 92.7497 69.2902 79.9713 69.2902H66.2363C63.4347 69.2902 61.1113 66.9668 61.1113 64.1652V59.3818C61.1113 41.0685 69.653 32.4585 88.0347 32.4585H106.69C125.003 32.4585 133.613 41.0002 133.613 59.3818V78.0368C133.545 96.3502 125.003 104.892 106.621 104.892ZM71.3613 59.1085H80.0397C98.353 59.1085 106.963 67.6502 106.963 86.0318V94.7102C119.536 94.6418 123.363 90.7468 123.363 78.0368V59.3818C123.363 46.6035 119.468 42.7085 106.69 42.7085H88.0347C75.3247 42.7085 71.4297 46.5352 71.3613 59.1085Z"/>
<path d="M104.502 155.46C102.657 155.46 100.949 154.435 100.06 152.863C99.172 151.223 99.172 149.31 100.129 147.67L107.304 135.711C108.739 133.251 111.882 132.5 114.342 133.935C116.802 135.37 117.554 138.513 116.119 140.973L114.274 144.048C133.134 139.606 147.279 122.66 147.279 102.433C147.279 99.6314 149.602 97.3081 152.404 97.3081C155.205 97.3081 157.529 99.6314 157.529 102.433C157.46 131.68 133.68 155.46 104.502 155.46Z"/>
<path d="M15.666 66.6248C12.8643 66.6248 10.541 64.3015 10.541 61.4998C10.541 32.3215 34.321 8.5415 63.4994 8.5415C65.3443 8.5415 67.0527 9.5665 67.941 11.1382C68.8293 12.7782 68.8294 14.6915 67.8727 16.3315L60.6977 28.2898C59.2627 30.6815 56.1194 31.5015 53.6594 29.9982C51.2677 28.5632 50.4477 25.4198 51.951 22.9598L53.796 19.8848C34.8677 24.3265 20.791 41.2732 20.791 61.4998C20.791 64.3015 18.4677 66.6248 15.666 66.6248Z"/>
<path d="M35.59 191.6C35.59 189.952 35.958 188.48 36.694 187.184C37.446 185.872 38.462 184.856 39.742 184.136C41.038 183.4 42.486 183.032 44.086 183.032C45.958 183.032 47.598 183.512 49.006 184.472C50.414 185.432 51.398 186.76 51.958 188.456H48.094C47.71 187.656 47.166 187.056 46.462 186.656C45.774 186.256 44.974 186.056 44.062 186.056C43.086 186.056 42.214 186.288 41.446 186.752C40.694 187.2 40.102 187.84 39.67 188.672C39.254 189.504 39.046 190.48 39.046 191.6C39.046 192.704 39.254 193.68 39.67 194.528C40.102 195.36 40.694 196.008 41.446 196.472C42.214 196.92 43.086 197.144 44.062 197.144C44.974 197.144 45.774 196.944 46.462 196.544C47.166 196.128 47.71 195.52 48.094 194.72H51.958C51.398 196.432 50.414 197.768 49.006 198.728C47.614 199.672 45.974 200.144 44.086 200.144C42.486 200.144 41.038 199.784 39.742 199.064C38.462 198.328 37.446 197.312 36.694 196.016C35.958 194.72 35.59 193.248 35.59 191.6ZM62.3159 186.512C63.3239 186.512 64.2199 186.736 65.0039 187.184C65.7879 187.616 66.3959 188.264 66.8279 189.128C67.2759 189.976 67.4999 191 67.4999 192.2V200H64.1399V192.656C64.1399 191.6 63.8759 190.792 63.3479 190.232C62.8199 189.656 62.0999 189.368 61.1879 189.368C60.2599 189.368 59.5239 189.656 58.9799 190.232C58.4519 190.792 58.1879 191.6 58.1879 192.656V200H54.8279V182.24H58.1879V188.36C58.6199 187.784 59.1959 187.336 59.9159 187.016C60.6359 186.68 61.4359 186.512 62.3159 186.512ZM69.8311 193.304C69.8311 191.96 70.0951 190.768 70.6231 189.728C71.1671 188.688 71.8951 187.888 72.8071 187.328C73.7351 186.768 74.7671 186.488 75.9031 186.488C76.8951 186.488 77.7591 186.688 78.4951 187.088C79.2471 187.488 79.8471 187.992 80.2951 188.6V186.704H83.6791V200H80.2951V198.056C79.8631 198.68 79.2631 199.2 78.4951 199.616C77.7431 200.016 76.8711 200.216 75.8791 200.216C74.7591 200.216 73.7351 199.928 72.8071 199.352C71.8951 198.776 71.1671 197.968 70.6231 196.928C70.0951 195.872 69.8311 194.664 69.8311 193.304ZM80.2951 193.352C80.2951 192.536 80.1351 191.84 79.8151 191.264C79.4951 190.672 79.0631 190.224 78.5191 189.92C77.9751 189.6 77.3911 189.44 76.7671 189.44C76.1431 189.44 75.5671 189.592 75.0391 189.896C74.5111 190.2 74.0791 190.648 73.7431 191.24C73.4231 191.816 73.2631 192.504 73.2631 193.304C73.2631 194.104 73.4231 194.808 73.7431 195.416C74.0791 196.008 74.5111 196.464 75.0391 196.784C75.5831 197.104 76.1591 197.264 76.7671 197.264C77.3911 197.264 77.9751 197.112 78.5191 196.808C79.0631 196.488 79.4951 196.04 79.8151 195.464C80.1351 194.872 80.2951 194.168 80.2951 193.352ZM94.3287 186.512C95.9127 186.512 97.1927 187.016 98.1687 188.024C99.1447 189.016 99.6327 190.408 99.6327 192.2V200H96.2727V192.656C96.2727 191.6 96.0087 190.792 95.4807 190.232C94.9527 189.656 94.2327 189.368 93.3207 189.368C92.3927 189.368 91.6567 189.656 91.1127 190.232C90.5847 190.792 90.3207 191.6 90.3207 192.656V200H86.9607V186.704H90.3207V188.36C90.7687 187.784 91.3367 187.336 92.0247 187.016C92.7287 186.68 93.4967 186.512 94.3287 186.512ZM108.036 186.488C109.028 186.488 109.9 186.688 110.652 187.088C111.404 187.472 111.996 187.976 112.428 188.6V186.704H115.812V200.096C115.812 201.328 115.564 202.424 115.068 203.384C114.572 204.36 113.828 205.128 112.836 205.688C111.844 206.264 110.644 206.552 109.236 206.552C107.348 206.552 105.796 206.112 104.58 205.232C103.38 204.352 102.7 203.152 102.54 201.632H105.876C106.052 202.24 106.428 202.72 107.004 203.072C107.596 203.44 108.308 203.624 109.14 203.624C110.116 203.624 110.908 203.328 111.516 202.736C112.124 202.16 112.428 201.28 112.428 200.096V198.032C111.996 198.656 111.396 199.176 110.628 199.592C109.876 200.008 109.012 200.216 108.036 200.216C106.916 200.216 105.892 199.928 104.964 199.352C104.036 198.776 103.3 197.968 102.756 196.928C102.228 195.872 101.964 194.664 101.964 193.304C101.964 191.96 102.228 190.768 102.756 189.728C103.3 188.688 104.028 187.888 104.94 187.328C105.868 186.768 106.9 186.488 108.036 186.488ZM112.428 193.352C112.428 192.536 112.268 191.84 111.948 191.264C111.628 190.672 111.196 190.224 110.652 189.92C110.108 189.6 109.524 189.44 108.9 189.44C108.276 189.44 107.7 189.592 107.172 189.896C106.644 190.2 106.212 190.648 105.876 191.24C105.556 191.816 105.396 192.504 105.396 193.304C105.396 194.104 105.556 194.808 105.876 195.416C106.212 196.008 106.644 196.464 107.172 196.784C107.716 197.104 108.292 197.264 108.9 197.264C109.524 197.264 110.108 197.112 110.652 196.808C111.196 196.488 111.628 196.04 111.948 195.464C112.268 194.872 112.428 194.168 112.428 193.352ZM131.454 193.064C131.454 193.544 131.422 193.976 131.358 194.36H121.638C121.718 195.32 122.054 196.072 122.646 196.616C123.238 197.16 123.966 197.432 124.83 197.432C126.078 197.432 126.966 196.896 127.494 195.824H131.118C130.734 197.104 129.998 198.16 128.91 198.992C127.822 199.808 126.486 200.216 124.902 200.216C123.622 200.216 122.47 199.936 121.446 199.376C120.438 198.8 119.646 197.992 119.07 196.952C118.51 195.912 118.229 194.712 118.229 193.352C118.229 191.976 118.51 190.768 119.07 189.728C119.63 188.688 120.414 187.888 121.422 187.328C122.43 186.768 123.59 186.488 124.902 186.488C126.166 186.488 127.294 186.76 128.286 187.304C129.294 187.848 130.07 188.624 130.614 189.632C131.174 190.624 131.454 191.768 131.454 193.064ZM127.974 192.104C127.958 191.24 127.646 190.552 127.038 190.04C126.43 189.512 125.686 189.248 124.806 189.248C123.974 189.248 123.27 189.504 122.694 190.016C122.134 190.512 121.79 191.208 121.662 192.104H127.974ZM20.3223 219.248V236H16.9623V225.104L12.4743 236H9.93034L5.41834 225.104V236H2.05834V219.248H5.87434L11.2023 231.704L16.5303 219.248H20.3223ZM22.7803 229.304C22.7803 227.96 23.0443 226.768 23.5723 225.728C24.1163 224.688 24.8443 223.888 25.7563 223.328C26.6843 222.768 27.7163 222.488 28.8523 222.488C29.8443 222.488 30.7083 222.688 31.4443 223.088C32.1963 223.488 32.7963 223.992 33.2443 224.6V222.704H36.6283V236H33.2443V234.056C32.8123 234.68 32.2123 235.2 31.4443 235.616C30.6923 236.016 29.8203 236.216 28.8283 236.216C27.7083 236.216 26.6843 235.928 25.7563 235.352C24.8443 234.776 24.1163 233.968 23.5723 232.928C23.0443 231.872 22.7803 230.664 22.7803 229.304ZM33.2443 229.352C33.2443 228.536 33.0843 227.84 32.7643 227.264C32.4443 226.672 32.0123 226.224 31.4683 225.92C30.9243 225.6 30.3403 225.44 29.7163 225.44C29.0923 225.44 28.5163 225.592 27.9883 225.896C27.4603 226.2 27.0283 226.648 26.6923 227.24C26.3723 227.816 26.2123 228.504 26.2123 229.304C26.2123 230.104 26.3723 230.808 26.6923 231.416C27.0283 232.008 27.4603 232.464 27.9883 232.784C28.5323 233.104 29.1083 233.264 29.7163 233.264C30.3403 233.264 30.9243 233.112 31.4683 232.808C32.0123 232.488 32.4443 232.04 32.7643 231.464C33.0843 230.872 33.2443 230.168 33.2443 229.352ZM47.2779 222.512C48.8619 222.512 50.1419 223.016 51.1179 224.024C52.0939 225.016 52.5819 226.408 52.5819 228.2V236H49.2219V228.656C49.2219 227.6 48.9579 226.792 48.4299 226.232C47.9019 225.656 47.1819 225.368 46.2699 225.368C45.3419 225.368 44.6059 225.656 44.0619 226.232C43.5339 226.792 43.2699 227.6 43.2699 228.656V236H39.9099V222.704H43.2699V224.36C43.7179 223.784 44.2859 223.336 44.9739 223.016C45.6779 222.68 46.4459 222.512 47.2779 222.512ZM54.9131 229.304C54.9131 227.96 55.1771 226.768 55.7051 225.728C56.2491 224.688 56.9771 223.888 57.8891 223.328C58.8171 222.768 59.8491 222.488 60.9851 222.488C61.9771 222.488 62.8411 222.688 63.5771 223.088C64.3291 223.488 64.9291 223.992 65.3771 224.6V222.704H68.7611V236H65.3771V234.056C64.9451 234.68 64.3451 235.2 63.5771 235.616C62.8251 236.016 61.9531 236.216 60.9611 236.216C59.8411 236.216 58.8171 235.928 57.8891 235.352C56.9771 234.776 56.2491 233.968 55.7051 232.928C55.1771 231.872 54.9131 230.664 54.9131 229.304ZM65.3771 229.352C65.3771 228.536 65.2171 227.84 64.8971 227.264C64.5771 226.672 64.1451 226.224 63.6011 225.92C63.0571 225.6 62.4731 225.44 61.8491 225.44C61.2251 225.44 60.6491 225.592 60.1211 225.896C59.5931 226.2 59.1611 226.648 58.8251 227.24C58.5051 227.816 58.3451 228.504 58.3451 229.304C58.3451 230.104 58.5051 230.808 58.8251 231.416C59.1611 232.008 59.5931 232.464 60.1211 232.784C60.6651 233.104 61.2411 233.264 61.8491 233.264C62.4731 233.264 63.0571 233.112 63.6011 232.808C64.1451 232.488 64.5771 232.04 64.8971 231.464C65.2171 230.872 65.3771 230.168 65.3771 229.352ZM77.2507 222.488C78.2427 222.488 79.1147 222.688 79.8667 223.088C80.6187 223.472 81.2107 223.976 81.6427 224.6V222.704H85.0267V236.096C85.0267 237.328 84.7787 238.424 84.2827 239.384C83.7867 240.36 83.0427 241.128 82.0507 241.688C81.0587 242.264 79.8587 242.552 78.4507 242.552C76.5627 242.552 75.0107 242.112 73.7947 241.232C72.5947 240.352 71.9147 239.152 71.7547 237.632H75.0907C75.2667 238.24 75.6427 238.72 76.2187 239.072C76.8107 239.44 77.5227 239.624 78.3547 239.624C79.3307 239.624 80.1227 239.328 80.7307 238.736C81.3387 238.16 81.6427 237.28 81.6427 236.096V234.032C81.2107 234.656 80.6107 235.176 79.8427 235.592C79.0907 236.008 78.2267 236.216 77.2507 236.216C76.1307 236.216 75.1067 235.928 74.1787 235.352C73.2507 234.776 72.5147 233.968 71.9707 232.928C71.4427 231.872 71.1787 230.664 71.1787 229.304C71.1787 227.96 71.4427 226.768 71.9707 225.728C72.5147 224.688 73.2427 223.888 74.1547 223.328C75.0827 222.768 76.1147 222.488 77.2507 222.488ZM81.6427 229.352C81.6427 228.536 81.4827 227.84 81.1627 227.264C80.8427 226.672 80.4107 226.224 79.8667 225.92C79.3227 225.6 78.7387 225.44 78.1147 225.44C77.4907 225.44 76.9147 225.592 76.3867 225.896C75.8587 226.2 75.4267 226.648 75.0907 227.24C74.7707 227.816 74.6107 228.504 74.6107 229.304C74.6107 230.104 74.7707 230.808 75.0907 231.416C75.4267 232.008 75.8587 232.464 76.3867 232.784C76.9307 233.104 77.5067 233.264 78.1147 233.264C78.7387 233.264 79.3227 233.112 79.8667 232.808C80.4107 232.488 80.8427 232.04 81.1627 231.464C81.4827 230.872 81.6427 230.168 81.6427 229.352ZM100.668 229.064C100.668 229.544 100.636 229.976 100.572 230.36H90.8523C90.9323 231.32 91.2683 232.072 91.8603 232.616C92.4523 233.16 93.1803 233.432 94.0443 233.432C95.2923 233.432 96.1803 232.896 96.7083 231.824H100.332C99.9483 233.104 99.2123 234.16 98.1243 234.992C97.0363 235.808 95.7003 236.216 94.1163 236.216C92.8363 236.216 91.6843 235.936 90.6603 235.376C89.6523 234.8 88.8603 233.992 88.2843 232.952C87.7243 231.912 87.4443 230.712 87.4443 229.352C87.4443 227.976 87.7243 226.768 88.2843 225.728C88.8443 224.688 89.6283 223.888 90.6363 223.328C91.6443 222.768 92.8043 222.488 94.1163 222.488C95.3803 222.488 96.5083 222.76 97.5003 223.304C98.5083 223.848 99.2843 224.624 99.8283 225.632C100.388 226.624 100.668 227.768 100.668 229.064ZM97.1883 228.104C97.1723 227.24 96.8603 226.552 96.2523 226.04C95.6443 225.512 94.9003 225.248 94.0203 225.248C93.1883 225.248 92.4843 225.504 91.9083 226.016C91.3483 226.512 91.0043 227.208 90.8763 228.104H97.1883ZM119.633 222.512C121.265 222.512 122.577 223.016 123.569 224.024C124.577 225.016 125.081 226.408 125.081 228.2V236H121.721V228.656C121.721 227.616 121.457 226.824 120.929 226.28C120.401 225.72 119.681 225.44 118.769 225.44C117.857 225.44 117.129 225.72 116.585 226.28C116.057 226.824 115.793 227.616 115.793 228.656V236H112.433V228.656C112.433 227.616 112.169 226.824 111.641 226.28C111.113 225.72 110.393 225.44 109.481 225.44C108.553 225.44 107.817 225.72 107.273 226.28C106.745 226.824 106.481 227.616 106.481 228.656V236H103.121V222.704H106.481V224.312C106.913 223.752 107.465 223.312 108.137 222.992C108.825 222.672 109.577 222.512 110.393 222.512C111.433 222.512 112.361 222.736 113.177 223.184C113.993 223.616 114.625 224.24 115.073 225.056C115.505 224.288 116.129 223.672 116.945 223.208C117.777 222.744 118.673 222.512 119.633 222.512ZM140.629 229.064C140.629 229.544 140.597 229.976 140.533 230.36H130.813C130.893 231.32 131.229 232.072 131.821 232.616C132.413 233.16 133.141 233.432 134.005 233.432C135.253 233.432 136.141 232.896 136.669 231.824H140.293C139.909 233.104 139.173 234.16 138.085 234.992C136.997 235.808 135.661 236.216 134.077 236.216C132.797 236.216 131.645 235.936 130.621 235.376C129.613 234.8 128.821 233.992 128.245 232.952C127.685 231.912 127.405 230.712 127.405 229.352C127.405 227.976 127.685 226.768 128.245 225.728C128.805 224.688 129.589 223.888 130.597 223.328C131.605 222.768 132.765 222.488 134.077 222.488C135.341 222.488 136.469 222.76 137.461 223.304C138.469 223.848 139.245 224.624 139.789 225.632C140.349 226.624 140.629 227.768 140.629 229.064ZM137.149 228.104C137.133 227.24 136.821 226.552 136.213 226.04C135.605 225.512 134.861 225.248 133.981 225.248C133.149 225.248 132.445 225.504 131.869 226.016C131.309 226.512 130.965 227.208 130.837 228.104H137.149ZM150.45 222.512C152.034 222.512 153.314 223.016 154.29 224.024C155.266 225.016 155.754 226.408 155.754 228.2V236H152.394V228.656C152.394 227.6 152.13 226.792 151.602 226.232C151.074 225.656 150.354 225.368 149.442 225.368C148.514 225.368 147.778 225.656 147.234 226.232C146.706 226.792 146.442 227.6 146.442 228.656V236H143.082V222.704H146.442V224.36C146.89 223.784 147.458 223.336 148.146 223.016C148.85 222.68 149.618 222.512 150.45 222.512ZM162.861 225.464V231.896C162.861 232.344 162.965 232.672 163.173 232.88C163.397 233.072 163.765 233.168 164.277 233.168H165.837V236H163.725C160.893 236 159.477 234.624 159.477 231.872V225.464H157.893V222.704H159.477V219.416H162.861V222.704H165.837V225.464H162.861Z"/>
</svg>
