<svg width="147" height="224" viewBox="0 0 167 244" fill="none" xmlns="http://www.w3.org/2000/svg">
<path d="M93.1409 36.6924H73.8704C66.0856 36.6924 59.6408 30.3751 59.5131 22.5903L59.3217 12.8275C59.2579 10.2113 61.3635 7.97787 63.9797 7.91406C64.0435 7.91406 64.0437 7.91406 64.1075 7.91406C66.7237 7.91406 68.8294 10.0197 68.8932 12.5721L69.0846 22.3352C69.1484 24.8876 71.318 27.057 73.8704 27.057H93.1409C95.8209 27.057 97.9266 24.8875 97.9266 22.2713V12.7637C97.9266 10.1475 100.096 7.97793 102.712 7.97793C105.329 7.97793 107.498 10.1475 107.498 12.7637V22.3352C107.498 30.2476 101.053 36.6924 93.1409 36.6924Z" />
<path d="M115.473 138.783C114.261 138.783 113.048 138.336 112.091 137.379L99.3293 124.617C97.4788 122.767 97.4788 119.703 99.3293 117.853L112.091 105.091C113.942 103.241 117.005 103.241 118.855 105.091C120.706 106.941 120.706 110.005 118.855 111.855L109.475 121.235L118.855 130.615C120.706 132.465 120.706 135.529 118.855 137.379C117.898 138.336 116.686 138.783 115.473 138.783Z" />
<path d="M134.617 138.783C133.405 138.783 132.193 138.336 131.236 137.379C129.385 135.529 129.385 132.465 131.236 130.615L140.616 121.235L131.236 111.855C129.385 110.005 129.385 106.941 131.236 105.091C133.086 103.241 136.149 103.241 137.999 105.091L150.761 117.853C152.612 119.703 152.612 122.767 150.761 124.617L137.999 137.379C137.042 138.336 135.83 138.783 134.617 138.783Z" />
<path d="M89.9531 145.166H58.0481C34.7575 145.166 21.3574 131.766 21.3574 108.475V44.6653C21.3574 21.3747 34.7575 7.97461 58.0481 7.97461H109.096C132.387 7.97461 145.787 21.3747 145.787 44.6653V89.3322C145.787 91.9484 143.617 94.118 141.001 94.118C138.385 94.118 136.215 91.9484 136.215 89.3322V44.6653C136.215 26.4157 127.346 17.5461 109.096 17.5461H58.0481C39.7985 17.5461 30.9289 26.4157 30.9289 44.6653V108.475C30.9289 126.725 39.7985 135.594 58.0481 135.594H89.9531C92.5693 135.594 94.7388 137.764 94.7388 140.38C94.7388 142.996 92.5693 145.166 89.9531 145.166Z" />
<path d="M54.9501 186.432C54.9501 187.328 54.7341 188.168 54.3021 188.952C53.8861 189.736 53.2221 190.368 52.3101 190.848C51.4141 191.328 50.2781 191.568 48.9021 191.568H46.0941V198H42.7341V181.248H48.9021C50.1981 181.248 51.3021 181.472 52.2141 181.92C53.1261 182.368 53.8061 182.984 54.2541 183.768C54.7181 184.552 54.9501 185.44 54.9501 186.432ZM48.7581 188.856C49.6861 188.856 50.3741 188.648 50.8221 188.232C51.2701 187.8 51.4941 187.2 51.4941 186.432C51.4941 184.8 50.5821 183.984 48.7581 183.984H46.0941V188.856H48.7581ZM60.6957 186.768C61.1277 186.064 61.6877 185.512 62.3757 185.112C63.0797 184.712 63.8797 184.512 64.7757 184.512V188.04H63.8877C62.8317 188.04 62.0317 188.288 61.4877 188.784C60.9597 189.28 60.6957 190.144 60.6957 191.376V198H57.3357V184.704H60.6957V186.768ZM72.9428 198.216C71.6628 198.216 70.5108 197.936 69.4868 197.376C68.4628 196.8 67.6548 195.992 67.0628 194.952C66.4868 193.912 66.1988 192.712 66.1988 191.352C66.1988 189.992 66.4948 188.792 67.0868 187.752C67.6948 186.712 68.5188 185.912 69.5588 185.352C70.5988 184.776 71.7588 184.488 73.0388 184.488C74.3188 184.488 75.4788 184.776 76.5188 185.352C77.5588 185.912 78.3748 186.712 78.9668 187.752C79.5748 188.792 79.8788 189.992 79.8788 191.352C79.8788 192.712 79.5668 193.912 78.9428 194.952C78.3348 195.992 77.5028 196.8 76.4468 197.376C75.4068 197.936 74.2388 198.216 72.9428 198.216ZM72.9428 195.288C73.5508 195.288 74.1188 195.144 74.6468 194.856C75.1908 194.552 75.6228 194.104 75.9428 193.512C76.2628 192.92 76.4228 192.2 76.4228 191.352C76.4228 190.088 76.0868 189.12 75.4148 188.448C74.7588 187.76 73.9508 187.416 72.9908 187.416C72.0308 187.416 71.2228 187.76 70.5668 188.448C69.9268 189.12 69.6068 190.088 69.6068 191.352C69.6068 192.616 69.9188 193.592 70.5428 194.28C71.1828 194.952 71.9828 195.288 72.9428 195.288ZM84.0475 183.12C83.4395 183.12 82.9355 182.936 82.5355 182.568C82.1515 182.184 81.9595 181.712 81.9595 181.152C81.9595 180.592 82.1515 180.128 82.5355 179.76C82.9355 179.376 83.4395 179.184 84.0475 179.184C84.6395 179.184 85.1275 179.376 85.5115 179.76C85.8955 180.128 86.0875 180.592 86.0875 181.152C86.0875 181.712 85.8955 182.184 85.5115 182.568C85.1275 182.936 84.6395 183.12 84.0475 183.12ZM85.7035 200.184C85.7035 201.656 85.3355 202.712 84.5995 203.352C83.8795 204.008 82.8395 204.336 81.4795 204.336H79.9915V201.48H80.9515C81.4635 201.48 81.8235 201.376 82.0315 201.168C82.2395 200.976 82.3435 200.656 82.3435 200.208V184.704H85.7035V200.184ZM101.383 191.064C101.383 191.544 101.351 191.976 101.287 192.36H91.5672C91.6472 193.32 91.9832 194.072 92.5752 194.616C93.1672 195.16 93.8952 195.432 94.7592 195.432C96.0072 195.432 96.8952 194.896 97.4232 193.824H101.047C100.663 195.104 99.9272 196.16 98.8392 196.992C97.7512 197.808 96.4152 198.216 94.8312 198.216C93.5512 198.216 92.3992 197.936 91.3752 197.376C90.3672 196.8 89.5752 195.992 88.9992 194.952C88.4392 193.912 88.1592 192.712 88.1592 191.352C88.1592 189.976 88.4392 188.768 88.9992 187.728C89.5592 186.688 90.3432 185.888 91.3512 185.328C92.3592 184.768 93.5192 184.488 94.8312 184.488C96.0952 184.488 97.2232 184.76 98.2152 185.304C99.2232 185.848 99.9992 186.624 100.543 187.632C101.103 188.624 101.383 189.768 101.383 191.064ZM97.9032 190.104C97.8872 189.24 97.5752 188.552 96.9672 188.04C96.3592 187.512 95.6152 187.248 94.7352 187.248C93.9032 187.248 93.1992 187.504 92.6232 188.016C92.0632 188.512 91.7192 189.208 91.5912 190.104H97.9032ZM102.972 191.352C102.972 189.976 103.252 188.776 103.812 187.752C104.372 186.712 105.148 185.912 106.14 185.352C107.132 184.776 108.268 184.488 109.548 184.488C111.196 184.488 112.556 184.904 113.628 185.736C114.716 186.552 115.444 187.704 115.812 189.192H112.188C111.996 188.616 111.668 188.168 111.204 187.848C110.756 187.512 110.196 187.344 109.524 187.344C108.564 187.344 107.804 187.696 107.244 188.4C106.684 189.088 106.404 190.072 106.404 191.352C106.404 192.616 106.684 193.6 107.244 194.304C107.804 194.992 108.564 195.336 109.524 195.336C110.884 195.336 111.772 194.728 112.188 193.512H115.812C115.444 194.952 114.716 196.096 113.628 196.944C112.54 197.792 111.18 198.216 109.548 198.216C108.268 198.216 107.132 197.936 106.14 197.376C105.148 196.8 104.372 196 103.812 194.976C103.252 193.936 102.972 192.728 102.972 191.352ZM122.185 187.464V193.896C122.185 194.344 122.289 194.672 122.497 194.88C122.721 195.072 123.089 195.168 123.601 195.168H125.161V198H123.049C120.217 198 118.801 196.624 118.801 193.872V187.464H117.217V184.704H118.801V181.416H122.185V184.704H125.161V187.464H122.185ZM20.3223 217.248V234H16.9623V223.104L12.4743 234H9.93034L5.41834 223.104V234H2.05834V217.248H5.87434L11.2023 229.704L16.5303 217.248H20.3223ZM22.7803 227.304C22.7803 225.96 23.0443 224.768 23.5723 223.728C24.1163 222.688 24.8443 221.888 25.7563 221.328C26.6843 220.768 27.7163 220.488 28.8523 220.488C29.8443 220.488 30.7083 220.688 31.4443 221.088C32.1963 221.488 32.7963 221.992 33.2443 222.6V220.704H36.6283V234H33.2443V232.056C32.8123 232.68 32.2123 233.2 31.4443 233.616C30.6923 234.016 29.8203 234.216 28.8283 234.216C27.7083 234.216 26.6843 233.928 25.7563 233.352C24.8443 232.776 24.1163 231.968 23.5723 230.928C23.0443 229.872 22.7803 228.664 22.7803 227.304ZM33.2443 227.352C33.2443 226.536 33.0843 225.84 32.7643 225.264C32.4443 224.672 32.0123 224.224 31.4683 223.92C30.9243 223.6 30.3403 223.44 29.7163 223.44C29.0923 223.44 28.5163 223.592 27.9883 223.896C27.4603 224.2 27.0283 224.648 26.6923 225.24C26.3723 225.816 26.2123 226.504 26.2123 227.304C26.2123 228.104 26.3723 228.808 26.6923 229.416C27.0283 230.008 27.4603 230.464 27.9883 230.784C28.5323 231.104 29.1083 231.264 29.7163 231.264C30.3403 231.264 30.9243 231.112 31.4683 230.808C32.0123 230.488 32.4443 230.04 32.7643 229.464C33.0843 228.872 33.2443 228.168 33.2443 227.352ZM47.2779 220.512C48.8619 220.512 50.1419 221.016 51.1179 222.024C52.0939 223.016 52.5819 224.408 52.5819 226.2V234H49.2219V226.656C49.2219 225.6 48.9579 224.792 48.4299 224.232C47.9019 223.656 47.1819 223.368 46.2699 223.368C45.3419 223.368 44.6059 223.656 44.0619 224.232C43.5339 224.792 43.2699 225.6 43.2699 226.656V234H39.9099V220.704H43.2699V222.36C43.7179 221.784 44.2859 221.336 44.9739 221.016C45.6779 220.68 46.4459 220.512 47.2779 220.512ZM54.9131 227.304C54.9131 225.96 55.1771 224.768 55.7051 223.728C56.2491 222.688 56.9771 221.888 57.8891 221.328C58.8171 220.768 59.8491 220.488 60.9851 220.488C61.9771 220.488 62.8411 220.688 63.5771 221.088C64.3291 221.488 64.9291 221.992 65.3771 222.6V220.704H68.7611V234H65.3771V232.056C64.9451 232.68 64.3451 233.2 63.5771 233.616C62.8251 234.016 61.9531 234.216 60.9611 234.216C59.8411 234.216 58.8171 233.928 57.8891 233.352C56.9771 232.776 56.2491 231.968 55.7051 230.928C55.1771 229.872 54.9131 228.664 54.9131 227.304ZM65.3771 227.352C65.3771 226.536 65.2171 225.84 64.8971 225.264C64.5771 224.672 64.1451 224.224 63.6011 223.92C63.0571 223.6 62.4731 223.44 61.8491 223.44C61.2251 223.44 60.6491 223.592 60.1211 223.896C59.5931 224.2 59.1611 224.648 58.8251 225.24C58.5051 225.816 58.3451 226.504 58.3451 227.304C58.3451 228.104 58.5051 228.808 58.8251 229.416C59.1611 230.008 59.5931 230.464 60.1211 230.784C60.6651 231.104 61.2411 231.264 61.8491 231.264C62.4731 231.264 63.0571 231.112 63.6011 230.808C64.1451 230.488 64.5771 230.04 64.8971 229.464C65.2171 228.872 65.3771 228.168 65.3771 227.352ZM77.2507 220.488C78.2427 220.488 79.1147 220.688 79.8667 221.088C80.6187 221.472 81.2107 221.976 81.6427 222.6V220.704H85.0267V234.096C85.0267 235.328 84.7787 236.424 84.2827 237.384C83.7867 238.36 83.0427 239.128 82.0507 239.688C81.0587 240.264 79.8587 240.552 78.4507 240.552C76.5627 240.552 75.0107 240.112 73.7947 239.232C72.5947 238.352 71.9147 237.152 71.7547 235.632H75.0907C75.2667 236.24 75.6427 236.72 76.2187 237.072C76.8107 237.44 77.5227 237.624 78.3547 237.624C79.3307 237.624 80.1227 237.328 80.7307 236.736C81.3387 236.16 81.6427 235.28 81.6427 234.096V232.032C81.2107 232.656 80.6107 233.176 79.8427 233.592C79.0907 234.008 78.2267 234.216 77.2507 234.216C76.1307 234.216 75.1067 233.928 74.1787 233.352C73.2507 232.776 72.5147 231.968 71.9707 230.928C71.4427 229.872 71.1787 228.664 71.1787 227.304C71.1787 225.96 71.4427 224.768 71.9707 223.728C72.5147 222.688 73.2427 221.888 74.1547 221.328C75.0827 220.768 76.1147 220.488 77.2507 220.488ZM81.6427 227.352C81.6427 226.536 81.4827 225.84 81.1627 225.264C80.8427 224.672 80.4107 224.224 79.8667 223.92C79.3227 223.6 78.7387 223.44 78.1147 223.44C77.4907 223.44 76.9147 223.592 76.3867 223.896C75.8587 224.2 75.4267 224.648 75.0907 225.24C74.7707 225.816 74.6107 226.504 74.6107 227.304C74.6107 228.104 74.7707 228.808 75.0907 229.416C75.4267 230.008 75.8587 230.464 76.3867 230.784C76.9307 231.104 77.5067 231.264 78.1147 231.264C78.7387 231.264 79.3227 231.112 79.8667 230.808C80.4107 230.488 80.8427 230.04 81.1627 229.464C81.4827 228.872 81.6427 228.168 81.6427 227.352ZM100.668 227.064C100.668 227.544 100.636 227.976 100.572 228.36H90.8523C90.9323 229.32 91.2683 230.072 91.8603 230.616C92.4523 231.16 93.1803 231.432 94.0443 231.432C95.2923 231.432 96.1803 230.896 96.7083 229.824H100.332C99.9483 231.104 99.2123 232.16 98.1243 232.992C97.0363 233.808 95.7003 234.216 94.1163 234.216C92.8363 234.216 91.6843 233.936 90.6603 233.376C89.6523 232.8 88.8603 231.992 88.2843 230.952C87.7243 229.912 87.4443 228.712 87.4443 227.352C87.4443 225.976 87.7243 224.768 88.2843 223.728C88.8443 222.688 89.6283 221.888 90.6363 221.328C91.6443 220.768 92.8043 220.488 94.1163 220.488C95.3803 220.488 96.5083 220.76 97.5003 221.304C98.5083 221.848 99.2843 222.624 99.8283 223.632C100.388 224.624 100.668 225.768 100.668 227.064ZM97.1883 226.104C97.1723 225.24 96.8603 224.552 96.2523 224.04C95.6443 223.512 94.9003 223.248 94.0203 223.248C93.1883 223.248 92.4843 223.504 91.9083 224.016C91.3483 224.512 91.0043 225.208 90.8763 226.104H97.1883ZM119.633 220.512C121.265 220.512 122.577 221.016 123.569 222.024C124.577 223.016 125.081 224.408 125.081 226.2V234H121.721V226.656C121.721 225.616 121.457 224.824 120.929 224.28C120.401 223.72 119.681 223.44 118.769 223.44C117.857 223.44 117.129 223.72 116.585 224.28C116.057 224.824 115.793 225.616 115.793 226.656V234H112.433V226.656C112.433 225.616 112.169 224.824 111.641 224.28C111.113 223.72 110.393 223.44 109.481 223.44C108.553 223.44 107.817 223.72 107.273 224.28C106.745 224.824 106.481 225.616 106.481 226.656V234H103.121V220.704H106.481V222.312C106.913 221.752 107.465 221.312 108.137 220.992C108.825 220.672 109.577 220.512 110.393 220.512C111.433 220.512 112.361 220.736 113.177 221.184C113.993 221.616 114.625 222.24 115.073 223.056C115.505 222.288 116.129 221.672 116.945 221.208C117.777 220.744 118.673 220.512 119.633 220.512ZM140.629 227.064C140.629 227.544 140.597 227.976 140.533 228.36H130.813C130.893 229.32 131.229 230.072 131.821 230.616C132.413 231.16 133.141 231.432 134.005 231.432C135.253 231.432 136.141 230.896 136.669 229.824H140.293C139.909 231.104 139.173 232.16 138.085 232.992C136.997 233.808 135.661 234.216 134.077 234.216C132.797 234.216 131.645 233.936 130.621 233.376C129.613 232.8 128.821 231.992 128.245 230.952C127.685 229.912 127.405 228.712 127.405 227.352C127.405 225.976 127.685 224.768 128.245 223.728C128.805 222.688 129.589 221.888 130.597 221.328C131.605 220.768 132.765 220.488 134.077 220.488C135.341 220.488 136.469 220.76 137.461 221.304C138.469 221.848 139.245 222.624 139.789 223.632C140.349 224.624 140.629 225.768 140.629 227.064ZM137.149 226.104C137.133 225.24 136.821 224.552 136.213 224.04C135.605 223.512 134.861 223.248 133.981 223.248C133.149 223.248 132.445 223.504 131.869 224.016C131.309 224.512 130.965 225.208 130.837 226.104H137.149ZM150.45 220.512C152.034 220.512 153.314 221.016 154.29 222.024C155.266 223.016 155.754 224.408 155.754 226.2V234H152.394V226.656C152.394 225.6 152.13 224.792 151.602 224.232C151.074 223.656 150.354 223.368 149.442 223.368C148.514 223.368 147.778 223.656 147.234 224.232C146.706 224.792 146.442 225.6 146.442 226.656V234H143.082V220.704H146.442V222.36C146.89 221.784 147.458 221.336 148.146 221.016C148.85 220.68 149.618 220.512 150.45 220.512ZM162.861 223.464V229.896C162.861 230.344 162.965 230.672 163.173 230.88C163.397 231.072 163.765 231.168 164.277 231.168H165.837V234H163.725C160.893 234 159.477 232.624 159.477 229.872V223.464H157.893V220.704H159.477V217.416H162.861V220.704H165.837V223.464H162.861Z" />
</svg>
