<svg width="135" height="210" viewBox="0 0 135 210" fill="none" xmlns="http://www.w3.org/2000/svg">
<path d="M10.3077 164L6.61172 157.472H5.02772V164H1.66772V147.248H7.95572C9.25172 147.248 10.3557 147.48 11.2677 147.944C12.1797 148.392 12.8597 149.008 13.3077 149.792C13.7717 150.56 14.0037 151.424 14.0037 152.384C14.0037 153.488 13.6837 154.488 13.0437 155.384C12.4037 156.264 11.4517 156.872 10.1877 157.208L14.1957 164H10.3077ZM5.02772 154.952H7.83572C8.74772 154.952 9.42772 154.736 9.87572 154.304C10.3237 153.856 10.5477 153.24 10.5477 152.456C10.5477 151.688 10.3237 151.096 9.87572 150.68C9.42772 150.248 8.74772 150.032 7.83572 150.032H5.02772V154.952ZM29.4027 157.064C29.4027 157.544 29.3707 157.976 29.3067 158.36H19.5867C19.6667 159.32 20.0027 160.072 20.5947 160.616C21.1867 161.16 21.9147 161.432 22.7787 161.432C24.0267 161.432 24.9147 160.896 25.4427 159.824H29.0667C28.6827 161.104 27.9467 162.16 26.8587 162.992C25.7707 163.808 24.4347 164.216 22.8507 164.216C21.5707 164.216 20.4187 163.936 19.3947 163.376C18.3867 162.8 17.5947 161.992 17.0187 160.952C16.4587 159.912 16.1787 158.712 16.1787 157.352C16.1787 155.976 16.4587 154.768 17.0187 153.728C17.5787 152.688 18.3627 151.888 19.3707 151.328C20.3787 150.768 21.5387 150.488 22.8507 150.488C24.1147 150.488 25.2427 150.76 26.2347 151.304C27.2427 151.848 28.0187 152.624 28.5627 153.632C29.1227 154.624 29.4027 155.768 29.4027 157.064ZM25.9227 156.104C25.9067 155.24 25.5947 154.552 24.9867 154.04C24.3787 153.512 23.6347 153.248 22.7547 153.248C21.9227 153.248 21.2187 153.504 20.6427 154.016C20.0827 154.512 19.7387 155.208 19.6107 156.104H25.9227ZM37.0632 150.488C38.0552 150.488 38.9272 150.688 39.6792 151.088C40.4312 151.472 41.0232 151.976 41.4552 152.6V150.704H44.8392V164.096C44.8392 165.328 44.5912 166.424 44.0952 167.384C43.5992 168.36 42.8552 169.128 41.8632 169.688C40.8712 170.264 39.6712 170.552 38.2632 170.552C36.3752 170.552 34.8232 170.112 33.6072 169.232C32.4072 168.352 31.7272 167.152 31.5672 165.632H34.9032C35.0792 166.24 35.4552 166.72 36.0312 167.072C36.6232 167.44 37.3352 167.624 38.1672 167.624C39.1432 167.624 39.9352 167.328 40.5432 166.736C41.1512 166.16 41.4552 165.28 41.4552 164.096V162.032C41.0232 162.656 40.4232 163.176 39.6552 163.592C38.9032 164.008 38.0392 164.216 37.0632 164.216C35.9432 164.216 34.9192 163.928 33.9912 163.352C33.0632 162.776 32.3272 161.968 31.7832 160.928C31.2552 159.872 30.9912 158.664 30.9912 157.304C30.9912 155.96 31.2552 154.768 31.7832 153.728C32.3272 152.688 33.0552 151.888 33.9672 151.328C34.8952 150.768 35.9272 150.488 37.0632 150.488ZM41.4552 157.352C41.4552 156.536 41.2952 155.84 40.9752 155.264C40.6552 154.672 40.2232 154.224 39.6792 153.92C39.1352 153.6 38.5512 153.44 37.9272 153.44C37.3032 153.44 36.7272 153.592 36.1992 153.896C35.6712 154.2 35.2392 154.648 34.9032 155.24C34.5832 155.816 34.4232 156.504 34.4232 157.304C34.4232 158.104 34.5832 158.808 34.9032 159.416C35.2392 160.008 35.6712 160.464 36.1992 160.784C36.7432 161.104 37.3192 161.264 37.9272 161.264C38.5512 161.264 39.1352 161.112 39.6792 160.808C40.2232 160.488 40.6552 160.04 40.9752 159.464C41.2952 158.872 41.4552 158.168 41.4552 157.352ZM51.4808 152.768C51.9128 152.064 52.4728 151.512 53.1608 151.112C53.8648 150.712 54.6648 150.512 55.5608 150.512V154.04H54.6728C53.6168 154.04 52.8168 154.288 52.2728 154.784C51.7448 155.28 51.4808 156.144 51.4808 157.376V164H48.1208V150.704H51.4808V152.768ZM70.184 157.064C70.184 157.544 70.152 157.976 70.088 158.36H60.368C60.448 159.32 60.784 160.072 61.376 160.616C61.968 161.16 62.696 161.432 63.56 161.432C64.808 161.432 65.696 160.896 66.224 159.824H69.848C69.464 161.104 68.728 162.16 67.64 162.992C66.552 163.808 65.216 164.216 63.632 164.216C62.352 164.216 61.2 163.936 60.176 163.376C59.168 162.8 58.376 161.992 57.8 160.952C57.24 159.912 56.96 158.712 56.96 157.352C56.96 155.976 57.24 154.768 57.8 153.728C58.36 152.688 59.144 151.888 60.152 151.328C61.16 150.768 62.32 150.488 63.632 150.488C64.896 150.488 66.024 150.76 67.016 151.304C68.024 151.848 68.8 152.624 69.344 153.632C69.904 154.624 70.184 155.768 70.184 157.064ZM66.704 156.104C66.688 155.24 66.376 154.552 65.768 154.04C65.16 153.512 64.416 153.248 63.536 153.248C62.704 153.248 62 153.504 61.424 154.016C60.864 154.512 60.52 155.208 60.392 156.104H66.704ZM77.7245 164.216C76.6365 164.216 75.6605 164.024 74.7965 163.64C73.9325 163.24 73.2445 162.704 72.7325 162.032C72.2365 161.36 71.9645 160.616 71.9165 159.8H75.3005C75.3645 160.312 75.6125 160.736 76.0445 161.072C76.4925 161.408 77.0445 161.576 77.7005 161.576C78.3405 161.576 78.8365 161.448 79.1885 161.192C79.5565 160.936 79.7405 160.608 79.7405 160.208C79.7405 159.776 79.5165 159.456 79.0685 159.248C78.6365 159.024 77.9405 158.784 76.9805 158.528C75.9885 158.288 75.1725 158.04 74.5325 157.784C73.9085 157.528 73.3645 157.136 72.9005 156.608C72.4525 156.08 72.2285 155.368 72.2285 154.472C72.2285 153.736 72.4365 153.064 72.8525 152.456C73.2845 151.848 73.8925 151.368 74.6765 151.016C75.4765 150.664 76.4125 150.488 77.4845 150.488C79.0685 150.488 80.3325 150.888 81.2765 151.688C82.2205 152.472 82.7405 153.536 82.8365 154.88H79.6205C79.5725 154.352 79.3485 153.936 78.9485 153.632C78.5645 153.312 78.0445 153.152 77.3885 153.152C76.7805 153.152 76.3085 153.264 75.9725 153.488C75.6525 153.712 75.4925 154.024 75.4925 154.424C75.4925 154.872 75.7165 155.216 76.1645 155.456C76.6125 155.68 77.3085 155.912 78.2525 156.152C79.2125 156.392 80.0045 156.64 80.6285 156.896C81.2525 157.152 81.7885 157.552 82.2365 158.096C82.7005 158.624 82.9405 159.328 82.9565 160.208C82.9565 160.976 82.7405 161.664 82.3085 162.272C81.8925 162.88 81.2845 163.36 80.4845 163.712C79.7005 164.048 78.7805 164.216 77.7245 164.216ZM90.8026 164.216C89.7146 164.216 88.7386 164.024 87.8746 163.64C87.0106 163.24 86.3226 162.704 85.8106 162.032C85.3146 161.36 85.0426 160.616 84.9946 159.8H88.3786C88.4426 160.312 88.6906 160.736 89.1226 161.072C89.5706 161.408 90.1226 161.576 90.7786 161.576C91.4186 161.576 91.9146 161.448 92.2666 161.192C92.6346 160.936 92.8186 160.608 92.8186 160.208C92.8186 159.776 92.5946 159.456 92.1466 159.248C91.7146 159.024 91.0186 158.784 90.0586 158.528C89.0666 158.288 88.2506 158.04 87.6106 157.784C86.9866 157.528 86.4426 157.136 85.9786 156.608C85.5306 156.08 85.3066 155.368 85.3066 154.472C85.3066 153.736 85.5146 153.064 85.9306 152.456C86.3626 151.848 86.9706 151.368 87.7546 151.016C88.5546 150.664 89.4906 150.488 90.5626 150.488C92.1466 150.488 93.4106 150.888 94.3546 151.688C95.2986 152.472 95.8186 153.536 95.9146 154.88H92.6986C92.6506 154.352 92.4266 153.936 92.0266 153.632C91.6426 153.312 91.1226 153.152 90.4666 153.152C89.8586 153.152 89.3866 153.264 89.0506 153.488C88.7306 153.712 88.5706 154.024 88.5706 154.424C88.5706 154.872 88.7946 155.216 89.2426 155.456C89.6906 155.68 90.3866 155.912 91.3306 156.152C92.2906 156.392 93.0826 156.64 93.7066 156.896C94.3306 157.152 94.8666 157.552 95.3146 158.096C95.7786 158.624 96.0186 159.328 96.0346 160.208C96.0346 160.976 95.8186 161.664 95.3866 162.272C94.9706 162.88 94.3626 163.36 93.5626 163.712C92.7786 164.048 91.8586 164.216 90.8026 164.216ZM100.497 149.12C99.9047 149.12 99.4087 148.936 99.0087 148.568C98.6247 148.184 98.4327 147.712 98.4327 147.152C98.4327 146.592 98.6247 146.128 99.0087 145.76C99.4087 145.376 99.9047 145.184 100.497 145.184C101.089 145.184 101.577 145.376 101.961 145.76C102.361 146.128 102.561 146.592 102.561 147.152C102.561 147.712 102.361 148.184 101.961 148.568C101.577 148.936 101.089 149.12 100.497 149.12ZM102.153 150.704V164H98.7927V150.704H102.153ZM111.376 164.216C110.096 164.216 108.944 163.936 107.92 163.376C106.896 162.8 106.088 161.992 105.496 160.952C104.92 159.912 104.632 158.712 104.632 157.352C104.632 155.992 104.928 154.792 105.52 153.752C106.128 152.712 106.952 151.912 107.992 151.352C109.032 150.776 110.192 150.488 111.472 150.488C112.752 150.488 113.912 150.776 114.952 151.352C115.992 151.912 116.808 152.712 117.4 153.752C118.008 154.792 118.312 155.992 118.312 157.352C118.312 158.712 118 159.912 117.376 160.952C116.768 161.992 115.936 162.8 114.88 163.376C113.84 163.936 112.672 164.216 111.376 164.216ZM111.376 161.288C111.984 161.288 112.552 161.144 113.08 160.856C113.624 160.552 114.056 160.104 114.376 159.512C114.696 158.92 114.856 158.2 114.856 157.352C114.856 156.088 114.52 155.12 113.848 154.448C113.192 153.76 112.384 153.416 111.424 153.416C110.464 153.416 109.656 153.76 109 154.448C108.36 155.12 108.04 156.088 108.04 157.352C108.04 158.616 108.352 159.592 108.976 160.28C109.616 160.952 110.416 161.288 111.376 161.288ZM128.145 150.512C129.729 150.512 131.009 151.016 131.985 152.024C132.961 153.016 133.449 154.408 133.449 156.2V164H130.089V156.656C130.089 155.6 129.825 154.792 129.297 154.232C128.769 153.656 128.049 153.368 127.137 153.368C126.209 153.368 125.473 153.656 124.929 154.232C124.401 154.792 124.137 155.6 124.137 156.656V164H120.777V150.704H124.137V152.36C124.585 151.784 125.153 151.336 125.841 151.016C126.545 150.68 127.313 150.512 128.145 150.512ZM35.6263 183.248V185.96H31.1623V200H27.8023V185.96H23.3383V183.248H35.6263ZM50.4379 193.064C50.4379 193.544 50.4059 193.976 50.3419 194.36H40.6219C40.7019 195.32 41.0379 196.072 41.6299 196.616C42.2219 197.16 42.9499 197.432 43.8139 197.432C45.0619 197.432 45.9499 196.896 46.4779 195.824H50.1019C49.7179 197.104 48.9819 198.16 47.8939 198.992C46.8059 199.808 45.4699 200.216 43.8859 200.216C42.6059 200.216 41.4539 199.936 40.4299 199.376C39.4219 198.8 38.6299 197.992 38.0539 196.952C37.4939 195.912 37.2139 194.712 37.2139 193.352C37.2139 191.976 37.4939 190.768 38.0539 189.728C38.6139 188.688 39.3979 187.888 40.4059 187.328C41.4139 186.768 42.5739 186.488 43.8859 186.488C45.1499 186.488 46.2779 186.76 47.2699 187.304C48.2779 187.848 49.0539 188.624 49.5979 189.632C50.1579 190.624 50.4379 191.768 50.4379 193.064ZM46.9579 192.104C46.9419 191.24 46.6299 190.552 46.0219 190.04C45.4139 189.512 44.6699 189.248 43.7899 189.248C42.9579 189.248 42.2539 189.504 41.6779 190.016C41.1179 190.512 40.7739 191.208 40.6459 192.104H46.9579ZM57.9784 200.216C56.8904 200.216 55.9144 200.024 55.0504 199.64C54.1864 199.24 53.4984 198.704 52.9864 198.032C52.4904 197.36 52.2184 196.616 52.1704 195.8H55.5544C55.6184 196.312 55.8664 196.736 56.2984 197.072C56.7464 197.408 57.2984 197.576 57.9544 197.576C58.5944 197.576 59.0904 197.448 59.4424 197.192C59.8104 196.936 59.9944 196.608 59.9944 196.208C59.9944 195.776 59.7704 195.456 59.3224 195.248C58.8904 195.024 58.1944 194.784 57.2344 194.528C56.2424 194.288 55.4264 194.04 54.7864 193.784C54.1624 193.528 53.6184 193.136 53.1544 192.608C52.7064 192.08 52.4824 191.368 52.4824 190.472C52.4824 189.736 52.6904 189.064 53.1064 188.456C53.5384 187.848 54.1464 187.368 54.9304 187.016C55.7304 186.664 56.6664 186.488 57.7384 186.488C59.3224 186.488 60.5864 186.888 61.5304 187.688C62.4744 188.472 62.9944 189.536 63.0904 190.88H59.8744C59.8264 190.352 59.6024 189.936 59.2024 189.632C58.8184 189.312 58.2984 189.152 57.6424 189.152C57.0344 189.152 56.5624 189.264 56.2264 189.488C55.9064 189.712 55.7464 190.024 55.7464 190.424C55.7464 190.872 55.9704 191.216 56.4184 191.456C56.8664 191.68 57.5624 191.912 58.5064 192.152C59.4664 192.392 60.2584 192.64 60.8824 192.896C61.5064 193.152 62.0424 193.552 62.4904 194.096C62.9544 194.624 63.1944 195.328 63.2104 196.208C63.2104 196.976 62.9944 197.664 62.5624 198.272C62.1464 198.88 61.5384 199.36 60.7384 199.712C59.9544 200.048 59.0344 200.216 57.9784 200.216ZM69.8805 189.464V195.896C69.8805 196.344 69.9845 196.672 70.1925 196.88C70.4165 197.072 70.7845 197.168 71.2965 197.168H72.8565V200H70.7445C67.9125 200 66.4965 198.624 66.4965 195.872V189.464H64.9125V186.704H66.4965V183.416H69.8805V186.704H72.8565V189.464H69.8805ZM76.9772 185.12C76.3852 185.12 75.8892 184.936 75.4892 184.568C75.1052 184.184 74.9132 183.712 74.9132 183.152C74.9132 182.592 75.1052 182.128 75.4892 181.76C75.8892 181.376 76.3852 181.184 76.9772 181.184C77.5692 181.184 78.0572 181.376 78.4412 181.76C78.8412 182.128 79.0412 182.592 79.0412 183.152C79.0412 183.712 78.8412 184.184 78.4412 184.568C78.0572 184.936 77.5692 185.12 76.9772 185.12ZM78.6332 186.704V200H75.2732V186.704H78.6332ZM89.3209 186.512C90.9049 186.512 92.1849 187.016 93.1609 188.024C94.1369 189.016 94.6249 190.408 94.6249 192.2V200H91.2649V192.656C91.2649 191.6 91.0009 190.792 90.4729 190.232C89.9449 189.656 89.2249 189.368 88.3129 189.368C87.3849 189.368 86.6489 189.656 86.1049 190.232C85.5769 190.792 85.3129 191.6 85.3129 192.656V200H81.9529V186.704H85.3129V188.36C85.7609 187.784 86.3289 187.336 87.0169 187.016C87.7209 186.68 88.4889 186.512 89.3209 186.512ZM103.028 186.488C104.02 186.488 104.892 186.688 105.644 187.088C106.396 187.472 106.988 187.976 107.42 188.6V186.704H110.804V200.096C110.804 201.328 110.556 202.424 110.06 203.384C109.564 204.36 108.82 205.128 107.828 205.688C106.836 206.264 105.636 206.552 104.228 206.552C102.34 206.552 100.788 206.112 99.5721 205.232C98.3721 204.352 97.6921 203.152 97.5321 201.632H100.868C101.044 202.24 101.42 202.72 101.996 203.072C102.588 203.44 103.3 203.624 104.132 203.624C105.108 203.624 105.9 203.328 106.508 202.736C107.116 202.16 107.42 201.28 107.42 200.096V198.032C106.988 198.656 106.388 199.176 105.62 199.592C104.868 200.008 104.004 200.216 103.028 200.216C101.908 200.216 100.884 199.928 99.9561 199.352C99.0281 198.776 98.2921 197.968 97.7481 196.928C97.2201 195.872 96.9561 194.664 96.9561 193.304C96.9561 191.96 97.2201 190.768 97.7481 189.728C98.2921 188.688 99.0201 187.888 99.9321 187.328C100.86 186.768 101.892 186.488 103.028 186.488ZM107.42 193.352C107.42 192.536 107.26 191.84 106.94 191.264C106.62 190.672 106.188 190.224 105.644 189.92C105.1 189.6 104.516 189.44 103.892 189.44C103.268 189.44 102.692 189.592 102.164 189.896C101.636 190.2 101.204 190.648 100.868 191.24C100.548 191.816 100.388 192.504 100.388 193.304C100.388 194.104 100.548 194.808 100.868 195.416C101.204 196.008 101.636 196.464 102.164 196.784C102.708 197.104 103.284 197.264 103.892 197.264C104.516 197.264 105.1 197.112 105.644 196.808C106.188 196.488 106.62 196.04 106.94 195.464C107.26 194.872 107.42 194.168 107.42 193.352Z"/>
<path d="M53.7183 123.138H28.0082C15.5591 123.138 9.76758 117.347 9.76758 104.897V79.1874C9.76758 66.6841 15.5591 60.8926 28.0082 60.8926H40.8903C43.1095 60.8926 44.9498 62.7329 44.9498 64.9521V77.7801C44.9498 85.6825 47.2231 87.9559 55.0715 87.9559H67.9536C70.1728 87.9559 72.0131 89.7962 72.0131 92.0153V104.897C72.0131 117.347 66.2216 123.138 53.7183 123.138ZM28.0082 69.0116C20.1599 69.0116 17.8866 71.2849 17.8866 79.1874V104.897C17.8866 112.746 20.1599 115.019 28.0082 115.019H53.7183C61.6208 115.019 63.8941 112.746 63.8941 104.897V96.0748H55.0715C42.6224 96.0748 36.8309 90.2833 36.8309 77.7801V69.0116H28.0082Z" />
<path d="M80.7808 96.0756H55.0707C42.6216 96.0756 36.8301 90.2841 36.8301 77.7808V52.0707C36.8301 39.6216 42.6216 33.8301 55.0707 33.8301H67.9528C70.172 33.8301 72.0123 35.6704 72.0123 37.8896V50.7176C72.0123 58.62 74.2856 60.8934 82.134 60.8934H95.0161C97.2353 60.8934 99.0756 62.7337 99.0756 64.9528V77.7808C99.0756 90.2841 93.2841 96.0756 80.7808 96.0756ZM55.0707 41.9491C47.2224 41.9491 44.9491 44.2224 44.9491 52.0707V77.7808C44.9491 85.6833 47.2224 87.9566 55.0707 87.9566H80.7808C88.6833 87.9566 90.9566 85.6833 90.9566 77.7808V69.0123H82.134C69.6849 69.0123 63.8934 63.2208 63.8934 50.7176V41.9491H55.0707Z" />
<path d="M107.843 69.0131H82.1332C69.6841 69.0131 63.8926 63.2216 63.8926 50.7183V25.0082C63.8926 12.5591 69.6841 6.76758 82.1332 6.76758H107.843C120.347 6.76758 126.138 12.5591 126.138 25.0082V50.7183C126.138 63.2216 120.347 69.0131 107.843 69.0131ZM82.1332 14.8866C74.2849 14.8866 72.0116 17.1599 72.0116 25.0082V50.7183C72.0116 58.6208 74.2849 60.8941 82.1332 60.8941H107.843C115.746 60.8941 118.019 58.6208 118.019 50.7183V25.0082C118.019 17.1599 115.746 14.8866 107.843 14.8866H82.1332Z" />
</svg>
