<svg width="219" height="160" viewBox="0 0 239 183" fill="none" xmlns="http://www.w3.org/2000/svg">
<path d="M151.962 37.625H145.148C143.125 29.746 138.945 22.5957 133.082 16.9864C127.219 11.3771 119.909 7.53383 111.983 5.89325C104.056 4.25268 95.8313 4.88059 88.242 7.70566C80.6527 10.5307 74.0036 15.4396 69.0503 21.8746C64.097 28.3096 61.038 36.0127 60.221 44.1084C59.404 52.2042 60.8618 60.3681 64.4285 67.6724C67.9953 74.9768 73.5282 81.1287 80.3984 85.4291C87.2686 89.7295 95.2006 92.0061 103.293 92H151.962C159.133 92 166.01 89.1356 171.081 84.037C176.151 78.9383 179 72.0231 179 64.8125C179 57.6019 176.151 50.6867 171.081 45.588C166.01 40.4894 159.133 37.625 151.962 37.625Z" stroke="white" stroke-opacity="0.5" stroke-width="10" stroke-linecap="round" stroke-linejoin="round"/>
<path d="M84.0705 128.6C84.0705 126.952 84.4385 125.48 85.1745 124.184C85.9265 122.872 86.9425 121.856 88.2225 121.136C89.5185 120.4 90.9665 120.032 92.5665 120.032C94.4385 120.032 96.0785 120.512 97.4865 121.472C98.8945 122.432 99.8785 123.76 100.438 125.456H96.5745C96.1905 124.656 95.6465 124.056 94.9425 123.656C94.2545 123.256 93.4545 123.056 92.5425 123.056C91.5665 123.056 90.6945 123.288 89.9265 123.752C89.1745 124.2 88.5825 124.84 88.1505 125.672C87.7345 126.504 87.5265 127.48 87.5265 128.6C87.5265 129.704 87.7345 130.68 88.1505 131.528C88.5825 132.36 89.1745 133.008 89.9265 133.472C90.6945 133.92 91.5665 134.144 92.5425 134.144C93.4545 134.144 94.2545 133.944 94.9425 133.544C95.6465 133.128 96.1905 132.52 96.5745 131.72H100.438C99.8785 133.432 98.8945 134.768 97.4865 135.728C96.0945 136.672 94.4545 137.144 92.5665 137.144C90.9665 137.144 89.5185 136.784 88.2225 136.064C86.9425 135.328 85.9265 134.312 85.1745 133.016C84.4385 131.72 84.0705 130.248 84.0705 128.6ZM106.668 119.24V137H103.308V119.24H106.668ZM115.892 137.216C114.612 137.216 113.46 136.936 112.436 136.376C111.412 135.8 110.604 134.992 110.012 133.952C109.436 132.912 109.148 131.712 109.148 130.352C109.148 128.992 109.444 127.792 110.036 126.752C110.644 125.712 111.468 124.912 112.508 124.352C113.548 123.776 114.708 123.488 115.988 123.488C117.268 123.488 118.428 123.776 119.468 124.352C120.508 124.912 121.324 125.712 121.916 126.752C122.524 127.792 122.828 128.992 122.828 130.352C122.828 131.712 122.516 132.912 121.892 133.952C121.284 134.992 120.452 135.8 119.396 136.376C118.356 136.936 117.188 137.216 115.892 137.216ZM115.892 134.288C116.5 134.288 117.068 134.144 117.596 133.856C118.14 133.552 118.572 133.104 118.892 132.512C119.212 131.92 119.372 131.2 119.372 130.352C119.372 129.088 119.036 128.12 118.364 127.448C117.708 126.76 116.9 126.416 115.94 126.416C114.98 126.416 114.172 126.76 113.516 127.448C112.876 128.12 112.556 129.088 112.556 130.352C112.556 131.616 112.868 132.592 113.492 133.28C114.132 133.952 114.932 134.288 115.892 134.288ZM137.845 123.704V137H134.461V135.32C134.029 135.896 133.461 136.352 132.757 136.688C132.069 137.008 131.317 137.168 130.501 137.168C129.461 137.168 128.541 136.952 127.741 136.52C126.941 136.072 126.309 135.424 125.845 134.576C125.397 133.712 125.173 132.688 125.173 131.504V123.704H128.533V131.024C128.533 132.08 128.797 132.896 129.325 133.472C129.853 134.032 130.573 134.312 131.485 134.312C132.413 134.312 133.141 134.032 133.669 133.472C134.197 132.896 134.461 132.08 134.461 131.024V123.704H137.845ZM140.296 130.304C140.296 128.96 140.56 127.768 141.088 126.728C141.632 125.688 142.368 124.888 143.296 124.328C144.224 123.768 145.256 123.488 146.392 123.488C147.256 123.488 148.08 123.68 148.864 124.064C149.648 124.432 150.272 124.928 150.736 125.552V119.24H154.144V137H150.736V135.032C150.32 135.688 149.736 136.216 148.984 136.616C148.232 137.016 147.36 137.216 146.368 137.216C145.248 137.216 144.224 136.928 143.296 136.352C142.368 135.776 141.632 134.968 141.088 133.928C140.56 132.872 140.296 131.664 140.296 130.304ZM150.76 130.352C150.76 129.536 150.6 128.84 150.28 128.264C149.96 127.672 149.528 127.224 148.984 126.92C148.44 126.6 147.856 126.44 147.232 126.44C146.608 126.44 146.032 126.592 145.504 126.896C144.976 127.2 144.544 127.648 144.208 128.24C143.888 128.816 143.728 129.504 143.728 130.304C143.728 131.104 143.888 131.808 144.208 132.416C144.544 133.008 144.976 133.464 145.504 133.784C146.048 134.104 146.624 134.264 147.232 134.264C147.856 134.264 148.44 134.112 148.984 133.808C149.528 133.488 149.96 133.04 150.28 132.464C150.6 131.872 150.76 131.168 150.76 130.352ZM56.3223 156.248V173H52.9623V162.104L48.4743 173H45.9303L41.4183 162.104V173H38.0583V156.248H41.8743L47.2023 168.704L52.5303 156.248H56.3223ZM58.7803 166.304C58.7803 164.96 59.0443 163.768 59.5723 162.728C60.1163 161.688 60.8443 160.888 61.7563 160.328C62.6843 159.768 63.7163 159.488 64.8523 159.488C65.8443 159.488 66.7083 159.688 67.4443 160.088C68.1963 160.488 68.7963 160.992 69.2443 161.6V159.704H72.6283V173H69.2443V171.056C68.8123 171.68 68.2123 172.2 67.4443 172.616C66.6923 173.016 65.8203 173.216 64.8283 173.216C63.7083 173.216 62.6843 172.928 61.7563 172.352C60.8443 171.776 60.1163 170.968 59.5723 169.928C59.0443 168.872 58.7803 167.664 58.7803 166.304ZM69.2443 166.352C69.2443 165.536 69.0843 164.84 68.7643 164.264C68.4443 163.672 68.0123 163.224 67.4683 162.92C66.9243 162.6 66.3403 162.44 65.7163 162.44C65.0923 162.44 64.5163 162.592 63.9883 162.896C63.4603 163.2 63.0283 163.648 62.6923 164.24C62.3723 164.816 62.2123 165.504 62.2123 166.304C62.2123 167.104 62.3723 167.808 62.6923 168.416C63.0283 169.008 63.4603 169.464 63.9883 169.784C64.5323 170.104 65.1083 170.264 65.7163 170.264C66.3403 170.264 66.9243 170.112 67.4683 169.808C68.0123 169.488 68.4443 169.04 68.7643 168.464C69.0843 167.872 69.2443 167.168 69.2443 166.352ZM83.2779 159.512C84.8619 159.512 86.1419 160.016 87.1179 161.024C88.0939 162.016 88.5819 163.408 88.5819 165.2V173H85.2219V165.656C85.2219 164.6 84.9579 163.792 84.4299 163.232C83.9019 162.656 83.1819 162.368 82.2699 162.368C81.3419 162.368 80.6059 162.656 80.0619 163.232C79.5339 163.792 79.2699 164.6 79.2699 165.656V173H75.9099V159.704H79.2699V161.36C79.7179 160.784 80.2859 160.336 80.9739 160.016C81.6779 159.68 82.4459 159.512 83.2779 159.512ZM90.9131 166.304C90.9131 164.96 91.1771 163.768 91.7051 162.728C92.2491 161.688 92.9771 160.888 93.8891 160.328C94.8171 159.768 95.8491 159.488 96.9851 159.488C97.9771 159.488 98.8411 159.688 99.5771 160.088C100.329 160.488 100.929 160.992 101.377 161.6V159.704H104.761V173H101.377V171.056C100.945 171.68 100.345 172.2 99.5771 172.616C98.8251 173.016 97.9531 173.216 96.9611 173.216C95.8411 173.216 94.8171 172.928 93.8891 172.352C92.9771 171.776 92.2491 170.968 91.7051 169.928C91.1771 168.872 90.9131 167.664 90.9131 166.304ZM101.377 166.352C101.377 165.536 101.217 164.84 100.897 164.264C100.577 163.672 100.145 163.224 99.6011 162.92C99.0571 162.6 98.4731 162.44 97.8491 162.44C97.2251 162.44 96.6491 162.592 96.1211 162.896C95.5931 163.2 95.1611 163.648 94.8251 164.24C94.5051 164.816 94.3451 165.504 94.3451 166.304C94.3451 167.104 94.5051 167.808 94.8251 168.416C95.1611 169.008 95.5931 169.464 96.1211 169.784C96.6651 170.104 97.2411 170.264 97.8491 170.264C98.4731 170.264 99.0571 170.112 99.6011 169.808C100.145 169.488 100.577 169.04 100.897 168.464C101.217 167.872 101.377 167.168 101.377 166.352ZM113.251 159.488C114.243 159.488 115.115 159.688 115.867 160.088C116.619 160.472 117.211 160.976 117.643 161.6V159.704H121.027V173.096C121.027 174.328 120.779 175.424 120.283 176.384C119.787 177.36 119.043 178.128 118.051 178.688C117.059 179.264 115.859 179.552 114.451 179.552C112.563 179.552 111.011 179.112 109.795 178.232C108.595 177.352 107.915 176.152 107.755 174.632H111.091C111.267 175.24 111.643 175.72 112.219 176.072C112.811 176.44 113.523 176.624 114.355 176.624C115.331 176.624 116.123 176.328 116.731 175.736C117.339 175.16 117.643 174.28 117.643 173.096V171.032C117.211 171.656 116.611 172.176 115.843 172.592C115.091 173.008 114.227 173.216 113.251 173.216C112.131 173.216 111.107 172.928 110.179 172.352C109.251 171.776 108.515 170.968 107.971 169.928C107.443 168.872 107.179 167.664 107.179 166.304C107.179 164.96 107.443 163.768 107.971 162.728C108.515 161.688 109.243 160.888 110.155 160.328C111.083 159.768 112.115 159.488 113.251 159.488ZM117.643 166.352C117.643 165.536 117.483 164.84 117.163 164.264C116.843 163.672 116.411 163.224 115.867 162.92C115.323 162.6 114.739 162.44 114.115 162.44C113.491 162.44 112.915 162.592 112.387 162.896C111.859 163.2 111.427 163.648 111.091 164.24C110.771 164.816 110.611 165.504 110.611 166.304C110.611 167.104 110.771 167.808 111.091 168.416C111.427 169.008 111.859 169.464 112.387 169.784C112.931 170.104 113.507 170.264 114.115 170.264C114.739 170.264 115.323 170.112 115.867 169.808C116.411 169.488 116.843 169.04 117.163 168.464C117.483 167.872 117.643 167.168 117.643 166.352ZM136.668 166.064C136.668 166.544 136.636 166.976 136.572 167.36H126.852C126.932 168.32 127.268 169.072 127.86 169.616C128.452 170.16 129.18 170.432 130.044 170.432C131.292 170.432 132.18 169.896 132.708 168.824H136.332C135.948 170.104 135.212 171.16 134.124 171.992C133.036 172.808 131.7 173.216 130.116 173.216C128.836 173.216 127.684 172.936 126.66 172.376C125.652 171.8 124.86 170.992 124.284 169.952C123.724 168.912 123.444 167.712 123.444 166.352C123.444 164.976 123.724 163.768 124.284 162.728C124.844 161.688 125.628 160.888 126.636 160.328C127.644 159.768 128.804 159.488 130.116 159.488C131.38 159.488 132.508 159.76 133.5 160.304C134.508 160.848 135.284 161.624 135.828 162.632C136.388 163.624 136.668 164.768 136.668 166.064ZM133.188 165.104C133.172 164.24 132.86 163.552 132.252 163.04C131.644 162.512 130.9 162.248 130.02 162.248C129.188 162.248 128.484 162.504 127.908 163.016C127.348 163.512 127.004 164.208 126.876 165.104H133.188ZM155.633 159.512C157.265 159.512 158.577 160.016 159.569 161.024C160.577 162.016 161.081 163.408 161.081 165.2V173H157.721V165.656C157.721 164.616 157.457 163.824 156.929 163.28C156.401 162.72 155.681 162.44 154.769 162.44C153.857 162.44 153.129 162.72 152.585 163.28C152.057 163.824 151.793 164.616 151.793 165.656V173H148.433V165.656C148.433 164.616 148.169 163.824 147.641 163.28C147.113 162.72 146.393 162.44 145.481 162.44C144.553 162.44 143.817 162.72 143.273 163.28C142.745 163.824 142.481 164.616 142.481 165.656V173H139.121V159.704H142.481V161.312C142.913 160.752 143.465 160.312 144.137 159.992C144.825 159.672 145.577 159.512 146.393 159.512C147.433 159.512 148.361 159.736 149.177 160.184C149.993 160.616 150.625 161.24 151.073 162.056C151.505 161.288 152.129 160.672 152.945 160.208C153.777 159.744 154.673 159.512 155.633 159.512ZM176.629 166.064C176.629 166.544 176.597 166.976 176.533 167.36H166.813C166.893 168.32 167.229 169.072 167.821 169.616C168.413 170.16 169.141 170.432 170.005 170.432C171.253 170.432 172.141 169.896 172.669 168.824H176.293C175.909 170.104 175.173 171.16 174.085 171.992C172.997 172.808 171.661 173.216 170.077 173.216C168.797 173.216 167.645 172.936 166.621 172.376C165.613 171.8 164.821 170.992 164.245 169.952C163.685 168.912 163.405 167.712 163.405 166.352C163.405 164.976 163.685 163.768 164.245 162.728C164.805 161.688 165.589 160.888 166.597 160.328C167.605 159.768 168.765 159.488 170.077 159.488C171.341 159.488 172.469 159.76 173.461 160.304C174.469 160.848 175.245 161.624 175.789 162.632C176.349 163.624 176.629 164.768 176.629 166.064ZM173.149 165.104C173.133 164.24 172.821 163.552 172.213 163.04C171.605 162.512 170.861 162.248 169.981 162.248C169.149 162.248 168.445 162.504 167.869 163.016C167.309 163.512 166.965 164.208 166.837 165.104H173.149ZM186.45 159.512C188.034 159.512 189.314 160.016 190.29 161.024C191.266 162.016 191.754 163.408 191.754 165.2V173H188.394V165.656C188.394 164.6 188.13 163.792 187.602 163.232C187.074 162.656 186.354 162.368 185.442 162.368C184.514 162.368 183.778 162.656 183.234 163.232C182.706 163.792 182.442 164.6 182.442 165.656V173H179.082V159.704H182.442V161.36C182.89 160.784 183.458 160.336 184.146 160.016C184.85 159.68 185.618 159.512 186.45 159.512ZM198.861 162.464V168.896C198.861 169.344 198.965 169.672 199.173 169.88C199.397 170.072 199.765 170.168 200.277 170.168H201.837V173H199.725C196.893 173 195.477 171.624 195.477 168.872V162.464H193.893V159.704H195.477V156.416H198.861V159.704H201.837V162.464H198.861Z" />
</svg>
