<svg width="173" height="213" viewBox="0 0 213 253" fill="none" xmlns="http://www.w3.org/2000/svg">
<path d="M176.916 68.4959C176.472 67.2002 175.663 66.0622 174.588 65.2199C173.513 64.3775 172.218 63.8669 170.861 63.75L130.793 57.8709L112.837 21.2501C112.261 20.0525 111.36 19.0425 110.239 18.3358C109.119 17.6291 107.823 17.2543 106.5 17.2543C105.177 17.2543 103.881 17.6291 102.76 18.3358C101.639 19.0425 100.739 20.0525 100.162 21.2501L82.206 57.8L42.1389 63.75C40.8357 63.9364 39.6104 64.4864 38.6022 65.3378C37.594 66.1892 36.8433 67.3078 36.4352 68.5667C36.0616 69.7969 36.028 71.1062 36.3382 72.3541C36.6483 73.602 37.2904 74.7414 38.1956 75.65L67.2777 103.983L60.236 144.217C59.9517 145.551 60.0568 146.94 60.5387 148.216C61.0205 149.492 61.8587 150.601 62.9522 151.409C64.0457 152.217 65.348 152.69 66.7026 152.772C68.0571 152.853 69.4061 152.539 70.5872 151.867L106.5 132.954L142.412 151.867C143.401 152.428 144.517 152.72 145.651 152.717C147.143 152.722 148.598 152.251 149.806 151.371C150.898 150.584 151.744 149.498 152.243 148.243C152.742 146.988 152.874 145.616 152.623 144.288L145.581 104.054L174.663 75.7209C175.68 74.8544 176.431 73.7156 176.83 72.4367C177.229 71.1578 177.259 69.7912 176.916 68.4959ZM133.61 96.8292C132.795 97.6254 132.184 98.6082 131.828 99.6936C131.473 100.779 131.383 101.935 131.568 103.063L136.638 132.813L110.161 118.646C109.132 118.134 108 117.867 106.852 117.867C105.704 117.867 104.571 118.134 103.542 118.646L77.0656 132.813L82.1356 103.063C82.3203 101.935 82.2311 100.779 81.8755 99.6936C81.5199 98.6082 80.9085 97.6254 80.0935 96.8292L58.9685 75.5792L88.6139 71.2584C89.7546 71.0988 90.8391 70.6601 91.7721 69.9809C92.7051 69.3017 93.4583 68.4026 93.9656 67.3625L106.5 40.375L119.738 67.4334C120.245 68.4735 120.999 69.3725 121.932 70.0517C122.865 70.731 123.949 71.1696 125.09 71.3292L154.735 75.65L133.61 96.8292Z" fill="#464646"/>
<path d="M83.4387 190.248V207H80.0787V199.872H72.9027V207H69.5427V190.248H72.9027V197.136H80.0787V190.248H83.4387ZM88.4498 192.12C87.8578 192.12 87.3618 191.936 86.9618 191.568C86.5778 191.184 86.3858 190.712 86.3858 190.152C86.3858 189.592 86.5778 189.128 86.9618 188.76C87.3618 188.376 87.8578 188.184 88.4498 188.184C89.0418 188.184 89.5298 188.376 89.9138 188.76C90.3138 189.128 90.5138 189.592 90.5138 190.152C90.5138 190.712 90.3138 191.184 89.9138 191.568C89.5298 191.936 89.0418 192.12 88.4498 192.12ZM90.1058 193.704V207H86.7458V193.704H90.1058ZM98.6335 193.488C99.6255 193.488 100.498 193.688 101.25 194.088C102.002 194.472 102.594 194.976 103.026 195.6V193.704H106.41V207.096C106.41 208.328 106.162 209.424 105.666 210.384C105.17 211.36 104.426 212.128 103.434 212.688C102.442 213.264 101.242 213.552 99.8335 213.552C97.9455 213.552 96.3935 213.112 95.1775 212.232C93.9775 211.352 93.2975 210.152 93.1375 208.632H96.4735C96.6495 209.24 97.0255 209.72 97.6015 210.072C98.1935 210.44 98.9055 210.624 99.7375 210.624C100.714 210.624 101.506 210.328 102.114 209.736C102.722 209.16 103.026 208.28 103.026 207.096V205.032C102.594 205.656 101.994 206.176 101.226 206.592C100.474 207.008 99.6095 207.216 98.6335 207.216C97.5135 207.216 96.4895 206.928 95.5615 206.352C94.6335 205.776 93.8975 204.968 93.3535 203.928C92.8255 202.872 92.5615 201.664 92.5615 200.304C92.5615 198.96 92.8255 197.768 93.3535 196.728C93.8975 195.688 94.6255 194.888 95.5375 194.328C96.4655 193.768 97.4975 193.488 98.6335 193.488ZM103.026 200.352C103.026 199.536 102.866 198.84 102.546 198.264C102.226 197.672 101.794 197.224 101.25 196.92C100.706 196.6 100.122 196.44 99.4975 196.44C98.8735 196.44 98.2975 196.592 97.7695 196.896C97.2415 197.2 96.8095 197.648 96.4735 198.24C96.1535 198.816 95.9935 199.504 95.9935 200.304C95.9935 201.104 96.1535 201.808 96.4735 202.416C96.8095 203.008 97.2415 203.464 97.7695 203.784C98.3135 204.104 98.8895 204.264 99.4975 204.264C100.122 204.264 100.706 204.112 101.25 203.808C101.794 203.488 102.226 203.04 102.546 202.464C102.866 201.872 103.026 201.168 103.026 200.352ZM117.179 193.512C118.187 193.512 119.083 193.736 119.867 194.184C120.651 194.616 121.259 195.264 121.691 196.128C122.139 196.976 122.363 198 122.363 199.2V207H119.003V199.656C119.003 198.6 118.739 197.792 118.211 197.232C117.683 196.656 116.963 196.368 116.051 196.368C115.123 196.368 114.387 196.656 113.843 197.232C113.315 197.792 113.051 198.6 113.051 199.656V207H109.691V189.24H113.051V195.36C113.483 194.784 114.059 194.336 114.779 194.016C115.499 193.68 116.299 193.512 117.179 193.512ZM128.918 189.24V207H125.558V189.24H128.918ZM144.958 193.704L136.726 213.288H133.15L136.03 206.664L130.702 193.704H134.47L137.902 202.992L141.382 193.704H144.958ZM36.8207 228.96V233.16H42.4607V235.824H36.8207V240.264H43.1807V243H33.4607V226.224H43.1807V228.96H36.8207ZM53.5781 243L50.8421 238.872L48.4181 243H44.8181L49.1621 236.328L44.7701 229.704H48.5621L51.2741 233.808L53.7221 229.704H57.3221L52.9541 236.328L57.3701 243H53.5781ZM62.5551 231.624C62.9871 231.016 63.5791 230.512 64.3311 230.112C65.0991 229.696 65.9711 229.488 66.9471 229.488C68.0831 229.488 69.1071 229.768 70.0191 230.328C70.9471 230.888 71.6751 231.688 72.2031 232.728C72.7471 233.752 73.0191 234.944 73.0191 236.304C73.0191 237.664 72.7471 238.872 72.2031 239.928C71.6751 240.968 70.9471 241.776 70.0191 242.352C69.1071 242.928 68.0831 243.216 66.9471 243.216C65.9711 243.216 65.1071 243.016 64.3551 242.616C63.6191 242.216 63.0191 241.712 62.5551 241.104V249.336H59.1951V229.704H62.5551V231.624ZM69.5871 236.304C69.5871 235.504 69.4191 234.816 69.0831 234.24C68.7631 233.648 68.3311 233.2 67.7871 232.896C67.2591 232.592 66.6831 232.44 66.0591 232.44C65.4511 232.44 64.8751 232.6 64.3311 232.92C63.8031 233.224 63.3711 233.672 63.0351 234.264C62.7151 234.856 62.5551 235.552 62.5551 236.352C62.5551 237.152 62.7151 237.848 63.0351 238.44C63.3711 239.032 63.8031 239.488 64.3311 239.808C64.8751 240.112 65.4511 240.264 66.0591 240.264C66.6831 240.264 67.2591 240.104 67.7871 239.784C68.3311 239.464 68.7631 239.008 69.0831 238.416C69.4191 237.824 69.5871 237.12 69.5871 236.304ZM87.8207 236.064C87.8207 236.544 87.7887 236.976 87.7247 237.36H78.0047C78.0847 238.32 78.4207 239.072 79.0127 239.616C79.6047 240.16 80.3327 240.432 81.1967 240.432C82.4447 240.432 83.3327 239.896 83.8607 238.824H87.4847C87.1007 240.104 86.3647 241.16 85.2767 241.992C84.1887 242.808 82.8527 243.216 81.2687 243.216C79.9887 243.216 78.8367 242.936 77.8127 242.376C76.8047 241.8 76.0127 240.992 75.4367 239.952C74.8767 238.912 74.5967 237.712 74.5967 236.352C74.5967 234.976 74.8767 233.768 75.4367 232.728C75.9967 231.688 76.7807 230.888 77.7887 230.328C78.7967 229.768 79.9567 229.488 81.2687 229.488C82.5327 229.488 83.6607 229.76 84.6527 230.304C85.6607 230.848 86.4367 231.624 86.9807 232.632C87.5407 233.624 87.8207 234.768 87.8207 236.064ZM84.3407 235.104C84.3247 234.24 84.0127 233.552 83.4047 233.04C82.7967 232.512 82.0527 232.248 81.1727 232.248C80.3407 232.248 79.6367 232.504 79.0607 233.016C78.5007 233.512 78.1567 234.208 78.0287 235.104H84.3407ZM93.6332 231.768C94.0652 231.064 94.6252 230.512 95.3132 230.112C96.0172 229.712 96.8172 229.512 97.7132 229.512V233.04H96.8252C95.7692 233.04 94.9692 233.288 94.4252 233.784C93.8972 234.28 93.6332 235.144 93.6332 236.376V243H90.2732V229.704H93.6332V231.768ZM101.68 228.12C101.088 228.12 100.592 227.936 100.192 227.568C99.8083 227.184 99.6163 226.712 99.6163 226.152C99.6163 225.592 99.8083 225.128 100.192 224.76C100.592 224.376 101.088 224.184 101.68 224.184C102.272 224.184 102.76 224.376 103.144 224.76C103.544 225.128 103.744 225.592 103.744 226.152C103.744 226.712 103.544 227.184 103.144 227.568C102.76 227.936 102.272 228.12 101.68 228.12ZM103.336 229.704V243H99.9763V229.704H103.336ZM119.016 236.064C119.016 236.544 118.984 236.976 118.92 237.36H109.2C109.28 238.32 109.616 239.072 110.208 239.616C110.8 240.16 111.528 240.432 112.392 240.432C113.64 240.432 114.528 239.896 115.056 238.824H118.68C118.296 240.104 117.56 241.16 116.472 241.992C115.384 242.808 114.048 243.216 112.464 243.216C111.184 243.216 110.032 242.936 109.008 242.376C108 241.8 107.208 240.992 106.632 239.952C106.072 238.912 105.792 237.712 105.792 236.352C105.792 234.976 106.072 233.768 106.632 232.728C107.192 231.688 107.976 230.888 108.984 230.328C109.992 229.768 111.152 229.488 112.464 229.488C113.728 229.488 114.856 229.76 115.848 230.304C116.856 230.848 117.632 231.624 118.176 232.632C118.736 233.624 119.016 234.768 119.016 236.064ZM115.536 235.104C115.52 234.24 115.208 233.552 114.6 233.04C113.992 232.512 113.248 232.248 112.368 232.248C111.536 232.248 110.832 232.504 110.256 233.016C109.696 233.512 109.352 234.208 109.224 235.104H115.536ZM128.837 229.512C130.421 229.512 131.701 230.016 132.677 231.024C133.653 232.016 134.141 233.408 134.141 235.2V243H130.781V235.656C130.781 234.6 130.517 233.792 129.989 233.232C129.461 232.656 128.741 232.368 127.829 232.368C126.901 232.368 126.165 232.656 125.621 233.232C125.093 233.792 124.829 234.6 124.829 235.656V243H121.469V229.704H124.829V231.36C125.277 230.784 125.845 230.336 126.533 230.016C127.237 229.68 128.005 229.512 128.837 229.512ZM136.472 236.352C136.472 234.976 136.752 233.776 137.312 232.752C137.872 231.712 138.648 230.912 139.64 230.352C140.632 229.776 141.768 229.488 143.048 229.488C144.696 229.488 146.056 229.904 147.128 230.736C148.216 231.552 148.944 232.704 149.312 234.192H145.688C145.496 233.616 145.168 233.168 144.704 232.848C144.256 232.512 143.696 232.344 143.024 232.344C142.064 232.344 141.304 232.696 140.744 233.4C140.184 234.088 139.904 235.072 139.904 236.352C139.904 237.616 140.184 238.6 140.744 239.304C141.304 239.992 142.064 240.336 143.024 240.336C144.384 240.336 145.272 239.728 145.688 238.512H149.312C148.944 239.952 148.216 241.096 147.128 241.944C146.04 242.792 144.68 243.216 143.048 243.216C141.768 243.216 140.632 242.936 139.64 242.376C138.648 241.8 137.872 241 137.312 239.976C136.752 238.936 136.472 237.728 136.472 236.352ZM164.133 236.064C164.133 236.544 164.101 236.976 164.037 237.36H154.317C154.397 238.32 154.733 239.072 155.325 239.616C155.917 240.16 156.645 240.432 157.509 240.432C158.757 240.432 159.645 239.896 160.173 238.824H163.797C163.413 240.104 162.677 241.16 161.589 241.992C160.501 242.808 159.165 243.216 157.581 243.216C156.301 243.216 155.149 242.936 154.125 242.376C153.117 241.8 152.325 240.992 151.749 239.952C151.189 238.912 150.909 237.712 150.909 236.352C150.909 234.976 151.189 233.768 151.749 232.728C152.309 231.688 153.093 230.888 154.101 230.328C155.109 229.768 156.269 229.488 157.581 229.488C158.845 229.488 159.973 229.76 160.965 230.304C161.973 230.848 162.749 231.624 163.293 232.632C163.853 233.624 164.133 234.768 164.133 236.064ZM160.653 235.104C160.637 234.24 160.325 233.552 159.717 233.04C159.109 232.512 158.365 232.248 157.485 232.248C156.653 232.248 155.949 232.504 155.373 233.016C154.813 233.512 154.469 234.208 154.341 235.104H160.653ZM165.722 236.304C165.722 234.96 165.986 233.768 166.514 232.728C167.058 231.688 167.794 230.888 168.722 230.328C169.65 229.768 170.682 229.488 171.818 229.488C172.682 229.488 173.506 229.68 174.29 230.064C175.074 230.432 175.698 230.928 176.162 231.552V225.24H179.57V243H176.162V241.032C175.746 241.688 175.162 242.216 174.41 242.616C173.658 243.016 172.786 243.216 171.794 243.216C170.674 243.216 169.65 242.928 168.722 242.352C167.794 241.776 167.058 240.968 166.514 239.928C165.986 238.872 165.722 237.664 165.722 236.304ZM176.186 236.352C176.186 235.536 176.026 234.84 175.706 234.264C175.386 233.672 174.954 233.224 174.41 232.92C173.866 232.6 173.282 232.44 172.658 232.44C172.034 232.44 171.458 232.592 170.93 232.896C170.402 233.2 169.97 233.648 169.634 234.24C169.314 234.816 169.154 235.504 169.154 236.304C169.154 237.104 169.314 237.808 169.634 238.416C169.97 239.008 170.402 239.464 170.93 239.784C171.474 240.104 172.05 240.264 172.658 240.264C173.282 240.264 173.866 240.112 174.41 239.808C174.954 239.488 175.386 239.04 175.706 238.464C176.026 237.872 176.186 237.168 176.186 236.352Z" fill="#464646"/>
</svg>
