<svg width="161" height="199" viewBox="0 0 161 199" fill="none" xmlns="http://www.w3.org/2000/svg">
<path d="M87.3125 81.6H60.0625C58.2557 81.6 56.5229 82.3164 55.2453 83.5917C53.9677 84.8669 53.25 86.5965 53.25 88.4C53.25 90.2035 53.9677 91.9331 55.2453 93.2083C56.5229 94.4836 58.2557 95.2 60.0625 95.2H87.3125C89.1193 95.2 90.8521 94.4836 92.1297 93.2083C93.4073 91.9331 94.125 90.2035 94.125 88.4C94.125 86.5965 93.4073 84.8669 92.1297 83.5917C90.8521 82.3164 89.1193 81.6 87.3125 81.6ZM114.562 13.6H106.524C105.118 9.63186 102.518 6.19479 99.0781 3.75998C95.6387 1.32517 91.5291 0.0118287 87.3125 0H73.6875C69.4709 0.0118287 65.3613 1.32517 61.9219 3.75998C58.4825 6.19479 55.8818 9.63186 54.4763 13.6H46.4375C41.0171 13.6 35.8188 15.7493 31.986 19.575C28.1532 23.4008 26 28.5896 26 34V115.6C26 121.01 28.1532 126.199 31.986 130.025C35.8188 133.851 41.0171 136 46.4375 136H114.562C119.983 136 125.181 133.851 129.014 130.025C132.847 126.199 135 121.01 135 115.6V34C135 28.5896 132.847 23.4008 129.014 19.575C125.181 15.7493 119.983 13.6 114.562 13.6ZM66.875 20.4C66.875 18.5965 67.5927 16.8669 68.8703 15.5917C70.1479 14.3164 71.8807 13.6 73.6875 13.6H87.3125C89.1193 13.6 90.8521 14.3164 92.1297 15.5917C93.4073 16.8669 94.125 18.5965 94.125 20.4V27.2H66.875V20.4ZM121.375 115.6C121.375 117.403 120.657 119.133 119.38 120.408C118.102 121.684 116.369 122.4 114.562 122.4H46.4375C44.6307 122.4 42.8979 121.684 41.6203 120.408C40.3427 119.133 39.625 117.403 39.625 115.6V34C39.625 32.1965 40.3427 30.4669 41.6203 29.1917C42.8979 27.9164 44.6307 27.2 46.4375 27.2H53.25V34C53.25 35.8035 53.9677 37.5331 55.2453 38.8083C56.5229 40.0836 58.2557 40.8 60.0625 40.8H100.938C102.744 40.8 104.477 40.0836 105.755 38.8083C107.032 37.5331 107.75 35.8035 107.75 34V27.2H114.562C116.369 27.2 118.102 27.9164 119.38 29.1917C120.657 30.4669 121.375 32.1965 121.375 34V115.6ZM100.938 54.4H60.0625C58.2557 54.4 56.5229 55.1164 55.2453 56.3917C53.9677 57.6669 53.25 59.3965 53.25 61.2C53.25 63.0035 53.9677 64.7331 55.2453 66.0083C56.5229 67.2836 58.2557 68 60.0625 68H100.938C102.744 68 104.477 67.2836 105.755 66.0083C107.032 64.7331 107.75 63.0035 107.75 61.2C107.75 59.3965 107.032 57.6669 105.755 56.3917C104.477 55.1164 102.744 54.4 100.938 54.4Z" fill="white" fill-opacity="0.5"/>
<path d="M13.8044 177.288C13.4204 176.584 12.8924 176.048 12.2204 175.68C11.5484 175.312 10.7644 175.128 9.86838 175.128C8.87638 175.128 7.99638 175.352 7.22838 175.8C6.46038 176.248 5.86038 176.888 5.42838 177.72C4.99638 178.552 4.78038 179.512 4.78038 180.6C4.78038 181.72 4.99638 182.696 5.42838 183.528C5.87638 184.36 6.49238 185 7.27638 185.448C8.06038 185.896 8.97238 186.12 10.0124 186.12C11.2924 186.12 12.3404 185.784 13.1564 185.112C13.9724 184.424 14.5084 183.472 14.7644 182.256H9.00438V179.688H18.0764V182.616C17.8524 183.784 17.3724 184.864 16.6364 185.856C15.9004 186.848 14.9484 187.648 13.7804 188.256C12.6284 188.848 11.3324 189.144 9.89238 189.144C8.27638 189.144 6.81238 188.784 5.50038 188.064C4.20438 187.328 3.18038 186.312 2.42838 185.016C1.69238 183.72 1.32438 182.248 1.32438 180.6C1.32438 178.952 1.69238 177.48 2.42838 176.184C3.18038 174.872 4.20438 173.856 5.50038 173.136C6.81238 172.4 8.26838 172.032 9.86838 172.032C11.7564 172.032 13.3964 172.496 14.7884 173.424C16.1804 174.336 17.1404 175.624 17.6684 177.288H13.8044ZM19.6982 182.304C19.6982 180.96 19.9622 179.768 20.4902 178.728C21.0343 177.688 21.7623 176.888 22.6743 176.328C23.6023 175.768 24.6343 175.488 25.7703 175.488C26.7623 175.488 27.6263 175.688 28.3623 176.088C29.1143 176.488 29.7143 176.992 30.1623 177.6V175.704H33.5463V189H30.1623V187.056C29.7303 187.68 29.1303 188.2 28.3623 188.616C27.6103 189.016 26.7383 189.216 25.7463 189.216C24.6263 189.216 23.6023 188.928 22.6743 188.352C21.7623 187.776 21.0343 186.968 20.4902 185.928C19.9622 184.872 19.6982 183.664 19.6982 182.304ZM30.1623 182.352C30.1623 181.536 30.0023 180.84 29.6823 180.264C29.3623 179.672 28.9303 179.224 28.3863 178.92C27.8423 178.6 27.2583 178.44 26.6343 178.44C26.0103 178.44 25.4343 178.592 24.9062 178.896C24.3783 179.2 23.9463 179.648 23.6103 180.24C23.2903 180.816 23.1303 181.504 23.1303 182.304C23.1303 183.104 23.2903 183.808 23.6103 184.416C23.9463 185.008 24.3783 185.464 24.9062 185.784C25.4503 186.104 26.0263 186.264 26.6343 186.264C27.2583 186.264 27.8423 186.112 28.3863 185.808C28.9303 185.488 29.3623 185.04 29.6823 184.464C30.0023 183.872 30.1623 183.168 30.1623 182.352ZM40.1879 177.624C40.6199 177.016 41.2119 176.512 41.9639 176.112C42.7319 175.696 43.6039 175.488 44.5799 175.488C45.7159 175.488 46.7399 175.768 47.6519 176.328C48.5799 176.888 49.3079 177.688 49.8359 178.728C50.3799 179.752 50.6519 180.944 50.6519 182.304C50.6519 183.664 50.3799 184.872 49.8359 185.928C49.3079 186.968 48.5799 187.776 47.6519 188.352C46.7399 188.928 45.7159 189.216 44.5799 189.216C43.6039 189.216 42.7399 189.016 41.9879 188.616C41.2519 188.216 40.6519 187.712 40.1879 187.104V195.336H36.8279V175.704H40.1879V177.624ZM47.2199 182.304C47.2199 181.504 47.0519 180.816 46.7159 180.24C46.3959 179.648 45.9639 179.2 45.4199 178.896C44.8919 178.592 44.3159 178.44 43.6919 178.44C43.0839 178.44 42.5079 178.6 41.9639 178.92C41.4359 179.224 41.0039 179.672 40.6679 180.264C40.3479 180.856 40.1879 181.552 40.1879 182.352C40.1879 183.152 40.3479 183.848 40.6679 184.44C41.0039 185.032 41.4359 185.488 41.9639 185.808C42.5079 186.112 43.0839 186.264 43.6919 186.264C44.3159 186.264 44.8919 186.104 45.4199 185.784C45.9639 185.464 46.3959 185.008 46.7159 184.416C47.0519 183.824 47.2199 183.12 47.2199 182.304ZM69.0843 185.808H62.4123L61.3083 189H57.7803L63.8043 172.224H67.7163L73.7403 189H70.1883L69.0843 185.808ZM68.1723 183.12L65.7483 176.112L63.3242 183.12H68.1723ZM83.3599 175.512C84.9439 175.512 86.2239 176.016 87.1999 177.024C88.1759 178.016 88.6639 179.408 88.6639 181.2V189H85.3039V181.656C85.3039 180.6 85.0399 179.792 84.5119 179.232C83.9839 178.656 83.2639 178.368 82.3519 178.368C81.4239 178.368 80.6879 178.656 80.1439 179.232C79.6159 179.792 79.3519 180.6 79.3519 181.656V189H75.9919V175.704H79.3519V177.36C79.7999 176.784 80.3679 176.336 81.0559 176.016C81.7599 175.68 82.5279 175.512 83.3599 175.512ZM90.9951 182.304C90.9951 180.96 91.2591 179.768 91.7871 178.728C92.3311 177.688 93.0591 176.888 93.9711 176.328C94.8991 175.768 95.9311 175.488 97.0671 175.488C98.0591 175.488 98.9231 175.688 99.6591 176.088C100.411 176.488 101.011 176.992 101.459 177.6V175.704H104.843V189H101.459V187.056C101.027 187.68 100.427 188.2 99.6591 188.616C98.9071 189.016 98.0351 189.216 97.0431 189.216C95.9231 189.216 94.8991 188.928 93.9711 188.352C93.0591 187.776 92.3311 186.968 91.7871 185.928C91.2591 184.872 90.9951 183.664 90.9951 182.304ZM101.459 182.352C101.459 181.536 101.299 180.84 100.979 180.264C100.659 179.672 100.227 179.224 99.6831 178.92C99.1391 178.6 98.5551 178.44 97.9311 178.44C97.3071 178.44 96.7311 178.592 96.2031 178.896C95.6751 179.2 95.2431 179.648 94.9071 180.24C94.5871 180.816 94.4271 181.504 94.4271 182.304C94.4271 183.104 94.5871 183.808 94.9071 184.416C95.2431 185.008 95.6751 185.464 96.2031 185.784C96.7471 186.104 97.3231 186.264 97.9311 186.264C98.5551 186.264 99.1391 186.112 99.6831 185.808C100.227 185.488 100.659 185.04 100.979 184.464C101.299 183.872 101.459 183.168 101.459 182.352ZM111.485 171.24V189H108.125V171.24H111.485ZM127.524 175.704L119.292 195.288H115.716L118.596 188.664L113.268 175.704H117.036L120.468 184.992L123.948 175.704H127.524ZM134.424 189.216C133.336 189.216 132.36 189.024 131.496 188.64C130.632 188.24 129.944 187.704 129.432 187.032C128.936 186.36 128.664 185.616 128.616 184.8H132C132.064 185.312 132.312 185.736 132.744 186.072C133.192 186.408 133.744 186.576 134.4 186.576C135.04 186.576 135.536 186.448 135.888 186.192C136.256 185.936 136.44 185.608 136.44 185.208C136.44 184.776 136.216 184.456 135.768 184.248C135.336 184.024 134.64 183.784 133.68 183.528C132.688 183.288 131.872 183.04 131.232 182.784C130.608 182.528 130.064 182.136 129.6 181.608C129.152 181.08 128.928 180.368 128.928 179.472C128.928 178.736 129.136 178.064 129.552 177.456C129.984 176.848 130.592 176.368 131.376 176.016C132.176 175.664 133.112 175.488 134.184 175.488C135.768 175.488 137.032 175.888 137.976 176.688C138.92 177.472 139.44 178.536 139.536 179.88H136.32C136.272 179.352 136.048 178.936 135.648 178.632C135.264 178.312 134.744 178.152 134.088 178.152C133.48 178.152 133.008 178.264 132.672 178.488C132.352 178.712 132.192 179.024 132.192 179.424C132.192 179.872 132.416 180.216 132.864 180.456C133.312 180.68 134.008 180.912 134.952 181.152C135.912 181.392 136.704 181.64 137.328 181.896C137.952 182.152 138.488 182.552 138.936 183.096C139.4 183.624 139.64 184.328 139.656 185.208C139.656 185.976 139.44 186.664 139.008 187.272C138.592 187.88 137.984 188.36 137.184 188.712C136.4 189.048 135.48 189.216 134.424 189.216ZM144.118 174.12C143.526 174.12 143.03 173.936 142.63 173.568C142.246 173.184 142.054 172.712 142.054 172.152C142.054 171.592 142.246 171.128 142.63 170.76C143.03 170.376 143.526 170.184 144.118 170.184C144.71 170.184 145.198 170.376 145.582 170.76C145.982 171.128 146.182 171.592 146.182 172.152C146.182 172.712 145.982 173.184 145.582 173.568C145.198 173.936 144.71 174.12 144.118 174.12ZM145.774 175.704V189H142.414V175.704H145.774ZM154.182 189.216C153.094 189.216 152.118 189.024 151.254 188.64C150.39 188.24 149.702 187.704 149.19 187.032C148.694 186.36 148.422 185.616 148.374 184.8H151.758C151.822 185.312 152.07 185.736 152.502 186.072C152.95 186.408 153.502 186.576 154.158 186.576C154.798 186.576 155.294 186.448 155.646 186.192C156.014 185.936 156.198 185.608 156.198 185.208C156.198 184.776 155.974 184.456 155.526 184.248C155.094 184.024 154.398 183.784 153.438 183.528C152.446 183.288 151.63 183.04 150.99 182.784C150.366 182.528 149.822 182.136 149.358 181.608C148.91 181.08 148.686 180.368 148.686 179.472C148.686 178.736 148.894 178.064 149.31 177.456C149.742 176.848 150.35 176.368 151.134 176.016C151.934 175.664 152.87 175.488 153.942 175.488C155.526 175.488 156.79 175.888 157.734 176.688C158.678 177.472 159.198 178.536 159.294 179.88H156.078C156.03 179.352 155.806 178.936 155.406 178.632C155.022 178.312 154.502 178.152 153.846 178.152C153.238 178.152 152.766 178.264 152.43 178.488C152.11 178.712 151.95 179.024 151.95 179.424C151.95 179.872 152.174 180.216 152.622 180.456C153.07 180.68 153.766 180.912 154.71 181.152C155.67 181.392 156.462 181.64 157.086 181.896C157.71 182.152 158.246 182.552 158.694 183.096C159.158 183.624 159.398 184.328 159.414 185.208C159.414 185.976 159.198 186.664 158.766 187.272C158.35 187.88 157.742 188.36 156.942 188.712C156.158 189.048 155.238 189.216 154.182 189.216Z" fill="white" fill-opacity="0.5"/>
</svg>
