<svg width="147" height="190" viewBox="0 0 167 217" fill="none" xmlns="http://www.w3.org/2000/svg">
<path d="M132.022 122.439H35.1459C32.9393 122.439 31.1094 120.609 31.1094 118.403C31.1094 116.196 32.9393 114.366 35.1459 114.366H132.022C134.228 114.366 136.058 116.196 136.058 118.403C136.058 120.609 134.228 122.439 132.022 122.439Z" />
<path d="M49.1389 106.294H40.5279C35.3611 106.294 31.1094 102.042 31.1094 96.8757V50.4829C31.1094 45.3162 35.3611 41.0645 40.5279 41.0645H49.1389C54.3056 41.0645 58.5574 45.3162 58.5574 50.4829V96.8757C58.5574 102.042 54.3056 106.294 49.1389 106.294ZM40.5279 49.0836C39.7744 49.0836 39.1824 49.6756 39.1824 50.4291V96.8757C39.1824 97.6292 39.7744 98.2212 40.5279 98.2212H49.1389C49.8924 98.2212 50.4844 97.6292 50.4844 96.8757V50.4829C50.4844 49.7295 49.8924 49.1374 49.1389 49.1374H40.5279V49.0836Z" />
<path d="M87.885 106.297H79.274C74.1072 106.297 69.8555 102.045 69.8555 96.8782V33.3169C69.8555 28.1502 74.1072 23.8984 79.274 23.8984H87.885C93.0517 23.8984 97.3035 28.1502 97.3035 33.3169V96.8782C97.3035 102.045 93.0517 106.297 87.885 106.297ZM79.274 31.9714C78.5205 31.9714 77.9285 32.5634 77.9285 33.3169V96.8782C77.9285 97.6317 78.5205 98.2237 79.274 98.2237H87.885C88.6385 98.2237 89.2305 97.6317 89.2305 96.8782V33.3169C89.2305 32.5634 88.6385 31.9714 87.885 31.9714H79.274Z" />
<path d="M126.641 106.294H118.03C112.863 106.294 108.611 102.043 108.611 96.8759V16.146C108.611 10.9793 112.863 6.72754 118.03 6.72754H126.641C131.808 6.72754 136.059 10.9793 136.059 16.146V96.8759C136.059 102.043 131.808 106.294 126.641 106.294ZM118.03 14.8005C117.276 14.8005 116.684 15.3925 116.684 16.146V96.8759C116.684 97.6294 117.276 98.2214 118.03 98.2214H126.641C127.394 98.2214 127.986 97.6294 127.986 96.8759V16.146C127.986 15.3925 127.394 14.8005 126.641 14.8005H118.03Z" />
<path d="M17.9072 159.432C17.9072 160.328 17.6912 161.168 17.2592 161.952C16.8432 162.736 16.1792 163.368 15.2672 163.848C14.3712 164.328 13.2352 164.568 11.8592 164.568H9.05116V171H5.69116V154.248H11.8592C13.1552 154.248 14.2592 154.472 15.1712 154.92C16.0832 155.368 16.7632 155.984 17.2112 156.768C17.6752 157.552 17.9072 158.44 17.9072 159.432ZM11.7152 161.856C12.6432 161.856 13.3312 161.648 13.7792 161.232C14.2272 160.8 14.4512 160.2 14.4512 159.432C14.4512 157.8 13.5392 156.984 11.7152 156.984H9.05116V161.856H11.7152ZM32.6527 164.064C32.6527 164.544 32.6207 164.976 32.5567 165.36H22.8367C22.9167 166.32 23.2527 167.072 23.8447 167.616C24.4367 168.16 25.1647 168.432 26.0287 168.432C27.2767 168.432 28.1647 167.896 28.6927 166.824H32.3167C31.9327 168.104 31.1967 169.16 30.1087 169.992C29.0207 170.808 27.6847 171.216 26.1007 171.216C24.8207 171.216 23.6687 170.936 22.6447 170.376C21.6367 169.8 20.8447 168.992 20.2687 167.952C19.7087 166.912 19.4287 165.712 19.4287 164.352C19.4287 162.976 19.7087 161.768 20.2687 160.728C20.8287 159.688 21.6127 158.888 22.6207 158.328C23.6287 157.768 24.7887 157.488 26.1007 157.488C27.3647 157.488 28.4927 157.76 29.4847 158.304C30.4927 158.848 31.2687 159.624 31.8127 160.632C32.3727 161.624 32.6527 162.768 32.6527 164.064ZM29.1727 163.104C29.1567 162.24 28.8447 161.552 28.2367 161.04C27.6287 160.512 26.8847 160.248 26.0047 160.248C25.1727 160.248 24.4687 160.504 23.8927 161.016C23.3327 161.512 22.9887 162.208 22.8607 163.104H29.1727ZM38.4652 159.768C38.8972 159.064 39.4572 158.512 40.1452 158.112C40.8492 157.712 41.6492 157.512 42.5452 157.512V161.04H41.6572C40.6012 161.04 39.8012 161.288 39.2572 161.784C38.7292 162.28 38.4652 163.144 38.4652 164.376V171H35.1052V157.704H38.4652V159.768ZM50.9043 160.464H48.5763V171H45.1683V160.464H43.6563V157.704H45.1683V157.032C45.1683 155.4 45.6323 154.2 46.5603 153.432C47.4883 152.664 48.8883 152.304 50.7603 152.352V155.184C49.9443 155.168 49.3763 155.304 49.0563 155.592C48.7363 155.88 48.5763 156.4 48.5763 157.152V157.704H50.9043V160.464ZM58.9858 171.216C57.7058 171.216 56.5538 170.936 55.5298 170.376C54.5058 169.8 53.6978 168.992 53.1058 167.952C52.5298 166.912 52.2418 165.712 52.2418 164.352C52.2418 162.992 52.5378 161.792 53.1298 160.752C53.7378 159.712 54.5618 158.912 55.6018 158.352C56.6418 157.776 57.8018 157.488 59.0818 157.488C60.3618 157.488 61.5218 157.776 62.5618 158.352C63.6018 158.912 64.4178 159.712 65.0098 160.752C65.6178 161.792 65.9218 162.992 65.9218 164.352C65.9218 165.712 65.6098 166.912 64.9858 167.952C64.3778 168.992 63.5458 169.8 62.4898 170.376C61.4498 170.936 60.2818 171.216 58.9858 171.216ZM58.9858 168.288C59.5938 168.288 60.1618 168.144 60.6898 167.856C61.2338 167.552 61.6658 167.104 61.9858 166.512C62.3058 165.92 62.4658 165.2 62.4658 164.352C62.4658 163.088 62.1298 162.12 61.4578 161.448C60.8018 160.76 59.9938 160.416 59.0338 160.416C58.0738 160.416 57.2658 160.76 56.6098 161.448C55.9698 162.12 55.6498 163.088 55.6498 164.352C55.6498 165.616 55.9618 166.592 56.5858 167.28C57.2258 167.952 58.0258 168.288 58.9858 168.288ZM71.7465 159.768C72.1785 159.064 72.7385 158.512 73.4265 158.112C74.1305 157.712 74.9305 157.512 75.8265 157.512V161.04H74.9385C73.8825 161.04 73.0825 161.288 72.5385 161.784C72.0105 162.28 71.7465 163.144 71.7465 164.376V171H68.3865V157.704H71.7465V159.768ZM94.6016 157.512C96.2336 157.512 97.5456 158.016 98.5376 159.024C99.5456 160.016 100.05 161.408 100.05 163.2V171H96.6896V163.656C96.6896 162.616 96.4256 161.824 95.8976 161.28C95.3696 160.72 94.6496 160.44 93.7376 160.44C92.8256 160.44 92.0976 160.72 91.5536 161.28C91.0256 161.824 90.7616 162.616 90.7616 163.656V171H87.4016V163.656C87.4016 162.616 87.1376 161.824 86.6096 161.28C86.0816 160.72 85.3616 160.44 84.4496 160.44C83.5216 160.44 82.7856 160.72 82.2416 161.28C81.7136 161.824 81.4496 162.616 81.4496 163.656V171H78.0896V157.704H81.4496V159.312C81.8816 158.752 82.4336 158.312 83.1056 157.992C83.7936 157.672 84.5456 157.512 85.3616 157.512C86.4016 157.512 87.3296 157.736 88.1456 158.184C88.9616 158.616 89.5936 159.24 90.0416 160.056C90.4736 159.288 91.0976 158.672 91.9136 158.208C92.7456 157.744 93.6416 157.512 94.6016 157.512ZM102.374 164.304C102.374 162.96 102.638 161.768 103.166 160.728C103.71 159.688 104.438 158.888 105.35 158.328C106.278 157.768 107.31 157.488 108.446 157.488C109.438 157.488 110.302 157.688 111.038 158.088C111.79 158.488 112.39 158.992 112.838 159.6V157.704H116.222V171H112.838V169.056C112.406 169.68 111.806 170.2 111.038 170.616C110.286 171.016 109.414 171.216 108.422 171.216C107.302 171.216 106.278 170.928 105.35 170.352C104.438 169.776 103.71 168.968 103.166 167.928C102.638 166.872 102.374 165.664 102.374 164.304ZM112.838 164.352C112.838 163.536 112.678 162.84 112.358 162.264C112.038 161.672 111.606 161.224 111.062 160.92C110.518 160.6 109.934 160.44 109.31 160.44C108.686 160.44 108.11 160.592 107.582 160.896C107.054 161.2 106.622 161.648 106.286 162.24C105.966 162.816 105.806 163.504 105.806 164.304C105.806 165.104 105.966 165.808 106.286 166.416C106.622 167.008 107.054 167.464 107.582 167.784C108.126 168.104 108.702 168.264 109.31 168.264C109.934 168.264 110.518 168.112 111.062 167.808C111.606 167.488 112.038 167.04 112.358 166.464C112.678 165.872 112.838 165.168 112.838 164.352ZM126.872 157.512C128.456 157.512 129.736 158.016 130.712 159.024C131.688 160.016 132.176 161.408 132.176 163.2V171H128.816V163.656C128.816 162.6 128.552 161.792 128.024 161.232C127.496 160.656 126.776 160.368 125.864 160.368C124.936 160.368 124.2 160.656 123.656 161.232C123.128 161.792 122.864 162.6 122.864 163.656V171H119.504V157.704H122.864V159.36C123.312 158.784 123.88 158.336 124.568 158.016C125.272 157.68 126.04 157.512 126.872 157.512ZM134.507 164.352C134.507 162.976 134.787 161.776 135.347 160.752C135.907 159.712 136.683 158.912 137.675 158.352C138.667 157.776 139.803 157.488 141.083 157.488C142.731 157.488 144.091 157.904 145.163 158.736C146.251 159.552 146.979 160.704 147.347 162.192H143.723C143.531 161.616 143.203 161.168 142.739 160.848C142.291 160.512 141.731 160.344 141.059 160.344C140.099 160.344 139.339 160.696 138.779 161.4C138.219 162.088 137.939 163.072 137.939 164.352C137.939 165.616 138.219 166.6 138.779 167.304C139.339 167.992 140.099 168.336 141.059 168.336C142.419 168.336 143.307 167.728 143.723 166.512H147.347C146.979 167.952 146.251 169.096 145.163 169.944C144.075 170.792 142.715 171.216 141.083 171.216C139.803 171.216 138.667 170.936 137.675 170.376C136.683 169.8 135.907 169 135.347 167.976C134.787 166.936 134.507 165.728 134.507 164.352ZM162.168 164.064C162.168 164.544 162.136 164.976 162.072 165.36H152.352C152.432 166.32 152.768 167.072 153.36 167.616C153.952 168.16 154.68 168.432 155.544 168.432C156.792 168.432 157.68 167.896 158.208 166.824H161.832C161.448 168.104 160.712 169.16 159.624 169.992C158.536 170.808 157.2 171.216 155.616 171.216C154.336 171.216 153.184 170.936 152.16 170.376C151.152 169.8 150.36 168.992 149.784 167.952C149.224 166.912 148.944 165.712 148.944 164.352C148.944 162.976 149.224 161.768 149.784 160.728C150.344 159.688 151.128 158.888 152.136 158.328C153.144 157.768 154.304 157.488 155.616 157.488C156.88 157.488 158.008 157.76 159 158.304C160.008 158.848 160.784 159.624 161.328 160.632C161.888 161.624 162.168 162.768 162.168 164.064ZM158.688 163.104C158.672 162.24 158.36 161.552 157.752 161.04C157.144 160.512 156.4 160.248 155.52 160.248C154.688 160.248 153.984 160.504 153.408 161.016C152.848 161.512 152.504 162.208 152.376 163.104H158.688ZM20.3223 190.248V207H16.9623V196.104L12.4743 207H9.93034L5.41834 196.104V207H2.05834V190.248H5.87434L11.2023 202.704L16.5303 190.248H20.3223ZM22.7803 200.304C22.7803 198.96 23.0443 197.768 23.5723 196.728C24.1163 195.688 24.8443 194.888 25.7563 194.328C26.6843 193.768 27.7163 193.488 28.8523 193.488C29.8443 193.488 30.7083 193.688 31.4443 194.088C32.1963 194.488 32.7963 194.992 33.2443 195.6V193.704H36.6283V207H33.2443V205.056C32.8123 205.68 32.2123 206.2 31.4443 206.616C30.6923 207.016 29.8203 207.216 28.8283 207.216C27.7083 207.216 26.6843 206.928 25.7563 206.352C24.8443 205.776 24.1163 204.968 23.5723 203.928C23.0443 202.872 22.7803 201.664 22.7803 200.304ZM33.2443 200.352C33.2443 199.536 33.0843 198.84 32.7643 198.264C32.4443 197.672 32.0123 197.224 31.4683 196.92C30.9243 196.6 30.3403 196.44 29.7163 196.44C29.0923 196.44 28.5163 196.592 27.9883 196.896C27.4603 197.2 27.0283 197.648 26.6923 198.24C26.3723 198.816 26.2123 199.504 26.2123 200.304C26.2123 201.104 26.3723 201.808 26.6923 202.416C27.0283 203.008 27.4603 203.464 27.9883 203.784C28.5323 204.104 29.1083 204.264 29.7163 204.264C30.3403 204.264 30.9243 204.112 31.4683 203.808C32.0123 203.488 32.4443 203.04 32.7643 202.464C33.0843 201.872 33.2443 201.168 33.2443 200.352ZM47.2779 193.512C48.8619 193.512 50.1419 194.016 51.1179 195.024C52.0939 196.016 52.5819 197.408 52.5819 199.2V207H49.2219V199.656C49.2219 198.6 48.9579 197.792 48.4299 197.232C47.9019 196.656 47.1819 196.368 46.2699 196.368C45.3419 196.368 44.6059 196.656 44.0619 197.232C43.5339 197.792 43.2699 198.6 43.2699 199.656V207H39.9099V193.704H43.2699V195.36C43.7179 194.784 44.2859 194.336 44.9739 194.016C45.6779 193.68 46.4459 193.512 47.2779 193.512ZM54.9131 200.304C54.9131 198.96 55.1771 197.768 55.7051 196.728C56.2491 195.688 56.9771 194.888 57.8891 194.328C58.8171 193.768 59.8491 193.488 60.9851 193.488C61.9771 193.488 62.8411 193.688 63.5771 194.088C64.3291 194.488 64.9291 194.992 65.3771 195.6V193.704H68.7611V207H65.3771V205.056C64.9451 205.68 64.3451 206.2 63.5771 206.616C62.8251 207.016 61.9531 207.216 60.9611 207.216C59.8411 207.216 58.8171 206.928 57.8891 206.352C56.9771 205.776 56.2491 204.968 55.7051 203.928C55.1771 202.872 54.9131 201.664 54.9131 200.304ZM65.3771 200.352C65.3771 199.536 65.2171 198.84 64.8971 198.264C64.5771 197.672 64.1451 197.224 63.6011 196.92C63.0571 196.6 62.4731 196.44 61.8491 196.44C61.2251 196.44 60.6491 196.592 60.1211 196.896C59.5931 197.2 59.1611 197.648 58.8251 198.24C58.5051 198.816 58.3451 199.504 58.3451 200.304C58.3451 201.104 58.5051 201.808 58.8251 202.416C59.1611 203.008 59.5931 203.464 60.1211 203.784C60.6651 204.104 61.2411 204.264 61.8491 204.264C62.4731 204.264 63.0571 204.112 63.6011 203.808C64.1451 203.488 64.5771 203.04 64.8971 202.464C65.2171 201.872 65.3771 201.168 65.3771 200.352ZM77.2507 193.488C78.2427 193.488 79.1147 193.688 79.8667 194.088C80.6187 194.472 81.2107 194.976 81.6427 195.6V193.704H85.0267V207.096C85.0267 208.328 84.7787 209.424 84.2827 210.384C83.7867 211.36 83.0427 212.128 82.0507 212.688C81.0587 213.264 79.8587 213.552 78.4507 213.552C76.5627 213.552 75.0107 213.112 73.7947 212.232C72.5947 211.352 71.9147 210.152 71.7547 208.632H75.0907C75.2667 209.24 75.6427 209.72 76.2187 210.072C76.8107 210.44 77.5227 210.624 78.3547 210.624C79.3307 210.624 80.1227 210.328 80.7307 209.736C81.3387 209.16 81.6427 208.28 81.6427 207.096V205.032C81.2107 205.656 80.6107 206.176 79.8427 206.592C79.0907 207.008 78.2267 207.216 77.2507 207.216C76.1307 207.216 75.1067 206.928 74.1787 206.352C73.2507 205.776 72.5147 204.968 71.9707 203.928C71.4427 202.872 71.1787 201.664 71.1787 200.304C71.1787 198.96 71.4427 197.768 71.9707 196.728C72.5147 195.688 73.2427 194.888 74.1547 194.328C75.0827 193.768 76.1147 193.488 77.2507 193.488ZM81.6427 200.352C81.6427 199.536 81.4827 198.84 81.1627 198.264C80.8427 197.672 80.4107 197.224 79.8667 196.92C79.3227 196.6 78.7387 196.44 78.1147 196.44C77.4907 196.44 76.9147 196.592 76.3867 196.896C75.8587 197.2 75.4267 197.648 75.0907 198.24C74.7707 198.816 74.6107 199.504 74.6107 200.304C74.6107 201.104 74.7707 201.808 75.0907 202.416C75.4267 203.008 75.8587 203.464 76.3867 203.784C76.9307 204.104 77.5067 204.264 78.1147 204.264C78.7387 204.264 79.3227 204.112 79.8667 203.808C80.4107 203.488 80.8427 203.04 81.1627 202.464C81.4827 201.872 81.6427 201.168 81.6427 200.352ZM100.668 200.064C100.668 200.544 100.636 200.976 100.572 201.36H90.8523C90.9323 202.32 91.2683 203.072 91.8603 203.616C92.4523 204.16 93.1803 204.432 94.0443 204.432C95.2923 204.432 96.1803 203.896 96.7083 202.824H100.332C99.9483 204.104 99.2123 205.16 98.1243 205.992C97.0363 206.808 95.7003 207.216 94.1163 207.216C92.8363 207.216 91.6843 206.936 90.6603 206.376C89.6523 205.8 88.8603 204.992 88.2843 203.952C87.7243 202.912 87.4443 201.712 87.4443 200.352C87.4443 198.976 87.7243 197.768 88.2843 196.728C88.8443 195.688 89.6283 194.888 90.6363 194.328C91.6443 193.768 92.8043 193.488 94.1163 193.488C95.3803 193.488 96.5083 193.76 97.5003 194.304C98.5083 194.848 99.2843 195.624 99.8283 196.632C100.388 197.624 100.668 198.768 100.668 200.064ZM97.1883 199.104C97.1723 198.24 96.8603 197.552 96.2523 197.04C95.6443 196.512 94.9003 196.248 94.0203 196.248C93.1883 196.248 92.4843 196.504 91.9083 197.016C91.3483 197.512 91.0043 198.208 90.8763 199.104H97.1883ZM119.633 193.512C121.265 193.512 122.577 194.016 123.569 195.024C124.577 196.016 125.081 197.408 125.081 199.2V207H121.721V199.656C121.721 198.616 121.457 197.824 120.929 197.28C120.401 196.72 119.681 196.44 118.769 196.44C117.857 196.44 117.129 196.72 116.585 197.28C116.057 197.824 115.793 198.616 115.793 199.656V207H112.433V199.656C112.433 198.616 112.169 197.824 111.641 197.28C111.113 196.72 110.393 196.44 109.481 196.44C108.553 196.44 107.817 196.72 107.273 197.28C106.745 197.824 106.481 198.616 106.481 199.656V207H103.121V193.704H106.481V195.312C106.913 194.752 107.465 194.312 108.137 193.992C108.825 193.672 109.577 193.512 110.393 193.512C111.433 193.512 112.361 193.736 113.177 194.184C113.993 194.616 114.625 195.24 115.073 196.056C115.505 195.288 116.129 194.672 116.945 194.208C117.777 193.744 118.673 193.512 119.633 193.512ZM140.629 200.064C140.629 200.544 140.597 200.976 140.533 201.36H130.813C130.893 202.32 131.229 203.072 131.821 203.616C132.413 204.16 133.141 204.432 134.005 204.432C135.253 204.432 136.141 203.896 136.669 202.824H140.293C139.909 204.104 139.173 205.16 138.085 205.992C136.997 206.808 135.661 207.216 134.077 207.216C132.797 207.216 131.645 206.936 130.621 206.376C129.613 205.8 128.821 204.992 128.245 203.952C127.685 202.912 127.405 201.712 127.405 200.352C127.405 198.976 127.685 197.768 128.245 196.728C128.805 195.688 129.589 194.888 130.597 194.328C131.605 193.768 132.765 193.488 134.077 193.488C135.341 193.488 136.469 193.76 137.461 194.304C138.469 194.848 139.245 195.624 139.789 196.632C140.349 197.624 140.629 198.768 140.629 200.064ZM137.149 199.104C137.133 198.24 136.821 197.552 136.213 197.04C135.605 196.512 134.861 196.248 133.981 196.248C133.149 196.248 132.445 196.504 131.869 197.016C131.309 197.512 130.965 198.208 130.837 199.104H137.149ZM150.45 193.512C152.034 193.512 153.314 194.016 154.29 195.024C155.266 196.016 155.754 197.408 155.754 199.2V207H152.394V199.656C152.394 198.6 152.13 197.792 151.602 197.232C151.074 196.656 150.354 196.368 149.442 196.368C148.514 196.368 147.778 196.656 147.234 197.232C146.706 197.792 146.442 198.6 146.442 199.656V207H143.082V193.704H146.442V195.36C146.89 194.784 147.458 194.336 148.146 194.016C148.85 193.68 149.618 193.512 150.45 193.512ZM162.861 196.464V202.896C162.861 203.344 162.965 203.672 163.173 203.88C163.397 204.072 163.765 204.168 164.277 204.168H165.837V207H163.725C160.893 207 159.477 205.624 159.477 202.872V196.464H157.893V193.704H159.477V190.416H162.861V193.704H165.837V196.464H162.861Z" />
</svg>
