<svg width="225" height="209" viewBox="0 0 225 209" fill="none" xmlns="http://www.w3.org/2000/svg">
<path d="M14.5227 165.952L11.9787 162.904C11.2747 163.08 10.5547 163.168 9.81872 163.168C8.25072 163.168 6.81072 162.8 5.49872 162.064C4.18672 161.328 3.14672 160.312 2.37872 159.016C1.61072 157.704 1.22672 156.224 1.22672 154.576C1.22672 152.944 1.61072 151.48 2.37872 150.184C3.14672 148.872 4.18672 147.848 5.49872 147.112C6.81072 146.376 8.25072 146.008 9.81872 146.008C11.4027 146.008 12.8427 146.376 14.1387 147.112C15.4507 147.848 16.4827 148.872 17.2347 150.184C18.0027 151.48 18.3867 152.944 18.3867 154.576C18.3867 156.064 18.0667 157.424 17.4267 158.656C16.8027 159.872 15.9467 160.864 14.8587 161.632L18.6987 165.952H14.5227ZM4.68272 154.576C4.68272 155.696 4.89872 156.68 5.33072 157.528C5.76272 158.376 6.36272 159.032 7.13072 159.496C7.91472 159.944 8.81072 160.168 9.81872 160.168C10.8267 160.168 11.7147 159.944 12.4827 159.496C13.2507 159.032 13.8507 158.376 14.2827 157.528C14.7147 156.68 14.9307 155.696 14.9307 154.576C14.9307 153.456 14.7147 152.48 14.2827 151.648C13.8507 150.8 13.2507 150.152 12.4827 149.704C11.7147 149.256 10.8267 149.032 9.81872 149.032C8.81072 149.032 7.91472 149.256 7.13072 149.704C6.36272 150.152 5.76272 150.8 5.33072 151.648C4.89872 152.48 4.68272 153.456 4.68272 154.576ZM33.4853 149.704V163H30.1013V161.32C29.6693 161.896 29.1013 162.352 28.3973 162.688C27.7093 163.008 26.9573 163.168 26.1413 163.168C25.1013 163.168 24.1813 162.952 23.3813 162.52C22.5813 162.072 21.9493 161.424 21.4853 160.576C21.0373 159.712 20.8133 158.688 20.8133 157.504V149.704H24.1733V157.024C24.1733 158.08 24.4373 158.896 24.9653 159.472C25.4933 160.032 26.2133 160.312 27.1253 160.312C28.0533 160.312 28.7813 160.032 29.3093 159.472C29.8373 158.896 30.1013 158.08 30.1013 157.024V149.704H33.4853ZM35.9365 156.304C35.9365 154.96 36.2005 153.768 36.7285 152.728C37.2725 151.688 38.0005 150.888 38.9125 150.328C39.8405 149.768 40.8725 149.488 42.0085 149.488C43.0005 149.488 43.8645 149.688 44.6005 150.088C45.3525 150.488 45.9525 150.992 46.4005 151.6V149.704H49.7845V163H46.4005V161.056C45.9685 161.68 45.3685 162.2 44.6005 162.616C43.8485 163.016 42.9765 163.216 41.9845 163.216C40.8645 163.216 39.8405 162.928 38.9125 162.352C38.0005 161.776 37.2725 160.968 36.7285 159.928C36.2005 158.872 35.9365 157.664 35.9365 156.304ZM46.4005 156.352C46.4005 155.536 46.2405 154.84 45.9205 154.264C45.6005 153.672 45.1685 153.224 44.6245 152.92C44.0805 152.6 43.4965 152.44 42.8725 152.44C42.2485 152.44 41.6725 152.592 41.1445 152.896C40.6165 153.2 40.1845 153.648 39.8485 154.24C39.5285 154.816 39.3685 155.504 39.3685 156.304C39.3685 157.104 39.5285 157.808 39.8485 158.416C40.1845 159.008 40.6165 159.464 41.1445 159.784C41.6885 160.104 42.2645 160.264 42.8725 160.264C43.4965 160.264 44.0805 160.112 44.6245 159.808C45.1685 159.488 45.6005 159.04 45.9205 158.464C46.2405 157.872 46.4005 157.168 46.4005 156.352ZM56.4262 145.24V163H53.0662V145.24H56.4262ZM61.4498 148.12C60.8578 148.12 60.3618 147.936 59.9618 147.568C59.5778 147.184 59.3858 146.712 59.3858 146.152C59.3858 145.592 59.5778 145.128 59.9618 144.76C60.3618 144.376 60.8578 144.184 61.4498 144.184C62.0418 144.184 62.5298 144.376 62.9138 144.76C63.3138 145.128 63.5138 145.592 63.5138 146.152C63.5138 146.712 63.3138 147.184 62.9138 147.568C62.5298 147.936 62.0418 148.12 61.4498 148.12ZM63.1058 149.704V163H59.7458V149.704H63.1058ZM70.3375 152.464V158.896C70.3375 159.344 70.4415 159.672 70.6495 159.88C70.8735 160.072 71.2415 160.168 71.7535 160.168H73.3135V163H71.2015C68.3695 163 66.9535 161.624 66.9535 158.872V152.464H65.3695V149.704H66.9535V146.416H70.3375V149.704H73.3135V152.464H70.3375ZM88.4502 149.704L80.2182 169.288H76.6422L79.5222 162.664L74.1942 149.704H77.9622L81.3942 158.992L84.8742 149.704H88.4502ZM106.252 159.808H99.5802L98.4762 163H94.9482L100.972 146.224H104.884L110.908 163H107.356L106.252 159.808ZM105.34 157.12L102.916 150.112L100.492 157.12H105.34ZM118.248 163.216C117.16 163.216 116.184 163.024 115.32 162.64C114.456 162.24 113.768 161.704 113.256 161.032C112.76 160.36 112.488 159.616 112.44 158.8H115.824C115.888 159.312 116.136 159.736 116.568 160.072C117.016 160.408 117.568 160.576 118.224 160.576C118.864 160.576 119.36 160.448 119.712 160.192C120.08 159.936 120.264 159.608 120.264 159.208C120.264 158.776 120.04 158.456 119.592 158.248C119.16 158.024 118.464 157.784 117.504 157.528C116.512 157.288 115.696 157.04 115.056 156.784C114.432 156.528 113.888 156.136 113.424 155.608C112.976 155.08 112.752 154.368 112.752 153.472C112.752 152.736 112.96 152.064 113.376 151.456C113.808 150.848 114.416 150.368 115.2 150.016C116 149.664 116.936 149.488 118.008 149.488C119.592 149.488 120.856 149.888 121.8 150.688C122.744 151.472 123.264 152.536 123.36 153.88H120.144C120.096 153.352 119.872 152.936 119.472 152.632C119.088 152.312 118.568 152.152 117.912 152.152C117.304 152.152 116.832 152.264 116.496 152.488C116.176 152.712 116.016 153.024 116.016 153.424C116.016 153.872 116.24 154.216 116.688 154.456C117.136 154.68 117.832 154.912 118.776 155.152C119.736 155.392 120.528 155.64 121.152 155.896C121.776 156.152 122.312 156.552 122.76 157.096C123.224 157.624 123.464 158.328 123.48 159.208C123.48 159.976 123.264 160.664 122.832 161.272C122.416 161.88 121.808 162.36 121.008 162.712C120.224 163.048 119.304 163.216 118.248 163.216ZM131.326 163.216C130.238 163.216 129.262 163.024 128.398 162.64C127.534 162.24 126.846 161.704 126.334 161.032C125.838 160.36 125.566 159.616 125.518 158.8H128.902C128.966 159.312 129.214 159.736 129.646 160.072C130.094 160.408 130.646 160.576 131.302 160.576C131.942 160.576 132.438 160.448 132.79 160.192C133.158 159.936 133.342 159.608 133.342 159.208C133.342 158.776 133.118 158.456 132.67 158.248C132.238 158.024 131.542 157.784 130.582 157.528C129.59 157.288 128.774 157.04 128.134 156.784C127.51 156.528 126.966 156.136 126.502 155.608C126.054 155.08 125.83 154.368 125.83 153.472C125.83 152.736 126.038 152.064 126.454 151.456C126.886 150.848 127.494 150.368 128.278 150.016C129.078 149.664 130.014 149.488 131.086 149.488C132.67 149.488 133.934 149.888 134.878 150.688C135.822 151.472 136.342 152.536 136.438 153.88H133.222C133.174 153.352 132.95 152.936 132.55 152.632C132.166 152.312 131.646 152.152 130.99 152.152C130.382 152.152 129.91 152.264 129.574 152.488C129.254 152.712 129.094 153.024 129.094 153.424C129.094 153.872 129.318 154.216 129.766 154.456C130.214 154.68 130.91 154.912 131.854 155.152C132.814 155.392 133.606 155.64 134.23 155.896C134.854 156.152 135.39 156.552 135.838 157.096C136.302 157.624 136.542 158.328 136.558 159.208C136.558 159.976 136.342 160.664 135.91 161.272C135.494 161.88 134.886 162.36 134.086 162.712C133.302 163.048 132.382 163.216 131.326 163.216ZM151.868 149.704V163H148.484V161.32C148.052 161.896 147.484 162.352 146.78 162.688C146.092 163.008 145.34 163.168 144.524 163.168C143.484 163.168 142.564 162.952 141.764 162.52C140.964 162.072 140.332 161.424 139.868 160.576C139.42 159.712 139.196 158.688 139.196 157.504V149.704H142.556V157.024C142.556 158.08 142.82 158.896 143.348 159.472C143.876 160.032 144.596 160.312 145.508 160.312C146.436 160.312 147.164 160.032 147.692 159.472C148.22 158.896 148.484 158.08 148.484 157.024V149.704H151.868ZM158.543 151.768C158.975 151.064 159.535 150.512 160.223 150.112C160.927 149.712 161.727 149.512 162.623 149.512V153.04H161.735C160.679 153.04 159.879 153.288 159.335 153.784C158.807 154.28 158.543 155.144 158.543 156.376V163H155.183V149.704H158.543V151.768ZM164.022 156.304C164.022 154.96 164.286 153.768 164.814 152.728C165.358 151.688 166.086 150.888 166.998 150.328C167.926 149.768 168.958 149.488 170.094 149.488C171.086 149.488 171.95 149.688 172.686 150.088C173.438 150.488 174.038 150.992 174.486 151.6V149.704H177.87V163H174.486V161.056C174.054 161.68 173.454 162.2 172.686 162.616C171.934 163.016 171.062 163.216 170.07 163.216C168.95 163.216 167.926 162.928 166.998 162.352C166.086 161.776 165.358 160.968 164.814 159.928C164.286 158.872 164.022 157.664 164.022 156.304ZM174.486 156.352C174.486 155.536 174.326 154.84 174.006 154.264C173.686 153.672 173.254 153.224 172.71 152.92C172.166 152.6 171.582 152.44 170.958 152.44C170.334 152.44 169.758 152.592 169.23 152.896C168.702 153.2 168.27 153.648 167.934 154.24C167.614 154.816 167.454 155.504 167.454 156.304C167.454 157.104 167.614 157.808 167.934 158.416C168.27 159.008 168.702 159.464 169.23 159.784C169.774 160.104 170.35 160.264 170.958 160.264C171.582 160.264 172.166 160.112 172.71 159.808C173.254 159.488 173.686 159.04 174.006 158.464C174.326 157.872 174.486 157.168 174.486 156.352ZM188.52 149.512C190.104 149.512 191.384 150.016 192.36 151.024C193.336 152.016 193.824 153.408 193.824 155.2V163H190.464V155.656C190.464 154.6 190.2 153.792 189.672 153.232C189.144 152.656 188.424 152.368 187.512 152.368C186.584 152.368 185.848 152.656 185.304 153.232C184.776 153.792 184.512 154.6 184.512 155.656V163H181.152V149.704H184.512V151.36C184.96 150.784 185.528 150.336 186.216 150.016C186.92 149.68 187.688 149.512 188.52 149.512ZM196.155 156.352C196.155 154.976 196.435 153.776 196.995 152.752C197.555 151.712 198.331 150.912 199.323 150.352C200.315 149.776 201.451 149.488 202.731 149.488C204.379 149.488 205.739 149.904 206.811 150.736C207.899 151.552 208.627 152.704 208.995 154.192H205.371C205.179 153.616 204.851 153.168 204.387 152.848C203.939 152.512 203.379 152.344 202.707 152.344C201.747 152.344 200.987 152.696 200.427 153.4C199.867 154.088 199.587 155.072 199.587 156.352C199.587 157.616 199.867 158.6 200.427 159.304C200.987 159.992 201.747 160.336 202.707 160.336C204.067 160.336 204.955 159.728 205.371 158.512H208.995C208.627 159.952 207.899 161.096 206.811 161.944C205.723 162.792 204.363 163.216 202.731 163.216C201.451 163.216 200.315 162.936 199.323 162.376C198.331 161.8 197.555 161 196.995 159.976C196.435 158.936 196.155 157.728 196.155 156.352ZM223.817 156.064C223.817 156.544 223.785 156.976 223.721 157.36H214.001C214.081 158.32 214.417 159.072 215.009 159.616C215.601 160.16 216.329 160.432 217.193 160.432C218.441 160.432 219.329 159.896 219.857 158.824H223.481C223.097 160.104 222.361 161.16 221.273 161.992C220.185 162.808 218.849 163.216 217.265 163.216C215.985 163.216 214.833 162.936 213.809 162.376C212.801 161.8 212.009 160.992 211.433 159.952C210.873 158.912 210.593 157.712 210.593 156.352C210.593 154.976 210.873 153.768 211.433 152.728C211.993 151.688 212.777 150.888 213.785 150.328C214.793 149.768 215.953 149.488 217.265 149.488C218.529 149.488 219.657 149.76 220.649 150.304C221.657 150.848 222.433 151.624 222.977 152.632C223.537 153.624 223.817 154.768 223.817 156.064ZM220.337 155.104C220.321 154.24 220.009 153.552 219.401 153.04C218.793 152.512 218.049 152.248 217.169 152.248C216.337 152.248 215.633 152.504 215.057 153.016C214.497 153.512 214.153 154.208 214.025 155.104H220.337ZM72.3251 187.432C72.3251 188.328 72.1091 189.168 71.6771 189.952C71.2611 190.736 70.5971 191.368 69.6851 191.848C68.7891 192.328 67.6531 192.568 66.2771 192.568H63.4691V199H60.1091V182.248H66.2771C67.5731 182.248 68.6771 182.472 69.5891 182.92C70.5011 183.368 71.1811 183.984 71.6291 184.768C72.0931 185.552 72.3251 186.44 72.3251 187.432ZM66.1331 189.856C67.0611 189.856 67.7491 189.648 68.1971 189.232C68.6451 188.8 68.8691 188.2 68.8691 187.432C68.8691 185.8 67.9571 184.984 66.1331 184.984H63.4691V189.856H66.1331ZM78.0707 181.24V199H74.7107V181.24H78.0707ZM80.5264 192.304C80.5264 190.96 80.7904 189.768 81.3184 188.728C81.8624 187.688 82.5904 186.888 83.5024 186.328C84.4304 185.768 85.4624 185.488 86.5984 185.488C87.5904 185.488 88.4544 185.688 89.1904 186.088C89.9424 186.488 90.5424 186.992 90.9904 187.6V185.704H94.3744V199H90.9904V197.056C90.5584 197.68 89.9584 198.2 89.1904 198.616C88.4384 199.016 87.5664 199.216 86.5744 199.216C85.4544 199.216 84.4304 198.928 83.5024 198.352C82.5904 197.776 81.8624 196.968 81.3184 195.928C80.7904 194.872 80.5264 193.664 80.5264 192.304ZM90.9904 192.352C90.9904 191.536 90.8304 190.84 90.5104 190.264C90.1904 189.672 89.7584 189.224 89.2144 188.92C88.6704 188.6 88.0864 188.44 87.4624 188.44C86.8384 188.44 86.2624 188.592 85.7344 188.896C85.2064 189.2 84.7744 189.648 84.4384 190.24C84.1184 190.816 83.9584 191.504 83.9584 192.304C83.9584 193.104 84.1184 193.808 84.4384 194.416C84.7744 195.008 85.2064 195.464 85.7344 195.784C86.2784 196.104 86.8544 196.264 87.4624 196.264C88.0864 196.264 88.6704 196.112 89.2144 195.808C89.7584 195.488 90.1904 195.04 90.5104 194.464C90.8304 193.872 90.9904 193.168 90.9904 192.352ZM105.024 185.512C106.608 185.512 107.888 186.016 108.864 187.024C109.84 188.016 110.328 189.408 110.328 191.2V199H106.968V191.656C106.968 190.6 106.704 189.792 106.176 189.232C105.648 188.656 104.928 188.368 104.016 188.368C103.088 188.368 102.352 188.656 101.808 189.232C101.28 189.792 101.016 190.6 101.016 191.656V199H97.656V185.704H101.016V187.36C101.464 186.784 102.032 186.336 102.72 186.016C103.424 185.68 104.192 185.512 105.024 185.512ZM120.891 185.512C122.475 185.512 123.755 186.016 124.731 187.024C125.707 188.016 126.195 189.408 126.195 191.2V199H122.835V191.656C122.835 190.6 122.571 189.792 122.043 189.232C121.515 188.656 120.795 188.368 119.883 188.368C118.955 188.368 118.219 188.656 117.675 189.232C117.147 189.792 116.883 190.6 116.883 191.656V199H113.523V185.704H116.883V187.36C117.331 186.784 117.899 186.336 118.587 186.016C119.291 185.68 120.059 185.512 120.891 185.512ZM131.094 184.12C130.502 184.12 130.006 183.936 129.606 183.568C129.222 183.184 129.03 182.712 129.03 182.152C129.03 181.592 129.222 181.128 129.606 180.76C130.006 180.376 130.502 180.184 131.094 180.184C131.686 180.184 132.174 180.376 132.558 180.76C132.958 181.128 133.158 181.592 133.158 182.152C133.158 182.712 132.958 183.184 132.558 183.568C132.174 183.936 131.686 184.12 131.094 184.12ZM132.75 185.704V199H129.39V185.704H132.75ZM143.438 185.512C145.022 185.512 146.302 186.016 147.278 187.024C148.254 188.016 148.742 189.408 148.742 191.2V199H145.382V191.656C145.382 190.6 145.118 189.792 144.59 189.232C144.062 188.656 143.342 188.368 142.43 188.368C141.502 188.368 140.766 188.656 140.222 189.232C139.694 189.792 139.43 190.6 139.43 191.656V199H136.07V185.704H139.43V187.36C139.878 186.784 140.446 186.336 141.134 186.016C141.838 185.68 142.606 185.512 143.438 185.512ZM157.145 185.488C158.137 185.488 159.009 185.688 159.761 186.088C160.513 186.472 161.105 186.976 161.537 187.6V185.704H164.921V199.096C164.921 200.328 164.673 201.424 164.177 202.384C163.681 203.36 162.937 204.128 161.945 204.688C160.953 205.264 159.753 205.552 158.345 205.552C156.457 205.552 154.905 205.112 153.689 204.232C152.489 203.352 151.809 202.152 151.649 200.632H154.985C155.161 201.24 155.537 201.72 156.113 202.072C156.705 202.44 157.417 202.624 158.249 202.624C159.225 202.624 160.017 202.328 160.625 201.736C161.233 201.16 161.537 200.28 161.537 199.096V197.032C161.105 197.656 160.505 198.176 159.737 198.592C158.985 199.008 158.121 199.216 157.145 199.216C156.025 199.216 155.001 198.928 154.073 198.352C153.145 197.776 152.409 196.968 151.865 195.928C151.337 194.872 151.073 193.664 151.073 192.304C151.073 190.96 151.337 189.768 151.865 188.728C152.409 187.688 153.137 186.888 154.049 186.328C154.977 185.768 156.009 185.488 157.145 185.488ZM161.537 192.352C161.537 191.536 161.377 190.84 161.057 190.264C160.737 189.672 160.305 189.224 159.761 188.92C159.217 188.6 158.633 188.44 158.009 188.44C157.385 188.44 156.809 188.592 156.281 188.896C155.753 189.2 155.321 189.648 154.985 190.24C154.665 190.816 154.505 191.504 154.505 192.304C154.505 193.104 154.665 193.808 154.985 194.416C155.321 195.008 155.753 195.464 156.281 195.784C156.825 196.104 157.401 196.264 158.009 196.264C158.633 196.264 159.217 196.112 159.761 195.808C160.305 195.488 160.737 195.04 161.057 194.464C161.377 193.872 161.537 193.168 161.537 192.352Z" fill="white" fill-opacity="0.5"/>
<path d="M150.889 76.302C150.265 75.945 149.575 75.7134 148.86 75.6206C148.145 75.5278 147.418 75.5756 146.721 75.7613C146.025 75.9471 145.372 76.267 144.802 76.7027C144.231 77.1384 143.753 77.6812 143.396 78.3C140.041 84.0367 135.219 88.8023 129.411 92.1193C123.604 95.4364 117.015 97.1885 110.306 97.2H79.7321L83.2325 93.798C84.2512 92.7862 84.823 91.4176 84.823 89.991C84.823 88.5644 84.2512 87.1958 83.2325 86.184C78.1429 81.1873 74.5783 74.8786 72.9457 67.9779C71.3131 61.0771 71.6781 53.8622 73.9991 47.1564C76.3201 40.4507 80.5036 34.5241 86.0723 30.053C91.641 25.5819 98.3705 22.7464 105.493 21.87C106.211 21.7849 106.905 21.561 107.536 21.211C108.167 20.861 108.721 20.3918 109.168 19.8302C109.615 19.2686 109.946 18.6255 110.141 17.9378C110.336 17.2501 110.392 16.5311 110.306 15.822C110.22 15.1129 109.993 14.4274 109.639 13.8048C109.284 13.1822 108.809 12.6347 108.24 12.1934C107.671 11.7522 107.02 11.4258 106.323 11.2331C105.627 11.0403 104.899 10.9849 104.18 11.07C95.4795 12.1329 87.224 15.4708 80.2673 20.7386C73.3107 26.0065 67.9052 33.0132 64.6098 41.0344C61.3144 49.0555 60.2485 57.8001 61.5225 66.3642C62.7964 74.9283 66.3639 83.0011 71.8562 89.748L62.6676 98.766C61.9087 99.5254 61.3946 100.49 61.1901 101.537C60.9857 102.585 61.1002 103.669 61.519 104.652C61.9293 105.638 62.6261 106.482 63.5216 107.078C64.417 107.674 65.4711 107.995 66.5509 108H110.306C118.943 107.996 127.427 105.748 134.905 101.483C142.384 97.2178 148.594 91.0848 152.913 83.7C153.274 83.0837 153.509 82.4028 153.603 81.6966C153.697 80.9904 153.648 80.2728 153.46 79.5852C153.272 78.8975 152.948 78.2534 152.507 77.69C152.066 77.1265 151.516 76.6548 150.889 76.302ZM154.061 22.572V16.2C154.061 11.9035 152.332 7.78296 149.255 4.74487C146.178 1.70678 142.005 0 137.653 0C133.301 0 129.128 1.70678 126.051 4.74487C122.974 7.78296 121.245 11.9035 121.245 16.2V22.572C118.053 23.6861 115.289 25.7476 113.33 28.4738C111.372 31.2001 110.316 34.4577 110.306 37.8V48.6C110.306 52.8965 112.035 57.017 115.112 60.0551C118.189 63.0932 122.362 64.8 126.714 64.8H148.592C152.944 64.8 157.117 63.0932 160.194 60.0551C163.271 57.017 165 52.8965 165 48.6V37.8C164.99 34.4577 163.934 31.2001 161.976 28.4738C160.017 25.7476 157.253 23.6861 154.061 22.572ZM132.184 16.2C132.184 14.7678 132.76 13.3943 133.786 12.3816C134.811 11.3689 136.202 10.8 137.653 10.8C139.104 10.8 140.495 11.3689 141.52 12.3816C142.546 13.3943 143.122 14.7678 143.122 16.2V21.6H132.184V16.2ZM154.061 48.6C154.061 50.0322 153.485 51.4057 152.459 52.4184C151.434 53.4311 150.042 54 148.592 54H126.714C125.264 54 123.872 53.4311 122.847 52.4184C121.821 51.4057 121.245 50.0322 121.245 48.6V37.8C121.245 36.3678 121.821 34.9943 122.847 33.9816C123.872 32.9689 125.264 32.4 126.714 32.4H148.592C150.042 32.4 151.434 32.9689 152.459 33.9816C153.485 34.9943 154.061 36.3678 154.061 37.8V48.6Z" fill="white" fill-opacity="0.5"/>
</svg>
