<svg width="110" height="189" viewBox="0 0 130 209" fill="none" xmlns="http://www.w3.org/2000/svg">
<path d="M22.4595 163.168C21.2915 163.168 20.2355 162.968 19.2915 162.568C18.3635 162.168 17.6275 161.592 17.0835 160.84C16.5395 160.088 16.2595 159.2 16.2435 158.176H19.8435C19.8915 158.864 20.1315 159.408 20.5635 159.808C21.0115 160.208 21.6195 160.408 22.3875 160.408C23.1715 160.408 23.7875 160.224 24.2355 159.856C24.6835 159.472 24.9075 158.976 24.9075 158.368C24.9075 157.872 24.7555 157.464 24.4515 157.144C24.1475 156.824 23.7635 156.576 23.2995 156.4C22.8515 156.208 22.2275 156 21.4275 155.776C20.3395 155.456 19.4515 155.144 18.7635 154.84C18.0915 154.52 17.5075 154.048 17.0115 153.424C16.5315 152.784 16.2915 151.936 16.2915 150.88C16.2915 149.888 16.5395 149.024 17.0355 148.288C17.5315 147.552 18.2275 146.992 19.1235 146.608C20.0195 146.208 21.0435 146.008 22.1955 146.008C23.9235 146.008 25.3235 146.432 26.3955 147.28C27.4835 148.112 28.0835 149.28 28.1955 150.784H24.4995C24.4675 150.208 24.2195 149.736 23.7555 149.368C23.3075 148.984 22.7075 148.792 21.9555 148.792C21.2995 148.792 20.7715 148.96 20.3715 149.296C19.9875 149.632 19.7955 150.12 19.7955 150.76C19.7955 151.208 19.9395 151.584 20.2275 151.888C20.5315 152.176 20.8995 152.416 21.3315 152.608C21.7795 152.784 22.4035 152.992 23.2035 153.232C24.2915 153.552 25.1795 153.872 25.8675 154.192C26.5555 154.512 27.1475 154.992 27.6435 155.632C28.1395 156.272 28.3875 157.112 28.3875 158.152C28.3875 159.048 28.1555 159.88 27.6915 160.648C27.2275 161.416 26.5475 162.032 25.6515 162.496C24.7555 162.944 23.6915 163.168 22.4595 163.168ZM43.6605 156.064C43.6605 156.544 43.6285 156.976 43.5645 157.36H33.8445C33.9245 158.32 34.2605 159.072 34.8525 159.616C35.4445 160.16 36.1725 160.432 37.0365 160.432C38.2845 160.432 39.1725 159.896 39.7005 158.824H43.3245C42.9405 160.104 42.2045 161.16 41.1165 161.992C40.0285 162.808 38.6925 163.216 37.1085 163.216C35.8285 163.216 34.6765 162.936 33.6525 162.376C32.6445 161.8 31.8525 160.992 31.2765 159.952C30.7165 158.912 30.4365 157.712 30.4365 156.352C30.4365 154.976 30.7165 153.768 31.2765 152.728C31.8365 151.688 32.6205 150.888 33.6285 150.328C34.6365 149.768 35.7965 149.488 37.1085 149.488C38.3725 149.488 39.5005 149.76 40.4925 150.304C41.5005 150.848 42.2765 151.624 42.8205 152.632C43.3805 153.624 43.6605 154.768 43.6605 156.064ZM40.1805 155.104C40.1645 154.24 39.8525 153.552 39.2445 153.04C38.6365 152.512 37.8925 152.248 37.0125 152.248C36.1805 152.248 35.4765 152.504 34.9005 153.016C34.3405 153.512 33.9965 154.208 33.8685 155.104H40.1805ZM45.249 156.352C45.249 154.976 45.529 153.776 46.089 152.752C46.649 151.712 47.425 150.912 48.417 150.352C49.409 149.776 50.545 149.488 51.825 149.488C53.473 149.488 54.833 149.904 55.905 150.736C56.993 151.552 57.721 152.704 58.089 154.192H54.465C54.273 153.616 53.945 153.168 53.481 152.848C53.033 152.512 52.473 152.344 51.801 152.344C50.841 152.344 50.081 152.696 49.521 153.4C48.961 154.088 48.681 155.072 48.681 156.352C48.681 157.616 48.961 158.6 49.521 159.304C50.081 159.992 50.841 160.336 51.801 160.336C53.161 160.336 54.049 159.728 54.465 158.512H58.089C57.721 159.952 56.993 161.096 55.905 161.944C54.817 162.792 53.457 163.216 51.825 163.216C50.545 163.216 49.409 162.936 48.417 162.376C47.425 161.8 46.649 161 46.089 159.976C45.529 158.936 45.249 157.728 45.249 156.352ZM73.1025 149.704V163H69.7185V161.32C69.2865 161.896 68.7185 162.352 68.0145 162.688C67.3265 163.008 66.5745 163.168 65.7585 163.168C64.7185 163.168 63.7985 162.952 62.9985 162.52C62.1985 162.072 61.5665 161.424 61.1025 160.576C60.6545 159.712 60.4305 158.688 60.4305 157.504V149.704H63.7905V157.024C63.7905 158.08 64.0545 158.896 64.5825 159.472C65.1105 160.032 65.8305 160.312 66.7425 160.312C67.6705 160.312 68.3985 160.032 68.9265 159.472C69.4545 158.896 69.7185 158.08 69.7185 157.024V149.704H73.1025ZM79.7777 151.768C80.2097 151.064 80.7697 150.512 81.4577 150.112C82.1617 149.712 82.9617 149.512 83.8577 149.512V153.04H82.9697C81.9137 153.04 81.1137 153.288 80.5697 153.784C80.0417 154.28 79.7777 155.144 79.7777 156.376V163H76.4177V149.704H79.7777V151.768ZM87.8248 148.12C87.2328 148.12 86.7368 147.936 86.3368 147.568C85.9528 147.184 85.7608 146.712 85.7608 146.152C85.7608 145.592 85.9528 145.128 86.3368 144.76C86.7368 144.376 87.2328 144.184 87.8248 144.184C88.4168 144.184 88.9048 144.376 89.2888 144.76C89.6888 145.128 89.8888 145.592 89.8888 146.152C89.8888 146.712 89.6888 147.184 89.2888 147.568C88.9048 147.936 88.4168 148.12 87.8248 148.12ZM89.4808 149.704V163H86.1208V149.704H89.4808ZM96.7125 152.464V158.896C96.7125 159.344 96.8165 159.672 97.0245 159.88C97.2485 160.072 97.6165 160.168 98.1285 160.168H99.6885V163H97.5765C94.7445 163 93.3285 161.624 93.3285 158.872V152.464H91.7445V149.704H93.3285V146.416H96.7125V149.704H99.6885V152.464H96.7125ZM114.825 149.704L106.593 169.288H103.017L105.897 162.664L100.569 149.704H104.337L107.769 158.992L111.249 149.704H114.825ZM33.1263 182.248V184.96H28.6623V199H25.3023V184.96H20.8383V182.248H33.1263ZM47.9379 192.064C47.9379 192.544 47.9059 192.976 47.8419 193.36H38.1219C38.2019 194.32 38.5379 195.072 39.1299 195.616C39.7219 196.16 40.4499 196.432 41.3139 196.432C42.5619 196.432 43.4499 195.896 43.9779 194.824H47.6019C47.2179 196.104 46.4819 197.16 45.3939 197.992C44.3059 198.808 42.9699 199.216 41.3859 199.216C40.1059 199.216 38.9539 198.936 37.9299 198.376C36.9219 197.8 36.1299 196.992 35.5539 195.952C34.9939 194.912 34.7139 193.712 34.7139 192.352C34.7139 190.976 34.9939 189.768 35.5539 188.728C36.1139 187.688 36.8979 186.888 37.9059 186.328C38.9139 185.768 40.0739 185.488 41.3859 185.488C42.6499 185.488 43.7779 185.76 44.7699 186.304C45.7779 186.848 46.5539 187.624 47.0979 188.632C47.6579 189.624 47.9379 190.768 47.9379 192.064ZM44.4579 191.104C44.4419 190.24 44.1299 189.552 43.5219 189.04C42.9139 188.512 42.1699 188.248 41.2899 188.248C40.4579 188.248 39.7539 188.504 39.1779 189.016C38.6179 189.512 38.2739 190.208 38.1459 191.104H44.4579ZM55.4784 199.216C54.3904 199.216 53.4144 199.024 52.5504 198.64C51.6864 198.24 50.9984 197.704 50.4864 197.032C49.9904 196.36 49.7184 195.616 49.6704 194.8H53.0544C53.1184 195.312 53.3664 195.736 53.7984 196.072C54.2464 196.408 54.7984 196.576 55.4544 196.576C56.0944 196.576 56.5904 196.448 56.9424 196.192C57.3104 195.936 57.4944 195.608 57.4944 195.208C57.4944 194.776 57.2704 194.456 56.8224 194.248C56.3904 194.024 55.6944 193.784 54.7344 193.528C53.7424 193.288 52.9264 193.04 52.2864 192.784C51.6624 192.528 51.1184 192.136 50.6544 191.608C50.2064 191.08 49.9824 190.368 49.9824 189.472C49.9824 188.736 50.1904 188.064 50.6064 187.456C51.0384 186.848 51.6464 186.368 52.4304 186.016C53.2304 185.664 54.1664 185.488 55.2384 185.488C56.8224 185.488 58.0864 185.888 59.0304 186.688C59.9744 187.472 60.4944 188.536 60.5904 189.88H57.3744C57.3264 189.352 57.1024 188.936 56.7024 188.632C56.3184 188.312 55.7984 188.152 55.1424 188.152C54.5344 188.152 54.0624 188.264 53.7264 188.488C53.4064 188.712 53.2464 189.024 53.2464 189.424C53.2464 189.872 53.4704 190.216 53.9184 190.456C54.3664 190.68 55.0624 190.912 56.0064 191.152C56.9664 191.392 57.7584 191.64 58.3824 191.896C59.0064 192.152 59.5424 192.552 59.9904 193.096C60.4544 193.624 60.6944 194.328 60.7104 195.208C60.7104 195.976 60.4944 196.664 60.0624 197.272C59.6464 197.88 59.0384 198.36 58.2384 198.712C57.4544 199.048 56.5344 199.216 55.4784 199.216ZM67.3805 188.464V194.896C67.3805 195.344 67.4845 195.672 67.6925 195.88C67.9165 196.072 68.2845 196.168 68.7965 196.168H70.3565V199H68.2445C65.4125 199 63.9965 197.624 63.9965 194.872V188.464H62.4125V185.704H63.9965V182.416H67.3805V185.704H70.3565V188.464H67.3805ZM74.4772 184.12C73.8852 184.12 73.3892 183.936 72.9892 183.568C72.6052 183.184 72.4132 182.712 72.4132 182.152C72.4132 181.592 72.6052 181.128 72.9892 180.76C73.3892 180.376 73.8852 180.184 74.4772 180.184C75.0692 180.184 75.5572 180.376 75.9412 180.76C76.3412 181.128 76.5412 181.592 76.5412 182.152C76.5412 182.712 76.3412 183.184 75.9412 183.568C75.5572 183.936 75.0692 184.12 74.4772 184.12ZM76.1332 185.704V199H72.7732V185.704H76.1332ZM86.8209 185.512C88.4049 185.512 89.6849 186.016 90.6609 187.024C91.6369 188.016 92.1249 189.408 92.1249 191.2V199H88.7649V191.656C88.7649 190.6 88.5009 189.792 87.9729 189.232C87.4449 188.656 86.7249 188.368 85.8129 188.368C84.8849 188.368 84.1489 188.656 83.6049 189.232C83.0769 189.792 82.8129 190.6 82.8129 191.656V199H79.4529V185.704H82.8129V187.36C83.2609 186.784 83.8289 186.336 84.5169 186.016C85.2209 185.68 85.9889 185.512 86.8209 185.512ZM100.528 185.488C101.52 185.488 102.392 185.688 103.144 186.088C103.896 186.472 104.488 186.976 104.92 187.6V185.704H108.304V199.096C108.304 200.328 108.056 201.424 107.56 202.384C107.064 203.36 106.32 204.128 105.328 204.688C104.336 205.264 103.136 205.552 101.728 205.552C99.8401 205.552 98.2881 205.112 97.0721 204.232C95.8721 203.352 95.1921 202.152 95.0321 200.632H98.3681C98.5441 201.24 98.9201 201.72 99.4961 202.072C100.088 202.44 100.8 202.624 101.632 202.624C102.608 202.624 103.4 202.328 104.008 201.736C104.616 201.16 104.92 200.28 104.92 199.096V197.032C104.488 197.656 103.888 198.176 103.12 198.592C102.368 199.008 101.504 199.216 100.528 199.216C99.4081 199.216 98.3841 198.928 97.4561 198.352C96.5281 197.776 95.7921 196.968 95.2481 195.928C94.7201 194.872 94.4561 193.664 94.4561 192.304C94.4561 190.96 94.7201 189.768 95.2481 188.728C95.7921 187.688 96.5201 186.888 97.4321 186.328C98.3601 185.768 99.3921 185.488 100.528 185.488ZM104.92 192.352C104.92 191.536 104.76 190.84 104.44 190.264C104.12 189.672 103.688 189.224 103.144 188.92C102.6 188.6 102.016 188.44 101.392 188.44C100.768 188.44 100.192 188.592 99.6641 188.896C99.1361 189.2 98.7041 189.648 98.3681 190.24C98.0481 190.816 97.8881 191.504 97.8881 192.304C97.8881 193.104 98.0481 193.808 98.3681 194.416C98.7041 195.008 99.1361 195.464 99.6641 195.784C100.208 196.104 100.784 196.264 101.392 196.264C102.016 196.264 102.6 196.112 103.144 195.808C103.688 195.488 104.12 195.04 104.44 194.464C104.76 193.872 104.92 193.168 104.92 192.352Z" />
<path d="M64.954 123.282C59.0542 123.282 53.2086 121.55 48.6078 118.14L25.3334 100.765C19.163 96.1644 14.3457 86.5299 14.3457 78.898V38.6279C14.3457 30.2924 20.462 21.4157 28.3104 18.4928L55.3195 8.37115C60.678 6.36847 69.1218 6.36847 74.4803 8.37115L101.489 18.4928C109.338 21.4157 115.454 30.2924 115.454 38.6279V78.8439C115.454 86.5299 110.637 96.1103 104.466 100.711L81.192 118.086C76.6995 121.55 70.8538 123.282 64.954 123.282ZM58.1882 16.003L31.1791 26.1247C26.5783 27.8567 22.5188 33.7024 22.5188 38.682V78.898C22.5188 84.0401 26.1453 91.2389 30.2048 94.27L53.4792 111.645C59.7038 116.299 70.2043 116.299 76.483 111.645L99.7574 94.27C103.871 91.1848 107.443 84.0401 107.443 78.898V38.6279C107.443 33.7024 103.384 27.8567 98.7831 26.0705L71.774 15.9489C68.0934 14.6498 61.8147 14.6498 58.1882 16.003Z" />
<path d="M57.7017 77.1103C56.6733 77.1103 55.6449 76.7315 54.833 75.9196L46.1187 67.2052C44.549 65.6355 44.549 63.0374 46.1187 61.4678C47.6883 59.8981 50.2864 59.8981 51.8561 61.4678L57.7017 67.3134L78.1074 46.9077C79.6771 45.3381 82.2752 45.3381 83.8449 46.9077C85.4145 48.4774 85.4145 51.0755 83.8449 52.6451L60.5704 75.9196C59.7585 76.7315 58.7301 77.1103 57.7017 77.1103Z" />
</svg>
