<svg width="163" height="175" viewBox="0 0 243 255" fill="none" xmlns="http://www.w3.org/2000/svg">
<path d="M187.654 61.2C187.654 61.2 187.654 61.2 187.654 60.8458C182.664 47.2191 173.608 35.4541 161.712 27.1424C149.816 18.8306 135.654 14.3733 121.142 14.3733C106.63 14.3733 92.4682 18.8306 80.5723 27.1424C68.6763 35.4541 59.6204 47.2191 54.6295 60.8458C54.6295 60.8458 54.6295 60.8458 54.6295 61.2C49.0558 76.5772 49.0558 93.4228 54.6295 108.8C54.6295 108.8 54.6295 108.8 54.6295 109.154C59.6204 122.781 68.6763 134.546 80.5723 142.858C92.4682 151.169 106.63 155.627 121.142 155.627C135.654 155.627 149.816 151.169 161.712 142.858C173.608 134.546 182.664 122.781 187.654 109.154C187.654 109.154 187.654 109.154 187.654 108.8C193.228 93.4228 193.228 76.5772 187.654 61.2V61.2ZM66.1753 99.1667C63.719 89.8819 63.719 80.1181 66.1753 70.8333H79.3503C78.2172 80.2438 78.2172 89.7562 79.3503 99.1667H66.1753ZM71.9837 113.333H81.9003C83.5629 119.651 85.9393 125.758 88.9837 131.537C82.037 126.805 76.2301 120.587 71.9837 113.333ZM81.9003 56.6667H71.9837C76.169 49.4352 81.9017 43.2187 88.7712 38.4625C85.8001 44.2513 83.4951 50.3584 81.9003 56.6667V56.6667ZM113.917 139.542C105.217 133.157 99.1068 123.854 96.7045 113.333H113.917V139.542ZM113.917 99.1667H93.6587C92.3368 89.7685 92.3368 80.2315 93.6587 70.8333H113.917V99.1667ZM113.917 56.6667H96.7045C99.1068 46.1463 105.217 36.8427 113.917 30.4583V56.6667ZM170.017 56.6667H160.1C158.438 50.3494 156.061 44.2421 153.017 38.4625C159.964 43.1947 165.771 49.4129 170.017 56.6667ZM128.084 30.4583C136.784 36.8427 142.894 46.1463 145.296 56.6667H128.084V30.4583ZM128.084 139.542V113.333H145.296C142.894 123.854 136.784 133.157 128.084 139.542V139.542ZM148.342 99.1667H128.084V70.8333H148.342C149.664 80.2315 149.664 89.7685 148.342 99.1667ZM153.229 131.537C156.274 125.758 158.65 119.651 160.313 113.333H170.229C165.983 120.587 160.176 126.805 153.229 131.537ZM175.825 99.1667H162.65C163.226 94.4666 163.51 89.7353 163.5 85C163.508 80.2648 163.224 75.5336 162.65 70.8333H175.825C178.282 80.1181 178.282 89.8819 175.825 99.1667Z" fill="#464646"/>
<path d="M12.1392 209.168C10.9712 209.168 9.91522 208.968 8.97122 208.568C8.04322 208.168 7.30722 207.592 6.76322 206.84C6.21922 206.088 5.93922 205.2 5.92322 204.176H9.52322C9.57122 204.864 9.81122 205.408 10.2432 205.808C10.6912 206.208 11.2992 206.408 12.0672 206.408C12.8512 206.408 13.4672 206.224 13.9152 205.856C14.3632 205.472 14.5872 204.976 14.5872 204.368C14.5872 203.872 14.4352 203.464 14.1312 203.144C13.8272 202.824 13.4432 202.576 12.9792 202.4C12.5312 202.208 11.9072 202 11.1072 201.776C10.0192 201.456 9.13122 201.144 8.44322 200.84C7.77122 200.52 7.18722 200.048 6.69122 199.424C6.21122 198.784 5.97122 197.936 5.97122 196.88C5.97122 195.888 6.21922 195.024 6.71522 194.288C7.21122 193.552 7.90722 192.992 8.80322 192.608C9.69922 192.208 10.7232 192.008 11.8752 192.008C13.6032 192.008 15.0032 192.432 16.0752 193.28C17.1632 194.112 17.7632 195.28 17.8752 196.784H14.1792C14.1472 196.208 13.8992 195.736 13.4352 195.368C12.9872 194.984 12.3872 194.792 11.6352 194.792C10.9792 194.792 10.4512 194.96 10.0512 195.296C9.66722 195.632 9.47522 196.12 9.47522 196.76C9.47522 197.208 9.61922 197.584 9.90722 197.888C10.2112 198.176 10.5792 198.416 11.0112 198.608C11.4592 198.784 12.0832 198.992 12.8832 199.232C13.9712 199.552 14.8592 199.872 15.5472 200.192C16.2352 200.512 16.8272 200.992 17.3232 201.632C17.8192 202.272 18.0672 203.112 18.0672 204.152C18.0672 205.048 17.8352 205.88 17.3712 206.648C16.9072 207.416 16.2272 208.032 15.3312 208.496C14.4352 208.944 13.3712 209.168 12.1392 209.168ZM33.5322 195.704V209H30.1482V207.32C29.7162 207.896 29.1482 208.352 28.4442 208.688C27.7562 209.008 27.0042 209.168 26.1882 209.168C25.1482 209.168 24.2282 208.952 23.4282 208.52C22.6282 208.072 21.9962 207.424 21.5322 206.576C21.0842 205.712 20.8602 204.688 20.8602 203.504V195.704H24.2202V203.024C24.2202 204.08 24.4842 204.896 25.0122 205.472C25.5402 206.032 26.2602 206.312 27.1722 206.312C28.1002 206.312 28.8282 206.032 29.3562 205.472C29.8842 204.896 30.1482 204.08 30.1482 203.024V195.704H33.5322ZM40.2074 197.624C40.6394 197.016 41.2314 196.512 41.9834 196.112C42.7514 195.696 43.6234 195.488 44.5994 195.488C45.7354 195.488 46.7594 195.768 47.6714 196.328C48.5994 196.888 49.3274 197.688 49.8554 198.728C50.3994 199.752 50.6714 200.944 50.6714 202.304C50.6714 203.664 50.3994 204.872 49.8554 205.928C49.3274 206.968 48.5994 207.776 47.6714 208.352C46.7594 208.928 45.7354 209.216 44.5994 209.216C43.6234 209.216 42.7594 209.016 42.0074 208.616C41.2714 208.216 40.6714 207.712 40.2074 207.104V215.336H36.8474V195.704H40.2074V197.624ZM47.2394 202.304C47.2394 201.504 47.0714 200.816 46.7354 200.24C46.4154 199.648 45.9834 199.2 45.4394 198.896C44.9114 198.592 44.3354 198.44 43.7114 198.44C43.1034 198.44 42.5274 198.6 41.9834 198.92C41.4554 199.224 41.0234 199.672 40.6874 200.264C40.3674 200.856 40.2074 201.552 40.2074 202.352C40.2074 203.152 40.3674 203.848 40.6874 204.44C41.0234 205.032 41.4554 205.488 41.9834 205.808C42.5274 206.112 43.1034 206.264 43.7114 206.264C44.3354 206.264 44.9114 206.104 45.4394 205.784C45.9834 205.464 46.4154 205.008 46.7354 204.416C47.0714 203.824 47.2394 203.12 47.2394 202.304ZM56.473 197.624C56.905 197.016 57.497 196.512 58.249 196.112C59.017 195.696 59.889 195.488 60.865 195.488C62.001 195.488 63.025 195.768 63.937 196.328C64.865 196.888 65.593 197.688 66.121 198.728C66.665 199.752 66.937 200.944 66.937 202.304C66.937 203.664 66.665 204.872 66.121 205.928C65.593 206.968 64.865 207.776 63.937 208.352C63.025 208.928 62.001 209.216 60.865 209.216C59.889 209.216 59.025 209.016 58.273 208.616C57.537 208.216 56.937 207.712 56.473 207.104V215.336H53.113V195.704H56.473V197.624ZM63.505 202.304C63.505 201.504 63.337 200.816 63.001 200.24C62.681 199.648 62.249 199.2 61.705 198.896C61.177 198.592 60.601 198.44 59.977 198.44C59.369 198.44 58.793 198.6 58.249 198.92C57.721 199.224 57.289 199.672 56.953 200.264C56.633 200.856 56.473 201.552 56.473 202.352C56.473 203.152 56.633 203.848 56.953 204.44C57.289 205.032 57.721 205.488 58.249 205.808C58.793 206.112 59.369 206.264 59.977 206.264C60.601 206.264 61.177 206.104 61.705 205.784C62.249 205.464 62.681 205.008 63.001 204.416C63.337 203.824 63.505 203.12 63.505 202.304ZM75.2827 209.216C74.0027 209.216 72.8507 208.936 71.8267 208.376C70.8027 207.8 69.9947 206.992 69.4027 205.952C68.8267 204.912 68.5387 203.712 68.5387 202.352C68.5387 200.992 68.8347 199.792 69.4267 198.752C70.0347 197.712 70.8587 196.912 71.8987 196.352C72.9387 195.776 74.0987 195.488 75.3787 195.488C76.6587 195.488 77.8187 195.776 78.8587 196.352C79.8987 196.912 80.7147 197.712 81.3067 198.752C81.9147 199.792 82.2187 200.992 82.2187 202.352C82.2187 203.712 81.9067 204.912 81.2827 205.952C80.6747 206.992 79.8427 207.8 78.7867 208.376C77.7467 208.936 76.5787 209.216 75.2827 209.216ZM75.2827 206.288C75.8907 206.288 76.4587 206.144 76.9867 205.856C77.5307 205.552 77.9627 205.104 78.2827 204.512C78.6027 203.92 78.7627 203.2 78.7627 202.352C78.7627 201.088 78.4267 200.12 77.7547 199.448C77.0987 198.76 76.2907 198.416 75.3307 198.416C74.3707 198.416 73.5627 198.76 72.9067 199.448C72.2667 200.12 71.9467 201.088 71.9467 202.352C71.9467 203.616 72.2587 204.592 72.8827 205.28C73.5227 205.952 74.3227 206.288 75.2827 206.288ZM88.0433 197.768C88.4753 197.064 89.0353 196.512 89.7233 196.112C90.4273 195.712 91.2273 195.512 92.1233 195.512V199.04H91.2353C90.1793 199.04 89.3793 199.288 88.8353 199.784C88.3073 200.28 88.0433 201.144 88.0433 202.376V209H84.6833V195.704H88.0433V197.768ZM98.2985 198.464V204.896C98.2985 205.344 98.4025 205.672 98.6105 205.88C98.8345 206.072 99.2025 206.168 99.7145 206.168H101.274V209H99.1625C96.3305 209 94.9145 207.624 94.9145 204.872V198.464H93.3305V195.704H94.9145V192.416H98.2985V195.704H101.274V198.464H98.2985ZM131.802 192.248L127.122 209H123.162L120.018 197.072L116.73 209L112.794 209.024L108.282 192.248H111.882L114.834 205.256L118.242 192.248H121.986L125.202 205.184L128.178 192.248H131.802ZM139.9 209.216C138.62 209.216 137.468 208.936 136.444 208.376C135.42 207.8 134.612 206.992 134.02 205.952C133.444 204.912 133.156 203.712 133.156 202.352C133.156 200.992 133.452 199.792 134.044 198.752C134.652 197.712 135.476 196.912 136.516 196.352C137.556 195.776 138.716 195.488 139.996 195.488C141.276 195.488 142.436 195.776 143.476 196.352C144.516 196.912 145.332 197.712 145.924 198.752C146.532 199.792 146.836 200.992 146.836 202.352C146.836 203.712 146.524 204.912 145.9 205.952C145.292 206.992 144.46 207.8 143.404 208.376C142.364 208.936 141.196 209.216 139.9 209.216ZM139.9 206.288C140.508 206.288 141.076 206.144 141.604 205.856C142.148 205.552 142.58 205.104 142.9 204.512C143.22 203.92 143.38 203.2 143.38 202.352C143.38 201.088 143.044 200.12 142.372 199.448C141.716 198.76 140.908 198.416 139.948 198.416C138.988 198.416 138.18 198.76 137.524 199.448C136.884 200.12 136.564 201.088 136.564 202.352C136.564 203.616 136.876 204.592 137.5 205.28C138.14 205.952 138.94 206.288 139.9 206.288ZM152.661 197.768C153.093 197.064 153.653 196.512 154.341 196.112C155.045 195.712 155.845 195.512 156.741 195.512V199.04H155.853C154.797 199.04 153.997 199.288 153.453 199.784C152.925 200.28 152.661 201.144 152.661 202.376V209H149.301V195.704H152.661V197.768ZM162.364 191.24V209H159.004V191.24H162.364ZM164.819 202.304C164.819 200.96 165.083 199.768 165.611 198.728C166.155 197.688 166.891 196.888 167.819 196.328C168.747 195.768 169.779 195.488 170.915 195.488C171.779 195.488 172.603 195.68 173.387 196.064C174.171 196.432 174.795 196.928 175.259 197.552V191.24H178.667V209H175.259V207.032C174.843 207.688 174.259 208.216 173.507 208.616C172.755 209.016 171.883 209.216 170.891 209.216C169.771 209.216 168.747 208.928 167.819 208.352C166.891 207.776 166.155 206.968 165.611 205.928C165.083 204.872 164.819 203.664 164.819 202.304ZM175.283 202.352C175.283 201.536 175.123 200.84 174.803 200.264C174.483 199.672 174.051 199.224 173.507 198.92C172.963 198.6 172.379 198.44 171.755 198.44C171.131 198.44 170.555 198.592 170.027 198.896C169.499 199.2 169.067 199.648 168.731 200.24C168.411 200.816 168.251 201.504 168.251 202.304C168.251 203.104 168.411 203.808 168.731 204.416C169.067 205.008 169.499 205.464 170.027 205.784C170.571 206.104 171.147 206.264 171.755 206.264C172.379 206.264 172.963 206.112 173.507 205.808C174.051 205.488 174.483 205.04 174.803 204.464C175.123 203.872 175.283 203.168 175.283 202.352ZM200.381 195.704L196.493 209H192.869L190.445 199.712L188.021 209H184.373L180.461 195.704H183.869L186.221 205.832L188.765 195.704H192.317L194.813 205.808L197.165 195.704H200.381ZM203.903 194.12C203.311 194.12 202.815 193.936 202.415 193.568C202.031 193.184 201.839 192.712 201.839 192.152C201.839 191.592 202.031 191.128 202.415 190.76C202.815 190.376 203.311 190.184 203.903 190.184C204.495 190.184 204.983 190.376 205.367 190.76C205.767 191.128 205.967 191.592 205.967 192.152C205.967 192.712 205.767 193.184 205.367 193.568C204.983 193.936 204.495 194.12 203.903 194.12ZM205.559 195.704V209H202.199V195.704H205.559ZM208.015 202.304C208.015 200.96 208.279 199.768 208.807 198.728C209.351 197.688 210.087 196.888 211.015 196.328C211.943 195.768 212.975 195.488 214.111 195.488C214.975 195.488 215.799 195.68 216.583 196.064C217.367 196.432 217.991 196.928 218.455 197.552V191.24H221.863V209H218.455V207.032C218.039 207.688 217.455 208.216 216.703 208.616C215.951 209.016 215.079 209.216 214.087 209.216C212.967 209.216 211.943 208.928 211.015 208.352C210.087 207.776 209.351 206.968 208.807 205.928C208.279 204.872 208.015 203.664 208.015 202.304ZM218.479 202.352C218.479 201.536 218.319 200.84 217.999 200.264C217.679 199.672 217.247 199.224 216.703 198.92C216.159 198.6 215.575 198.44 214.951 198.44C214.327 198.44 213.751 198.592 213.223 198.896C212.695 199.2 212.263 199.648 211.927 200.24C211.607 200.816 211.447 201.504 211.447 202.304C211.447 203.104 211.607 203.808 211.927 204.416C212.263 205.008 212.695 205.464 213.223 205.784C213.767 206.104 214.343 206.264 214.951 206.264C215.575 206.264 216.159 206.112 216.703 205.808C217.247 205.488 217.679 205.04 217.999 204.464C218.319 203.872 218.479 203.168 218.479 202.352ZM237.504 202.064C237.504 202.544 237.472 202.976 237.408 203.36H227.688C227.768 204.32 228.104 205.072 228.696 205.616C229.288 206.16 230.016 206.432 230.88 206.432C232.128 206.432 233.016 205.896 233.544 204.824H237.168C236.784 206.104 236.048 207.16 234.96 207.992C233.872 208.808 232.536 209.216 230.952 209.216C229.672 209.216 228.52 208.936 227.496 208.376C226.488 207.8 225.696 206.992 225.12 205.952C224.56 204.912 224.28 203.712 224.28 202.352C224.28 200.976 224.56 199.768 225.12 198.728C225.68 197.688 226.464 196.888 227.472 196.328C228.48 195.768 229.64 195.488 230.952 195.488C232.216 195.488 233.344 195.76 234.336 196.304C235.344 196.848 236.12 197.624 236.664 198.632C237.224 199.624 237.504 200.768 237.504 202.064ZM234.024 201.104C234.008 200.24 233.696 199.552 233.088 199.04C232.48 198.512 231.736 198.248 230.856 198.248C230.024 198.248 229.32 198.504 228.744 199.016C228.184 199.512 227.84 200.208 227.712 201.104H234.024ZM62.3441 228.248V245H58.9841V228.248H62.3441ZM77.0638 228.248V230.96H72.5998V245H69.2398V230.96H64.7758V228.248H77.0638ZM100.282 228.248L94.1381 245H90.0581L83.9141 228.248H87.5141L92.1221 241.568L96.7061 228.248H100.282ZM114.657 238.064C114.657 238.544 114.625 238.976 114.561 239.36H104.841C104.921 240.32 105.257 241.072 105.849 241.616C106.441 242.16 107.169 242.432 108.033 242.432C109.281 242.432 110.169 241.896 110.697 240.824H114.321C113.937 242.104 113.201 243.16 112.113 243.992C111.025 244.808 109.689 245.216 108.105 245.216C106.825 245.216 105.673 244.936 104.649 244.376C103.641 243.8 102.849 242.992 102.273 241.952C101.713 240.912 101.433 239.712 101.433 238.352C101.433 236.976 101.713 235.768 102.273 234.728C102.833 233.688 103.617 232.888 104.625 232.328C105.633 231.768 106.793 231.488 108.105 231.488C109.369 231.488 110.497 231.76 111.489 232.304C112.497 232.848 113.273 233.624 113.817 234.632C114.377 235.624 114.657 236.768 114.657 238.064ZM111.177 237.104C111.161 236.24 110.849 235.552 110.241 235.04C109.633 234.512 108.889 234.248 108.009 234.248C107.177 234.248 106.473 234.504 105.897 235.016C105.337 235.512 104.993 236.208 104.865 237.104H111.177ZM124.477 231.512C126.061 231.512 127.341 232.016 128.317 233.024C129.293 234.016 129.781 235.408 129.781 237.2V245H126.421V237.656C126.421 236.6 126.157 235.792 125.629 235.232C125.101 234.656 124.381 234.368 123.469 234.368C122.541 234.368 121.805 234.656 121.261 235.232C120.733 235.792 120.469 236.6 120.469 237.656V245H117.109V231.704H120.469V233.36C120.917 232.784 121.485 232.336 122.173 232.016C122.877 231.68 123.645 231.512 124.477 231.512ZM132.112 238.304C132.112 236.96 132.376 235.768 132.904 234.728C133.448 233.688 134.184 232.888 135.112 232.328C136.04 231.768 137.072 231.488 138.208 231.488C139.072 231.488 139.896 231.68 140.68 232.064C141.464 232.432 142.088 232.928 142.552 233.552V227.24H145.96V245H142.552V243.032C142.136 243.688 141.552 244.216 140.8 244.616C140.048 245.016 139.176 245.216 138.184 245.216C137.064 245.216 136.04 244.928 135.112 244.352C134.184 243.776 133.448 242.968 132.904 241.928C132.376 240.872 132.112 239.664 132.112 238.304ZM142.576 238.352C142.576 237.536 142.416 236.84 142.096 236.264C141.776 235.672 141.344 235.224 140.8 234.92C140.256 234.6 139.672 234.44 139.048 234.44C138.424 234.44 137.848 234.592 137.32 234.896C136.792 235.2 136.36 235.648 136.024 236.24C135.704 236.816 135.544 237.504 135.544 238.304C135.544 239.104 135.704 239.808 136.024 240.416C136.36 241.008 136.792 241.464 137.32 241.784C137.864 242.104 138.44 242.264 139.048 242.264C139.672 242.264 140.256 242.112 140.8 241.808C141.344 241.488 141.776 241.04 142.096 240.464C142.416 239.872 142.576 239.168 142.576 238.352ZM155.146 245.216C153.866 245.216 152.714 244.936 151.69 244.376C150.666 243.8 149.858 242.992 149.266 241.952C148.69 240.912 148.402 239.712 148.402 238.352C148.402 236.992 148.698 235.792 149.29 234.752C149.898 233.712 150.722 232.912 151.762 232.352C152.802 231.776 153.962 231.488 155.242 231.488C156.522 231.488 157.682 231.776 158.722 232.352C159.762 232.912 160.578 233.712 161.17 234.752C161.778 235.792 162.082 236.992 162.082 238.352C162.082 239.712 161.77 240.912 161.146 241.952C160.538 242.992 159.706 243.8 158.65 244.376C157.61 244.936 156.442 245.216 155.146 245.216ZM155.146 242.288C155.754 242.288 156.322 242.144 156.85 241.856C157.394 241.552 157.826 241.104 158.146 240.512C158.466 239.92 158.626 239.2 158.626 238.352C158.626 237.088 158.29 236.12 157.618 235.448C156.962 234.76 156.154 234.416 155.194 234.416C154.234 234.416 153.426 234.76 152.77 235.448C152.13 236.12 151.81 237.088 151.81 238.352C151.81 239.616 152.122 240.592 152.746 241.28C153.386 241.952 154.186 242.288 155.146 242.288ZM167.907 233.768C168.339 233.064 168.899 232.512 169.587 232.112C170.291 231.712 171.091 231.512 171.987 231.512V235.04H171.099C170.043 235.04 169.243 235.288 168.699 235.784C168.171 236.28 167.907 237.144 167.907 238.376V245H164.547V231.704H167.907V233.768ZM179.338 245.216C178.25 245.216 177.274 245.024 176.41 244.64C175.546 244.24 174.858 243.704 174.346 243.032C173.85 242.36 173.578 241.616 173.53 240.8H176.914C176.978 241.312 177.226 241.736 177.658 242.072C178.106 242.408 178.658 242.576 179.314 242.576C179.954 242.576 180.45 242.448 180.802 242.192C181.17 241.936 181.354 241.608 181.354 241.208C181.354 240.776 181.13 240.456 180.682 240.248C180.25 240.024 179.554 239.784 178.594 239.528C177.602 239.288 176.786 239.04 176.146 238.784C175.522 238.528 174.978 238.136 174.514 237.608C174.066 237.08 173.842 236.368 173.842 235.472C173.842 234.736 174.05 234.064 174.466 233.456C174.898 232.848 175.506 232.368 176.29 232.016C177.09 231.664 178.026 231.488 179.098 231.488C180.682 231.488 181.946 231.888 182.89 232.688C183.834 233.472 184.354 234.536 184.45 235.88H181.234C181.186 235.352 180.962 234.936 180.562 234.632C180.178 234.312 179.658 234.152 179.002 234.152C178.394 234.152 177.922 234.264 177.586 234.488C177.266 234.712 177.106 235.024 177.106 235.424C177.106 235.872 177.33 236.216 177.778 236.456C178.226 236.68 178.922 236.912 179.866 237.152C180.826 237.392 181.618 237.64 182.242 237.896C182.866 238.152 183.402 238.552 183.85 239.096C184.314 239.624 184.554 240.328 184.57 241.208C184.57 241.976 184.354 242.664 183.922 243.272C183.506 243.88 182.898 244.36 182.098 244.712C181.314 245.048 180.394 245.216 179.338 245.216Z" fill="#464646"/>
</svg>
