<svg width="128" height="149" viewBox="0 0 148 169" fill="none" xmlns="http://www.w3.org/2000/svg">
<path d="M105.876 42.5696C105.715 42.5696 105.607 42.5696 105.446 42.5696H105.177C95.0046 42.2467 87.416 34.3889 87.416 24.7013C87.416 14.7985 95.489 6.7793 105.338 6.7793C115.187 6.7793 123.26 14.8523 123.26 24.7013C123.206 34.4427 115.618 42.3005 105.93 42.6234C105.93 42.5696 105.93 42.5696 105.876 42.5696ZM105.338 14.7985C99.9022 14.7985 95.489 19.2117 95.489 24.6476C95.489 29.9757 99.6332 34.2813 104.961 34.4966C105.015 34.4428 105.446 34.4428 105.93 34.4966C111.151 34.2275 115.187 29.9219 115.241 24.6476C115.241 19.2117 110.828 14.7985 105.338 14.7985Z"/>
<path d="M105.934 82.2352C103.835 82.2352 101.736 82.0737 99.6367 81.697C97.4301 81.3202 95.9769 79.2213 96.3537 77.0147C96.7304 74.8081 98.8294 73.3549 101.036 73.7317C107.656 74.8619 114.652 73.6241 119.335 70.5025C121.864 68.8341 123.21 66.7351 123.21 64.6361C123.21 62.5371 121.81 60.4919 119.335 58.8235C114.652 55.702 107.548 54.4641 100.875 55.6482C98.6679 56.0787 96.569 54.5718 96.1922 52.3651C95.8155 50.1585 97.2686 48.0596 99.4752 47.6828C108.248 46.1221 117.343 47.7904 123.802 52.096C128.538 55.2714 131.283 59.7923 131.283 64.6361C131.283 69.4261 128.592 74.0008 123.802 77.23C118.904 80.4592 112.553 82.2352 105.934 82.2352Z" />
<path d="M41.133 42.5716C41.0792 42.5716 41.0253 42.5716 41.0253 42.5716C31.3377 42.2487 23.7491 34.391 23.6953 24.7034C23.6953 14.8005 31.7683 6.72754 41.6174 6.72754C51.4664 6.72754 59.5394 14.8005 59.5394 24.6496C59.5394 34.391 51.9508 42.2487 42.2632 42.5716L41.133 38.5351L41.5097 42.5716C41.4021 42.5716 41.2406 42.5716 41.133 42.5716ZM41.6712 34.4986C41.9941 34.4986 42.2632 34.4986 42.5861 34.5524C47.3761 34.3372 51.574 30.0315 51.574 24.7034C51.574 19.2676 47.1608 14.8543 41.725 14.8543C36.2892 14.8543 31.8759 19.2676 31.8759 24.7034C31.8759 29.9777 35.9663 34.2295 41.1868 34.5524C41.2406 34.4986 41.4559 34.4986 41.6712 34.4986Z" />
<path d="M41.0757 82.2352C34.4559 82.2352 28.1051 80.4592 23.2075 77.23C18.4714 74.0546 15.7266 69.4799 15.7266 64.6361C15.7266 59.8461 18.4714 55.2714 23.2075 52.096C29.6659 47.7904 38.7615 46.1221 47.5341 47.6828C49.7408 48.0596 51.1939 50.1585 50.8172 52.3651C50.4404 54.5718 48.3414 56.0787 46.1348 55.6482C39.4612 54.4641 32.4107 55.702 27.6746 58.8235C25.1451 60.4919 23.7996 62.5371 23.7996 64.6361C23.7996 66.7351 25.1989 68.8341 27.6746 70.5025C32.3569 73.6241 39.3535 74.8619 45.9734 73.7317C48.18 73.3549 50.279 74.8619 50.6557 77.0147C51.0324 79.2213 49.5793 81.3202 47.3727 81.697C45.2737 82.0737 43.1747 82.2352 41.0757 82.2352Z"/>
<path d="M73.5872 82.7766C73.4257 82.7766 73.3181 82.7766 73.1566 82.7766H72.8875C62.7156 82.4537 55.127 74.596 55.127 64.9084C55.127 55.0055 63.2 46.9863 73.049 46.9863C82.898 46.9863 90.971 55.0593 90.971 64.9084C90.9172 74.6498 83.3286 82.5075 73.641 82.8304C73.641 82.7766 73.641 82.7766 73.5872 82.7766ZM73.049 55.0055C67.6132 55.0055 63.1999 59.4188 63.1999 64.8546C63.1999 70.1828 67.3441 74.4884 72.6723 74.7036C72.7261 74.6498 73.1566 74.6498 73.641 74.7036C78.8615 74.4345 82.898 70.1289 82.9519 64.8546C82.9519 59.4726 78.5386 55.0055 73.049 55.0055Z" fill="white" />
<path d="M73.5807 122.492C67.1224 122.492 60.664 120.824 55.6587 117.433C50.9225 114.258 48.1777 109.737 48.1777 104.893C48.1777 100.103 50.8687 95.4746 55.6587 92.2992C65.723 85.6255 81.4923 85.6255 91.5028 92.2992C96.239 95.4746 98.9838 99.9955 98.9838 104.839C98.9838 109.629 96.2928 114.258 91.5028 117.433C86.4975 120.77 80.0391 122.492 73.5807 122.492ZM60.1258 99.0806C57.5962 100.749 56.2507 102.848 56.2507 104.947C56.2507 107.046 57.65 109.091 60.1258 110.759C67.3915 115.657 79.7162 115.657 86.9819 110.759C89.5115 109.091 90.8569 106.992 90.8569 104.893C90.8569 102.794 89.4576 100.749 86.9819 99.0806C79.7701 94.1829 67.4453 94.2368 60.1258 99.0806Z" />
<path d="M9.76794 159.168C8.19994 159.168 6.75994 158.8 5.44794 158.064C4.13594 157.328 3.09594 156.312 2.32794 155.016C1.55994 153.704 1.17594 152.224 1.17594 150.576C1.17594 148.944 1.55994 147.48 2.32794 146.184C3.09594 144.872 4.13594 143.848 5.44794 143.112C6.75994 142.376 8.19994 142.008 9.76794 142.008C11.3519 142.008 12.7919 142.376 14.0879 143.112C15.3999 143.848 16.4319 144.872 17.1839 146.184C17.9519 147.48 18.3359 148.944 18.3359 150.576C18.3359 152.224 17.9519 153.704 17.1839 155.016C16.4319 156.312 15.3999 157.328 14.0879 158.064C12.7759 158.8 11.3359 159.168 9.76794 159.168ZM9.76794 156.168C10.7759 156.168 11.6639 155.944 12.4319 155.496C13.1999 155.032 13.7999 154.376 14.2319 153.528C14.6639 152.68 14.8799 151.696 14.8799 150.576C14.8799 149.456 14.6639 148.48 14.2319 147.648C13.7999 146.8 13.1999 146.152 12.4319 145.704C11.6639 145.256 10.7759 145.032 9.76794 145.032C8.75994 145.032 7.86394 145.256 7.07994 145.704C6.31194 146.152 5.71194 146.8 5.27994 147.648C4.84794 148.48 4.63194 149.456 4.63194 150.576C4.63194 151.696 4.84794 152.68 5.27994 153.528C5.71194 154.376 6.31194 155.032 7.07994 155.496C7.86394 155.944 8.75994 156.168 9.76794 156.168ZM28.2037 145.512C29.7877 145.512 31.0677 146.016 32.0437 147.024C33.0197 148.016 33.5077 149.408 33.5077 151.2V159H30.1477V151.656C30.1477 150.6 29.8837 149.792 29.3557 149.232C28.8277 148.656 28.1077 148.368 27.1957 148.368C26.2677 148.368 25.5317 148.656 24.9877 149.232C24.4597 149.792 24.1957 150.6 24.1957 151.656V159H20.8357V145.704H24.1957V147.36C24.6437 146.784 25.2117 146.336 25.8997 146.016C26.6037 145.68 27.3717 145.512 28.2037 145.512ZM40.0629 147.648C40.4949 147.008 41.0869 146.488 41.8389 146.088C42.6069 145.688 43.4789 145.488 44.4549 145.488C45.5909 145.488 46.6149 145.768 47.5269 146.328C48.4549 146.888 49.1829 147.688 49.7109 148.728C50.2549 149.752 50.5269 150.944 50.5269 152.304C50.5269 153.664 50.2549 154.872 49.7109 155.928C49.1829 156.968 48.4549 157.776 47.5269 158.352C46.6149 158.928 45.5909 159.216 44.4549 159.216C43.4629 159.216 42.5909 159.024 41.8389 158.64C41.1029 158.24 40.5109 157.728 40.0629 157.104V159H36.7029V141.24H40.0629V147.648ZM47.0949 152.304C47.0949 151.504 46.9269 150.816 46.5909 150.24C46.2709 149.648 45.8389 149.2 45.2949 148.896C44.7669 148.592 44.1909 148.44 43.5669 148.44C42.9589 148.44 42.3829 148.6 41.8389 148.92C41.3109 149.224 40.8789 149.672 40.5429 150.264C40.2229 150.856 40.0629 151.552 40.0629 152.352C40.0629 153.152 40.2229 153.848 40.5429 154.44C40.8789 155.032 41.3109 155.488 41.8389 155.808C42.3829 156.112 42.9589 156.264 43.5669 156.264C44.1909 156.264 44.7669 156.104 45.2949 155.784C45.8389 155.464 46.2709 155.008 46.5909 154.416C46.9269 153.824 47.0949 153.12 47.0949 152.304ZM58.8725 159.216C57.5925 159.216 56.4405 158.936 55.4165 158.376C54.3925 157.8 53.5845 156.992 52.9925 155.952C52.4165 154.912 52.1285 153.712 52.1285 152.352C52.1285 150.992 52.4245 149.792 53.0165 148.752C53.6245 147.712 54.4485 146.912 55.4885 146.352C56.5285 145.776 57.6885 145.488 58.9685 145.488C60.2485 145.488 61.4085 145.776 62.4485 146.352C63.4885 146.912 64.3045 147.712 64.8965 148.752C65.5045 149.792 65.8085 150.992 65.8085 152.352C65.8085 153.712 65.4965 154.912 64.8725 155.952C64.2645 156.992 63.4325 157.8 62.3765 158.376C61.3365 158.936 60.1685 159.216 58.8725 159.216ZM58.8725 156.288C59.4805 156.288 60.0485 156.144 60.5765 155.856C61.1205 155.552 61.5525 155.104 61.8725 154.512C62.1925 153.92 62.3525 153.2 62.3525 152.352C62.3525 151.088 62.0165 150.12 61.3445 149.448C60.6885 148.76 59.8805 148.416 58.9205 148.416C57.9605 148.416 57.1525 148.76 56.4965 149.448C55.8565 150.12 55.5365 151.088 55.5365 152.352C55.5365 153.616 55.8485 154.592 56.4725 155.28C57.1125 155.952 57.9125 156.288 58.8725 156.288ZM67.4092 152.304C67.4092 150.96 67.6732 149.768 68.2012 148.728C68.7452 147.688 69.4732 146.888 70.3852 146.328C71.3132 145.768 72.3452 145.488 73.4812 145.488C74.4732 145.488 75.3372 145.688 76.0732 146.088C76.8252 146.488 77.4252 146.992 77.8732 147.6V145.704H81.2572V159H77.8732V157.056C77.4412 157.68 76.8412 158.2 76.0732 158.616C75.3212 159.016 74.4492 159.216 73.4572 159.216C72.3372 159.216 71.3132 158.928 70.3852 158.352C69.4732 157.776 68.7452 156.968 68.2012 155.928C67.6732 154.872 67.4092 153.664 67.4092 152.304ZM77.8732 152.352C77.8732 151.536 77.7132 150.84 77.3932 150.264C77.0732 149.672 76.6412 149.224 76.0972 148.92C75.5532 148.6 74.9692 148.44 74.3452 148.44C73.7212 148.44 73.1452 148.592 72.6172 148.896C72.0892 149.2 71.6572 149.648 71.3212 150.24C71.0012 150.816 70.8412 151.504 70.8412 152.304C70.8412 153.104 71.0012 153.808 71.3212 154.416C71.6572 155.008 72.0892 155.464 72.6172 155.784C73.1612 156.104 73.7372 156.264 74.3452 156.264C74.9692 156.264 75.5532 156.112 76.0972 155.808C76.6412 155.488 77.0732 155.04 77.3932 154.464C77.7132 153.872 77.8732 153.168 77.8732 152.352ZM87.8988 147.768C88.3308 147.064 88.8908 146.512 89.5788 146.112C90.2828 145.712 91.0828 145.512 91.9788 145.512V149.04H91.0908C90.0348 149.04 89.2348 149.288 88.6908 149.784C88.1628 150.28 87.8988 151.144 87.8988 152.376V159H84.5388V145.704H87.8988V147.768ZM93.3779 152.304C93.3779 150.96 93.6419 149.768 94.1699 148.728C94.7139 147.688 95.4499 146.888 96.3779 146.328C97.3059 145.768 98.3379 145.488 99.4739 145.488C100.338 145.488 101.162 145.68 101.946 146.064C102.73 146.432 103.354 146.928 103.818 147.552V141.24H107.226V159H103.818V157.032C103.402 157.688 102.818 158.216 102.066 158.616C101.314 159.016 100.442 159.216 99.4499 159.216C98.3299 159.216 97.3059 158.928 96.3779 158.352C95.4499 157.776 94.7139 156.968 94.1699 155.928C93.6419 154.872 93.3779 153.664 93.3779 152.304ZM103.842 152.352C103.842 151.536 103.682 150.84 103.362 150.264C103.042 149.672 102.61 149.224 102.066 148.92C101.522 148.6 100.938 148.44 100.314 148.44C99.6899 148.44 99.1139 148.592 98.5859 148.896C98.0579 149.2 97.6259 149.648 97.2899 150.24C96.9699 150.816 96.8099 151.504 96.8099 152.304C96.8099 153.104 96.9699 153.808 97.2899 154.416C97.6259 155.008 98.0579 155.464 98.5859 155.784C99.1299 156.104 99.7059 156.264 100.314 156.264C100.938 156.264 101.522 156.112 102.066 155.808C102.61 155.488 103.042 155.04 103.362 154.464C103.682 153.872 103.842 153.168 103.842 152.352ZM112.212 144.12C111.62 144.12 111.124 143.936 110.724 143.568C110.34 143.184 110.148 142.712 110.148 142.152C110.148 141.592 110.34 141.128 110.724 140.76C111.124 140.376 111.62 140.184 112.212 140.184C112.804 140.184 113.292 140.376 113.676 140.76C114.076 141.128 114.276 141.592 114.276 142.152C114.276 142.712 114.076 143.184 113.676 143.568C113.292 143.936 112.804 144.12 112.212 144.12ZM113.868 145.704V159H110.508V145.704H113.868ZM124.555 145.512C126.139 145.512 127.419 146.016 128.395 147.024C129.371 148.016 129.859 149.408 129.859 151.2V159H126.499V151.656C126.499 150.6 126.235 149.792 125.707 149.232C125.179 148.656 124.459 148.368 123.547 148.368C122.619 148.368 121.883 148.656 121.339 149.232C120.811 149.792 120.547 150.6 120.547 151.656V159H117.187V145.704H120.547V147.36C120.995 146.784 121.563 146.336 122.251 146.016C122.955 145.68 123.723 145.512 124.555 145.512ZM138.262 145.488C139.254 145.488 140.126 145.688 140.878 146.088C141.63 146.472 142.222 146.976 142.654 147.6V145.704H146.038V159.096C146.038 160.328 145.79 161.424 145.294 162.384C144.798 163.36 144.054 164.128 143.062 164.688C142.07 165.264 140.87 165.552 139.462 165.552C137.574 165.552 136.022 165.112 134.806 164.232C133.606 163.352 132.926 162.152 132.766 160.632H136.102C136.278 161.24 136.654 161.72 137.23 162.072C137.822 162.44 138.534 162.624 139.366 162.624C140.342 162.624 141.134 162.328 141.742 161.736C142.35 161.16 142.654 160.28 142.654 159.096V157.032C142.222 157.656 141.622 158.176 140.854 158.592C140.102 159.008 139.238 159.216 138.262 159.216C137.142 159.216 136.118 158.928 135.19 158.352C134.262 157.776 133.526 156.968 132.982 155.928C132.454 154.872 132.19 153.664 132.19 152.304C132.19 150.96 132.454 149.768 132.982 148.728C133.526 147.688 134.254 146.888 135.166 146.328C136.094 145.768 137.126 145.488 138.262 145.488ZM142.654 152.352C142.654 151.536 142.494 150.84 142.174 150.264C141.854 149.672 141.422 149.224 140.878 148.92C140.334 148.6 139.75 148.44 139.126 148.44C138.502 148.44 137.926 148.592 137.398 148.896C136.87 149.2 136.438 149.648 136.102 150.24C135.782 150.816 135.622 151.504 135.622 152.304C135.622 153.104 135.782 153.808 136.102 154.416C136.438 155.008 136.87 155.464 137.398 155.784C137.942 156.104 138.518 156.264 139.126 156.264C139.75 156.264 140.334 156.112 140.878 155.808C141.422 155.488 141.854 155.04 142.174 154.464C142.494 153.872 142.654 153.168 142.654 152.352Z"/>
</svg>
