<svg width="134" height="222" viewBox="0 0 154 242" fill="none" xmlns="http://www.w3.org/2000/svg">
<path d="M63.8083 112.939H39.6243C15.3766 112.939 7.97461 105.537 7.97461 81.2892V43.0032C7.97461 18.7555 15.3766 11.3535 39.6243 11.3535H106.816C131.064 11.3535 138.466 18.7555 138.466 43.0032C138.466 45.6194 136.296 47.789 133.68 47.789C131.064 47.789 128.894 45.6194 128.894 43.0032C128.894 24.2431 125.576 20.925 106.816 20.925H39.6243C20.8642 20.925 17.5461 24.2431 17.5461 43.0032V81.2892C17.5461 100.049 20.8642 103.367 39.6243 103.367H63.8083C66.4245 103.367 68.594 105.537 68.594 108.153C68.594 110.769 66.4245 112.939 63.8083 112.939Z" />
<path d="M63.8111 141.782C61.1949 141.782 59.0254 139.613 59.0254 136.996V108.09C59.0254 105.474 61.1949 103.305 63.8111 103.305C66.4273 103.305 68.5969 105.474 68.5969 108.09V136.996C68.5969 139.676 66.4273 141.782 63.8111 141.782Z" />
<path d="M63.8083 87.4152H12.7604C10.1441 87.4152 7.97461 85.2457 7.97461 82.6295C7.97461 80.0133 10.1441 77.8438 12.7604 77.8438H63.8083C66.4245 77.8438 68.594 80.0133 68.594 82.6295C68.594 85.2457 66.4245 87.4152 63.8083 87.4152Z" />
<path d="M63.8104 141.79H43.0084C40.3922 141.79 38.2227 139.621 38.2227 137.004C38.2227 134.388 40.3922 132.219 43.0084 132.219H63.8104C66.4266 132.219 68.5962 134.388 68.5962 137.004C68.5962 139.621 66.4266 141.79 63.8104 141.79Z" />
<path d="M121.49 141.784H98.8375C81.1622 141.784 75.1641 135.786 75.1641 118.111V81.6754C75.1641 64.0001 81.1622 58.002 98.8375 58.002H121.49C139.165 58.002 145.164 64.0001 145.164 81.6754V118.111C145.164 135.85 139.165 141.784 121.49 141.784ZM98.8375 67.5734C86.3308 67.5734 84.7355 69.1687 84.7355 81.6754V118.111C84.7355 130.618 86.3308 132.213 98.8375 132.213H121.49C133.997 132.213 135.592 130.618 135.592 118.111V81.6754C135.592 69.1687 133.997 67.5734 121.49 67.5734H98.8375Z" />
<path d="M110.395 121.052C108.736 121.052 107.077 120.414 105.864 119.201C105.29 118.627 104.843 117.925 104.524 117.16C104.205 116.33 104.014 115.501 104.014 114.671C104.014 113.012 104.716 111.353 105.864 110.204C107.332 108.737 109.565 108.035 111.671 108.418C112.054 108.545 112.437 108.673 112.819 108.8C113.202 108.992 113.585 109.183 113.904 109.375C114.287 109.63 114.606 109.885 114.925 110.204C116.074 111.353 116.776 113.012 116.776 114.671C116.776 115.501 116.584 116.33 116.265 117.16C115.946 117.925 115.499 118.627 114.925 119.201C114.606 119.521 114.287 119.776 113.904 119.967C113.585 120.222 113.202 120.414 112.819 120.605C112.437 120.733 112.054 120.861 111.671 120.924C111.224 121.052 110.841 121.052 110.395 121.052Z" />
<path d="M15.5208 179.248V181.96H11.0568V196H7.69684V181.96H3.23284V179.248H15.5208ZM23.8764 196.216C22.5964 196.216 21.4444 195.936 20.4204 195.376C19.3964 194.8 18.5884 193.992 17.9964 192.952C17.4204 191.912 17.1324 190.712 17.1324 189.352C17.1324 187.992 17.4284 186.792 18.0204 185.752C18.6284 184.712 19.4524 183.912 20.4924 183.352C21.5324 182.776 22.6924 182.488 23.9724 182.488C25.2524 182.488 26.4124 182.776 27.4524 183.352C28.4924 183.912 29.3084 184.712 29.9004 185.752C30.5084 186.792 30.8124 187.992 30.8124 189.352C30.8124 190.712 30.5004 191.912 29.8764 192.952C29.2684 193.992 28.4364 194.8 27.3804 195.376C26.3404 195.936 25.1724 196.216 23.8764 196.216ZM23.8764 193.288C24.4844 193.288 25.0524 193.144 25.5804 192.856C26.1244 192.552 26.5564 192.104 26.8764 191.512C27.1964 190.92 27.3564 190.2 27.3564 189.352C27.3564 188.088 27.0204 187.12 26.3484 186.448C25.6924 185.76 24.8844 185.416 23.9244 185.416C22.9644 185.416 22.1564 185.76 21.5004 186.448C20.8604 187.12 20.5404 188.088 20.5404 189.352C20.5404 190.616 20.8524 191.592 21.4764 192.28C22.1164 192.952 22.9164 193.288 23.8764 193.288ZM39.1811 196.216C37.9011 196.216 36.7491 195.936 35.7251 195.376C34.7011 194.8 33.8931 193.992 33.3011 192.952C32.7251 191.912 32.4371 190.712 32.4371 189.352C32.4371 187.992 32.7331 186.792 33.3251 185.752C33.9331 184.712 34.7571 183.912 35.7971 183.352C36.8371 182.776 37.9971 182.488 39.2771 182.488C40.5571 182.488 41.7171 182.776 42.7571 183.352C43.7971 183.912 44.6131 184.712 45.2051 185.752C45.8131 186.792 46.1171 187.992 46.1171 189.352C46.1171 190.712 45.8051 191.912 45.1811 192.952C44.5731 193.992 43.7411 194.8 42.6851 195.376C41.6451 195.936 40.4771 196.216 39.1811 196.216ZM39.1811 193.288C39.7891 193.288 40.3571 193.144 40.8851 192.856C41.4291 192.552 41.8611 192.104 42.1811 191.512C42.5011 190.92 42.6611 190.2 42.6611 189.352C42.6611 188.088 42.3251 187.12 41.6531 186.448C40.9971 185.76 40.1891 185.416 39.2291 185.416C38.2691 185.416 37.4611 185.76 36.8051 186.448C36.1651 187.12 35.8451 188.088 35.8451 189.352C35.8451 190.616 36.1571 191.592 36.7811 192.28C37.4211 192.952 38.2211 193.288 39.1811 193.288ZM51.9418 178.24V196H48.5818V178.24H51.9418ZM56.9655 181.12C56.3735 181.12 55.8775 180.936 55.4775 180.568C55.0935 180.184 54.9015 179.712 54.9015 179.152C54.9015 178.592 55.0935 178.128 55.4775 177.76C55.8775 177.376 56.3735 177.184 56.9655 177.184C57.5575 177.184 58.0455 177.376 58.4295 177.76C58.8295 178.128 59.0295 178.592 59.0295 179.152C59.0295 179.712 58.8295 180.184 58.4295 180.568C58.0455 180.936 57.5575 181.12 56.9655 181.12ZM58.6215 182.704V196H55.2615V182.704H58.6215ZM69.3092 182.512C70.8932 182.512 72.1732 183.016 73.1492 184.024C74.1252 185.016 74.6132 186.408 74.6132 188.2V196H71.2532V188.656C71.2532 187.6 70.9892 186.792 70.4612 186.232C69.9332 185.656 69.2132 185.368 68.3012 185.368C67.3732 185.368 66.6372 185.656 66.0932 186.232C65.5652 186.792 65.3012 187.6 65.3012 188.656V196H61.9412V182.704H65.3012V184.36C65.7492 183.784 66.3172 183.336 67.0052 183.016C67.7092 182.68 68.4772 182.512 69.3092 182.512ZM83.0163 182.488C84.0083 182.488 84.8803 182.688 85.6323 183.088C86.3843 183.472 86.9763 183.976 87.4083 184.6V182.704H90.7923V196.096C90.7923 197.328 90.5443 198.424 90.0483 199.384C89.5523 200.36 88.8083 201.128 87.8163 201.688C86.8243 202.264 85.6243 202.552 84.2163 202.552C82.3283 202.552 80.7763 202.112 79.5603 201.232C78.3603 200.352 77.6803 199.152 77.5203 197.632H80.8563C81.0323 198.24 81.4083 198.72 81.9843 199.072C82.5763 199.44 83.2883 199.624 84.1203 199.624C85.0963 199.624 85.8883 199.328 86.4963 198.736C87.1043 198.16 87.4083 197.28 87.4083 196.096V194.032C86.9763 194.656 86.3763 195.176 85.6083 195.592C84.8563 196.008 83.9923 196.216 83.0163 196.216C81.8963 196.216 80.8723 195.928 79.9443 195.352C79.0163 194.776 78.2803 193.968 77.7363 192.928C77.2083 191.872 76.9443 190.664 76.9443 189.304C76.9443 187.96 77.2083 186.768 77.7363 185.728C78.2803 184.688 79.0083 183.888 79.9203 183.328C80.8483 182.768 81.8803 182.488 83.0163 182.488ZM87.4083 189.352C87.4083 188.536 87.2483 187.84 86.9283 187.264C86.6083 186.672 86.1763 186.224 85.6323 185.92C85.0883 185.6 84.5043 185.44 83.8803 185.44C83.2563 185.44 82.6803 185.592 82.1523 185.896C81.6243 186.2 81.1923 186.648 80.8563 187.24C80.5363 187.816 80.3763 188.504 80.3763 189.304C80.3763 190.104 80.5363 190.808 80.8563 191.416C81.1923 192.008 81.6243 192.464 82.1523 192.784C82.6963 193.104 83.2723 193.264 83.8803 193.264C84.5043 193.264 85.0883 193.112 85.6323 192.808C86.1763 192.488 86.6083 192.04 86.9283 191.464C87.2483 190.872 87.4083 190.168 87.4083 189.352ZM98.9287 189.304C98.9287 187.96 99.1927 186.768 99.7207 185.728C100.265 184.688 100.993 183.888 101.905 183.328C102.833 182.768 103.865 182.488 105.001 182.488C105.993 182.488 106.857 182.688 107.593 183.088C108.345 183.488 108.945 183.992 109.393 184.6V182.704H112.777V196H109.393V194.056C108.961 194.68 108.361 195.2 107.593 195.616C106.841 196.016 105.969 196.216 104.977 196.216C103.857 196.216 102.833 195.928 101.905 195.352C100.993 194.776 100.265 193.968 99.7207 192.928C99.1927 191.872 98.9287 190.664 98.9287 189.304ZM109.393 189.352C109.393 188.536 109.233 187.84 108.913 187.264C108.593 186.672 108.161 186.224 107.617 185.92C107.073 185.6 106.489 185.44 105.865 185.44C105.241 185.44 104.665 185.592 104.137 185.896C103.609 186.2 103.177 186.648 102.841 187.24C102.521 187.816 102.361 188.504 102.361 189.304C102.361 190.104 102.521 190.808 102.841 191.416C103.177 192.008 103.609 192.464 104.137 192.784C104.681 193.104 105.257 193.264 105.865 193.264C106.489 193.264 107.073 193.112 107.617 192.808C108.161 192.488 108.593 192.04 108.913 191.464C109.233 190.872 109.393 190.168 109.393 189.352ZM123.426 182.512C125.01 182.512 126.29 183.016 127.266 184.024C128.242 185.016 128.73 186.408 128.73 188.2V196H125.37V188.656C125.37 187.6 125.106 186.792 124.578 186.232C124.05 185.656 123.33 185.368 122.418 185.368C121.49 185.368 120.754 185.656 120.21 186.232C119.682 186.792 119.418 187.6 119.418 188.656V196H116.058V182.704H119.418V184.36C119.866 183.784 120.434 183.336 121.122 183.016C121.826 182.68 122.594 182.512 123.426 182.512ZM131.062 189.304C131.062 187.96 131.326 186.768 131.854 185.728C132.398 184.688 133.134 183.888 134.062 183.328C134.99 182.768 136.022 182.488 137.158 182.488C138.022 182.488 138.846 182.68 139.63 183.064C140.414 183.432 141.038 183.928 141.502 184.552V178.24H144.91V196H141.502V194.032C141.086 194.688 140.502 195.216 139.75 195.616C138.998 196.016 138.126 196.216 137.134 196.216C136.014 196.216 134.99 195.928 134.062 195.352C133.134 194.776 132.398 193.968 131.854 192.928C131.326 191.872 131.062 190.664 131.062 189.304ZM141.526 189.352C141.526 188.536 141.366 187.84 141.046 187.264C140.726 186.672 140.294 186.224 139.75 185.92C139.206 185.6 138.622 185.44 137.998 185.44C137.374 185.44 136.798 185.592 136.27 185.896C135.742 186.2 135.31 186.648 134.974 187.24C134.654 187.816 134.494 188.504 134.494 189.304C134.494 190.104 134.654 190.808 134.974 191.416C135.31 192.008 135.742 192.464 136.27 192.784C136.814 193.104 137.39 193.264 137.998 193.264C138.622 193.264 139.206 193.112 139.75 192.808C140.294 192.488 140.726 192.04 141.046 191.464C141.366 190.872 141.526 190.168 141.526 189.352ZM16.0951 215.248V217.96H11.6311V232H8.27106V217.96H3.80706V215.248H16.0951ZM30.9066 225.064C30.9066 225.544 30.8746 225.976 30.8106 226.36H21.0906C21.1706 227.32 21.5066 228.072 22.0986 228.616C22.6906 229.16 23.4186 229.432 24.2826 229.432C25.5306 229.432 26.4186 228.896 26.9466 227.824H30.5706C30.1866 229.104 29.4506 230.16 28.3626 230.992C27.2746 231.808 25.9386 232.216 24.3546 232.216C23.0746 232.216 21.9226 231.936 20.8986 231.376C19.8906 230.8 19.0986 229.992 18.5226 228.952C17.9626 227.912 17.6826 226.712 17.6826 225.352C17.6826 223.976 17.9626 222.768 18.5226 221.728C19.0826 220.688 19.8666 219.888 20.8746 219.328C21.8826 218.768 23.0426 218.488 24.3546 218.488C25.6186 218.488 26.7466 218.76 27.7386 219.304C28.7466 219.848 29.5226 220.624 30.0666 221.632C30.6266 222.624 30.9066 223.768 30.9066 225.064ZM27.4266 224.104C27.4106 223.24 27.0986 222.552 26.4906 222.04C25.8826 221.512 25.1386 221.248 24.2586 221.248C23.4266 221.248 22.7226 221.504 22.1466 222.016C21.5866 222.512 21.2426 223.208 21.1146 224.104H27.4266ZM32.4951 225.352C32.4951 223.976 32.7751 222.776 33.3351 221.752C33.8951 220.712 34.6711 219.912 35.6631 219.352C36.6551 218.776 37.7911 218.488 39.0711 218.488C40.7191 218.488 42.0791 218.904 43.1511 219.736C44.2391 220.552 44.9671 221.704 45.3351 223.192H41.7111C41.5191 222.616 41.1911 222.168 40.7271 221.848C40.2791 221.512 39.7191 221.344 39.0471 221.344C38.0871 221.344 37.3271 221.696 36.7671 222.4C36.2071 223.088 35.9271 224.072 35.9271 225.352C35.9271 226.616 36.2071 227.6 36.7671 228.304C37.3271 228.992 38.0871 229.336 39.0471 229.336C40.4071 229.336 41.2951 228.728 41.7111 227.512H45.3351C44.9671 228.952 44.2391 230.096 43.1511 230.944C42.0631 231.792 40.7031 232.216 39.0711 232.216C37.7911 232.216 36.6551 231.936 35.6631 231.376C34.6711 230.8 33.8951 230 33.3351 228.976C32.7751 227.936 32.4951 226.728 32.4951 225.352ZM55.2846 218.512C56.2926 218.512 57.1886 218.736 57.9726 219.184C58.7566 219.616 59.3646 220.264 59.7966 221.128C60.2446 221.976 60.4686 223 60.4686 224.2V232H57.1086V224.656C57.1086 223.6 56.8446 222.792 56.3166 222.232C55.7886 221.656 55.0686 221.368 54.1566 221.368C53.2286 221.368 52.4926 221.656 51.9486 222.232C51.4206 222.792 51.1566 223.6 51.1566 224.656V232H47.7966V214.24H51.1566V220.36C51.5886 219.784 52.1646 219.336 52.8846 219.016C53.6046 218.68 54.4046 218.512 55.2846 218.512ZM71.0318 218.512C72.6158 218.512 73.8958 219.016 74.8718 220.024C75.8478 221.016 76.3358 222.408 76.3358 224.2V232H72.9758V224.656C72.9758 223.6 72.7118 222.792 72.1838 222.232C71.6558 221.656 70.9358 221.368 70.0238 221.368C69.0958 221.368 68.3598 221.656 67.8158 222.232C67.2878 222.792 67.0238 223.6 67.0238 224.656V232H63.6638V218.704H67.0238V220.36C67.4718 219.784 68.0398 219.336 68.7278 219.016C69.4318 218.68 70.1998 218.512 71.0318 218.512ZM85.435 232.216C84.155 232.216 83.003 231.936 81.979 231.376C80.955 230.8 80.147 229.992 79.555 228.952C78.979 227.912 78.691 226.712 78.691 225.352C78.691 223.992 78.987 222.792 79.579 221.752C80.187 220.712 81.011 219.912 82.051 219.352C83.091 218.776 84.251 218.488 85.531 218.488C86.811 218.488 87.971 218.776 89.011 219.352C90.051 219.912 90.867 220.712 91.459 221.752C92.067 222.792 92.371 223.992 92.371 225.352C92.371 226.712 92.059 227.912 91.435 228.952C90.827 229.992 89.995 230.8 88.939 231.376C87.899 231.936 86.731 232.216 85.435 232.216ZM85.435 229.288C86.043 229.288 86.611 229.144 87.139 228.856C87.683 228.552 88.115 228.104 88.435 227.512C88.755 226.92 88.915 226.2 88.915 225.352C88.915 224.088 88.579 223.12 87.907 222.448C87.251 221.76 86.443 221.416 85.483 221.416C84.523 221.416 83.715 221.76 83.059 222.448C82.419 223.12 82.099 224.088 82.099 225.352C82.099 226.616 82.411 227.592 83.035 228.28C83.675 228.952 84.475 229.288 85.435 229.288ZM98.1957 214.24V232H94.8357V214.24H98.1957ZM107.419 232.216C106.139 232.216 104.987 231.936 103.963 231.376C102.939 230.8 102.131 229.992 101.539 228.952C100.963 227.912 100.675 226.712 100.675 225.352C100.675 223.992 100.971 222.792 101.563 221.752C102.171 220.712 102.995 219.912 104.035 219.352C105.075 218.776 106.235 218.488 107.515 218.488C108.795 218.488 109.955 218.776 110.995 219.352C112.035 219.912 112.851 220.712 113.443 221.752C114.051 222.792 114.355 223.992 114.355 225.352C114.355 226.712 114.043 227.912 113.419 228.952C112.811 229.992 111.979 230.8 110.923 231.376C109.883 231.936 108.715 232.216 107.419 232.216ZM107.419 229.288C108.027 229.288 108.595 229.144 109.123 228.856C109.667 228.552 110.099 228.104 110.419 227.512C110.739 226.92 110.899 226.2 110.899 225.352C110.899 224.088 110.563 223.12 109.891 222.448C109.235 221.76 108.427 221.416 107.467 221.416C106.507 221.416 105.699 221.76 105.043 222.448C104.403 223.12 104.083 224.088 104.083 225.352C104.083 226.616 104.395 227.592 105.019 228.28C105.659 228.952 106.459 229.288 107.419 229.288ZM122.028 218.488C123.02 218.488 123.892 218.688 124.644 219.088C125.396 219.472 125.988 219.976 126.42 220.6V218.704H129.804V232.096C129.804 233.328 129.556 234.424 129.06 235.384C128.564 236.36 127.82 237.128 126.828 237.688C125.836 238.264 124.636 238.552 123.228 238.552C121.34 238.552 119.788 238.112 118.572 237.232C117.372 236.352 116.692 235.152 116.532 233.632H119.868C120.044 234.24 120.42 234.72 120.996 235.072C121.588 235.44 122.3 235.624 123.132 235.624C124.108 235.624 124.9 235.328 125.508 234.736C126.116 234.16 126.42 233.28 126.42 232.096V230.032C125.988 230.656 125.388 231.176 124.62 231.592C123.868 232.008 123.004 232.216 122.028 232.216C120.908 232.216 119.884 231.928 118.956 231.352C118.028 230.776 117.292 229.968 116.748 228.928C116.22 227.872 115.956 226.664 115.956 225.304C115.956 223.96 116.22 222.768 116.748 221.728C117.292 220.688 118.02 219.888 118.932 219.328C119.86 218.768 120.892 218.488 122.028 218.488ZM126.42 225.352C126.42 224.536 126.26 223.84 125.94 223.264C125.62 222.672 125.188 222.224 124.644 221.92C124.1 221.6 123.516 221.44 122.892 221.44C122.268 221.44 121.692 221.592 121.164 221.896C120.636 222.2 120.204 222.648 119.868 223.24C119.548 223.816 119.388 224.504 119.388 225.304C119.388 226.104 119.548 226.808 119.868 227.416C120.204 228.008 120.636 228.464 121.164 228.784C121.708 229.104 122.284 229.264 122.892 229.264C123.516 229.264 124.1 229.112 124.644 228.808C125.188 228.488 125.62 228.04 125.94 227.464C126.26 226.872 126.42 226.168 126.42 225.352ZM145.806 218.704L137.574 238.288H133.998L136.878 231.664L131.55 218.704H135.318L138.75 227.992L142.23 218.704H145.806Z" />
</svg>
