<svg width="154" height="199" viewBox="0 0 154 199" fill="none" xmlns="http://www.w3.org/2000/svg">
<path d="M66.04 52.8V46.16H81.08V104H73.72V52.8H66.04Z" fill="white" fill-opacity="0.5"/>
<path d="M66.04 52.8H64.04V54.8H66.04V52.8ZM66.04 46.16V44.16H64.04V46.16H66.04ZM81.08 46.16H83.08V44.16H81.08V46.16ZM81.08 104V106H83.08V104H81.08ZM73.72 104H71.72V106H73.72V104ZM73.72 52.8H75.72V50.8H73.72V52.8ZM68.04 52.8V46.16H64.04V52.8H68.04ZM66.04 48.16H81.08V44.16H66.04V48.16ZM79.08 46.16V104H83.08V46.16H79.08ZM81.08 102H73.72V106H81.08V102ZM75.72 104V52.8H71.72V104H75.72ZM73.72 50.8H66.04V54.8H73.72V50.8Z" fill="white" fill-opacity="0.5"/>
<path d="M75.4583 146.917C34.9367 146.917 2 113.98 2 73.4583C2 32.9367 34.9367 0 75.4583 0C115.98 0 148.917 32.9367 148.917 73.4583C148.917 113.98 115.98 146.917 75.4583 146.917ZM75.4583 10.25C40.6083 10.25 12.25 38.6083 12.25 73.4583C12.25 108.308 40.6083 136.667 75.4583 136.667C110.308 136.667 138.667 108.308 138.667 73.4583C138.667 38.6083 110.308 10.25 75.4583 10.25Z" fill="white" fill-opacity="0.5"/>
<path d="M14.0322 177.432C14.0322 178.328 13.8162 179.168 13.3842 179.952C12.9682 180.736 12.3042 181.368 11.3922 181.848C10.4962 182.328 9.36016 182.568 7.98416 182.568H5.17616V189H1.81616V172.248H7.98416C9.28016 172.248 10.3842 172.472 11.2962 172.92C12.2082 173.368 12.8882 173.984 13.3362 174.768C13.8002 175.552 14.0322 176.44 14.0322 177.432ZM7.84016 179.856C8.76816 179.856 9.45616 179.648 9.90416 179.232C10.3522 178.8 10.5762 178.2 10.5762 177.432C10.5762 175.8 9.66416 174.984 7.84016 174.984H5.17616V179.856H7.84016ZM19.7777 177.768C20.2097 177.064 20.7697 176.512 21.4577 176.112C22.1617 175.712 22.9617 175.512 23.8577 175.512V179.04H22.9697C21.9137 179.04 21.1137 179.288 20.5697 179.784C20.0417 180.28 19.7777 181.144 19.7777 182.376V189H16.4177V175.704H19.7777V177.768ZM27.8248 174.12C27.2328 174.12 26.7368 173.936 26.3368 173.568C25.9528 173.184 25.7608 172.712 25.7608 172.152C25.7608 171.592 25.9528 171.128 26.3368 170.76C26.7368 170.376 27.2328 170.184 27.8248 170.184C28.4168 170.184 28.9048 170.376 29.2888 170.76C29.6888 171.128 29.8888 171.592 29.8888 172.152C29.8888 172.712 29.6888 173.184 29.2888 173.568C28.9048 173.936 28.4168 174.12 27.8248 174.12ZM29.4808 175.704V189H26.1208V175.704H29.4808ZM38.7045 189.216C37.4245 189.216 36.2725 188.936 35.2485 188.376C34.2245 187.8 33.4165 186.992 32.8245 185.952C32.2485 184.912 31.9605 183.712 31.9605 182.352C31.9605 180.992 32.2565 179.792 32.8485 178.752C33.4565 177.712 34.2805 176.912 35.3205 176.352C36.3605 175.776 37.5205 175.488 38.8005 175.488C40.0805 175.488 41.2405 175.776 42.2805 176.352C43.3205 176.912 44.1365 177.712 44.7285 178.752C45.3365 179.792 45.6405 180.992 45.6405 182.352C45.6405 183.712 45.3285 184.912 44.7045 185.952C44.0965 186.992 43.2645 187.8 42.2085 188.376C41.1685 188.936 40.0005 189.216 38.7045 189.216ZM38.7045 186.288C39.3125 186.288 39.8805 186.144 40.4085 185.856C40.9525 185.552 41.3845 185.104 41.7045 184.512C42.0245 183.92 42.1845 183.2 42.1845 182.352C42.1845 181.088 41.8485 180.12 41.1765 179.448C40.5205 178.76 39.7125 178.416 38.7525 178.416C37.7925 178.416 36.9845 178.76 36.3285 179.448C35.6885 180.12 35.3685 181.088 35.3685 182.352C35.3685 183.616 35.6805 184.592 36.3045 185.28C36.9445 185.952 37.7445 186.288 38.7045 186.288ZM51.4652 177.768C51.8972 177.064 52.4572 176.512 53.1452 176.112C53.8492 175.712 54.6492 175.512 55.5452 175.512V179.04H54.6572C53.6012 179.04 52.8012 179.288 52.2572 179.784C51.7292 180.28 51.4652 181.144 51.4652 182.376V189H48.1052V175.704H51.4652V177.768ZM59.5123 174.12C58.9203 174.12 58.4243 173.936 58.0243 173.568C57.6403 173.184 57.4483 172.712 57.4483 172.152C57.4483 171.592 57.6403 171.128 58.0243 170.76C58.4243 170.376 58.9203 170.184 59.5123 170.184C60.1043 170.184 60.5923 170.376 60.9763 170.76C61.3763 171.128 61.5763 171.592 61.5763 172.152C61.5763 172.712 61.3763 173.184 60.9763 173.568C60.5923 173.936 60.1043 174.12 59.5123 174.12ZM61.1683 175.704V189H57.8083V175.704H61.1683ZM68.4 178.464V184.896C68.4 185.344 68.504 185.672 68.712 185.88C68.936 186.072 69.304 186.168 69.816 186.168H71.376V189H69.264C66.432 189 65.016 187.624 65.016 184.872V178.464H63.432V175.704H65.016V172.416H68.4V175.704H71.376V178.464H68.4ZM75.4967 174.12C74.9047 174.12 74.4087 173.936 74.0087 173.568C73.6247 173.184 73.4327 172.712 73.4327 172.152C73.4327 171.592 73.6247 171.128 74.0087 170.76C74.4087 170.376 74.9047 170.184 75.4967 170.184C76.0887 170.184 76.5767 170.376 76.9607 170.76C77.3607 171.128 77.5607 171.592 77.5607 172.152C77.5607 172.712 77.3607 173.184 76.9607 173.568C76.5767 173.936 76.0887 174.12 75.4967 174.12ZM77.1527 175.704V189H73.7927V175.704H77.1527ZM83.5444 186.24H89.4724V189H79.7284V186.288L85.5364 178.464H79.7524V175.704H89.4004V178.416L83.5444 186.24ZM91.21 182.304C91.21 180.96 91.474 179.768 92.002 178.728C92.546 177.688 93.274 176.888 94.186 176.328C95.114 175.768 96.146 175.488 97.282 175.488C98.274 175.488 99.138 175.688 99.874 176.088C100.626 176.488 101.226 176.992 101.674 177.6V175.704H105.058V189H101.674V187.056C101.242 187.68 100.642 188.2 99.874 188.616C99.122 189.016 98.25 189.216 97.258 189.216C96.138 189.216 95.114 188.928 94.186 188.352C93.274 187.776 92.546 186.968 92.002 185.928C91.474 184.872 91.21 183.664 91.21 182.304ZM101.674 182.352C101.674 181.536 101.514 180.84 101.194 180.264C100.874 179.672 100.442 179.224 99.898 178.92C99.354 178.6 98.77 178.44 98.146 178.44C97.522 178.44 96.946 178.592 96.418 178.896C95.89 179.2 95.458 179.648 95.122 180.24C94.802 180.816 94.642 181.504 94.642 182.304C94.642 183.104 94.802 183.808 95.122 184.416C95.458 185.008 95.89 185.464 96.418 185.784C96.962 186.104 97.538 186.264 98.146 186.264C98.77 186.264 99.354 186.112 99.898 185.808C100.442 185.488 100.874 185.04 101.194 184.464C101.514 183.872 101.674 183.168 101.674 182.352ZM112.252 178.464V184.896C112.252 185.344 112.356 185.672 112.564 185.88C112.788 186.072 113.156 186.168 113.668 186.168H115.228V189H113.116C110.284 189 108.868 187.624 108.868 184.872V178.464H107.284V175.704H108.868V172.416H112.252V175.704H115.228V178.464H112.252ZM119.348 174.12C118.756 174.12 118.26 173.936 117.86 173.568C117.476 173.184 117.284 172.712 117.284 172.152C117.284 171.592 117.476 171.128 117.86 170.76C118.26 170.376 118.756 170.184 119.348 170.184C119.94 170.184 120.428 170.376 120.812 170.76C121.212 171.128 121.412 171.592 121.412 172.152C121.412 172.712 121.212 173.184 120.812 173.568C120.428 173.936 119.94 174.12 119.348 174.12ZM121.004 175.704V189H117.644V175.704H121.004ZM130.228 189.216C128.948 189.216 127.796 188.936 126.772 188.376C125.748 187.8 124.94 186.992 124.348 185.952C123.772 184.912 123.484 183.712 123.484 182.352C123.484 180.992 123.78 179.792 124.372 178.752C124.98 177.712 125.804 176.912 126.844 176.352C127.884 175.776 129.044 175.488 130.324 175.488C131.604 175.488 132.764 175.776 133.804 176.352C134.844 176.912 135.66 177.712 136.252 178.752C136.86 179.792 137.164 180.992 137.164 182.352C137.164 183.712 136.852 184.912 136.228 185.952C135.62 186.992 134.788 187.8 133.732 188.376C132.692 188.936 131.524 189.216 130.228 189.216ZM130.228 186.288C130.836 186.288 131.404 186.144 131.932 185.856C132.476 185.552 132.908 185.104 133.228 184.512C133.548 183.92 133.708 183.2 133.708 182.352C133.708 181.088 133.372 180.12 132.7 179.448C132.044 178.76 131.236 178.416 130.276 178.416C129.316 178.416 128.508 178.76 127.852 179.448C127.212 180.12 126.892 181.088 126.892 182.352C126.892 183.616 127.204 184.592 127.828 185.28C128.468 185.952 129.268 186.288 130.228 186.288ZM146.997 175.512C148.581 175.512 149.861 176.016 150.837 177.024C151.813 178.016 152.301 179.408 152.301 181.2V189H148.941V181.656C148.941 180.6 148.677 179.792 148.149 179.232C147.621 178.656 146.901 178.368 145.989 178.368C145.061 178.368 144.325 178.656 143.781 179.232C143.253 179.792 142.989 180.6 142.989 181.656V189H139.629V175.704H142.989V177.36C143.437 176.784 144.005 176.336 144.693 176.016C145.397 175.68 146.165 175.512 146.997 175.512Z" fill="white" fill-opacity="0.5"/>
</svg>
