<svg width="156" height="180" viewBox="0 0 176 200" fill="none" xmlns="http://www.w3.org/2000/svg">
<path d="M125.859 50.4727C125.668 50.4727 125.54 50.4727 125.349 50.4727H125.03C112.97 50.0898 103.973 40.7736 103.973 29.2878C103.973 17.5467 113.544 8.03906 125.221 8.03906C136.899 8.03906 146.47 17.6106 146.47 29.2878C146.406 40.8374 137.409 50.1536 125.923 50.5365C125.923 50.4727 125.923 50.4727 125.859 50.4727ZM125.221 17.5468C118.777 17.5468 113.544 22.7792 113.544 29.224C113.544 35.5412 118.458 40.646 124.775 40.9012C124.839 40.8374 125.349 40.8374 125.923 40.9012C132.113 40.5822 136.899 35.4774 136.962 29.224C136.962 22.7792 131.73 17.5468 125.221 17.5468Z"/>
<path d="M125.925 97.5064C123.436 97.5064 120.948 97.3149 118.459 96.8682C115.843 96.4216 114.12 93.933 114.567 91.3168C115.013 88.7006 117.502 86.9777 120.118 87.4244C127.967 88.7644 136.262 87.2968 141.813 83.5959C144.812 81.6178 146.408 79.1291 146.408 76.6405C146.408 74.1519 144.749 71.7271 141.813 69.749C136.262 66.0481 127.839 64.5805 119.927 65.9843C117.31 66.4948 114.822 64.7081 114.375 62.0919C113.928 59.4757 115.651 56.9871 118.268 56.5404C128.669 54.6899 139.452 56.668 147.11 61.7728C152.725 65.5376 155.979 70.8976 155.979 76.6405C155.979 82.3196 152.789 87.7435 147.11 91.5721C141.303 95.4007 133.773 97.5064 125.925 97.5064Z"/>
<path d="M49.0963 50.472C49.0325 50.472 48.9687 50.472 48.9687 50.472C37.4829 50.0892 28.4857 40.7729 28.4219 29.2871C28.4219 17.5461 37.9934 7.97461 49.6706 7.97461C61.3478 7.97461 70.9193 17.5461 70.9193 29.2233C70.9193 40.7729 61.9221 50.0892 50.4363 50.472L49.0963 45.6863L49.543 50.472C49.4153 50.472 49.2239 50.472 49.0963 50.472ZM49.7344 40.9005C50.1172 40.9005 50.4363 40.9005 50.8192 40.9643C56.4982 40.7091 61.4754 35.6043 61.4754 29.2871C61.4754 22.8423 56.243 17.6099 49.7982 17.6099C43.3534 17.6099 38.121 22.8423 38.121 29.2871C38.121 35.5405 42.9705 40.5815 49.1601 40.9643C49.2239 40.9005 49.4791 40.9005 49.7344 40.9005Z"/>
<path d="M49.0291 97.5064C41.1804 97.5064 33.6509 95.4007 27.8442 91.5721C22.2289 87.8073 18.9746 82.3834 18.9746 76.6405C18.9746 70.9614 22.2289 65.5376 27.8442 61.7728C35.5014 56.668 46.2852 54.6899 56.6863 56.5404C59.3025 56.9871 61.0253 59.4757 60.5787 62.0919C60.132 64.7081 57.6434 66.4948 55.0272 65.9843C47.1148 64.5805 38.7557 66.0481 33.1404 69.749C30.1413 71.7271 28.5461 74.1519 28.5461 76.6405C28.5461 79.1291 30.2052 81.6178 33.1404 83.5959C38.6919 87.2968 46.9871 88.7644 54.8358 87.4244C57.452 86.9777 59.9406 88.7644 60.3872 91.3168C60.8339 93.933 59.111 96.4216 56.4948 96.8682C54.0062 97.3149 51.5177 97.5064 49.0291 97.5064Z"/>
<path d="M87.5723 98.1446C87.3809 98.1446 87.2533 98.1446 87.0619 98.1446H86.7428C74.6827 97.7617 65.6855 88.4454 65.6855 76.9596C65.6855 65.2186 75.257 55.7109 86.9343 55.7109C98.6115 55.7109 108.183 65.2824 108.183 76.9596C108.119 88.5092 99.1219 97.8255 87.6361 98.2084C87.6361 98.1445 87.6362 98.1446 87.5723 98.1446ZM86.9343 65.2186C80.4895 65.2186 75.257 70.4511 75.257 76.8959C75.257 83.2131 80.1704 88.3179 86.4876 88.5731C86.5514 88.5093 87.0619 88.5093 87.6361 88.5731C93.8257 88.254 98.6115 83.1492 98.6753 76.8959C98.6753 70.5149 93.4429 65.2186 86.9343 65.2186Z" />
<path d="M87.5675 145.236C79.9103 145.236 72.2531 143.258 66.3188 139.238C60.7035 135.473 57.4492 130.113 57.4492 124.37C57.4492 118.691 60.6397 113.203 66.3188 109.438C78.2512 101.526 96.9476 101.526 108.816 109.438C114.431 113.203 117.686 118.563 117.686 124.306C117.686 129.985 114.495 135.473 108.816 139.238C102.882 143.194 95.2247 145.236 87.5675 145.236ZM71.615 117.478C68.616 119.456 67.0207 121.945 67.0207 124.434C67.0207 126.922 68.6798 129.347 71.615 131.325C80.2294 137.132 94.8418 137.132 103.456 131.325C106.455 129.347 108.05 126.858 108.05 124.37C108.05 121.881 106.391 119.456 103.456 117.478C94.9056 111.672 80.2932 111.735 71.615 117.478Z" />
<path d="M13.2943 173.248V175.96H8.83028V190H5.47028V175.96H1.00628V173.248H13.2943ZM28.1058 183.064C28.1058 183.544 28.0738 183.976 28.0098 184.36H18.2898C18.3698 185.32 18.7058 186.072 19.2978 186.616C19.8898 187.16 20.6178 187.432 21.4818 187.432C22.7298 187.432 23.6178 186.896 24.1458 185.824H27.7698C27.3858 187.104 26.6498 188.16 25.5618 188.992C24.4738 189.808 23.1378 190.216 21.5538 190.216C20.2738 190.216 19.1218 189.936 18.0978 189.376C17.0898 188.8 16.2978 187.992 15.7218 186.952C15.1618 185.912 14.8818 184.712 14.8818 183.352C14.8818 181.976 15.1618 180.768 15.7218 179.728C16.2818 178.688 17.0658 177.888 18.0738 177.328C19.0818 176.768 20.2418 176.488 21.5538 176.488C22.8178 176.488 23.9458 176.76 24.9378 177.304C25.9458 177.848 26.7218 178.624 27.2658 179.632C27.8258 180.624 28.1058 181.768 28.1058 183.064ZM24.6258 182.104C24.6098 181.24 24.2978 180.552 23.6898 180.04C23.0818 179.512 22.3378 179.248 21.4578 179.248C20.6258 179.248 19.9218 179.504 19.3458 180.016C18.7858 180.512 18.4418 181.208 18.3138 182.104H24.6258ZM29.6943 183.304C29.6943 181.96 29.9583 180.768 30.4863 179.728C31.0303 178.688 31.7583 177.888 32.6703 177.328C33.5983 176.768 34.6303 176.488 35.7663 176.488C36.7583 176.488 37.6223 176.688 38.3583 177.088C39.1103 177.488 39.7103 177.992 40.1583 178.6V176.704H43.5423V190H40.1583V188.056C39.7263 188.68 39.1263 189.2 38.3583 189.616C37.6063 190.016 36.7343 190.216 35.7423 190.216C34.6223 190.216 33.5983 189.928 32.6703 189.352C31.7583 188.776 31.0303 187.968 30.4863 186.928C29.9583 185.872 29.6943 184.664 29.6943 183.304ZM40.1583 183.352C40.1583 182.536 39.9983 181.84 39.6783 181.264C39.3583 180.672 38.9263 180.224 38.3823 179.92C37.8383 179.6 37.2543 179.44 36.6303 179.44C36.0063 179.44 35.4303 179.592 34.9023 179.896C34.3743 180.2 33.9423 180.648 33.6063 181.24C33.2863 181.816 33.1263 182.504 33.1263 183.304C33.1263 184.104 33.2863 184.808 33.6063 185.416C33.9423 186.008 34.3743 186.464 34.9023 186.784C35.4463 187.104 36.0223 187.264 36.6303 187.264C37.2543 187.264 37.8383 187.112 38.3823 186.808C38.9263 186.488 39.3583 186.04 39.6783 185.464C39.9983 184.872 40.1583 184.168 40.1583 183.352ZM63.336 176.512C64.968 176.512 66.28 177.016 67.272 178.024C68.28 179.016 68.784 180.408 68.784 182.2V190H65.424V182.656C65.424 181.616 65.16 180.824 64.632 180.28C64.104 179.72 63.384 179.44 62.472 179.44C61.56 179.44 60.832 179.72 60.288 180.28C59.76 180.824 59.496 181.616 59.496 182.656V190H56.136V182.656C56.136 181.616 55.872 180.824 55.344 180.28C54.816 179.72 54.096 179.44 53.184 179.44C52.256 179.44 51.52 179.72 50.976 180.28C50.448 180.824 50.184 181.616 50.184 182.656V190H46.824V176.704H50.184V178.312C50.616 177.752 51.168 177.312 51.84 176.992C52.528 176.672 53.28 176.512 54.096 176.512C55.136 176.512 56.064 176.736 56.88 177.184C57.696 177.616 58.328 178.24 58.776 179.056C59.208 178.288 59.832 177.672 60.648 177.208C61.48 176.744 62.376 176.512 63.336 176.512ZM87.1952 181.408C88.1392 181.584 88.9152 182.056 89.5232 182.824C90.1312 183.592 90.4352 184.472 90.4352 185.464C90.4352 186.36 90.2112 187.152 89.7632 187.84C89.3312 188.512 88.6992 189.04 87.8672 189.424C87.0352 189.808 86.0512 190 84.9152 190H77.6912V173.248H84.6032C85.7392 173.248 86.7152 173.432 87.5312 173.8C88.3632 174.168 88.9872 174.68 89.4032 175.336C89.8352 175.992 90.0512 176.736 90.0512 177.568C90.0512 178.544 89.7872 179.36 89.2592 180.016C88.7472 180.672 88.0592 181.136 87.1952 181.408ZM81.0512 180.16H84.1232C84.9232 180.16 85.5392 179.984 85.9712 179.632C86.4032 179.264 86.6192 178.744 86.6192 178.072C86.6192 177.4 86.4032 176.88 85.9712 176.512C85.5392 176.144 84.9232 175.96 84.1232 175.96H81.0512V180.16ZM84.4352 187.264C85.2512 187.264 85.8832 187.072 86.3312 186.688C86.7952 186.304 87.0272 185.76 87.0272 185.056C87.0272 184.336 86.7872 183.776 86.3072 183.376C85.8272 182.96 85.1792 182.752 84.3632 182.752H81.0512V187.264H84.4352ZM105.665 176.704V190H102.281V188.32C101.849 188.896 101.281 189.352 100.577 189.688C99.889 190.008 99.137 190.168 98.321 190.168C97.281 190.168 96.361 189.952 95.561 189.52C94.761 189.072 94.129 188.424 93.665 187.576C93.217 186.712 92.993 185.688 92.993 184.504V176.704H96.353V184.024C96.353 185.08 96.617 185.896 97.145 186.472C97.673 187.032 98.393 187.312 99.305 187.312C100.233 187.312 100.961 187.032 101.489 186.472C102.017 185.896 102.281 185.08 102.281 184.024V176.704H105.665ZM110.684 175.12C110.092 175.12 109.596 174.936 109.196 174.568C108.812 174.184 108.62 173.712 108.62 173.152C108.62 172.592 108.812 172.128 109.196 171.76C109.596 171.376 110.092 171.184 110.684 171.184C111.276 171.184 111.764 171.376 112.148 171.76C112.548 172.128 112.748 172.592 112.748 173.152C112.748 173.712 112.548 174.184 112.148 174.568C111.764 174.936 111.276 175.12 110.684 175.12ZM112.34 176.704V190H108.98V176.704H112.34ZM119.02 172.24V190H115.66V172.24H119.02ZM121.476 183.304C121.476 181.96 121.74 180.768 122.268 179.728C122.812 178.688 123.548 177.888 124.476 177.328C125.404 176.768 126.436 176.488 127.572 176.488C128.436 176.488 129.26 176.68 130.044 177.064C130.828 177.432 131.452 177.928 131.916 178.552V172.24H135.324V190H131.916V188.032C131.5 188.688 130.916 189.216 130.164 189.616C129.412 190.016 128.54 190.216 127.548 190.216C126.428 190.216 125.404 189.928 124.476 189.352C123.548 188.776 122.812 187.968 122.268 186.928C121.74 185.872 121.476 184.664 121.476 183.304ZM131.94 183.352C131.94 182.536 131.78 181.84 131.46 181.264C131.14 180.672 130.708 180.224 130.164 179.92C129.62 179.6 129.036 179.44 128.412 179.44C127.788 179.44 127.212 179.592 126.684 179.896C126.156 180.2 125.724 180.648 125.388 181.24C125.068 181.816 124.908 182.504 124.908 183.304C124.908 184.104 125.068 184.808 125.388 185.416C125.724 186.008 126.156 186.464 126.684 186.784C127.228 187.104 127.804 187.264 128.412 187.264C129.036 187.264 129.62 187.112 130.164 186.808C130.708 186.488 131.14 186.04 131.46 185.464C131.78 184.872 131.94 184.168 131.94 183.352ZM140.309 175.12C139.717 175.12 139.221 174.936 138.821 174.568C138.437 174.184 138.245 173.712 138.245 173.152C138.245 172.592 138.437 172.128 138.821 171.76C139.221 171.376 139.717 171.184 140.309 171.184C140.901 171.184 141.389 171.376 141.773 171.76C142.173 172.128 142.373 172.592 142.373 173.152C142.373 173.712 142.173 174.184 141.773 174.568C141.389 174.936 140.901 175.12 140.309 175.12ZM141.965 176.704V190H138.605V176.704H141.965ZM152.653 176.512C154.237 176.512 155.517 177.016 156.493 178.024C157.469 179.016 157.957 180.408 157.957 182.2V190H154.597V182.656C154.597 181.6 154.333 180.792 153.805 180.232C153.277 179.656 152.557 179.368 151.645 179.368C150.717 179.368 149.981 179.656 149.437 180.232C148.909 180.792 148.645 181.6 148.645 182.656V190H145.285V176.704H148.645V178.36C149.093 177.784 149.661 177.336 150.349 177.016C151.053 176.68 151.821 176.512 152.653 176.512ZM166.36 176.488C167.352 176.488 168.224 176.688 168.976 177.088C169.728 177.472 170.32 177.976 170.752 178.6V176.704H174.136V190.096C174.136 191.328 173.888 192.424 173.392 193.384C172.896 194.36 172.152 195.128 171.16 195.688C170.168 196.264 168.968 196.552 167.56 196.552C165.672 196.552 164.12 196.112 162.904 195.232C161.704 194.352 161.024 193.152 160.864 191.632H164.2C164.376 192.24 164.752 192.72 165.328 193.072C165.92 193.44 166.632 193.624 167.464 193.624C168.44 193.624 169.232 193.328 169.84 192.736C170.448 192.16 170.752 191.28 170.752 190.096V188.032C170.32 188.656 169.72 189.176 168.952 189.592C168.2 190.008 167.336 190.216 166.36 190.216C165.24 190.216 164.216 189.928 163.288 189.352C162.36 188.776 161.624 187.968 161.08 186.928C160.552 185.872 160.288 184.664 160.288 183.304C160.288 181.96 160.552 180.768 161.08 179.728C161.624 178.688 162.352 177.888 163.264 177.328C164.192 176.768 165.224 176.488 166.36 176.488ZM170.752 183.352C170.752 182.536 170.592 181.84 170.272 181.264C169.952 180.672 169.52 180.224 168.976 179.92C168.432 179.6 167.848 179.44 167.224 179.44C166.6 179.44 166.024 179.592 165.496 179.896C164.968 180.2 164.536 180.648 164.2 181.24C163.88 181.816 163.72 182.504 163.72 183.304C163.72 184.104 163.88 184.808 164.2 185.416C164.536 186.008 164.968 186.464 165.496 186.784C166.04 187.104 166.616 187.264 167.224 187.264C167.848 187.264 168.432 187.112 168.976 186.808C169.52 186.488 169.952 186.04 170.272 185.464C170.592 184.872 170.752 184.168 170.752 183.352Z" />
</svg>
