<svg width="147" height="235" viewBox="0 0 147 235" fill="none" xmlns="http://www.w3.org/2000/svg">
<path d="M83.0267 110.496H65.8751C54.6684 110.496 45.5801 101.066 45.5801 89.449C45.5801 86.6474 47.9034 84.324 50.7051 84.324C53.5067 84.324 55.8301 86.6474 55.8301 89.449C55.8301 95.394 60.3401 100.246 65.8751 100.246H83.0267C87.4684 100.246 91.1584 96.2824 91.1584 91.499C91.1584 85.554 89.0401 84.3924 85.5551 83.1624L58.0167 73.459C52.6867 71.614 45.5117 67.6507 45.5117 55.419C45.5117 44.8957 53.7801 36.4224 63.8934 36.4224H81.045C92.2517 36.4224 101.34 45.8524 101.34 57.469C101.34 60.2707 99.0167 62.594 96.215 62.594C93.4134 62.594 91.09 60.2707 91.09 57.469C91.09 51.524 86.58 46.6724 81.045 46.6724H63.8934C59.4517 46.6724 55.7617 50.6357 55.7617 55.419C55.7617 61.364 57.88 62.5257 61.365 63.7557L88.9034 73.459C94.2334 75.304 101.408 79.2674 101.408 91.499C101.34 101.954 93.14 110.496 83.0267 110.496Z" fill="white" fill-opacity="0.5"/>
<path d="M73.459 119.583C70.6573 119.583 68.334 117.26 68.334 114.458V32.4585C68.334 29.6568 70.6573 27.3335 73.459 27.3335C76.2607 27.3335 78.584 29.6568 78.584 32.4585V114.458C78.584 117.26 76.2607 119.583 73.459 119.583Z" fill="white" fill-opacity="0.5"/>
<path d="M73.4583 146.917C32.9367 146.917 0 113.98 0 73.4583C0 32.9367 32.9367 0 73.4583 0C113.98 0 146.917 32.9367 146.917 73.4583C146.917 113.98 113.98 146.917 73.4583 146.917ZM73.4583 10.25C38.6083 10.25 10.25 38.6083 10.25 73.4583C10.25 108.308 38.6083 136.667 73.4583 136.667C108.308 136.667 136.667 108.308 136.667 73.4583C136.667 38.6083 108.308 10.25 73.4583 10.25Z" fill="white" fill-opacity="0.5"/>
<path d="M39.6913 180.408C40.6353 180.584 41.4113 181.056 42.0193 181.824C42.6273 182.592 42.9313 183.472 42.9313 184.464C42.9313 185.36 42.7073 186.152 42.2593 186.84C41.8273 187.512 41.1953 188.04 40.3633 188.424C39.5313 188.808 38.5473 189 37.4113 189H30.1873V172.248H37.0993C38.2353 172.248 39.2113 172.432 40.0273 172.8C40.8593 173.168 41.4833 173.68 41.8993 174.336C42.3313 174.992 42.5473 175.736 42.5473 176.568C42.5473 177.544 42.2833 178.36 41.7552 179.016C41.2433 179.672 40.5553 180.136 39.6913 180.408ZM33.5473 179.16H36.6193C37.4193 179.16 38.0353 178.984 38.4673 178.632C38.8993 178.264 39.1153 177.744 39.1153 177.072C39.1153 176.4 38.8993 175.88 38.4673 175.512C38.0353 175.144 37.4193 174.96 36.6193 174.96H33.5473V179.16ZM36.9313 186.264C37.7473 186.264 38.3793 186.072 38.8273 185.688C39.2913 185.304 39.5233 184.76 39.5233 184.056C39.5233 183.336 39.2833 182.776 38.8033 182.376C38.3233 181.96 37.6753 181.752 36.8593 181.752H33.5473V186.264H36.9313ZM58.1611 175.704V189H54.7771V187.32C54.3451 187.896 53.7771 188.352 53.0731 188.688C52.3851 189.008 51.6331 189.168 50.8171 189.168C49.7771 189.168 48.8571 188.952 48.0571 188.52C47.2571 188.072 46.6251 187.424 46.1611 186.576C45.7131 185.712 45.4891 184.688 45.4891 183.504V175.704H48.8491V183.024C48.8491 184.08 49.1131 184.896 49.6411 185.472C50.1691 186.032 50.8891 186.312 51.8011 186.312C52.7291 186.312 53.4571 186.032 53.9851 185.472C54.5131 184.896 54.7771 184.08 54.7771 183.024V175.704H58.1611ZM60.6123 182.304C60.6123 180.96 60.8763 179.768 61.4043 178.728C61.9483 177.688 62.6843 176.888 63.6123 176.328C64.5403 175.768 65.5723 175.488 66.7083 175.488C67.5723 175.488 68.3963 175.68 69.1803 176.064C69.9643 176.432 70.5883 176.928 71.0523 177.552V171.24H74.4603V189H71.0523V187.032C70.6363 187.688 70.0523 188.216 69.3003 188.616C68.5483 189.016 67.6763 189.216 66.6843 189.216C65.5643 189.216 64.5403 188.928 63.6123 188.352C62.6843 187.776 61.9483 186.968 61.4043 185.928C60.8763 184.872 60.6123 183.664 60.6123 182.304ZM71.0763 182.352C71.0763 181.536 70.9163 180.84 70.5963 180.264C70.2763 179.672 69.8443 179.224 69.3003 178.92C68.7563 178.6 68.1723 178.44 67.5483 178.44C66.9243 178.44 66.3483 178.592 65.8203 178.896C65.2923 179.2 64.8603 179.648 64.5243 180.24C64.2043 180.816 64.0443 181.504 64.0443 182.304C64.0443 183.104 64.2043 183.808 64.5243 184.416C64.8603 185.008 65.2923 185.464 65.8203 185.784C66.3643 186.104 66.9403 186.264 67.5483 186.264C68.1723 186.264 68.7563 186.112 69.3003 185.808C69.8443 185.488 70.2763 185.04 70.5963 184.464C70.9163 183.872 71.0763 183.168 71.0763 182.352ZM82.9499 175.488C83.9419 175.488 84.8139 175.688 85.5659 176.088C86.3179 176.472 86.9099 176.976 87.3419 177.6V175.704H90.7259V189.096C90.7259 190.328 90.4779 191.424 89.9819 192.384C89.4859 193.36 88.7419 194.128 87.7499 194.688C86.7579 195.264 85.5579 195.552 84.1499 195.552C82.2619 195.552 80.7099 195.112 79.4939 194.232C78.2939 193.352 77.6139 192.152 77.4539 190.632H80.7899C80.9659 191.24 81.3419 191.72 81.9179 192.072C82.5099 192.44 83.2219 192.624 84.0539 192.624C85.0299 192.624 85.8219 192.328 86.4299 191.736C87.0379 191.16 87.3419 190.28 87.3419 189.096V187.032C86.9099 187.656 86.3099 188.176 85.5419 188.592C84.7899 189.008 83.9259 189.216 82.9499 189.216C81.8299 189.216 80.8059 188.928 79.8779 188.352C78.9499 187.776 78.2139 186.968 77.6699 185.928C77.1419 184.872 76.8779 183.664 76.8779 182.304C76.8779 180.96 77.1419 179.768 77.6699 178.728C78.2139 177.688 78.9419 176.888 79.8539 176.328C80.7819 175.768 81.8139 175.488 82.9499 175.488ZM87.3419 182.352C87.3419 181.536 87.1819 180.84 86.8619 180.264C86.5419 179.672 86.1099 179.224 85.5659 178.92C85.0219 178.6 84.4379 178.44 83.8139 178.44C83.1899 178.44 82.6139 178.592 82.0859 178.896C81.5579 179.2 81.1259 179.648 80.7899 180.24C80.4699 180.816 80.3099 181.504 80.3099 182.304C80.3099 183.104 80.4699 183.808 80.7899 184.416C81.1259 185.008 81.5579 185.464 82.0859 185.784C82.6299 186.104 83.2059 186.264 83.8139 186.264C84.4379 186.264 85.0219 186.112 85.5659 185.808C86.1099 185.488 86.5419 185.04 86.8619 184.464C87.1819 183.872 87.3419 183.168 87.3419 182.352ZM106.368 182.064C106.368 182.544 106.336 182.976 106.272 183.36H96.5516C96.6316 184.32 96.9676 185.072 97.5596 185.616C98.1516 186.16 98.8796 186.432 99.7436 186.432C100.992 186.432 101.88 185.896 102.408 184.824H106.032C105.648 186.104 104.912 187.16 103.824 187.992C102.736 188.808 101.4 189.216 99.8156 189.216C98.5356 189.216 97.3836 188.936 96.3596 188.376C95.3516 187.8 94.5596 186.992 93.9836 185.952C93.4236 184.912 93.1436 183.712 93.1436 182.352C93.1436 180.976 93.4236 179.768 93.9836 178.728C94.5436 177.688 95.3276 176.888 96.3356 176.328C97.3436 175.768 98.5036 175.488 99.8156 175.488C101.08 175.488 102.208 175.76 103.2 176.304C104.208 176.848 104.984 177.624 105.528 178.632C106.088 179.624 106.368 180.768 106.368 182.064ZM102.888 181.104C102.872 180.24 102.56 179.552 101.952 179.04C101.344 178.512 100.6 178.248 99.7196 178.248C98.8876 178.248 98.1836 178.504 97.6076 179.016C97.0476 179.512 96.7036 180.208 96.5756 181.104H102.888ZM112.732 178.464V184.896C112.732 185.344 112.836 185.672 113.044 185.88C113.268 186.072 113.636 186.168 114.148 186.168H115.708V189H113.596C110.764 189 109.348 187.624 109.348 184.872V178.464H107.764V175.704H109.348V172.416H112.732V175.704H115.708V178.464H112.732ZM32.3251 213.432C32.3251 214.328 32.1091 215.168 31.6771 215.952C31.2611 216.736 30.5971 217.368 29.6851 217.848C28.7891 218.328 27.6531 218.568 26.2771 218.568H23.4691V225H20.1091V208.248H26.2771C27.5731 208.248 28.6771 208.472 29.5891 208.92C30.5011 209.368 31.1811 209.984 31.6291 210.768C32.0931 211.552 32.3251 212.44 32.3251 213.432ZM26.1331 215.856C27.0611 215.856 27.7491 215.648 28.1971 215.232C28.6451 214.8 28.8691 214.2 28.8691 213.432C28.8691 211.8 27.9571 210.984 26.1331 210.984H23.4691V215.856H26.1331ZM38.0707 207.24V225H34.7107V207.24H38.0707ZM40.5264 218.304C40.5264 216.96 40.7904 215.768 41.3184 214.728C41.8624 213.688 42.5904 212.888 43.5024 212.328C44.4304 211.768 45.4624 211.488 46.5984 211.488C47.5904 211.488 48.4544 211.688 49.1904 212.088C49.9424 212.488 50.5424 212.992 50.9904 213.6V211.704H54.3744V225H50.9904V223.056C50.5584 223.68 49.9584 224.2 49.1904 224.616C48.4384 225.016 47.5664 225.216 46.5744 225.216C45.4544 225.216 44.4304 224.928 43.5024 224.352C42.5904 223.776 41.8624 222.968 41.3184 221.928C40.7904 220.872 40.5264 219.664 40.5264 218.304ZM50.9904 218.352C50.9904 217.536 50.8304 216.84 50.5104 216.264C50.1904 215.672 49.7584 215.224 49.2144 214.92C48.6704 214.6 48.0864 214.44 47.4624 214.44C46.8384 214.44 46.2624 214.592 45.7344 214.896C45.2064 215.2 44.7744 215.648 44.4384 216.24C44.1184 216.816 43.9584 217.504 43.9584 218.304C43.9584 219.104 44.1184 219.808 44.4384 220.416C44.7744 221.008 45.2064 221.464 45.7344 221.784C46.2784 222.104 46.8544 222.264 47.4624 222.264C48.0864 222.264 48.6704 222.112 49.2144 221.808C49.7584 221.488 50.1904 221.04 50.5104 220.464C50.8304 219.872 50.9904 219.168 50.9904 218.352ZM65.024 211.512C66.608 211.512 67.888 212.016 68.864 213.024C69.84 214.016 70.328 215.408 70.328 217.2V225H66.968V217.656C66.968 216.6 66.704 215.792 66.176 215.232C65.648 214.656 64.928 214.368 64.016 214.368C63.088 214.368 62.352 214.656 61.808 215.232C61.28 215.792 61.016 216.6 61.016 217.656V225H57.656V211.704H61.016V213.36C61.464 212.784 62.032 212.336 62.72 212.016C63.424 211.68 64.192 211.512 65.024 211.512ZM80.8912 211.512C82.4752 211.512 83.7552 212.016 84.7312 213.024C85.7072 214.016 86.1952 215.408 86.1952 217.2V225H82.8352V217.656C82.8352 216.6 82.5712 215.792 82.0432 215.232C81.5152 214.656 80.7952 214.368 79.8832 214.368C78.9552 214.368 78.2192 214.656 77.6752 215.232C77.1472 215.792 76.8832 216.6 76.8832 217.656V225H73.5232V211.704H76.8832V213.36C77.3312 212.784 77.8992 212.336 78.5872 212.016C79.2912 211.68 80.0592 211.512 80.8912 211.512ZM91.0944 210.12C90.5024 210.12 90.0064 209.936 89.6064 209.568C89.2224 209.184 89.0304 208.712 89.0304 208.152C89.0304 207.592 89.2224 207.128 89.6064 206.76C90.0064 206.376 90.5024 206.184 91.0944 206.184C91.6864 206.184 92.1744 206.376 92.5584 206.76C92.9584 207.128 93.1584 207.592 93.1584 208.152C93.1584 208.712 92.9584 209.184 92.5584 209.568C92.1744 209.936 91.6864 210.12 91.0944 210.12ZM92.7504 211.704V225H89.3904V211.704H92.7504ZM103.438 211.512C105.022 211.512 106.302 212.016 107.278 213.024C108.254 214.016 108.742 215.408 108.742 217.2V225H105.382V217.656C105.382 216.6 105.118 215.792 104.59 215.232C104.062 214.656 103.342 214.368 102.43 214.368C101.502 214.368 100.766 214.656 100.222 215.232C99.6941 215.792 99.4301 216.6 99.4301 217.656V225H96.0701V211.704H99.4301V213.36C99.8781 212.784 100.446 212.336 101.134 212.016C101.838 211.68 102.606 211.512 103.438 211.512ZM117.145 211.488C118.137 211.488 119.009 211.688 119.761 212.088C120.513 212.472 121.105 212.976 121.537 213.6V211.704H124.921V225.096C124.921 226.328 124.673 227.424 124.177 228.384C123.681 229.36 122.937 230.128 121.945 230.688C120.953 231.264 119.753 231.552 118.345 231.552C116.457 231.552 114.905 231.112 113.689 230.232C112.489 229.352 111.809 228.152 111.649 226.632H114.985C115.161 227.24 115.537 227.72 116.113 228.072C116.705 228.44 117.417 228.624 118.249 228.624C119.225 228.624 120.017 228.328 120.625 227.736C121.233 227.16 121.537 226.28 121.537 225.096V223.032C121.105 223.656 120.505 224.176 119.737 224.592C118.985 225.008 118.121 225.216 117.145 225.216C116.025 225.216 115.001 224.928 114.073 224.352C113.145 223.776 112.409 222.968 111.865 221.928C111.337 220.872 111.073 219.664 111.073 218.304C111.073 216.96 111.337 215.768 111.865 214.728C112.409 213.688 113.137 212.888 114.049 212.328C114.977 211.768 116.009 211.488 117.145 211.488ZM121.537 218.352C121.537 217.536 121.377 216.84 121.057 216.264C120.737 215.672 120.305 215.224 119.761 214.92C119.217 214.6 118.633 214.44 118.009 214.44C117.385 214.44 116.809 214.592 116.281 214.896C115.753 215.2 115.321 215.648 114.985 216.24C114.665 216.816 114.505 217.504 114.505 218.304C114.505 219.104 114.665 219.808 114.985 220.416C115.321 221.008 115.753 221.464 116.281 221.784C116.825 222.104 117.401 222.264 118.009 222.264C118.633 222.264 119.217 222.112 119.761 221.808C120.305 221.488 120.737 221.04 121.057 220.464C121.377 219.872 121.537 219.168 121.537 218.352Z" fill="white" fill-opacity="0.5"/>
</svg>
