<svg width="150" height="199" viewBox="0 0 150 199" fill="none" xmlns="http://www.w3.org/2000/svg">
<path d="M91.1865 56.2848L68.65 78.6901L59.8135 69.8637C58.5236 68.5853 56.7742 67.867 54.95 67.867C53.1258 67.867 51.3764 68.5853 50.0865 69.8637C48.7966 71.1422 48.072 72.8762 48.072 74.6843C48.072 76.4923 48.7966 78.2263 50.0865 79.5048L63.7865 93.0837C64.4233 93.7201 65.1809 94.2252 66.0156 94.5699C66.8504 94.9146 67.7457 95.092 68.65 95.092C69.5543 95.092 70.4496 94.9146 71.2843 94.5699C72.1191 94.2252 72.8767 93.7201 73.5135 93.0837L100.913 65.9259C102.203 64.6474 102.928 62.9134 102.928 61.1053C102.928 59.2973 102.203 57.5633 100.913 56.2848C99.6236 55.0063 97.8742 54.2881 96.05 54.2881C94.2258 54.2881 92.4764 55.0063 91.1865 56.2848ZM123.45 20.3685H80.432L78.24 13.5791C76.819 9.59523 74.1831 6.14804 70.6975 3.71508C67.2119 1.28213 63.0491 -0.0161379 58.786 0.000151429H27.55C22.0998 0.000151429 16.8728 2.1461 13.019 5.96592C9.16508 9.78573 7 14.9665 7 20.3685V108.632C7 114.034 9.16508 119.214 13.019 123.034C16.8728 126.854 22.0998 129 27.55 129H123.45C128.9 129 134.127 126.854 137.981 123.034C141.835 119.214 144 114.034 144 108.632V40.7369C144 35.3349 141.835 30.1541 137.981 26.3343C134.127 22.5145 128.9 20.3685 123.45 20.3685ZM130.3 108.632C130.3 110.432 129.578 112.159 128.294 113.432C127.009 114.706 125.267 115.421 123.45 115.421H27.55C25.7333 115.421 23.9909 114.706 22.7063 113.432C21.4217 112.159 20.7 110.432 20.7 108.632V20.3685C20.7 18.5679 21.4217 16.8409 22.7063 15.5677C23.9909 14.2944 25.7333 13.5791 27.55 13.5791H58.786C60.2221 13.5754 61.623 14.0192 62.7907 14.8476C63.9584 15.6761 64.834 16.8474 65.2935 18.1959L68.9925 29.3306C69.452 30.6792 70.3275 31.8505 71.4953 32.6789C72.663 33.5074 74.0639 33.9512 75.5 33.9475H123.45C125.267 33.9475 127.009 34.6628 128.294 35.9361C129.578 37.2093 130.3 38.9363 130.3 40.7369V108.632Z" fill="white" fill-opacity="0.5"/>
<path d="M13.32 177.288C12.936 176.584 12.408 176.048 11.736 175.68C11.064 175.312 10.28 175.128 9.384 175.128C8.392 175.128 7.512 175.352 6.744 175.8C5.976 176.248 5.376 176.888 4.944 177.72C4.512 178.552 4.296 179.512 4.296 180.6C4.296 181.72 4.512 182.696 4.944 183.528C5.392 184.36 6.008 185 6.792 185.448C7.576 185.896 8.488 186.12 9.528 186.12C10.808 186.12 11.856 185.784 12.672 185.112C13.488 184.424 14.024 183.472 14.28 182.256H8.52V179.688H17.592V182.616C17.368 183.784 16.888 184.864 16.152 185.856C15.416 186.848 14.464 187.648 13.296 188.256C12.144 188.848 10.848 189.144 9.408 189.144C7.792 189.144 6.328 188.784 5.016 188.064C3.72 187.328 2.696 186.312 1.944 185.016C1.208 183.72 0.84 182.248 0.84 180.6C0.84 178.952 1.208 177.48 1.944 176.184C2.696 174.872 3.72 173.856 5.016 173.136C6.328 172.4 7.784 172.032 9.384 172.032C11.272 172.032 12.912 172.496 14.304 173.424C15.696 174.336 16.656 175.624 17.184 177.288H13.32ZM25.9819 189.216C24.7019 189.216 23.5499 188.936 22.5259 188.376C21.5019 187.8 20.6939 186.992 20.1019 185.952C19.5259 184.912 19.2379 183.712 19.2379 182.352C19.2379 180.992 19.5339 179.792 20.1259 178.752C20.7339 177.712 21.5579 176.912 22.5979 176.352C23.6379 175.776 24.7979 175.488 26.0779 175.488C27.3579 175.488 28.5179 175.776 29.5579 176.352C30.5979 176.912 31.4139 177.712 32.0059 178.752C32.6139 179.792 32.9179 180.992 32.9179 182.352C32.9179 183.712 32.6059 184.912 31.9819 185.952C31.3739 186.992 30.5419 187.8 29.4859 188.376C28.4459 188.936 27.2779 189.216 25.9819 189.216ZM25.9819 186.288C26.5899 186.288 27.1579 186.144 27.6859 185.856C28.2299 185.552 28.6619 185.104 28.9819 184.512C29.3019 183.92 29.4619 183.2 29.4619 182.352C29.4619 181.088 29.1259 180.12 28.4539 179.448C27.7979 178.76 26.9899 178.416 26.0299 178.416C25.0699 178.416 24.2619 178.76 23.6059 179.448C22.9659 180.12 22.6459 181.088 22.6459 182.352C22.6459 183.616 22.9579 184.592 23.5819 185.28C24.2219 185.952 25.0219 186.288 25.9819 186.288ZM34.5186 182.304C34.5186 180.96 34.7826 179.768 35.3106 178.728C35.8546 177.688 36.5826 176.888 37.4946 176.328C38.4226 175.768 39.4546 175.488 40.5906 175.488C41.5826 175.488 42.4466 175.688 43.1826 176.088C43.9346 176.488 44.5346 176.992 44.9826 177.6V175.704H48.3666V189H44.9826V187.056C44.5506 187.68 43.9506 188.2 43.1826 188.616C42.4306 189.016 41.5586 189.216 40.5666 189.216C39.4466 189.216 38.4226 188.928 37.4946 188.352C36.5826 187.776 35.8546 186.968 35.3106 185.928C34.7826 184.872 34.5186 183.664 34.5186 182.304ZM44.9826 182.352C44.9826 181.536 44.8226 180.84 44.5026 180.264C44.1826 179.672 43.7506 179.224 43.2066 178.92C42.6626 178.6 42.0786 178.44 41.4546 178.44C40.8306 178.44 40.2546 178.592 39.7266 178.896C39.1986 179.2 38.7666 179.648 38.4306 180.24C38.1106 180.816 37.9506 181.504 37.9506 182.304C37.9506 183.104 38.1106 183.808 38.4306 184.416C38.7666 185.008 39.1986 185.464 39.7266 185.784C40.2706 186.104 40.8466 186.264 41.4546 186.264C42.0786 186.264 42.6626 186.112 43.2066 185.808C43.7506 185.488 44.1826 185.04 44.5026 184.464C44.8226 183.872 44.9826 183.168 44.9826 182.352ZM55.0082 171.24V189H51.6482V171.24H55.0082ZM69.8306 189.168C68.6626 189.168 67.6066 188.968 66.6626 188.568C65.7346 188.168 64.9986 187.592 64.4546 186.84C63.9106 186.088 63.6306 185.2 63.6146 184.176H67.2146C67.2626 184.864 67.5026 185.408 67.9346 185.808C68.3826 186.208 68.9906 186.408 69.7586 186.408C70.5426 186.408 71.1586 186.224 71.6066 185.856C72.0546 185.472 72.2786 184.976 72.2786 184.368C72.2786 183.872 72.1266 183.464 71.8226 183.144C71.5186 182.824 71.1346 182.576 70.6706 182.4C70.2226 182.208 69.5986 182 68.7986 181.776C67.7106 181.456 66.8226 181.144 66.1346 180.84C65.4626 180.52 64.8786 180.048 64.3826 179.424C63.9026 178.784 63.6626 177.936 63.6626 176.88C63.6626 175.888 63.9106 175.024 64.4066 174.288C64.9026 173.552 65.5986 172.992 66.4946 172.608C67.3906 172.208 68.4146 172.008 69.5666 172.008C71.2946 172.008 72.6946 172.432 73.7666 173.28C74.8546 174.112 75.4546 175.28 75.5666 176.784H71.8706C71.8386 176.208 71.5906 175.736 71.1266 175.368C70.6786 174.984 70.0786 174.792 69.3266 174.792C68.6706 174.792 68.1426 174.96 67.7426 175.296C67.3586 175.632 67.1666 176.12 67.1666 176.76C67.1666 177.208 67.3106 177.584 67.5986 177.888C67.9026 178.176 68.2706 178.416 68.7026 178.608C69.1506 178.784 69.7746 178.992 70.5746 179.232C71.6626 179.552 72.5506 179.872 73.2386 180.192C73.9266 180.512 74.5186 180.992 75.0146 181.632C75.5106 182.272 75.7586 183.112 75.7586 184.152C75.7586 185.048 75.5266 185.88 75.0626 186.648C74.5986 187.416 73.9186 188.032 73.0226 188.496C72.1266 188.944 71.0626 189.168 69.8306 189.168ZM91.0316 182.064C91.0316 182.544 90.9996 182.976 90.9356 183.36H81.2156C81.2956 184.32 81.6316 185.072 82.2236 185.616C82.8156 186.16 83.5436 186.432 84.4076 186.432C85.6556 186.432 86.5436 185.896 87.0716 184.824H90.6956C90.3116 186.104 89.5756 187.16 88.4876 187.992C87.3996 188.808 86.0636 189.216 84.4796 189.216C83.1996 189.216 82.0476 188.936 81.0236 188.376C80.0156 187.8 79.2236 186.992 78.6476 185.952C78.0876 184.912 77.8076 183.712 77.8076 182.352C77.8076 180.976 78.0876 179.768 78.6476 178.728C79.2076 177.688 79.9916 176.888 80.9996 176.328C82.0076 175.768 83.1676 175.488 84.4796 175.488C85.7436 175.488 86.8716 175.76 87.8636 176.304C88.8716 176.848 89.6476 177.624 90.1916 178.632C90.7516 179.624 91.0316 180.768 91.0316 182.064ZM87.5516 181.104C87.5356 180.24 87.2236 179.552 86.6156 179.04C86.0076 178.512 85.2636 178.248 84.3836 178.248C83.5516 178.248 82.8476 178.504 82.2716 179.016C81.7116 179.512 81.3676 180.208 81.2396 181.104H87.5516ZM97.3961 178.464V184.896C97.3961 185.344 97.5001 185.672 97.7081 185.88C97.9321 186.072 98.3001 186.168 98.8121 186.168H100.372V189H98.2601C95.4281 189 94.0121 187.624 94.0121 184.872V178.464H92.4281V175.704H94.0121V172.416H97.3961V175.704H100.372V178.464H97.3961ZM106.701 178.464V184.896C106.701 185.344 106.805 185.672 107.013 185.88C107.237 186.072 107.605 186.168 108.117 186.168H109.677V189H107.565C104.733 189 103.317 187.624 103.317 184.872V178.464H101.733V175.704H103.317V172.416H106.701V175.704H109.677V178.464H106.701ZM113.798 174.12C113.206 174.12 112.71 173.936 112.31 173.568C111.926 173.184 111.734 172.712 111.734 172.152C111.734 171.592 111.926 171.128 112.31 170.76C112.71 170.376 113.206 170.184 113.798 170.184C114.39 170.184 114.878 170.376 115.262 170.76C115.662 171.128 115.862 171.592 115.862 172.152C115.862 172.712 115.662 173.184 115.262 173.568C114.878 173.936 114.39 174.12 113.798 174.12ZM115.454 175.704V189H112.094V175.704H115.454ZM126.141 175.512C127.725 175.512 129.005 176.016 129.981 177.024C130.957 178.016 131.445 179.408 131.445 181.2V189H128.085V181.656C128.085 180.6 127.821 179.792 127.293 179.232C126.765 178.656 126.045 178.368 125.133 178.368C124.205 178.368 123.469 178.656 122.925 179.232C122.397 179.792 122.133 180.6 122.133 181.656V189H118.773V175.704H122.133V177.36C122.581 176.784 123.149 176.336 123.837 176.016C124.541 175.68 125.309 175.512 126.141 175.512ZM139.848 175.488C140.84 175.488 141.712 175.688 142.464 176.088C143.216 176.472 143.808 176.976 144.24 177.6V175.704H147.624V189.096C147.624 190.328 147.376 191.424 146.88 192.384C146.384 193.36 145.64 194.128 144.648 194.688C143.656 195.264 142.456 195.552 141.048 195.552C139.16 195.552 137.608 195.112 136.392 194.232C135.192 193.352 134.512 192.152 134.352 190.632H137.688C137.864 191.24 138.24 191.72 138.816 192.072C139.408 192.44 140.12 192.624 140.952 192.624C141.928 192.624 142.72 192.328 143.328 191.736C143.936 191.16 144.24 190.28 144.24 189.096V187.032C143.808 187.656 143.208 188.176 142.44 188.592C141.688 189.008 140.824 189.216 139.848 189.216C138.728 189.216 137.704 188.928 136.776 188.352C135.848 187.776 135.112 186.968 134.568 185.928C134.04 184.872 133.776 183.664 133.776 182.304C133.776 180.96 134.04 179.768 134.568 178.728C135.112 177.688 135.84 176.888 136.752 176.328C137.68 175.768 138.712 175.488 139.848 175.488ZM144.24 182.352C144.24 181.536 144.08 180.84 143.76 180.264C143.44 179.672 143.008 179.224 142.464 178.92C141.92 178.6 141.336 178.44 140.712 178.44C140.088 178.44 139.512 178.592 138.984 178.896C138.456 179.2 138.024 179.648 137.688 180.24C137.368 180.816 137.208 181.504 137.208 182.304C137.208 183.104 137.368 183.808 137.688 184.416C138.024 185.008 138.456 185.464 138.984 185.784C139.528 186.104 140.104 186.264 140.712 186.264C141.336 186.264 141.92 186.112 142.464 185.808C143.008 185.488 143.44 185.04 143.76 184.464C144.08 183.872 144.24 183.168 144.24 182.352Z" fill="white" fill-opacity="0.5"/>
</svg>
