<svg width="134" height="222" viewBox="0 0 154 242" fill="none" xmlns="http://www.w3.org/2000/svg">
<path d="M63.8083 145.166H57.4273C22.7785 145.166 7.97461 130.362 7.97461 95.7132V57.4273C7.97461 22.7785 22.7785 7.97461 57.4273 7.97461H95.7132C130.362 7.97461 145.166 22.7785 145.166 57.4273V70.1893C145.166 72.8055 142.996 74.975 140.38 74.975C137.764 74.975 135.594 72.8055 135.594 70.1893V57.4273C135.594 28.0109 125.13 17.5461 95.7132 17.5461H57.4273C28.0109 17.5461 17.5461 28.0109 17.5461 57.4273V95.7132C17.5461 125.13 28.0109 135.594 57.4273 135.594H63.8083C66.4245 135.594 68.594 137.764 68.594 140.38C68.594 142.996 66.4245 145.166 63.8083 145.166Z" />
<path d="M140.39 59.0246H12.9615C10.3453 59.0246 8.17578 56.8551 8.17578 54.2389C8.17578 51.6227 10.3453 49.4531 12.9615 49.4531H140.39C143.006 49.4531 145.175 51.6227 145.175 54.2389C145.175 56.8551 143.006 59.0246 140.39 59.0246Z" />
<path d="M76.5798 103.691H12.9615C10.3453 103.691 8.17578 101.521 8.17578 98.9049C8.17578 96.2887 10.3453 94.1191 12.9615 94.1191H76.5798C79.196 94.1191 81.3655 96.2887 81.3655 98.9049C81.3655 101.521 79.196 103.691 76.5798 103.691Z" />
<path d="M54.3014 145.101C51.6852 145.101 49.5156 142.932 49.5156 140.315V12.8873C49.5156 10.2711 51.6852 8.10156 54.3014 8.10156C56.9176 8.10156 59.0871 10.2711 59.0871 12.8873V140.315C59.0871 142.932 56.9814 145.101 54.3014 145.101Z" />
<path d="M98.9674 81.2913C96.3512 81.2913 94.1816 79.1218 94.1816 76.5056V12.8873C94.1816 10.2711 96.3512 8.10156 98.9674 8.10156C101.584 8.10156 103.753 10.2711 103.753 12.8873V76.5056C103.753 79.1218 101.647 81.2913 98.9674 81.2913Z" />
<path d="M94.189 145.169C91.509 145.169 89.0841 144.212 87.2975 142.425C85.1279 140.319 84.171 137.193 84.6814 133.939L86.1489 123.793C86.468 121.368 87.9356 118.433 89.7223 116.646L116.204 90.1651C119.649 86.7194 123.031 84.9327 126.605 84.5498C131.007 84.1031 135.41 86.0175 139.558 90.1651C143.705 94.3128 145.62 98.652 145.173 103.119C144.854 106.692 143.004 110.074 139.558 113.52L113.077 140C111.354 141.723 108.418 143.191 105.93 143.574L95.8482 145.041C95.2739 145.105 94.6995 145.169 94.189 145.169ZM127.753 94.1213C127.689 94.1213 127.561 94.1213 127.498 94.1213C126.221 94.2489 124.69 95.2058 122.903 96.9924L96.4222 123.474C96.1032 123.793 95.6565 124.75 95.5927 125.197L94.1252 135.342L104.526 134.194C104.973 134.13 105.93 133.62 106.249 133.365L132.73 106.883C134.517 105.097 135.474 103.565 135.602 102.289C135.729 100.822 134.772 99.0982 132.73 97.0563C130.816 95.0782 129.157 94.1213 127.753 94.1213Z" />
<path d="M132.343 118.745C131.896 118.745 131.513 118.681 131.066 118.553C121.495 115.873 113.838 108.216 111.158 98.6448C110.456 96.0924 111.923 93.4767 114.476 92.7748C117.092 92.0729 119.644 93.5407 120.346 96.0931C122.133 102.474 127.238 107.579 133.619 109.365C136.171 110.067 137.639 112.747 136.937 115.236C136.363 117.406 134.384 118.745 132.343 118.745Z" />
<path d="M26.0352 179.248V181.96H19.0512V186.256H24.4032V188.92H19.0512V196H15.6912V179.248H26.0352ZM31.7777 184.768C32.2097 184.064 32.7697 183.512 33.4577 183.112C34.1617 182.712 34.9617 182.512 35.8577 182.512V186.04H34.9697C33.9137 186.04 33.1137 186.288 32.5697 186.784C32.0417 187.28 31.7777 188.144 31.7777 189.376V196H28.4177V182.704H31.7777V184.768ZM37.2568 189.304C37.2568 187.96 37.5208 186.768 38.0488 185.728C38.5928 184.688 39.3208 183.888 40.2328 183.328C41.1608 182.768 42.1928 182.488 43.3288 182.488C44.3208 182.488 45.1848 182.688 45.9208 183.088C46.6728 183.488 47.2728 183.992 47.7208 184.6V182.704H51.1048V196H47.7208V194.056C47.2888 194.68 46.6888 195.2 45.9208 195.616C45.1688 196.016 44.2968 196.216 43.3048 196.216C42.1848 196.216 41.1608 195.928 40.2328 195.352C39.3208 194.776 38.5928 193.968 38.0488 192.928C37.5208 191.872 37.2568 190.664 37.2568 189.304ZM47.7208 189.352C47.7208 188.536 47.5608 187.84 47.2408 187.264C46.9208 186.672 46.4888 186.224 45.9448 185.92C45.4008 185.6 44.8168 185.44 44.1928 185.44C43.5688 185.44 42.9928 185.592 42.4648 185.896C41.9368 186.2 41.5048 186.648 41.1688 187.24C40.8488 187.816 40.6888 188.504 40.6888 189.304C40.6888 190.104 40.8488 190.808 41.1688 191.416C41.5048 192.008 41.9368 192.464 42.4648 192.784C43.0088 193.104 43.5848 193.264 44.1928 193.264C44.8168 193.264 45.4008 193.112 45.9448 192.808C46.4888 192.488 46.9208 192.04 47.2408 191.464C47.5608 190.872 47.7208 190.168 47.7208 189.352ZM70.8985 182.512C72.5305 182.512 73.8425 183.016 74.8345 184.024C75.8425 185.016 76.3465 186.408 76.3465 188.2V196H72.9865V188.656C72.9865 187.616 72.7225 186.824 72.1945 186.28C71.6665 185.72 70.9465 185.44 70.0345 185.44C69.1225 185.44 68.3945 185.72 67.8505 186.28C67.3225 186.824 67.0585 187.616 67.0585 188.656V196H63.6985V188.656C63.6985 187.616 63.4345 186.824 62.9065 186.28C62.3785 185.72 61.6585 185.44 60.7465 185.44C59.8185 185.44 59.0825 185.72 58.5385 186.28C58.0105 186.824 57.7465 187.616 57.7465 188.656V196H54.3865V182.704H57.7465V184.312C58.1785 183.752 58.7305 183.312 59.4025 182.992C60.0905 182.672 60.8425 182.512 61.6585 182.512C62.6985 182.512 63.6265 182.736 64.4425 183.184C65.2585 183.616 65.8905 184.24 66.3385 185.056C66.7705 184.288 67.3945 183.672 68.2105 183.208C69.0425 182.744 69.9385 182.512 70.8985 182.512ZM91.8949 189.064C91.8949 189.544 91.8629 189.976 91.7989 190.36H82.0789C82.1589 191.32 82.4949 192.072 83.0869 192.616C83.6789 193.16 84.4069 193.432 85.2709 193.432C86.5189 193.432 87.4069 192.896 87.9349 191.824H91.5589C91.1749 193.104 90.4389 194.16 89.3509 194.992C88.2629 195.808 86.9269 196.216 85.3429 196.216C84.0629 196.216 82.9109 195.936 81.8869 195.376C80.8789 194.8 80.0869 193.992 79.5109 192.952C78.9509 191.912 78.6709 190.712 78.6709 189.352C78.6709 187.976 78.9509 186.768 79.5109 185.728C80.0709 184.688 80.8549 183.888 81.8629 183.328C82.8709 182.768 84.0309 182.488 85.3429 182.488C86.6069 182.488 87.7349 182.76 88.7269 183.304C89.7349 183.848 90.5109 184.624 91.0549 185.632C91.6149 186.624 91.8949 187.768 91.8949 189.064ZM88.4149 188.104C88.3989 187.24 88.0869 186.552 87.4789 186.04C86.8709 185.512 86.1269 185.248 85.2469 185.248C84.4149 185.248 83.7109 185.504 83.1349 186.016C82.5749 186.512 82.2309 187.208 82.1029 188.104H88.4149ZM112.779 182.704L108.891 196H105.267L102.843 186.712L100.419 196H96.7714L92.8594 182.704H96.2674L98.6194 192.832L101.163 182.704H104.715L107.211 192.808L109.563 182.704H112.779ZM120.501 196.216C119.221 196.216 118.069 195.936 117.045 195.376C116.021 194.8 115.213 193.992 114.621 192.952C114.045 191.912 113.757 190.712 113.757 189.352C113.757 187.992 114.053 186.792 114.645 185.752C115.253 184.712 116.077 183.912 117.117 183.352C118.157 182.776 119.317 182.488 120.597 182.488C121.877 182.488 123.037 182.776 124.077 183.352C125.117 183.912 125.933 184.712 126.525 185.752C127.133 186.792 127.437 187.992 127.437 189.352C127.437 190.712 127.125 191.912 126.501 192.952C125.893 193.992 125.061 194.8 124.005 195.376C122.965 195.936 121.797 196.216 120.501 196.216ZM120.501 193.288C121.109 193.288 121.677 193.144 122.205 192.856C122.749 192.552 123.181 192.104 123.501 191.512C123.821 190.92 123.981 190.2 123.981 189.352C123.981 188.088 123.645 187.12 122.973 186.448C122.317 185.76 121.509 185.416 120.549 185.416C119.589 185.416 118.781 185.76 118.125 186.448C117.485 187.12 117.165 188.088 117.165 189.352C117.165 190.616 117.477 191.592 118.101 192.28C118.741 192.952 119.541 193.288 120.501 193.288ZM133.262 184.768C133.694 184.064 134.254 183.512 134.942 183.112C135.646 182.712 136.446 182.512 137.342 182.512V186.04H136.454C135.398 186.04 134.598 186.288 134.054 186.784C133.526 187.28 133.262 188.144 133.262 189.376V196H129.902V182.704H133.262V184.768ZM147.477 196L142.965 190.336V196H139.605V178.24H142.965V188.344L147.429 182.704H151.797L145.941 189.376L151.845 196H147.477ZM26.6332 217.96V222.16H32.2732V224.824H26.6332V229.264H32.9932V232H23.2732V215.224H32.9932V217.96H26.6332ZM35.1826 225.304C35.1826 223.96 35.4466 222.768 35.9746 221.728C36.5186 220.688 37.2546 219.888 38.1826 219.328C39.1106 218.768 40.1426 218.488 41.2786 218.488C42.1426 218.488 42.9666 218.68 43.7506 219.064C44.5346 219.432 45.1586 219.928 45.6226 220.552V214.24H49.0306V232H45.6226V230.032C45.2066 230.688 44.6226 231.216 43.8706 231.616C43.1186 232.016 42.2466 232.216 41.2546 232.216C40.1346 232.216 39.1106 231.928 38.1826 231.352C37.2546 230.776 36.5186 229.968 35.9746 228.928C35.4466 227.872 35.1826 226.664 35.1826 225.304ZM45.6466 225.352C45.6466 224.536 45.4866 223.84 45.1666 223.264C44.8466 222.672 44.4146 222.224 43.8706 221.92C43.3266 221.6 42.7426 221.44 42.1186 221.44C41.4946 221.44 40.9186 221.592 40.3906 221.896C39.8626 222.2 39.4306 222.648 39.0946 223.24C38.7746 223.816 38.6146 224.504 38.6146 225.304C38.6146 226.104 38.7746 226.808 39.0946 227.416C39.4306 228.008 39.8626 228.464 40.3906 228.784C40.9346 229.104 41.5106 229.264 42.1186 229.264C42.7426 229.264 43.3266 229.112 43.8706 228.808C44.4146 228.488 44.8466 228.04 45.1666 227.464C45.4866 226.872 45.6466 226.168 45.6466 225.352ZM64.8643 218.704V232H61.4803V230.32C61.0483 230.896 60.4803 231.352 59.7763 231.688C59.0883 232.008 58.3363 232.168 57.5203 232.168C56.4803 232.168 55.5603 231.952 54.7603 231.52C53.9603 231.072 53.3283 230.424 52.8643 229.576C52.4163 228.712 52.1923 227.688 52.1923 226.504V218.704H55.5523V226.024C55.5523 227.08 55.8163 227.896 56.3443 228.472C56.8723 229.032 57.5923 229.312 58.5043 229.312C59.4323 229.312 60.1603 229.032 60.6883 228.472C61.2163 227.896 61.4803 227.08 61.4803 226.024V218.704H64.8643ZM67.3154 225.352C67.3154 223.976 67.5954 222.776 68.1554 221.752C68.7154 220.712 69.4914 219.912 70.4834 219.352C71.4754 218.776 72.6114 218.488 73.8914 218.488C75.5394 218.488 76.8994 218.904 77.9714 219.736C79.0594 220.552 79.7874 221.704 80.1554 223.192H76.5314C76.3394 222.616 76.0114 222.168 75.5474 221.848C75.0994 221.512 74.5394 221.344 73.8674 221.344C72.9074 221.344 72.1474 221.696 71.5874 222.4C71.0274 223.088 70.7474 224.072 70.7474 225.352C70.7474 226.616 71.0274 227.6 71.5874 228.304C72.1474 228.992 72.9074 229.336 73.8674 229.336C75.2274 229.336 76.1154 228.728 76.5314 227.512H80.1554C79.7874 228.952 79.0594 230.096 77.9714 230.944C76.8834 231.792 75.5234 232.216 73.8914 232.216C72.6114 232.216 71.4754 231.936 70.4834 231.376C69.4914 230.8 68.7154 230 68.1554 228.976C67.5954 227.936 67.3154 226.728 67.3154 225.352ZM81.7529 225.304C81.7529 223.96 82.0169 222.768 82.5449 221.728C83.0889 220.688 83.8169 219.888 84.7289 219.328C85.6569 218.768 86.6889 218.488 87.8249 218.488C88.8169 218.488 89.6809 218.688 90.4169 219.088C91.1689 219.488 91.7689 219.992 92.2169 220.6V218.704H95.6009V232H92.2169V230.056C91.7849 230.68 91.1849 231.2 90.4169 231.616C89.6649 232.016 88.7929 232.216 87.8009 232.216C86.6809 232.216 85.6569 231.928 84.7289 231.352C83.8169 230.776 83.0889 229.968 82.5449 228.928C82.0169 227.872 81.7529 226.664 81.7529 225.304ZM92.2169 225.352C92.2169 224.536 92.0569 223.84 91.7369 223.264C91.4169 222.672 90.9849 222.224 90.4409 221.92C89.8969 221.6 89.3129 221.44 88.6889 221.44C88.0649 221.44 87.4889 221.592 86.9609 221.896C86.4329 222.2 86.0009 222.648 85.6649 223.24C85.3449 223.816 85.1849 224.504 85.1849 225.304C85.1849 226.104 85.3449 226.808 85.6649 227.416C86.0009 228.008 86.4329 228.464 86.9609 228.784C87.5049 229.104 88.0809 229.264 88.6889 229.264C89.3129 229.264 89.8969 229.112 90.4409 228.808C90.9849 228.488 91.4169 228.04 91.7369 227.464C92.0569 226.872 92.2169 226.168 92.2169 225.352ZM102.795 221.464V227.896C102.795 228.344 102.899 228.672 103.107 228.88C103.331 229.072 103.699 229.168 104.211 229.168H105.771V232H103.659C100.827 232 99.4106 230.624 99.4106 227.872V221.464H97.8266V218.704H99.4106V215.416H102.795V218.704H105.771V221.464H102.795ZM109.891 217.12C109.299 217.12 108.803 216.936 108.403 216.568C108.019 216.184 107.827 215.712 107.827 215.152C107.827 214.592 108.019 214.128 108.403 213.76C108.803 213.376 109.299 213.184 109.891 213.184C110.483 213.184 110.971 213.376 111.355 213.76C111.755 214.128 111.955 214.592 111.955 215.152C111.955 215.712 111.755 216.184 111.355 216.568C110.971 216.936 110.483 217.12 109.891 217.12ZM111.547 218.704V232H108.187V218.704H111.547ZM120.771 232.216C119.491 232.216 118.339 231.936 117.315 231.376C116.291 230.8 115.483 229.992 114.891 228.952C114.315 227.912 114.027 226.712 114.027 225.352C114.027 223.992 114.323 222.792 114.915 221.752C115.523 220.712 116.347 219.912 117.387 219.352C118.427 218.776 119.587 218.488 120.867 218.488C122.147 218.488 123.307 218.776 124.347 219.352C125.387 219.912 126.203 220.712 126.795 221.752C127.403 222.792 127.707 223.992 127.707 225.352C127.707 226.712 127.395 227.912 126.771 228.952C126.163 229.992 125.331 230.8 124.275 231.376C123.235 231.936 122.067 232.216 120.771 232.216ZM120.771 229.288C121.379 229.288 121.947 229.144 122.475 228.856C123.019 228.552 123.451 228.104 123.771 227.512C124.091 226.92 124.251 226.2 124.251 225.352C124.251 224.088 123.915 223.12 123.243 222.448C122.587 221.76 121.779 221.416 120.819 221.416C119.859 221.416 119.051 221.76 118.395 222.448C117.755 223.12 117.435 224.088 117.435 225.352C117.435 226.616 117.747 227.592 118.371 228.28C119.011 228.952 119.811 229.288 120.771 229.288ZM137.54 218.512C139.124 218.512 140.404 219.016 141.38 220.024C142.356 221.016 142.844 222.408 142.844 224.2V232H139.484V224.656C139.484 223.6 139.22 222.792 138.692 222.232C138.164 221.656 137.444 221.368 136.532 221.368C135.604 221.368 134.868 221.656 134.324 222.232C133.796 222.792 133.532 223.6 133.532 224.656V232H130.172V218.704H133.532V220.36C133.98 219.784 134.548 219.336 135.236 219.016C135.94 218.68 136.708 218.512 137.54 218.512Z" />
</svg>
