<svg width="219" height="190" viewBox="0 0 239 213" fill="none" xmlns="http://www.w3.org/2000/svg">
<path d="M168.531 86.1155C164.724 86.1352 161.017 87.338 157.92 89.5581L142.894 80.6443C143.603 78.4386 143.975 76.138 143.998 73.8207C143.98 68.383 142.165 63.1045 138.836 58.811C135.506 54.5174 130.851 51.4511 125.598 50.0917V35.8297C129.69 34.3796 133.139 31.5261 135.336 27.7737C137.532 24.0212 138.334 19.6114 137.6 15.3236C136.866 11.0358 134.643 7.14614 131.325 4.34205C128.006 1.53796 123.806 0 119.465 0C115.125 0 110.924 1.53796 107.606 4.34205C104.287 7.14614 102.064 11.0358 101.331 15.3236C100.597 19.6114 101.399 24.0212 103.595 27.7737C105.791 31.5261 109.24 34.3796 113.332 35.8297V50.0917C108.079 51.4511 103.424 54.5174 100.095 58.811C96.7654 63.1045 94.95 68.383 94.9324 73.8207C94.9551 76.138 95.3273 78.4386 96.0363 80.6443L81.01 89.5581C77.9137 87.338 74.2065 86.1352 70.3996 86.1155C66.7605 86.1155 63.2031 87.1972 60.1773 89.2236C57.1515 91.2501 54.7932 94.1303 53.4006 97.5002C52.008 100.87 51.6436 104.578 52.3536 108.156C53.0635 111.733 54.8159 115.019 57.3891 117.598C59.9623 120.178 63.2408 121.934 66.81 122.646C70.3792 123.357 74.0787 122.992 77.4408 121.596C80.8029 120.2 83.6765 117.837 85.6983 114.804C87.7201 111.771 88.7992 108.205 88.7992 104.558C88.7765 102.893 88.5289 101.238 88.0632 99.6398L102.17 91.2179C106.766 95.7977 112.984 98.3684 119.465 98.3684C125.946 98.3684 132.164 95.7977 136.761 91.2179L150.867 99.6398C149.839 103.363 150.004 107.315 151.338 110.939C152.671 114.563 155.106 117.676 158.3 119.839C161.493 122.001 165.283 123.104 169.135 122.992C172.987 122.88 176.707 121.558 179.77 119.213C182.832 116.868 185.083 113.619 186.204 109.923C187.325 106.227 187.26 102.272 186.019 98.6154C184.777 94.9586 182.421 91.785 179.283 89.5423C176.146 87.2995 172.384 86.1009 168.531 86.1155ZM70.3996 110.705C69.1866 110.705 68.0008 110.345 66.9922 109.669C65.9836 108.994 65.1975 108.034 64.7333 106.91C64.269 105.787 64.1476 104.551 64.3842 103.358C64.6209 102.166 65.205 101.071 66.0628 100.211C66.9205 99.3512 68.0133 98.7657 69.2031 98.5285C70.3928 98.2913 71.626 98.413 72.7467 98.8783C73.8674 99.3436 74.8252 100.132 75.4992 101.142C76.1731 102.153 76.5328 103.342 76.5328 104.558C76.5328 106.188 75.8866 107.752 74.7364 108.905C73.5862 110.058 72.0262 110.705 70.3996 110.705ZM119.465 12.3466C120.678 12.3466 121.864 12.7072 122.873 13.3826C123.881 14.0581 124.667 15.0182 125.131 16.1415C125.596 17.2648 125.717 18.5009 125.48 19.6933C125.244 20.8858 124.66 21.9812 123.802 22.8409C122.944 23.7006 121.851 24.2861 120.662 24.5233C119.472 24.7605 118.239 24.6388 117.118 24.1735C115.997 23.7082 115.039 22.9203 114.366 21.9094C113.692 20.8984 113.332 19.7099 113.332 18.494C113.332 16.8636 113.978 15.3 115.128 14.1472C116.279 12.9943 117.839 12.3466 119.465 12.3466ZM119.465 86.1155C117.039 86.1155 114.667 85.3945 112.65 84.0435C110.633 82.6925 109.061 80.7723 108.132 78.5257C107.204 76.2792 106.961 73.8071 107.434 71.4221C107.908 69.0372 109.076 66.8464 110.791 65.127C112.507 63.4075 114.693 62.2365 117.072 61.7621C119.452 61.2877 121.918 61.5312 124.159 62.4618C126.401 63.3923 128.316 64.9682 129.664 66.9901C131.012 69.012 131.732 71.389 131.732 73.8207C131.732 77.0815 130.439 80.2087 128.139 82.5145C125.838 84.8202 122.718 86.1155 119.465 86.1155ZM168.531 110.705C167.318 110.705 166.132 110.345 165.123 109.669C164.115 108.994 163.329 108.034 162.864 106.91C162.4 105.787 162.279 104.551 162.515 103.358C162.752 102.166 163.336 101.071 164.194 100.211C165.052 99.3512 166.144 98.7657 167.334 98.5285C168.524 98.2913 169.757 98.413 170.878 98.8783C171.998 99.3436 172.956 100.132 173.63 101.142C174.304 102.153 174.664 103.342 174.664 104.558C174.664 106.188 174.018 107.752 172.868 108.905C171.717 110.058 170.157 110.705 168.531 110.705Z" fill="white" fill-opacity="0.5"/>
<path d="M84.9645 167H81.6045L73.9965 155.504V167H70.6365V150.224H73.9965L81.6045 161.744V150.224H84.9645V167ZM100.645 160.064C100.645 160.544 100.613 160.976 100.549 161.36H90.8289C90.9089 162.32 91.2449 163.072 91.8369 163.616C92.4289 164.16 93.1569 164.432 94.0209 164.432C95.2689 164.432 96.1569 163.896 96.6849 162.824H100.309C99.9249 164.104 99.1889 165.16 98.1009 165.992C97.0129 166.808 95.6769 167.216 94.0929 167.216C92.8129 167.216 91.6609 166.936 90.6369 166.376C89.6289 165.8 88.8369 164.992 88.2609 163.952C87.7009 162.912 87.4209 161.712 87.4209 160.352C87.4209 158.976 87.7009 157.768 88.2609 156.728C88.8209 155.688 89.6049 154.888 90.6129 154.328C91.6209 153.768 92.7809 153.488 94.0929 153.488C95.3569 153.488 96.4849 153.76 97.4769 154.304C98.4849 154.848 99.2609 155.624 99.8049 156.632C100.365 157.624 100.645 158.768 100.645 160.064ZM97.1649 159.104C97.1489 158.24 96.8369 157.552 96.2289 157.04C95.6209 156.512 94.8769 156.248 93.9969 156.248C93.1649 156.248 92.4609 156.504 91.8849 157.016C91.3249 157.512 90.9809 158.208 90.8529 159.104H97.1649ZM107.009 156.464V162.896C107.009 163.344 107.113 163.672 107.321 163.88C107.545 164.072 107.913 164.168 108.425 164.168H109.985V167H107.873C105.041 167 103.625 165.624 103.625 162.872V156.464H102.041V153.704H103.625V150.416H107.009V153.704H109.985V156.464H107.009ZM130.834 153.704L126.946 167H123.322L120.898 157.712L118.474 167H114.826L110.914 153.704H114.322L116.674 163.832L119.218 153.704H122.77L125.266 163.808L127.618 153.704H130.834ZM138.556 167.216C137.276 167.216 136.124 166.936 135.1 166.376C134.076 165.8 133.268 164.992 132.676 163.952C132.1 162.912 131.812 161.712 131.812 160.352C131.812 158.992 132.108 157.792 132.7 156.752C133.308 155.712 134.132 154.912 135.172 154.352C136.212 153.776 137.372 153.488 138.652 153.488C139.932 153.488 141.092 153.776 142.132 154.352C143.172 154.912 143.988 155.712 144.58 156.752C145.188 157.792 145.492 158.992 145.492 160.352C145.492 161.712 145.18 162.912 144.556 163.952C143.948 164.992 143.116 165.8 142.06 166.376C141.02 166.936 139.852 167.216 138.556 167.216ZM138.556 164.288C139.164 164.288 139.732 164.144 140.26 163.856C140.804 163.552 141.236 163.104 141.556 162.512C141.876 161.92 142.036 161.2 142.036 160.352C142.036 159.088 141.7 158.12 141.028 157.448C140.372 156.76 139.564 156.416 138.604 156.416C137.644 156.416 136.836 156.76 136.18 157.448C135.54 158.12 135.22 159.088 135.22 160.352C135.22 161.616 135.532 162.592 136.156 163.28C136.796 163.952 137.596 164.288 138.556 164.288ZM151.317 155.768C151.749 155.064 152.309 154.512 152.997 154.112C153.701 153.712 154.501 153.512 155.397 153.512V157.04H154.509C153.453 157.04 152.653 157.288 152.109 157.784C151.581 158.28 151.317 159.144 151.317 160.376V167H147.957V153.704H151.317V155.768ZM165.532 167L161.02 161.336V167H157.66V149.24H161.02V159.344L165.484 153.704H169.852L163.996 160.376L169.9 167H165.532ZM56.3223 186.248V203H52.9623V192.104L48.4743 203H45.9303L41.4183 192.104V203H38.0583V186.248H41.8743L47.2023 198.704L52.5303 186.248H56.3223ZM58.7803 196.304C58.7803 194.96 59.0443 193.768 59.5723 192.728C60.1163 191.688 60.8443 190.888 61.7563 190.328C62.6843 189.768 63.7163 189.488 64.8523 189.488C65.8443 189.488 66.7083 189.688 67.4443 190.088C68.1963 190.488 68.7963 190.992 69.2443 191.6V189.704H72.6283V203H69.2443V201.056C68.8123 201.68 68.2123 202.2 67.4443 202.616C66.6923 203.016 65.8203 203.216 64.8283 203.216C63.7083 203.216 62.6843 202.928 61.7563 202.352C60.8443 201.776 60.1163 200.968 59.5723 199.928C59.0443 198.872 58.7803 197.664 58.7803 196.304ZM69.2443 196.352C69.2443 195.536 69.0843 194.84 68.7643 194.264C68.4443 193.672 68.0123 193.224 67.4683 192.92C66.9243 192.6 66.3403 192.44 65.7163 192.44C65.0923 192.44 64.5163 192.592 63.9883 192.896C63.4603 193.2 63.0283 193.648 62.6923 194.24C62.3723 194.816 62.2123 195.504 62.2123 196.304C62.2123 197.104 62.3723 197.808 62.6923 198.416C63.0283 199.008 63.4603 199.464 63.9883 199.784C64.5323 200.104 65.1083 200.264 65.7163 200.264C66.3403 200.264 66.9243 200.112 67.4683 199.808C68.0123 199.488 68.4443 199.04 68.7643 198.464C69.0843 197.872 69.2443 197.168 69.2443 196.352ZM83.2779 189.512C84.8619 189.512 86.1419 190.016 87.1179 191.024C88.0939 192.016 88.5819 193.408 88.5819 195.2V203H85.2219V195.656C85.2219 194.6 84.9579 193.792 84.4299 193.232C83.9019 192.656 83.1819 192.368 82.2699 192.368C81.3419 192.368 80.6059 192.656 80.0619 193.232C79.5339 193.792 79.2699 194.6 79.2699 195.656V203H75.9099V189.704H79.2699V191.36C79.7179 190.784 80.2859 190.336 80.9739 190.016C81.6779 189.68 82.4459 189.512 83.2779 189.512ZM90.9131 196.304C90.9131 194.96 91.1771 193.768 91.7051 192.728C92.2491 191.688 92.9771 190.888 93.8891 190.328C94.8171 189.768 95.8491 189.488 96.9851 189.488C97.9771 189.488 98.8411 189.688 99.5771 190.088C100.329 190.488 100.929 190.992 101.377 191.6V189.704H104.761V203H101.377V201.056C100.945 201.68 100.345 202.2 99.5771 202.616C98.8251 203.016 97.9531 203.216 96.9611 203.216C95.8411 203.216 94.8171 202.928 93.8891 202.352C92.9771 201.776 92.2491 200.968 91.7051 199.928C91.1771 198.872 90.9131 197.664 90.9131 196.304ZM101.377 196.352C101.377 195.536 101.217 194.84 100.897 194.264C100.577 193.672 100.145 193.224 99.6011 192.92C99.0571 192.6 98.4731 192.44 97.8491 192.44C97.2251 192.44 96.6491 192.592 96.1211 192.896C95.5931 193.2 95.1611 193.648 94.8251 194.24C94.5051 194.816 94.3451 195.504 94.3451 196.304C94.3451 197.104 94.5051 197.808 94.8251 198.416C95.1611 199.008 95.5931 199.464 96.1211 199.784C96.6651 200.104 97.2411 200.264 97.8491 200.264C98.4731 200.264 99.0571 200.112 99.6011 199.808C100.145 199.488 100.577 199.04 100.897 198.464C101.217 197.872 101.377 197.168 101.377 196.352ZM113.251 189.488C114.243 189.488 115.115 189.688 115.867 190.088C116.619 190.472 117.211 190.976 117.643 191.6V189.704H121.027V203.096C121.027 204.328 120.779 205.424 120.283 206.384C119.787 207.36 119.043 208.128 118.051 208.688C117.059 209.264 115.859 209.552 114.451 209.552C112.563 209.552 111.011 209.112 109.795 208.232C108.595 207.352 107.915 206.152 107.755 204.632H111.091C111.267 205.24 111.643 205.72 112.219 206.072C112.811 206.44 113.523 206.624 114.355 206.624C115.331 206.624 116.123 206.328 116.731 205.736C117.339 205.16 117.643 204.28 117.643 203.096V201.032C117.211 201.656 116.611 202.176 115.843 202.592C115.091 203.008 114.227 203.216 113.251 203.216C112.131 203.216 111.107 202.928 110.179 202.352C109.251 201.776 108.515 200.968 107.971 199.928C107.443 198.872 107.179 197.664 107.179 196.304C107.179 194.96 107.443 193.768 107.971 192.728C108.515 191.688 109.243 190.888 110.155 190.328C111.083 189.768 112.115 189.488 113.251 189.488ZM117.643 196.352C117.643 195.536 117.483 194.84 117.163 194.264C116.843 193.672 116.411 193.224 115.867 192.92C115.323 192.6 114.739 192.44 114.115 192.44C113.491 192.44 112.915 192.592 112.387 192.896C111.859 193.2 111.427 193.648 111.091 194.24C110.771 194.816 110.611 195.504 110.611 196.304C110.611 197.104 110.771 197.808 111.091 198.416C111.427 199.008 111.859 199.464 112.387 199.784C112.931 200.104 113.507 200.264 114.115 200.264C114.739 200.264 115.323 200.112 115.867 199.808C116.411 199.488 116.843 199.04 117.163 198.464C117.483 197.872 117.643 197.168 117.643 196.352ZM136.668 196.064C136.668 196.544 136.636 196.976 136.572 197.36H126.852C126.932 198.32 127.268 199.072 127.86 199.616C128.452 200.16 129.18 200.432 130.044 200.432C131.292 200.432 132.18 199.896 132.708 198.824H136.332C135.948 200.104 135.212 201.16 134.124 201.992C133.036 202.808 131.7 203.216 130.116 203.216C128.836 203.216 127.684 202.936 126.66 202.376C125.652 201.8 124.86 200.992 124.284 199.952C123.724 198.912 123.444 197.712 123.444 196.352C123.444 194.976 123.724 193.768 124.284 192.728C124.844 191.688 125.628 190.888 126.636 190.328C127.644 189.768 128.804 189.488 130.116 189.488C131.38 189.488 132.508 189.76 133.5 190.304C134.508 190.848 135.284 191.624 135.828 192.632C136.388 193.624 136.668 194.768 136.668 196.064ZM133.188 195.104C133.172 194.24 132.86 193.552 132.252 193.04C131.644 192.512 130.9 192.248 130.02 192.248C129.188 192.248 128.484 192.504 127.908 193.016C127.348 193.512 127.004 194.208 126.876 195.104H133.188ZM155.633 189.512C157.265 189.512 158.577 190.016 159.569 191.024C160.577 192.016 161.081 193.408 161.081 195.2V203H157.721V195.656C157.721 194.616 157.457 193.824 156.929 193.28C156.401 192.72 155.681 192.44 154.769 192.44C153.857 192.44 153.129 192.72 152.585 193.28C152.057 193.824 151.793 194.616 151.793 195.656V203H148.433V195.656C148.433 194.616 148.169 193.824 147.641 193.28C147.113 192.72 146.393 192.44 145.481 192.44C144.553 192.44 143.817 192.72 143.273 193.28C142.745 193.824 142.481 194.616 142.481 195.656V203H139.121V189.704H142.481V191.312C142.913 190.752 143.465 190.312 144.137 189.992C144.825 189.672 145.577 189.512 146.393 189.512C147.433 189.512 148.361 189.736 149.177 190.184C149.993 190.616 150.625 191.24 151.073 192.056C151.505 191.288 152.129 190.672 152.945 190.208C153.777 189.744 154.673 189.512 155.633 189.512ZM176.629 196.064C176.629 196.544 176.597 196.976 176.533 197.36H166.813C166.893 198.32 167.229 199.072 167.821 199.616C168.413 200.16 169.141 200.432 170.005 200.432C171.253 200.432 172.141 199.896 172.669 198.824H176.293C175.909 200.104 175.173 201.16 174.085 201.992C172.997 202.808 171.661 203.216 170.077 203.216C168.797 203.216 167.645 202.936 166.621 202.376C165.613 201.8 164.821 200.992 164.245 199.952C163.685 198.912 163.405 197.712 163.405 196.352C163.405 194.976 163.685 193.768 164.245 192.728C164.805 191.688 165.589 190.888 166.597 190.328C167.605 189.768 168.765 189.488 170.077 189.488C171.341 189.488 172.469 189.76 173.461 190.304C174.469 190.848 175.245 191.624 175.789 192.632C176.349 193.624 176.629 194.768 176.629 196.064ZM173.149 195.104C173.133 194.24 172.821 193.552 172.213 193.04C171.605 192.512 170.861 192.248 169.981 192.248C169.149 192.248 168.445 192.504 167.869 193.016C167.309 193.512 166.965 194.208 166.837 195.104H173.149ZM186.45 189.512C188.034 189.512 189.314 190.016 190.29 191.024C191.266 192.016 191.754 193.408 191.754 195.2V203H188.394V195.656C188.394 194.6 188.13 193.792 187.602 193.232C187.074 192.656 186.354 192.368 185.442 192.368C184.514 192.368 183.778 192.656 183.234 193.232C182.706 193.792 182.442 194.6 182.442 195.656V203H179.082V189.704H182.442V191.36C182.89 190.784 183.458 190.336 184.146 190.016C184.85 189.68 185.618 189.512 186.45 189.512ZM198.861 192.464V198.896C198.861 199.344 198.965 199.672 199.173 199.88C199.397 200.072 199.765 200.168 200.277 200.168H201.837V203H199.725C196.893 203 195.477 201.624 195.477 198.872V192.464H193.893V189.704H195.477V186.416H198.861V189.704H201.837V192.464H198.861Z"/>
</svg>
