<svg width="175" height="210" viewBox="0 0 175 210" fill="none" xmlns="http://www.w3.org/2000/svg">
<path d="M13.1693 147.248V149.96H8.70528V164H5.34528V149.96H0.881281V147.248H13.1693ZM27.9808 157.064C27.9808 157.544 27.9488 157.976 27.8848 158.36H18.1648C18.2448 159.32 18.5808 160.072 19.1728 160.616C19.7648 161.16 20.4928 161.432 21.3568 161.432C22.6048 161.432 23.4928 160.896 24.0208 159.824H27.6448C27.2608 161.104 26.5248 162.16 25.4368 162.992C24.3488 163.808 23.0128 164.216 21.4288 164.216C20.1488 164.216 18.9968 163.936 17.9728 163.376C16.9648 162.8 16.1728 161.992 15.5968 160.952C15.0368 159.912 14.7568 158.712 14.7568 157.352C14.7568 155.976 15.0368 154.768 15.5968 153.728C16.1568 152.688 16.9408 151.888 17.9488 151.328C18.9568 150.768 20.1168 150.488 21.4288 150.488C22.6928 150.488 23.8208 150.76 24.8128 151.304C25.8208 151.848 26.5968 152.624 27.1408 153.632C27.7008 154.624 27.9808 155.768 27.9808 157.064ZM24.5008 156.104C24.4848 155.24 24.1728 154.552 23.5648 154.04C22.9568 153.512 22.2128 153.248 21.3328 153.248C20.5008 153.248 19.7968 153.504 19.2208 154.016C18.6608 154.512 18.3168 155.208 18.1888 156.104H24.5008ZM35.5213 164.216C34.4333 164.216 33.4573 164.024 32.5933 163.64C31.7293 163.24 31.0413 162.704 30.5293 162.032C30.0333 161.36 29.7613 160.616 29.7133 159.8H33.0973C33.1613 160.312 33.4093 160.736 33.8413 161.072C34.2893 161.408 34.8413 161.576 35.4973 161.576C36.1373 161.576 36.6333 161.448 36.9853 161.192C37.3533 160.936 37.5373 160.608 37.5373 160.208C37.5373 159.776 37.3133 159.456 36.8653 159.248C36.4333 159.024 35.7373 158.784 34.7773 158.528C33.7853 158.288 32.9693 158.04 32.3293 157.784C31.7053 157.528 31.1613 157.136 30.6973 156.608C30.2493 156.08 30.0253 155.368 30.0253 154.472C30.0253 153.736 30.2333 153.064 30.6493 152.456C31.0813 151.848 31.6893 151.368 32.4733 151.016C33.2733 150.664 34.2093 150.488 35.2813 150.488C36.8653 150.488 38.1293 150.888 39.0733 151.688C40.0173 152.472 40.5373 153.536 40.6333 154.88H37.4173C37.3693 154.352 37.1453 153.936 36.7453 153.632C36.3613 153.312 35.8413 153.152 35.1853 153.152C34.5773 153.152 34.1053 153.264 33.7693 153.488C33.4493 153.712 33.2893 154.024 33.2893 154.424C33.2893 154.872 33.5133 155.216 33.9613 155.456C34.4093 155.68 35.1053 155.912 36.0493 156.152C37.0093 156.392 37.8013 156.64 38.4253 156.896C39.0493 157.152 39.5853 157.552 40.0333 158.096C40.4973 158.624 40.7373 159.328 40.7533 160.208C40.7533 160.976 40.5373 161.664 40.1053 162.272C39.6893 162.88 39.0813 163.36 38.2813 163.712C37.4973 164.048 36.5773 164.216 35.5213 164.216ZM47.4235 153.464V159.896C47.4235 160.344 47.5275 160.672 47.7355 160.88C47.9595 161.072 48.3275 161.168 48.8395 161.168H50.3995V164H48.2875C45.4555 164 44.0395 162.624 44.0395 159.872V153.464H42.4555V150.704H44.0395V147.416H47.4235V150.704H50.3995V153.464H47.4235ZM61.8949 149.96V154.16H67.5349V156.824H61.8949V161.264H68.2549V164H58.5349V147.224H68.2549V149.96H61.8949ZM78.6523 164L75.9163 159.872L73.4923 164H69.8923L74.2363 157.328L69.8443 150.704H73.6363L76.3483 154.808L78.7963 150.704H82.3963L78.0283 157.328L82.4443 164H78.6523ZM96.6293 157.064C96.6293 157.544 96.5973 157.976 96.5333 158.36H86.8133C86.8933 159.32 87.2293 160.072 87.8213 160.616C88.4133 161.16 89.1413 161.432 90.0053 161.432C91.2533 161.432 92.1413 160.896 92.6693 159.824H96.2933C95.9093 161.104 95.1733 162.16 94.0853 162.992C92.9973 163.808 91.6613 164.216 90.0773 164.216C88.7973 164.216 87.6453 163.936 86.6213 163.376C85.6133 162.8 84.8213 161.992 84.2453 160.952C83.6853 159.912 83.4053 158.712 83.4053 157.352C83.4053 155.976 83.6853 154.768 84.2453 153.728C84.8053 152.688 85.5893 151.888 86.5973 151.328C87.6053 150.768 88.7653 150.488 90.0773 150.488C91.3413 150.488 92.4693 150.76 93.4613 151.304C94.4693 151.848 95.2453 152.624 95.7893 153.632C96.3493 154.624 96.6293 155.768 96.6293 157.064ZM93.1493 156.104C93.1333 155.24 92.8213 154.552 92.2133 154.04C91.6053 153.512 90.8613 153.248 89.9813 153.248C89.1493 153.248 88.4453 153.504 87.8693 154.016C87.3093 154.512 86.9653 155.208 86.8373 156.104H93.1493ZM98.2178 157.352C98.2178 155.976 98.4978 154.776 99.0578 153.752C99.6178 152.712 100.394 151.912 101.386 151.352C102.378 150.776 103.514 150.488 104.794 150.488C106.442 150.488 107.802 150.904 108.874 151.736C109.962 152.552 110.69 153.704 111.058 155.192H107.434C107.242 154.616 106.914 154.168 106.45 153.848C106.002 153.512 105.442 153.344 104.77 153.344C103.81 153.344 103.05 153.696 102.49 154.4C101.93 155.088 101.65 156.072 101.65 157.352C101.65 158.616 101.93 159.6 102.49 160.304C103.05 160.992 103.81 161.336 104.77 161.336C106.13 161.336 107.018 160.728 107.434 159.512H111.058C110.69 160.952 109.962 162.096 108.874 162.944C107.786 163.792 106.426 164.216 104.794 164.216C103.514 164.216 102.378 163.936 101.386 163.376C100.394 162.8 99.6178 162 99.0578 160.976C98.4978 159.936 98.2178 158.728 98.2178 157.352ZM126.071 150.704V164H122.687V162.32C122.255 162.896 121.687 163.352 120.983 163.688C120.295 164.008 119.543 164.168 118.727 164.168C117.687 164.168 116.767 163.952 115.967 163.52C115.167 163.072 114.535 162.424 114.071 161.576C113.623 160.712 113.399 159.688 113.399 158.504V150.704H116.759V158.024C116.759 159.08 117.023 159.896 117.551 160.472C118.079 161.032 118.799 161.312 119.711 161.312C120.639 161.312 121.367 161.032 121.895 160.472C122.423 159.896 122.687 159.08 122.687 158.024V150.704H126.071ZM133.298 153.464V159.896C133.298 160.344 133.402 160.672 133.61 160.88C133.834 161.072 134.202 161.168 134.714 161.168H136.274V164H134.162C131.33 164 129.914 162.624 129.914 159.872V153.464H128.33V150.704H129.914V147.416H133.298V150.704H136.274V153.464H133.298ZM140.395 149.12C139.803 149.12 139.307 148.936 138.907 148.568C138.523 148.184 138.331 147.712 138.331 147.152C138.331 146.592 138.523 146.128 138.907 145.76C139.307 145.376 139.803 145.184 140.395 145.184C140.987 145.184 141.475 145.376 141.859 145.76C142.259 146.128 142.459 146.592 142.459 147.152C142.459 147.712 142.259 148.184 141.859 148.568C141.475 148.936 140.987 149.12 140.395 149.12ZM142.051 150.704V164H138.691V150.704H142.051ZM151.275 164.216C149.995 164.216 148.843 163.936 147.819 163.376C146.795 162.8 145.987 161.992 145.395 160.952C144.819 159.912 144.531 158.712 144.531 157.352C144.531 155.992 144.827 154.792 145.419 153.752C146.027 152.712 146.851 151.912 147.891 151.352C148.931 150.776 150.091 150.488 151.371 150.488C152.651 150.488 153.811 150.776 154.851 151.352C155.891 151.912 156.707 152.712 157.299 153.752C157.907 154.792 158.211 155.992 158.211 157.352C158.211 158.712 157.899 159.912 157.275 160.952C156.667 161.992 155.835 162.8 154.779 163.376C153.739 163.936 152.571 164.216 151.275 164.216ZM151.275 161.288C151.883 161.288 152.451 161.144 152.979 160.856C153.523 160.552 153.955 160.104 154.275 159.512C154.595 158.92 154.755 158.2 154.755 157.352C154.755 156.088 154.419 155.12 153.747 154.448C153.091 153.76 152.283 153.416 151.323 153.416C150.363 153.416 149.555 153.76 148.899 154.448C148.259 155.12 147.939 156.088 147.939 157.352C147.939 158.616 148.251 159.592 148.875 160.28C149.515 160.952 150.315 161.288 151.275 161.288ZM168.044 150.512C169.628 150.512 170.908 151.016 171.884 152.024C172.86 153.016 173.348 154.408 173.348 156.2V164H169.988V156.656C169.988 155.6 169.724 154.792 169.196 154.232C168.668 153.656 167.948 153.368 167.036 153.368C166.108 153.368 165.372 153.656 164.828 154.232C164.3 154.792 164.036 155.6 164.036 156.656V164H160.676V150.704H164.036V152.36C164.484 151.784 165.052 151.336 165.74 151.016C166.444 150.68 167.212 150.512 168.044 150.512ZM1.44434 193.304C1.44434 191.96 1.70834 190.768 2.23634 189.728C2.78034 188.688 3.50834 187.888 4.42034 187.328C5.34834 186.768 6.38034 186.488 7.51634 186.488C8.50834 186.488 9.37234 186.688 10.1083 187.088C10.8603 187.488 11.4603 187.992 11.9083 188.6V186.704H15.2923V200H11.9083V198.056C11.4763 198.68 10.8763 199.2 10.1083 199.616C9.35634 200.016 8.48434 200.216 7.49234 200.216C6.37234 200.216 5.34834 199.928 4.42034 199.352C3.50834 198.776 2.78034 197.968 2.23634 196.928C1.70834 195.872 1.44434 194.664 1.44434 193.304ZM11.9083 193.352C11.9083 192.536 11.7483 191.84 11.4283 191.264C11.1083 190.672 10.6763 190.224 10.1323 189.92C9.58834 189.6 9.00434 189.44 8.38034 189.44C7.75634 189.44 7.18034 189.592 6.65234 189.896C6.12434 190.2 5.69234 190.648 5.35634 191.24C5.03634 191.816 4.87634 192.504 4.87634 193.304C4.87634 194.104 5.03634 194.808 5.35634 195.416C5.69234 196.008 6.12434 196.464 6.65234 196.784C7.19634 197.104 7.77234 197.264 8.38034 197.264C9.00434 197.264 9.58834 197.112 10.1323 196.808C10.6763 196.488 11.1083 196.04 11.4283 195.464C11.7483 194.872 11.9083 194.168 11.9083 193.352ZM25.942 186.512C27.526 186.512 28.806 187.016 29.782 188.024C30.758 189.016 31.246 190.408 31.246 192.2V200H27.886V192.656C27.886 191.6 27.622 190.792 27.094 190.232C26.566 189.656 25.846 189.368 24.934 189.368C24.006 189.368 23.27 189.656 22.726 190.232C22.198 190.792 21.934 191.6 21.934 192.656V200H18.574V186.704H21.934V188.36C22.382 187.784 22.95 187.336 23.638 187.016C24.342 186.68 25.11 186.512 25.942 186.512ZM33.5772 193.304C33.5772 191.96 33.8412 190.768 34.3692 189.728C34.9132 188.688 35.6492 187.888 36.5772 187.328C37.5052 186.768 38.5372 186.488 39.6732 186.488C40.5372 186.488 41.3612 186.68 42.1452 187.064C42.9292 187.432 43.5532 187.928 44.0172 188.552V182.24H47.4252V200H44.0172V198.032C43.6012 198.688 43.0172 199.216 42.2652 199.616C41.5132 200.016 40.6412 200.216 39.6492 200.216C38.5292 200.216 37.5052 199.928 36.5772 199.352C35.6492 198.776 34.9132 197.968 34.3692 196.928C33.8412 195.872 33.5772 194.664 33.5772 193.304ZM44.0412 193.352C44.0412 192.536 43.8812 191.84 43.5612 191.264C43.2412 190.672 42.8092 190.224 42.2652 189.92C41.7212 189.6 41.1372 189.44 40.5132 189.44C39.8892 189.44 39.3132 189.592 38.7852 189.896C38.2572 190.2 37.8252 190.648 37.4892 191.24C37.1692 191.816 37.0092 192.504 37.0092 193.304C37.0092 194.104 37.1692 194.808 37.4892 195.416C37.8252 196.008 38.2572 196.464 38.7852 196.784C39.3292 197.104 39.9052 197.264 40.5132 197.264C41.1372 197.264 41.7212 197.112 42.2652 196.808C42.8092 196.488 43.2412 196.04 43.5612 195.464C43.8812 194.872 44.0412 194.168 44.0412 193.352ZM65.0655 200L61.3695 193.472H59.7855V200H56.4255V183.248H62.7135C64.0095 183.248 65.1135 183.48 66.0255 183.944C66.9375 184.392 67.6175 185.008 68.0655 185.792C68.5295 186.56 68.7615 187.424 68.7615 188.384C68.7615 189.488 68.4415 190.488 67.8015 191.384C67.1615 192.264 66.2095 192.872 64.9455 193.208L68.9535 200H65.0655ZM59.7855 190.952H62.5935C63.5055 190.952 64.1855 190.736 64.6335 190.304C65.0815 189.856 65.3055 189.24 65.3055 188.456C65.3055 187.688 65.0815 187.096 64.6335 186.68C64.1855 186.248 63.5055 186.032 62.5935 186.032H59.7855V190.952ZM84.1605 193.064C84.1605 193.544 84.1285 193.976 84.0645 194.36H74.3445C74.4245 195.32 74.7605 196.072 75.3525 196.616C75.9445 197.16 76.6725 197.432 77.5365 197.432C78.7845 197.432 79.6725 196.896 80.2005 195.824H83.8245C83.4405 197.104 82.7045 198.16 81.6165 198.992C80.5285 199.808 79.1925 200.216 77.6085 200.216C76.3285 200.216 75.1765 199.936 74.1525 199.376C73.1445 198.8 72.3525 197.992 71.7765 196.952C71.2165 195.912 70.9365 194.712 70.9365 193.352C70.9365 191.976 71.2165 190.768 71.7765 189.728C72.3365 188.688 73.1205 187.888 74.1285 187.328C75.1365 186.768 76.2965 186.488 77.6085 186.488C78.8725 186.488 80.0005 186.76 80.9925 187.304C82.0005 187.848 82.7765 188.624 83.3205 189.632C83.8805 190.624 84.1605 191.768 84.1605 193.064ZM80.6805 192.104C80.6645 191.24 80.3525 190.552 79.7445 190.04C79.1365 189.512 78.3925 189.248 77.5125 189.248C76.6805 189.248 75.9765 189.504 75.4005 190.016C74.8405 190.512 74.4965 191.208 74.3685 192.104H80.6805ZM89.973 188.624C90.405 188.016 90.997 187.512 91.749 187.112C92.517 186.696 93.389 186.488 94.365 186.488C95.501 186.488 96.525 186.768 97.437 187.328C98.365 187.888 99.093 188.688 99.621 189.728C100.165 190.752 100.437 191.944 100.437 193.304C100.437 194.664 100.165 195.872 99.621 196.928C99.093 197.968 98.365 198.776 97.437 199.352C96.525 199.928 95.501 200.216 94.365 200.216C93.389 200.216 92.525 200.016 91.773 199.616C91.037 199.216 90.437 198.712 89.973 198.104V206.336H86.613V186.704H89.973V188.624ZM97.005 193.304C97.005 192.504 96.837 191.816 96.501 191.24C96.181 190.648 95.749 190.2 95.205 189.896C94.677 189.592 94.101 189.44 93.477 189.44C92.869 189.44 92.293 189.6 91.749 189.92C91.221 190.224 90.789 190.672 90.453 191.264C90.133 191.856 89.973 192.552 89.973 193.352C89.973 194.152 90.133 194.848 90.453 195.44C90.789 196.032 91.221 196.488 91.749 196.808C92.293 197.112 92.869 197.264 93.477 197.264C94.101 197.264 94.677 197.104 95.205 196.784C95.749 196.464 96.181 196.008 96.501 195.416C96.837 194.824 97.005 194.12 97.005 193.304ZM108.783 200.216C107.503 200.216 106.351 199.936 105.327 199.376C104.303 198.8 103.495 197.992 102.903 196.952C102.327 195.912 102.039 194.712 102.039 193.352C102.039 191.992 102.335 190.792 102.927 189.752C103.535 188.712 104.359 187.912 105.399 187.352C106.439 186.776 107.599 186.488 108.879 186.488C110.159 186.488 111.319 186.776 112.359 187.352C113.399 187.912 114.215 188.712 114.807 189.752C115.415 190.792 115.719 191.992 115.719 193.352C115.719 194.712 115.407 195.912 114.783 196.952C114.175 197.992 113.343 198.8 112.287 199.376C111.247 199.936 110.079 200.216 108.783 200.216ZM108.783 197.288C109.391 197.288 109.959 197.144 110.487 196.856C111.031 196.552 111.463 196.104 111.783 195.512C112.103 194.92 112.263 194.2 112.263 193.352C112.263 192.088 111.927 191.12 111.255 190.448C110.599 189.76 109.791 189.416 108.831 189.416C107.871 189.416 107.063 189.76 106.407 190.448C105.767 191.12 105.447 192.088 105.447 193.352C105.447 194.616 105.759 195.592 106.383 196.28C107.023 196.952 107.823 197.288 108.783 197.288ZM121.543 188.768C121.975 188.064 122.535 187.512 123.223 187.112C123.927 186.712 124.727 186.512 125.623 186.512V190.04H124.735C123.679 190.04 122.879 190.288 122.335 190.784C121.807 191.28 121.543 192.144 121.543 193.376V200H118.183V186.704H121.543V188.768ZM131.798 189.464V195.896C131.798 196.344 131.902 196.672 132.11 196.88C132.334 197.072 132.702 197.168 133.214 197.168H134.774V200H132.662C129.83 200 128.414 198.624 128.414 195.872V189.464H126.83V186.704H128.414V183.416H131.798V186.704H134.774V189.464H131.798ZM138.895 185.12C138.303 185.12 137.807 184.936 137.407 184.568C137.023 184.184 136.831 183.712 136.831 183.152C136.831 182.592 137.023 182.128 137.407 181.76C137.807 181.376 138.303 181.184 138.895 181.184C139.487 181.184 139.975 181.376 140.359 181.76C140.759 182.128 140.959 182.592 140.959 183.152C140.959 183.712 140.759 184.184 140.359 184.568C139.975 184.936 139.487 185.12 138.895 185.12ZM140.551 186.704V200H137.191V186.704H140.551ZM151.239 186.512C152.823 186.512 154.103 187.016 155.079 188.024C156.055 189.016 156.543 190.408 156.543 192.2V200H153.183V192.656C153.183 191.6 152.919 190.792 152.391 190.232C151.863 189.656 151.143 189.368 150.231 189.368C149.303 189.368 148.567 189.656 148.023 190.232C147.495 190.792 147.231 191.6 147.231 192.656V200H143.871V186.704H147.231V188.36C147.679 187.784 148.247 187.336 148.935 187.016C149.639 186.68 150.407 186.512 151.239 186.512ZM164.946 186.488C165.938 186.488 166.81 186.688 167.562 187.088C168.314 187.472 168.906 187.976 169.338 188.6V186.704H172.722V200.096C172.722 201.328 172.474 202.424 171.978 203.384C171.482 204.36 170.738 205.128 169.746 205.688C168.754 206.264 167.554 206.552 166.146 206.552C164.258 206.552 162.706 206.112 161.49 205.232C160.29 204.352 159.61 203.152 159.45 201.632H162.786C162.962 202.24 163.338 202.72 163.914 203.072C164.506 203.44 165.218 203.624 166.05 203.624C167.026 203.624 167.818 203.328 168.426 202.736C169.034 202.16 169.338 201.28 169.338 200.096V198.032C168.906 198.656 168.306 199.176 167.538 199.592C166.786 200.008 165.922 200.216 164.946 200.216C163.826 200.216 162.802 199.928 161.874 199.352C160.946 198.776 160.21 197.968 159.666 196.928C159.138 195.872 158.874 194.664 158.874 193.304C158.874 191.96 159.138 190.768 159.666 189.728C160.21 188.688 160.938 187.888 161.85 187.328C162.778 186.768 163.81 186.488 164.946 186.488ZM169.338 193.352C169.338 192.536 169.178 191.84 168.858 191.264C168.538 190.672 168.106 190.224 167.562 189.92C167.018 189.6 166.434 189.44 165.81 189.44C165.186 189.44 164.61 189.592 164.082 189.896C163.554 190.2 163.122 190.648 162.786 191.24C162.466 191.816 162.306 192.504 162.306 193.304C162.306 194.104 162.466 194.808 162.786 195.416C163.122 196.008 163.554 196.464 164.082 196.784C164.626 197.104 165.202 197.264 165.81 197.264C166.434 197.264 167.018 197.112 167.562 196.808C168.106 196.488 168.538 196.04 168.858 195.464C169.178 194.872 169.338 194.168 169.338 193.352Z" />
<path d="M85.301 97.1718H53.1003C51.677 97.1718 50.3119 96.6031 49.3055 95.5907C48.299 94.5783 47.7336 93.2052 47.7336 91.7734V16.1953C47.7336 14.7636 48.299 13.3904 49.3055 12.378C50.3119 11.3656 51.677 10.7969 53.1003 10.7969H79.9343V26.9922C79.9343 31.2874 81.6305 35.4068 84.6499 38.444C87.6693 41.4812 91.7645 43.1875 96.0346 43.1875H112.135V70.1797C112.135 71.6114 112.7 72.9845 113.707 73.9969C114.713 75.0093 116.078 75.5781 117.502 75.5781C118.925 75.5781 120.29 75.0093 121.297 73.9969C122.303 72.9845 122.869 71.6114 122.869 70.1797V37.789C122.869 37.789 122.869 37.789 122.869 37.4651C122.813 36.9692 122.705 36.4806 122.547 36.0076V35.5217C122.288 34.9666 121.944 34.4564 121.527 34.0101L89.3261 1.61953C88.8825 1.19962 88.3753 0.85339 87.8234 0.593827C87.6459 0.562568 87.4643 0.562568 87.2868 0.593827C86.7649 0.313126 86.2041 0.112946 85.6231 0H53.1003C48.8303 0 44.7351 1.70629 41.7157 4.7435C38.6963 7.7807 37 11.9 37 16.1953V91.7734C37 96.0687 38.6963 100.188 41.7157 103.225C44.7351 106.262 48.8303 107.969 53.1003 107.969H85.301C86.7244 107.969 88.0895 107.4 89.0959 106.388C90.1024 105.375 90.6678 104.002 90.6678 102.57C90.6678 101.139 90.1024 99.7654 89.0959 98.753C88.0895 97.7406 86.7244 97.1718 85.301 97.1718ZM90.6678 18.4087L104.568 32.3906H96.0346C94.6113 32.3906 93.2462 31.8218 92.2397 30.8094C91.2333 29.797 90.6678 28.4239 90.6678 26.9922V18.4087ZM63.8339 64.7812H96.0346C97.458 64.7812 98.823 64.2125 99.8295 63.2001C100.836 62.1877 101.401 60.8145 101.401 59.3828C101.401 57.951 100.836 56.5779 99.8295 55.5655C98.823 54.5531 97.458 53.9844 96.0346 53.9844H63.8339C62.4106 53.9844 61.0455 54.5531 60.039 55.5655C59.0326 56.5779 58.4671 57.951 58.4671 59.3828C58.4671 60.8145 59.0326 62.1877 60.039 63.2001C61.0455 64.2125 62.4106 64.7812 63.8339 64.7812ZM85.301 75.5781H63.8339C62.4106 75.5781 61.0455 76.1469 60.039 77.1593C59.0326 78.1717 58.4671 79.5448 58.4671 80.9765C58.4671 82.4083 59.0326 83.7814 60.039 84.7938C61.0455 85.8062 62.4106 86.375 63.8339 86.375H85.301C86.7244 86.375 88.0895 85.8062 89.0959 84.7938C90.1024 83.7814 90.6678 82.4083 90.6678 80.9765C90.6678 79.5448 90.1024 78.1717 89.0959 77.1593C88.0895 76.1469 86.7244 75.5781 85.301 75.5781ZM63.8339 43.1875H69.2007C70.6241 43.1875 71.9891 42.6187 72.9956 41.6063C74.0021 40.5939 74.5675 39.2208 74.5675 37.789C74.5675 36.3573 74.0021 34.9842 72.9956 33.9718C71.9891 32.9594 70.6241 32.3906 69.2007 32.3906H63.8339C62.4106 32.3906 61.0455 32.9594 60.039 33.9718C59.0326 34.9842 58.4671 36.3573 58.4671 37.789C58.4671 39.2208 59.0326 40.5939 60.039 41.6063C61.0455 42.6187 62.4106 43.1875 63.8339 43.1875ZM137.413 77.1436C136.914 76.6377 136.32 76.236 135.666 75.962C135.012 75.6879 134.311 75.5468 133.602 75.5468C132.894 75.5468 132.192 75.6879 131.538 75.962C130.884 76.236 130.291 76.6377 129.792 77.1436L112.135 94.9585L105.212 87.9405C104.711 87.4372 104.117 87.0379 103.464 86.7655C102.81 86.4931 102.109 86.3529 101.401 86.3529C100.694 86.3529 99.993 86.4931 99.3392 86.7655C98.6854 87.0379 98.0914 87.4372 97.591 87.9405C97.0906 88.4439 96.6937 89.0414 96.4228 89.6991C96.152 90.3567 96.0127 91.0616 96.0127 91.7734C96.0127 92.4852 96.152 93.1901 96.4228 93.8477C96.6937 94.5054 97.0906 95.1029 97.591 95.6063L108.325 106.403C108.823 106.909 109.417 107.311 110.071 107.585C110.725 107.859 111.426 108 112.135 108C112.843 108 113.545 107.859 114.199 107.585C114.853 107.311 115.446 106.909 115.945 106.403L137.413 84.8094C137.916 84.3076 138.315 83.7105 138.587 83.0526C138.86 82.3948 139 81.6892 139 80.9765C139 80.2639 138.86 79.5583 138.587 78.9004C138.315 78.2426 137.916 77.6455 137.413 77.1436Z" />
</svg>
