<svg width="237" height="190" viewBox="0 0 257 212" fill="none" xmlns="http://www.w3.org/2000/svg">
<path d="M175.9 0H82.1C76.7691 0 71.6566 2.1247 67.8872 5.90668C64.1177 9.68866 62 14.8181 62 20.1667V73.9444C62 79.293 64.1177 84.4225 67.8872 88.2044C71.6566 91.9864 76.7691 94.1111 82.1 94.1111H122.3V107.556H95.5C93.723 107.556 92.0189 108.264 90.7624 109.524C89.5059 110.785 88.8 112.495 88.8 114.278C88.8 116.061 89.5059 117.77 90.7624 119.031C92.0189 120.292 93.723 121 95.5 121H162.5C164.277 121 165.981 120.292 167.238 119.031C168.494 117.77 169.2 116.061 169.2 114.278C169.2 112.495 168.494 110.785 167.238 109.524C165.981 108.264 164.277 107.556 162.5 107.556H135.7V94.1111H175.9C181.231 94.1111 186.343 91.9864 190.113 88.2044C193.882 84.4225 196 79.293 196 73.9444V20.1667C196 14.8181 193.882 9.68866 190.113 5.90668C186.343 2.1247 181.231 0 175.9 0ZM182.6 73.9444C182.6 75.7273 181.894 77.4371 180.638 78.6978C179.381 79.9584 177.677 80.6667 175.9 80.6667H82.1C80.323 80.6667 78.6189 79.9584 77.3624 78.6978C76.1059 77.4371 75.4 75.7273 75.4 73.9444V20.1667C75.4 18.3838 76.1059 16.674 77.3624 15.4133C78.6189 14.1527 80.323 13.4444 82.1 13.4444H175.9C177.677 13.4444 179.381 14.1527 180.638 15.4133C181.894 16.674 182.6 18.3838 182.6 20.1667V73.9444Z" />
<path d="M49.0824 149.248V166H45.7224V149.248H49.0824ZM59.7701 152.512C61.3541 152.512 62.6341 153.016 63.6101 154.024C64.5861 155.016 65.0741 156.408 65.0741 158.2V166H61.7141V158.656C61.7141 157.6 61.4501 156.792 60.9221 156.232C60.3941 155.656 59.6741 155.368 58.7621 155.368C57.8341 155.368 57.0981 155.656 56.5541 156.232C56.0261 156.792 55.7621 157.6 55.7621 158.656V166H52.4021V152.704H55.7621V154.36C56.2101 153.784 56.7781 153.336 57.4661 153.016C58.1701 152.68 58.9381 152.512 59.7701 152.512ZM74.3653 155.464H72.0373V166H68.6293V155.464H67.1173V152.704H68.6293V152.032C68.6293 150.4 69.0933 149.2 70.0213 148.432C70.9493 147.664 72.3493 147.304 74.2213 147.352V150.184C73.4053 150.168 72.8373 150.304 72.5173 150.592C72.1973 150.88 72.0373 151.4 72.0373 152.152V152.704H74.3653V155.464ZM79.9027 154.768C80.3347 154.064 80.8947 153.512 81.5827 153.112C82.2867 152.712 83.0867 152.512 83.9827 152.512V156.04H83.0947C82.0387 156.04 81.2387 156.288 80.6947 156.784C80.1667 157.28 79.9027 158.144 79.9027 159.376V166H76.5427V152.704H79.9027V154.768ZM85.3818 159.304C85.3818 157.96 85.6458 156.768 86.1738 155.728C86.7178 154.688 87.4458 153.888 88.3578 153.328C89.2858 152.768 90.3178 152.488 91.4538 152.488C92.4458 152.488 93.3098 152.688 94.0458 153.088C94.7978 153.488 95.3978 153.992 95.8458 154.6V152.704H99.2298V166H95.8458V164.056C95.4138 164.68 94.8138 165.2 94.0458 165.616C93.2938 166.016 92.4218 166.216 91.4298 166.216C90.3098 166.216 89.2858 165.928 88.3578 165.352C87.4458 164.776 86.7178 163.968 86.1738 162.928C85.6458 161.872 85.3818 160.664 85.3818 159.304ZM95.8458 159.352C95.8458 158.536 95.6858 157.84 95.3658 157.264C95.0458 156.672 94.6138 156.224 94.0698 155.92C93.5258 155.6 92.9418 155.44 92.3178 155.44C91.6938 155.44 91.1178 155.592 90.5898 155.896C90.0618 156.2 89.6298 156.648 89.2938 157.24C88.9738 157.816 88.8138 158.504 88.8138 159.304C88.8138 160.104 88.9738 160.808 89.2938 161.416C89.6298 162.008 90.0618 162.464 90.5898 162.784C91.1338 163.104 91.7098 163.264 92.3178 163.264C92.9418 163.264 93.5258 163.112 94.0698 162.808C94.6138 162.488 95.0458 162.04 95.3658 161.464C95.6858 160.872 95.8458 160.168 95.8458 159.352ZM107.599 166.216C106.511 166.216 105.535 166.024 104.671 165.64C103.807 165.24 103.119 164.704 102.607 164.032C102.111 163.36 101.839 162.616 101.791 161.8H105.175C105.239 162.312 105.487 162.736 105.919 163.072C106.367 163.408 106.919 163.576 107.575 163.576C108.215 163.576 108.711 163.448 109.063 163.192C109.431 162.936 109.615 162.608 109.615 162.208C109.615 161.776 109.391 161.456 108.943 161.248C108.511 161.024 107.815 160.784 106.855 160.528C105.863 160.288 105.047 160.04 104.407 159.784C103.783 159.528 103.239 159.136 102.775 158.608C102.327 158.08 102.103 157.368 102.103 156.472C102.103 155.736 102.311 155.064 102.727 154.456C103.159 153.848 103.767 153.368 104.551 153.016C105.351 152.664 106.287 152.488 107.359 152.488C108.943 152.488 110.207 152.888 111.151 153.688C112.095 154.472 112.615 155.536 112.711 156.88H109.495C109.447 156.352 109.223 155.936 108.823 155.632C108.439 155.312 107.919 155.152 107.263 155.152C106.655 155.152 106.183 155.264 105.847 155.488C105.527 155.712 105.367 156.024 105.367 156.424C105.367 156.872 105.591 157.216 106.039 157.456C106.487 157.68 107.183 157.912 108.127 158.152C109.087 158.392 109.879 158.64 110.503 158.896C111.127 159.152 111.663 159.552 112.111 160.096C112.575 160.624 112.815 161.328 112.831 162.208C112.831 162.976 112.615 163.664 112.183 164.272C111.767 164.88 111.159 165.36 110.359 165.712C109.575 166.048 108.655 166.216 107.599 166.216ZM119.502 155.464V161.896C119.502 162.344 119.606 162.672 119.814 162.88C120.038 163.072 120.406 163.168 120.918 163.168H122.478V166H120.366C117.534 166 116.118 164.624 116.118 161.872V155.464H114.534V152.704H116.118V149.416H119.502V152.704H122.478V155.464H119.502ZM128.254 154.768C128.686 154.064 129.246 153.512 129.934 153.112C130.638 152.712 131.438 152.512 132.334 152.512V156.04H131.446C130.39 156.04 129.59 156.288 129.046 156.784C128.518 157.28 128.254 158.144 128.254 159.376V166H124.894V152.704H128.254V154.768ZM147.149 152.704V166H143.765V164.32C143.333 164.896 142.765 165.352 142.061 165.688C141.373 166.008 140.621 166.168 139.805 166.168C138.765 166.168 137.845 165.952 137.045 165.52C136.245 165.072 135.613 164.424 135.149 163.576C134.701 162.712 134.477 161.688 134.477 160.504V152.704H137.837V160.024C137.837 161.08 138.101 161.896 138.629 162.472C139.157 163.032 139.877 163.312 140.789 163.312C141.717 163.312 142.445 163.032 142.973 162.472C143.501 161.896 143.765 161.08 143.765 160.024V152.704H147.149ZM149.601 159.352C149.601 157.976 149.881 156.776 150.441 155.752C151.001 154.712 151.777 153.912 152.769 153.352C153.761 152.776 154.897 152.488 156.177 152.488C157.825 152.488 159.185 152.904 160.257 153.736C161.345 154.552 162.073 155.704 162.441 157.192H158.817C158.625 156.616 158.297 156.168 157.833 155.848C157.385 155.512 156.825 155.344 156.153 155.344C155.193 155.344 154.433 155.696 153.873 156.4C153.313 157.088 153.033 158.072 153.033 159.352C153.033 160.616 153.313 161.6 153.873 162.304C154.433 162.992 155.193 163.336 156.153 163.336C157.513 163.336 158.401 162.728 158.817 161.512H162.441C162.073 162.952 161.345 164.096 160.257 164.944C159.169 165.792 157.809 166.216 156.177 166.216C154.897 166.216 153.761 165.936 152.769 165.376C151.777 164.8 151.001 164 150.441 162.976C149.881 161.936 149.601 160.728 149.601 159.352ZM168.814 155.464V161.896C168.814 162.344 168.918 162.672 169.126 162.88C169.35 163.072 169.718 163.168 170.23 163.168H171.79V166H169.678C166.846 166 165.43 164.624 165.43 161.872V155.464H163.846V152.704H165.43V149.416H168.814V152.704H171.79V155.464H168.814ZM186.759 152.704V166H183.375V164.32C182.943 164.896 182.375 165.352 181.671 165.688C180.983 166.008 180.231 166.168 179.415 166.168C178.375 166.168 177.455 165.952 176.655 165.52C175.855 165.072 175.223 164.424 174.759 163.576C174.311 162.712 174.087 161.688 174.087 160.504V152.704H177.447V160.024C177.447 161.08 177.711 161.896 178.239 162.472C178.767 163.032 179.487 163.312 180.399 163.312C181.327 163.312 182.055 163.032 182.583 162.472C183.111 161.896 183.375 161.08 183.375 160.024V152.704H186.759ZM193.434 154.768C193.866 154.064 194.426 153.512 195.114 153.112C195.818 152.712 196.618 152.512 197.514 152.512V156.04H196.626C195.57 156.04 194.77 156.288 194.226 156.784C193.698 157.28 193.434 158.144 193.434 159.376V166H190.074V152.704H193.434V154.768ZM212.137 159.064C212.137 159.544 212.105 159.976 212.041 160.36H202.321C202.401 161.32 202.737 162.072 203.329 162.616C203.921 163.16 204.649 163.432 205.513 163.432C206.761 163.432 207.649 162.896 208.177 161.824H211.801C211.417 163.104 210.681 164.16 209.593 164.992C208.505 165.808 207.169 166.216 205.585 166.216C204.305 166.216 203.153 165.936 202.129 165.376C201.121 164.8 200.329 163.992 199.753 162.952C199.193 161.912 198.913 160.712 198.913 159.352C198.913 157.976 199.193 156.768 199.753 155.728C200.313 154.688 201.097 153.888 202.105 153.328C203.113 152.768 204.273 152.488 205.585 152.488C206.849 152.488 207.977 152.76 208.969 153.304C209.977 153.848 210.753 154.624 211.297 155.632C211.857 156.624 212.137 157.768 212.137 159.064ZM208.657 158.104C208.641 157.24 208.329 156.552 207.721 156.04C207.113 155.512 206.369 155.248 205.489 155.248C204.657 155.248 203.953 155.504 203.377 156.016C202.817 156.512 202.473 157.208 202.345 158.104H208.657ZM82.1388 185.248V202H78.7788V191.104L74.2908 202H71.7468L67.2348 191.104V202H63.8748V185.248H67.6908L73.0188 197.704L78.3468 185.248H82.1388ZM91.3647 202.216C90.0847 202.216 88.9327 201.936 87.9087 201.376C86.8847 200.8 86.0767 199.992 85.4847 198.952C84.9087 197.912 84.6207 196.712 84.6207 195.352C84.6207 193.992 84.9167 192.792 85.5087 191.752C86.1167 190.712 86.9407 189.912 87.9807 189.352C89.0207 188.776 90.1807 188.488 91.4607 188.488C92.7407 188.488 93.9007 188.776 94.9407 189.352C95.9807 189.912 96.7967 190.712 97.3887 191.752C97.9967 192.792 98.3007 193.992 98.3007 195.352C98.3007 196.712 97.9887 197.912 97.3647 198.952C96.7567 199.992 95.9247 200.8 94.8687 201.376C93.8287 201.936 92.6607 202.216 91.3647 202.216ZM91.3647 199.288C91.9727 199.288 92.5407 199.144 93.0687 198.856C93.6127 198.552 94.0447 198.104 94.3647 197.512C94.6847 196.92 94.8447 196.2 94.8447 195.352C94.8447 194.088 94.5087 193.12 93.8367 192.448C93.1807 191.76 92.3727 191.416 91.4127 191.416C90.4527 191.416 89.6447 191.76 88.9887 192.448C88.3487 193.12 88.0287 194.088 88.0287 195.352C88.0287 196.616 88.3407 197.592 88.9647 198.28C89.6047 198.952 90.4047 199.288 91.3647 199.288ZM108.133 188.512C109.717 188.512 110.997 189.016 111.973 190.024C112.949 191.016 113.437 192.408 113.437 194.2V202H110.077V194.656C110.077 193.6 109.813 192.792 109.285 192.232C108.757 191.656 108.037 191.368 107.125 191.368C106.197 191.368 105.461 191.656 104.917 192.232C104.389 192.792 104.125 193.6 104.125 194.656V202H100.765V188.704H104.125V190.36C104.573 189.784 105.141 189.336 105.829 189.016C106.533 188.68 107.301 188.512 108.133 188.512ZM118.337 187.12C117.745 187.12 117.249 186.936 116.849 186.568C116.465 186.184 116.273 185.712 116.273 185.152C116.273 184.592 116.465 184.128 116.849 183.76C117.249 183.376 117.745 183.184 118.337 183.184C118.929 183.184 119.417 183.376 119.801 183.76C120.201 184.128 120.401 184.592 120.401 185.152C120.401 185.712 120.201 186.184 119.801 186.568C119.417 186.936 118.929 187.12 118.337 187.12ZM119.993 188.704V202H116.633V188.704H119.993ZM127.224 191.464V197.896C127.224 198.344 127.328 198.672 127.536 198.88C127.76 199.072 128.128 199.168 128.64 199.168H130.2V202H128.088C125.256 202 123.84 200.624 123.84 197.872V191.464H122.256V188.704H123.84V185.416H127.224V188.704H130.2V191.464H127.224ZM138.521 202.216C137.241 202.216 136.089 201.936 135.065 201.376C134.041 200.8 133.233 199.992 132.641 198.952C132.065 197.912 131.777 196.712 131.777 195.352C131.777 193.992 132.073 192.792 132.665 191.752C133.273 190.712 134.097 189.912 135.137 189.352C136.177 188.776 137.337 188.488 138.617 188.488C139.897 188.488 141.057 188.776 142.097 189.352C143.137 189.912 143.953 190.712 144.545 191.752C145.153 192.792 145.457 193.992 145.457 195.352C145.457 196.712 145.145 197.912 144.521 198.952C143.913 199.992 143.081 200.8 142.025 201.376C140.985 201.936 139.817 202.216 138.521 202.216ZM138.521 199.288C139.129 199.288 139.697 199.144 140.225 198.856C140.769 198.552 141.201 198.104 141.521 197.512C141.841 196.92 142.001 196.2 142.001 195.352C142.001 194.088 141.665 193.12 140.993 192.448C140.337 191.76 139.529 191.416 138.569 191.416C137.609 191.416 136.801 191.76 136.145 192.448C135.505 193.12 135.185 194.088 135.185 195.352C135.185 196.616 135.497 197.592 136.121 198.28C136.761 198.952 137.561 199.288 138.521 199.288ZM151.282 190.768C151.714 190.064 152.274 189.512 152.962 189.112C153.666 188.712 154.466 188.512 155.362 188.512V192.04H154.474C153.418 192.04 152.618 192.288 152.074 192.784C151.546 193.28 151.282 194.144 151.282 195.376V202H147.922V188.704H151.282V190.768ZM159.329 187.12C158.737 187.12 158.241 186.936 157.841 186.568C157.457 186.184 157.265 185.712 157.265 185.152C157.265 184.592 157.457 184.128 157.841 183.76C158.241 183.376 158.737 183.184 159.329 183.184C159.921 183.184 160.409 183.376 160.793 183.76C161.193 184.128 161.393 184.592 161.393 185.152C161.393 185.712 161.193 186.184 160.793 186.568C160.409 186.936 159.921 187.12 159.329 187.12ZM160.985 188.704V202H157.625V188.704H160.985ZM171.672 188.512C173.256 188.512 174.536 189.016 175.512 190.024C176.488 191.016 176.976 192.408 176.976 194.2V202H173.616V194.656C173.616 193.6 173.352 192.792 172.824 192.232C172.296 191.656 171.576 191.368 170.664 191.368C169.736 191.368 169 191.656 168.456 192.232C167.928 192.792 167.664 193.6 167.664 194.656V202H164.304V188.704H167.664V190.36C168.112 189.784 168.68 189.336 169.368 189.016C170.072 188.68 170.84 188.512 171.672 188.512ZM185.38 188.488C186.372 188.488 187.244 188.688 187.996 189.088C188.748 189.472 189.34 189.976 189.772 190.6V188.704H193.156V202.096C193.156 203.328 192.908 204.424 192.412 205.384C191.916 206.36 191.172 207.128 190.18 207.688C189.188 208.264 187.988 208.552 186.58 208.552C184.692 208.552 183.14 208.112 181.924 207.232C180.724 206.352 180.044 205.152 179.884 203.632H183.22C183.396 204.24 183.772 204.72 184.348 205.072C184.94 205.44 185.652 205.624 186.484 205.624C187.46 205.624 188.252 205.328 188.86 204.736C189.468 204.16 189.772 203.28 189.772 202.096V200.032C189.34 200.656 188.74 201.176 187.972 201.592C187.22 202.008 186.356 202.216 185.38 202.216C184.26 202.216 183.236 201.928 182.308 201.352C181.38 200.776 180.644 199.968 180.1 198.928C179.572 197.872 179.308 196.664 179.308 195.304C179.308 193.96 179.572 192.768 180.1 191.728C180.644 190.688 181.372 189.888 182.284 189.328C183.212 188.768 184.244 188.488 185.38 188.488ZM189.772 195.352C189.772 194.536 189.612 193.84 189.292 193.264C188.972 192.672 188.54 192.224 187.996 191.92C187.452 191.6 186.868 191.44 186.244 191.44C185.62 191.44 185.044 191.592 184.516 191.896C183.988 192.2 183.556 192.648 183.22 193.24C182.9 193.816 182.74 194.504 182.74 195.304C182.74 196.104 182.9 196.808 183.22 197.416C183.556 198.008 183.988 198.464 184.516 198.784C185.06 199.104 185.636 199.264 186.244 199.264C186.868 199.264 187.452 199.112 187.996 198.808C188.54 198.488 188.972 198.04 189.292 197.464C189.612 196.872 189.772 196.168 189.772 195.352Z" />
</svg>
