<svg width="145" height="180" viewBox="0 0 165 205" fill="none" xmlns="http://www.w3.org/2000/svg">
<path d="M104.09 108.606C102.691 108.606 101.237 108.552 99.6767 108.391C96.878 108.176 93.7027 107.637 90.4197 106.83L81.3779 104.677C56.5669 98.8109 48.4401 85.6789 54.2527 60.9217L59.527 38.3711C60.7111 33.2583 62.1104 29.1141 63.8326 25.6696C73.0896 6.56357 90.7964 8.28581 103.39 11.2459L112.378 13.3449C124.972 16.305 132.937 20.9873 137.404 28.1454C141.818 35.3034 142.517 44.5066 139.557 57.1005L134.283 79.5972C129.654 99.2953 120.021 108.606 104.09 108.606ZM89.6124 17.489C80.6244 17.489 74.9195 21.2026 71.0983 29.1679C69.699 32.0742 68.4611 35.6801 67.3847 40.201L62.1104 62.7516C57.3204 83.0955 62.8639 91.9758 83.2078 96.8196L92.2495 98.9724C95.1558 99.672 97.9006 100.103 100.376 100.318C115.015 101.771 122.281 95.3664 126.371 77.7673L131.646 55.2706C134.068 44.8834 133.745 37.6177 130.516 32.3971C127.286 27.1766 120.936 23.6245 110.494 21.2026L101.507 19.1036C97.0395 18.0272 93.0568 17.489 89.6124 17.489Z" />
<path d="M63.8282 119.748C49.9964 119.748 41.17 111.459 35.5189 93.968L28.6299 72.7091C20.9875 49.0283 27.8226 35.681 51.3958 28.0386L59.8993 25.2937C62.6979 24.4326 64.7969 23.8406 66.6806 23.5177C68.2414 23.1948 69.7483 23.7868 70.6633 25.0246C71.5782 26.2625 71.7397 27.8771 71.0938 29.2764C69.6945 32.1289 68.4567 35.7348 67.4341 40.2557L62.1597 62.8062C57.3698 83.1502 62.9132 92.0304 83.2571 96.8742L92.2989 99.027C95.2052 99.7267 97.95 100.157 100.426 100.373C102.148 100.534 103.547 101.718 104.032 103.386C104.462 105.055 103.816 106.777 102.417 107.746C98.8649 110.168 94.3979 112.213 88.7468 114.043L80.2432 116.841C74.0539 118.779 68.6719 119.748 63.8282 119.748ZM60.8681 33.4744L53.9253 35.7348C34.7116 41.9241 30.1369 50.9658 36.3262 70.2334L43.2151 91.4922C49.4582 110.706 58.5 115.334 77.7137 109.145L86.2172 106.347C86.5402 106.239 86.8093 106.131 87.1322 106.024L81.4273 104.678C56.6163 98.8118 48.4895 85.6797 54.302 60.9225L59.5764 38.372C59.9531 36.6497 60.3837 34.9813 60.8681 33.4744Z" />
<path d="M113.13 56.5635C112.807 56.5635 112.484 56.5097 112.107 56.4559L86.0048 49.836C83.852 49.2978 82.5604 47.0912 83.0986 44.9384C83.6368 42.7856 85.8434 41.494 87.9962 42.0322L114.099 48.652C116.252 49.1902 117.543 51.3968 117.005 53.5496C116.575 55.3257 114.906 56.5635 113.13 56.5635Z" />
<path d="M97.357 74.7564C97.0341 74.7564 96.7111 74.7026 96.3344 74.6488L80.6728 70.6661C78.52 70.1279 77.2283 67.9213 77.7665 65.7685C78.3047 63.6157 80.5113 62.324 82.6641 62.8622L98.3257 66.8449C100.479 67.3831 101.77 69.5897 101.232 71.7425C100.801 73.5724 99.1869 74.7564 97.357 74.7564Z" />
<path d="M17.9076 142.248V144.96H13.4436V159H10.0836V144.96H5.61956V142.248H17.9076ZM23.7191 147.768C24.1511 147.064 24.7111 146.512 25.3991 146.112C26.1031 145.712 26.9031 145.512 27.7991 145.512V149.04H26.9111C25.8551 149.04 25.0551 149.288 24.5111 149.784C23.9831 150.28 23.7191 151.144 23.7191 152.376V159H20.3591V145.704H23.7191V147.768ZM29.1982 152.304C29.1982 150.96 29.4622 149.768 29.9902 148.728C30.5343 147.688 31.2623 146.888 32.1743 146.328C33.1023 145.768 34.1343 145.488 35.2703 145.488C36.2623 145.488 37.1263 145.688 37.8623 146.088C38.6143 146.488 39.2143 146.992 39.6623 147.6V145.704H43.0463V159H39.6623V157.056C39.2303 157.68 38.6303 158.2 37.8623 158.616C37.1103 159.016 36.2383 159.216 35.2463 159.216C34.1263 159.216 33.1023 158.928 32.1743 158.352C31.2623 157.776 30.5343 156.968 29.9902 155.928C29.4622 154.872 29.1982 153.664 29.1982 152.304ZM39.6623 152.352C39.6623 151.536 39.5023 150.84 39.1823 150.264C38.8623 149.672 38.4303 149.224 37.8863 148.92C37.3423 148.6 36.7583 148.44 36.1343 148.44C35.5103 148.44 34.9343 148.592 34.4062 148.896C33.8783 149.2 33.4463 149.648 33.1103 150.24C32.7903 150.816 32.6303 151.504 32.6303 152.304C32.6303 153.104 32.7903 153.808 33.1103 154.416C33.4463 155.008 33.8783 155.464 34.4062 155.784C34.9503 156.104 35.5263 156.264 36.1343 156.264C36.7583 156.264 37.3423 156.112 37.8863 155.808C38.4303 155.488 38.8623 155.04 39.1823 154.464C39.5023 153.872 39.6623 153.168 39.6623 152.352ZM48.0319 144.12C47.4399 144.12 46.9439 143.936 46.5439 143.568C46.1599 143.184 45.9679 142.712 45.9679 142.152C45.9679 141.592 46.1599 141.128 46.5439 140.76C46.9439 140.376 47.4399 140.184 48.0319 140.184C48.6239 140.184 49.1119 140.376 49.4959 140.76C49.8959 141.128 50.0959 141.592 50.0959 142.152C50.0959 142.712 49.8959 143.184 49.4959 143.568C49.1119 143.936 48.6239 144.12 48.0319 144.12ZM49.6879 145.704V159H46.3279V145.704H49.6879ZM60.3756 145.512C61.9596 145.512 63.2396 146.016 64.2156 147.024C65.1916 148.016 65.6796 149.408 65.6796 151.2V159H62.3196V151.656C62.3196 150.6 62.0556 149.792 61.5276 149.232C60.9996 148.656 60.2796 148.368 59.3676 148.368C58.4396 148.368 57.7036 148.656 57.1596 149.232C56.6316 149.792 56.3676 150.6 56.3676 151.656V159H53.0076V145.704H56.3676V147.36C56.8156 146.784 57.3836 146.336 58.0716 146.016C58.7756 145.68 59.5436 145.512 60.3756 145.512ZM70.5788 144.12C69.9868 144.12 69.4908 143.936 69.0908 143.568C68.7068 143.184 68.5148 142.712 68.5148 142.152C68.5148 141.592 68.7068 141.128 69.0908 140.76C69.4908 140.376 69.9868 140.184 70.5788 140.184C71.1708 140.184 71.6588 140.376 72.0428 140.76C72.4428 141.128 72.6428 141.592 72.6428 142.152C72.6428 142.712 72.4428 143.184 72.0428 143.568C71.6588 143.936 71.1708 144.12 70.5788 144.12ZM72.2348 145.704V159H68.8748V145.704H72.2348ZM82.9224 145.512C84.5064 145.512 85.7864 146.016 86.7624 147.024C87.7384 148.016 88.2264 149.408 88.2264 151.2V159H84.8664V151.656C84.8664 150.6 84.6024 149.792 84.0744 149.232C83.5464 148.656 82.8264 148.368 81.9144 148.368C80.9864 148.368 80.2504 148.656 79.7064 149.232C79.1784 149.792 78.9144 150.6 78.9144 151.656V159H75.5544V145.704H78.9144V147.36C79.3624 146.784 79.9304 146.336 80.6184 146.016C81.3224 145.68 82.0904 145.512 82.9224 145.512ZM96.6296 145.488C97.6216 145.488 98.4936 145.688 99.2456 146.088C99.9976 146.472 100.59 146.976 101.022 147.6V145.704H104.406V159.096C104.406 160.328 104.158 161.424 103.662 162.384C103.166 163.36 102.422 164.128 101.43 164.688C100.438 165.264 99.2376 165.552 97.8296 165.552C95.9416 165.552 94.3896 165.112 93.1736 164.232C91.9736 163.352 91.2936 162.152 91.1336 160.632H94.4696C94.6456 161.24 95.0216 161.72 95.5976 162.072C96.1896 162.44 96.9016 162.624 97.7336 162.624C98.7096 162.624 99.5016 162.328 100.11 161.736C100.718 161.16 101.022 160.28 101.022 159.096V157.032C100.59 157.656 99.9896 158.176 99.2216 158.592C98.4696 159.008 97.6056 159.216 96.6296 159.216C95.5096 159.216 94.4856 158.928 93.5576 158.352C92.6296 157.776 91.8936 156.968 91.3496 155.928C90.8216 154.872 90.5576 153.664 90.5576 152.304C90.5576 150.96 90.8216 149.768 91.3496 148.728C91.8936 147.688 92.6216 146.888 93.5336 146.328C94.4616 145.768 95.4936 145.488 96.6296 145.488ZM101.022 152.352C101.022 151.536 100.862 150.84 100.542 150.264C100.222 149.672 99.7896 149.224 99.2456 148.92C98.7016 148.6 98.1176 148.44 97.4936 148.44C96.8696 148.44 96.2936 148.592 95.7656 148.896C95.2376 149.2 94.8056 149.648 94.4696 150.24C94.1496 150.816 93.9896 151.504 93.9896 152.304C93.9896 153.104 94.1496 153.808 94.4696 154.416C94.8056 155.008 95.2376 155.464 95.7656 155.784C96.3096 156.104 96.8856 156.264 97.4936 156.264C98.1176 156.264 98.7016 156.112 99.2456 155.808C99.7896 155.488 100.222 155.04 100.542 154.464C100.862 153.872 101.022 153.168 101.022 152.352ZM112.542 152.304C112.542 150.96 112.806 149.768 113.334 148.728C113.878 147.688 114.606 146.888 115.518 146.328C116.446 145.768 117.478 145.488 118.614 145.488C119.606 145.488 120.47 145.688 121.206 146.088C121.958 146.488 122.558 146.992 123.006 147.6V145.704H126.39V159H123.006V157.056C122.574 157.68 121.974 158.2 121.206 158.616C120.454 159.016 119.582 159.216 118.59 159.216C117.47 159.216 116.446 158.928 115.518 158.352C114.606 157.776 113.878 156.968 113.334 155.928C112.806 154.872 112.542 153.664 112.542 152.304ZM123.006 152.352C123.006 151.536 122.846 150.84 122.526 150.264C122.206 149.672 121.774 149.224 121.23 148.92C120.686 148.6 120.102 148.44 119.478 148.44C118.854 148.44 118.278 148.592 117.75 148.896C117.222 149.2 116.79 149.648 116.454 150.24C116.134 150.816 115.974 151.504 115.974 152.304C115.974 153.104 116.134 153.808 116.454 154.416C116.79 155.008 117.222 155.464 117.75 155.784C118.294 156.104 118.87 156.264 119.478 156.264C120.102 156.264 120.686 156.112 121.23 155.808C121.774 155.488 122.206 155.04 122.526 154.464C122.846 153.872 123.006 153.168 123.006 152.352ZM137.04 145.512C138.624 145.512 139.904 146.016 140.88 147.024C141.856 148.016 142.344 149.408 142.344 151.2V159H138.984V151.656C138.984 150.6 138.72 149.792 138.192 149.232C137.664 148.656 136.944 148.368 136.032 148.368C135.104 148.368 134.368 148.656 133.824 149.232C133.296 149.792 133.032 150.6 133.032 151.656V159H129.672V145.704H133.032V147.36C133.48 146.784 134.048 146.336 134.736 146.016C135.44 145.68 136.208 145.512 137.04 145.512ZM144.675 152.304C144.675 150.96 144.939 149.768 145.467 148.728C146.011 147.688 146.747 146.888 147.675 146.328C148.603 145.768 149.635 145.488 150.771 145.488C151.635 145.488 152.459 145.68 153.243 146.064C154.027 146.432 154.651 146.928 155.115 147.552V141.24H158.523V159H155.115V157.032C154.699 157.688 154.115 158.216 153.363 158.616C152.611 159.016 151.739 159.216 150.747 159.216C149.627 159.216 148.603 158.928 147.675 158.352C146.747 157.776 146.011 156.968 145.467 155.928C144.939 154.872 144.675 153.664 144.675 152.304ZM155.139 152.352C155.139 151.536 154.979 150.84 154.659 150.264C154.339 149.672 153.907 149.224 153.363 148.92C152.819 148.6 152.235 148.44 151.611 148.44C150.987 148.44 150.411 148.592 149.883 148.896C149.355 149.2 148.923 149.648 148.587 150.24C148.267 150.816 148.107 151.504 148.107 152.304C148.107 153.104 148.267 153.808 148.587 154.416C148.923 155.008 149.355 155.464 149.883 155.784C150.427 156.104 151.003 156.264 151.611 156.264C152.235 156.264 152.819 156.112 153.363 155.808C153.907 155.488 154.339 155.04 154.659 154.464C154.979 153.872 155.139 153.168 155.139 152.352ZM7.72294 178.248C9.48294 178.248 11.0269 178.592 12.3549 179.28C13.6989 179.968 14.7309 180.952 15.4509 182.232C16.1869 183.496 16.5549 184.968 16.5549 186.648C16.5549 188.328 16.1869 189.8 15.4509 191.064C14.7309 192.312 13.6989 193.28 12.3549 193.968C11.0269 194.656 9.48294 195 7.72294 195H1.86694V178.248H7.72294ZM7.60294 192.144C9.36294 192.144 10.7229 191.664 11.6829 190.704C12.6429 189.744 13.1229 188.392 13.1229 186.648C13.1229 184.904 12.6429 183.544 11.6829 182.568C10.7229 181.576 9.36294 181.08 7.60294 181.08H5.22694V192.144H7.60294ZM31.4301 188.064C31.4301 188.544 31.3981 188.976 31.3341 189.36H21.6141C21.6941 190.32 22.0301 191.072 22.6221 191.616C23.2141 192.16 23.9421 192.432 24.8061 192.432C26.0541 192.432 26.9421 191.896 27.4701 190.824H31.0941C30.7101 192.104 29.9741 193.16 28.8861 193.992C27.7981 194.808 26.4621 195.216 24.8781 195.216C23.5981 195.216 22.4461 194.936 21.4221 194.376C20.4141 193.8 19.6221 192.992 19.0461 191.952C18.4861 190.912 18.2061 189.712 18.2061 188.352C18.2061 186.976 18.4861 185.768 19.0461 184.728C19.6061 183.688 20.3901 182.888 21.3981 182.328C22.4061 181.768 23.5661 181.488 24.8781 181.488C26.1421 181.488 27.2701 181.76 28.2621 182.304C29.2701 182.848 30.0461 183.624 30.5901 184.632C31.1501 185.624 31.4301 186.768 31.4301 188.064ZM27.9501 187.104C27.9341 186.24 27.6221 185.552 27.0141 185.04C26.4061 184.512 25.6621 184.248 24.7821 184.248C23.9501 184.248 23.2461 184.504 22.6701 185.016C22.1101 185.512 21.7661 186.208 21.6381 187.104H27.9501ZM39.4266 191.904L42.7866 181.704H46.3626L41.4426 195H37.3626L32.4666 181.704H36.0666L39.4266 191.904ZM60.6098 188.064C60.6098 188.544 60.5778 188.976 60.5138 189.36H50.7938C50.8738 190.32 51.2098 191.072 51.8018 191.616C52.3938 192.16 53.1218 192.432 53.9858 192.432C55.2338 192.432 56.1218 191.896 56.6498 190.824H60.2738C59.8898 192.104 59.1538 193.16 58.0658 193.992C56.9778 194.808 55.6418 195.216 54.0578 195.216C52.7778 195.216 51.6258 194.936 50.6018 194.376C49.5938 193.8 48.8018 192.992 48.2258 191.952C47.6658 190.912 47.3857 189.712 47.3857 188.352C47.3857 186.976 47.6658 185.768 48.2258 184.728C48.7858 183.688 49.5698 182.888 50.5778 182.328C51.5858 181.768 52.7458 181.488 54.0578 181.488C55.3218 181.488 56.4498 181.76 57.4418 182.304C58.4498 182.848 59.2258 183.624 59.7698 184.632C60.3298 185.624 60.6098 186.768 60.6098 188.064ZM57.1298 187.104C57.1138 186.24 56.8018 185.552 56.1938 185.04C55.5858 184.512 54.8418 184.248 53.9618 184.248C53.1298 184.248 52.4258 184.504 51.8498 185.016C51.2898 185.512 50.9458 186.208 50.8178 187.104H57.1298ZM66.4223 177.24V195H63.0623V177.24H66.4223ZM75.6459 195.216C74.3659 195.216 73.2139 194.936 72.1899 194.376C71.1659 193.8 70.3579 192.992 69.7659 191.952C69.1899 190.912 68.9019 189.712 68.9019 188.352C68.9019 186.992 69.1979 185.792 69.7899 184.752C70.3979 183.712 71.2219 182.912 72.2619 182.352C73.3019 181.776 74.4619 181.488 75.7419 181.488C77.0219 181.488 78.1819 181.776 79.2219 182.352C80.2619 182.912 81.0779 183.712 81.6699 184.752C82.2779 185.792 82.5819 186.992 82.5819 188.352C82.5819 189.712 82.2699 190.912 81.6459 191.952C81.0379 192.992 80.2059 193.8 79.1499 194.376C78.1099 194.936 76.9419 195.216 75.6459 195.216ZM75.6459 192.288C76.2539 192.288 76.8219 192.144 77.3499 191.856C77.8939 191.552 78.3259 191.104 78.6459 190.512C78.9659 189.92 79.1259 189.2 79.1259 188.352C79.1259 187.088 78.7899 186.12 78.1179 185.448C77.4619 184.76 76.6539 184.416 75.6939 184.416C74.7339 184.416 73.9259 184.76 73.2699 185.448C72.6299 186.12 72.3099 187.088 72.3099 188.352C72.3099 189.616 72.6219 190.592 73.2459 191.28C73.8859 191.952 74.6859 192.288 75.6459 192.288ZM88.4066 183.624C88.8386 183.016 89.4306 182.512 90.1826 182.112C90.9506 181.696 91.8226 181.488 92.7986 181.488C93.9346 181.488 94.9586 181.768 95.8706 182.328C96.7986 182.888 97.5266 183.688 98.0546 184.728C98.5986 185.752 98.8706 186.944 98.8706 188.304C98.8706 189.664 98.5986 190.872 98.0546 191.928C97.5266 192.968 96.7986 193.776 95.8706 194.352C94.9586 194.928 93.9346 195.216 92.7986 195.216C91.8226 195.216 90.9586 195.016 90.2066 194.616C89.4706 194.216 88.8706 193.712 88.4066 193.104V201.336H85.0466V181.704H88.4066V183.624ZM95.4386 188.304C95.4386 187.504 95.2706 186.816 94.9346 186.24C94.6146 185.648 94.1826 185.2 93.6386 184.896C93.1106 184.592 92.5346 184.44 91.9106 184.44C91.3026 184.44 90.7266 184.6 90.1826 184.92C89.6546 185.224 89.2226 185.672 88.8866 186.264C88.5666 186.856 88.4066 187.552 88.4066 188.352C88.4066 189.152 88.5666 189.848 88.8866 190.44C89.2226 191.032 89.6546 191.488 90.1826 191.808C90.7266 192.112 91.3026 192.264 91.9106 192.264C92.5346 192.264 93.1106 192.104 93.6386 191.784C94.1826 191.464 94.6146 191.008 94.9346 190.416C95.2706 189.824 95.4386 189.12 95.4386 188.304ZM117.824 181.512C119.456 181.512 120.768 182.016 121.76 183.024C122.768 184.016 123.272 185.408 123.272 187.2V195H119.912V187.656C119.912 186.616 119.648 185.824 119.12 185.28C118.592 184.72 117.872 184.44 116.96 184.44C116.048 184.44 115.32 184.72 114.776 185.28C114.248 185.824 113.984 186.616 113.984 187.656V195H110.624V187.656C110.624 186.616 110.36 185.824 109.832 185.28C109.304 184.72 108.584 184.44 107.672 184.44C106.744 184.44 106.008 184.72 105.464 185.28C104.936 185.824 104.672 186.616 104.672 187.656V195H101.312V181.704H104.672V183.312C105.104 182.752 105.656 182.312 106.328 181.992C107.016 181.672 107.768 181.512 108.584 181.512C109.624 181.512 110.552 181.736 111.368 182.184C112.184 182.616 112.816 183.24 113.264 184.056C113.696 183.288 114.32 182.672 115.136 182.208C115.968 181.744 116.864 181.512 117.824 181.512ZM138.821 188.064C138.821 188.544 138.789 188.976 138.725 189.36H129.005C129.085 190.32 129.421 191.072 130.013 191.616C130.605 192.16 131.333 192.432 132.197 192.432C133.445 192.432 134.333 191.896 134.861 190.824H138.485C138.101 192.104 137.365 193.16 136.277 193.992C135.189 194.808 133.853 195.216 132.269 195.216C130.989 195.216 129.837 194.936 128.813 194.376C127.805 193.8 127.013 192.992 126.437 191.952C125.877 190.912 125.597 189.712 125.597 188.352C125.597 186.976 125.877 185.768 126.437 184.728C126.997 183.688 127.781 182.888 128.789 182.328C129.797 181.768 130.957 181.488 132.269 181.488C133.533 181.488 134.661 181.76 135.653 182.304C136.661 182.848 137.437 183.624 137.981 184.632C138.541 185.624 138.821 186.768 138.821 188.064ZM135.341 187.104C135.325 186.24 135.013 185.552 134.405 185.04C133.797 184.512 133.053 184.248 132.173 184.248C131.341 184.248 130.637 184.504 130.061 185.016C129.501 185.512 129.157 186.208 129.029 187.104H135.341ZM148.641 181.512C150.225 181.512 151.505 182.016 152.481 183.024C153.457 184.016 153.945 185.408 153.945 187.2V195H150.585V187.656C150.585 186.6 150.321 185.792 149.793 185.232C149.265 184.656 148.545 184.368 147.633 184.368C146.705 184.368 145.969 184.656 145.425 185.232C144.897 185.792 144.633 186.6 144.633 187.656V195H141.273V181.704H144.633V183.36C145.081 182.784 145.649 182.336 146.337 182.016C147.041 181.68 147.809 181.512 148.641 181.512ZM161.052 184.464V190.896C161.052 191.344 161.156 191.672 161.364 191.88C161.588 192.072 161.956 192.168 162.468 192.168H164.028V195H161.916C159.084 195 157.668 193.624 157.668 190.872V184.464H156.084V181.704H157.668V178.416H161.052V181.704H164.028V184.464H161.052Z" />
</svg>
