<svg width="139" height="172" viewBox="0 0 179 212" fill="none" xmlns="http://www.w3.org/2000/svg">
<path d="M152.875 110.358L121.046 78.4124C121.713 75.1497 122.043 71.8266 122.032 68.4958C122.03 59.3629 119.739 50.378 115.371 42.3716C111.002 34.3652 104.698 27.5957 97.0408 22.6889C89.3834 17.782 80.6198 14.8961 71.5601 14.2979C62.5005 13.6998 53.4371 15.4087 45.2077 19.2666C44.1651 19.7457 43.2545 20.4736 42.5551 21.3871C41.8556 22.3005 41.3884 23.3719 41.194 24.5083C41.0004 25.6302 41.0785 26.7825 41.4217 27.8676C41.7649 28.9527 42.3631 29.9385 43.1657 30.7416L73.7969 61.4833L61.1219 74.2333L30.5611 43.4208C29.756 42.6261 28.7729 42.0375 27.6945 41.7047C26.6161 41.3719 25.4741 41.3045 24.3644 41.5083C23.2418 41.6967 22.1814 42.1559 21.2739 42.8468C20.3664 43.5376 19.6388 44.4394 19.1536 45.4749C15.3055 53.7802 13.6081 62.9296 14.2194 72.0719C14.8307 81.2143 17.7308 90.0526 22.6498 97.7647C27.5689 105.477 34.3472 111.812 42.3541 116.181C50.3609 120.55 59.3363 122.811 68.4452 122.754C71.7565 122.765 75.06 122.433 78.3036 121.762L110.061 153.779C110.716 154.443 111.495 154.97 112.353 155.33C113.211 155.689 114.131 155.874 115.061 155.874C115.991 155.874 116.911 155.689 117.769 155.33C118.627 154.97 119.406 154.443 120.061 153.779C120.721 153.121 121.245 152.337 121.602 151.474C121.96 150.611 122.144 149.685 122.144 148.75C122.144 147.815 121.96 146.889 121.602 146.026C121.245 145.163 120.721 144.379 120.061 143.721L85.5565 109.012C84.6942 108.151 83.625 107.528 82.4527 107.206C81.2805 106.883 80.0452 106.871 78.8669 107.171C75.467 108.087 71.9649 108.563 68.4452 108.587C63.1784 108.634 57.9545 107.632 53.0743 105.639C48.1941 103.646 43.7542 100.702 40.0102 96.975C36.2663 93.2484 33.2923 88.8135 31.2597 83.9258C29.2271 79.038 28.176 73.794 28.1669 68.4958C28.1578 66.123 28.3462 63.7536 28.7302 61.4124L56.3336 89.25C56.9882 89.9139 57.767 90.4408 58.6251 90.8004C59.4832 91.16 60.4036 91.3452 61.3332 91.3452C62.2627 91.3452 63.1831 91.16 64.0412 90.8004C64.8993 90.4408 65.6781 89.9139 66.3327 89.25L88.7252 66.5124C89.9944 65.1916 90.7039 63.4265 90.7039 61.5895C90.7039 59.7525 89.9944 57.9874 88.7252 56.6666L61.3332 28.8999C63.661 28.5175 66.0161 28.328 68.3748 28.3333C78.9517 28.352 89.089 32.5917 96.5614 40.1216C104.034 47.6515 108.231 57.8563 108.231 68.4958C108.206 72.0362 107.733 75.5591 106.822 78.9791C106.524 80.1643 106.536 81.407 106.857 82.5862C107.178 83.7653 107.797 84.8409 108.653 85.7083L143.157 120.417C144.483 121.75 146.282 122.5 148.157 122.5C150.032 122.5 151.831 121.75 153.156 120.417C154.482 119.083 155.227 117.274 155.227 115.387C155.227 113.501 154.482 111.692 153.156 110.358H152.875Z" fill="#464646"/>
<path d="M41.4961 185.248V187.96H34.5121V192.256H39.8641V194.92H34.5121V202H31.1521V185.248H41.4961ZM56.4307 188.704V202H53.0467V200.32C52.6147 200.896 52.0467 201.352 51.3427 201.688C50.6547 202.008 49.9027 202.168 49.0867 202.168C48.0467 202.168 47.1267 201.952 46.3267 201.52C45.5267 201.072 44.8947 200.424 44.4307 199.576C43.9827 198.712 43.7587 197.688 43.7587 196.504V188.704H47.1187V196.024C47.1187 197.08 47.3827 197.896 47.9107 198.472C48.4387 199.032 49.1587 199.312 50.0707 199.312C50.9987 199.312 51.7267 199.032 52.2547 198.472C52.7827 197.896 53.0467 197.08 53.0467 196.024V188.704H56.4307ZM63.1058 184.24V202H59.7458V184.24H63.1058ZM69.7855 184.24V202H66.4255V184.24H69.7855ZM84.608 202.168C83.44 202.168 82.384 201.968 81.44 201.568C80.512 201.168 79.776 200.592 79.232 199.84C78.688 199.088 78.408 198.2 78.392 197.176H81.992C82.04 197.864 82.28 198.408 82.712 198.808C83.16 199.208 83.768 199.408 84.536 199.408C85.32 199.408 85.936 199.224 86.384 198.856C86.832 198.472 87.056 197.976 87.056 197.368C87.056 196.872 86.904 196.464 86.6 196.144C86.296 195.824 85.912 195.576 85.448 195.4C85 195.208 84.376 195 83.576 194.776C82.488 194.456 81.6 194.144 80.912 193.84C80.24 193.52 79.656 193.048 79.16 192.424C78.68 191.784 78.44 190.936 78.44 189.88C78.44 188.888 78.688 188.024 79.184 187.288C79.68 186.552 80.376 185.992 81.272 185.608C82.168 185.208 83.192 185.008 84.344 185.008C86.072 185.008 87.472 185.432 88.544 186.28C89.632 187.112 90.232 188.28 90.344 189.784H86.648C86.616 189.208 86.368 188.736 85.904 188.368C85.456 187.984 84.856 187.792 84.104 187.792C83.448 187.792 82.92 187.96 82.52 188.296C82.136 188.632 81.944 189.12 81.944 189.76C81.944 190.208 82.088 190.584 82.376 190.888C82.68 191.176 83.048 191.416 83.48 191.608C83.928 191.784 84.552 191.992 85.352 192.232C86.44 192.552 87.328 192.872 88.016 193.192C88.704 193.512 89.296 193.992 89.792 194.632C90.288 195.272 90.536 196.112 90.536 197.152C90.536 198.048 90.304 198.88 89.84 199.648C89.376 200.416 88.696 201.032 87.8 201.496C86.904 201.944 85.84 202.168 84.608 202.168ZM106.001 188.704V202H102.617V200.32C102.185 200.896 101.617 201.352 100.913 201.688C100.225 202.008 99.473 202.168 98.657 202.168C97.617 202.168 96.697 201.952 95.897 201.52C95.097 201.072 94.465 200.424 94.001 199.576C93.553 198.712 93.329 197.688 93.329 196.504V188.704H96.689V196.024C96.689 197.08 96.953 197.896 97.481 198.472C98.009 199.032 98.729 199.312 99.641 199.312C100.569 199.312 101.297 199.032 101.825 198.472C102.353 197.896 102.617 197.08 102.617 196.024V188.704H106.001ZM112.676 190.624C113.108 190.016 113.7 189.512 114.452 189.112C115.22 188.696 116.092 188.488 117.068 188.488C118.204 188.488 119.228 188.768 120.14 189.328C121.068 189.888 121.796 190.688 122.324 191.728C122.868 192.752 123.14 193.944 123.14 195.304C123.14 196.664 122.868 197.872 122.324 198.928C121.796 199.968 121.068 200.776 120.14 201.352C119.228 201.928 118.204 202.216 117.068 202.216C116.092 202.216 115.228 202.016 114.476 201.616C113.74 201.216 113.14 200.712 112.676 200.104V208.336H109.316V188.704H112.676V190.624ZM119.708 195.304C119.708 194.504 119.54 193.816 119.204 193.24C118.884 192.648 118.452 192.2 117.908 191.896C117.38 191.592 116.804 191.44 116.18 191.44C115.572 191.44 114.996 191.6 114.452 191.92C113.924 192.224 113.492 192.672 113.156 193.264C112.836 193.856 112.676 194.552 112.676 195.352C112.676 196.152 112.836 196.848 113.156 197.44C113.492 198.032 113.924 198.488 114.452 198.808C114.996 199.112 115.572 199.264 116.18 199.264C116.804 199.264 117.38 199.104 117.908 198.784C118.452 198.464 118.884 198.008 119.204 197.416C119.54 196.824 119.708 196.12 119.708 195.304ZM128.942 190.624C129.374 190.016 129.966 189.512 130.718 189.112C131.486 188.696 132.358 188.488 133.334 188.488C134.47 188.488 135.494 188.768 136.406 189.328C137.334 189.888 138.062 190.688 138.59 191.728C139.134 192.752 139.406 193.944 139.406 195.304C139.406 196.664 139.134 197.872 138.59 198.928C138.062 199.968 137.334 200.776 136.406 201.352C135.494 201.928 134.47 202.216 133.334 202.216C132.358 202.216 131.494 202.016 130.742 201.616C130.006 201.216 129.406 200.712 128.942 200.104V208.336H125.582V188.704H128.942V190.624ZM135.974 195.304C135.974 194.504 135.806 193.816 135.47 193.24C135.15 192.648 134.718 192.2 134.174 191.896C133.646 191.592 133.07 191.44 132.446 191.44C131.838 191.44 131.262 191.6 130.718 191.92C130.19 192.224 129.758 192.672 129.422 193.264C129.102 193.856 128.942 194.552 128.942 195.352C128.942 196.152 129.102 196.848 129.422 197.44C129.758 198.032 130.19 198.488 130.718 198.808C131.262 199.112 131.838 199.264 132.446 199.264C133.07 199.264 133.646 199.104 134.174 198.784C134.718 198.464 135.15 198.008 135.47 197.416C135.806 196.824 135.974 196.12 135.974 195.304ZM147.751 202.216C146.471 202.216 145.319 201.936 144.295 201.376C143.271 200.8 142.463 199.992 141.871 198.952C141.295 197.912 141.007 196.712 141.007 195.352C141.007 193.992 141.303 192.792 141.895 191.752C142.503 190.712 143.327 189.912 144.367 189.352C145.407 188.776 146.567 188.488 147.847 188.488C149.127 188.488 150.287 188.776 151.327 189.352C152.367 189.912 153.183 190.712 153.775 191.752C154.383 192.792 154.687 193.992 154.687 195.352C154.687 196.712 154.375 197.912 153.751 198.952C153.143 199.992 152.311 200.8 151.255 201.376C150.215 201.936 149.047 202.216 147.751 202.216ZM147.751 199.288C148.359 199.288 148.927 199.144 149.455 198.856C149.999 198.552 150.431 198.104 150.751 197.512C151.071 196.92 151.231 196.2 151.231 195.352C151.231 194.088 150.895 193.12 150.223 192.448C149.567 191.76 148.759 191.416 147.799 191.416C146.839 191.416 146.031 191.76 145.375 192.448C144.735 193.12 144.415 194.088 144.415 195.352C144.415 196.616 144.727 197.592 145.351 198.28C145.991 198.952 146.791 199.288 147.751 199.288ZM160.512 190.768C160.944 190.064 161.504 189.512 162.192 189.112C162.896 188.712 163.696 188.512 164.592 188.512V192.04H163.704C162.648 192.04 161.848 192.288 161.304 192.784C160.776 193.28 160.512 194.144 160.512 195.376V202H157.152V188.704H160.512V190.768ZM170.767 191.464V197.896C170.767 198.344 170.871 198.672 171.079 198.88C171.303 199.072 171.671 199.168 172.183 199.168H173.743V202H171.631C168.799 202 167.383 200.624 167.383 197.872V191.464H165.799V188.704H167.383V185.416H170.767V188.704H173.743V191.464H170.767Z" fill="#464646"/>
</svg>
