<svg width="219" height="190" viewBox="0 0 239 216" fill="none" xmlns="http://www.w3.org/2000/svg">
<path d="M168.618 10.6352C167.87 10.0289 166.996 9.59821 166.06 9.3749C165.125 9.15159 164.151 9.14131 163.211 9.34482C156.332 10.7897 149.231 10.8081 142.344 9.39891C135.458 7.9897 128.932 5.18271 123.169 1.15075C122.092 0.401496 120.812 0 119.5 0C118.188 0 116.908 0.401496 115.831 1.15075C110.067 5.18271 103.542 7.9897 96.6557 9.39891C89.7694 10.8081 82.6683 10.7897 75.7894 9.34482C74.8491 9.14131 73.8753 9.15159 72.9395 9.3749C72.0037 9.59821 71.1298 10.0289 70.3819 10.6352C69.635 11.2425 69.0334 12.0097 68.6212 12.8806C68.209 13.7515 67.9968 14.7039 68 15.6678V63.7353C67.9943 72.9859 70.1938 82.104 74.4152 90.3303C78.6367 98.5566 84.758 105.653 92.2694 111.029L115.766 127.804C116.857 128.582 118.162 129 119.5 129C120.838 129 122.143 128.582 123.234 127.804L146.731 111.029C154.242 105.653 160.363 98.5566 164.585 90.3303C168.806 82.104 171.006 72.9859 171 63.7353V15.6678C171.003 14.7039 170.791 13.7515 170.379 12.8806C169.967 12.0097 169.365 11.2425 168.618 10.6352ZM158.125 63.7353C158.13 70.9278 156.421 78.0174 153.14 84.4142C149.859 90.811 145.102 96.33 139.263 100.512L119.5 114.642L99.7369 100.512C93.8983 96.33 89.1407 90.811 85.8599 84.4142C82.5791 78.0174 80.8701 70.9278 80.875 63.7353V23.0876C94.3708 24.2453 107.887 21.107 119.5 14.1193C131.113 21.107 144.629 24.2453 158.125 23.0876V63.7353ZM129.414 48.9602L112.097 66.3807L106.368 60.5739C105.155 59.3589 103.511 58.6764 101.797 58.6764C100.083 58.6764 98.4385 59.3589 97.2263 60.5739C96.0141 61.7888 95.3331 63.4366 95.3331 65.1548C95.3331 66.873 96.0141 68.5208 97.2263 69.7357L107.526 80.059C108.125 80.6637 108.837 81.1437 109.621 81.4712C110.406 81.7988 111.247 81.9674 112.097 81.9674C112.947 81.9674 113.788 81.7988 114.573 81.4712C115.357 81.1437 116.069 80.6637 116.668 80.059L138.812 58.0576C140.025 56.8426 140.706 55.1948 140.706 53.4766C140.706 51.7584 140.025 50.1106 138.812 48.8957C137.6 47.6808 135.956 46.9982 134.242 46.9982C132.528 46.9982 130.883 47.6808 129.671 48.8957L129.414 48.9602Z" fill="white" fill-opacity="0.5"/>
<path d="M76.9595 170.168C75.7915 170.168 74.7355 169.968 73.7915 169.568C72.8635 169.168 72.1275 168.592 71.5835 167.84C71.0395 167.088 70.7595 166.2 70.7435 165.176H74.3435C74.3915 165.864 74.6315 166.408 75.0635 166.808C75.5115 167.208 76.1195 167.408 76.8875 167.408C77.6715 167.408 78.2875 167.224 78.7355 166.856C79.1835 166.472 79.4075 165.976 79.4075 165.368C79.4075 164.872 79.2555 164.464 78.9515 164.144C78.6475 163.824 78.2635 163.576 77.7995 163.4C77.3515 163.208 76.7275 163 75.9275 162.776C74.8395 162.456 73.9515 162.144 73.2635 161.84C72.5915 161.52 72.0075 161.048 71.5115 160.424C71.0315 159.784 70.7915 158.936 70.7915 157.88C70.7915 156.888 71.0395 156.024 71.5355 155.288C72.0315 154.552 72.7275 153.992 73.6235 153.608C74.5195 153.208 75.5435 153.008 76.6955 153.008C78.4235 153.008 79.8235 153.432 80.8955 154.28C81.9835 155.112 82.5835 156.28 82.6955 157.784H78.9995C78.9675 157.208 78.7195 156.736 78.2555 156.368C77.8075 155.984 77.2075 155.792 76.4555 155.792C75.7995 155.792 75.2715 155.96 74.8715 156.296C74.4875 156.632 74.2955 157.12 74.2955 157.76C74.2955 158.208 74.4395 158.584 74.7275 158.888C75.0315 159.176 75.3995 159.416 75.8315 159.608C76.2795 159.784 76.9035 159.992 77.7035 160.232C78.7915 160.552 79.6795 160.872 80.3675 161.192C81.0555 161.512 81.6475 161.992 82.1435 162.632C82.6395 163.272 82.8875 164.112 82.8875 165.152C82.8875 166.048 82.6555 166.88 82.1915 167.648C81.7275 168.416 81.0475 169.032 80.1515 169.496C79.2555 169.944 78.1915 170.168 76.9595 170.168ZM98.1605 163.064C98.1605 163.544 98.1285 163.976 98.0645 164.36H88.3445C88.4245 165.32 88.7605 166.072 89.3525 166.616C89.9445 167.16 90.6725 167.432 91.5365 167.432C92.7845 167.432 93.6725 166.896 94.2005 165.824H97.8245C97.4405 167.104 96.7045 168.16 95.6165 168.992C94.5285 169.808 93.1925 170.216 91.6085 170.216C90.3285 170.216 89.1765 169.936 88.1525 169.376C87.1445 168.8 86.3525 167.992 85.7765 166.952C85.2165 165.912 84.9365 164.712 84.9365 163.352C84.9365 161.976 85.2165 160.768 85.7765 159.728C86.3365 158.688 87.1205 157.888 88.1285 157.328C89.1365 156.768 90.2965 156.488 91.6085 156.488C92.8725 156.488 94.0005 156.76 94.9925 157.304C96.0005 157.848 96.7765 158.624 97.3205 159.632C97.8805 160.624 98.1605 161.768 98.1605 163.064ZM94.6805 162.104C94.6645 161.24 94.3525 160.552 93.7445 160.04C93.1365 159.512 92.3925 159.248 91.5125 159.248C90.6805 159.248 89.9765 159.504 89.4005 160.016C88.8405 160.512 88.4965 161.208 88.3685 162.104H94.6805ZM99.749 163.352C99.749 161.976 100.029 160.776 100.589 159.752C101.149 158.712 101.925 157.912 102.917 157.352C103.909 156.776 105.045 156.488 106.325 156.488C107.973 156.488 109.333 156.904 110.405 157.736C111.493 158.552 112.221 159.704 112.589 161.192H108.965C108.773 160.616 108.445 160.168 107.981 159.848C107.533 159.512 106.973 159.344 106.301 159.344C105.341 159.344 104.581 159.696 104.021 160.4C103.461 161.088 103.181 162.072 103.181 163.352C103.181 164.616 103.461 165.6 104.021 166.304C104.581 166.992 105.341 167.336 106.301 167.336C107.661 167.336 108.549 166.728 108.965 165.512H112.589C112.221 166.952 111.493 168.096 110.405 168.944C109.317 169.792 107.957 170.216 106.325 170.216C105.045 170.216 103.909 169.936 102.917 169.376C101.925 168.8 101.149 168 100.589 166.976C100.029 165.936 99.749 164.728 99.749 163.352ZM127.603 156.704V170H124.219V168.32C123.787 168.896 123.219 169.352 122.515 169.688C121.827 170.008 121.075 170.168 120.259 170.168C119.219 170.168 118.299 169.952 117.499 169.52C116.699 169.072 116.067 168.424 115.603 167.576C115.155 166.712 114.931 165.688 114.931 164.504V156.704H118.291V164.024C118.291 165.08 118.555 165.896 119.083 166.472C119.611 167.032 120.331 167.312 121.243 167.312C122.171 167.312 122.899 167.032 123.427 166.472C123.955 165.896 124.219 165.08 124.219 164.024V156.704H127.603ZM134.278 158.768C134.71 158.064 135.27 157.512 135.958 157.112C136.662 156.712 137.462 156.512 138.358 156.512V160.04H137.47C136.414 160.04 135.614 160.288 135.07 160.784C134.542 161.28 134.278 162.144 134.278 163.376V170H130.918V156.704H134.278V158.768ZM142.325 155.12C141.733 155.12 141.237 154.936 140.837 154.568C140.453 154.184 140.261 153.712 140.261 153.152C140.261 152.592 140.453 152.128 140.837 151.76C141.237 151.376 141.733 151.184 142.325 151.184C142.917 151.184 143.405 151.376 143.789 151.76C144.189 152.128 144.389 152.592 144.389 153.152C144.389 153.712 144.189 154.184 143.789 154.568C143.405 154.936 142.917 155.12 142.325 155.12ZM143.981 156.704V170H140.621V156.704H143.981ZM151.213 159.464V165.896C151.213 166.344 151.317 166.672 151.525 166.88C151.749 167.072 152.117 167.168 152.629 167.168H154.189V170H152.077C149.245 170 147.829 168.624 147.829 165.872V159.464H146.245V156.704H147.829V153.416H151.213V156.704H154.189V159.464H151.213ZM169.325 156.704L161.093 176.288H157.517L160.397 169.664L155.069 156.704H158.837L162.269 165.992L165.749 156.704H169.325ZM56.3223 189.248V206H52.9623V195.104L48.4743 206H45.9303L41.4183 195.104V206H38.0583V189.248H41.8743L47.2023 201.704L52.5303 189.248H56.3223ZM58.7803 199.304C58.7803 197.96 59.0443 196.768 59.5723 195.728C60.1163 194.688 60.8443 193.888 61.7563 193.328C62.6843 192.768 63.7163 192.488 64.8523 192.488C65.8443 192.488 66.7083 192.688 67.4443 193.088C68.1963 193.488 68.7963 193.992 69.2443 194.6V192.704H72.6283V206H69.2443V204.056C68.8123 204.68 68.2123 205.2 67.4443 205.616C66.6923 206.016 65.8203 206.216 64.8283 206.216C63.7083 206.216 62.6843 205.928 61.7563 205.352C60.8443 204.776 60.1163 203.968 59.5723 202.928C59.0443 201.872 58.7803 200.664 58.7803 199.304ZM69.2443 199.352C69.2443 198.536 69.0843 197.84 68.7643 197.264C68.4443 196.672 68.0123 196.224 67.4683 195.92C66.9243 195.6 66.3403 195.44 65.7163 195.44C65.0923 195.44 64.5163 195.592 63.9883 195.896C63.4603 196.2 63.0283 196.648 62.6923 197.24C62.3723 197.816 62.2123 198.504 62.2123 199.304C62.2123 200.104 62.3723 200.808 62.6923 201.416C63.0283 202.008 63.4603 202.464 63.9883 202.784C64.5323 203.104 65.1083 203.264 65.7163 203.264C66.3403 203.264 66.9243 203.112 67.4683 202.808C68.0123 202.488 68.4443 202.04 68.7643 201.464C69.0843 200.872 69.2443 200.168 69.2443 199.352ZM83.2779 192.512C84.8619 192.512 86.1419 193.016 87.1179 194.024C88.0939 195.016 88.5819 196.408 88.5819 198.2V206H85.2219V198.656C85.2219 197.6 84.9579 196.792 84.4299 196.232C83.9019 195.656 83.1819 195.368 82.2699 195.368C81.3419 195.368 80.6059 195.656 80.0619 196.232C79.5339 196.792 79.2699 197.6 79.2699 198.656V206H75.9099V192.704H79.2699V194.36C79.7179 193.784 80.2859 193.336 80.9739 193.016C81.6779 192.68 82.4459 192.512 83.2779 192.512ZM90.9131 199.304C90.9131 197.96 91.1771 196.768 91.7051 195.728C92.2491 194.688 92.9771 193.888 93.8891 193.328C94.8171 192.768 95.8491 192.488 96.9851 192.488C97.9771 192.488 98.8411 192.688 99.5771 193.088C100.329 193.488 100.929 193.992 101.377 194.6V192.704H104.761V206H101.377V204.056C100.945 204.68 100.345 205.2 99.5771 205.616C98.8251 206.016 97.9531 206.216 96.9611 206.216C95.8411 206.216 94.8171 205.928 93.8891 205.352C92.9771 204.776 92.2491 203.968 91.7051 202.928C91.1771 201.872 90.9131 200.664 90.9131 199.304ZM101.377 199.352C101.377 198.536 101.217 197.84 100.897 197.264C100.577 196.672 100.145 196.224 99.6011 195.92C99.0571 195.6 98.4731 195.44 97.8491 195.44C97.2251 195.44 96.6491 195.592 96.1211 195.896C95.5931 196.2 95.1611 196.648 94.8251 197.24C94.5051 197.816 94.3451 198.504 94.3451 199.304C94.3451 200.104 94.5051 200.808 94.8251 201.416C95.1611 202.008 95.5931 202.464 96.1211 202.784C96.6651 203.104 97.2411 203.264 97.8491 203.264C98.4731 203.264 99.0571 203.112 99.6011 202.808C100.145 202.488 100.577 202.04 100.897 201.464C101.217 200.872 101.377 200.168 101.377 199.352ZM113.251 192.488C114.243 192.488 115.115 192.688 115.867 193.088C116.619 193.472 117.211 193.976 117.643 194.6V192.704H121.027V206.096C121.027 207.328 120.779 208.424 120.283 209.384C119.787 210.36 119.043 211.128 118.051 211.688C117.059 212.264 115.859 212.552 114.451 212.552C112.563 212.552 111.011 212.112 109.795 211.232C108.595 210.352 107.915 209.152 107.755 207.632H111.091C111.267 208.24 111.643 208.72 112.219 209.072C112.811 209.44 113.523 209.624 114.355 209.624C115.331 209.624 116.123 209.328 116.731 208.736C117.339 208.16 117.643 207.28 117.643 206.096V204.032C117.211 204.656 116.611 205.176 115.843 205.592C115.091 206.008 114.227 206.216 113.251 206.216C112.131 206.216 111.107 205.928 110.179 205.352C109.251 204.776 108.515 203.968 107.971 202.928C107.443 201.872 107.179 200.664 107.179 199.304C107.179 197.96 107.443 196.768 107.971 195.728C108.515 194.688 109.243 193.888 110.155 193.328C111.083 192.768 112.115 192.488 113.251 192.488ZM117.643 199.352C117.643 198.536 117.483 197.84 117.163 197.264C116.843 196.672 116.411 196.224 115.867 195.92C115.323 195.6 114.739 195.44 114.115 195.44C113.491 195.44 112.915 195.592 112.387 195.896C111.859 196.2 111.427 196.648 111.091 197.24C110.771 197.816 110.611 198.504 110.611 199.304C110.611 200.104 110.771 200.808 111.091 201.416C111.427 202.008 111.859 202.464 112.387 202.784C112.931 203.104 113.507 203.264 114.115 203.264C114.739 203.264 115.323 203.112 115.867 202.808C116.411 202.488 116.843 202.04 117.163 201.464C117.483 200.872 117.643 200.168 117.643 199.352ZM136.668 199.064C136.668 199.544 136.636 199.976 136.572 200.36H126.852C126.932 201.32 127.268 202.072 127.86 202.616C128.452 203.16 129.18 203.432 130.044 203.432C131.292 203.432 132.18 202.896 132.708 201.824H136.332C135.948 203.104 135.212 204.16 134.124 204.992C133.036 205.808 131.7 206.216 130.116 206.216C128.836 206.216 127.684 205.936 126.66 205.376C125.652 204.8 124.86 203.992 124.284 202.952C123.724 201.912 123.444 200.712 123.444 199.352C123.444 197.976 123.724 196.768 124.284 195.728C124.844 194.688 125.628 193.888 126.636 193.328C127.644 192.768 128.804 192.488 130.116 192.488C131.38 192.488 132.508 192.76 133.5 193.304C134.508 193.848 135.284 194.624 135.828 195.632C136.388 196.624 136.668 197.768 136.668 199.064ZM133.188 198.104C133.172 197.24 132.86 196.552 132.252 196.04C131.644 195.512 130.9 195.248 130.02 195.248C129.188 195.248 128.484 195.504 127.908 196.016C127.348 196.512 127.004 197.208 126.876 198.104H133.188ZM155.633 192.512C157.265 192.512 158.577 193.016 159.569 194.024C160.577 195.016 161.081 196.408 161.081 198.2V206H157.721V198.656C157.721 197.616 157.457 196.824 156.929 196.28C156.401 195.72 155.681 195.44 154.769 195.44C153.857 195.44 153.129 195.72 152.585 196.28C152.057 196.824 151.793 197.616 151.793 198.656V206H148.433V198.656C148.433 197.616 148.169 196.824 147.641 196.28C147.113 195.72 146.393 195.44 145.481 195.44C144.553 195.44 143.817 195.72 143.273 196.28C142.745 196.824 142.481 197.616 142.481 198.656V206H139.121V192.704H142.481V194.312C142.913 193.752 143.465 193.312 144.137 192.992C144.825 192.672 145.577 192.512 146.393 192.512C147.433 192.512 148.361 192.736 149.177 193.184C149.993 193.616 150.625 194.24 151.073 195.056C151.505 194.288 152.129 193.672 152.945 193.208C153.777 192.744 154.673 192.512 155.633 192.512ZM176.629 199.064C176.629 199.544 176.597 199.976 176.533 200.36H166.813C166.893 201.32 167.229 202.072 167.821 202.616C168.413 203.16 169.141 203.432 170.005 203.432C171.253 203.432 172.141 202.896 172.669 201.824H176.293C175.909 203.104 175.173 204.16 174.085 204.992C172.997 205.808 171.661 206.216 170.077 206.216C168.797 206.216 167.645 205.936 166.621 205.376C165.613 204.8 164.821 203.992 164.245 202.952C163.685 201.912 163.405 200.712 163.405 199.352C163.405 197.976 163.685 196.768 164.245 195.728C164.805 194.688 165.589 193.888 166.597 193.328C167.605 192.768 168.765 192.488 170.077 192.488C171.341 192.488 172.469 192.76 173.461 193.304C174.469 193.848 175.245 194.624 175.789 195.632C176.349 196.624 176.629 197.768 176.629 199.064ZM173.149 198.104C173.133 197.24 172.821 196.552 172.213 196.04C171.605 195.512 170.861 195.248 169.981 195.248C169.149 195.248 168.445 195.504 167.869 196.016C167.309 196.512 166.965 197.208 166.837 198.104H173.149ZM186.45 192.512C188.034 192.512 189.314 193.016 190.29 194.024C191.266 195.016 191.754 196.408 191.754 198.2V206H188.394V198.656C188.394 197.6 188.13 196.792 187.602 196.232C187.074 195.656 186.354 195.368 185.442 195.368C184.514 195.368 183.778 195.656 183.234 196.232C182.706 196.792 182.442 197.6 182.442 198.656V206H179.082V192.704H182.442V194.36C182.89 193.784 183.458 193.336 184.146 193.016C184.85 192.68 185.618 192.512 186.45 192.512ZM198.861 195.464V201.896C198.861 202.344 198.965 202.672 199.173 202.88C199.397 203.072 199.765 203.168 200.277 203.168H201.837V206H199.725C196.893 206 195.477 204.624 195.477 201.872V195.464H193.893V192.704H195.477V189.416H198.861V192.704H201.837V195.464H198.861Z"/>
</svg>
