<svg width="119" height="190" viewBox="0 0 139 219" fill="none" xmlns="http://www.w3.org/2000/svg">
<path d="M85.1865 56.4525L62.65 78.9245L53.8135 70.0719C52.5236 68.7896 50.7742 68.0692 48.95 68.0692C47.1258 68.0692 45.3764 68.7896 44.0865 70.0719C42.7966 71.3542 42.072 73.0933 42.072 74.9067C42.072 76.7202 42.7966 78.4593 44.0865 79.7416L57.7865 93.361C58.4233 93.9993 59.1809 94.5059 60.0156 94.8516C60.8504 95.1973 61.7457 95.3753 62.65 95.3753C63.5543 95.3753 64.4496 95.1973 65.2843 94.8516C66.1191 94.5059 66.8767 93.9993 67.5135 93.361L94.9135 66.1222C96.2034 64.84 96.928 63.1008 96.928 61.2874C96.928 59.4739 96.2034 57.7348 94.9135 56.4525C93.6236 55.1702 91.8742 54.4498 90.05 54.4498C88.2258 54.4498 86.4764 55.1702 85.1865 56.4525ZM117.45 20.4292H74.432L72.24 13.6195C70.819 9.62381 68.1831 6.16635 64.6975 3.72615C61.2119 1.28595 57.0491 -0.0161859 52.786 0.000151881H21.55C16.0998 0.000151881 10.8728 2.15249 7.01896 5.98369C3.16508 9.81488 1 15.0111 1 20.4292V108.955C1 114.373 3.16508 119.57 7.01896 123.401C10.8728 127.232 16.0998 129.384 21.55 129.384H117.45C122.9 129.384 128.127 127.232 131.981 123.401C135.835 119.57 138 114.373 138 108.955V40.8583C138 35.4402 135.835 30.244 131.981 26.4128C128.127 22.5816 122.9 20.4292 117.45 20.4292ZM124.3 108.955C124.3 110.761 123.578 112.493 122.294 113.77C121.009 115.047 119.267 115.765 117.45 115.765H21.55C19.7333 115.765 17.9909 115.047 16.7063 113.77C15.4217 112.493 14.7 110.761 14.7 108.955V20.4292C14.7 18.6232 15.4217 16.8911 16.7063 15.614C17.9909 14.337 19.7333 13.6195 21.55 13.6195H52.786C54.2221 13.6158 55.623 14.0609 56.7907 14.8919C57.9584 15.7228 58.834 16.8976 59.2935 18.2501L62.9925 29.418C63.452 30.7706 64.3275 31.9453 65.4953 32.7763C66.663 33.6072 68.0639 34.0523 69.5 34.0486H117.45C119.267 34.0486 121.009 34.7661 122.294 36.0431C123.578 37.3202 124.3 39.0523 124.3 40.8583V108.955Z" />
<path d="M7.84625 173.168C6.67825 173.168 5.62225 172.968 4.67825 172.568C3.75025 172.168 3.01425 171.592 2.47025 170.84C1.92625 170.088 1.64625 169.2 1.63025 168.176H5.23025C5.27825 168.864 5.51825 169.408 5.95025 169.808C6.39825 170.208 7.00625 170.408 7.77425 170.408C8.55825 170.408 9.17425 170.224 9.62225 169.856C10.0703 169.472 10.2943 168.976 10.2943 168.368C10.2943 167.872 10.1423 167.464 9.83825 167.144C9.53425 166.824 9.15025 166.576 8.68625 166.4C8.23825 166.208 7.61425 166 6.81425 165.776C5.72625 165.456 4.83825 165.144 4.15025 164.84C3.47825 164.52 2.89425 164.048 2.39825 163.424C1.91825 162.784 1.67825 161.936 1.67825 160.88C1.67825 159.888 1.92625 159.024 2.42225 158.288C2.91825 157.552 3.61425 156.992 4.51025 156.608C5.40625 156.208 6.43025 156.008 7.58225 156.008C9.31025 156.008 10.7103 156.432 11.7823 157.28C12.8703 158.112 13.4703 159.28 13.5823 160.784H9.88625C9.85425 160.208 9.60625 159.736 9.14225 159.368C8.69425 158.984 8.09425 158.792 7.34225 158.792C6.68625 158.792 6.15825 158.96 5.75825 159.296C5.37425 159.632 5.18225 160.12 5.18225 160.76C5.18225 161.208 5.32625 161.584 5.61425 161.888C5.91825 162.176 6.28625 162.416 6.71825 162.608C7.16625 162.784 7.79025 162.992 8.59025 163.232C9.67825 163.552 10.5663 163.872 11.2543 164.192C11.9423 164.512 12.5343 164.992 13.0303 165.632C13.5263 166.272 13.7743 167.112 13.7743 168.152C13.7743 169.048 13.5423 169.88 13.0782 170.648C12.6143 171.416 11.9343 172.032 11.0383 172.496C10.1423 172.944 9.07825 173.168 7.84625 173.168ZM29.2393 159.704V173H25.8553V171.32C25.4233 171.896 24.8553 172.352 24.1513 172.688C23.4633 173.008 22.7113 173.168 21.8953 173.168C20.8553 173.168 19.9353 172.952 19.1353 172.52C18.3353 172.072 17.7033 171.424 17.2393 170.576C16.7913 169.712 16.5673 168.688 16.5673 167.504V159.704H19.9273V167.024C19.9273 168.08 20.1913 168.896 20.7193 169.472C21.2473 170.032 21.9673 170.312 22.8793 170.312C23.8073 170.312 24.5353 170.032 25.0633 169.472C25.5913 168.896 25.8553 168.08 25.8553 167.024V159.704H29.2393ZM31.6904 166.352C31.6904 164.976 31.9704 163.776 32.5304 162.752C33.0904 161.712 33.8664 160.912 34.8584 160.352C35.8504 159.776 36.9864 159.488 38.2664 159.488C39.9144 159.488 41.2744 159.904 42.3464 160.736C43.4344 161.552 44.1624 162.704 44.5304 164.192H40.9064C40.7144 163.616 40.3864 163.168 39.9224 162.848C39.4744 162.512 38.9144 162.344 38.2424 162.344C37.2824 162.344 36.5224 162.696 35.9624 163.4C35.4024 164.088 35.1224 165.072 35.1224 166.352C35.1224 167.616 35.4024 168.6 35.9624 169.304C36.5224 169.992 37.2824 170.336 38.2424 170.336C39.6024 170.336 40.4904 169.728 40.9064 168.512H44.5304C44.1624 169.952 43.4344 171.096 42.3464 171.944C41.2584 172.792 39.8984 173.216 38.2664 173.216C36.9864 173.216 35.8504 172.936 34.8584 172.376C33.8664 171.8 33.0904 171 32.5304 169.976C31.9704 168.936 31.6904 167.728 31.6904 166.352ZM46.1279 166.352C46.1279 164.976 46.4079 163.776 46.9679 162.752C47.5279 161.712 48.3039 160.912 49.2959 160.352C50.2879 159.776 51.4239 159.488 52.7039 159.488C54.3519 159.488 55.7119 159.904 56.7839 160.736C57.8719 161.552 58.5999 162.704 58.9679 164.192H55.3439C55.1519 163.616 54.8239 163.168 54.3599 162.848C53.9119 162.512 53.3519 162.344 52.6799 162.344C51.7199 162.344 50.9599 162.696 50.3999 163.4C49.8399 164.088 49.5599 165.072 49.5599 166.352C49.5599 167.616 49.8399 168.6 50.3999 169.304C50.9599 169.992 51.7199 170.336 52.6799 170.336C54.0399 170.336 54.9279 169.728 55.3439 168.512H58.9679C58.5999 169.952 57.8719 171.096 56.7839 171.944C55.6959 172.792 54.3359 173.216 52.7039 173.216C51.4239 173.216 50.2879 172.936 49.2959 172.376C48.3039 171.8 47.5279 171 46.9679 169.976C46.4079 168.936 46.1279 167.728 46.1279 166.352ZM73.7894 166.064C73.7894 166.544 73.7574 166.976 73.6934 167.36H63.9734C64.0534 168.32 64.3894 169.072 64.9814 169.616C65.5734 170.16 66.3014 170.432 67.1654 170.432C68.4134 170.432 69.3014 169.896 69.8294 168.824H73.4534C73.0694 170.104 72.3334 171.16 71.2454 171.992C70.1574 172.808 68.8214 173.216 67.2374 173.216C65.9574 173.216 64.8054 172.936 63.7814 172.376C62.7734 171.8 61.9814 170.992 61.4054 169.952C60.8454 168.912 60.5654 167.712 60.5654 166.352C60.5654 164.976 60.8454 163.768 61.4054 162.728C61.9654 161.688 62.7494 160.888 63.7574 160.328C64.7654 159.768 65.9254 159.488 67.2374 159.488C68.5014 159.488 69.6294 159.76 70.6214 160.304C71.6294 160.848 72.4054 161.624 72.9494 162.632C73.5094 163.624 73.7894 164.768 73.7894 166.064ZM70.3094 165.104C70.2934 164.24 69.9814 163.552 69.3734 163.04C68.7654 162.512 68.0214 162.248 67.1414 162.248C66.3094 162.248 65.6054 162.504 65.0294 163.016C64.4694 163.512 64.1254 164.208 63.9974 165.104H70.3094ZM81.3299 173.216C80.2419 173.216 79.2659 173.024 78.4019 172.64C77.5379 172.24 76.8499 171.704 76.3379 171.032C75.8419 170.36 75.5699 169.616 75.5219 168.8H78.9059C78.9699 169.312 79.2179 169.736 79.6499 170.072C80.0979 170.408 80.6499 170.576 81.3059 170.576C81.9459 170.576 82.4419 170.448 82.7939 170.192C83.1619 169.936 83.3459 169.608 83.3459 169.208C83.3459 168.776 83.1219 168.456 82.6739 168.248C82.2419 168.024 81.5459 167.784 80.5859 167.528C79.5939 167.288 78.7779 167.04 78.1379 166.784C77.5139 166.528 76.9699 166.136 76.5059 165.608C76.0579 165.08 75.8339 164.368 75.8339 163.472C75.8339 162.736 76.0419 162.064 76.4579 161.456C76.8899 160.848 77.4979 160.368 78.2819 160.016C79.0819 159.664 80.0179 159.488 81.0899 159.488C82.6739 159.488 83.9379 159.888 84.8819 160.688C85.8259 161.472 86.3459 162.536 86.4419 163.88H83.2259C83.1779 163.352 82.9539 162.936 82.5539 162.632C82.1699 162.312 81.6499 162.152 80.9939 162.152C80.3859 162.152 79.9139 162.264 79.5779 162.488C79.2579 162.712 79.0979 163.024 79.0979 163.424C79.0979 163.872 79.3219 164.216 79.7699 164.456C80.2179 164.68 80.9139 164.912 81.8579 165.152C82.8179 165.392 83.6099 165.64 84.2339 165.896C84.8579 166.152 85.3939 166.552 85.8419 167.096C86.3059 167.624 86.5459 168.328 86.5619 169.208C86.5619 169.976 86.3459 170.664 85.9139 171.272C85.4979 171.88 84.8899 172.36 84.0899 172.712C83.3059 173.048 82.3859 173.216 81.3299 173.216ZM94.4081 173.216C93.3201 173.216 92.3441 173.024 91.4801 172.64C90.6161 172.24 89.9281 171.704 89.4161 171.032C88.9201 170.36 88.6481 169.616 88.6001 168.8H91.9841C92.0481 169.312 92.2961 169.736 92.7281 170.072C93.1761 170.408 93.7281 170.576 94.3841 170.576C95.0241 170.576 95.5201 170.448 95.8721 170.192C96.2401 169.936 96.4241 169.608 96.4241 169.208C96.4241 168.776 96.2001 168.456 95.7521 168.248C95.3201 168.024 94.6241 167.784 93.6641 167.528C92.6721 167.288 91.8561 167.04 91.2161 166.784C90.5921 166.528 90.0481 166.136 89.5841 165.608C89.1361 165.08 88.9121 164.368 88.9121 163.472C88.9121 162.736 89.1201 162.064 89.5361 161.456C89.9681 160.848 90.5761 160.368 91.3601 160.016C92.1601 159.664 93.0961 159.488 94.1681 159.488C95.7521 159.488 97.0161 159.888 97.9601 160.688C98.9041 161.472 99.4241 162.536 99.5201 163.88H96.3041C96.2561 163.352 96.0321 162.936 95.6321 162.632C95.2481 162.312 94.7281 162.152 94.0721 162.152C93.4641 162.152 92.9921 162.264 92.6561 162.488C92.3361 162.712 92.1761 163.024 92.1761 163.424C92.1761 163.872 92.4001 164.216 92.8481 164.456C93.2961 164.68 93.9921 164.912 94.9361 165.152C95.8961 165.392 96.6881 165.64 97.3121 165.896C97.9361 166.152 98.4721 166.552 98.9201 167.096C99.3841 167.624 99.6241 168.328 99.6401 169.208C99.6401 169.976 99.4241 170.664 98.9921 171.272C98.5761 171.88 97.9681 172.36 97.1681 172.712C96.3841 173.048 95.4641 173.216 94.4081 173.216ZM104.102 158.12C103.51 158.12 103.014 157.936 102.614 157.568C102.23 157.184 102.038 156.712 102.038 156.152C102.038 155.592 102.23 155.128 102.614 154.76C103.014 154.376 103.51 154.184 104.102 154.184C104.694 154.184 105.182 154.376 105.566 154.76C105.966 155.128 106.166 155.592 106.166 156.152C106.166 156.712 105.966 157.184 105.566 157.568C105.182 157.936 104.694 158.12 104.102 158.12ZM105.758 159.704V173H102.398V159.704H105.758ZM114.982 173.216C113.702 173.216 112.55 172.936 111.526 172.376C110.502 171.8 109.694 170.992 109.102 169.952C108.526 168.912 108.238 167.712 108.238 166.352C108.238 164.992 108.534 163.792 109.126 162.752C109.734 161.712 110.558 160.912 111.598 160.352C112.638 159.776 113.798 159.488 115.078 159.488C116.358 159.488 117.518 159.776 118.558 160.352C119.598 160.912 120.414 161.712 121.006 162.752C121.614 163.792 121.918 164.992 121.918 166.352C121.918 167.712 121.606 168.912 120.982 169.952C120.374 170.992 119.542 171.8 118.486 172.376C117.446 172.936 116.278 173.216 114.982 173.216ZM114.982 170.288C115.59 170.288 116.158 170.144 116.686 169.856C117.23 169.552 117.662 169.104 117.982 168.512C118.302 167.92 118.462 167.2 118.462 166.352C118.462 165.088 118.126 164.12 117.454 163.448C116.798 162.76 115.99 162.416 115.03 162.416C114.07 162.416 113.262 162.76 112.606 163.448C111.966 164.12 111.646 165.088 111.646 166.352C111.646 167.616 111.958 168.592 112.582 169.28C113.222 169.952 114.022 170.288 114.982 170.288ZM131.751 159.512C133.335 159.512 134.615 160.016 135.591 161.024C136.567 162.016 137.055 163.408 137.055 165.2V173H133.695V165.656C133.695 164.6 133.431 163.792 132.903 163.232C132.375 162.656 131.655 162.368 130.743 162.368C129.815 162.368 129.079 162.656 128.535 163.232C128.007 163.792 127.743 164.6 127.743 165.656V173H124.383V159.704H127.743V161.36C128.191 160.784 128.759 160.336 129.447 160.016C130.151 159.68 130.919 159.512 131.751 159.512ZM29.3251 197.432C29.3251 198.328 29.1091 199.168 28.6771 199.952C28.2611 200.736 27.5971 201.368 26.6851 201.848C25.7891 202.328 24.6531 202.568 23.2771 202.568H20.4691V209H17.1091V192.248H23.2771C24.5731 192.248 25.6771 192.472 26.5891 192.92C27.5011 193.368 28.1811 193.984 28.6291 194.768C29.0931 195.552 29.3251 196.44 29.3251 197.432ZM23.1331 199.856C24.0611 199.856 24.7491 199.648 25.1971 199.232C25.6451 198.8 25.8691 198.2 25.8691 197.432C25.8691 195.8 24.9571 194.984 23.1331 194.984H20.4691V199.856H23.1331ZM35.0707 191.24V209H31.7107V191.24H35.0707ZM37.5264 202.304C37.5264 200.96 37.7904 199.768 38.3184 198.728C38.8624 197.688 39.5904 196.888 40.5024 196.328C41.4304 195.768 42.4624 195.488 43.5984 195.488C44.5904 195.488 45.4544 195.688 46.1904 196.088C46.9424 196.488 47.5424 196.992 47.9904 197.6V195.704H51.3744V209H47.9904V207.056C47.5584 207.68 46.9584 208.2 46.1904 208.616C45.4384 209.016 44.5664 209.216 43.5744 209.216C42.4544 209.216 41.4304 208.928 40.5024 208.352C39.5904 207.776 38.8624 206.968 38.3184 205.928C37.7904 204.872 37.5264 203.664 37.5264 202.304ZM47.9904 202.352C47.9904 201.536 47.8304 200.84 47.5104 200.264C47.1904 199.672 46.7584 199.224 46.2144 198.92C45.6704 198.6 45.0864 198.44 44.4624 198.44C43.8384 198.44 43.2624 198.592 42.7344 198.896C42.2064 199.2 41.7744 199.648 41.4384 200.24C41.1184 200.816 40.9584 201.504 40.9584 202.304C40.9584 203.104 41.1184 203.808 41.4384 204.416C41.7744 205.008 42.2064 205.464 42.7344 205.784C43.2784 206.104 43.8544 206.264 44.4624 206.264C45.0864 206.264 45.6704 206.112 46.2144 205.808C46.7584 205.488 47.1904 205.04 47.5104 204.464C47.8304 203.872 47.9904 203.168 47.9904 202.352ZM62.024 195.512C63.608 195.512 64.888 196.016 65.864 197.024C66.84 198.016 67.328 199.408 67.328 201.2V209H63.968V201.656C63.968 200.6 63.704 199.792 63.176 199.232C62.648 198.656 61.928 198.368 61.016 198.368C60.088 198.368 59.352 198.656 58.808 199.232C58.28 199.792 58.016 200.6 58.016 201.656V209H54.656V195.704H58.016V197.36C58.464 196.784 59.032 196.336 59.72 196.016C60.424 195.68 61.192 195.512 62.024 195.512ZM77.8912 195.512C79.4752 195.512 80.7552 196.016 81.7312 197.024C82.7072 198.016 83.1952 199.408 83.1952 201.2V209H79.8352V201.656C79.8352 200.6 79.5712 199.792 79.0432 199.232C78.5152 198.656 77.7952 198.368 76.8832 198.368C75.9552 198.368 75.2192 198.656 74.6752 199.232C74.1472 199.792 73.8832 200.6 73.8832 201.656V209H70.5232V195.704H73.8832V197.36C74.3312 196.784 74.8992 196.336 75.5872 196.016C76.2912 195.68 77.0592 195.512 77.8912 195.512ZM88.0944 194.12C87.5024 194.12 87.0064 193.936 86.6064 193.568C86.2224 193.184 86.0304 192.712 86.0304 192.152C86.0304 191.592 86.2224 191.128 86.6064 190.76C87.0064 190.376 87.5024 190.184 88.0944 190.184C88.6864 190.184 89.1744 190.376 89.5584 190.76C89.9584 191.128 90.1584 191.592 90.1584 192.152C90.1584 192.712 89.9584 193.184 89.5584 193.568C89.1744 193.936 88.6864 194.12 88.0944 194.12ZM89.7504 195.704V209H86.3904V195.704H89.7504ZM100.438 195.512C102.022 195.512 103.302 196.016 104.278 197.024C105.254 198.016 105.742 199.408 105.742 201.2V209H102.382V201.656C102.382 200.6 102.118 199.792 101.59 199.232C101.062 198.656 100.342 198.368 99.4301 198.368C98.5021 198.368 97.7661 198.656 97.2221 199.232C96.6941 199.792 96.4301 200.6 96.4301 201.656V209H93.0701V195.704H96.4301V197.36C96.8781 196.784 97.4461 196.336 98.1341 196.016C98.8381 195.68 99.6061 195.512 100.438 195.512ZM114.145 195.488C115.137 195.488 116.009 195.688 116.761 196.088C117.513 196.472 118.105 196.976 118.537 197.6V195.704H121.921V209.096C121.921 210.328 121.673 211.424 121.177 212.384C120.681 213.36 119.937 214.128 118.945 214.688C117.953 215.264 116.753 215.552 115.345 215.552C113.457 215.552 111.905 215.112 110.689 214.232C109.489 213.352 108.809 212.152 108.649 210.632H111.985C112.161 211.24 112.537 211.72 113.113 212.072C113.705 212.44 114.417 212.624 115.249 212.624C116.225 212.624 117.017 212.328 117.625 211.736C118.233 211.16 118.537 210.28 118.537 209.096V207.032C118.105 207.656 117.505 208.176 116.737 208.592C115.985 209.008 115.121 209.216 114.145 209.216C113.025 209.216 112.001 208.928 111.073 208.352C110.145 207.776 109.409 206.968 108.865 205.928C108.337 204.872 108.073 203.664 108.073 202.304C108.073 200.96 108.337 199.768 108.865 198.728C109.409 197.688 110.137 196.888 111.049 196.328C111.977 195.768 113.009 195.488 114.145 195.488ZM118.537 202.352C118.537 201.536 118.377 200.84 118.057 200.264C117.737 199.672 117.305 199.224 116.761 198.92C116.217 198.6 115.633 198.44 115.009 198.44C114.385 198.44 113.809 198.592 113.281 198.896C112.753 199.2 112.321 199.648 111.985 200.24C111.665 200.816 111.505 201.504 111.505 202.304C111.505 203.104 111.665 203.808 111.985 204.416C112.321 205.008 112.753 205.464 113.281 205.784C113.825 206.104 114.401 206.264 115.009 206.264C115.633 206.264 116.217 206.112 116.761 205.808C117.305 205.488 117.737 205.04 118.057 204.464C118.377 203.872 118.537 203.168 118.537 202.352Z" />
</svg>
