<svg width="165" height="209" viewBox="0 0 165 209" fill="none" xmlns="http://www.w3.org/2000/svg">
<path d="M13.1263 146.248V148.96H8.66231V163H5.30231V148.96H0.838313V146.248H13.1263ZM27.9379 156.064C27.9379 156.544 27.9059 156.976 27.8419 157.36H18.1219C18.2019 158.32 18.5379 159.072 19.1299 159.616C19.7219 160.16 20.4499 160.432 21.3139 160.432C22.5619 160.432 23.4499 159.896 23.9779 158.824H27.6019C27.2179 160.104 26.4819 161.16 25.3939 161.992C24.3059 162.808 22.9699 163.216 21.3859 163.216C20.1059 163.216 18.9539 162.936 17.9299 162.376C16.9219 161.8 16.1299 160.992 15.5539 159.952C14.9939 158.912 14.7139 157.712 14.7139 156.352C14.7139 154.976 14.9939 153.768 15.5539 152.728C16.1139 151.688 16.8979 150.888 17.9059 150.328C18.9139 149.768 20.0739 149.488 21.3859 149.488C22.6499 149.488 23.7779 149.76 24.7699 150.304C25.7779 150.848 26.5539 151.624 27.0979 152.632C27.6579 153.624 27.9379 154.768 27.9379 156.064ZM24.4579 155.104C24.4419 154.24 24.1299 153.552 23.5219 153.04C22.9139 152.512 22.1699 152.248 21.2899 152.248C20.4579 152.248 19.7539 152.504 19.1779 153.016C18.6179 153.512 18.2739 154.208 18.1459 155.104H24.4579ZM35.4784 163.216C34.3904 163.216 33.4144 163.024 32.5504 162.64C31.6864 162.24 30.9984 161.704 30.4864 161.032C29.9904 160.36 29.7184 159.616 29.6704 158.8H33.0544C33.1184 159.312 33.3664 159.736 33.7984 160.072C34.2464 160.408 34.7984 160.576 35.4544 160.576C36.0944 160.576 36.5904 160.448 36.9424 160.192C37.3104 159.936 37.4944 159.608 37.4944 159.208C37.4944 158.776 37.2704 158.456 36.8224 158.248C36.3904 158.024 35.6944 157.784 34.7344 157.528C33.7424 157.288 32.9264 157.04 32.2864 156.784C31.6624 156.528 31.1184 156.136 30.6544 155.608C30.2064 155.08 29.9824 154.368 29.9824 153.472C29.9824 152.736 30.1904 152.064 30.6064 151.456C31.0384 150.848 31.6464 150.368 32.4304 150.016C33.2304 149.664 34.1664 149.488 35.2384 149.488C36.8224 149.488 38.0864 149.888 39.0304 150.688C39.9744 151.472 40.4944 152.536 40.5904 153.88H37.3744C37.3264 153.352 37.1024 152.936 36.7024 152.632C36.3184 152.312 35.7984 152.152 35.1424 152.152C34.5344 152.152 34.0624 152.264 33.7264 152.488C33.4064 152.712 33.2464 153.024 33.2464 153.424C33.2464 153.872 33.4704 154.216 33.9184 154.456C34.3664 154.68 35.0624 154.912 36.0064 155.152C36.9664 155.392 37.7584 155.64 38.3824 155.896C39.0064 156.152 39.5424 156.552 39.9904 157.096C40.4544 157.624 40.6944 158.328 40.7104 159.208C40.7104 159.976 40.4944 160.664 40.0624 161.272C39.6464 161.88 39.0384 162.36 38.2384 162.712C37.4544 163.048 36.5344 163.216 35.4784 163.216ZM47.3805 152.464V158.896C47.3805 159.344 47.4845 159.672 47.6925 159.88C47.9165 160.072 48.2845 160.168 48.7965 160.168H50.3565V163H48.2445C45.4125 163 43.9965 161.624 43.9965 158.872V152.464H42.4125V149.704H43.9965V146.416H47.3805V149.704H50.3565V152.464H47.3805ZM70.7079 151.432C70.7079 152.328 70.4919 153.168 70.0599 153.952C69.6439 154.736 68.9799 155.368 68.0679 155.848C67.1719 156.328 66.0359 156.568 64.6599 156.568H61.8519V163H58.4919V146.248H64.6599C65.9559 146.248 67.0599 146.472 67.9719 146.92C68.8839 147.368 69.5639 147.984 70.0119 148.768C70.4759 149.552 70.7079 150.44 70.7079 151.432ZM64.5159 153.856C65.4439 153.856 66.1319 153.648 66.5799 153.232C67.0279 152.8 67.2519 152.2 67.2519 151.432C67.2519 149.8 66.3399 148.984 64.5159 148.984H61.8519V153.856H64.5159ZM76.4535 145.24V163H73.0935V145.24H76.4535ZM78.9092 156.304C78.9092 154.96 79.1732 153.768 79.7012 152.728C80.2452 151.688 80.9732 150.888 81.8852 150.328C82.8132 149.768 83.8452 149.488 84.9812 149.488C85.9732 149.488 86.8372 149.688 87.5732 150.088C88.3252 150.488 88.9252 150.992 89.3732 151.6V149.704H92.7572V163H89.3732V161.056C88.9412 161.68 88.3412 162.2 87.5732 162.616C86.8212 163.016 85.9492 163.216 84.9572 163.216C83.8372 163.216 82.8132 162.928 81.8852 162.352C80.9732 161.776 80.2452 160.968 79.7012 159.928C79.1732 158.872 78.9092 157.664 78.9092 156.304ZM89.3732 156.352C89.3732 155.536 89.2132 154.84 88.8932 154.264C88.5732 153.672 88.1412 153.224 87.5972 152.92C87.0532 152.6 86.4692 152.44 85.8452 152.44C85.2212 152.44 84.6452 152.592 84.1172 152.896C83.5892 153.2 83.1572 153.648 82.8212 154.24C82.5012 154.816 82.3412 155.504 82.3412 156.304C82.3412 157.104 82.5012 157.808 82.8212 158.416C83.1572 159.008 83.5892 159.464 84.1172 159.784C84.6612 160.104 85.2372 160.264 85.8452 160.264C86.4692 160.264 87.0532 160.112 87.5972 159.808C88.1412 159.488 88.5732 159.04 88.8932 158.464C89.2132 157.872 89.3732 157.168 89.3732 156.352ZM103.407 149.512C104.991 149.512 106.271 150.016 107.247 151.024C108.223 152.016 108.711 153.408 108.711 155.2V163H105.351V155.656C105.351 154.6 105.087 153.792 104.559 153.232C104.031 152.656 103.311 152.368 102.399 152.368C101.471 152.368 100.735 152.656 100.191 153.232C99.6628 153.792 99.3988 154.6 99.3988 155.656V163H96.0388V149.704H99.3988V151.36C99.8468 150.784 100.415 150.336 101.103 150.016C101.807 149.68 102.575 149.512 103.407 149.512ZM119.274 149.512C120.858 149.512 122.138 150.016 123.114 151.024C124.09 152.016 124.578 153.408 124.578 155.2V163H121.218V155.656C121.218 154.6 120.954 153.792 120.426 153.232C119.898 152.656 119.178 152.368 118.266 152.368C117.338 152.368 116.602 152.656 116.058 153.232C115.53 153.792 115.266 154.6 115.266 155.656V163H111.906V149.704H115.266V151.36C115.714 150.784 116.282 150.336 116.97 150.016C117.674 149.68 118.442 149.512 119.274 149.512ZM129.477 148.12C128.885 148.12 128.389 147.936 127.989 147.568C127.605 147.184 127.413 146.712 127.413 146.152C127.413 145.592 127.605 145.128 127.989 144.76C128.389 144.376 128.885 144.184 129.477 144.184C130.069 144.184 130.557 144.376 130.941 144.76C131.341 145.128 131.541 145.592 131.541 146.152C131.541 146.712 131.341 147.184 130.941 147.568C130.557 147.936 130.069 148.12 129.477 148.12ZM131.133 149.704V163H127.773V149.704H131.133ZM141.821 149.512C143.405 149.512 144.685 150.016 145.661 151.024C146.637 152.016 147.125 153.408 147.125 155.2V163H143.765V155.656C143.765 154.6 143.501 153.792 142.973 153.232C142.445 152.656 141.725 152.368 140.813 152.368C139.885 152.368 139.149 152.656 138.605 153.232C138.077 153.792 137.813 154.6 137.813 155.656V163H134.453V149.704H137.813V151.36C138.261 150.784 138.829 150.336 139.517 150.016C140.221 149.68 140.989 149.512 141.821 149.512ZM155.528 149.488C156.52 149.488 157.392 149.688 158.144 150.088C158.896 150.472 159.488 150.976 159.92 151.6V149.704H163.304V163.096C163.304 164.328 163.056 165.424 162.56 166.384C162.064 167.36 161.32 168.128 160.328 168.688C159.336 169.264 158.136 169.552 156.728 169.552C154.84 169.552 153.288 169.112 152.072 168.232C150.872 167.352 150.192 166.152 150.032 164.632H153.368C153.544 165.24 153.92 165.72 154.496 166.072C155.088 166.44 155.8 166.624 156.632 166.624C157.608 166.624 158.4 166.328 159.008 165.736C159.616 165.16 159.92 164.28 159.92 163.096V161.032C159.488 161.656 158.888 162.176 158.12 162.592C157.368 163.008 156.504 163.216 155.528 163.216C154.408 163.216 153.384 162.928 152.456 162.352C151.528 161.776 150.792 160.968 150.248 159.928C149.72 158.872 149.456 157.664 149.456 156.304C149.456 154.96 149.72 153.768 150.248 152.728C150.792 151.688 151.52 150.888 152.432 150.328C153.36 149.768 154.392 149.488 155.528 149.488ZM159.92 156.352C159.92 155.536 159.76 154.84 159.44 154.264C159.12 153.672 158.688 153.224 158.144 152.92C157.6 152.6 157.016 152.44 156.392 152.44C155.768 152.44 155.192 152.592 154.664 152.896C154.136 153.2 153.704 153.648 153.368 154.24C153.048 154.816 152.888 155.504 152.888 156.304C152.888 157.104 153.048 157.808 153.368 158.416C153.704 159.008 154.136 159.464 154.664 159.784C155.208 160.104 155.784 160.264 156.392 160.264C157.016 160.264 157.6 160.112 158.144 159.808C158.688 159.488 159.12 159.04 159.44 158.464C159.76 157.872 159.92 157.168 159.92 156.352ZM14.2803 192.304C14.2803 190.96 14.5443 189.768 15.0723 188.728C15.6163 187.688 16.3443 186.888 17.2563 186.328C18.1843 185.768 19.2163 185.488 20.3523 185.488C21.3443 185.488 22.2083 185.688 22.9443 186.088C23.6963 186.488 24.2963 186.992 24.7443 187.6V185.704H28.1283V199H24.7443V197.056C24.3123 197.68 23.7123 198.2 22.9443 198.616C22.1923 199.016 21.3203 199.216 20.3283 199.216C19.2083 199.216 18.1843 198.928 17.2563 198.352C16.3443 197.776 15.6163 196.968 15.0723 195.928C14.5443 194.872 14.2803 193.664 14.2803 192.304ZM24.7443 192.352C24.7443 191.536 24.5843 190.84 24.2643 190.264C23.9443 189.672 23.5123 189.224 22.9683 188.92C22.4243 188.6 21.8403 188.44 21.2163 188.44C20.5923 188.44 20.0163 188.592 19.4883 188.896C18.9603 189.2 18.5283 189.648 18.1923 190.24C17.8723 190.816 17.7123 191.504 17.7123 192.304C17.7123 193.104 17.8723 193.808 18.1923 194.416C18.5283 195.008 18.9603 195.464 19.4883 195.784C20.0323 196.104 20.6083 196.264 21.2163 196.264C21.8403 196.264 22.4243 196.112 22.9683 195.808C23.5123 195.488 23.9443 195.04 24.2643 194.464C24.5843 193.872 24.7443 193.168 24.7443 192.352ZM38.7779 185.512C40.3619 185.512 41.6419 186.016 42.6179 187.024C43.5939 188.016 44.0819 189.408 44.0819 191.2V199H40.7219V191.656C40.7219 190.6 40.4579 189.792 39.9299 189.232C39.4019 188.656 38.6819 188.368 37.7699 188.368C36.8419 188.368 36.1059 188.656 35.5619 189.232C35.0339 189.792 34.7699 190.6 34.7699 191.656V199H31.4099V185.704H34.7699V187.36C35.2179 186.784 35.7859 186.336 36.4739 186.016C37.1779 185.68 37.9459 185.512 38.7779 185.512ZM46.4131 192.304C46.4131 190.96 46.6771 189.768 47.2051 188.728C47.7491 187.688 48.4851 186.888 49.4131 186.328C50.3411 185.768 51.3731 185.488 52.5091 185.488C53.3731 185.488 54.1971 185.68 54.9811 186.064C55.7651 186.432 56.3891 186.928 56.8531 187.552V181.24H60.2611V199H56.8531V197.032C56.4371 197.688 55.8531 198.216 55.1011 198.616C54.3491 199.016 53.4771 199.216 52.4851 199.216C51.3651 199.216 50.3411 198.928 49.4131 198.352C48.4851 197.776 47.7491 196.968 47.2051 195.928C46.6771 194.872 46.4131 193.664 46.4131 192.304ZM56.8771 192.352C56.8771 191.536 56.7171 190.84 56.3971 190.264C56.0771 189.672 55.6451 189.224 55.1011 188.92C54.5571 188.6 53.9731 188.44 53.3491 188.44C52.7251 188.44 52.1491 188.592 51.6211 188.896C51.0931 189.2 50.6611 189.648 50.3251 190.24C50.0051 190.816 49.8451 191.504 49.8451 192.304C49.8451 193.104 50.0051 193.808 50.3251 194.416C50.6611 195.008 51.0931 195.464 51.6211 195.784C52.1651 196.104 52.7411 196.264 53.3491 196.264C53.9731 196.264 54.5571 196.112 55.1011 195.808C55.6451 195.488 56.0771 195.04 56.3971 194.464C56.7171 193.872 56.8771 193.168 56.8771 192.352ZM75.1175 182.248C76.8775 182.248 78.4215 182.592 79.7495 183.28C81.0935 183.968 82.1255 184.952 82.8455 186.232C83.5815 187.496 83.9495 188.968 83.9495 190.648C83.9495 192.328 83.5815 193.8 82.8455 195.064C82.1255 196.312 81.0935 197.28 79.7495 197.968C78.4215 198.656 76.8775 199 75.1175 199H69.2615V182.248H75.1175ZM74.9975 196.144C76.7575 196.144 78.1175 195.664 79.0775 194.704C80.0375 193.744 80.5175 192.392 80.5175 190.648C80.5175 188.904 80.0375 187.544 79.0775 186.568C78.1175 185.576 76.7575 185.08 74.9975 185.08H72.6215V196.144H74.9975ZM98.8246 192.064C98.8246 192.544 98.7926 192.976 98.7286 193.36H89.0086C89.0886 194.32 89.4246 195.072 90.0166 195.616C90.6086 196.16 91.3366 196.432 92.2006 196.432C93.4486 196.432 94.3366 195.896 94.8646 194.824H98.4886C98.1046 196.104 97.3686 197.16 96.2806 197.992C95.1926 198.808 93.8566 199.216 92.2726 199.216C90.9926 199.216 89.8406 198.936 88.8166 198.376C87.8086 197.8 87.0166 196.992 86.4406 195.952C85.8806 194.912 85.6006 193.712 85.6006 192.352C85.6006 190.976 85.8806 189.768 86.4406 188.728C87.0006 187.688 87.7846 186.888 88.7926 186.328C89.8006 185.768 90.9606 185.488 92.2726 185.488C93.5366 185.488 94.6646 185.76 95.6566 186.304C96.6646 186.848 97.4406 187.624 97.9846 188.632C98.5446 189.624 98.8246 190.768 98.8246 192.064ZM95.3446 191.104C95.3286 190.24 95.0166 189.552 94.4086 189.04C93.8006 188.512 93.0566 188.248 92.1766 188.248C91.3446 188.248 90.6406 188.504 90.0646 189.016C89.5046 189.512 89.1606 190.208 89.0326 191.104H95.3446ZM106.365 199.216C105.277 199.216 104.301 199.024 103.437 198.64C102.573 198.24 101.885 197.704 101.373 197.032C100.877 196.36 100.605 195.616 100.557 194.8H103.941C104.005 195.312 104.253 195.736 104.685 196.072C105.133 196.408 105.685 196.576 106.341 196.576C106.981 196.576 107.477 196.448 107.829 196.192C108.197 195.936 108.381 195.608 108.381 195.208C108.381 194.776 108.157 194.456 107.709 194.248C107.277 194.024 106.581 193.784 105.621 193.528C104.629 193.288 103.813 193.04 103.173 192.784C102.549 192.528 102.005 192.136 101.541 191.608C101.093 191.08 100.869 190.368 100.869 189.472C100.869 188.736 101.077 188.064 101.493 187.456C101.925 186.848 102.533 186.368 103.317 186.016C104.117 185.664 105.053 185.488 106.125 185.488C107.709 185.488 108.973 185.888 109.917 186.688C110.861 187.472 111.381 188.536 111.477 189.88H108.261C108.213 189.352 107.989 188.936 107.589 188.632C107.205 188.312 106.685 188.152 106.029 188.152C105.421 188.152 104.949 188.264 104.613 188.488C104.293 188.712 104.133 189.024 104.133 189.424C104.133 189.872 104.357 190.216 104.805 190.456C105.253 190.68 105.949 190.912 106.893 191.152C107.853 191.392 108.645 191.64 109.269 191.896C109.893 192.152 110.429 192.552 110.877 193.096C111.341 193.624 111.581 194.328 111.597 195.208C111.597 195.976 111.381 196.664 110.949 197.272C110.533 197.88 109.925 198.36 109.125 198.712C108.341 199.048 107.421 199.216 106.365 199.216ZM116.059 184.12C115.467 184.12 114.971 183.936 114.571 183.568C114.187 183.184 113.995 182.712 113.995 182.152C113.995 181.592 114.187 181.128 114.571 180.76C114.971 180.376 115.467 180.184 116.059 180.184C116.651 180.184 117.139 180.376 117.523 180.76C117.923 181.128 118.123 181.592 118.123 182.152C118.123 182.712 117.923 183.184 117.523 183.568C117.139 183.936 116.651 184.12 116.059 184.12ZM117.715 185.704V199H114.355V185.704H117.715ZM126.243 185.488C127.235 185.488 128.107 185.688 128.859 186.088C129.611 186.472 130.203 186.976 130.635 187.6V185.704H134.019V199.096C134.019 200.328 133.771 201.424 133.275 202.384C132.779 203.36 132.035 204.128 131.043 204.688C130.051 205.264 128.851 205.552 127.443 205.552C125.555 205.552 124.003 205.112 122.787 204.232C121.587 203.352 120.907 202.152 120.747 200.632H124.083C124.259 201.24 124.635 201.72 125.211 202.072C125.803 202.44 126.515 202.624 127.347 202.624C128.323 202.624 129.115 202.328 129.723 201.736C130.331 201.16 130.635 200.28 130.635 199.096V197.032C130.203 197.656 129.603 198.176 128.835 198.592C128.083 199.008 127.219 199.216 126.243 199.216C125.123 199.216 124.099 198.928 123.171 198.352C122.243 197.776 121.507 196.968 120.963 195.928C120.435 194.872 120.171 193.664 120.171 192.304C120.171 190.96 120.435 189.768 120.963 188.728C121.507 187.688 122.235 186.888 123.147 186.328C124.075 185.768 125.107 185.488 126.243 185.488ZM130.635 192.352C130.635 191.536 130.475 190.84 130.155 190.264C129.835 189.672 129.403 189.224 128.859 188.92C128.315 188.6 127.731 188.44 127.107 188.44C126.483 188.44 125.907 188.592 125.379 188.896C124.851 189.2 124.419 189.648 124.083 190.24C123.763 190.816 123.603 191.504 123.603 192.304C123.603 193.104 123.763 193.808 124.083 194.416C124.419 195.008 124.851 195.464 125.379 195.784C125.923 196.104 126.499 196.264 127.107 196.264C127.731 196.264 128.315 196.112 128.859 195.808C129.403 195.488 129.835 195.04 130.155 194.464C130.475 193.872 130.635 193.168 130.635 192.352ZM144.669 185.512C146.253 185.512 147.533 186.016 148.509 187.024C149.485 188.016 149.973 189.408 149.973 191.2V199H146.613V191.656C146.613 190.6 146.349 189.792 145.821 189.232C145.293 188.656 144.573 188.368 143.661 188.368C142.733 188.368 141.997 188.656 141.453 189.232C140.925 189.792 140.661 190.6 140.661 191.656V199H137.301V185.704H140.661V187.36C141.109 186.784 141.677 186.336 142.365 186.016C143.069 185.68 143.837 185.512 144.669 185.512Z" />
<path d="M125.007 60.8941H103.139C92.26 60.8941 87.0098 55.5897 87.0098 44.7644V22.8973C87.0098 12.0179 92.3142 6.76758 103.139 6.76758H125.007C135.886 6.76758 141.136 12.072 141.136 22.8973V44.7644C141.136 55.5897 135.832 60.8941 125.007 60.8941ZM103.139 14.8866C96.7525 14.8866 95.1287 16.5104 95.1287 22.8973V44.7644C95.1287 51.1514 96.7525 52.7752 103.139 52.7752H125.007C131.394 52.7752 133.017 51.1514 133.017 44.7644V22.8973C133.017 16.5104 131.394 14.8866 125.007 14.8866H103.139Z" />
<path d="M62.7644 60.8941H40.8973C30.0179 60.8941 24.7676 56.0769 24.7676 46.1176V21.5441C24.7676 11.5848 30.072 6.76758 40.8973 6.76758H62.7644C73.6439 6.76758 78.8941 11.5848 78.8941 21.5441V46.0635C78.8941 56.0769 73.5897 60.8941 62.7644 60.8941ZM40.8973 14.8866C33.6443 14.8866 32.8866 16.9434 32.8866 21.5441V46.0635C32.8866 50.7183 33.6443 52.721 40.8973 52.721H62.7644C70.0174 52.721 70.7752 50.6642 70.7752 46.0635V21.5441C70.7752 16.8892 70.0174 14.8866 62.7644 14.8866H40.8973Z" />
<path d="M62.7644 123.136H40.8973C30.0179 123.136 24.7676 117.832 24.7676 107.007V85.1395C24.7676 74.26 30.072 69.0098 40.8973 69.0098H62.7644C73.6439 69.0098 78.8941 74.3142 78.8941 85.1395V107.007C78.8941 117.832 73.5897 123.136 62.7644 123.136ZM40.8973 77.1287C34.5104 77.1287 32.8866 78.7525 32.8866 85.1395V107.007C32.8866 113.394 34.5104 115.017 40.8973 115.017H62.7644C69.1514 115.017 70.7752 113.394 70.7752 107.007V85.1395C70.7752 78.7525 69.1514 77.1287 62.7644 77.1287H40.8973Z" />
<path d="M131.666 87.9549H99.1904C96.9712 87.9549 95.1309 86.1146 95.1309 83.8954C95.1309 81.6762 96.9712 79.8359 99.1904 79.8359H131.666C133.885 79.8359 135.726 81.6762 135.726 83.8954C135.726 86.1146 133.885 87.9549 131.666 87.9549Z" />
<path d="M131.666 109.607H99.1904C96.9712 109.607 95.1309 107.767 95.1309 105.548C95.1309 103.329 96.9712 101.488 99.1904 101.488H131.666C133.885 101.488 135.726 103.329 135.726 105.548C135.726 107.767 133.885 109.607 131.666 109.607Z" />
</svg>
