<svg width="208" height="209" viewBox="0 0 208 209" fill="none" xmlns="http://www.w3.org/2000/svg">
<path d="M5.03441 146.248V156.616C5.03441 157.752 5.33041 158.624 5.92241 159.232C6.51441 159.824 7.34641 160.12 8.41841 160.12C9.50641 160.12 10.3464 159.824 10.9384 159.232C11.5304 158.624 11.8264 157.752 11.8264 156.616V146.248H15.2104V156.592C15.2104 158.016 14.8984 159.224 14.2744 160.216C13.6664 161.192 12.8424 161.928 11.8024 162.424C10.7784 162.92 9.63441 163.168 8.37041 163.168C7.12241 163.168 5.98641 162.92 4.96241 162.424C3.95441 161.928 3.15441 161.192 2.56241 160.216C1.97041 159.224 1.67441 158.016 1.67441 156.592V146.248H5.03441ZM23.5448 163.216C22.4568 163.216 21.4808 163.024 20.6168 162.64C19.7528 162.24 19.0648 161.704 18.5528 161.032C18.0568 160.36 17.7848 159.616 17.7368 158.8H21.1208C21.1848 159.312 21.4328 159.736 21.8648 160.072C22.3128 160.408 22.8648 160.576 23.5208 160.576C24.1608 160.576 24.6568 160.448 25.0088 160.192C25.3768 159.936 25.5608 159.608 25.5608 159.208C25.5608 158.776 25.3368 158.456 24.8888 158.248C24.4568 158.024 23.7608 157.784 22.8008 157.528C21.8088 157.288 20.9928 157.04 20.3528 156.784C19.7288 156.528 19.1848 156.136 18.7208 155.608C18.2728 155.08 18.0488 154.368 18.0488 153.472C18.0488 152.736 18.2568 152.064 18.6728 151.456C19.1048 150.848 19.7128 150.368 20.4968 150.016C21.2968 149.664 22.2328 149.488 23.3048 149.488C24.8888 149.488 26.1528 149.888 27.0968 150.688C28.0408 151.472 28.5608 152.536 28.6568 153.88H25.4408C25.3928 153.352 25.1688 152.936 24.7688 152.632C24.3848 152.312 23.8648 152.152 23.2088 152.152C22.6008 152.152 22.1288 152.264 21.7928 152.488C21.4728 152.712 21.3128 153.024 21.3128 153.424C21.3128 153.872 21.5368 154.216 21.9848 154.456C22.4328 154.68 23.1288 154.912 24.0728 155.152C25.0328 155.392 25.8248 155.64 26.4488 155.896C27.0728 156.152 27.6088 156.552 28.0568 157.096C28.5208 157.624 28.7608 158.328 28.7768 159.208C28.7768 159.976 28.5608 160.664 28.1288 161.272C27.7128 161.88 27.1048 162.36 26.3048 162.712C25.5208 163.048 24.6008 163.216 23.5448 163.216ZM43.8949 156.064C43.8949 156.544 43.8629 156.976 43.7989 157.36H34.0789C34.1589 158.32 34.4949 159.072 35.0869 159.616C35.6789 160.16 36.4069 160.432 37.2709 160.432C38.5189 160.432 39.4069 159.896 39.9349 158.824H43.5589C43.1749 160.104 42.4389 161.16 41.3509 161.992C40.2629 162.808 38.9269 163.216 37.3429 163.216C36.0629 163.216 34.9109 162.936 33.8869 162.376C32.8789 161.8 32.0869 160.992 31.5109 159.952C30.9509 158.912 30.6709 157.712 30.6709 156.352C30.6709 154.976 30.9509 153.768 31.5109 152.728C32.0709 151.688 32.8549 150.888 33.8629 150.328C34.8709 149.768 36.0309 149.488 37.3429 149.488C38.6069 149.488 39.7349 149.76 40.7269 150.304C41.7349 150.848 42.5109 151.624 43.0549 152.632C43.6149 153.624 43.8949 154.768 43.8949 156.064ZM40.4149 155.104C40.3989 154.24 40.0869 153.552 39.4789 153.04C38.8709 152.512 38.1269 152.248 37.2469 152.248C36.4149 152.248 35.7109 152.504 35.1349 153.016C34.5749 153.512 34.2309 154.208 34.1029 155.104H40.4149ZM49.7074 151.768C50.1394 151.064 50.6994 150.512 51.3874 150.112C52.0914 149.712 52.8914 149.512 53.7874 149.512V153.04H52.8994C51.8434 153.04 51.0434 153.288 50.4994 153.784C49.9714 154.28 49.7074 155.144 49.7074 156.376V163H46.3474V149.704H49.7074V151.768ZM72.0413 159.808H65.3693L64.2653 163H60.7373L66.7613 146.224H70.6733L76.6973 163H73.1453L72.0413 159.808ZM71.1293 157.12L68.7053 150.112L66.2813 157.12H71.1293ZM78.085 156.352C78.085 154.976 78.365 153.776 78.925 152.752C79.485 151.712 80.261 150.912 81.253 150.352C82.245 149.776 83.381 149.488 84.661 149.488C86.309 149.488 87.669 149.904 88.741 150.736C89.829 151.552 90.557 152.704 90.925 154.192H87.301C87.109 153.616 86.781 153.168 86.317 152.848C85.869 152.512 85.309 152.344 84.637 152.344C83.677 152.344 82.917 152.696 82.357 153.4C81.797 154.088 81.517 155.072 81.517 156.352C81.517 157.616 81.797 158.6 82.357 159.304C82.917 159.992 83.677 160.336 84.637 160.336C85.997 160.336 86.885 159.728 87.301 158.512H90.925C90.557 159.952 89.829 161.096 88.741 161.944C87.653 162.792 86.293 163.216 84.661 163.216C83.381 163.216 82.245 162.936 81.253 162.376C80.261 161.8 79.485 161 78.925 159.976C78.365 158.936 78.085 157.728 78.085 156.352ZM92.5225 156.352C92.5225 154.976 92.8025 153.776 93.3625 152.752C93.9225 151.712 94.6985 150.912 95.6905 150.352C96.6825 149.776 97.8185 149.488 99.0985 149.488C100.746 149.488 102.106 149.904 103.178 150.736C104.266 151.552 104.994 152.704 105.362 154.192H101.738C101.546 153.616 101.218 153.168 100.754 152.848C100.306 152.512 99.7465 152.344 99.0745 152.344C98.1145 152.344 97.3545 152.696 96.7945 153.4C96.2345 154.088 95.9545 155.072 95.9545 156.352C95.9545 157.616 96.2345 158.6 96.7945 159.304C97.3545 159.992 98.1145 160.336 99.0745 160.336C100.434 160.336 101.322 159.728 101.738 158.512H105.362C104.994 159.952 104.266 161.096 103.178 161.944C102.09 162.792 100.73 163.216 99.0985 163.216C97.8185 163.216 96.6825 162.936 95.6905 162.376C94.6985 161.8 93.9225 161 93.3625 159.976C92.8025 158.936 92.5225 157.728 92.5225 156.352ZM120.184 156.064C120.184 156.544 120.152 156.976 120.088 157.36H110.368C110.448 158.32 110.784 159.072 111.376 159.616C111.968 160.16 112.696 160.432 113.56 160.432C114.808 160.432 115.696 159.896 116.224 158.824H119.848C119.464 160.104 118.728 161.16 117.64 161.992C116.552 162.808 115.216 163.216 113.632 163.216C112.352 163.216 111.2 162.936 110.176 162.376C109.168 161.8 108.376 160.992 107.8 159.952C107.24 158.912 106.96 157.712 106.96 156.352C106.96 154.976 107.24 153.768 107.8 152.728C108.36 151.688 109.144 150.888 110.152 150.328C111.16 149.768 112.32 149.488 113.632 149.488C114.896 149.488 116.024 149.76 117.016 150.304C118.024 150.848 118.8 151.624 119.344 152.632C119.904 153.624 120.184 154.768 120.184 156.064ZM116.704 155.104C116.688 154.24 116.376 153.552 115.768 153.04C115.16 152.512 114.416 152.248 113.536 152.248C112.704 152.248 112 152.504 111.424 153.016C110.864 153.512 110.52 154.208 110.392 155.104H116.704ZM125.996 151.624C126.428 151.016 127.02 150.512 127.772 150.112C128.54 149.696 129.412 149.488 130.388 149.488C131.524 149.488 132.548 149.768 133.46 150.328C134.388 150.888 135.116 151.688 135.644 152.728C136.188 153.752 136.46 154.944 136.46 156.304C136.46 157.664 136.188 158.872 135.644 159.928C135.116 160.968 134.388 161.776 133.46 162.352C132.548 162.928 131.524 163.216 130.388 163.216C129.412 163.216 128.548 163.016 127.796 162.616C127.06 162.216 126.46 161.712 125.996 161.104V169.336H122.636V149.704H125.996V151.624ZM133.028 156.304C133.028 155.504 132.86 154.816 132.524 154.24C132.204 153.648 131.772 153.2 131.228 152.896C130.7 152.592 130.124 152.44 129.5 152.44C128.892 152.44 128.316 152.6 127.772 152.92C127.244 153.224 126.812 153.672 126.476 154.264C126.156 154.856 125.996 155.552 125.996 156.352C125.996 157.152 126.156 157.848 126.476 158.44C126.812 159.032 127.244 159.488 127.772 159.808C128.316 160.112 128.892 160.264 129.5 160.264C130.124 160.264 130.7 160.104 131.228 159.784C131.772 159.464 132.204 159.008 132.524 158.416C132.86 157.824 133.028 157.12 133.028 156.304ZM142.814 152.464V158.896C142.814 159.344 142.918 159.672 143.126 159.88C143.35 160.072 143.718 160.168 144.23 160.168H145.79V163H143.678C140.846 163 139.43 161.624 139.43 158.872V152.464H137.846V149.704H139.43V146.416H142.814V149.704H145.79V152.464H142.814ZM147.343 156.304C147.343 154.96 147.607 153.768 148.135 152.728C148.679 151.688 149.407 150.888 150.319 150.328C151.247 149.768 152.279 149.488 153.415 149.488C154.407 149.488 155.271 149.688 156.007 150.088C156.759 150.488 157.359 150.992 157.807 151.6V149.704H161.191V163H157.807V161.056C157.375 161.68 156.775 162.2 156.007 162.616C155.255 163.016 154.383 163.216 153.391 163.216C152.271 163.216 151.247 162.928 150.319 162.352C149.407 161.776 148.679 160.968 148.135 159.928C147.607 158.872 147.343 157.664 147.343 156.304ZM157.807 156.352C157.807 155.536 157.647 154.84 157.327 154.264C157.007 153.672 156.575 153.224 156.031 152.92C155.487 152.6 154.903 152.44 154.279 152.44C153.655 152.44 153.079 152.592 152.551 152.896C152.023 153.2 151.591 153.648 151.255 154.24C150.935 154.816 150.775 155.504 150.775 156.304C150.775 157.104 150.935 157.808 151.255 158.416C151.591 159.008 152.023 159.464 152.551 159.784C153.095 160.104 153.671 160.264 154.279 160.264C154.903 160.264 155.487 160.112 156.031 159.808C156.575 159.488 157.007 159.04 157.327 158.464C157.647 157.872 157.807 157.168 157.807 156.352ZM171.84 149.512C173.424 149.512 174.704 150.016 175.68 151.024C176.656 152.016 177.144 153.408 177.144 155.2V163H173.784V155.656C173.784 154.6 173.52 153.792 172.992 153.232C172.464 152.656 171.744 152.368 170.832 152.368C169.904 152.368 169.168 152.656 168.624 153.232C168.096 153.792 167.832 154.6 167.832 155.656V163H164.472V149.704H167.832V151.36C168.28 150.784 168.848 150.336 169.536 150.016C170.24 149.68 171.008 149.512 171.84 149.512ZM179.476 156.352C179.476 154.976 179.756 153.776 180.316 152.752C180.876 151.712 181.652 150.912 182.644 150.352C183.636 149.776 184.772 149.488 186.052 149.488C187.7 149.488 189.06 149.904 190.132 150.736C191.22 151.552 191.948 152.704 192.316 154.192H188.692C188.5 153.616 188.172 153.168 187.708 152.848C187.26 152.512 186.7 152.344 186.028 152.344C185.068 152.344 184.308 152.696 183.748 153.4C183.188 154.088 182.908 155.072 182.908 156.352C182.908 157.616 183.188 158.6 183.748 159.304C184.308 159.992 185.068 160.336 186.028 160.336C187.388 160.336 188.276 159.728 188.692 158.512H192.316C191.948 159.952 191.22 161.096 190.132 161.944C189.044 162.792 187.684 163.216 186.052 163.216C184.772 163.216 183.636 162.936 182.644 162.376C181.652 161.8 180.876 161 180.316 159.976C179.756 158.936 179.476 157.728 179.476 156.352ZM207.137 156.064C207.137 156.544 207.105 156.976 207.041 157.36H197.321C197.401 158.32 197.737 159.072 198.329 159.616C198.921 160.16 199.649 160.432 200.513 160.432C201.761 160.432 202.649 159.896 203.177 158.824H206.801C206.417 160.104 205.681 161.16 204.593 161.992C203.505 162.808 202.169 163.216 200.585 163.216C199.305 163.216 198.153 162.936 197.129 162.376C196.121 161.8 195.329 160.992 194.753 159.952C194.193 158.912 193.913 157.712 193.913 156.352C193.913 154.976 194.193 153.768 194.753 152.728C195.313 151.688 196.097 150.888 197.105 150.328C198.113 149.768 199.273 149.488 200.585 149.488C201.849 149.488 202.977 149.76 203.969 150.304C204.977 150.848 205.753 151.624 206.297 152.632C206.857 153.624 207.137 154.768 207.137 156.064ZM203.657 155.104C203.641 154.24 203.329 153.552 202.721 153.04C202.113 152.512 201.369 152.248 200.489 152.248C199.657 152.248 198.953 152.504 198.377 153.016C197.817 153.512 197.473 154.208 197.345 155.104H203.657ZM72.1263 182.248V184.96H67.6623V199H64.3023V184.96H59.8383V182.248H72.1263ZM86.9379 192.064C86.9379 192.544 86.9059 192.976 86.8419 193.36H77.1219C77.2019 194.32 77.5379 195.072 78.1299 195.616C78.7219 196.16 79.4499 196.432 80.3139 196.432C81.5619 196.432 82.4499 195.896 82.9779 194.824H86.6019C86.2179 196.104 85.4819 197.16 84.3939 197.992C83.3059 198.808 81.9699 199.216 80.3859 199.216C79.1059 199.216 77.9539 198.936 76.9299 198.376C75.9219 197.8 75.1299 196.992 74.5539 195.952C73.9939 194.912 73.7139 193.712 73.7139 192.352C73.7139 190.976 73.9939 189.768 74.5539 188.728C75.1139 187.688 75.8979 186.888 76.9059 186.328C77.9139 185.768 79.0739 185.488 80.3859 185.488C81.6499 185.488 82.7779 185.76 83.7699 186.304C84.7779 186.848 85.5539 187.624 86.0979 188.632C86.6579 189.624 86.9379 190.768 86.9379 192.064ZM83.4579 191.104C83.4419 190.24 83.1299 189.552 82.5219 189.04C81.9139 188.512 81.1699 188.248 80.2899 188.248C79.4579 188.248 78.7539 188.504 78.1779 189.016C77.6179 189.512 77.2739 190.208 77.1459 191.104H83.4579ZM94.4784 199.216C93.3904 199.216 92.4144 199.024 91.5504 198.64C90.6864 198.24 89.9984 197.704 89.4864 197.032C88.9904 196.36 88.7184 195.616 88.6704 194.8H92.0544C92.1184 195.312 92.3664 195.736 92.7984 196.072C93.2464 196.408 93.7984 196.576 94.4544 196.576C95.0944 196.576 95.5904 196.448 95.9424 196.192C96.3104 195.936 96.4944 195.608 96.4944 195.208C96.4944 194.776 96.2704 194.456 95.8224 194.248C95.3904 194.024 94.6944 193.784 93.7344 193.528C92.7424 193.288 91.9264 193.04 91.2864 192.784C90.6624 192.528 90.1184 192.136 89.6544 191.608C89.2064 191.08 88.9824 190.368 88.9824 189.472C88.9824 188.736 89.1904 188.064 89.6064 187.456C90.0384 186.848 90.6464 186.368 91.4304 186.016C92.2304 185.664 93.1664 185.488 94.2384 185.488C95.8224 185.488 97.0864 185.888 98.0304 186.688C98.9744 187.472 99.4944 188.536 99.5904 189.88H96.3744C96.3264 189.352 96.1024 188.936 95.7024 188.632C95.3184 188.312 94.7984 188.152 94.1424 188.152C93.5344 188.152 93.0624 188.264 92.7264 188.488C92.4064 188.712 92.2464 189.024 92.2464 189.424C92.2464 189.872 92.4704 190.216 92.9184 190.456C93.3664 190.68 94.0624 190.912 95.0064 191.152C95.9664 191.392 96.7584 191.64 97.3824 191.896C98.0064 192.152 98.5424 192.552 98.9904 193.096C99.4544 193.624 99.6944 194.328 99.7104 195.208C99.7104 195.976 99.4944 196.664 99.0624 197.272C98.6464 197.88 98.0384 198.36 97.2384 198.712C96.4544 199.048 95.5344 199.216 94.4784 199.216ZM106.381 188.464V194.896C106.381 195.344 106.485 195.672 106.693 195.88C106.917 196.072 107.285 196.168 107.797 196.168H109.357V199H107.245C104.413 199 102.997 197.624 102.997 194.872V188.464H101.413V185.704H102.997V182.416H106.381V185.704H109.357V188.464H106.381ZM113.477 184.12C112.885 184.12 112.389 183.936 111.989 183.568C111.605 183.184 111.413 182.712 111.413 182.152C111.413 181.592 111.605 181.128 111.989 180.76C112.389 180.376 112.885 180.184 113.477 180.184C114.069 180.184 114.557 180.376 114.941 180.76C115.341 181.128 115.541 181.592 115.541 182.152C115.541 182.712 115.341 183.184 114.941 183.568C114.557 183.936 114.069 184.12 113.477 184.12ZM115.133 185.704V199H111.773V185.704H115.133ZM125.821 185.512C127.405 185.512 128.685 186.016 129.661 187.024C130.637 188.016 131.125 189.408 131.125 191.2V199H127.765V191.656C127.765 190.6 127.501 189.792 126.973 189.232C126.445 188.656 125.725 188.368 124.813 188.368C123.885 188.368 123.149 188.656 122.605 189.232C122.077 189.792 121.813 190.6 121.813 191.656V199H118.453V185.704H121.813V187.36C122.261 186.784 122.829 186.336 123.517 186.016C124.221 185.68 124.989 185.512 125.821 185.512ZM139.528 185.488C140.52 185.488 141.392 185.688 142.144 186.088C142.896 186.472 143.488 186.976 143.92 187.6V185.704H147.304V199.096C147.304 200.328 147.056 201.424 146.56 202.384C146.064 203.36 145.32 204.128 144.328 204.688C143.336 205.264 142.136 205.552 140.728 205.552C138.84 205.552 137.288 205.112 136.072 204.232C134.872 203.352 134.192 202.152 134.032 200.632H137.368C137.544 201.24 137.92 201.72 138.496 202.072C139.088 202.44 139.8 202.624 140.632 202.624C141.608 202.624 142.4 202.328 143.008 201.736C143.616 201.16 143.92 200.28 143.92 199.096V197.032C143.488 197.656 142.888 198.176 142.12 198.592C141.368 199.008 140.504 199.216 139.528 199.216C138.408 199.216 137.384 198.928 136.456 198.352C135.528 197.776 134.792 196.968 134.248 195.928C133.72 194.872 133.456 193.664 133.456 192.304C133.456 190.96 133.72 189.768 134.248 188.728C134.792 187.688 135.52 186.888 136.432 186.328C137.36 185.768 138.392 185.488 139.528 185.488ZM143.92 192.352C143.92 191.536 143.76 190.84 143.44 190.264C143.12 189.672 142.688 189.224 142.144 188.92C141.6 188.6 141.016 188.44 140.392 188.44C139.768 188.44 139.192 188.592 138.664 188.896C138.136 189.2 137.704 189.648 137.368 190.24C137.048 190.816 136.888 191.504 136.888 192.304C136.888 193.104 137.048 193.808 137.368 194.416C137.704 195.008 138.136 195.464 138.664 195.784C139.208 196.104 139.784 196.264 140.392 196.264C141.016 196.264 141.6 196.112 142.144 195.808C142.688 195.488 143.12 195.04 143.44 194.464C143.76 193.872 143.92 193.168 143.92 192.352Z" fill="white" fill-opacity="0.5"/>
<path d="M125.39 115.4C124.362 115.4 123.334 115.021 122.522 114.209L114.294 105.982C112.725 104.412 112.725 101.814 114.294 100.244C115.864 98.6747 118.462 98.6747 120.032 100.244L125.39 105.603L138.976 92.0171C140.546 90.4474 143.144 90.4474 144.714 92.0171C146.283 93.5868 146.283 96.1848 144.714 97.7545L128.259 114.209C127.447 115.021 126.419 115.4 125.39 115.4Z" />
<path d="M104.822 62.8968C104.659 62.8968 104.551 62.8968 104.389 62.8968C104.118 62.8427 103.739 62.8427 103.414 62.8968C87.7177 62.4097 75.864 50.0688 75.864 34.8593C75.8099 27.3898 78.7327 20.3533 84.0371 15.0489C89.3415 9.74454 96.378 6.76758 103.902 6.76758C119.382 6.76758 131.993 19.3791 131.993 34.8593C131.993 50.0688 120.14 62.3555 104.984 62.8968C104.93 62.8968 104.876 62.8968 104.822 62.8968ZM103.902 14.8866C98.543 14.8866 93.5634 16.9975 89.7745 20.7322C86.0398 24.5211 83.983 29.5007 83.983 34.8051C83.983 45.6304 92.4267 54.3989 103.198 54.7237C103.523 54.6696 104.226 54.6696 104.93 54.7237C115.593 54.2366 123.874 45.5222 123.874 34.8051C123.874 23.8716 114.889 14.8866 103.902 14.8866Z" />
<path d="M103.897 122.108C92.8553 122.108 82.4088 119.239 74.5064 113.934C66.9828 108.901 62.8691 102.027 62.8691 94.6112C62.8691 87.1959 67.0369 80.376 74.5064 75.3963C90.6902 64.571 116.996 64.571 133.18 75.3963C135.02 76.6412 135.561 79.1852 134.316 81.0255C133.071 82.9199 130.527 83.4071 128.687 82.1621C115.21 73.1771 92.4764 73.1771 78.9989 82.1621C73.8027 85.6262 70.9881 90.0105 70.9881 94.6112C70.9881 99.212 73.8027 103.705 78.9989 107.169C85.5482 111.553 94.3708 113.934 103.843 113.934C106.062 113.934 107.902 115.775 107.902 117.994C107.902 120.213 106.116 122.108 103.897 122.108Z" />
</svg>
