<svg width="132" height="161" viewBox="0 0 152 181" fill="none" xmlns="http://www.w3.org/2000/svg">
<path d="M75.5851 68.6205C58.5242 68.6205 44.6387 54.7349 44.6387 37.674C44.6387 20.6131 58.5242 6.72754 75.5851 6.72754C92.6461 6.72754 106.532 20.6131 106.532 37.674C106.532 54.7349 92.6461 68.6205 75.5851 68.6205ZM75.5851 14.8005C62.9913 14.8005 52.7117 25.0801 52.7117 37.674C52.7117 50.2679 62.9913 60.5475 75.5851 60.5475C88.179 60.5475 98.4586 50.2679 98.4586 37.674C98.4586 25.0801 88.179 14.8005 75.5851 14.8005Z"/>
<path d="M29.3549 122.439C27.1482 122.439 25.3184 120.609 25.3184 118.403C25.3184 95.4217 47.8689 76.6924 75.5862 76.6924C81.022 76.6924 86.3501 77.3922 91.5168 78.8453C93.6696 79.4373 94.9076 81.6439 94.3156 83.7967C93.7235 85.9494 91.5168 87.1874 89.364 86.5954C84.9508 85.3575 80.3223 84.7654 75.5862 84.7654C52.3359 84.7654 33.3913 99.8349 33.3913 118.403C33.3913 120.609 31.5615 122.439 29.3549 122.439Z"/>
<path d="M107.875 122.439C98.9409 122.439 90.545 117.703 86.0241 110.007C83.6022 106.132 82.3105 101.557 82.3105 96.875C82.3105 89.0173 85.8088 81.7515 91.8905 76.9077C96.4114 73.3018 102.116 71.3105 107.875 71.3105C121.976 71.3105 133.439 82.7742 133.439 96.875C133.439 101.557 132.148 106.132 129.726 110.061C128.38 112.321 126.658 114.367 124.613 116.089C120.146 120.179 114.172 122.439 107.875 122.439ZM107.875 79.3835C103.892 79.3835 100.125 80.7289 96.9496 83.2584C92.8054 86.5414 90.3835 91.5468 90.3835 96.875C90.3835 100.05 91.2447 103.172 92.9131 105.863C96.0346 111.137 101.793 114.366 107.875 114.366C112.127 114.366 116.217 112.806 119.339 110.007C120.738 108.823 121.922 107.424 122.783 105.917C124.505 103.172 125.366 100.05 125.366 96.875C125.366 87.2412 117.509 79.3835 107.875 79.3835Z"/>
<path d="M104.802 106.237C103.78 106.237 102.757 105.861 101.95 105.054L96.6218 99.7255C95.061 98.1647 95.061 95.581 96.6218 94.0202C98.1825 92.4595 100.766 92.4595 102.327 94.0202L104.91 96.6038L113.521 88.6382C115.136 87.1313 117.719 87.2391 119.226 88.8537C120.733 90.4683 120.625 93.0517 119.011 94.5586L107.547 105.161C106.74 105.861 105.771 106.237 104.802 106.237Z" />
<path d="M10.6398 171L6.94375 164.472H5.35975V171H1.99975V154.248H8.28775C9.58375 154.248 10.6878 154.48 11.5998 154.944C12.5118 155.392 13.1918 156.008 13.6398 156.792C14.1038 157.56 14.3358 158.424 14.3358 159.384C14.3358 160.488 14.0158 161.488 13.3758 162.384C12.7358 163.264 11.7838 163.872 10.5198 164.208L14.5278 171H10.6398ZM5.35975 161.952H8.16775C9.07975 161.952 9.75975 161.736 10.2078 161.304C10.6558 160.856 10.8798 160.24 10.8798 159.456C10.8798 158.688 10.6558 158.096 10.2078 157.68C9.75975 157.248 9.07975 157.032 8.16775 157.032H5.35975V161.952ZM29.7348 164.064C29.7348 164.544 29.7028 164.976 29.6388 165.36H19.9188C19.9988 166.32 20.3348 167.072 20.9268 167.616C21.5188 168.16 22.2468 168.432 23.1108 168.432C24.3588 168.432 25.2468 167.896 25.7748 166.824H29.3988C29.0148 168.104 28.2788 169.16 27.1908 169.992C26.1028 170.808 24.7668 171.216 23.1828 171.216C21.9028 171.216 20.7508 170.936 19.7268 170.376C18.7188 169.8 17.9268 168.992 17.3508 167.952C16.7908 166.912 16.5107 165.712 16.5107 164.352C16.5107 162.976 16.7908 161.768 17.3508 160.728C17.9108 159.688 18.6948 158.888 19.7028 158.328C20.7108 157.768 21.8708 157.488 23.1828 157.488C24.4468 157.488 25.5748 157.76 26.5668 158.304C27.5748 158.848 28.3508 159.624 28.8948 160.632C29.4548 161.624 29.7348 162.768 29.7348 164.064ZM26.2548 163.104C26.2388 162.24 25.9268 161.552 25.3188 161.04C24.7108 160.512 23.9668 160.248 23.0868 160.248C22.2548 160.248 21.5508 160.504 20.9748 161.016C20.4148 161.512 20.0708 162.208 19.9428 163.104H26.2548ZM31.3232 164.352C31.3232 162.976 31.6033 161.776 32.1633 160.752C32.7233 159.712 33.4993 158.912 34.4913 158.352C35.4833 157.776 36.6193 157.488 37.8993 157.488C39.5473 157.488 40.9073 157.904 41.9793 158.736C43.0673 159.552 43.7953 160.704 44.1633 162.192H40.5393C40.3473 161.616 40.0193 161.168 39.5553 160.848C39.1073 160.512 38.5473 160.344 37.8753 160.344C36.9153 160.344 36.1553 160.696 35.5953 161.4C35.0353 162.088 34.7553 163.072 34.7553 164.352C34.7553 165.616 35.0353 166.6 35.5953 167.304C36.1553 167.992 36.9153 168.336 37.8753 168.336C39.2353 168.336 40.1233 167.728 40.5393 166.512H44.1633C43.7953 167.952 43.0673 169.096 41.9793 169.944C40.8913 170.792 39.5313 171.216 37.8993 171.216C36.6193 171.216 35.4833 170.936 34.4913 170.376C33.4993 169.8 32.7233 169 32.1633 167.976C31.6033 166.936 31.3232 165.728 31.3232 164.352ZM49.9848 159.768C50.4168 159.064 50.9768 158.512 51.6648 158.112C52.3688 157.712 53.1688 157.512 54.0648 157.512V161.04H53.1768C52.1208 161.04 51.3208 161.288 50.7768 161.784C50.2488 162.28 49.9848 163.144 49.9848 164.376V171H46.6248V157.704H49.9848V159.768ZM68.8799 157.704V171H65.4959V169.32C65.0639 169.896 64.4959 170.352 63.7919 170.688C63.1039 171.008 62.3519 171.168 61.5359 171.168C60.4959 171.168 59.5759 170.952 58.7759 170.52C57.9759 170.072 57.3439 169.424 56.8799 168.576C56.4319 167.712 56.2079 166.688 56.2079 165.504V157.704H59.5679V165.024C59.5679 166.08 59.8319 166.896 60.3599 167.472C60.8879 168.032 61.6079 168.312 62.5199 168.312C63.4479 168.312 64.1759 168.032 64.7039 167.472C65.2319 166.896 65.4959 166.08 65.4959 165.024V157.704H68.8799ZM73.8991 156.12C73.3071 156.12 72.8111 155.936 72.4111 155.568C72.0271 155.184 71.8351 154.712 71.8351 154.152C71.8351 153.592 72.0271 153.128 72.4111 152.76C72.8111 152.376 73.3071 152.184 73.8991 152.184C74.4911 152.184 74.9791 152.376 75.3631 152.76C75.7631 153.128 75.9631 153.592 75.9631 154.152C75.9631 154.712 75.7631 155.184 75.3631 155.568C74.9791 155.936 74.4911 156.12 73.8991 156.12ZM75.5551 157.704V171H72.1951V157.704H75.5551ZM82.7868 160.464V166.896C82.7868 167.344 82.8908 167.672 83.0988 167.88C83.3228 168.072 83.6908 168.168 84.2028 168.168H85.7628V171H83.6508C80.8188 171 79.4028 169.624 79.4028 166.872V160.464H77.8188V157.704H79.4028V154.416H82.7868V157.704H85.7628V160.464H82.7868ZM104.691 157.512C106.323 157.512 107.635 158.016 108.627 159.024C109.635 160.016 110.139 161.408 110.139 163.2V171H106.779V163.656C106.779 162.616 106.515 161.824 105.987 161.28C105.459 160.72 104.739 160.44 103.827 160.44C102.915 160.44 102.187 160.72 101.643 161.28C101.115 161.824 100.851 162.616 100.851 163.656V171H97.4914V163.656C97.4914 162.616 97.2274 161.824 96.6994 161.28C96.1714 160.72 95.4514 160.44 94.5394 160.44C93.6114 160.44 92.8754 160.72 92.3314 161.28C91.8034 161.824 91.5394 162.616 91.5394 163.656V171H88.1794V157.704H91.5394V159.312C91.9714 158.752 92.5234 158.312 93.1954 157.992C93.8834 157.672 94.6354 157.512 95.4514 157.512C96.4914 157.512 97.4194 157.736 98.2354 158.184C99.0514 158.616 99.6834 159.24 100.131 160.056C100.563 159.288 101.187 158.672 102.003 158.208C102.835 157.744 103.731 157.512 104.691 157.512ZM125.688 164.064C125.688 164.544 125.656 164.976 125.592 165.36H115.872C115.952 166.32 116.288 167.072 116.88 167.616C117.472 168.16 118.2 168.432 119.064 168.432C120.312 168.432 121.2 167.896 121.728 166.824H125.352C124.968 168.104 124.232 169.16 123.144 169.992C122.056 170.808 120.72 171.216 119.136 171.216C117.856 171.216 116.704 170.936 115.68 170.376C114.672 169.8 113.88 168.992 113.304 167.952C112.744 166.912 112.464 165.712 112.464 164.352C112.464 162.976 112.744 161.768 113.304 160.728C113.864 159.688 114.648 158.888 115.656 158.328C116.664 157.768 117.824 157.488 119.136 157.488C120.4 157.488 121.528 157.76 122.52 158.304C123.528 158.848 124.304 159.624 124.848 160.632C125.408 161.624 125.688 162.768 125.688 164.064ZM122.208 163.104C122.192 162.24 121.88 161.552 121.272 161.04C120.664 160.512 119.92 160.248 119.04 160.248C118.208 160.248 117.504 160.504 116.928 161.016C116.368 161.512 116.024 162.208 115.896 163.104H122.208ZM135.508 157.512C137.092 157.512 138.372 158.016 139.348 159.024C140.324 160.016 140.812 161.408 140.812 163.2V171H137.452V163.656C137.452 162.6 137.188 161.792 136.66 161.232C136.132 160.656 135.412 160.368 134.5 160.368C133.572 160.368 132.836 160.656 132.292 161.232C131.764 161.792 131.5 162.6 131.5 163.656V171H128.14V157.704H131.5V159.36C131.948 158.784 132.516 158.336 133.204 158.016C133.908 157.68 134.676 157.512 135.508 157.512ZM147.92 160.464V166.896C147.92 167.344 148.024 167.672 148.232 167.88C148.456 168.072 148.824 168.168 149.336 168.168H150.896V171H148.784C145.952 171 144.536 169.624 144.536 166.872V160.464H142.952V157.704H144.536V154.416H147.92V157.704H150.896V160.464H147.92Z"/>
</svg>
