<svg width="35" height="35" viewBox="0 0 35 35" fill="none" xmlns="http://www.w3.org/2000/svg">
<g opacity="0.5">
<path d="M18.9579 13.1251C18.9579 13.9305 18.305 14.5834 17.4996 14.5834C16.6942 14.5834 16.0413 13.9305 16.0413 13.1251C16.0413 12.3196 16.6942 11.6667 17.4996 11.6667C18.305 11.6667 18.9579 12.3196 18.9579 13.1251Z" fill="#464646"/>
<path d="M17.4996 17.1355C18.1037 17.1355 18.5933 17.6252 18.5933 18.2292V25.5209C18.5933 26.1249 18.1037 26.6146 17.4996 26.6146C16.8955 26.6146 16.4058 26.1249 16.4058 25.5209V18.2292C16.4058 17.6252 16.8955 17.1355 17.4996 17.1355Z" fill="#464646"/>
<path fill-rule="evenodd" clip-rule="evenodd" d="M20.8105 5.82265C19.2181 3.49272 15.7811 3.49271 14.1886 5.82264L13.5587 6.74423C9.61241 12.5181 6.22184 18.6527 3.43244 25.066L3.30088 25.3685C2.31788 27.6286 3.803 30.1948 6.25233 30.4686C13.7272 31.304 21.2719 31.304 28.7468 30.4686C31.1961 30.1948 32.6812 27.6286 31.6982 25.3685L31.5667 25.066C28.7773 18.6527 25.3867 12.5181 21.4404 6.74423L20.8105 5.82265ZM15.9946 7.05699C16.7184 5.99793 18.2807 5.99793 19.0045 7.05699L19.6344 7.97858C23.5028 13.6384 26.8264 19.6519 29.5607 25.9385L29.6923 26.241C30.0881 27.151 29.4901 28.1844 28.5038 28.2946C21.1904 29.112 13.8087 29.112 6.49531 28.2946C5.50904 28.1844 4.91104 27.151 5.30686 26.241L5.43842 25.9385C8.17272 19.6519 11.4963 13.6384 15.3647 7.97857L15.9946 7.05699Z" fill="#464646"/>
</g>
</svg>
