<svg width="22" height="29" viewBox="0 0 23 30" fill="none" xmlns="http://www.w3.org/2000/svg">
<g opacity="0.5">
<path fill-rule="evenodd" clip-rule="evenodd" d="M16.8224 3.21673L18.0085 3.36446C20.7464 3.70543 22.8014 6.03232 22.8014 8.79128V24.0884C22.8014 26.7672 20.8061 29.0265 18.1478 29.3575C13.7325 29.9074 9.26615 29.9074 4.85091 29.3575C2.19264 29.0265 0.197266 26.7672 0.197266 24.0884V8.79128C0.197266 6.03232 2.25234 3.70543 4.99015 3.36446L6.17629 3.21673C6.64614 1.52383 8.19847 0.28125 10.041 0.28125H12.9577C14.8002 0.28125 16.3526 1.52383 16.8224 3.21673ZM6.0306 5.43928L5.26049 5.53519C3.61781 5.73977 2.38477 7.13591 2.38477 8.79128V24.0884C2.38477 25.6636 3.55811 26.9921 5.12126 27.1868C9.35696 27.7143 13.6417 27.7143 17.8774 27.1868C19.4406 26.9921 20.6139 25.6636 20.6139 24.0884V8.79128C20.6139 7.13591 19.3809 5.73977 17.7382 5.53519L16.9681 5.43928V7.20833C16.9681 7.8124 16.4784 8.30208 15.8743 8.30208H7.12435C6.52029 8.30208 6.0306 7.8124 6.0306 7.20833V5.43928ZM8.2181 4.29167C8.2181 3.2849 9.03425 2.46875 10.041 2.46875H12.9577C13.9644 2.46875 14.7806 3.2849 14.7806 4.29167V6.11458H8.2181V4.29167Z" fill="#464646"/>
<path d="M16.9681 14.1354C16.9681 13.5314 16.4784 13.0417 15.8743 13.0417H7.12435C6.52029 13.0417 6.0306 13.5314 6.0306 14.1354C6.0306 14.7395 6.52029 15.2292 7.12435 15.2292H15.8743C16.4784 15.2292 16.9681 14.7395 16.9681 14.1354Z" fill="#464646"/>
<path d="M15.5098 18.5104C15.5098 17.9064 15.0201 17.4167 14.416 17.4167H7.12435C6.52029 17.4167 6.0306 17.9064 6.0306 18.5104C6.0306 19.1145 6.52029 19.6042 7.12435 19.6042H14.416C15.0201 19.6042 15.5098 19.1145 15.5098 18.5104Z" fill="#464646"/></g>
</svg>
