<svg width="30" height="29" viewBox="0 0 30 29" fill="none" xmlns="http://www.w3.org/2000/svg">
<g opacity="0.5">
<path fill-rule="evenodd" clip-rule="evenodd" d="M11.5833 0.739746C8.16032 0.739746 5.38542 3.51465 5.38542 6.93766C5.38542 10.3607 8.16032 13.1356 11.5833 13.1356C15.0063 13.1356 17.7813 10.3607 17.7813 6.93766C17.7813 3.51465 15.0063 0.739746 11.5833 0.739746ZM7.57292 6.93766C7.57292 4.72277 9.36844 2.92725 11.5833 2.92725C13.7982 2.92725 15.5938 4.72277 15.5938 6.93766C15.5938 9.15255 13.7982 10.9481 11.5833 10.9481C9.36844 10.9481 7.57292 9.15255 7.57292 6.93766Z" fill="#464646"/>
<path d="M2.46875 20.7918C2.46875 18.9796 3.93782 17.5106 5.75 17.5106H6.2471C6.28554 17.5106 6.32373 17.5167 6.36027 17.5286L7.62248 17.9407C8.61346 18.2643 9.63417 18.4633 10.6617 18.5377C10.878 18.5534 11.0677 18.4015 11.1166 18.1903C11.2268 17.7138 11.3704 17.2501 11.5447 16.8018C11.6217 16.6039 11.477 16.3851 11.2648 16.3787C10.2635 16.3486 9.26552 16.1761 8.30148 15.8613L7.03927 15.4491C6.78351 15.3656 6.51615 15.3231 6.2471 15.3231H5.75C2.72969 15.3231 0.28125 17.7715 0.28125 20.7918V22.5247C0.28125 23.6232 1.07733 24.5598 2.16144 24.7368C5.30873 25.2506 8.48755 25.5053 11.6661 25.5008C11.8879 25.5005 12.0272 25.2609 11.9279 25.0626C11.7138 24.6346 11.5288 24.1896 11.3757 23.73C11.2937 23.4842 11.0684 23.3116 10.8093 23.308C8.03442 23.2699 5.26169 23.0265 2.51391 22.5779C2.48787 22.5736 2.46875 22.5511 2.46875 22.5247V20.7918Z" fill="#464646"/>
<path d="M22.1563 18.3126C22.1563 17.7085 21.6666 17.2188 21.0625 17.2188C20.4584 17.2188 19.9688 17.7085 19.9688 18.3126V20.8978C19.9688 21.2478 20.1362 21.5766 20.4192 21.7824L21.8775 22.843C22.366 23.1983 23.0501 23.0903 23.4054 22.6017C23.7607 22.1132 23.6527 21.4292 23.1641 21.0739L22.1563 20.3409V18.3126Z" fill="#464646"/>
<path fill-rule="evenodd" clip-rule="evenodd" d="M21.0625 28.5209C25.4923 28.5209 29.0833 24.9299 29.0833 20.5001C29.0833 16.0703 25.4923 12.4793 21.0625 12.4793C16.6327 12.4793 13.0417 16.0703 13.0417 20.5001C13.0417 24.9299 16.6327 28.5209 21.0625 28.5209ZM21.0625 26.3334C24.2842 26.3334 26.8958 23.7218 26.8958 20.5001C26.8958 17.2784 24.2842 14.6668 21.0625 14.6668C17.8408 14.6668 15.2292 17.2784 15.2292 20.5001C15.2292 23.7218 17.8408 26.3334 21.0625 26.3334Z" fill="#464646"/></g>

</svg>
