<svg width="35" height="35" viewBox="0 0 29 28" fill="none" xmlns="http://www.w3.org/2000/svg">
    <g opacity="0.5">
        <path fillRule="evenodd" clipRule="evenodd"
            d="M12.4069 4.4414C7.08155 4.98871 2.92773 9.48848 2.92773 14.9584C2.92773 20.7977 7.66139 25.5313 13.5007 25.5313C18.9706 25.5313 23.4704 21.3775 24.0177 16.0522H13.5007C12.8966 16.0522 12.4069 15.5625 12.4069 14.9584V4.4414ZM0.740234 14.9584C0.740234 7.91104 6.45327 2.19801 13.5007 2.19801C14.1047 2.19801 14.5944 2.6877 14.5944 3.29176V13.8647H25.1673C25.7714 13.8647 26.2611 14.3544 26.2611 14.9584C26.2611 22.0058 20.548 27.7188 13.5007 27.7188C6.45327 27.7188 0.740234 22.0058 0.740234 14.9584Z"
            fill="#464646" />
        <path fillRule="evenodd" clipRule="evenodd"
            d="M18.6048 2.81583V9.85426H25.6433C24.8222 6.377 22.0821 3.63691 18.6048 2.81583ZM17.8728 0.464995C23.1524 1.12202 27.3371 5.3067 27.9941 10.5863C28.0935 11.3856 27.4311 12.0418 26.6257 12.0418H17.1465C16.7438 12.0418 16.4173 11.7153 16.4173 11.3126V1.83343C16.4173 1.02801 17.0735 0.365533 17.8728 0.464995Z"
            fill="#464646" />
    </g>
</svg>