<svg width="239" height="81" viewBox="0 0 239 81" fill="none" xmlns="http://www.w3.org/2000/svg">
<path d="M60.0085 14.9354C54.7033 9.6303 47.508 6.6499 40.0054 6.6499C32.5028 6.6499 25.3075 9.6303 20.0023 14.9354C14.6972 20.2406 11.7168 27.4359 11.7168 34.9385C11.7168 42.4411 14.6972 49.6364 20.0023 54.9416L37.5717 72.5443C37.8816 72.8567 38.2503 73.1047 38.6566 73.274C39.0629 73.4433 39.4986 73.5304 39.9387 73.5304C40.3788 73.5304 40.8146 73.4433 41.2208 73.274C41.6271 73.1047 41.9958 72.8567 42.3057 72.5443L60.0085 54.7749C65.2914 49.4918 68.2594 42.3265 68.2594 34.8552C68.2594 27.3838 65.2914 20.2185 60.0085 14.9354V14.9354ZM55.2411 50.0075L40.0054 65.3098L24.7697 50.0075C21.7598 46.9947 19.7105 43.1572 18.8811 38.9801C18.0517 34.8029 18.4794 30.4736 20.11 26.5395C21.7407 22.6053 24.5011 19.2429 28.0423 16.8773C31.5836 14.5117 35.7467 13.2491 40.0054 13.2491C44.2641 13.2491 48.4272 14.5117 51.9685 16.8773C55.5097 19.2429 58.2701 22.6053 59.9008 26.5395C61.5314 30.4736 61.959 34.8029 61.1296 38.9801C60.3002 43.1572 58.251 46.9947 55.2411 50.0075V50.0075ZM30.0039 24.7036C27.3125 27.4033 25.8012 31.0598 25.8012 34.8718C25.8012 38.6839 27.3125 42.3404 30.0039 45.04C32.0034 47.043 34.5499 48.4108 37.3238 48.972C40.0978 49.5332 42.9757 49.2626 45.5965 48.1944C48.2173 47.1261 50.4643 45.3077 52.0555 42.9672C53.6467 40.6268 54.5114 37.8685 54.541 35.0385C54.556 33.1489 54.192 31.2755 53.4705 29.529C52.749 27.7825 51.6846 26.1984 50.3403 24.8703C49.019 23.5187 47.4435 22.4417 45.7043 21.7014C43.9652 20.961 42.0969 20.5719 40.2068 20.5564C38.3167 20.5409 36.4422 20.8993 34.6912 21.6111C32.9401 22.3228 31.3471 23.3738 30.0039 24.7036V24.7036ZM45.6396 40.306C44.3762 41.5887 42.7065 42.3927 40.916 42.5805C39.1254 42.7684 37.3252 42.3284 35.8231 41.3359C34.321 40.3434 33.2103 38.8599 32.681 37.1391C32.1516 35.4183 32.2364 33.5671 32.9208 31.9019C33.6053 30.2367 34.8469 28.861 36.4335 28.0099C38.02 27.1588 39.8529 26.8853 41.6188 27.236C43.3846 27.5868 44.9739 28.5401 46.1147 29.9328C47.2555 31.3256 47.8772 33.0714 47.8733 34.8718C47.8248 36.9297 46.9614 38.8842 45.4729 40.306H45.6396Z" fill="#464646"/>
<path d="M95.8599 16.3047C95.8599 17.3893 95.611 18.385 95.1132 19.2918C94.6153 20.1809 93.8507 20.901 92.8195 21.4522C91.7882 22.0034 90.508 22.279 88.9789 22.279H86.1518V29H81.5911V10.2771H88.9789C90.4724 10.2771 91.7349 10.535 92.7661 11.0506C93.7974 11.5662 94.5708 12.2774 95.0865 13.1842C95.6021 14.0911 95.8599 15.1312 95.8599 16.3047ZM88.6322 18.6518C89.5034 18.6518 90.1524 18.4473 90.5791 18.0383C91.0059 17.6294 91.2192 17.0515 91.2192 16.3047C91.2192 15.5579 91.0059 14.9801 90.5791 14.5711C90.1524 14.1622 89.5034 13.9577 88.6322 13.9577H86.1518V18.6518H88.6322ZM112.93 14.1177V29H108.369V26.973C107.907 27.6309 107.276 28.1643 106.476 28.5733C105.693 28.9644 104.822 29.16 103.862 29.16C102.724 29.16 101.719 28.9111 100.848 28.4132C99.9767 27.8976 99.3011 27.1597 98.821 26.1996C98.3409 25.2394 98.1009 24.1104 98.1009 22.8124V14.1177H102.635V22.199C102.635 23.1947 102.893 23.9681 103.408 24.5193C103.924 25.0705 104.617 25.3461 105.489 25.3461C106.378 25.3461 107.08 25.0705 107.596 24.5193C108.111 23.9681 108.369 23.1947 108.369 22.199V14.1177H112.93ZM120.766 16.5981C121.3 15.7802 121.967 15.1401 122.767 14.6778C123.567 14.1977 124.456 13.9577 125.434 13.9577V18.7851H124.18C123.042 18.7851 122.189 19.034 121.62 19.5319C121.051 20.012 120.766 20.8654 120.766 22.0923V29H116.206V14.1177H120.766V16.5981ZM148.977 14.1177L144.95 29H139.909L137.562 19.3452L135.135 29H130.121L126.067 14.1177H130.628L132.735 24.7594L135.242 14.1177H140.069L142.603 24.706L144.683 14.1177H148.977ZM157.491 29.2134C156.033 29.2134 154.717 28.9022 153.543 28.2799C152.388 27.6576 151.472 26.7685 150.796 25.6128C150.138 24.4571 149.809 23.1058 149.809 21.5589C149.809 20.0297 150.147 18.6873 150.823 17.5316C151.499 16.3581 152.423 15.4602 153.597 14.8378C154.77 14.2155 156.086 13.9044 157.544 13.9044C159.002 13.9044 160.318 14.2155 161.491 14.8378C162.665 15.4602 163.589 16.3581 164.265 17.5316C164.941 18.6873 165.278 20.0297 165.278 21.5589C165.278 23.088 164.932 24.4393 164.238 25.6128C163.563 26.7685 162.629 27.6576 161.438 28.2799C160.264 28.9022 158.949 29.2134 157.491 29.2134ZM157.491 25.2661C158.362 25.2661 159.1 24.946 159.704 24.3059C160.327 23.6659 160.638 22.7502 160.638 21.5589C160.638 20.3676 160.335 19.4519 159.731 18.8118C159.144 18.1717 158.415 17.8516 157.544 17.8516C156.655 17.8516 155.917 18.1717 155.33 18.8118C154.744 19.4341 154.45 20.3498 154.45 21.5589C154.45 22.7502 154.735 23.6659 155.304 24.3059C155.89 24.946 156.619 25.2661 157.491 25.2661ZM176.793 29L172.259 22.759V29H167.698V9.26365H172.259V20.172L176.766 14.1177H182.394L176.206 21.5855L182.447 29H176.793ZM198.214 21.3188C198.214 21.7456 198.187 22.1901 198.134 22.6524H187.812C187.883 23.5769 188.177 24.2882 188.692 24.786C189.226 25.2661 189.875 25.5061 190.639 25.5061C191.777 25.5061 192.568 25.0261 193.013 24.0659H197.867C197.618 25.0438 197.165 25.924 196.507 26.7063C195.867 27.4887 195.058 28.1021 194.08 28.5466C193.102 28.9911 192.008 29.2134 190.799 29.2134C189.341 29.2134 188.043 28.9022 186.905 28.2799C185.767 27.6576 184.878 26.7685 184.238 25.6128C183.598 24.4571 183.278 23.1058 183.278 21.5589C183.278 20.012 183.589 18.6606 184.212 17.5049C184.852 16.3492 185.741 15.4602 186.879 14.8378C188.017 14.2155 189.323 13.9044 190.799 13.9044C192.239 13.9044 193.52 14.2066 194.64 14.8112C195.76 15.4157 196.631 16.2781 197.254 17.3982C197.894 18.5184 198.214 19.8253 198.214 21.3188ZM193.546 20.1186C193.546 19.3363 193.28 18.714 192.746 18.2517C192.213 17.7894 191.546 17.5582 190.746 17.5582C189.981 17.5582 189.332 17.7805 188.799 18.225C188.283 18.6695 187.963 19.3007 187.839 20.1186H193.546ZM205.18 16.5981C205.714 15.7802 206.381 15.1401 207.181 14.6778C207.981 14.1977 208.87 13.9577 209.848 13.9577V18.7851H208.594C207.456 18.7851 206.603 19.034 206.034 19.5319C205.465 20.012 205.18 20.8654 205.18 22.0923V29H200.62V14.1177H205.18V16.5981ZM220.322 25.1327V29H218.002C216.348 29 215.059 28.5999 214.135 27.7998C213.21 26.9819 212.748 25.6573 212.748 23.8259V17.905H210.934V14.1177H212.748V10.4905H217.309V14.1177H220.296V17.905H217.309V23.8792C217.309 24.3237 217.415 24.6438 217.629 24.8394C217.842 25.0349 218.198 25.1327 218.695 25.1327H220.322ZM229.637 29.2134C228.179 29.2134 226.863 28.9022 225.69 28.2799C224.534 27.6576 223.618 26.7685 222.943 25.6128C222.285 24.4571 221.956 23.1058 221.956 21.5589C221.956 20.0297 222.294 18.6873 222.969 17.5316C223.645 16.3581 224.57 15.4602 225.743 14.8378C226.917 14.2155 228.232 13.9044 229.69 13.9044C231.148 13.9044 232.464 14.2155 233.638 14.8378C234.811 15.4602 235.736 16.3581 236.411 17.5316C237.087 18.6873 237.425 20.0297 237.425 21.5589C237.425 23.088 237.078 24.4393 236.385 25.6128C235.709 26.7685 234.776 27.6576 233.584 28.2799C232.411 28.9022 231.095 29.2134 229.637 29.2134ZM229.637 25.2661C230.508 25.2661 231.246 24.946 231.851 24.3059C232.473 23.6659 232.784 22.7502 232.784 21.5589C232.784 20.3676 232.482 19.4519 231.877 18.8118C231.291 18.1717 230.562 17.8516 229.69 17.8516C228.801 17.8516 228.063 18.1717 227.477 18.8118C226.89 19.4341 226.597 20.3498 226.597 21.5589C226.597 22.7502 226.881 23.6659 227.45 24.3059C228.037 24.946 228.766 25.2661 229.637 25.2661ZM96.3133 50.4105V69H93.8863V60.572H84.4182V69H81.9911V50.4105H84.4182V58.5717H93.8863V50.4105H96.3133ZM113.419 54.3844V69H110.992V66.8397C110.53 67.5865 109.881 68.1732 109.045 68.5999C108.228 69.0089 107.321 69.2134 106.325 69.2134C105.187 69.2134 104.165 68.9822 103.258 68.5199C102.351 68.0399 101.631 67.3286 101.098 66.3863C100.582 65.4439 100.324 64.2971 100.324 62.9457V54.3844H102.725V62.6257C102.725 64.0659 103.089 65.1772 103.818 65.9595C104.547 66.7241 105.543 67.1064 106.805 67.1064C108.103 67.1064 109.126 66.7063 109.872 65.9062C110.619 65.1061 110.992 63.9414 110.992 62.4123V54.3844H113.419ZM119.944 57.1048C120.442 56.2336 121.171 55.5224 122.131 54.9712C123.092 54.42 124.185 54.1444 125.412 54.1444C126.728 54.1444 127.91 54.4556 128.959 55.0779C130.008 55.7002 130.835 56.5803 131.44 57.7183C132.044 58.8384 132.346 60.1453 132.346 61.6389C132.346 63.1147 132.044 64.4304 131.44 65.5861C130.835 66.7419 129.999 67.6398 128.932 68.2799C127.883 68.92 126.71 69.24 125.412 69.24C124.15 69.24 123.038 68.9644 122.078 68.4132C121.136 67.862 120.425 67.1597 119.944 66.3063V69H117.517V49.2636H119.944V57.1048ZM129.866 61.6389C129.866 60.5365 129.644 59.5763 129.199 58.7584C128.755 57.9405 128.15 57.3182 127.386 56.8915C126.639 56.4647 125.812 56.2514 124.905 56.2514C124.016 56.2514 123.189 56.4736 122.425 56.9182C121.678 57.3449 121.074 57.9761 120.611 58.8118C120.167 59.6297 119.944 60.5809 119.944 61.6655C119.944 62.7679 120.167 63.737 120.611 64.5727C121.074 65.3906 121.678 66.0218 122.425 66.4663C123.189 66.893 124.016 67.1064 124.905 67.1064C125.812 67.1064 126.639 66.893 127.386 66.4663C128.15 66.0218 128.755 65.3906 129.199 64.5727C129.644 63.737 129.866 62.759 129.866 61.6389Z" fill="#464646"/>
</svg>
