<svg width="34" height="30" viewBox="0 0 34 30" fill="none" xmlns="http://www.w3.org/2000/svg">
<path d="M30.6168 10.3834L7.28351 0.750089C6.40064 0.384733 5.43157 0.279996 4.49102 0.448277C3.55047 0.616557 2.67783 1.05081 1.97641 1.69962C1.27499 2.34844 0.774164 3.18464 0.533215 4.10925C0.292266 5.03385 0.321288 6.00813 0.616845 6.91675L3.18351 15.0001L0.550179 23.0834C0.246631 23.9957 0.212533 24.9761 0.451969 25.9072C0.691405 26.8384 1.19422 27.6807 1.90018 28.3334C2.80791 29.1752 3.99565 29.6503 5.23351 29.6668C5.8914 29.6663 6.54273 29.536 7.15018 29.2834L30.5668 19.6501C31.4788 19.2708 32.258 18.6299 32.8062 17.8083C33.3543 16.9867 33.6468 16.0211 33.6468 15.0334C33.6468 14.0457 33.3543 13.0802 32.8062 12.2585C32.258 11.4369 31.4788 10.796 30.5668 10.4168L30.6168 10.3834ZM5.93351 26.1668C5.63951 26.288 5.31695 26.3227 5.00391 26.2665C4.69087 26.2104 4.40042 26.0659 4.16684 25.8501C3.94682 25.6398 3.78857 25.3734 3.70924 25.0796C3.62991 24.7858 3.63254 24.4758 3.71684 24.1834L6.15018 16.6668H29.0335L5.93351 26.1668ZM6.15018 13.3334L3.66684 5.88342C3.58254 5.59101 3.57991 5.28109 3.65924 4.98728C3.73857 4.69348 3.89682 4.427 4.11684 4.21676C4.27369 4.05222 4.46253 3.9215 4.67177 3.83265C4.881 3.7438 5.1062 3.69868 5.33351 3.70009C5.55692 3.70052 5.77797 3.74586 5.98351 3.83342L29.0335 13.3334H6.15018Z" fill="#464646"/>
</svg>
