<svg width="29" height="29" viewBox="0 0 29 29" fill="none" xmlns="http://www.w3.org/2000/svg">
<g opacity="0.5">
<path fill-rule="evenodd" clip-rule="evenodd" d="M17.1371 9.31918C15.3981 9.12482 13.6019 9.12482 11.8629 9.31918C10.5533 9.46554 9.49206 10.4963 9.33699 11.8221C9.1289 13.6013 9.1289 15.3987 9.33699 17.1779C9.49206 18.5037 10.5533 19.5345 11.8629 19.6808C13.6019 19.8752 15.3981 19.8752 17.1371 19.6808C18.4467 19.5345 19.5079 18.5037 19.663 17.1779C19.8711 15.3987 19.8711 13.6013 19.663 11.8221C19.5079 10.4963 18.4467 9.46554 17.1371 9.31918ZM12.1059 11.4931C13.6834 11.3168 15.3166 11.3168 16.8941 11.4931C17.2092 11.5284 17.4555 11.7783 17.4903 12.0762C17.6787 13.6866 17.6787 15.3134 17.4903 16.9238C17.4555 17.2217 17.2092 17.4717 16.8941 17.5069C15.3166 17.6832 13.6834 17.6832 12.1059 17.5069C11.7908 17.4717 11.5445 17.2217 11.5097 16.9238C11.3213 15.3134 11.3213 13.6866 11.5097 12.0762C11.5445 11.7783 11.7908 11.5284 12.1059 11.4931Z" fill="#464646"/>
<path fill-rule="evenodd" clip-rule="evenodd" d="M19.9688 1.375C19.9688 0.770939 19.4791 0.28125 18.875 0.28125C18.2709 0.28125 17.7813 0.770939 17.7813 1.375V5.05528C17.0546 5.00424 16.3247 4.97023 15.5938 4.95325V2.83333C15.5938 2.22927 15.1041 1.73958 14.5 1.73958C13.8959 1.73958 13.4063 2.22927 13.4063 2.83333V4.95325C12.6753 4.97023 11.9454 5.00424 11.2188 5.05528V1.375C11.2188 0.770939 10.7291 0.28125 10.125 0.28125C9.52094 0.28125 9.03125 0.770939 9.03125 1.375V5.27171C7.1355 5.617 5.6224 7.11487 5.29486 9.03125H1.375C0.770939 9.03125 0.28125 9.52094 0.28125 10.125C0.28125 10.7291 0.770938 11.2188 1.375 11.2188H5.07537C5.02213 11.9472 4.98664 12.6765 4.9689 13.4063H2.83333C2.22927 13.4063 1.73958 13.8959 1.73958 14.5C1.73958 15.1041 2.22927 15.5938 2.83333 15.5938H4.9689C4.98664 16.3235 5.02213 17.0528 5.07537 17.7813H1.375C0.770939 17.7813 0.28125 18.2709 0.28125 18.875C0.28125 19.4791 0.770938 19.9688 1.375 19.9688H5.29486C5.62241 21.8851 7.13551 23.383 9.03125 23.7283V27.625C9.03125 28.2291 9.52094 28.7188 10.125 28.7188C10.7291 28.7188 11.2188 28.2291 11.2188 27.625V23.9447C11.9454 23.9958 12.6753 24.0298 13.4063 24.0467V26.1667C13.4063 26.7707 13.8959 27.2604 14.5 27.2604C15.1041 27.2604 15.5938 26.7707 15.5938 26.1667V24.0467C16.3247 24.0298 17.0546 23.9958 17.7813 23.9447V27.625C17.7813 28.2291 18.2709 28.7188 18.875 28.7188C19.4791 28.7188 19.9688 28.2291 19.9688 27.625V23.7283C21.8645 23.383 23.3776 21.8851 23.7051 19.9688H27.625C28.2291 19.9688 28.7188 19.4791 28.7188 18.875C28.7188 18.2709 28.2291 17.7813 27.625 17.7813H23.9246C23.9779 17.0528 24.0134 16.3235 24.0311 15.5938H26.1667C26.7707 15.5938 27.2604 15.1041 27.2604 14.5C27.2604 13.8959 26.7707 13.4063 26.1667 13.4063H24.0311C24.0134 12.6765 23.9779 11.9472 23.9246 11.2188H27.625C28.2291 11.2188 28.7188 10.7291 28.7188 10.125C28.7188 9.52094 28.2291 9.03125 27.625 9.03125H23.7051C23.3776 7.11486 21.8645 5.61699 19.9688 5.27171V1.375ZM9.5903 7.39929C12.826 7.03765 16.174 7.03765 19.4097 7.39929C20.5371 7.52529 21.4372 8.41562 21.567 9.52537C21.9535 12.8305 21.9535 16.1695 21.567 19.4746C21.4372 20.5844 20.5371 21.4747 19.4097 21.6007C16.174 21.9623 12.826 21.9623 9.5903 21.6007C8.46289 21.4747 7.56283 20.5844 7.43304 19.4746C7.04647 16.1695 7.04647 12.8305 7.43304 9.52537C7.56283 8.41562 8.46289 7.52529 9.5903 7.39929Z" fill="#464646"/></g>

</svg>
