<svg width="152" height="150" viewBox="0 0 172 170" fill="none" xmlns="http://www.w3.org/2000/svg">
<path d="M157.667 68.4959C157.214 67.2002 156.391 66.0622 155.297 65.2199C154.203 64.3775 152.885 63.8669 151.503 63.75L110.725 57.8709L92.4499 21.2501C91.8631 20.0525 90.9468 19.0425 89.8061 18.3358C88.6653 17.6291 87.3462 17.2543 85.9999 17.2543C84.6536 17.2543 83.3345 17.6291 82.1938 18.3358C81.053 19.0425 80.1368 20.0525 79.5499 21.2501L61.2749 57.8L20.4966 63.75C19.1702 63.9364 17.9232 64.4865 16.8971 65.3378C15.8711 66.1892 15.107 67.3078 14.6916 68.5667C14.3114 69.7969 14.2772 71.1062 14.5929 72.3541C14.9085 73.602 15.562 74.7414 16.4833 75.65L46.0816 103.983L38.9149 144.217C38.6256 145.551 38.7326 146.94 39.223 148.216C39.7134 149.492 40.5664 150.601 41.6793 151.409C42.7922 152.217 44.1177 152.69 45.4963 152.772C46.8748 152.853 48.2478 152.539 49.4499 151.867L85.9999 132.954L122.55 151.867C123.556 152.428 124.692 152.72 125.847 152.717C127.365 152.722 128.845 152.251 130.075 151.371C131.187 150.584 132.048 149.498 132.556 148.243C133.063 146.988 133.197 145.616 132.942 144.288L125.775 104.054L155.373 75.7209C156.408 74.8544 157.173 73.7156 157.579 72.4367C157.985 71.1578 158.015 69.7912 157.667 68.4959ZM113.592 96.8292C112.762 97.6254 112.14 98.6082 111.778 99.6936C111.416 100.779 111.325 101.935 111.513 103.063L116.673 132.813L89.7266 118.646C88.6793 118.134 87.5267 117.867 86.3583 117.867C85.1898 117.867 84.0372 118.134 82.9899 118.646L56.0433 132.813L61.2033 103.063C61.3913 101.935 61.3005 100.779 60.9386 99.6936C60.5767 98.6082 59.9544 97.6254 59.1249 96.8292L37.6249 75.5792L67.7966 71.2584C68.9576 71.0988 70.0612 70.6601 71.0108 69.9809C71.9604 69.3017 72.727 68.4026 73.2433 67.3625L85.9999 40.375L99.4733 67.4334C99.9896 68.4735 100.756 69.3725 101.706 70.0517C102.655 70.731 103.759 71.1696 104.92 71.3292L135.092 75.65L113.592 96.8292Z"/>
</svg>
