<svg width="170" height="170" viewBox="0 0 170 170" fill="none" xmlns="http://www.w3.org/2000/svg">
<path d="M74.3747 141.667H38.958C37.0794 141.667 35.2777 140.92 33.9493 139.592C32.621 138.264 31.8747 136.462 31.8747 134.583V35.4166C31.8747 33.538 32.621 31.7363 33.9493 30.408C35.2777 29.0796 37.0794 28.3333 38.958 28.3333H74.3747V49.5833C74.3747 55.2191 76.6135 60.6242 80.5987 64.6093C84.5838 68.5945 89.9888 70.8333 95.6247 70.8333H116.875C116.875 72.7119 117.621 74.5136 118.949 75.842C120.278 77.1703 122.079 77.9166 123.958 77.9166C125.837 77.9166 127.638 77.1703 128.967 75.842C130.295 74.5136 131.041 72.7119 131.041 70.8333V63.75C131.041 63.75 131.041 63.75 131.041 63.325C130.968 62.6742 130.825 62.0332 130.616 61.4125V60.775C130.276 60.0466 129.821 59.3772 129.271 58.7916L86.7705 16.2916C86.185 15.7407 85.5155 15.2864 84.7872 14.9458C84.5757 14.9158 84.3611 14.9158 84.1497 14.9458L81.883 14.1666H38.958C33.3222 14.1666 27.9171 16.4055 23.932 20.3906C19.9468 24.3758 17.708 29.7808 17.708 35.4166V134.583C17.708 140.219 19.9468 145.624 23.932 149.609C27.9171 153.594 33.3222 155.833 38.958 155.833H74.3747C76.2533 155.833 78.055 155.087 79.3834 153.759C80.7117 152.43 81.458 150.629 81.458 148.75C81.458 146.871 80.7117 145.07 79.3834 143.741C78.055 142.413 76.2533 141.667 74.3747 141.667ZM88.5414 38.3208L106.887 56.6666H95.6247C93.7461 56.6666 91.9444 55.9203 90.616 54.592C89.2876 53.2636 88.5414 51.4619 88.5414 49.5833V38.3208ZM53.1247 56.6666C51.2461 56.6666 49.4444 57.4129 48.116 58.7413C46.7876 60.0697 46.0413 61.8713 46.0413 63.75C46.0413 65.6286 46.7876 67.4302 48.116 68.7586C49.4444 70.087 51.2461 70.8333 53.1247 70.8333H60.208C62.0866 70.8333 63.8883 70.087 65.2167 68.7586C66.5451 67.4302 67.2913 65.6286 67.2913 63.75C67.2913 61.8713 66.5451 60.0697 65.2167 58.7413C63.8883 57.4129 62.0866 56.6666 60.208 56.6666H53.1247ZM149.671 98.1749C148.848 97.5093 147.886 97.0365 146.856 96.7913C145.827 96.5462 144.755 96.5349 143.721 96.7583C141.035 97.3242 138.26 97.3204 135.576 96.7469C132.891 96.1735 130.357 95.0432 128.137 93.4291C126.924 92.5427 125.461 92.0649 123.958 92.0649C122.456 92.0649 120.992 92.5427 119.779 93.4291C117.557 95.0392 115.023 96.1671 112.339 96.7404C109.655 97.3137 106.882 97.3198 104.196 96.7583C103.149 96.5333 102.066 96.5483 101.027 96.802C99.9871 97.0557 99.0186 97.5416 98.1938 98.2233C97.3691 98.9049 96.7094 99.7645 96.2645 100.738C95.8195 101.711 95.6008 102.772 95.6247 103.842V120.417C95.6137 125.487 96.7861 130.49 99.0487 135.027C101.311 139.565 104.602 143.512 108.658 146.554L119.708 154.417C120.934 155.336 122.425 155.833 123.958 155.833C125.491 155.833 126.982 155.336 128.208 154.417L139.258 146.2C143.267 143.194 146.528 139.304 148.788 134.832C151.049 130.36 152.248 125.427 152.291 120.417V103.629C152.284 102.583 152.046 101.551 151.593 100.608C151.14 99.665 150.483 98.8341 149.671 98.1749ZM138.125 120.417C138.158 123.262 137.537 126.077 136.308 128.644C135.08 131.211 133.278 133.461 131.041 135.221L123.958 140.321L116.875 135.221C114.638 133.461 112.836 131.211 111.608 128.644C110.379 126.077 109.758 123.262 109.791 120.417V111.35C114.746 111.127 119.587 109.796 123.958 107.454C128.329 109.796 133.171 111.127 138.125 111.35V120.417ZM74.3747 113.687H53.1247C51.2461 113.687 49.4444 114.434 48.116 115.762C46.7876 117.09 46.0413 118.892 46.0413 120.771C46.0413 122.649 46.7876 124.451 48.116 125.779C49.4444 127.108 51.2461 127.854 53.1247 127.854H74.3747C76.2533 127.854 78.055 127.108 79.3834 125.779C80.7117 124.451 81.458 122.649 81.458 120.771C81.458 118.892 80.7117 117.09 79.3834 115.762C78.055 114.434 76.2533 113.687 74.3747 113.687ZM81.458 85.3541H53.1247C51.2461 85.3541 49.4444 86.1004 48.116 87.4288C46.7876 88.7572 46.0413 90.5588 46.0413 92.4375C46.0413 94.3161 46.7876 96.1177 48.116 97.4461C49.4444 98.7745 51.2461 99.5208 53.1247 99.5208H81.458C83.3366 99.5208 85.1383 98.7745 86.4667 97.4461C87.7951 96.1177 88.5414 94.3161 88.5414 92.4375C88.5414 90.5588 87.7951 88.7572 86.4667 87.4288C85.1383 86.1004 83.3366 85.3541 81.458 85.3541Z" fill="#464646"/>
</svg>
