<svg width="170" height="170" viewBox="0 0 170 170" fill="none" xmlns="http://www.w3.org/2000/svg">
<path d="M151.654 61.2C151.654 61.2 151.654 61.2 151.654 60.8458C146.664 47.2191 137.608 35.4541 125.712 27.1424C113.816 18.8306 99.654 14.3733 85.142 14.3733C70.63 14.3733 56.4682 18.8306 44.5723 27.1424C32.6763 35.4541 23.6204 47.2191 18.6295 60.8458C18.6295 60.8458 18.6295 60.8458 18.6295 61.2C13.0558 76.5772 13.0558 93.4228 18.6295 108.8C18.6295 108.8 18.6295 108.8 18.6295 109.154C23.6204 122.781 32.6763 134.546 44.5723 142.858C56.4682 151.169 70.63 155.627 85.142 155.627C99.654 155.627 113.816 151.169 125.712 142.858C137.608 134.546 146.664 122.781 151.654 109.154C151.654 109.154 151.654 109.154 151.654 108.8C157.228 93.4228 157.228 76.5772 151.654 61.2ZM30.1753 99.1667C27.719 89.8819 27.719 80.1181 30.1753 70.8333H43.3503C42.2172 80.2438 42.2172 89.7562 43.3503 99.1667H30.1753ZM35.9837 113.333H45.9003C47.5629 119.651 49.9393 125.758 52.9837 131.537C46.037 126.805 40.2301 120.587 35.9837 113.333ZM45.9003 56.6667H35.9837C40.169 49.4352 45.9017 43.2187 52.7712 38.4625C49.8001 44.2513 47.4951 50.3584 45.9003 56.6667ZM77.917 139.542C69.217 133.157 63.1068 123.854 60.7045 113.333H77.917V139.542ZM77.917 99.1667H57.6587C56.3368 89.7685 56.3368 80.2315 57.6587 70.8333H77.917V99.1667ZM77.917 56.6667H60.7045C63.1068 46.1463 69.217 36.8427 77.917 30.4583V56.6667ZM134.017 56.6667H124.1C122.438 50.3494 120.061 44.2421 117.017 38.4625C123.964 43.1947 129.771 49.4129 134.017 56.6667ZM92.0836 30.4583C100.784 36.8427 106.894 46.1463 109.296 56.6667H92.0836V30.4583ZM92.0836 139.542V113.333H109.296C106.894 123.854 100.784 133.157 92.0836 139.542ZM112.342 99.1667H92.0836V70.8333H112.342C113.664 80.2315 113.664 89.7685 112.342 99.1667ZM117.229 131.537C120.274 125.758 122.65 119.651 124.313 113.333H134.229C129.983 120.587 124.176 126.805 117.229 131.537ZM139.825 99.1667H126.65C127.226 94.4666 127.51 89.7353 127.5 85C127.508 80.2648 127.224 75.5336 126.65 70.8333H139.825C142.282 80.1181 142.282 89.8819 139.825 99.1667Z" fill="#464646"/>
</svg>
