<svg width="170" height="170" viewBox="0 0 170 170" fill="none" xmlns="http://www.w3.org/2000/svg">
<path d="M85.0003 14.1666C66.8414 14.2184 49.3959 21.2423 36.267 33.7875V21.25C36.267 19.3713 35.5207 17.5697 34.1923 16.2413C32.8639 14.9129 31.0623 14.1666 29.1837 14.1666C27.305 14.1666 25.5034 14.9129 24.175 16.2413C22.8466 17.5697 22.1003 19.3713 22.1003 21.25V53.125C22.1003 55.0036 22.8466 56.8052 24.175 58.1336C25.5034 59.462 27.305 60.2083 29.1837 60.2083H61.0587C62.9373 60.2083 64.7389 59.462 66.0673 58.1336C67.3957 56.8052 68.142 55.0036 68.142 53.125C68.142 51.2463 67.3957 49.4447 66.0673 48.1163C64.7389 46.7879 62.9373 46.0416 61.0587 46.0416H44.0587C53.1662 36.5242 65.3052 30.4771 78.3883 28.9401C91.4714 27.4031 104.681 30.4723 115.747 37.6199C126.812 44.7674 135.041 55.5468 139.02 68.1047C142.999 80.6626 142.478 94.2143 137.547 106.43C132.617 118.645 123.584 128.761 112.003 135.039C100.422 141.316 87.0154 143.363 74.0888 140.826C61.1623 138.29 49.5232 131.329 41.1728 121.141C32.8225 110.952 28.2826 98.1729 28.3337 85C28.3337 83.1213 27.5874 81.3197 26.259 79.9913C24.9306 78.6629 23.1289 77.9166 21.2503 77.9166C19.3717 77.9166 17.57 78.6629 16.2417 79.9913C14.9133 81.3197 14.167 83.1213 14.167 85C14.167 99.0095 18.3213 112.704 26.1046 124.353C33.8878 136.001 44.9505 145.08 57.8936 150.441C70.8367 155.803 85.0789 157.205 98.8192 154.472C112.56 151.739 125.181 144.993 135.087 135.087C144.993 125.18 151.74 112.559 154.473 98.8188C157.206 85.0785 155.803 70.8363 150.442 57.8932C145.081 44.9501 136.002 33.8875 124.353 26.1042C112.705 18.3209 99.0098 14.1666 85.0003 14.1666ZM85.0003 56.6666C83.1217 56.6666 81.32 57.4129 79.9917 58.7413C78.6633 60.0697 77.917 61.8713 77.917 63.75V85C77.917 86.8786 78.6633 88.6802 79.9917 90.0086C81.32 91.337 83.1217 92.0833 85.0003 92.0833H99.167C101.046 92.0833 102.847 91.337 104.176 90.0086C105.504 88.6802 106.25 86.8786 106.25 85C106.25 83.1213 105.504 81.3197 104.176 79.9913C102.847 78.6629 101.046 77.9166 99.167 77.9166H92.0837V63.75C92.0837 61.8713 91.3374 60.0697 90.009 58.7413C88.6806 57.4129 86.8789 56.6666 85.0003 56.6666Z" fill="#464646"/>
</svg>
