<svg width="169" height="170" viewBox="0 0 169 170" fill="none" xmlns="http://www.w3.org/2000/svg">
<path d="M38.7288 123.958H28.1663V46.0416H83.0913L77.458 51.6375C76.132 52.9619 75.3834 54.7619 75.3768 56.6416C75.3702 58.5212 76.1062 60.3266 77.4228 61.6604C78.7394 62.9942 80.5289 63.7473 82.3975 63.7539C84.2661 63.7605 86.0608 63.0202 87.3868 61.6958L104.991 43.9875C105.651 43.329 106.175 42.5455 106.532 41.6824C106.89 40.8192 107.074 39.8934 107.074 38.9583C107.074 38.0232 106.89 37.0974 106.532 36.2342C106.175 35.371 105.651 34.5876 104.991 33.9291L87.3868 16.2208C86.0674 14.9015 84.2827 14.161 82.4224 14.161C80.5621 14.161 78.7774 14.9015 77.458 16.2208C76.798 16.8793 76.2741 17.6627 75.9167 18.5259C75.5592 19.389 75.3751 20.3149 75.3751 21.25C75.3751 22.185 75.5592 23.1109 75.9167 23.974C76.2741 24.8372 76.798 25.6206 77.458 26.2791L83.0209 31.875H21.1247C19.2571 31.875 17.466 32.6212 16.1455 33.9496C14.8249 35.278 14.083 37.0797 14.083 38.9583V131.042C14.083 132.92 14.8249 134.722 16.1455 136.05C17.466 137.379 19.2571 138.125 21.1247 138.125H38.7288C40.5964 138.125 42.3875 137.379 43.7081 136.05C45.0286 134.722 45.7705 132.92 45.7705 131.042C45.7705 129.163 45.0286 127.361 43.7081 126.033C42.3875 124.705 40.5964 123.958 38.7288 123.958ZM147.875 31.875H130.271C128.403 31.875 126.612 32.6212 125.291 33.9496C123.971 35.278 123.229 37.0797 123.229 38.9583C123.229 40.8369 123.971 42.6386 125.291 43.967C126.612 45.2953 128.403 46.0416 130.271 46.0416H140.833V123.958H81.8943L87.4572 118.362C88.1172 117.704 88.641 116.921 88.9985 116.057C89.356 115.194 89.5401 114.268 89.5401 113.333C89.5401 112.398 89.356 111.472 88.9985 110.609C88.641 109.746 88.1172 108.963 87.4572 108.304C86.1378 106.985 84.3531 106.244 82.4928 106.244C80.6325 106.244 78.8478 106.985 77.5284 108.304L59.9243 126.012C59.2643 126.671 58.7404 127.454 58.3829 128.318C58.0254 129.181 57.8413 130.107 57.8413 131.042C57.8413 131.977 58.0254 132.903 58.3829 133.766C58.7404 134.629 59.2643 135.412 59.9243 136.071L77.5284 153.779C78.8544 155.104 80.6491 155.844 82.5177 155.837C84.3863 155.831 86.1758 155.078 87.4924 153.744C88.809 152.41 89.545 150.605 89.5384 148.725C89.5318 146.845 88.7831 145.045 87.4572 143.721L81.8943 138.125H147.875C149.742 138.125 151.533 137.379 152.854 136.05C154.174 134.722 154.916 132.92 154.916 131.042V38.9583C154.916 37.0797 154.174 35.278 152.854 33.9496C151.533 32.6212 149.742 31.875 147.875 31.875Z" fill="#464646"/>
</svg>
