<svg width="170" height="170" viewBox="0 0 170 170" fill="none" xmlns="http://www.w3.org/2000/svg">
<path d="M141.029 109.862H108.942C107.063 109.862 105.262 110.609 103.933 111.937C102.605 113.266 101.859 115.067 101.859 116.946C101.859 118.824 102.605 120.626 103.933 121.954C105.262 123.283 107.063 124.029 108.942 124.029H125.942C118.129 132.194 108.052 137.837 97.0077 140.231C85.9631 142.626 74.4547 141.664 63.9612 137.468C53.4678 133.272 44.4686 126.034 38.1199 116.685C31.7713 107.335 28.3632 96.3012 28.3337 85C28.3337 83.1213 27.5874 81.3197 26.259 79.9913C24.9306 78.6629 23.1289 77.9166 21.2503 77.9166C19.3717 77.9166 17.57 78.6629 16.2417 79.9913C14.9133 81.3197 14.167 83.1213 14.167 85C14.2044 98.8323 18.2911 112.351 25.9225 123.888C33.554 135.424 44.3963 144.474 57.1114 149.92C69.8265 155.366 83.858 156.97 97.4742 154.534C111.09 152.099 123.695 145.729 133.734 136.212V148.75C133.734 150.629 134.48 152.43 135.808 153.759C137.137 155.087 138.938 155.833 140.817 155.833C142.696 155.833 144.497 155.087 145.826 153.759C147.154 152.43 147.9 150.629 147.9 148.75V116.875C147.883 115.045 147.158 113.293 145.877 111.985C144.596 110.678 142.859 109.917 141.029 109.862ZM85.0003 14.1666C66.8414 14.2184 49.3959 21.2423 36.267 33.7875V21.25C36.267 19.3713 35.5207 17.5697 34.1923 16.2413C32.8639 14.9129 31.0623 14.1666 29.1837 14.1666C27.305 14.1666 25.5034 14.9129 24.175 16.2413C22.8466 17.5697 22.1003 19.3713 22.1003 21.25V53.125C22.1003 55.0036 22.8466 56.8052 24.175 58.1336C25.5034 59.462 27.305 60.2083 29.1837 60.2083H61.0587C62.9373 60.2083 64.7389 59.462 66.0673 58.1336C67.3957 56.8052 68.142 55.0036 68.142 53.125C68.142 51.2463 67.3957 49.4447 66.0673 48.1163C64.7389 46.7879 62.9373 46.0416 61.0587 46.0416H44.0587C51.8678 37.8807 61.9376 32.2397 72.9756 29.8428C84.0137 27.4459 95.5162 28.4023 106.007 32.5894C116.497 36.7765 125.497 44.0031 131.851 53.3417C138.205 62.6803 141.623 73.7048 141.667 85C141.667 86.8786 142.413 88.6802 143.742 90.0086C145.07 91.337 146.872 92.0833 148.75 92.0833C150.629 92.0833 152.431 91.337 153.759 90.0086C155.087 88.6802 155.834 86.8786 155.834 85C155.834 75.698 154.001 66.4871 150.442 57.8932C146.882 49.2993 141.665 41.4907 135.087 34.9132C128.51 28.3357 120.701 23.1182 112.107 19.5585C103.513 15.9988 94.3023 14.1666 85.0003 14.1666Z" fill="#464646"/>
</svg>
