<svg width="170" height="170" viewBox="0 0 170 170" fill="none" xmlns="http://www.w3.org/2000/svg">
<path d="M87.1247 86.5583C90.9042 83.2867 93.9357 79.2404 96.0134 74.6939C98.0911 70.1474 99.1664 65.2071 99.1663 60.2083C99.1663 50.8152 95.435 41.8068 88.793 35.1649C82.1511 28.523 73.1428 24.7916 63.7497 24.7916C54.3566 24.7916 45.3482 28.523 38.7063 35.1649C32.0644 41.8068 28.333 50.8152 28.333 60.2083C28.333 65.2071 29.4083 70.1474 31.486 74.6939C33.5637 79.2404 36.5952 83.2867 40.3747 86.5583C30.459 91.0483 22.0463 98.2991 16.1425 107.444C10.2386 116.589 7.09343 127.24 7.08301 138.125C7.08301 140.004 7.82929 141.805 9.15767 143.134C10.4861 144.462 12.2877 145.208 14.1663 145.208C16.045 145.208 17.8466 144.462 19.175 143.134C20.5034 141.805 21.2497 140.004 21.2497 138.125C21.2497 126.853 25.7273 116.043 33.6976 108.073C41.6679 100.103 52.478 95.625 63.7497 95.625C75.0214 95.625 85.8314 100.103 93.8017 108.073C101.772 116.043 106.25 126.853 106.25 138.125C106.25 140.004 106.996 141.805 108.324 143.134C109.653 144.462 111.454 145.208 113.333 145.208C115.212 145.208 117.013 144.462 118.342 143.134C119.67 141.805 120.416 140.004 120.416 138.125C120.406 127.24 117.261 116.589 111.357 107.444C105.453 98.2991 97.0404 91.0483 87.1247 86.5583ZM63.7497 81.4583C59.5468 81.4583 55.4384 80.212 51.9438 77.877C48.4493 75.542 45.7256 72.2232 44.1172 68.3403C42.5089 64.4574 42.0881 60.1847 42.908 56.0626C43.7279 51.9405 45.7518 48.1541 48.7237 45.1823C51.6955 42.2104 55.4819 40.1865 59.604 39.3666C63.7261 38.5467 67.9988 38.9675 71.8817 40.5759C75.7646 42.1842 79.0834 44.9079 81.4184 48.4024C83.7534 51.897 84.9997 56.0054 84.9997 60.2083C84.9997 65.8441 82.7608 71.2492 78.7757 75.2343C74.7906 79.2195 69.3855 81.4583 63.7497 81.4583ZM132.741 83.725C137.274 78.6202 140.236 72.3141 141.268 65.5657C142.301 58.8173 141.361 51.9142 138.562 45.6875C135.763 39.4607 131.224 34.1756 125.491 30.4684C119.759 26.7611 113.077 24.7898 106.25 24.7916C104.371 24.7916 102.569 25.5379 101.241 26.8663C99.9126 28.1947 99.1663 29.9963 99.1663 31.875C99.1663 33.7536 99.9126 35.5552 101.241 36.8836C102.569 38.212 104.371 38.9583 106.25 38.9583C111.886 38.9583 117.291 41.1971 121.276 45.1823C125.261 49.1674 127.5 54.5724 127.5 60.2083C127.49 63.9287 126.503 67.5814 124.638 70.8009C122.774 74.0204 120.097 76.6939 116.875 78.5541C115.824 79.1599 114.947 80.0251 114.327 81.0669C113.707 82.1087 113.365 83.2922 113.333 84.5041C113.303 85.7066 113.58 86.8968 114.138 87.9626C114.696 89.0284 115.516 89.9346 116.521 90.5958L119.283 92.4375L120.204 92.9333C128.742 96.983 135.945 103.388 140.965 111.395C145.985 119.401 148.612 128.675 148.537 138.125C148.537 140.004 149.283 141.805 150.612 143.134C151.94 144.462 153.742 145.208 155.62 145.208C157.499 145.208 159.301 144.462 160.629 143.134C161.958 141.805 162.704 140.004 162.704 138.125C162.762 127.255 160.039 116.551 154.795 107.03C149.551 97.5082 141.959 89.4859 132.741 83.725Z" fill="#464646"/>
</svg>
