<svg width="150" height="150" viewBox="0 0 170 170" fill="none" xmlns="http://www.w3.org/2000/svg">
<path d="M153.779 110.358L121.762 78.4124C122.432 75.1497 122.765 71.8266 122.754 68.4958C122.752 59.3629 120.447 50.378 116.053 42.3716C111.659 34.3652 105.317 27.5957 97.6146 22.6889C89.9118 17.782 81.0964 14.8961 71.9831 14.2979C62.8699 13.6998 53.7529 15.4087 45.4748 19.2666C44.4261 19.7457 43.5101 20.4736 42.8065 21.3871C42.1029 22.3005 41.6329 23.3719 41.4373 24.5083C41.2426 25.6302 41.3211 26.7825 41.6664 27.8676C42.0116 28.9527 42.6134 29.9385 43.4207 30.7416L74.2332 61.4833L61.4832 74.2333L30.7415 43.4208C29.9316 42.6261 28.9427 42.0375 27.858 41.7047C26.7732 41.3719 25.6244 41.3045 24.5082 41.5083C23.379 41.6967 22.3122 42.1559 21.3993 42.8468C20.4865 43.5376 19.7546 44.4394 19.2665 45.4749C15.3956 53.7802 13.6882 62.9296 14.3031 72.0719C14.9181 81.2143 17.8353 90.0526 22.7835 97.7647C27.7316 105.477 34.55 111.812 42.6043 116.181C50.6585 120.55 59.687 122.811 68.8498 122.754C72.1807 122.765 75.5037 122.433 78.7665 121.762L110.712 153.779C111.371 154.443 112.154 154.97 113.017 155.33C113.881 155.689 114.806 155.874 115.742 155.874C116.677 155.874 117.602 155.689 118.466 155.33C119.329 154.97 120.112 154.443 120.771 153.779C121.435 153.121 121.962 152.337 122.321 151.474C122.681 150.611 122.866 149.685 122.866 148.75C122.866 147.815 122.681 146.889 122.321 146.026C121.962 145.163 121.435 144.379 120.771 143.721L86.0623 109.012C85.195 108.151 84.1194 107.528 82.9402 107.206C81.761 106.883 80.5184 106.871 79.3332 107.171C75.9131 108.087 72.3903 108.563 68.8498 108.587C63.5518 108.634 58.297 107.632 53.3879 105.639C48.4789 103.646 44.0126 100.702 40.2466 96.975C36.4805 93.2484 33.4889 88.8135 31.4443 83.9258C29.3996 79.038 28.3423 73.794 28.3332 68.4958C28.324 66.123 28.5135 63.7536 28.8998 61.4124L56.6665 89.25C57.325 89.9139 58.1084 90.4408 58.9716 90.8004C59.8348 91.16 60.7606 91.3452 61.6957 91.3452C62.6307 91.3452 63.5566 91.16 64.4198 90.8004C65.2829 90.4408 66.0663 89.9139 66.7248 89.25L89.2498 66.5124C90.5265 65.1916 91.2402 63.4265 91.2402 61.5895C91.2402 59.7525 90.5265 57.9874 89.2498 56.6666L61.6957 28.8999C64.0373 28.5175 66.4064 28.328 68.779 28.3333C79.4185 28.352 89.6158 32.5917 97.1324 40.1216C104.649 47.6515 108.871 57.8563 108.871 68.4958C108.846 72.0362 108.37 75.5591 107.454 78.9791C107.154 80.1643 107.166 81.407 107.489 82.5862C107.812 83.7653 108.434 84.8409 109.296 85.7083L144.004 120.417C145.338 121.75 147.147 122.5 149.033 122.5C150.919 122.5 152.729 121.75 154.062 120.417C155.396 119.083 156.145 117.274 156.145 115.387C156.145 113.501 155.396 111.692 154.062 110.358H153.779Z"/>
</svg>
